<svg width="321" height="294" viewBox="0 0 321 294" fill="none" xmlns="http://www.w3.org/2000/svg">
<path d="M160.086 267.56C229.398 267.56 285.586 211.371 285.586 142.06C285.586 72.7478 229.398 16.5596 160.086 16.5596C90.7742 16.5596 34.5859 72.7478 34.5859 142.06C34.5859 211.371 90.7742 267.56 160.086 267.56Z" fill="#EBDAFB"/>
<g style="mix-blend-mode:multiply">
<path d="M160.173 195.692L160.145 195.709L63.1992 244.63L160.145 293.551V293.559H160.154L257.128 244.63L160.173 195.692Z" fill="#EDECEB"/>
</g>
<path d="M176.69 101.527L157.578 130.474L234.09 169.071L253.202 140.124L176.69 101.527Z" fill="#DBB685"/>
<path d="M234.08 169.05L246.81 201.231L234.08 207.662L176.685 236.62L157.562 207.662L234.08 169.05Z" fill="#C19D78"/>
<path d="M234.074 207.662L234.065 246.267L157.547 284.88V207.679L157.556 207.662L176.679 236.62L234.074 207.662Z" fill="#DBB685"/>
<path d="M234.074 169.05L157.556 207.662H157.547V207.654V130.453L157.575 130.445L234.074 169.05Z" fill="#A37D5F"/>
<path d="M157.58 130.445L157.552 130.453L81.0621 169.05L61.9492 140.1L138.467 101.496L157.58 130.445Z" fill="#C19D78"/>
<path d="M157.547 207.662H157.554L157.547 207.677V207.662Z" fill="black"/>
<path d="M157.556 207.654V207.662V207.679L138.433 236.62L81.0663 207.671V207.662L68.3086 201.231L81.0474 169.05H81.0663L157.556 207.654Z" fill="#DBB685"/>
<path d="M157.554 207.679V284.88L81.0547 246.267L81.0642 207.671L138.431 236.62L157.554 207.679Z" fill="#C19D78"/>
<path d="M157.556 130.453V207.654L81.0664 169.05L157.556 130.453Z" fill="#B5906F"/>
<g style="mix-blend-mode:multiply">
<path d="M157.575 211.068L175.44 241.679L234.074 212.308V207.662L176.679 236.62L157.547 207.654L157.575 211.068Z" fill="#E9E5D9"/>
</g>
<g style="mix-blend-mode:multiply">
<path d="M157.587 211.068L139.722 241.679L81.0781 212.308V207.662L138.474 236.62L157.605 207.654L157.587 211.068Z" fill="#E9E5D9"/>
</g>
<mask id="mask0_4811_10721" style="mask-type:luminance" maskUnits="userSpaceOnUse" x="81" y="130" width="154" height="78">
<path d="M157.58 130.445L157.552 130.453L81.0625 169.05L157.552 207.654V207.662H157.561L234.079 169.05L157.58 130.445Z" fill="white"/>
</mask>
<g mask="url(#mask0_4811_10721)">
<path d="M188.122 182.793L152.688 201.878L162.828 216.263L198.262 197.179L188.122 182.793Z" fill="#BFBB68"/>
<path d="M162.155 212.275L156.48 204.182C157.031 203.885 157.424 203.409 157.573 202.859C157.722 202.308 157.615 201.729 157.275 201.248L185.514 186.037C185.854 186.519 186.399 186.862 187.028 186.992C187.658 187.122 188.321 187.029 188.871 186.732L194.546 194.833C193.995 195.13 193.602 195.606 193.453 196.156C193.304 196.707 193.411 197.286 193.751 197.768L165.512 212.978C165.345 212.739 165.125 212.531 164.865 212.367C164.606 212.202 164.312 212.084 164 212.018C163.688 211.953 163.365 211.942 163.048 211.986C162.732 212.03 162.428 212.129 162.155 212.275Z" fill="#D8D17D"/>
<path d="M180.471 196.825C181.081 197.684 181.385 198.682 181.346 199.692C181.306 200.702 180.925 201.679 180.25 202.5C179.575 203.321 178.637 203.948 177.554 204.302C176.471 204.657 175.292 204.722 174.166 204.491C173.04 204.259 172.019 203.741 171.23 203.002C170.441 202.263 169.921 201.335 169.736 200.338C169.55 199.34 169.708 198.317 170.188 197.397C170.668 196.477 171.449 195.703 172.433 195.172C173.75 194.46 175.336 194.235 176.843 194.545C178.35 194.855 179.655 195.675 180.471 196.825Z" fill="#BFBB68"/>
<path d="M178.089 199.47C178.203 199.624 178.276 199.798 178.303 199.98C178.329 200.162 178.308 200.347 178.241 200.52C178.056 200.949 177.726 201.318 177.295 201.578L177.9 202.405L177.361 202.694L176.784 201.868C176.483 202.033 176.167 202.177 175.839 202.297C175.566 202.398 175.28 202.467 174.987 202.504L174.581 201.934C174.904 201.891 175.221 201.819 175.526 201.719C175.837 201.63 176.135 201.511 176.415 201.363L175.281 199.751C174.764 199.894 174.216 199.925 173.682 199.842C173.484 199.799 173.298 199.721 173.135 199.613C172.973 199.505 172.837 199.369 172.737 199.214C172.627 199.065 172.559 198.895 172.536 198.719C172.513 198.543 172.536 198.364 172.604 198.197C172.78 197.803 173.082 197.461 173.474 197.214L173.001 196.544L173.54 196.255L174.004 196.916C174.525 196.655 175.095 196.476 175.687 196.387L175.81 196.982C175.303 197.06 174.812 197.205 174.354 197.412L175.479 199.007C175.883 198.908 176.299 198.85 176.718 198.834C176.983 198.82 177.248 198.868 177.484 198.974C177.74 199.081 177.951 199.254 178.089 199.47ZM173.512 198.859C173.565 198.943 173.636 199.017 173.723 199.076C173.809 199.136 173.907 199.18 174.013 199.206C174.304 199.257 174.603 199.257 174.893 199.206L173.89 197.784C173.676 197.931 173.515 198.129 173.427 198.354C173.399 198.439 173.393 198.528 173.407 198.614C173.422 198.701 173.458 198.785 173.512 198.859ZM177.408 199.9C177.357 199.821 177.288 199.751 177.205 199.695C177.122 199.64 177.027 199.6 176.926 199.578C176.61 199.537 176.287 199.557 175.98 199.636L176.983 201.066C177.531 200.669 177.673 200.28 177.437 199.9H177.408Z" fill="#D8D17D"/>
<path d="M135.868 179.956L100.434 199.041L110.574 213.426L146.008 194.342L135.868 179.956Z" fill="#BFBB68"/>
<path d="M109.889 209.439L104.215 201.347C104.765 201.049 105.158 200.573 105.307 200.023C105.456 199.473 105.349 198.893 105.009 198.412L133.248 183.202C133.588 183.683 134.133 184.026 134.762 184.156C135.392 184.287 136.055 184.193 136.606 183.896L142.28 191.989C141.729 192.286 141.337 192.762 141.188 193.312C141.039 193.863 141.146 194.442 141.485 194.924L113.246 210.134C112.906 209.653 112.362 209.309 111.732 209.179C111.103 209.049 110.44 209.143 109.889 209.439Z" fill="#D8D17D"/>
<path d="M128.257 193.99C128.866 194.849 129.17 195.846 129.131 196.857C129.092 197.867 128.71 198.844 128.035 199.665C127.36 200.486 126.422 201.113 125.339 201.467C124.256 201.821 123.077 201.887 121.951 201.656C120.826 201.424 119.804 200.906 119.015 200.167C118.227 199.427 117.707 198.5 117.521 197.502C117.335 196.505 117.493 195.481 117.973 194.562C118.453 193.642 119.234 192.868 120.218 192.337C120.87 191.983 121.595 191.746 122.352 191.638C123.109 191.529 123.883 191.553 124.629 191.706C125.376 191.86 126.081 192.141 126.703 192.532C127.325 192.924 127.853 193.42 128.257 193.99Z" fill="#BFBB68"/>
<path d="M125.824 196.626C125.938 196.782 126.011 196.957 126.037 197.14C126.063 197.323 126.042 197.509 125.975 197.684C125.79 198.111 125.46 198.477 125.029 198.734L125.635 199.561L125.096 199.859L124.519 199.032C124.215 199.192 123.899 199.332 123.573 199.453C123.301 199.556 123.015 199.628 122.722 199.668L122.315 199.098C122.637 199.052 122.954 198.98 123.261 198.883C123.572 198.792 123.87 198.67 124.15 198.519L123.015 196.907C122.498 197.048 121.951 197.082 121.417 197.007C121.219 196.962 121.034 196.883 120.872 196.775C120.709 196.667 120.573 196.533 120.471 196.378C120.362 196.229 120.293 196.06 120.27 195.883C120.247 195.707 120.271 195.529 120.339 195.362C120.512 194.966 120.814 194.624 121.209 194.378L120.736 193.708L121.275 193.419L121.738 194.08C122.259 193.817 122.829 193.635 123.422 193.543L123.545 194.146C123.036 194.221 122.544 194.366 122.088 194.576L123.214 196.163C123.617 196.064 124.033 196.006 124.452 195.99C124.717 195.984 124.979 196.032 125.218 196.13C125.472 196.24 125.682 196.413 125.824 196.626ZM121.246 196.023C121.299 196.106 121.371 196.179 121.457 196.237C121.543 196.296 121.642 196.338 121.748 196.362C122.037 196.418 122.337 196.418 122.627 196.362L121.634 194.915C121.418 195.057 121.256 195.253 121.171 195.477C121.136 195.567 121.125 195.663 121.138 195.758C121.151 195.852 121.188 195.943 121.246 196.023ZM125.143 197.064C125.093 196.983 125.025 196.911 124.942 196.855C124.859 196.798 124.763 196.756 124.66 196.734C124.343 196.701 124.022 196.724 123.715 196.8L124.717 198.23C125.266 197.825 125.417 197.436 125.143 197.064Z" fill="#D8D17D"/>
<path d="M172.088 188.318L133.355 175.002L126.28 190.727L165.013 204.043L172.088 188.318Z" fill="#BFBB68"/>
<path d="M129.477 187.864L133.458 179.011C134.06 179.217 134.731 179.207 135.325 178.982C135.918 178.758 136.386 178.337 136.626 177.812L167.485 188.426C167.25 188.952 167.263 189.539 167.522 190.056C167.781 190.574 168.264 190.981 168.866 191.187L164.884 200.049C164.586 199.946 164.268 199.895 163.947 199.899C163.627 199.903 163.31 199.963 163.016 200.074C162.722 200.186 162.455 200.347 162.232 200.548C162.009 200.749 161.834 200.987 161.716 201.248L130.857 190.625C131.092 190.099 131.079 189.513 130.82 188.995C130.561 188.477 130.078 188.071 129.477 187.864Z" fill="#D8D17D"/>
<path d="M154.604 191.394C154.183 192.336 153.452 193.147 152.503 193.725C151.554 194.303 150.43 194.622 149.274 194.641C148.118 194.661 146.98 194.38 146.007 193.835C145.033 193.289 144.266 192.503 143.804 191.576C143.341 190.65 143.204 189.624 143.409 188.629C143.614 187.634 144.152 186.715 144.955 185.987C145.758 185.259 146.789 184.756 147.92 184.542C149.05 184.327 150.228 184.41 151.304 184.781C152.743 185.277 153.899 186.251 154.518 187.491C155.137 188.731 155.168 190.134 154.604 191.394Z" fill="#BFBB68"/>
<path d="M150.757 191.319C150.684 191.491 150.568 191.646 150.417 191.774C150.267 191.901 150.085 191.997 149.887 192.055C149.394 192.188 148.866 192.188 148.374 192.055L147.957 192.981L147.362 192.783L147.768 191.89C147.441 191.775 147.125 191.636 146.823 191.477C146.563 191.348 146.324 191.19 146.113 191.005L146.397 190.385C146.634 190.587 146.894 190.767 147.172 190.923C147.442 191.087 147.73 191.225 148.033 191.336L148.827 189.567C148.388 189.291 148.028 188.928 147.778 188.509C147.701 188.346 147.661 188.172 147.661 187.996C147.661 187.82 147.701 187.646 147.778 187.484C147.848 187.317 147.961 187.167 148.109 187.045C148.257 186.923 148.435 186.833 148.629 186.781C149.092 186.661 149.585 186.661 150.047 186.781L150.369 186.054L150.965 186.26L150.643 186.98C151.193 187.176 151.699 187.456 152.137 187.806L151.665 188.244C151.286 187.939 150.859 187.683 150.397 187.484L149.612 189.228C149.943 189.452 150.244 189.707 150.511 189.989C150.681 190.166 150.796 190.38 150.842 190.609C150.898 190.848 150.868 191.096 150.757 191.319ZM148.563 187.748C148.518 187.837 148.496 187.933 148.496 188.029C148.496 188.126 148.518 188.222 148.563 188.31C148.699 188.541 148.889 188.744 149.121 188.906L149.82 187.352C149.558 187.284 149.279 187.284 149.017 187.352C148.912 187.384 148.816 187.436 148.738 187.505C148.659 187.573 148.599 187.657 148.563 187.748ZM149.953 191.096C150.033 190.924 150.033 190.731 149.953 190.559C149.793 190.316 149.577 190.105 149.319 189.939L148.61 191.493C149.316 191.642 149.764 191.51 149.953 191.096Z" fill="#D8D17D"/>
<path d="M174.244 192.08C175.241 192.08 176.215 192.339 177.044 192.823C177.873 193.307 178.519 193.995 178.901 194.8C179.282 195.605 179.382 196.491 179.188 197.346C178.993 198.2 178.513 198.985 177.808 199.602C177.103 200.218 176.205 200.637 175.227 200.808C174.249 200.978 173.236 200.89 172.315 200.557C171.394 200.223 170.607 199.659 170.053 198.934C169.499 198.209 169.203 197.358 169.203 196.486C169.202 195.907 169.331 195.334 169.584 194.799C169.837 194.264 170.208 193.778 170.677 193.368C171.145 192.959 171.701 192.634 172.313 192.413C172.925 192.192 173.581 192.079 174.244 192.08ZM178.556 196.486C178.556 195.741 178.303 195.012 177.829 194.392C177.356 193.772 176.682 193.289 175.894 193.004C175.106 192.718 174.239 192.644 173.402 192.789C172.566 192.934 171.798 193.294 171.194 193.821C170.591 194.348 170.181 195.02 170.014 195.751C169.848 196.482 169.933 197.24 170.26 197.929C170.586 198.617 171.139 199.206 171.848 199.62C172.557 200.035 173.391 200.256 174.244 200.256C175.388 200.256 176.484 199.859 177.293 199.152C178.102 198.445 178.556 197.486 178.556 196.486Z" fill="#FBBE68"/>
<path d="M174.238 192.717C175.091 192.717 175.925 192.938 176.634 193.352C177.343 193.766 177.896 194.355 178.222 195.044C178.549 195.732 178.634 196.49 178.468 197.221C178.301 197.953 177.891 198.624 177.288 199.152C176.685 199.679 175.916 200.038 175.08 200.183C174.243 200.329 173.376 200.254 172.588 199.969C171.8 199.683 171.126 199.2 170.653 198.58C170.179 197.96 169.926 197.232 169.926 196.486C169.926 195.486 170.38 194.528 171.189 193.821C171.998 193.114 173.095 192.717 174.238 192.717ZM178.248 196.486C178.25 195.792 178.016 195.114 177.577 194.537C177.137 193.959 176.512 193.509 175.779 193.242C175.047 192.975 174.24 192.905 173.462 193.039C172.683 193.173 171.968 193.507 171.406 193.996C170.845 194.486 170.462 195.111 170.306 195.791C170.151 196.471 170.23 197.176 170.533 197.817C170.836 198.458 171.35 199.006 172.01 199.392C172.669 199.777 173.445 199.983 174.238 199.983C175.3 199.983 176.319 199.615 177.07 198.959C177.822 198.304 178.246 197.414 178.248 196.486Z" fill="#EAAA5E"/>
<path d="M174.246 192.981C175.04 192.98 175.816 193.184 176.477 193.568C177.137 193.952 177.653 194.499 177.958 195.139C178.263 195.779 178.343 196.484 178.19 197.165C178.036 197.845 177.655 198.471 177.095 198.962C176.534 199.453 175.82 199.787 175.042 199.923C174.264 200.059 173.457 199.99 172.724 199.725C171.99 199.46 171.364 199.011 170.923 198.434C170.481 197.858 170.246 197.18 170.246 196.486C170.246 195.558 170.667 194.668 171.417 194.011C172.167 193.354 173.185 192.983 174.246 192.981ZM177.708 196.486C177.71 195.887 177.508 195.302 177.129 194.803C176.75 194.304 176.21 193.915 175.578 193.685C174.945 193.455 174.249 193.394 173.577 193.51C172.905 193.625 172.287 193.913 171.802 194.336C171.317 194.758 170.987 195.298 170.852 195.885C170.718 196.472 170.786 197.081 171.048 197.634C171.309 198.187 171.753 198.66 172.322 198.993C172.892 199.326 173.561 199.503 174.246 199.503C175.163 199.503 176.042 199.186 176.691 198.62C177.339 198.055 177.705 197.287 177.708 196.486Z" fill="#FCCD8A"/>
<path d="M174.241 193.436C174.926 193.434 175.596 193.61 176.166 193.942C176.737 194.273 177.182 194.745 177.445 195.298C177.709 195.85 177.779 196.459 177.646 197.047C177.514 197.634 177.185 198.174 176.701 198.598C176.218 199.022 175.601 199.311 174.929 199.428C174.257 199.546 173.561 199.486 172.928 199.257C172.295 199.029 171.754 198.641 171.373 198.143C170.992 197.645 170.789 197.06 170.789 196.461C170.789 195.66 171.152 194.892 171.8 194.325C172.447 193.758 173.325 193.438 174.241 193.436Z" fill="#FBBE68"/>
<path d="M158.591 197.371C159.588 197.371 160.563 197.629 161.392 198.113C162.221 198.597 162.867 199.285 163.248 200.091C163.63 200.896 163.73 201.782 163.535 202.636C163.341 203.491 162.861 204.276 162.156 204.892C161.451 205.508 160.553 205.928 159.575 206.098C158.597 206.268 157.584 206.181 156.662 205.847C155.741 205.514 154.954 204.949 154.4 204.224C153.846 203.5 153.551 202.648 153.551 201.777C153.551 200.608 154.082 199.487 155.027 198.661C155.972 197.835 157.255 197.371 158.591 197.371ZM162.904 201.777C162.904 201.031 162.651 200.302 162.177 199.682C161.703 199.063 161.03 198.579 160.242 198.294C159.454 198.009 158.587 197.934 157.75 198.08C156.914 198.225 156.145 198.584 155.542 199.111C154.939 199.638 154.528 200.31 154.362 201.041C154.195 201.772 154.281 202.53 154.607 203.219C154.934 203.908 155.486 204.497 156.196 204.911C156.905 205.325 157.739 205.546 158.591 205.546C159.735 205.546 160.832 205.149 161.641 204.442C162.45 203.735 162.904 202.776 162.904 201.777Z" fill="#FBBE68"/>
<path d="M158.59 198.007C159.443 198.007 160.277 198.228 160.986 198.642C161.695 199.057 162.248 199.645 162.574 200.334C162.9 201.023 162.986 201.781 162.819 202.512C162.653 203.243 162.242 203.915 161.639 204.442C161.036 204.969 160.268 205.328 159.431 205.474C158.595 205.619 157.728 205.544 156.94 205.259C156.152 204.974 155.478 204.491 155.004 203.871C154.53 203.251 154.277 202.522 154.277 201.777C154.277 200.777 154.732 199.818 155.54 199.111C156.349 198.404 157.446 198.007 158.59 198.007ZM162.6 201.777C162.6 201.083 162.364 200.406 161.924 199.829C161.483 199.253 160.857 198.804 160.124 198.538C159.392 198.273 158.585 198.204 157.808 198.339C157.03 198.474 156.315 198.808 155.754 199.298C155.194 199.788 154.812 200.413 154.657 201.093C154.502 201.773 154.582 202.477 154.885 203.118C155.189 203.758 155.703 204.306 156.362 204.691C157.021 205.076 157.797 205.282 158.59 205.282C159.117 205.283 159.639 205.193 160.126 205.017C160.613 204.841 161.055 204.583 161.428 204.257C161.801 203.932 162.096 203.545 162.297 203.119C162.498 202.693 162.601 202.237 162.6 201.777Z" fill="#EAAA5E"/>
<path d="M158.592 198.28C159.385 198.28 160.161 198.486 160.821 198.871C161.48 199.257 161.994 199.805 162.297 200.446C162.601 201.087 162.679 201.792 162.524 202.472C162.368 203.152 161.986 203.777 161.424 204.266C160.862 204.756 160.147 205.089 159.368 205.224C158.59 205.358 157.783 205.287 157.051 205.021C156.318 204.754 155.693 204.304 155.253 203.726C154.814 203.149 154.58 202.47 154.582 201.777C154.582 201.317 154.686 200.862 154.887 200.437C155.089 200.012 155.385 199.626 155.757 199.301C156.13 198.976 156.572 198.719 157.058 198.544C157.545 198.369 158.066 198.279 158.592 198.28ZM162.053 201.777C162.053 201.178 161.85 200.593 161.47 200.096C161.09 199.598 160.549 199.211 159.916 198.982C159.284 198.753 158.588 198.693 157.917 198.809C157.245 198.926 156.628 199.214 156.144 199.637C155.66 200.061 155.331 200.6 155.197 201.187C155.064 201.773 155.132 202.382 155.394 202.935C155.656 203.487 156.1 203.96 156.669 204.292C157.238 204.625 157.907 204.802 158.592 204.802C159.047 204.803 159.497 204.726 159.918 204.574C160.338 204.423 160.721 204.2 161.042 203.919C161.364 203.637 161.619 203.303 161.792 202.936C161.966 202.568 162.054 202.174 162.053 201.777Z" fill="#FCCD8A"/>
<path d="M158.586 198.759C159.271 198.759 159.941 198.937 160.51 199.27C161.08 199.603 161.523 200.076 161.785 200.629C162.047 201.182 162.115 201.791 161.98 202.378C161.846 202.965 161.516 203.504 161.03 203.927C160.545 204.35 159.928 204.637 159.256 204.753C158.584 204.869 157.887 204.808 157.255 204.578C156.623 204.347 156.083 203.958 155.704 203.46C155.325 202.961 155.123 202.375 155.125 201.777C155.125 201.38 155.215 200.987 155.389 200.62C155.563 200.253 155.818 199.92 156.139 199.64C156.461 199.36 156.843 199.138 157.262 198.987C157.682 198.835 158.132 198.758 158.586 198.759Z" fill="#FBBE68"/>
<path d="M159.188 200.347C159.394 200.41 159.568 200.533 159.682 200.696C159.796 200.858 159.842 201.05 159.812 201.239V201.305H159.292C159.302 201.209 159.288 201.111 159.251 201.02C159.213 200.928 159.153 200.845 159.074 200.776L158.847 201.603C159.5 201.694 159.85 201.917 159.85 202.43C159.85 202.975 159.396 203.306 158.62 203.306H158.384L158.242 203.818H157.816L157.987 203.215C157.784 203.148 157.611 203.026 157.494 202.867C157.376 202.708 157.32 202.52 157.334 202.331H157.864C157.856 202.422 157.873 202.515 157.914 202.599C157.955 202.684 158.019 202.759 158.1 202.818L158.337 201.95C157.656 201.851 157.391 201.603 157.391 201.181C157.391 200.652 157.883 200.355 158.611 200.355H158.8L158.942 199.851H159.367L159.188 200.347ZM158.431 201.545L158.677 200.652H158.573C158.195 200.652 157.902 200.818 157.902 201.091C157.902 201.33 158.043 201.471 158.431 201.545ZM159.311 202.446C159.311 202.19 159.131 202.058 158.743 201.992L158.488 202.934H158.63C159.027 202.909 159.311 202.736 159.311 202.446Z" fill="#EAAA5E"/>
<path d="M162.591 187.889C163.588 187.889 164.563 188.148 165.392 188.632C166.221 189.116 166.867 189.804 167.248 190.609C167.63 191.414 167.73 192.3 167.535 193.155C167.341 194.009 166.861 194.795 166.156 195.411C165.451 196.027 164.553 196.447 163.575 196.617C162.597 196.787 161.584 196.699 160.662 196.366C159.741 196.032 158.954 195.468 158.4 194.743C157.846 194.018 157.551 193.167 157.551 192.295C157.551 191.127 158.082 190.006 159.027 189.18C159.972 188.353 161.255 187.889 162.591 187.889ZM166.904 192.295C166.902 191.55 166.648 190.822 166.173 190.203C165.698 189.584 165.023 189.103 164.235 188.819C163.447 188.534 162.58 188.461 161.744 188.607C160.908 188.754 160.141 189.113 159.539 189.641C158.937 190.168 158.527 190.84 158.361 191.571C158.196 192.302 158.281 193.06 158.608 193.748C158.935 194.436 159.488 195.024 160.197 195.438C160.906 195.852 161.739 196.073 162.591 196.073C163.159 196.073 163.72 195.975 164.244 195.785C164.768 195.595 165.244 195.317 165.644 194.966C166.045 194.615 166.362 194.199 166.578 193.74C166.795 193.282 166.905 192.791 166.904 192.295Z" fill="#FBBE68"/>
<path d="M162.598 188.525C163.453 188.524 164.29 188.744 165.002 189.159C165.715 189.573 166.27 190.163 166.598 190.854C166.926 191.544 167.013 192.305 166.846 193.038C166.68 193.772 166.268 194.446 165.663 194.974C165.058 195.503 164.287 195.863 163.448 196.009C162.609 196.154 161.739 196.079 160.949 195.792C160.159 195.505 159.484 195.019 159.01 194.397C158.535 193.774 158.283 193.043 158.285 192.295C158.285 191.295 158.74 190.336 159.548 189.629C160.357 188.923 161.454 188.525 162.598 188.525ZM166.598 192.295C166.598 191.601 166.363 190.923 165.922 190.347C165.481 189.77 164.854 189.321 164.12 189.056C163.387 188.791 162.58 188.722 161.802 188.858C161.024 188.994 160.31 189.328 159.749 189.819C159.189 190.31 158.808 190.936 158.654 191.616C158.501 192.297 158.581 193.002 158.886 193.642C159.191 194.282 159.707 194.829 160.367 195.213C161.028 195.597 161.804 195.802 162.598 195.8C163.124 195.8 163.645 195.709 164.131 195.533C164.617 195.357 165.058 195.098 165.43 194.773C165.801 194.447 166.096 194.061 166.296 193.636C166.497 193.21 166.599 192.755 166.598 192.295Z" fill="#EAAA5E"/>
<path d="M162.6 188.798C163.393 188.798 164.169 189.004 164.828 189.389C165.488 189.775 166.002 190.323 166.305 190.964C166.608 191.605 166.687 192.31 166.532 192.99C166.376 193.67 165.993 194.295 165.432 194.784C164.87 195.274 164.155 195.607 163.376 195.742C162.598 195.876 161.791 195.805 161.059 195.539C160.326 195.272 159.7 194.822 159.261 194.244C158.822 193.667 158.588 192.988 158.59 192.295C158.59 191.835 158.694 191.38 158.895 190.955C159.097 190.53 159.392 190.144 159.765 189.819C160.137 189.495 160.579 189.237 161.066 189.062C161.552 188.887 162.074 188.797 162.6 188.798ZM166.052 192.295C166.052 191.696 165.848 191.111 165.468 190.613C165.087 190.115 164.546 189.728 163.913 189.499C163.28 189.27 162.583 189.211 161.911 189.328C161.24 189.445 160.623 189.734 160.139 190.158C159.656 190.582 159.327 191.122 159.194 191.71C159.062 192.297 159.132 192.906 159.395 193.458C159.659 194.011 160.104 194.483 160.674 194.814C161.245 195.146 161.915 195.322 162.6 195.32C163.057 195.325 163.511 195.25 163.934 195.099C164.358 194.949 164.744 194.727 165.068 194.445C165.393 194.164 165.651 193.829 165.826 193.46C166.001 193.091 166.091 192.695 166.089 192.295H166.052Z" fill="#FCCD8A"/>
<path d="M162.59 189.303C163.275 189.303 163.945 189.48 164.514 189.813C165.084 190.146 165.527 190.619 165.789 191.172C166.051 191.725 166.119 192.334 165.984 192.921C165.85 193.508 165.519 194.048 165.034 194.47C164.549 194.893 163.932 195.181 163.26 195.296C162.588 195.412 161.891 195.351 161.259 195.121C160.627 194.891 160.087 194.502 159.708 194.003C159.328 193.504 159.127 192.919 159.129 192.32C159.129 191.923 159.219 191.53 159.393 191.163C159.567 190.797 159.822 190.464 160.143 190.183C160.465 189.903 160.846 189.681 161.266 189.53C161.686 189.379 162.136 189.301 162.59 189.303Z" fill="#FBBE68"/>
<path d="M139.771 192.733C140.768 192.733 141.743 192.992 142.572 193.476C143.401 193.96 144.047 194.648 144.428 195.453C144.81 196.258 144.909 197.144 144.715 197.999C144.52 198.853 144.04 199.639 143.335 200.255C142.63 200.871 141.732 201.291 140.755 201.461C139.777 201.631 138.763 201.543 137.842 201.21C136.921 200.876 136.134 200.312 135.58 199.587C135.026 198.862 134.73 198.011 134.73 197.139C134.73 195.971 135.262 194.85 136.207 194.024C137.152 193.197 138.434 192.733 139.771 192.733ZM144.084 197.139C144.085 196.391 143.833 195.66 143.359 195.037C142.885 194.415 142.21 193.929 141.42 193.642C140.63 193.355 139.76 193.28 138.921 193.425C138.082 193.571 137.311 193.931 136.706 194.46C136.101 194.988 135.689 195.662 135.522 196.396C135.356 197.13 135.442 197.89 135.771 198.58C136.099 199.271 136.654 199.861 137.366 200.275C138.079 200.69 138.916 200.91 139.771 200.909C140.915 200.909 142.012 200.512 142.821 199.805C143.629 199.098 144.084 198.139 144.084 197.139Z" fill="#FBBE68"/>
<path d="M139.771 193.37C140.624 193.371 141.456 193.594 142.164 194.009C142.872 194.424 143.424 195.013 143.749 195.702C144.074 196.391 144.158 197.149 143.99 197.88C143.823 198.61 143.411 199.281 142.808 199.808C142.204 200.334 141.436 200.692 140.6 200.837C139.763 200.982 138.897 200.906 138.109 200.621C137.322 200.335 136.649 199.852 136.175 199.233C135.702 198.613 135.449 197.884 135.449 197.139C135.449 196.643 135.561 196.153 135.778 195.695C135.996 195.237 136.314 194.821 136.716 194.471C137.117 194.121 137.594 193.843 138.118 193.654C138.642 193.465 139.204 193.369 139.771 193.37ZM143.772 197.139C143.771 196.446 143.536 195.768 143.095 195.191C142.654 194.614 142.027 194.165 141.294 193.9C140.561 193.635 139.754 193.566 138.976 193.702C138.198 193.838 137.483 194.173 136.923 194.664C136.363 195.155 135.981 195.78 135.828 196.46C135.674 197.141 135.755 197.846 136.06 198.486C136.365 199.127 136.88 199.673 137.541 200.057C138.201 200.442 138.978 200.646 139.771 200.644C140.297 200.644 140.818 200.553 141.304 200.377C141.79 200.201 142.232 199.943 142.603 199.617C142.975 199.291 143.269 198.905 143.47 198.48C143.67 198.055 143.773 197.599 143.772 197.139Z" fill="#EAAA5E"/>
<path d="M139.768 193.643C140.561 193.643 141.337 193.848 141.996 194.234C142.656 194.619 143.17 195.167 143.473 195.808C143.776 196.449 143.855 197.154 143.7 197.834C143.544 198.515 143.161 199.139 142.6 199.629C142.038 200.119 141.323 200.452 140.544 200.586C139.766 200.721 138.959 200.65 138.227 200.383C137.494 200.117 136.868 199.666 136.429 199.089C135.99 198.511 135.756 197.833 135.758 197.139C135.758 196.679 135.862 196.224 136.063 195.799C136.265 195.374 136.56 194.989 136.933 194.664C137.305 194.339 137.747 194.082 138.234 193.906C138.72 193.731 139.242 193.642 139.768 193.643ZM143.22 197.139C143.22 196.541 143.016 195.955 142.636 195.458C142.255 194.96 141.714 194.572 141.081 194.343C140.448 194.115 139.751 194.055 139.079 194.173C138.408 194.29 137.791 194.579 137.307 195.003C136.824 195.427 136.495 195.967 136.362 196.554C136.23 197.142 136.3 197.75 136.563 198.303C136.827 198.856 137.272 199.328 137.842 199.659C138.413 199.99 139.083 200.166 139.768 200.165C140.222 200.165 140.671 200.087 141.091 199.934C141.51 199.782 141.891 199.559 142.212 199.278C142.533 198.997 142.787 198.664 142.959 198.297C143.132 197.929 143.221 197.536 143.22 197.139Z" fill="#FCCD8A"/>
<path d="M139.766 200.165C141.678 200.165 143.227 198.81 143.227 197.139C143.227 195.468 141.678 194.114 139.766 194.114C137.854 194.114 136.305 195.468 136.305 197.139C136.305 198.81 137.854 200.165 139.766 200.165Z" fill="#FBBE68"/>
<path d="M140.359 195.701C140.561 195.771 140.731 195.897 140.844 196.06C140.956 196.223 141.005 196.413 140.984 196.602V196.668H140.454C140.467 196.571 140.453 196.473 140.416 196.381C140.378 196.289 140.317 196.206 140.236 196.139L140.01 196.965C140.672 197.056 141.012 197.28 141.012 197.792C141.012 198.338 140.567 198.668 139.792 198.668H139.603L139.461 199.181H139.035L139.196 198.577C138.995 198.509 138.824 198.386 138.709 198.227C138.593 198.068 138.538 197.881 138.553 197.693H139.073C139.068 197.784 139.086 197.876 139.127 197.961C139.168 198.045 139.23 198.12 139.31 198.181L139.546 197.313C138.865 197.213 138.6 196.965 138.6 196.544C138.6 196.015 139.083 195.717 139.811 195.717H140.01L140.151 195.213H140.549L140.359 195.701ZM139.603 196.899L139.849 196.015H139.745C139.366 196.015 139.073 196.172 139.073 196.453C139.073 196.693 139.206 196.833 139.603 196.899ZM140.473 197.809C140.473 197.552 140.303 197.42 139.915 197.346L139.65 198.288H139.801C140.199 198.271 140.473 198.098 140.473 197.809Z" fill="#EAAA5E"/>
<path d="M150.132 174.905L135.25 208.881L153.303 214.922L168.184 180.946L150.132 174.905Z" fill="#BFBB68"/>
<path d="M150.011 212.118L139.854 208.721C140.085 208.192 140.066 207.605 139.802 207.089C139.538 206.573 139.05 206.17 138.445 205.968L150.305 178.887C150.908 179.089 151.578 179.073 152.169 178.844C152.759 178.615 153.221 178.19 153.454 177.663L163.582 181.036C163.354 181.565 163.375 182.15 163.638 182.666C163.902 183.182 164.389 183.585 164.992 183.789L153.132 210.886C152.531 210.692 151.867 210.713 151.283 210.943C150.699 211.174 150.242 211.596 150.011 212.118Z" fill="#D8D17D"/>
<path d="M153.791 190.129C154.868 190.492 155.799 191.126 156.464 191.951C157.13 192.776 157.501 193.754 157.531 194.764C157.561 195.773 157.248 196.767 156.632 197.621C156.016 198.474 155.125 199.15 154.07 199.561C153.015 199.972 151.845 200.101 150.707 199.932C149.568 199.762 148.513 199.302 147.674 198.608C146.835 197.915 146.249 197.02 145.991 196.036C145.733 195.052 145.815 194.024 146.225 193.08C146.5 192.452 146.913 191.877 147.442 191.389C147.971 190.9 148.605 190.508 149.308 190.233C150.011 189.959 150.768 189.809 151.538 189.791C152.307 189.773 153.073 189.888 153.791 190.129Z" fill="#BFBB68"/>
</g>
<path d="M166.156 125.039L174.393 115.946L176.559 117.732L177.051 118.128C177.31 118.34 177.512 118.599 177.643 118.888C177.773 119.176 177.828 119.486 177.805 119.795C177.781 120.105 177.679 120.406 177.507 120.676C177.334 120.947 177.094 121.181 176.805 121.361L170.261 125.436C169.939 125.635 169.566 125.761 169.175 125.805C168.785 125.848 168.388 125.806 168.019 125.684L166.156 125.039Z" fill="#C8856A"/>
<path d="M166.156 125.039L167.102 125.336C167.705 124.533 168.389 123.777 169.145 123.08C171.401 120.926 174.32 119.387 177.552 118.649C177.432 118.439 177.272 118.249 177.079 118.087L176.587 117.69L174.422 115.904L166.156 125.039Z" fill="#C17B5F"/>
<path d="M154.575 119.864L153.97 102.504C153.929 101.402 154.138 100.304 154.584 99.2726C155.03 98.2412 155.705 97.2971 156.571 96.4947L172.714 81.4497L184.063 66.3137L198.939 78.5316L195.156 96.4451C194.911 97.5969 194.396 98.6918 193.643 99.6607L172.392 97.0403L165.971 107.597L156.041 120.385C155.786 120.705 155.58 121.052 155.426 121.418C155.167 121.226 154.957 120.989 154.81 120.721C154.663 120.453 154.583 120.161 154.575 119.864Z" fill="#C8856A"/>
<path d="M164.268 106.15L163.152 109.382C160.713 113.167 157.846 116.728 154.594 120.013C154.662 120.56 154.975 121.063 155.464 121.41C155.617 121.044 155.824 120.697 156.079 120.377L162.008 112.747L161.961 112.887L166.009 107.588L172.43 97.032L164.268 106.15Z" fill="#C17B5F"/>
<path d="M147.119 115.387L148.801 163.509L174.37 162.826L172.688 114.704L147.119 115.387Z" fill="#BFBB68"/>
<path d="M168.705 160.899L154.311 161.279C154.299 160.909 154.203 160.545 154.029 160.208C153.856 159.87 153.608 159.566 153.299 159.313C152.991 159.059 152.628 158.861 152.232 158.731C151.836 158.6 151.414 158.539 150.991 158.551L149.648 120.203C150.505 120.179 151.315 119.859 151.902 119.314C152.489 118.768 152.804 118.042 152.779 117.293L167.163 116.913C167.177 117.283 167.273 117.647 167.448 117.985C167.623 118.322 167.872 118.627 168.181 118.88C168.49 119.133 168.853 119.331 169.25 119.461C169.646 119.592 170.068 119.653 170.492 119.641L171.835 157.989C171.411 158 170.993 158.084 170.606 158.236C170.218 158.388 169.869 158.605 169.578 158.876C169.288 159.146 169.061 159.464 168.911 159.811C168.761 160.158 168.691 160.528 168.705 160.899Z" fill="#D8D17D"/>
<path d="M160.503 132.338C162.032 132.298 163.54 132.655 164.837 133.364C166.134 134.073 167.162 135.102 167.79 136.321C168.418 137.54 168.618 138.895 168.365 140.214C168.113 141.532 167.418 142.756 166.37 143.73C165.322 144.704 163.967 145.384 162.477 145.685C160.986 145.986 159.427 145.894 157.997 145.421C156.566 144.947 155.328 144.114 154.439 143.026C153.551 141.937 153.051 140.643 153.003 139.307C152.942 137.514 153.698 135.773 155.104 134.466C156.51 133.16 158.452 132.394 160.503 132.338Z" fill="#BFBB68"/>
<path d="M172.704 81.4497L156.532 96.4782C155.41 97.5226 154.613 98.8002 154.215 100.19L172.808 84.4173L186.672 68.4713L184.052 66.3137L172.704 81.4497Z" fill="#C17B5F"/>
<path d="M181.633 108.911L178.862 110.953L174.379 115.913L166.142 125.006L165.092 126.163C164.186 127.167 162.866 127.821 161.416 127.986C159.965 128.151 158.498 127.815 157.328 127.048C157.158 126.932 157.006 126.816 156.855 126.692C156.046 126.027 155.482 125.166 155.235 124.22C154.987 123.273 155.067 122.283 155.465 121.377C155.618 121.011 155.825 120.664 156.08 120.344L166.01 107.555L172.431 96.999L193.681 99.6195C193.187 100.238 192.598 100.794 191.932 101.273L181.633 108.911Z" fill="#C8856A"/>
<path d="M174.387 115.905L178.869 110.945L181.64 108.903L182.208 109.366C182.672 109.747 182.943 110.274 182.963 110.831C182.982 111.387 182.748 111.928 182.312 112.333L176.552 117.682L174.387 115.905Z" fill="#C8856A"/>
<path d="M159.854 118.905L165.661 122.633L163.523 125.163C163.245 125.497 162.895 125.779 162.491 125.994C162.088 126.208 161.64 126.351 161.174 126.414C160.707 126.477 160.231 126.459 159.772 126.361C159.314 126.262 158.882 126.086 158.502 125.841C157.732 125.347 157.219 124.607 157.073 123.782C156.928 122.958 157.163 122.116 157.726 121.443L159.854 118.905Z" fill="#D9BBAF"/>
<path d="M182.625 111.961C182.9 111.553 183.009 111.074 182.934 110.604C182.858 110.134 182.603 109.701 182.209 109.374L181.642 108.911L178.871 110.953L177.66 112.292C179.263 111.845 180.963 111.732 182.625 111.961Z" fill="#C17B5F"/>
<path d="M178.219 67.2035L199.18 84.4392L207.766 76.4613L186.804 59.2256L178.219 67.2035Z" fill="#EEEEEE"/>
<g style="mix-blend-mode:multiply">
<path d="M178.199 67.2103L181.691 70.082L190.277 62.1041L186.785 59.2324L178.199 67.2103Z" fill="#F1F2F2"/>
</g>
<path d="M186.756 59.2377L185.395 51.8722L238.184 0L277.668 22.3195L219.043 76.2584L207.723 76.4733L186.756 59.2377Z" fill="#E0DCDC"/>
<g style="mix-blend-mode:multiply">
<path d="M238.184 0L185.395 51.8722L186.756 59.2377L190.246 62.1062L192.951 52.0789L248.616 5.89401L238.184 0Z" fill="#F1F2F2"/>
</g>
<path d="M120.187 131.437L108.564 125.791L107.344 128.131L107.08 128.668C106.933 128.95 106.861 129.258 106.868 129.567C106.874 129.877 106.96 130.182 107.119 130.459C107.277 130.736 107.505 130.979 107.784 131.17C108.064 131.36 108.388 131.494 108.735 131.561L116.565 133.115C116.949 133.192 117.348 133.185 117.728 133.094C118.107 133.003 118.455 132.832 118.74 132.595L120.187 131.437Z" fill="#C8856A"/>
<path d="M120.189 131.437L119.479 132.024C118.584 131.484 117.634 131.017 116.642 130.627C113.61 129.401 110.237 128.968 106.93 129.379C106.946 129.145 107.01 128.915 107.119 128.701L107.384 128.164L108.604 125.791L120.189 131.437Z" fill="#C17B5F"/>
<path d="M128.578 122.733L121.485 106.522C120.576 104.444 118.759 102.767 116.435 101.86L94.8727 93.4116L77.7269 83.2769L69.4141 99.5536L80.7626 114.814C81.4982 115.805 82.465 116.651 83.5998 117.293L102.051 107.713L112.633 115.285L127.434 123.733C127.812 123.942 128.158 124.192 128.465 124.477C128.626 124.211 128.72 123.917 128.74 123.616C128.759 123.315 128.704 123.014 128.578 122.733Z" fill="#C8856A"/>
<path d="M113.584 113.375L116.033 115.987C119.959 118.653 124.179 120.971 128.63 122.906C128.802 123.434 128.734 124 128.441 124.485C128.135 124.2 127.788 123.95 127.41 123.741L118.587 118.699L118.691 118.814L112.61 115.293L102.027 107.721L113.584 113.375Z" fill="#C17B5F"/>
<path d="M109.576 124.088L129.27 169.049L153.16 161.054L133.467 116.093L109.576 124.088Z" fill="#BFBB68"/>
<path d="M133.671 165.379L147.119 160.882C146.967 160.535 146.896 160.164 146.91 159.792C146.923 159.42 147.02 159.054 147.196 158.715C147.372 158.376 147.623 158.071 147.934 157.817C148.245 157.564 148.611 157.366 149.01 157.237L133.321 121.41C132.923 121.541 132.499 121.603 132.074 121.59C131.649 121.578 131.231 121.493 130.843 121.34C130.456 121.186 130.107 120.967 129.816 120.695C129.526 120.424 129.3 120.105 129.15 119.757L115.712 124.254C115.862 124.601 115.932 124.972 115.918 125.343C115.904 125.715 115.807 126.081 115.631 126.419C115.456 126.758 115.205 127.063 114.894 127.317C114.584 127.571 114.219 127.769 113.82 127.899L129.51 163.726C130.312 163.464 131.201 163.49 131.982 163.8C132.762 164.11 133.369 164.678 133.671 165.379Z" fill="#D8D17D"/>
<path d="M128.626 136.265C127.202 136.749 125.974 137.591 125.097 138.685C124.22 139.778 123.733 141.074 123.697 142.409C123.662 143.744 124.079 145.058 124.897 146.186C125.715 147.314 126.896 148.205 128.292 148.747C129.689 149.289 131.237 149.457 132.743 149.231C134.249 149.004 135.644 148.393 136.753 147.475C137.862 146.556 138.634 145.371 138.974 144.069C139.313 142.767 139.204 141.406 138.66 140.159C138.298 139.324 137.75 138.561 137.048 137.913C136.346 137.265 135.505 136.745 134.572 136.383C133.639 136.021 132.633 135.824 131.612 135.804C130.592 135.784 129.577 135.94 128.626 136.265Z" fill="#BFBB68"/>
<path d="M94.865 93.4112L116.427 101.826C117.924 102.41 119.226 103.318 120.21 104.463L96.0944 96.197L76.2344 86.1697L77.7097 83.293L94.865 93.4112Z" fill="#C17B5F"/>
<path d="M98.7891 121.782L102.25 122.724L108.568 125.791L120.191 131.437L121.675 132.148C122.956 132.769 124.464 132.929 125.878 132.592C127.291 132.255 128.498 131.449 129.241 130.346C129.345 130.188 129.44 130.025 129.525 129.858C129.976 128.971 130.115 127.986 129.924 127.03C129.734 126.073 129.223 125.188 128.456 124.485C128.15 124.2 127.803 123.95 127.425 123.741L112.625 115.293L102.042 107.721L83.582 117.302C84.3139 117.722 85.1098 118.05 85.9463 118.277L98.7891 121.782Z" fill="#C8856A"/>
<path d="M108.567 125.791L102.25 122.724L98.7883 121.782L98.4763 122.402C98.347 122.653 98.2757 122.924 98.2666 123.2C98.2575 123.475 98.3107 123.749 98.4232 124.006C98.5357 124.264 98.7052 124.499 98.9221 124.699C99.1389 124.899 99.3988 125.059 99.6868 125.171L107.347 128.164L108.567 125.791Z" fill="#C8856A"/>
<path d="M123.281 123.658L119.574 129.048L122.657 130.701C123.475 131.13 124.454 131.257 125.38 131.056C126.305 130.854 127.101 130.34 127.594 129.627C128.084 128.912 128.23 128.056 127.999 127.247C127.769 126.438 127.181 125.742 126.364 125.312L123.281 123.658Z" fill="#D9BBAF"/>
<path d="M99.2181 124.932C98.7863 124.645 98.4777 124.239 98.3422 123.78C98.2066 123.321 98.252 122.836 98.471 122.402L98.7831 121.782L102.244 122.724L103.947 123.551C102.269 123.683 100.65 124.155 99.2181 124.932Z" fill="#C17B5F"/>
<path d="M79.1695 80.4277L67.4414 103.399L71.82 105.107L83.548 82.1357L79.1695 80.4277Z" fill="#EEEEEE"/>
<g style="mix-blend-mode:multiply">
<path d="M79.1767 80.4266L77.2227 84.2539L81.6012 85.9619L83.5552 82.1347L79.1767 80.4266Z" fill="#F1F2F2"/>
</g>
<path d="M13.6859 52.5733L0 79.3794L66.4727 105.31L80.1586 78.5036L13.6859 52.5733Z" fill="#C391F3"/>
<g style="mix-blend-mode:multiply">
<path d="M13.6869 52.5849L10.7539 58.3296L77.2266 84.2598L80.1596 78.5151L13.6869 52.5849Z" fill="#F1F2F2"/>
</g>
<path d="M199.969 143.837L211.601 138.191L212.812 140.563L213.086 141.101C213.23 141.384 213.301 141.691 213.294 142.001C213.286 142.311 213.2 142.616 213.042 142.893C212.884 143.17 212.657 143.414 212.379 143.605C212.1 143.797 211.776 143.933 211.431 144.002L203.6 145.548C203.215 145.625 202.814 145.618 202.433 145.527C202.052 145.436 201.703 145.264 201.416 145.027L199.969 143.837Z" fill="#C8856A"/>
<path d="M199.969 143.837L200.687 144.424C201.586 143.888 202.535 143.421 203.525 143.027C206.558 141.804 209.93 141.371 213.237 141.779C213.215 141.545 213.151 141.317 213.048 141.101L212.774 140.563L211.563 138.191L199.969 143.837Z" fill="#C17B5F"/>
<path d="M191.63 135.166L198.732 118.947C199.642 116.869 201.458 115.192 203.782 114.284L225.344 105.877L242.49 95.7427L250.803 112.011L239.454 127.271C238.718 128.262 237.751 129.107 236.617 129.751L218.11 120.145L207.527 127.717L192.717 136.166C192.344 136.378 192.001 136.627 191.696 136.91C191.541 136.641 191.454 136.345 191.443 136.044C191.431 135.743 191.495 135.443 191.63 135.166Z" fill="#C8856A"/>
<path d="M206.579 125.808L204.12 128.412C200.2 131.081 195.983 133.398 191.533 135.331C191.443 135.592 191.414 135.866 191.446 136.137C191.479 136.408 191.573 136.671 191.722 136.91C192.028 136.627 192.37 136.377 192.743 136.166L201.576 131.131L201.472 131.239L207.553 127.717L218.108 120.145L206.579 125.808Z" fill="#C17B5F"/>
<path d="M186.69 128.545L166.996 173.507L190.887 181.502L210.58 136.541L186.69 128.545Z" fill="#BFBB68"/>
<path d="M186.488 177.804L173.04 173.307C173.191 172.959 173.263 172.589 173.249 172.217C173.236 171.845 173.139 171.479 172.963 171.14C172.787 170.801 172.536 170.496 172.225 170.242C171.913 169.988 171.548 169.791 171.148 169.661L186.895 133.834C187.293 133.966 187.716 134.027 188.141 134.015C188.567 134.003 188.985 133.918 189.372 133.764C189.76 133.611 190.109 133.392 190.399 133.12C190.69 132.848 190.916 132.529 191.065 132.181L204.513 136.678C204.363 137.026 204.293 137.396 204.307 137.768C204.321 138.14 204.418 138.505 204.594 138.844C204.769 139.182 205.02 139.488 205.331 139.741C205.641 139.995 206.006 140.193 206.405 140.324L190.677 176.175C190.28 176.041 189.856 175.976 189.43 175.986C189.004 175.995 188.585 176.077 188.196 176.229C187.806 176.38 187.455 176.597 187.162 176.867C186.869 177.138 186.64 177.456 186.488 177.804Z" fill="#D8D17D"/>
<path d="M190.204 161.648C194.402 160.956 197.164 157.42 196.372 153.75C195.58 150.08 191.535 147.666 187.336 148.358C183.138 149.05 180.376 152.586 181.168 156.256C181.96 159.926 186.005 162.34 190.204 161.648Z" fill="#BFBB68"/>
<path d="M225.294 105.877L203.732 114.284C202.231 114.866 200.928 115.777 199.949 116.93L224.056 108.663L243.916 98.6278L242.45 95.7593L225.294 105.877Z" fill="#C17B5F"/>
<path d="M221.376 134.215L217.914 135.157L211.597 138.216L199.965 143.837L198.489 144.548C197.208 145.169 195.7 145.328 194.287 144.992C192.874 144.655 191.667 143.849 190.924 142.746C190.818 142.588 190.723 142.426 190.64 142.258C190.108 141.187 190.027 139.986 190.409 138.867C190.791 137.748 191.613 136.782 192.73 136.141L207.54 127.693L218.103 120.145L236.545 129.734C235.812 130.153 235.016 130.481 234.181 130.71L221.376 134.215Z" fill="#C8856A"/>
<path d="M211.602 138.216L217.919 135.157L221.38 134.215L221.692 134.827C221.822 135.078 221.893 135.349 221.902 135.624C221.911 135.9 221.858 136.174 221.745 136.431C221.633 136.688 221.463 136.924 221.247 137.124C221.03 137.324 220.77 137.484 220.482 137.596L212.812 140.588L211.602 138.216Z" fill="#C8856A"/>
<path d="M196.871 136.083L200.578 141.473L197.495 143.126C197.091 143.339 196.642 143.48 196.174 143.542C195.707 143.603 195.231 143.583 194.772 143.483C194.313 143.384 193.882 143.206 193.502 142.96C193.122 142.714 192.802 142.405 192.559 142.051C192.315 141.697 192.153 141.305 192.083 140.897C192.013 140.488 192.035 140.072 192.149 139.671C192.264 139.27 192.467 138.893 192.748 138.561C193.03 138.229 193.383 137.949 193.788 137.736L196.871 136.083Z" fill="#D89E87"/>
<path d="M220.937 137.356C221.37 137.07 221.68 136.665 221.816 136.205C221.951 135.746 221.905 135.26 221.684 134.827L221.372 134.215L217.911 135.157L216.199 135.984C217.879 136.115 219.501 136.585 220.937 137.356Z" fill="#C17B5F"/>
<path d="M236.627 94.5783L248.355 117.55L252.734 115.842L241.006 92.8703L236.627 94.5783Z" fill="#EEEEEE"/>
<g style="mix-blend-mode:multiply">
<path d="M236.62 94.5782L238.574 98.4055L242.953 96.6975L240.999 92.8702L236.62 94.5782Z" fill="#F1F2F2"/>
</g>
<path d="M240.025 90.9473L253.711 117.753L320.184 91.8232L306.498 65.0171L240.025 90.9473Z" fill="#8B20E9"/>
<g style="mix-blend-mode:multiply">
<path d="M240.02 90.9455L242.953 96.6902L309.426 70.76L306.493 65.0153L240.02 90.9455Z" fill="#F1F2F2"/>
</g>
<g style="mix-blend-mode:screen">
<path d="M125.567 52.5417C125.802 52.9263 125.983 53.3343 126.106 53.7569C126.385 54.6314 126.522 55.5358 126.513 56.4435C126.521 57.348 126.387 58.2491 126.116 59.1219C125.988 59.5471 125.804 59.9577 125.567 60.3453C125.336 59.9563 125.155 59.5459 125.028 59.1219C124.749 58.2503 124.612 57.3486 124.622 56.4435C124.617 55.536 124.754 54.6322 125.028 53.7569C125.156 53.3358 125.337 52.9283 125.567 52.5417Z" fill="#007D00"/>
<path d="M121.105 56.4435C121.548 56.2372 122.018 56.0789 122.505 55.9723C123.502 55.7281 124.534 55.6085 125.569 55.6169C126.607 55.6107 127.641 55.7275 128.643 55.9641C129.126 56.0763 129.592 56.2372 130.033 56.4435C129.591 56.6448 129.125 56.8028 128.643 56.9147C127.642 57.1583 126.608 57.2779 125.569 57.2702C124.534 57.2704 123.504 57.1509 122.505 56.9147C122.02 56.8036 121.551 56.6456 121.105 56.4435Z" fill="#007D00"/>
<path d="M246.466 53.575C246.697 53.964 246.878 54.3743 247.005 54.7984C247.275 55.6716 247.412 56.5722 247.411 57.4767C247.42 58.3845 247.283 59.2888 247.005 60.1633C246.877 60.5845 246.696 60.992 246.466 61.3785C246.23 60.9934 246.046 60.5856 245.917 60.1633C245.647 59.2876 245.513 58.3838 245.52 57.4767C245.51 56.5717 245.647 55.6699 245.927 54.7984C246.049 54.3729 246.23 53.962 246.466 53.575Z" fill="#007D00"/>
<path d="M242.008 57.477C242.45 57.2757 242.916 57.1177 243.398 57.0058C244.4 56.7702 245.434 56.6507 246.472 56.6503C247.507 56.6419 248.539 56.7616 249.536 57.0058C250.021 57.1169 250.49 57.2749 250.935 57.477C250.492 57.6841 250.022 57.8451 249.536 57.9564C248.537 58.1937 247.506 58.3105 246.472 58.3036C245.434 58.3097 244.4 58.1929 243.398 57.9564C242.915 57.8442 242.448 57.6833 242.008 57.477Z" fill="#007D00"/>
<path d="M288.552 152.616C288.787 153.001 288.968 153.409 289.091 153.831C289.369 154.706 289.506 155.61 289.497 156.518C289.505 157.422 289.372 158.323 289.1 159.196C288.973 159.621 288.789 160.032 288.552 160.42C288.316 160.032 288.135 159.622 288.013 159.196C287.733 158.325 287.596 157.423 287.606 156.518C287.597 155.61 287.734 154.706 288.013 153.831C288.141 153.41 288.321 153.002 288.552 152.616Z" fill="#007D00"/>
<path d="M284.094 156.518C284.537 156.311 285.007 156.153 285.493 156.047C286.491 155.802 287.522 155.683 288.558 155.691C289.595 155.685 290.629 155.802 291.631 156.038C292.114 156.151 292.581 156.311 293.021 156.518C292.579 156.719 292.113 156.877 291.631 156.989C290.631 157.232 289.596 157.352 288.558 157.344C287.523 157.345 286.492 157.225 285.493 156.989C285.008 156.878 284.539 156.72 284.094 156.518Z" fill="#007D00"/>
<path d="M208.567 195.561C208.798 195.947 208.978 196.355 209.106 196.776C209.385 197.65 209.522 198.555 209.513 199.462C209.523 200.367 209.386 201.269 209.106 202.141C208.984 202.566 208.803 202.977 208.567 203.364C208.331 202.977 208.15 202.566 208.028 202.141C207.749 201.269 207.612 200.367 207.622 199.462C207.613 198.555 207.75 197.65 208.028 196.776C208.156 196.355 208.337 195.947 208.567 195.561Z" fill="#007D00"/>
<path d="M204.113 199.462C204.554 199.256 205.02 199.095 205.503 198.983C206.505 198.746 207.539 198.629 208.577 198.635C209.615 198.625 210.65 198.742 211.651 198.983C212.134 199.095 212.6 199.256 213.041 199.462C212.599 199.663 212.132 199.821 211.651 199.933C210.649 200.173 209.615 200.292 208.577 200.289C207.539 200.288 206.506 200.169 205.503 199.933C205.022 199.821 204.555 199.663 204.113 199.462Z" fill="#007D00"/>
<path d="M252.618 126.403C252.849 126.789 253.029 127.197 253.157 127.618C253.428 128.494 253.562 129.398 253.555 130.305C253.566 131.212 253.433 132.116 253.157 132.991C253.029 133.412 252.849 133.82 252.618 134.206C252.382 133.821 252.198 133.413 252.07 132.991C251.795 132.116 251.661 131.212 251.673 130.305C251.666 129.398 251.799 128.494 252.07 127.618C252.198 127.196 252.382 126.788 252.618 126.403Z" fill="#007D00"/>
<path d="M248.148 130.304C248.591 130.098 249.061 129.94 249.548 129.833C251.558 129.359 253.676 129.359 255.686 129.833C256.173 129.94 256.643 130.098 257.085 130.304C256.643 130.511 256.173 130.669 255.686 130.776C253.676 131.25 251.558 131.25 249.548 130.776C249.063 130.665 248.593 130.506 248.148 130.304Z" fill="#007D00"/>
<path d="M74.3519 106.778C74.5831 107.167 74.7639 107.578 74.891 108.002C75.4332 109.759 75.4332 111.61 74.891 113.367C74.769 113.792 74.588 114.203 74.3519 114.59C74.1159 114.203 73.9349 113.792 73.8129 113.367C73.2707 111.61 73.2707 109.759 73.8129 108.002C73.94 107.578 74.1208 107.167 74.3519 106.778Z" fill="#007D00"/>
<path d="M69.8711 110.688C70.3117 110.482 70.7782 110.321 71.2613 110.209C72.2632 109.972 73.2971 109.856 74.3349 109.862C75.3729 109.851 76.4075 109.968 77.4084 110.209C77.8915 110.321 78.358 110.482 78.7986 110.688C78.3565 110.89 77.8903 111.048 77.4084 111.16C76.407 111.399 75.3731 111.519 74.3349 111.515C73.297 111.515 72.2636 111.395 71.2613 111.16C70.7795 111.048 70.3133 110.89 69.8711 110.688Z" fill="#007D00"/>
<path d="M9.33291 121.518C9.56897 121.905 9.74999 122.316 9.87196 122.741C10.1513 123.613 10.2882 124.514 10.2786 125.419C10.2856 126.326 10.152 127.23 9.88142 128.106C9.75298 128.528 9.56892 128.936 9.33291 129.321C9.09782 128.937 8.91682 128.529 8.79385 128.106C8.51521 127.231 8.37833 126.327 8.38719 125.419C8.37758 124.514 8.51449 123.613 8.79385 122.741C8.92093 122.317 9.10173 121.907 9.33291 121.518Z" fill="#007D00"/>
<path d="M4.875 125.444C5.32005 125.242 5.78951 125.084 6.27465 124.973C7.27361 124.737 8.30394 124.617 9.33878 124.617C10.3773 124.61 11.4119 124.729 12.4124 124.973C12.8942 125.085 13.3604 125.243 13.8026 125.444C13.3619 125.65 12.8954 125.811 12.4124 125.923C11.4105 126.16 10.3765 126.277 9.33878 126.271C8.30334 126.279 7.27174 126.159 6.27465 125.915C5.78788 125.809 5.31784 125.65 4.875 125.444Z" fill="#007D00"/>
<path d="M175.418 68.1323C175.655 68.9319 175.835 69.7436 175.957 70.5627C176.08 71.2901 176.184 72.1416 176.251 73.0426C176.317 73.9437 176.364 74.9274 176.364 75.9028C176.364 76.8783 176.364 77.8455 176.251 78.7548C176.137 79.6641 176.08 80.5155 175.957 81.2347C175.842 82.0548 175.662 82.8668 175.418 83.6651C175.174 82.8666 174.99 82.0546 174.87 81.2347C174.756 80.5073 174.652 79.6558 174.586 78.7548C174.52 77.8537 174.473 76.87 174.473 75.9028C174.473 74.9357 174.52 73.9519 174.586 73.0426C174.652 72.1333 174.756 71.2819 174.879 70.5627C174.996 69.7428 175.176 68.9308 175.418 68.1323Z" fill="#007D00"/>
<path d="M166.516 75.9111C167.429 75.6984 168.358 75.5382 169.296 75.4317C170.128 75.3325 171.102 75.2415 172.133 75.1837C173.164 75.1258 174.28 75.0845 175.396 75.0845C176.512 75.0845 177.618 75.0845 178.659 75.1837C179.699 75.2829 180.673 75.3242 181.496 75.4317C182.434 75.5382 183.362 75.6984 184.276 75.9111C183.361 76.1182 182.433 76.2756 181.496 76.3823C180.654 76.4898 179.689 76.5807 178.659 76.6386C177.628 76.6964 176.502 76.7378 175.396 76.7378C174.289 76.7378 173.173 76.6964 172.133 76.6303C171.093 76.5642 170.109 76.4898 169.296 76.3823C168.359 76.2756 167.43 76.1182 166.516 75.9111Z" fill="#007D00"/>
<path d="M181.711 70.4055C181.237 71.1213 180.709 71.8089 180.131 72.4639C179.621 73.0508 179.006 73.7204 178.316 74.3982C177.625 75.0761 176.878 75.8035 176.093 76.4897C175.308 77.1758 174.486 77.8454 173.701 78.4405C172.916 79.0357 172.159 79.5813 171.478 80.0195C170.731 80.5259 169.948 80.9898 169.133 81.4082C169.607 80.6924 170.134 80.0048 170.712 79.3499C171.213 78.7629 171.828 78.0934 172.518 77.4155C173.209 76.7376 173.965 76.0102 174.75 75.3241C175.535 74.638 176.358 73.9766 177.143 73.3732C177.928 72.7697 178.685 72.2324 179.365 71.7943C180.112 71.2878 180.896 70.8239 181.711 70.4055Z" fill="#007D00"/>
<path d="M169.133 70.4055C169.948 70.8239 170.731 71.2878 171.478 71.7943C172.159 72.2324 172.916 72.7697 173.701 73.3732C174.486 73.9766 175.299 74.638 176.093 75.3241C176.888 76.0102 177.635 76.7211 178.316 77.4155C178.997 78.1099 179.63 78.7629 180.131 79.3499C180.709 80.0048 181.237 80.6924 181.711 81.4082C180.883 80.991 180.087 80.5271 179.328 80.0195C178.647 79.5813 177.89 79.044 177.105 78.4405C176.32 77.8371 175.497 77.1758 174.713 76.4897C173.928 75.8035 173.171 75.0926 172.49 74.3982C171.809 73.7038 171.176 73.0508 170.674 72.4639C170.11 71.808 169.595 71.1204 169.133 70.4055Z" fill="#007D00"/>
<path d="M246.465 164.288C246.702 165.088 246.882 165.899 247.004 166.718C247.127 167.454 247.222 168.297 247.288 169.198C247.354 170.099 247.411 171.075 247.411 172.05C247.411 173.026 247.364 173.993 247.297 174.902C247.231 175.812 247.127 176.671 247.004 177.382C246.882 178.201 246.702 179.013 246.465 179.813C246.222 179.014 246.039 178.202 245.917 177.382C245.794 176.655 245.699 175.803 245.633 174.902C245.567 174.001 245.52 173.026 245.52 172.05C245.52 171.075 245.52 170.108 245.633 169.198C245.746 168.289 245.803 167.438 245.926 166.718C246.043 165.899 246.223 165.087 246.465 164.288Z" fill="#007D00"/>
<path d="M237.57 172.067C238.485 171.86 239.414 171.702 240.351 171.596C241.183 171.488 242.157 171.397 243.188 171.339C244.219 171.282 245.344 171.24 246.46 171.24C247.576 171.24 248.682 171.24 249.723 171.339C250.763 171.439 251.737 171.488 252.56 171.596C253.498 171.696 254.427 171.854 255.34 172.067C254.427 172.28 253.498 172.437 252.56 172.538C251.728 172.646 250.754 172.736 249.723 172.794C248.692 172.852 247.567 172.894 246.46 172.894C245.354 172.894 244.228 172.894 243.188 172.794C242.148 172.695 241.173 172.646 240.351 172.538C239.414 172.431 238.485 172.274 237.57 172.067Z" fill="#007D00"/>
<path d="M252.757 166.57C252.288 167.287 251.767 167.978 251.196 168.636C250.695 169.232 250.08 169.893 249.39 170.579C248.7 171.265 247.952 171.984 247.158 172.67C246.364 173.357 245.56 174.018 244.775 174.621C243.99 175.225 243.224 175.762 242.552 176.2C241.805 176.704 241.022 177.165 240.207 177.581C240.68 176.867 241.208 176.182 241.786 175.531C242.288 174.936 242.902 174.274 243.593 173.588C244.283 172.902 245.04 172.183 245.825 171.497C246.61 170.811 247.423 170.149 248.217 169.554C249.012 168.959 249.759 168.413 250.44 167.967C251.175 167.456 251.949 166.989 252.757 166.57Z" fill="#007D00"/>
<path d="M240.176 166.57C240.991 166.986 241.774 167.447 242.521 167.95C243.193 168.397 243.959 168.934 244.744 169.537C245.529 170.141 246.342 170.794 247.127 171.48C247.912 172.166 248.678 172.885 249.359 173.572C250.04 174.258 250.664 174.919 251.174 175.514C251.749 176.168 252.277 176.853 252.754 177.564C251.935 177.15 251.148 176.689 250.399 176.184C249.728 175.746 248.971 175.208 248.186 174.605C247.401 174.001 246.578 173.34 245.793 172.654C245.008 171.968 244.252 171.249 243.561 170.563C242.871 169.876 242.256 169.215 241.736 168.636C241.163 167.979 240.642 167.289 240.176 166.57Z" fill="#007D00"/>
<path d="M112.61 137.058C112.853 137.857 113.036 138.669 113.158 139.489C113.272 140.216 113.376 141.068 113.442 141.969C113.508 142.87 113.555 143.845 113.555 144.821C113.555 145.796 113.555 146.763 113.442 147.673C113.329 148.582 113.281 149.442 113.158 150.152C113.036 150.972 112.853 151.784 112.61 152.583C112.373 151.783 112.193 150.972 112.071 150.152C111.948 149.425 111.844 148.574 111.778 147.673C111.711 146.771 111.664 145.796 111.664 144.821C111.664 143.845 111.664 142.878 111.787 141.969C111.91 141.059 111.948 140.2 112.071 139.489C112.193 138.67 112.373 137.858 112.61 137.058Z" fill="#007D00"/>
<path d="M103.719 144.837C104.633 144.629 105.562 144.472 106.499 144.366C107.331 144.258 108.305 144.168 109.336 144.11C110.367 144.052 111.493 144.01 112.599 144.01C113.706 144.01 114.831 144.01 115.871 144.11C116.911 144.209 117.886 144.258 118.708 144.366C119.646 144.468 120.575 144.625 121.489 144.837C120.575 145.049 119.646 145.207 118.708 145.308C117.876 145.416 116.902 145.507 115.871 145.565C114.84 145.622 113.715 145.664 112.599 145.664C111.483 145.664 110.377 145.622 109.336 145.565C108.296 145.507 107.322 145.416 106.499 145.308C105.562 145.203 104.633 145.045 103.719 144.837Z" fill="#007D00"/>
<path d="M118.894 139.34C118.421 140.054 117.894 140.739 117.315 141.39C116.814 141.985 116.199 142.647 115.509 143.333C114.818 144.019 114.062 144.738 113.277 145.424C112.492 146.11 111.679 146.772 110.884 147.367C110.09 147.962 109.343 148.516 108.671 148.954C107.922 149.459 107.135 149.92 106.316 150.335C106.794 149.623 107.321 148.938 107.896 148.284C108.406 147.689 109.021 147.028 109.712 146.342C110.402 145.656 111.149 144.937 111.943 144.25C112.738 143.564 113.542 142.903 114.327 142.308C115.112 141.713 115.878 141.167 116.549 140.721C117.296 140.217 118.08 139.756 118.894 139.34Z" fill="#007D00"/>
<path d="M106.316 139.34C107.133 139.753 107.917 140.215 108.662 140.721C109.343 141.167 110.099 141.704 110.884 142.308C111.669 142.911 112.492 143.564 113.277 144.25C114.062 144.937 114.818 145.656 115.509 146.342C116.199 147.028 116.814 147.689 117.315 148.284C117.894 148.936 118.421 149.621 118.894 150.335C118.08 149.919 117.296 149.458 116.549 148.954C115.878 148.516 115.112 147.97 114.327 147.367C113.542 146.763 112.728 146.11 111.943 145.424C111.158 144.738 110.402 144.019 109.712 143.333C109.021 142.647 108.406 141.985 107.905 141.39C107.326 140.737 106.795 140.053 106.316 139.34Z" fill="#007D00"/>
<path d="M31.5824 160.882C31.8207 161.682 32.0007 162.493 32.1215 163.313C32.2444 164.04 32.3485 164.892 32.4147 165.793C32.4809 166.694 32.5281 167.677 32.5281 168.645C32.5281 169.612 32.5282 170.595 32.4147 171.505C32.3012 172.414 32.2444 173.266 32.1215 173.985C32.0064 174.805 31.8263 175.617 31.5824 176.415C31.3378 175.617 31.1545 174.805 31.0339 173.985C30.9204 173.257 30.8164 172.406 30.7502 171.505C30.684 170.604 30.6367 169.62 30.6367 168.645C30.6367 167.669 30.6367 166.702 30.7502 165.793C30.8637 164.883 30.9204 164.032 31.0434 163.313C31.1585 162.493 31.3386 161.681 31.5824 160.882Z" fill="#007D00"/>
<path d="M22.6836 168.636C23.5984 168.429 24.5269 168.272 25.464 168.165C26.2962 168.058 27.2703 167.975 28.3011 167.917C29.332 167.859 30.4574 167.81 31.5733 167.81C32.6893 167.81 33.7957 167.851 34.836 167.909C35.8763 167.967 36.8504 168.058 37.6732 168.165C38.6102 168.272 39.5388 168.429 40.4536 168.636C39.5398 168.849 38.611 169.009 37.6732 169.116C36.8315 169.223 35.8669 169.314 34.836 169.372C33.8052 169.43 32.6798 169.463 31.5733 169.463C30.4668 169.463 29.3509 169.463 28.3011 169.364C27.2514 169.265 26.2868 169.223 25.464 169.116C24.5262 169.009 23.5974 168.849 22.6836 168.636Z" fill="#007D00"/>
<path d="M37.8671 163.156C37.3931 163.872 36.8655 164.559 36.2877 165.214C35.7771 165.801 35.1623 166.462 34.472 167.148C33.7816 167.835 33.0345 168.554 32.2495 169.24C31.4646 169.926 30.6418 170.587 29.8569 171.191C29.0719 171.794 28.3154 172.332 27.6344 172.77C26.8876 173.276 26.1042 173.74 25.2891 174.158C25.763 173.443 26.2906 172.755 26.8684 172.1C27.3696 171.513 27.9844 170.844 28.6747 170.157C29.3651 169.471 30.1217 168.76 30.9066 168.074C31.6916 167.388 32.5143 166.727 33.2993 166.123C34.0842 165.52 34.8408 164.983 35.5217 164.545C36.2685 164.038 37.052 163.574 37.8671 163.156Z" fill="#007D00"/>
<path d="M25.2891 163.156C26.1042 163.574 26.8876 164.038 27.6344 164.545C28.3059 164.983 29.0719 165.52 29.8569 166.123C30.6418 166.727 31.4551 167.388 32.2495 168.074C33.0439 168.76 33.791 169.471 34.472 170.157C35.1529 170.844 35.7865 171.513 36.2877 172.1C36.8655 172.755 37.3931 173.443 37.8671 174.158C37.0682 173.739 36.3006 173.275 35.569 172.77C34.8881 172.332 34.1315 171.794 33.3466 171.191C32.5616 170.587 31.7388 169.926 30.9539 169.24C30.169 168.554 29.4124 167.843 28.7315 167.148C28.0506 166.454 27.4169 165.801 26.9157 165.214C26.3217 164.56 25.7783 163.873 25.2891 163.156Z" fill="#007D00"/>
</g>
</svg>
