<svg width="81" height="89" viewBox="0 0 81 89" fill="none" xmlns="http://www.w3.org/2000/svg">
<path d="M12.166 12.75H31.3108C32.4275 12.7499 33.5332 12.9697 34.5648 13.3971C35.5964 13.8244 36.5337 14.4508 37.3232 15.2405L46.166 24.0833M20.666 38.25H12.166M30.5827 21.25L36.2493 26.9167C36.6214 27.2887 36.9166 27.7305 37.1179 28.2166C37.3193 28.7028 37.423 29.2238 37.423 29.75C37.423 30.2762 37.3193 30.7972 37.1179 31.2834C36.9166 31.7695 36.6214 32.2113 36.2493 32.5833C35.8773 32.9554 35.4355 33.2506 34.9494 33.4519C34.4633 33.6533 33.9422 33.7569 33.416 33.7569C32.8898 33.7569 32.3688 33.6533 31.8826 33.4519C31.3965 33.2506 30.9548 32.9554 30.5827 32.5833L26.3327 28.3333C23.896 30.77 20.0342 31.0448 17.2745 28.9765L16.416 28.3333" stroke="#21A8FB" stroke-width="4.25" stroke-linecap="round" stroke-linejoin="round"/>
<path d="M20.666 31.1668V43.9168C20.666 49.2605 20.666 51.9295 22.3263 53.5898C23.9867 55.2502 26.6557 55.2502 31.9993 55.2502H57.4993C62.843 55.2502 65.512 55.2502 67.1723 53.5898C68.8327 51.9295 68.8327 49.2605 68.8327 43.9168V35.4168C68.8327 30.0732 68.8327 27.4042 67.1723 25.7438C65.512 24.0835 62.843 24.0835 57.4993 24.0835H33.416" stroke="#21A8FB" stroke-width="4.25" stroke-linecap="round" stroke-linejoin="round"/>
<path d="M49.7077 39.6668C49.7077 40.9819 49.1853 42.243 48.2554 43.1729C47.3256 44.1028 46.0644 44.6252 44.7493 44.6252C43.4343 44.6252 42.1731 44.1028 41.2433 43.1729C40.3134 42.243 39.791 40.9819 39.791 39.6668C39.791 38.3518 40.3134 37.0906 41.2433 36.1608C42.1731 35.2309 43.4343 34.7085 44.7493 34.7085C46.0644 34.7085 47.3256 35.2309 48.2554 36.1608C49.1853 37.0906 49.7077 38.3518 49.7077 39.6668Z" stroke="#21A8FB" stroke-width="4.25" stroke-linecap="round" stroke-linejoin="round"/>
<path d="M3.346 83.124V80.618H0.84V79.295H3.346V76.796H4.669V79.295H7.161V80.618H4.669V83.124H3.346ZM11.0808 85L14.2588 74.92H16.7298L19.9078 85H18.1718L15.2878 75.956H15.6658L12.8168 85H11.0808ZM12.8518 82.816V81.241H18.1438V82.816H12.8518ZM24.2044 85.21C23.509 85.21 22.9024 85.035 22.3844 84.685C21.8664 84.335 21.465 83.859 21.1804 83.257C20.8957 82.655 20.7534 81.976 20.7534 81.22C20.7534 80.4547 20.8957 79.7733 21.1804 79.176C21.4697 78.574 21.878 78.1003 22.4054 77.755C22.9327 77.405 23.5534 77.23 24.2674 77.23C24.986 77.23 25.588 77.405 26.0734 77.755C26.5634 78.1003 26.9344 78.574 27.1864 79.176C27.4384 79.778 27.5644 80.4593 27.5644 81.22C27.5644 81.9713 27.4384 82.6503 27.1864 83.257C26.9344 83.859 26.5587 84.335 26.0594 84.685C25.56 85.035 24.9417 85.21 24.2044 85.21ZM24.4634 83.698C24.916 83.698 25.28 83.5953 25.5554 83.39C25.8354 83.18 26.0384 82.8883 26.1644 82.515C26.295 82.1417 26.3604 81.71 26.3604 81.22C26.3604 80.7253 26.295 80.2937 26.1644 79.925C26.0384 79.5517 25.84 79.2623 25.5694 79.057C25.2987 78.847 24.9487 78.742 24.5194 78.742C24.0667 78.742 23.6934 78.854 23.3994 79.078C23.1054 79.2973 22.8884 79.596 22.7484 79.974C22.6084 80.3473 22.5384 80.7627 22.5384 81.22C22.5384 81.682 22.606 82.102 22.7414 82.48C22.8814 82.8533 23.0937 83.1497 23.3784 83.369C23.663 83.5883 24.0247 83.698 24.4634 83.698ZM26.3604 85V79.694H26.1504V74.92H27.8514V85H26.3604ZM32.845 85.21C32.1497 85.21 31.543 85.035 31.025 84.685C30.507 84.335 30.1057 83.859 29.821 83.257C29.5363 82.655 29.394 81.976 29.394 81.22C29.394 80.4547 29.5363 79.7733 29.821 79.176C30.1103 78.574 30.5187 78.1003 31.046 77.755C31.5733 77.405 32.194 77.23 32.908 77.23C33.6267 77.23 34.2287 77.405 34.714 77.755C35.204 78.1003 35.575 78.574 35.827 79.176C36.079 79.778 36.205 80.4593 36.205 81.22C36.205 81.9713 36.079 82.6503 35.827 83.257C35.575 83.859 35.1993 84.335 34.7 84.685C34.2007 85.035 33.5823 85.21 32.845 85.21ZM33.104 83.698C33.5567 83.698 33.9207 83.5953 34.196 83.39C34.476 83.18 34.679 82.8883 34.805 82.515C34.9357 82.1417 35.001 81.71 35.001 81.22C35.001 80.7253 34.9357 80.2937 34.805 79.925C34.679 79.5517 34.4807 79.2623 34.21 79.057C33.9393 78.847 33.5893 78.742 33.16 78.742C32.7073 78.742 32.334 78.854 32.04 79.078C31.746 79.2973 31.529 79.596 31.389 79.974C31.249 80.3473 31.179 80.7627 31.179 81.22C31.179 81.682 31.2467 82.102 31.382 82.48C31.522 82.8533 31.7343 83.1497 32.019 83.369C32.3037 83.5883 32.6653 83.698 33.104 83.698ZM35.001 85V79.694H34.791V74.92H36.492V85H35.001ZM41.2573 85V74.92H45.4223C45.5203 74.92 45.6463 74.9247 45.8003 74.934C45.9543 74.9387 46.0967 74.9527 46.2273 74.976C46.8107 75.0647 47.2913 75.2583 47.6693 75.557C48.052 75.8557 48.3343 76.2337 48.5163 76.691C48.703 77.1437 48.7963 77.6477 48.7963 78.203C48.7963 78.7537 48.703 79.2577 48.5163 79.715C48.3297 80.1677 48.045 80.5433 47.6623 80.842C47.2843 81.1407 46.806 81.3343 46.2273 81.423C46.0967 81.4417 45.952 81.4557 45.7933 81.465C45.6393 81.4743 45.5157 81.479 45.4223 81.479H42.9443V85H41.2573ZM42.9443 79.904H45.3523C45.4457 79.904 45.5507 79.8993 45.6673 79.89C45.784 79.8807 45.8913 79.862 45.9893 79.834C46.2693 79.764 46.4887 79.6403 46.6473 79.463C46.8107 79.2857 46.925 79.085 46.9903 78.861C47.0603 78.637 47.0953 78.4177 47.0953 78.203C47.0953 77.9883 47.0603 77.769 46.9903 77.545C46.925 77.3163 46.8107 77.1133 46.6473 76.936C46.4887 76.7587 46.2693 76.635 45.9893 76.565C45.8913 76.537 45.784 76.5207 45.6673 76.516C45.5507 76.5067 45.4457 76.502 45.3523 76.502H42.9443V79.904ZM55.4278 85V81.36C55.4278 81.122 55.4114 80.8583 55.3788 80.569C55.3461 80.2797 55.2691 80.002 55.1478 79.736C55.0311 79.4653 54.8538 79.2437 54.6158 79.071C54.3824 78.8983 54.0651 78.812 53.6638 78.812C53.4491 78.812 53.2368 78.847 53.0268 78.917C52.8168 78.987 52.6254 79.1083 52.4528 79.281C52.2848 79.449 52.1494 79.6823 52.0468 79.981C51.9441 80.275 51.8928 80.653 51.8928 81.115L50.8918 80.688C50.8918 80.044 51.0154 79.4607 51.2628 78.938C51.5148 78.4153 51.8834 78 52.3688 77.692C52.8541 77.3793 53.4514 77.223 54.1608 77.223C54.7208 77.223 55.1828 77.3163 55.5468 77.503C55.9108 77.6897 56.2001 77.9277 56.4147 78.217C56.6294 78.5063 56.7881 78.8143 56.8908 79.141C56.9934 79.4677 57.0588 79.778 57.0868 80.072C57.1194 80.3613 57.1358 80.597 57.1358 80.779V85H55.4278ZM50.1848 85V74.92H51.6898V80.226H51.8928V85H50.1848ZM62.3014 85.21C61.5454 85.21 60.8851 85.0397 60.3204 84.699C59.7558 84.3583 59.3171 83.8893 59.0044 83.292C58.6964 82.69 58.5424 81.9993 58.5424 81.22C58.5424 80.4267 58.7011 79.7313 59.0184 79.134C59.3358 78.5367 59.7768 78.07 60.3414 77.734C60.9061 77.398 61.5594 77.23 62.3014 77.23C63.0621 77.23 63.7248 77.4003 64.2894 77.741C64.8541 78.0817 65.2928 78.553 65.6054 79.155C65.9181 79.7523 66.0744 80.4407 66.0744 81.22C66.0744 82.004 65.9158 82.697 65.5984 83.299C65.2858 83.8963 64.8471 84.3653 64.2824 84.706C63.7178 85.042 63.0574 85.21 62.3014 85.21ZM62.3014 83.628C62.9734 83.628 63.4728 83.404 63.7994 82.956C64.1261 82.508 64.2894 81.9293 64.2894 81.22C64.2894 80.4873 64.1238 79.904 63.7924 79.47C63.4611 79.0313 62.9641 78.812 62.3014 78.812C61.8488 78.812 61.4754 78.9147 61.1814 79.12C60.8921 79.3207 60.6774 79.603 60.5374 79.967C60.3974 80.3263 60.3274 80.744 60.3274 81.22C60.3274 81.9527 60.4931 82.5383 60.8244 82.977C61.1604 83.411 61.6528 83.628 62.3014 83.628ZM72.0477 85C71.5484 85.0933 71.0584 85.133 70.5777 85.119C70.1017 85.1097 69.6747 85.0233 69.2967 84.86C68.9187 84.692 68.6317 84.4283 68.4357 84.069C68.2631 83.7423 68.1721 83.4087 68.1627 83.068C68.1534 82.7273 68.1487 82.3423 68.1487 81.913V75.34H69.8287V81.815C69.8287 82.1183 69.8311 82.3843 69.8357 82.613C69.8451 82.8417 69.8941 83.0283 69.9827 83.173C70.1507 83.453 70.4191 83.6093 70.7877 83.642C71.1564 83.6747 71.5764 83.656 72.0477 83.586V85ZM66.7767 78.763V77.44H72.0477V78.763H66.7767ZM76.6295 85.21C75.8735 85.21 75.2132 85.0397 74.6485 84.699C74.0839 84.3583 73.6452 83.8893 73.3325 83.292C73.0245 82.69 72.8705 81.9993 72.8705 81.22C72.8705 80.4267 73.0292 79.7313 73.3465 79.134C73.6639 78.5367 74.1049 78.07 74.6695 77.734C75.2342 77.398 75.8875 77.23 76.6295 77.23C77.3902 77.23 78.0529 77.4003 78.6175 77.741C79.1822 78.0817 79.6209 78.553 79.9335 79.155C80.2462 79.7523 80.4025 80.4407 80.4025 81.22C80.4025 82.004 80.2439 82.697 79.9265 83.299C79.6139 83.8963 79.1752 84.3653 78.6105 84.706C78.0459 85.042 77.3855 85.21 76.6295 85.21ZM76.6295 83.628C77.3015 83.628 77.8009 83.404 78.1275 82.956C78.4542 82.508 78.6175 81.9293 78.6175 81.22C78.6175 80.4873 78.4519 79.904 78.1205 79.47C77.7892 79.0313 77.2922 78.812 76.6295 78.812C76.1769 78.812 75.8035 78.9147 75.5095 79.12C75.2202 79.3207 75.0055 79.603 74.8655 79.967C74.7255 80.3263 74.6555 80.744 74.6555 81.22C74.6555 81.9527 74.8212 82.5383 75.1525 82.977C75.4885 83.411 75.9809 83.628 76.6295 83.628Z" fill="#21A8FB"/>
</svg>
