<svg width="239" height="244" viewBox="0 0 239 244" fill="none" xmlns="http://www.w3.org/2000/svg">
<path d="M234.622 108.3C228.168 66.0538 201.705 14.1514 149.426 8.71979C149.426 8.71979 109.733 3.8917 70.604 11.2091C47.3812 15.552 27.0181 28.4798 14.1333 47.0602C1.24824 65.6407 -3.05568 88.297 2.16771 109.897C5.56031 123.926 7.85281 138.446 7.22361 152.862C6.12867 177.952 6.75865 201.372 31.1077 216.334C52.8486 229.695 80.2098 241.478 106.313 243.542C124.052 244.944 143.946 242.674 161.043 238.056C248.176 214.519 241.076 150.546 234.622 108.3Z" fill="#D1FAFF"/>
<path d="M146.895 217.66C145.611 217.242 143.186 215.2 142.774 214.407C140.028 209.13 134.245 199.585 135.772 193.485C136.033 192.443 140.925 192.353 141.768 191.51C144.873 190.696 146.001 190.606 148.573 188.381C156.166 181.813 144.907 164.668 162.151 162.64C174.781 161.154 184.08 167.162 186.288 148.406C188.497 129.65 209.541 98.6809 226.655 115.283C236.477 124.81 222.118 138.407 225.701 151.108C229.106 163.178 222.715 171.381 209.742 175.793C196.77 180.205 202.073 186.477 203.502 197.607C205.219 210.976 185.42 209.553 176.335 208.117C169.019 206.96 149.61 208.951 146.895 217.66Z" fill="url(#paint0_linear_1445_7834)"/>
<mask id="mask0_1445_7834" style="mask-type:luminance" maskUnits="userSpaceOnUse" x="133" y="110" width="98" height="111">
<path d="M133.092 191.329C134.273 200.537 135.096 209.955 136.236 219.234C141.345 220.633 147.389 222.154 149.74 215.992C153.008 207.424 169.05 206.909 176.353 208.104C185.393 209.583 205.229 210.963 203.503 197.605C202.067 186.485 196.772 180.202 209.743 175.793C222.715 171.383 229.104 163.179 225.701 151.108C222.121 138.405 236.475 124.816 226.655 115.283C209.544 98.6709 188.488 129.669 186.292 148.4C184.097 167.131 174.741 161.226 162.162 162.621C144.989 164.526 155.987 182.122 148.652 188.222C142.902 193.004 139.406 191.273 133.092 191.329Z" fill="white"/>
</mask>
<g mask="url(#mask0_1445_7834)">
<g opacity="0.8">
<path d="M139.34 204.518L139.26 204.223C160.696 198.358 179.757 186.084 194.382 168.73C208.299 152.217 218.018 131.45 222.489 108.675L222.789 108.734C218.308 131.56 208.566 152.375 194.617 168.927C179.951 186.33 160.837 198.637 139.34 204.518Z" fill="#FCFDFE"/>
<path d="M162.776 194.923L162.744 194.619C175.399 193.28 194.352 196.96 204.995 202.822L204.847 203.09C194.252 197.255 175.379 193.591 162.776 194.923Z" fill="#FCFDFE"/>
<path d="M147.693 202.13L147.533 201.868C153.154 198.438 156.826 192.298 158.445 183.617C159.633 177.251 159.71 169.693 158.674 161.153L158.978 161.116C160.017 169.687 159.94 177.277 158.746 183.674C157.11 192.443 153.391 198.652 147.693 202.13Z" fill="#FCFDFE"/>
<path d="M196.503 166.503L196.33 166.25C206.6 159.234 219.678 159.306 228.84 160.602L228.797 160.905C219.689 159.617 206.692 159.543 196.503 166.503Z" fill="#FCFDFE"/>
<path d="M211.711 142.436L211.415 142.357C212.954 136.546 214.258 124.4 205.715 108.341L205.985 108.197C214.578 124.348 213.261 136.581 211.711 142.436Z" fill="#FCFDFE"/>
</g>
</g>
<mask id="mask1_1445_7834" style="mask-type:luminance" maskUnits="userSpaceOnUse" x="128" y="72" width="89" height="147">
<path d="M148.057 218.713C141.405 216.485 134.787 214.101 128.21 211.563C128.081 211.643 128.501 196.39 136.95 189.865C153.602 177.274 146.63 162.05 145.387 153.546C143.123 141.462 147.784 128.104 159.785 132.911C171.529 137.303 177.847 112.637 179.199 93.006C179.089 83.3136 189.968 73.5254 199.258 72.5067C208.782 71.2404 216.716 78.7436 216.126 97.9182C216.424 120.295 198.303 130.512 190.516 140.31C182.859 149.926 194.696 160.935 182.238 168.439C171.679 175.199 159.184 179.18 161.475 190.455C163.902 201.632 161.351 209.958 148.057 218.713Z" fill="white"/>
</mask>
<g mask="url(#mask1_1445_7834)">
<path d="M148.057 218.713C141.405 216.485 134.787 214.101 128.21 211.562C128.081 211.643 128.501 196.39 136.95 189.865C153.602 177.274 146.63 162.05 145.387 153.546C143.165 141.479 147.59 129.635 159.131 131.514C171.975 133.349 178.072 112.638 179.199 93.0059C179.089 83.3136 189.968 73.5254 199.258 72.5067C208.782 71.2404 216.716 78.7436 216.126 97.9182C216.424 120.295 198.303 130.512 190.516 140.31C182.859 149.926 194.696 160.935 182.238 168.439C171.679 175.199 159.184 179.18 161.475 190.455C163.902 201.632 161.351 209.958 148.057 218.713Z" fill="#D8DEE8"/>
</g>
<mask id="mask2_1445_7834" style="mask-type:luminance" maskUnits="userSpaceOnUse" x="128" y="72" width="89" height="147">
<path d="M148.057 218.713C141.405 216.485 134.787 214.101 128.21 211.563C128.081 211.643 128.501 196.39 136.95 189.865C153.602 177.274 146.63 162.05 145.387 153.546C143.123 141.462 147.784 128.104 159.785 132.911C171.529 137.303 177.847 112.637 179.199 93.006C179.089 83.3136 189.968 73.5254 199.258 72.5067C208.782 71.2404 216.716 78.7436 216.126 97.9182C216.424 120.295 198.303 130.512 190.516 140.31C182.859 149.926 194.696 160.935 182.238 168.439C171.679 175.199 159.184 179.18 161.475 190.455C163.902 201.632 161.351 209.958 148.057 218.713Z" fill="white"/>
</mask>
<g mask="url(#mask2_1445_7834)">
<g opacity="0.8">
<path d="M138.447 217.898C138.469 217.766 150.594 187.682 167.301 159.284C169.736 154.64 172.315 149.976 174.809 145.466C181.485 133.391 188.388 120.904 192.905 108.052C197.954 93.6886 199.485 80.2121 197.584 66.8527L197.943 66.8018C199.851 80.2201 198.315 93.7525 193.247 108.172C188.72 121.053 181.809 133.553 175.125 145.641C172.633 150.149 170.055 154.811 167.617 159.46C151.652 186.598 139.121 216.854 138.802 217.97L138.447 217.898Z" fill="#BEB8F2"/>
<path d="M187.488 122.127L187.266 121.841C196.397 114.742 207.74 104.361 213.834 98.7844C218.753 94.2833 218.772 94.2899 218.958 94.354L218.84 94.6963L218.899 94.5251L218.951 94.6953C218.712 94.8119 216.667 96.6829 214.079 99.0516C207.981 104.632 196.631 115.019 187.488 122.127Z" fill="#BEB8F2"/>
<path d="M191.802 110.899C191.963 100.948 189.126 93.8701 186.718 89.6851C184.084 85.1078 181.303 82.7638 180.923 82.6249C180.922 82.6245 180.921 82.6242 180.92 82.6238C180.921 82.624 180.964 82.6385 181.018 82.6146L180.873 82.2829C180.976 82.2379 181.082 82.2866 181.24 82.3917C183.619 83.9755 192.446 93.4567 192.165 110.905L191.802 110.899Z" fill="#BEB8F2"/>
<path d="M157.042 177.952C159.73 169.128 159.365 159.052 155.958 148.005C154.18 142.243 151.634 136.453 148.39 130.798C148.154 130.386 148.071 130.24 148.047 130.173L148.387 130.049C148.406 130.096 148.544 130.338 148.705 130.617C151.962 136.296 154.519 142.11 156.304 147.899C159.733 159.016 160.098 169.163 157.389 178.058L157.042 177.952Z" fill="#BEB8F2"/>
<path d="M162.16 169.124L161.891 168.882C172.452 157.114 189.878 159.276 190.075 159.348C190.075 159.349 190.075 159.349 190.076 159.349L190.178 159.54L190.025 159.693L189.999 159.515L189.954 159.688C189.791 159.654 172.661 157.423 162.16 169.124Z" fill="#BEB8F2"/>
<path d="M140.5 212.998C141.347 209.102 141.141 202.163 135.353 191.235C135.031 190.626 135.031 190.626 135.061 190.534L135.233 190.591L135.408 190.549C135.424 190.594 135.539 190.812 135.673 191.065C141.512 202.09 141.713 209.119 140.854 213.075L140.5 212.998Z" fill="#BEB8F2"/>
<path d="M143.912 205.994L143.588 205.833C144.992 202.994 149.457 197.738 163.58 194.44C163.773 194.395 163.898 194.366 163.943 194.353L164.049 194.699C164.001 194.714 163.868 194.745 163.662 194.793C149.684 198.056 145.288 203.211 143.912 205.994Z" fill="#BEB8F2"/>
</g>
</g>
<path d="M56.6446 193.817C56.2645 196.961 55.5987 199.503 55.0845 202.557C67.9536 199.039 81.0045 198.008 94.0583 194.465C82.4897 181.418 73.1098 176.593 74.2388 156.406C74.7685 146.932 78.5884 128.416 73.1449 120.436C66.9431 111.344 60.3513 115.374 60.373 106.055C60.4067 91.4906 50.5844 78.1665 32.8401 87.9571C15.3272 97.6201 26.6921 148.281 40.2629 159.903C49.8288 172.106 58.6293 177.401 56.6446 193.817Z" fill="#D8DEE8"/>
<mask id="mask3_1445_7834" style="mask-type:luminance" maskUnits="userSpaceOnUse" x="23" y="84" width="54" height="114">
<path d="M74.284 154.818C74.4957 151.261 78.7374 126.504 73.1691 120.059C66.8252 112.716 60.4047 114.907 60.3911 105.894C60.37 91.8079 50.6082 78.0575 32.8419 87.9229C15.3074 97.6595 26.7296 148.349 40.2369 159.8C50.0912 173.343 58.2498 175.435 56.7811 194.787C55.7523 208.342 73.4877 168.193 74.284 154.818Z" fill="white"/>
</mask>
<g mask="url(#mask3_1445_7834)">
<g opacity="0.8">
<path d="M74.9294 196.829C72.9643 192.316 70.6204 187.902 68.3537 183.634L67.4971 182.019C65.6803 178.588 64.1167 175.486 62.7368 172.75C61.9597 171.209 61.2257 169.753 60.5025 168.347C58.314 164.094 56.7683 161.109 55.9886 159.603C55.7161 159.077 55.537 158.731 55.4567 158.575C49.4039 146.802 45.5101 128.575 43.4181 118.782C43.1915 117.722 42.9889 116.773 42.8102 115.96C39.7404 101.986 34.8724 87.8142 28.3418 73.8367L28.5714 73.7295C35.1099 87.7237 39.9838 101.914 43.0576 115.905C43.2364 116.719 43.4391 117.668 43.6659 118.73C45.7554 128.51 49.6446 146.716 55.682 158.459C55.7623 158.615 55.9412 158.961 56.2135 159.487C56.9935 160.992 58.5392 163.977 60.7278 168.231C61.4513 169.638 62.1856 171.094 62.9629 172.636C64.3421 175.371 65.9055 178.472 67.7208 181.9L68.5775 183.515C70.8464 187.788 73.1926 192.206 75.1616 196.728L74.9294 196.829Z" fill="#FCFDFE"/>
<path d="M63.5642 175.152C59.9348 167.182 58.8825 156.358 60.5211 143.849C61.8862 133.43 65.118 122.186 69.3878 113L69.6174 113.107C65.358 122.27 62.134 133.487 60.7724 143.882C59.1399 156.343 60.1849 167.12 63.7947 175.047L63.5642 175.152Z" fill="#FCFDFE"/>
<path d="M43.9934 120.366L43.7402 120.355C44.0544 112.789 45.327 105.218 46.5578 97.8956C47.4001 92.884 48.2712 87.702 48.828 82.5635L49.0798 82.5908C48.5221 87.7366 47.6505 92.9224 46.8075 97.9375C45.5782 105.252 44.3067 112.815 43.9934 120.366Z" fill="#FCFDFE"/>
<path d="M49.7808 144.163C43.8072 135.487 31.8742 126.58 24.2441 125.101L24.2924 124.852C31.9765 126.341 43.9847 135.298 49.9897 144.019L49.7808 144.163Z" fill="#FCFDFE"/>
</g>
</g>
<path d="M42.2691 158.594C47.3036 174.041 56.0404 169.582 67.4432 164.376C67.1286 179.505 67.3793 194.247 67.6857 209.208C60.0023 212.578 54.4362 214.849 48.9142 206.29C42.6689 196.609 39.3858 190.816 26.7464 189.717C14.1071 188.618 3.6992 180.626 6.44938 168.244C9.34363 155.214 -3.37267 140.161 6.06652 129.823C22.514 111.81 37.0268 142.508 42.2691 158.594Z" fill="url(#paint1_linear_1445_7834)"/>
<mask id="mask4_1445_7834" style="mask-type:luminance" maskUnits="userSpaceOnUse" x="2" y="124" width="77" height="89">
<path d="M73.2291 205.701C65.1474 211.05 56.046 217.14 48.8492 206.157C42.8578 197.013 39.3063 190.624 26.7294 189.686C14.1527 188.748 3.68795 180.528 6.44337 168.248C9.34311 155.325 -3.35208 139.995 6.06926 129.832C22.4853 112.123 37.0683 141.941 42.2638 158.839C47.4593 175.737 57.5 166.808 68.4899 164.915C83.4935 162.33 79.7588 201.379 73.2291 205.701Z" fill="white"/>
</mask>
<g mask="url(#mask4_1445_7834)">
<g opacity="0.8">
<path d="M64.4236 190.354C51.4979 185.822 40.8535 181.686 31.3269 173.269C22.2103 165.214 17.1441 155.987 14.3865 142.419C12.9572 135.386 11.1379 130.508 8.52539 123.869L8.76109 123.776C11.3784 130.428 13.2013 135.316 14.6346 142.368C17.3803 155.879 22.4226 165.063 31.4946 173.079C40.9867 181.466 51.6082 185.592 64.5074 190.115L64.4236 190.354Z" fill="#FCFDFE"/>
<path d="M51.1841 211.777L50.9707 211.641C53.404 207.846 56.1309 204.675 59.3071 201.947C60.9324 200.551 62.6447 199.534 64.7157 198.438L64.8341 198.662C62.7782 199.75 61.0796 200.758 59.4722 202.139C56.3149 204.851 53.6038 208.004 51.1841 211.777Z" fill="#FCFDFE"/>
<path d="M4.74592 178.704L4.66406 178.465C16.0313 174.584 27.6954 174.353 37.5073 177.814L37.4231 178.053C27.6644 174.611 16.0595 174.842 4.74592 178.704Z" fill="#FCFDFE"/>
<path d="M18.8403 156.715C18.5589 155.526 18.9959 145.284 19.4987 136.097C20.0036 126.871 20.6684 116.946 20.9068 116.307L21.1444 116.395C20.9416 116.939 20.3169 125.783 19.7518 136.11C19.2498 145.281 18.8116 155.494 19.0868 156.656L18.8403 156.715Z" fill="#FCFDFE"/>
</g>
</g>
<path d="M202.388 91.0847L202.329 90.3457C201.999 86.2289 198.422 83.1419 194.301 83.418C192.15 83.5624 190.137 84.529 188.679 86.1174L166.235 110.58C163.151 113.942 159.256 116.457 154.924 117.887L152.866 118.565C149.955 119.526 146.9 119.978 143.835 119.901L110.891 119.08L138.12 108.04C141.495 106.671 143.129 102.831 141.774 99.4501L141.407 98.5341C140.269 95.6938 137.325 94.008 134.298 94.4567C123.535 96.052 98.8469 99.7835 88.2462 101.986C78.0507 104.104 63.7838 123.255 57.0833 133.023C54.6328 136.595 53.3121 140.773 53.2797 145.105C53.2424 150.033 55.7109 154.642 59.8333 157.343L62.1694 158.873C66.5228 161.724 71.705 163.038 76.891 162.603L142.679 157.089C151.106 156.382 158.836 152.127 163.942 145.385L200.714 96.8207C201.957 95.1789 202.553 93.1375 202.388 91.0847Z" fill="url(#paint2_linear_1445_7834)"/>
<path d="M83.0115 165.27L53.3279 130.501C52.0759 129.034 49.8725 128.861 48.4061 130.112L21.7126 152.902C20.2462 154.154 20.0725 156.357 21.3243 157.824L51.0082 192.593C52.26 194.059 54.4636 194.233 55.93 192.981L82.6233 170.191C84.0896 168.939 84.2635 166.736 83.0115 165.27Z" fill="url(#paint3_linear_1445_7834)"/>
<path d="M203.982 89.1706L203.923 88.4316C203.593 84.3148 200.015 81.2279 195.894 81.504C193.743 81.6483 191.731 82.615 190.273 84.2034L167.829 108.666C164.744 112.028 160.85 114.543 156.518 115.972L154.46 116.651C151.548 117.612 148.493 118.064 145.429 117.987L112.485 117.166L139.713 106.126C143.089 104.757 144.723 100.917 143.368 97.5361L143.001 96.62C141.863 93.7797 138.918 92.094 135.892 92.5426C125.129 94.1378 100.441 97.8694 89.84 100.072C79.6444 102.19 65.3776 121.34 58.6771 131.108C56.2266 134.681 54.9058 138.859 54.8735 143.191C54.8361 148.119 57.3046 152.728 61.4271 155.429L63.7632 156.959C68.1165 159.81 73.2988 161.123 78.4848 160.689L144.273 155.175C152.7 154.468 160.43 150.213 165.535 143.471L202.308 94.9066C203.551 93.2648 204.147 91.2235 203.982 89.1706Z" fill="url(#paint4_linear_1445_7834)"/>
<path d="M84.2177 168.279L57.5226 191.066C56.0583 192.32 53.8539 192.144 52.6003 190.68L22.9192 155.91C21.6654 154.443 21.8408 152.239 23.3052 150.988L24.9321 149.6L50.0002 128.198C51.4646 126.947 53.6688 127.12 54.9226 128.587L57.9883 132.179L82.0707 160.349L83.6052 162.109H83.6083L84.6036 163.316C85.8574 164.781 85.6818 167.025 84.2177 168.279Z" fill="url(#paint5_linear_1445_7834)"/>
<path opacity="0.4" d="M84.2177 168.279L57.5226 191.066C56.0583 192.32 53.8539 192.144 52.6003 190.68L22.9192 155.911C21.6654 154.443 21.8408 152.239 23.3052 150.988L24.9321 149.601C26.0582 153.151 28.8146 156.424 35.7754 155.25C49.9715 152.858 50.7594 161.246 56.9898 164.621C64.5408 168.714 75.5692 163 83.6052 162.109H83.6083L84.6036 163.316C85.8574 164.781 85.6818 167.025 84.2177 168.279Z" fill="url(#paint6_linear_1445_7834)"/>
<path d="M72.8826 167.658C74.9622 167.658 76.648 165.972 76.648 163.892C76.648 161.813 74.9622 160.127 72.8826 160.127C70.803 160.127 69.1172 161.813 69.1172 163.892C69.1172 165.972 70.803 167.658 72.8826 167.658Z" fill="url(#paint7_linear_1445_7834)"/>
<path d="M58.615 177.765C60.6946 177.765 62.3804 176.079 62.3804 173.999C62.3804 171.92 60.6946 170.234 58.615 170.234C56.5354 170.234 54.8496 171.92 54.8496 173.999C54.8496 176.079 56.5354 177.765 58.615 177.765Z" fill="url(#paint8_linear_1445_7834)"/>
<path d="M136.595 67.04C148.936 54.6983 148.936 34.6884 136.595 22.3467C124.253 10.005 104.243 10.005 91.9014 22.3467C79.5596 34.6884 79.5596 54.6983 91.9013 67.04C104.243 79.3817 124.253 79.3817 136.595 67.04Z" fill="white"/>
<path d="M114.249 72.7663C129.753 72.7663 142.322 60.1976 142.322 44.6932C142.322 29.1889 129.753 16.6201 114.249 16.6201C98.7446 16.6201 86.1758 29.1889 86.1758 44.6932C86.1758 60.1976 98.7446 72.7663 114.249 72.7663Z" fill="url(#paint9_linear_1445_7834)"/>
<path d="M72.4707 91.5988C80.8891 83.1804 80.8891 69.5315 72.4707 61.1131C64.0523 52.6947 50.4034 52.6947 41.985 61.1131C33.5666 69.5315 33.5666 83.1804 41.985 91.5988C50.4034 100.017 64.0523 100.017 72.4707 91.5988Z" fill="white"/>
<path d="M57.2289 95.5047C67.8045 95.5047 76.3777 86.9315 76.3777 76.3559C76.3777 65.7803 67.8045 57.207 57.2289 57.207C46.6533 57.207 38.0801 65.7803 38.0801 76.3559C38.0801 86.9315 46.6533 95.5047 57.2289 95.5047Z" fill="url(#paint10_linear_1445_7834)"/>
<path d="M187.797 78.7995C196.215 70.3811 196.215 56.7322 187.797 48.3138C179.378 39.8954 165.73 39.8954 157.311 48.3138C148.893 56.7322 148.893 70.3811 157.311 78.7995C165.73 87.2179 179.378 87.2179 187.797 78.7995Z" fill="white"/>
<path d="M172.555 82.7044C183.131 82.7044 191.704 74.1312 191.704 63.5556C191.704 52.98 183.131 44.4067 172.555 44.4067C161.979 44.4067 153.406 52.98 153.406 63.5556C153.406 74.1312 161.979 82.7044 172.555 82.7044Z" fill="url(#paint11_linear_1445_7834)"/>
<path d="M30.8508 222.854C28.167 215.865 31.9548 204.412 34.3409 199.221C41.2955 184.09 54.0733 183.579 64.5493 183.16C74.8398 182.748 84.7736 182.35 92.0437 193.955C96.793 201.537 101.16 215.446 98.2478 222.854C95.1846 230.645 86.6789 224.607 66.4502 224.5C44.2009 224.383 34.2018 231.58 30.8508 222.854Z" fill="#7AC1EC"/>
<path d="M74.2602 184.752C74.2602 186.657 69.6089 188.943 63.8713 188.943C58.1337 188.943 53.4824 186.657 53.4824 184.752C53.4824 182.846 58.1337 183.698 63.8713 183.698C69.6089 183.698 74.2602 182.846 74.2602 184.752Z" fill="url(#paint12_linear_1445_7834)"/>
<path d="M60.0535 171.462C58.4739 171.462 62.1203 182.562 56.3775 184.086C55.822 184.233 55.7309 184.98 56.2361 185.253C57.7777 186.089 60.6651 187.147 65.4007 187.147C68.4771 187.147 70.7273 185.985 71.8961 185.201C72.2958 184.933 72.2559 184.335 71.828 184.115C70.0576 183.202 67.6 180.3 68.3333 171.746L60.0535 171.462Z" fill="url(#paint13_linear_1445_7834)"/>
<path d="M55.2539 158.156C55.2775 158.295 55.7552 168.426 58.0707 173.486C58.7353 174.938 62.0322 174.764 64.1658 174.589C66.019 174.437 68.9243 175.113 69.7424 173.834C73.0318 168.69 72.4741 155.949 72.4741 155.949C72.4741 155.949 70.7889 151.71 63.8781 151.826C56.9674 151.942 55.2539 158.156 55.2539 158.156Z" fill="url(#paint14_linear_1445_7834)"/>
<path d="M56.87 163.596C56.87 163.596 55.4243 161.916 54.0622 161.692C52.6999 161.468 51.8126 164.997 53.6709 167.293C55.5291 169.589 57.6772 167.685 57.6772 167.685L56.87 163.596Z" fill="url(#paint15_linear_1445_7834)"/>
<path d="M70.9575 163.596C70.9575 163.596 72.4033 161.916 73.7655 161.692C75.1277 161.468 76.0151 164.997 74.1567 167.293C72.2985 169.589 70.1504 167.685 70.1504 167.685L70.9575 163.596Z" fill="url(#paint16_linear_1445_7834)"/>
<path d="M55.7376 163.47C55.9197 163.804 56.1281 164.115 56.269 164.078C56.8532 163.926 54.5998 158.233 56.6755 156.239C57.7485 155.209 58.9572 156.148 63.3533 155.949C67.7802 155.748 68.9127 154.689 70.2508 155.501C71.4699 156.24 72.561 158.35 71.6571 164.601C71.9087 164.543 72.1603 164.485 72.412 164.427C72.073 162.379 72.4429 161.088 72.866 160.273C73.1746 159.679 73.7329 158.913 73.6895 157.807C73.6625 157.121 73.4353 157.091 73.3979 156.529C73.2884 154.883 75.1668 154.44 75.2573 152.813C75.3271 151.561 74.2469 151.277 74.4443 149.968C74.6121 148.855 75.4557 148.647 75.3222 147.843C75.1782 146.975 74.0484 146.329 73.2552 146.104C72.4464 145.874 72.1539 146.129 71.6798 145.802C70.9136 145.274 71.2817 144.335 70.7279 143.987C69.7416 143.367 67.7809 145.844 66.5135 145.227C65.7462 144.854 66.0417 143.739 65.3625 143.469C64.05 142.947 61.731 146.623 60.7982 146.135C60.3515 145.902 60.7822 145.006 60.1558 144.347C59.4203 143.572 57.6545 143.574 56.8495 144.393C56.099 145.157 56.7363 146.069 55.9418 147.037C55.2285 147.907 54.4046 147.549 53.5995 148.245C52.2318 149.429 52.7079 152.106 52.8778 153.061C53.4626 156.351 55.2838 157.016 54.8751 159.259C54.7705 159.832 54.5271 160.471 54.7009 161.407C54.8716 162.326 55.3483 163.019 55.7376 163.47Z" fill="url(#paint17_linear_1445_7834)"/>
<g opacity="0.3">
<path d="M72.5602 156.366C72.3986 154.749 73.6515 153.996 73.4411 152.843C73.2721 151.916 72.2238 151.083 71.239 150.905C69.1384 150.525 67.7786 153.618 65.6898 153.283C64.0747 153.024 64.2537 151.073 62.4307 150.288C59.5414 149.045 56.5127 152.836 54.5913 151.786C54.0139 151.47 53.43 150.659 53.3885 148.458C52.2867 149.724 52.719 152.159 52.8793 153.061C53.4641 156.35 55.2854 157.016 54.8766 159.258C54.7721 159.832 54.5286 160.47 54.7024 161.407C54.8729 162.326 55.3496 163.019 55.7388 163.47C55.9208 163.804 56.1294 164.115 56.2702 164.078C56.8544 163.926 54.601 158.232 56.6766 156.239C57.7497 155.208 58.9584 156.147 63.3545 155.948C67.7814 155.748 68.9139 154.689 70.252 155.5C71.4711 156.24 72.5622 158.35 71.6583 164.601C71.9099 164.543 72.1616 164.485 72.4131 164.427C72.0742 162.379 72.4441 161.087 72.8671 160.273C72.9943 160.028 73.1636 159.754 73.316 159.439C73.2838 158.9 73.1922 158.309 73.0006 157.687C72.7758 156.958 72.6122 156.886 72.5602 156.366Z" fill="url(#paint18_linear_1445_7834)"/>
</g>
<path d="M163.79 200.129C149.68 197.849 146.569 196.27 145.13 193.378C143.041 189.178 144.56 182.38 148.138 178.192C151.277 174.517 155.196 173.794 155.082 171.246C154.987 169.15 152.301 168.882 150.329 164.942C149.754 163.793 148.638 161.563 149.124 158.876C149.835 154.942 153.467 152.874 153.761 152.712C157.562 150.623 159.732 153.024 162.599 151.151C166.19 148.805 164.562 143.881 167.929 142.451C170.382 141.41 173.519 143.056 174.338 143.486C177.071 144.92 176.783 146.376 179.092 147.266C181.803 148.31 183.098 146.65 186.251 147.312C188.857 147.859 190.745 149.657 192.286 151.468C195.751 155.541 194.028 157.963 196.588 162.991C200.194 170.074 205.645 169.259 206.613 174.944C207.119 177.917 205.819 179.265 206.817 183.82C207.491 186.897 208.34 187.448 208.49 189.259C208.923 194.464 202.682 199.018 201.519 199.818C194.123 204.901 183.912 203.379 163.79 200.129Z" fill="url(#paint19_linear_1445_7834)"/>
<path opacity="0.7" d="M186.714 186.526C177.206 185.843 170.789 194.408 168.248 192.278C165.841 190.261 172.642 183.452 170.317 175.488C168.037 167.675 159.106 166.051 159.811 161.651C160.609 156.671 172.589 155.375 172.307 151.702C172.141 149.534 167.901 149.078 167.054 145.638C166.824 144.705 166.901 143.779 167.141 142.914C164.811 144.74 165.87 149.014 162.599 151.151C159.732 153.024 157.563 150.623 153.761 152.712C153.467 152.874 149.835 154.942 149.124 158.876C148.638 161.563 149.754 163.794 150.329 164.943C152.301 168.882 154.987 169.15 155.082 171.246C155.196 173.794 151.277 174.518 148.138 178.192C144.56 182.38 143.041 189.178 145.13 193.378C146.569 196.27 149.68 197.849 163.79 200.129C183.912 203.379 194.123 204.901 201.519 199.818C204.39 197.845 207.778 194.471 208.505 191.461C207.054 192.744 205.631 193.366 204.304 193.599C198.135 194.685 195.289 187.141 186.714 186.526Z" fill="url(#paint20_linear_1445_7834)"/>
<path d="M148.069 218.24C145.954 213.035 147.243 204.915 147.515 203.203C148.575 196.522 151.078 192.388 151.99 190.918C158.256 180.822 167.822 180.916 175.068 180.988C178.661 181.024 182.392 180.954 186.962 182.573C186.962 182.573 190.586 183.856 193.656 185.993C202.864 192.4 210.175 213.379 202.706 221.222C197.964 226.2 193.117 219.743 172.249 222.586C163.946 223.718 155.245 225.675 150.101 221.216C149.251 220.48 148.584 219.509 148.069 218.24Z" fill="url(#paint21_linear_1445_7834)"/>
<path d="M171.261 168.726C171.261 168.726 172.789 179.684 165.051 181.856C164.159 182.106 163.885 183.237 164.56 183.872L174.102 192.84C174.68 193.384 175.592 193.347 176.124 192.758L184.784 183.191C185.352 182.563 185.103 181.563 184.309 181.27C181.529 180.247 176.555 177.274 177.598 169.254L171.261 168.726Z" fill="url(#paint22_linear_1445_7834)"/>
<path d="M166.517 162.644C166.519 162.764 168.603 173.456 173.957 173.456C179.029 173.456 180.956 165.582 181.583 161.906C181.65 161.28 181.717 160.655 181.783 160.03C181.438 160.143 180.581 160.372 179.557 160.094C179.325 160.031 177.853 159.632 177.306 158.418C176.697 157.066 177.817 155.991 177.179 154.809C176.809 154.124 176.064 153.803 175.496 153.639C175.875 154.194 176.609 155.433 176.194 156.559C175.915 157.315 175.134 158.04 173.392 158.481C168.411 159.743 166.468 160.222 166.517 162.644Z" fill="url(#paint23_linear_1445_7834)"/>
<path d="M167.826 163.923C167.826 163.923 165.067 161.59 164.827 163.018C164.325 165.995 166.685 167.639 167.966 166.748C169.246 165.858 167.826 163.923 167.826 163.923Z" fill="url(#paint24_linear_1445_7834)"/>
<path d="M179.991 163.923C179.991 163.923 182.75 161.59 182.991 163.018C183.492 165.995 181.132 167.639 179.852 166.748C178.571 165.858 179.991 163.923 179.991 163.923Z" fill="url(#paint25_linear_1445_7834)"/>
<path d="M121.331 235.755C88.2769 236.01 76.6901 240.365 71.4403 233.2C66.609 226.606 70.6115 202.935 76.3768 196.288C85.4906 185.782 100.121 185.266 120.137 184.708C138.96 184.183 150.56 183.86 159.719 191.972C168.281 199.556 173.749 225.724 168.417 233.01C163.469 239.771 152.89 235.512 121.331 235.755Z" fill="#21A8FB"/>
<path d="M111.965 169.648C111.965 169.648 114.091 184.949 111.15 186.41L119.522 195.533L128.003 184.726C128.003 184.726 124.797 182.312 125.642 169.648H111.965Z" fill="url(#paint26_linear_1445_7834)"/>
<path d="M107.025 147.747C106.722 148.156 102.793 167.436 116.391 169.453C129.988 171.471 130.588 157.221 130.415 151.175C130.242 145.13 124.021 142.935 120.462 142.513C116.902 142.09 108.098 146.295 107.025 147.747Z" fill="url(#paint27_linear_1445_7834)"/>
<path d="M106.239 159.004C106.239 159.004 105.558 155.853 103.229 157.818C100.899 159.783 104.604 164.998 107.659 164.783L106.239 159.004Z" fill="url(#paint28_linear_1445_7834)"/>
<path d="M129.997 156.809C129.606 157.073 128.484 164.471 128.484 164.471C128.484 164.471 130.447 164.701 131.868 162.046C133.289 159.39 133.973 154.12 129.997 156.809Z" fill="url(#paint29_linear_1445_7834)"/>
<path d="M135.342 142.676C133.909 140.299 130.291 141.425 129.235 139.133C128.347 137.208 130.433 135.397 129.314 133.733C128.378 132.341 126.091 132.376 125.684 132.382C122.592 132.429 121.885 134.876 119.681 134.821C116.989 134.753 116.884 131.074 113.325 129.525C109.872 128.022 104.824 129.246 102.784 132.065C101.199 134.256 102.548 135.866 100.468 138.681C99.038 140.618 97.7737 140.703 97.0634 142.598C96.3964 144.377 96.8478 146.072 97.2008 147.331C98.0469 150.349 99.6244 151.681 102.008 154.892C103.075 156.331 104.539 158.462 106.05 161.27C106.683 162.96 107.59 165.576 108.428 168.882C109.191 171.889 109.144 172.498 109.857 173.472C112.314 176.829 117.921 176.505 120.281 176.368C122.986 176.211 126.354 176.016 128.048 173.666C128.964 172.396 128.848 171.248 129.061 168.179C129.213 165.988 129.526 162.914 130.237 159.185C130.251 159.185 130.553 157.475 131.343 155.37C132.328 152.741 133.352 152.322 134.464 149.605C135.356 147.426 136.508 144.611 135.342 142.676ZM124.08 163.197C122.408 163.649 121.28 163.243 119.014 163.113C114.482 162.852 113.049 164.974 110.909 164.042C110.017 163.653 107.954 162.564 107.517 160.478C107.265 159.125 107.087 157.276 107.377 155.137C107.732 152.523 108.141 149.507 110.235 148.173C113.274 146.237 117.155 149.568 119.943 147.41C121.008 146.585 121.437 145.327 121.631 144.37C122.25 144.584 127.173 146.374 128.985 151.63C130.102 154.87 129.462 157.759 128.918 159.33C127.898 160.869 126.34 162.587 124.08 163.197Z" fill="url(#paint30_linear_1445_7834)"/>
<path d="M114.678 166.383C116.427 166.925 119.058 167.292 122.006 166.176C122.312 166.06 122.573 166.394 122.318 166.576C121.264 167.325 119.725 168.121 118.052 167.997C116.668 167.894 115.398 167.361 114.419 166.805C114.139 166.646 114.361 166.285 114.678 166.383Z" fill="url(#paint31_linear_1445_7834)"/>
<path d="M115.775 191.449C115.775 191.449 117.298 196.828 118.828 196.93C120.357 197.032 121.479 197.235 121.479 197.235L123.19 190.847C123.19 190.847 120.416 192.509 115.775 191.449Z" fill="url(#paint32_linear_1445_7834)"/>
<path d="M118.353 196.737L113.533 229.13L118.679 233.447L125.727 228.806L121.478 197.235L118.353 196.737Z" fill="url(#paint33_linear_1445_7834)"/>
<defs>
<linearGradient id="paint0_linear_1445_7834" x1="237.262" y1="137.006" x2="39.3784" y2="270.575" gradientUnits="userSpaceOnUse">
<stop stop-color="#FF9085"/>
<stop offset="1" stop-color="#FB6FBB"/>
</linearGradient>
<linearGradient id="paint1_linear_1445_7834" x1="8.24195" y1="151.622" x2="109.527" y2="209.556" gradientUnits="userSpaceOnUse">
<stop offset="0.0036" stop-color="#E38DDD"/>
<stop offset="1" stop-color="#9571F6"/>
</linearGradient>
<linearGradient id="paint2_linear_1445_7834" x1="55.1415" y1="207.192" x2="113.004" y2="135.611" gradientUnits="userSpaceOnUse">
<stop stop-color="#FFC444"/>
<stop offset="0.129" stop-color="#FDB946"/>
<stop offset="0.1674" stop-color="#FDB647"/>
<stop offset="0.9964" stop-color="#F36F56"/>
</linearGradient>
<linearGradient id="paint3_linear_1445_7834" x1="44.9169" y1="195.068" x2="64.3768" y2="105.106" gradientUnits="userSpaceOnUse">
<stop offset="0.0036" stop-color="#6165D7"/>
<stop offset="1" stop-color="#AA80F9"/>
</linearGradient>
<linearGradient id="paint4_linear_1445_7834" x1="149.363" y1="72.7873" x2="-27.9919" y2="449.648" gradientUnits="userSpaceOnUse">
<stop stop-color="#FFC444"/>
<stop offset="0.9964" stop-color="#F36F56"/>
</linearGradient>
<linearGradient id="paint5_linear_1445_7834" x1="54.3322" y1="180.82" x2="60.0924" y2="394.773" gradientUnits="userSpaceOnUse">
<stop offset="0.0036" stop-color="#6165D7"/>
<stop offset="1" stop-color="#AA80F9"/>
</linearGradient>
<linearGradient id="paint6_linear_1445_7834" x1="53.5898" y1="153.246" x2="57.4333" y2="296.006" gradientUnits="userSpaceOnUse">
<stop offset="0.0036" stop-color="#6165D7"/>
<stop offset="1" stop-color="#AA80F9"/>
</linearGradient>
<linearGradient id="paint7_linear_1445_7834" x1="33.9204" y1="191.998" x2="81.0659" y2="157.989" gradientUnits="userSpaceOnUse">
<stop offset="0.0036" stop-color="#6165D7"/>
<stop offset="1" stop-color="#AA80F9"/>
</linearGradient>
<linearGradient id="paint8_linear_1445_7834" x1="33.8337" y1="191.876" x2="80.9792" y2="157.867" gradientUnits="userSpaceOnUse">
<stop offset="0.0036" stop-color="#6165D7"/>
<stop offset="1" stop-color="#AA80F9"/>
</linearGradient>
<linearGradient id="paint9_linear_1445_7834" x1="94.0145" y1="8.01014" x2="164.786" y2="136.313" gradientUnits="userSpaceOnUse">
<stop stop-color="#FFC444"/>
<stop offset="0.9964" stop-color="#F36F56"/>
</linearGradient>
<linearGradient id="paint10_linear_1445_7834" x1="43.4268" y1="51.334" x2="91.7008" y2="138.85" gradientUnits="userSpaceOnUse">
<stop stop-color="#FFC444"/>
<stop offset="0.9964" stop-color="#F36F56"/>
</linearGradient>
<linearGradient id="paint11_linear_1445_7834" x1="158.753" y1="38.5338" x2="207.027" y2="126.05" gradientUnits="userSpaceOnUse">
<stop stop-color="#FFC444"/>
<stop offset="0.9964" stop-color="#F36F56"/>
</linearGradient>
<linearGradient id="paint12_linear_1445_7834" x1="63.9534" y1="189.763" x2="63.6892" y2="173.644" gradientUnits="userSpaceOnUse">
<stop stop-color="#AA80F9"/>
<stop offset="0.9964" stop-color="#6165D7"/>
</linearGradient>
<linearGradient id="paint13_linear_1445_7834" x1="64.0811" y1="191.432" x2="63.993" y2="177.332" gradientUnits="userSpaceOnUse">
<stop stop-color="#AB316D"/>
<stop offset="1" stop-color="#792D3D"/>
</linearGradient>
<linearGradient id="paint14_linear_1445_7834" x1="62.9114" y1="171.256" x2="65.2016" y2="143.686" gradientUnits="userSpaceOnUse">
<stop stop-color="#AB316D"/>
<stop offset="1" stop-color="#792D3D"/>
</linearGradient>
<linearGradient id="paint15_linear_1445_7834" x1="54.7521" y1="170.578" x2="57.0423" y2="143.008" gradientUnits="userSpaceOnUse">
<stop stop-color="#AB316D"/>
<stop offset="1" stop-color="#792D3D"/>
</linearGradient>
<linearGradient id="paint16_linear_1445_7834" x1="72.1863" y1="172.026" x2="74.4765" y2="144.457" gradientUnits="userSpaceOnUse">
<stop stop-color="#AB316D"/>
<stop offset="1" stop-color="#792D3D"/>
</linearGradient>
<linearGradient id="paint17_linear_1445_7834" x1="62.3044" y1="157.963" x2="68.3821" y2="139.113" gradientUnits="userSpaceOnUse">
<stop stop-color="#311944"/>
<stop offset="1" stop-color="#6B3976"/>
</linearGradient>
<linearGradient id="paint18_linear_1445_7834" x1="62.3061" y1="157.963" x2="68.3838" y2="139.113" gradientUnits="userSpaceOnUse">
<stop stop-color="#311944"/>
<stop offset="1" stop-color="#6B3976"/>
</linearGradient>
<linearGradient id="paint19_linear_1445_7834" x1="197.568" y1="138.118" x2="180.667" y2="171.216" gradientUnits="userSpaceOnUse">
<stop stop-color="#AB316D"/>
<stop offset="1" stop-color="#792D3D"/>
</linearGradient>
<linearGradient id="paint20_linear_1445_7834" x1="197.54" y1="138.347" x2="180.688" y2="171.349" gradientUnits="userSpaceOnUse">
<stop stop-color="#AB316D"/>
<stop offset="1" stop-color="#792D3D"/>
</linearGradient>
<linearGradient id="paint21_linear_1445_7834" x1="180.934" y1="244.733" x2="172.753" y2="185.418" gradientUnits="userSpaceOnUse">
<stop offset="0.0036" stop-color="#AD8DE3"/>
<stop offset="1" stop-color="#71B6F6"/>
</linearGradient>
<linearGradient id="paint22_linear_1445_7834" x1="175.175" y1="194.358" x2="174.001" y2="168.873" gradientUnits="userSpaceOnUse">
<stop stop-color="#FFC444"/>
<stop offset="0.9964" stop-color="#F36F56"/>
</linearGradient>
<linearGradient id="paint23_linear_1445_7834" x1="173.87" y1="171.945" x2="174.321" y2="154.703" gradientUnits="userSpaceOnUse">
<stop stop-color="#FFC444"/>
<stop offset="0.9964" stop-color="#F36F56"/>
</linearGradient>
<linearGradient id="paint24_linear_1445_7834" x1="166.488" y1="170.151" x2="166.899" y2="154.414" gradientUnits="userSpaceOnUse">
<stop stop-color="#FFC444"/>
<stop offset="0.9964" stop-color="#F36F56"/>
</linearGradient>
<linearGradient id="paint25_linear_1445_7834" x1="181.038" y1="170.531" x2="181.449" y2="154.794" gradientUnits="userSpaceOnUse">
<stop stop-color="#FFC444"/>
<stop offset="0.9964" stop-color="#F36F56"/>
</linearGradient>
<linearGradient id="paint26_linear_1445_7834" x1="120.042" y1="188.59" x2="123.67" y2="212.175" gradientUnits="userSpaceOnUse">
<stop stop-color="#FFC444"/>
<stop offset="0.9964" stop-color="#F36F56"/>
</linearGradient>
<linearGradient id="paint27_linear_1445_7834" x1="118.368" y1="152.543" x2="117.461" y2="212.412" gradientUnits="userSpaceOnUse">
<stop stop-color="#FFC444"/>
<stop offset="0.9964" stop-color="#F36F56"/>
</linearGradient>
<linearGradient id="paint28_linear_1445_7834" x1="103.795" y1="149.223" x2="109.677" y2="208.81" gradientUnits="userSpaceOnUse">
<stop stop-color="#FFC444"/>
<stop offset="0.9964" stop-color="#F36F56"/>
</linearGradient>
<linearGradient id="paint29_linear_1445_7834" x1="130.861" y1="152.732" x2="129.954" y2="212.601" gradientUnits="userSpaceOnUse">
<stop stop-color="#FFC444"/>
<stop offset="0.9964" stop-color="#F36F56"/>
</linearGradient>
<linearGradient id="paint30_linear_1445_7834" x1="96.7206" y1="152.661" x2="135.835" y2="152.661" gradientUnits="userSpaceOnUse">
<stop stop-color="#444B8C"/>
<stop offset="0.9964" stop-color="#3E4177"/>
</linearGradient>
<linearGradient id="paint31_linear_1445_7834" x1="121.238" y1="141.622" x2="118.705" y2="163.488" gradientUnits="userSpaceOnUse">
<stop stop-color="#FFC444"/>
<stop offset="0.9964" stop-color="#F36F56"/>
</linearGradient>
<linearGradient id="paint32_linear_1445_7834" x1="118.297" y1="173.77" x2="120.336" y2="203.648" gradientUnits="userSpaceOnUse">
<stop stop-color="#444B8C"/>
<stop offset="0.9964" stop-color="#26264F"/>
</linearGradient>
<linearGradient id="paint33_linear_1445_7834" x1="119.63" y1="221.066" x2="119.63" y2="176.675" gradientUnits="userSpaceOnUse">
<stop stop-color="#444B8C"/>
<stop offset="0.9964" stop-color="#26264F"/>
</linearGradient>
</defs>
</svg>
