<svg width="40" height="40" viewBox="0 0 40 40" fill="none" xmlns="http://www.w3.org/2000/svg">
<path d="M3.33398 7.5H14.5957C15.2525 7.49992 15.9029 7.62926 16.5097 7.88063C17.1166 8.132 17.6679 8.50048 18.1323 8.965L23.334 14.1667M8.33398 22.5H3.33398M14.1673 12.5L17.5007 15.8333C17.7195 16.0522 17.8931 16.312 18.0116 16.598C18.13 16.884 18.191 17.1905 18.191 17.5C18.191 17.8095 18.13 18.116 18.0116 18.402C17.8931 18.688 17.7195 18.9478 17.5007 19.1667C17.2818 19.3855 17.0219 19.5592 16.736 19.6776C16.45 19.7961 16.1435 19.857 15.834 19.857C15.5245 19.857 15.218 19.7961 14.932 19.6776C14.646 19.5592 14.3862 19.3855 14.1673 19.1667L11.6673 16.6667C10.234 18.1 7.96232 18.2617 6.33898 17.045L5.83398 16.6667" stroke="#21A8FB" stroke-width="3" stroke-linecap="round" stroke-linejoin="round"/>
<path d="M8.33398 18.3337V25.8337C8.33398 28.977 8.33398 30.547 9.31065 31.5237C10.2873 32.5003 11.8573 32.5003 15.0007 32.5003H30.0007C33.144 32.5003 34.714 32.5003 35.6906 31.5237C36.6673 30.547 36.6673 28.977 36.6673 25.8337V20.8337C36.6673 17.6903 36.6673 16.1203 35.6906 15.1437C34.714 14.167 33.144 14.167 30.0007 14.167H15.834" stroke="#21A8FB" stroke-width="3" stroke-linecap="round" stroke-linejoin="round"/>
<path d="M25.4173 23.3337C25.4173 24.1072 25.11 24.8491 24.563 25.3961C24.0161 25.943 23.2742 26.2503 22.5007 26.2503C21.7271 26.2503 20.9852 25.943 20.4383 25.3961C19.8913 24.8491 19.584 24.1072 19.584 23.3337C19.584 22.5601 19.8913 21.8182 20.4383 21.2713C20.9852 20.7243 21.7271 20.417 22.5007 20.417C23.2742 20.417 24.0161 20.7243 24.563 21.2713C25.11 21.8182 25.4173 22.5601 25.4173 23.3337Z" stroke="#21A8FB" stroke-width="3" stroke-linecap="round" stroke-linejoin="round"/>
</svg>
