<svg width="12" height="15" viewBox="0 0 12 15" fill="none" xmlns="http://www.w3.org/2000/svg">
<path d="M11.086 1.93338C11.0086 1.87072 10.9181 1.82623 10.8212 1.80315C10.7242 1.78008 10.6234 1.77902 10.526 1.80004C9.81364 1.94934 9.07825 1.95124 8.36511 1.80563C7.65197 1.66002 6.97618 1.36999 6.37935 0.953376C6.26776 0.875958 6.13517 0.834473 5.99935 0.834473C5.86353 0.834473 5.73095 0.875958 5.61935 0.953376C5.02252 1.36999 4.34674 1.66002 3.6336 1.80563C2.92046 1.95124 2.18506 1.94934 1.47269 1.80004C1.37531 1.77902 1.27446 1.78008 1.17755 1.80315C1.08064 1.82623 0.990137 1.87072 0.912686 1.93338C0.835339 1.99612 0.773033 2.0754 0.730348 2.16539C0.687662 2.25537 0.665681 2.35378 0.666019 2.45338V7.42004C0.665427 8.37587 0.893202 9.31802 1.33038 10.168C1.76755 11.018 2.40147 11.7513 3.17935 12.3067L5.61269 14.04C5.72559 14.1204 5.86075 14.1636 5.99935 14.1636C6.13795 14.1636 6.27311 14.1204 6.38602 14.04L8.81935 12.3067C9.59723 11.7513 10.2312 11.018 10.6683 10.168C11.1055 9.31802 11.3333 8.37587 11.3327 7.42004V2.45338C11.333 2.35378 11.311 2.25537 11.2684 2.16539C11.2257 2.0754 11.1634 1.99612 11.086 1.93338ZM9.99935 7.42004C9.99986 8.16321 9.82288 8.89576 9.48312 9.55672C9.14336 10.2177 8.65066 10.7879 8.04602 11.22L5.99935 12.68L3.95269 11.22C3.34804 10.7879 2.85534 10.2177 2.51559 9.55672C2.17583 8.89576 1.99884 8.16321 1.99935 7.42004V3.22004C3.39697 3.33966 4.79671 3.01539 5.99935 2.29338C7.20199 3.01539 8.60173 3.33966 9.99935 3.22004V7.42004ZM7.02602 5.89338L5.23269 7.69338L4.63935 7.09338C4.51382 6.96784 4.34355 6.89731 4.16602 6.89731C3.98848 6.89731 3.81822 6.96784 3.69269 7.09338C3.56715 7.21891 3.49663 7.38918 3.49663 7.56671C3.49663 7.74424 3.56715 7.91451 3.69269 8.04004L4.75935 9.10671C4.82133 9.1692 4.89506 9.21879 4.9763 9.25264C5.05754 9.28648 5.14468 9.30391 5.23269 9.30391C5.32069 9.30391 5.40783 9.28648 5.48907 9.25264C5.57031 9.21879 5.64404 9.1692 5.70602 9.10671L7.99935 6.83338C8.12489 6.70784 8.19541 6.53758 8.19541 6.36004C8.19541 6.18251 8.12489 6.01225 7.99935 5.88671C7.87382 5.76117 7.70355 5.69065 7.52602 5.69065C7.34848 5.69065 7.17822 5.76117 7.05269 5.88671L7.02602 5.89338Z" fill="#21A8FB"/>
</svg>
