<svg width="14" height="11" viewBox="0 0 14 11" fill="none" xmlns="http://www.w3.org/2000/svg">
<path d="M3.66732 7.50016H5.66732C5.84413 7.50016 6.0137 7.42992 6.13872 7.3049C6.26375 7.17988 6.33398 7.01031 6.33398 6.8335C6.33398 6.65669 6.26375 6.48712 6.13872 6.36209C6.0137 6.23707 5.84413 6.16683 5.66732 6.16683H3.66732C3.49051 6.16683 3.32094 6.23707 3.19591 6.36209C3.07089 6.48712 3.00065 6.65669 3.00065 6.8335C3.00065 7.01031 3.07089 7.17988 3.19591 7.3049C3.32094 7.42992 3.49051 7.50016 3.66732 7.50016ZM11.6673 0.833496H2.33398C1.80355 0.833496 1.29484 1.04421 0.919771 1.41928C0.544698 1.79436 0.333984 2.30306 0.333984 2.8335V8.8335C0.333984 9.36393 0.544698 9.87264 0.919771 10.2477C1.29484 10.6228 1.80355 10.8335 2.33398 10.8335H11.6673C12.1978 10.8335 12.7065 10.6228 13.0815 10.2477C13.4566 9.87264 13.6673 9.36393 13.6673 8.8335V2.8335C13.6673 2.30306 13.4566 1.79436 13.0815 1.41928C12.7065 1.04421 12.1978 0.833496 11.6673 0.833496ZM12.334 8.8335C12.334 9.01031 12.2637 9.17988 12.1387 9.3049C12.0137 9.42993 11.8441 9.50016 11.6673 9.50016H2.33398C2.15717 9.50016 1.9876 9.42993 1.86258 9.3049C1.73756 9.17988 1.66732 9.01031 1.66732 8.8335V4.8335H12.334V8.8335ZM12.334 3.50016H1.66732V2.8335C1.66732 2.65669 1.73756 2.48712 1.86258 2.36209C1.9876 2.23707 2.15717 2.16683 2.33398 2.16683H11.6673C11.8441 2.16683 12.0137 2.23707 12.1387 2.36209C12.2637 2.48712 12.334 2.65669 12.334 2.8335V3.50016Z" fill="#21A8FB"/>
</svg>
