<svg width="134" height="134" viewBox="0 0 134 134" fill="none" xmlns="http://www.w3.org/2000/svg">
<path d="M0 8C0 3.58172 3.58172 0 8 0H126C130.418 0 134 3.58172 134 8V126C134 130.418 130.418 134 126 134H8C3.58172 134 0 130.418 0 126V8Z" fill="#E8E8E8"/>
<path d="M67.5 31.5C66.6628 31.5 65.8338 31.6649 65.0604 31.9853C64.2869 32.3056 63.5842 32.7752 62.9922 33.3672C62.4002 33.9592 61.9306 34.6619 61.6103 35.4354C61.2899 36.2088 61.125 37.0378 61.125 37.875C61.125 38.7122 61.2899 39.5412 61.6103 40.3146C61.9306 41.0881 62.4002 41.7908 62.9922 42.3828C63.5842 42.9748 64.2869 43.4444 65.0604 43.7647C65.8338 44.0851 66.6628 44.25 67.5 44.25C69.1908 44.25 70.8123 43.5784 72.0078 42.3828C73.2034 41.1873 73.875 39.5658 73.875 37.875C73.875 36.1842 73.2034 34.5627 72.0078 33.3672C70.8123 32.1716 69.1908 31.5 67.5 31.5ZM56.875 37.875C56.875 35.0571 57.9944 32.3546 59.987 30.362C61.9796 28.3694 64.6821 27.25 67.5 27.25C70.3179 27.25 73.0204 28.3694 75.013 30.362C77.0056 32.3546 78.125 35.0571 78.125 37.875C78.125 40.6929 77.0056 43.3954 75.013 45.388C73.0204 47.3806 70.3179 48.5 67.5 48.5C64.6821 48.5 61.9796 47.3806 59.987 45.388C57.9944 43.3954 56.875 40.6929 56.875 37.875ZM50.5 59.125C50.5028 58.3487 50.5822 57.5978 50.738 56.8725L42.476 59.0825C41.6672 59.2995 40.9091 59.6736 40.2449 60.1837C39.5807 60.6937 39.0236 61.3296 38.6052 62.055C38.1869 62.7804 37.9155 63.5811 37.8067 64.4114C37.6979 65.2417 37.7537 66.0853 37.971 66.894L39.62 73.0523C40.0633 74.7047 40.8347 76.2509 41.8882 77.599C42.9416 78.947 44.2556 80.0693 45.7518 80.8989C47.248 81.7285 48.8959 82.2485 50.5974 82.4279C52.2988 82.6074 54.0189 82.4425 55.6552 81.9433C54.5186 80.8407 53.5416 79.5847 52.7525 78.2118C50.7504 78.405 48.7447 77.882 47.0918 76.7358C45.439 75.5896 44.2462 73.8943 43.7255 71.9515L42.0722 65.789C41.9269 65.2446 42.0038 64.6647 42.2859 64.177C42.5681 63.6892 43.0324 63.3335 43.5768 63.188L50.5 61.335V59.125ZM79.7655 82.0665L79.3405 81.9475C80.4753 80.8425 81.457 79.5887 82.2475 78.2118C84.2496 78.405 86.2553 77.882 87.9082 76.7358C89.561 75.5896 90.7538 73.8943 91.2745 71.9515L92.9235 65.789C93.069 65.2452 92.9927 64.6658 92.7114 64.1782C92.4301 63.6905 91.9668 63.3344 91.4232 63.188L84.5 61.335V59.125C84.4972 58.3487 84.4178 57.5978 84.262 56.8725L92.5197 59.0825C93.3289 59.299 94.0875 59.6728 94.7522 60.1827C95.4168 60.6925 95.9744 61.3283 96.3932 62.0538C96.812 62.7792 97.0837 63.5801 97.1928 64.4106C97.3019 65.2411 97.2462 66.085 97.029 66.894L95.38 73.0523C94.5036 76.3173 92.3663 79.1006 89.4382 80.7902C86.5101 82.4798 83.0309 82.9416 79.7655 82.0665ZM42 44.25C42 43.1228 42.4478 42.0418 43.2448 41.2448C44.0418 40.4478 45.1228 40 46.25 40C47.3772 40 48.4582 40.4478 49.2552 41.2448C50.0522 42.0418 50.5 43.1228 50.5 44.25C50.5 45.3772 50.0522 46.4582 49.2552 47.2552C48.4582 48.0522 47.3772 48.5 46.25 48.5C45.1228 48.5 44.0418 48.0522 43.2448 47.2552C42.4478 46.4582 42 45.3772 42 44.25ZM46.25 35.75C43.9957 35.75 41.8337 36.6455 40.2396 38.2396C38.6455 39.8337 37.75 41.9957 37.75 44.25C37.75 46.5043 38.6455 48.6663 40.2396 50.2604C41.8337 51.8545 43.9957 52.75 46.25 52.75C48.5043 52.75 50.6663 51.8545 52.2604 50.2604C53.8545 48.6663 54.75 46.5043 54.75 44.25C54.75 41.9957 53.8545 39.8337 52.2604 38.2396C50.6663 36.6455 48.5043 35.75 46.25 35.75ZM88.75 40C87.6228 40 86.5418 40.4478 85.7448 41.2448C84.9478 42.0418 84.5 43.1228 84.5 44.25C84.5 45.3772 84.9478 46.4582 85.7448 47.2552C86.5418 48.0522 87.6228 48.5 88.75 48.5C89.8772 48.5 90.9582 48.0522 91.7552 47.2552C92.5522 46.4582 93 45.3772 93 44.25C93 43.1228 92.5522 42.0418 91.7552 41.2448C90.9582 40.4478 89.8772 40 88.75 40ZM80.25 44.25C80.25 41.9957 81.1455 39.8337 82.7396 38.2396C84.3337 36.6455 86.4957 35.75 88.75 35.75C91.0043 35.75 93.1663 36.6455 94.7604 38.2396C96.3545 39.8337 97.25 41.9957 97.25 44.25C97.25 46.5043 96.3545 48.6663 94.7604 50.2604C93.1663 51.8545 91.0043 52.75 88.75 52.75C86.4957 52.75 84.3337 51.8545 82.7396 50.2604C81.1455 48.6663 80.25 46.5043 80.25 44.25ZM61.125 52.75C59.4342 52.75 57.8127 53.4216 56.6172 54.6172C55.4216 55.8127 54.75 57.4342 54.75 59.125V69.75C54.75 73.1315 56.0933 76.3745 58.4844 78.7656C60.8755 81.1567 64.1185 82.5 67.5 82.5C70.8815 82.5 74.1245 81.1567 76.5156 78.7656C78.9067 76.3745 80.25 73.1315 80.25 69.75V59.125C80.25 57.4342 79.5784 55.8127 78.3828 54.6172C77.1873 53.4216 75.5658 52.75 73.875 52.75H61.125ZM59 59.125C59 58.5614 59.2239 58.0209 59.6224 57.6224C60.0209 57.2239 60.5614 57 61.125 57H73.875C74.4386 57 74.9791 57.2239 75.3776 57.6224C75.7761 58.0209 76 58.5614 76 59.125V69.75C76 72.0043 75.1045 74.1663 73.5104 75.7604C71.9163 77.3545 69.7543 78.25 67.5 78.25C65.2457 78.25 63.0837 77.3545 61.4896 75.7604C59.8955 74.1663 59 72.0043 59 69.75V59.125Z" fill="#2C2C2C"/>
<path d="M30.346 106.124V103.618H27.84V102.295H30.346V99.796H31.669V102.295H34.161V103.618H31.669V106.124H30.346ZM38.0808 108L41.2588 97.92H43.7298L46.9078 108H45.1718L42.2878 98.956H42.6658L39.8168 108H38.0808ZM39.8518 105.816V104.241H45.1438V105.816H39.8518ZM51.2044 108.21C50.509 108.21 49.9024 108.035 49.3844 107.685C48.8664 107.335 48.465 106.859 48.1804 106.257C47.8957 105.655 47.7534 104.976 47.7534 104.22C47.7534 103.455 47.8957 102.773 48.1804 102.176C48.4697 101.574 48.878 101.1 49.4054 100.755C49.9327 100.405 50.5534 100.23 51.2674 100.23C51.986 100.23 52.588 100.405 53.0734 100.755C53.5634 101.1 53.9344 101.574 54.1864 102.176C54.4384 102.778 54.5644 103.459 54.5644 104.22C54.5644 104.971 54.4384 105.65 54.1864 106.257C53.9344 106.859 53.5587 107.335 53.0594 107.685C52.56 108.035 51.9417 108.21 51.2044 108.21ZM51.4634 106.698C51.916 106.698 52.28 106.595 52.5554 106.39C52.8354 106.18 53.0384 105.888 53.1644 105.515C53.295 105.142 53.3604 104.71 53.3604 104.22C53.3604 103.725 53.295 103.294 53.1644 102.925C53.0384 102.552 52.84 102.262 52.5694 102.057C52.2987 101.847 51.9487 101.742 51.5194 101.742C51.0667 101.742 50.6934 101.854 50.3994 102.078C50.1054 102.297 49.8884 102.596 49.7484 102.974C49.6084 103.347 49.5384 103.763 49.5384 104.22C49.5384 104.682 49.606 105.102 49.7414 105.48C49.8814 105.853 50.0937 106.15 50.3784 106.369C50.663 106.588 51.0247 106.698 51.4634 106.698ZM53.3604 108V102.694H53.1504V97.92H54.8514V108H53.3604ZM59.845 108.21C59.1497 108.21 58.543 108.035 58.025 107.685C57.507 107.335 57.1057 106.859 56.821 106.257C56.5363 105.655 56.394 104.976 56.394 104.22C56.394 103.455 56.5363 102.773 56.821 102.176C57.1103 101.574 57.5187 101.1 58.046 100.755C58.5733 100.405 59.194 100.23 59.908 100.23C60.6267 100.23 61.2287 100.405 61.714 100.755C62.204 101.1 62.575 101.574 62.827 102.176C63.079 102.778 63.205 103.459 63.205 104.22C63.205 104.971 63.079 105.65 62.827 106.257C62.575 106.859 62.1993 107.335 61.7 107.685C61.2007 108.035 60.5823 108.21 59.845 108.21ZM60.104 106.698C60.5567 106.698 60.9207 106.595 61.196 106.39C61.476 106.18 61.679 105.888 61.805 105.515C61.9357 105.142 62.001 104.71 62.001 104.22C62.001 103.725 61.9357 103.294 61.805 102.925C61.679 102.552 61.4807 102.262 61.21 102.057C60.9393 101.847 60.5893 101.742 60.16 101.742C59.7073 101.742 59.334 101.854 59.04 102.078C58.746 102.297 58.529 102.596 58.389 102.974C58.249 103.347 58.179 103.763 58.179 104.22C58.179 104.682 58.2467 105.102 58.382 105.48C58.522 105.853 58.7343 106.15 59.019 106.369C59.3037 106.588 59.6653 106.698 60.104 106.698ZM62.001 108V102.694H61.791V97.92H63.492V108H62.001ZM68.3973 108V97.92H70.0843V106.418H74.5363V108H68.3973ZM79.0612 108.21C78.3052 108.21 77.6449 108.04 77.0802 107.699C76.5155 107.358 76.0769 106.889 75.7642 106.292C75.4562 105.69 75.3022 104.999 75.3022 104.22C75.3022 103.427 75.4609 102.731 75.7782 102.134C76.0955 101.537 76.5365 101.07 77.1012 100.734C77.6659 100.398 78.3192 100.23 79.0612 100.23C79.8219 100.23 80.4845 100.4 81.0492 100.741C81.6139 101.082 82.0525 101.553 82.3652 102.155C82.6779 102.752 82.8342 103.441 82.8342 104.22C82.8342 105.004 82.6755 105.697 82.3582 106.299C82.0455 106.896 81.6069 107.365 81.0422 107.706C80.4775 108.042 79.8172 108.21 79.0612 108.21ZM79.0612 106.628C79.7332 106.628 80.2325 106.404 80.5592 105.956C80.8859 105.508 81.0492 104.929 81.0492 104.22C81.0492 103.487 80.8835 102.904 80.5522 102.47C80.2209 102.031 79.7239 101.812 79.0612 101.812C78.6085 101.812 78.2352 101.915 77.9412 102.12C77.6519 102.321 77.4372 102.603 77.2972 102.967C77.1572 103.326 77.0872 103.744 77.0872 104.22C77.0872 104.953 77.2529 105.538 77.5842 105.977C77.9202 106.411 78.4125 106.628 79.0612 106.628ZM87.5545 111.57C87.1345 111.57 86.7308 111.505 86.3435 111.374C85.9608 111.243 85.6155 111.054 85.3075 110.807C84.9995 110.564 84.7475 110.27 84.5515 109.925L86.1055 109.155C86.2502 109.43 86.4532 109.633 86.7145 109.764C86.9805 109.899 87.2628 109.967 87.5615 109.967C87.9115 109.967 88.2242 109.904 88.4995 109.778C88.7748 109.657 88.9872 109.475 89.1365 109.232C89.2905 108.994 89.3628 108.695 89.3535 108.336V106.187H89.5635V100.44H91.0405V108.364C91.0405 108.555 91.0312 108.737 91.0125 108.91C90.9985 109.087 90.9728 109.26 90.9355 109.428C90.8235 109.918 90.6088 110.319 90.2915 110.632C89.9742 110.949 89.5798 111.185 89.1085 111.339C88.6418 111.493 88.1238 111.57 87.5545 111.57ZM87.4075 108.21C86.7122 108.21 86.1055 108.035 85.5875 107.685C85.0695 107.335 84.6682 106.859 84.3835 106.257C84.0988 105.655 83.9565 104.976 83.9565 104.22C83.9565 103.455 84.0988 102.773 84.3835 102.176C84.6728 101.574 85.0812 101.1 85.6085 100.755C86.1358 100.405 86.7565 100.23 87.4705 100.23C88.1892 100.23 88.7912 100.405 89.2765 100.755C89.7665 101.1 90.1375 101.574 90.3895 102.176C90.6415 102.778 90.7675 103.459 90.7675 104.22C90.7675 104.971 90.6415 105.65 90.3895 106.257C90.1375 106.859 89.7618 107.335 89.2625 107.685C88.7632 108.035 88.1448 108.21 87.4075 108.21ZM87.6665 106.698C88.1192 106.698 88.4832 106.595 88.7585 106.39C89.0385 106.18 89.2415 105.888 89.3675 105.515C89.4982 105.142 89.5635 104.71 89.5635 104.22C89.5635 103.725 89.4982 103.294 89.3675 102.925C89.2415 102.552 89.0432 102.262 88.7725 102.057C88.5018 101.847 88.1518 101.742 87.7225 101.742C87.2698 101.742 86.8965 101.854 86.6025 102.078C86.3085 102.297 86.0915 102.596 85.9515 102.974C85.8115 103.347 85.7415 103.763 85.7415 104.22C85.7415 104.682 85.8092 105.102 85.9445 105.48C86.0845 105.853 86.2968 106.15 86.5815 106.369C86.8662 106.588 87.2278 106.698 87.6665 106.698ZM96.3424 108.21C95.5864 108.21 94.9261 108.04 94.3614 107.699C93.7968 107.358 93.3581 106.889 93.0454 106.292C92.7374 105.69 92.5834 104.999 92.5834 104.22C92.5834 103.427 92.7421 102.731 93.0594 102.134C93.3768 101.537 93.8178 101.07 94.3824 100.734C94.9471 100.398 95.6004 100.23 96.3424 100.23C97.1031 100.23 97.7658 100.4 98.3304 100.741C98.8951 101.082 99.3338 101.553 99.6464 102.155C99.9591 102.752 100.115 103.441 100.115 104.22C100.115 105.004 99.9568 105.697 99.6394 106.299C99.3268 106.896 98.8881 107.365 98.3234 107.706C97.7588 108.042 97.0984 108.21 96.3424 108.21ZM96.3424 106.628C97.0144 106.628 97.5138 106.404 97.8404 105.956C98.1671 105.508 98.3304 104.929 98.3304 104.22C98.3304 103.487 98.1648 102.904 97.8334 102.47C97.5021 102.031 97.0051 101.812 96.3424 101.812C95.8898 101.812 95.5164 101.915 95.2224 102.12C94.9331 102.321 94.7184 102.603 94.5784 102.967C94.4384 103.326 94.3684 103.744 94.3684 104.22C94.3684 104.953 94.5341 105.538 94.8654 105.977C95.2014 106.411 95.6938 106.628 96.3424 106.628Z" fill="#2C2C2C"/>
</svg>
