<svg width="172" height="188" viewBox="0 0 172 188" fill="none" xmlns="http://www.w3.org/2000/svg">
<path d="M86.4579 188C133.701 188 172 165.889 172 138.613C172 111.337 133.701 89.2261 86.4579 89.2261C39.2144 89.2261 0.916016 111.337 0.916016 138.613C0.916016 165.889 39.2144 188 86.4579 188Z" fill="#E8E8E8"/>
<path d="M53.9869 161.216C65.6173 161.216 75.0456 155.773 75.0456 149.058C75.0456 142.343 65.6173 136.9 53.9869 136.9C42.3565 136.9 32.9282 142.343 32.9282 149.058C32.9282 155.773 42.3565 161.216 53.9869 161.216Z" fill="#E0E0E0"/>
<path d="M73.1196 124.877L128.702 156.975C130.264 157.877 132.997 157.762 134.8 156.721L154.535 145.321C156.338 144.276 156.535 142.698 154.974 141.797L99.3907 109.711C97.8254 108.805 95.0962 108.92 93.2891 109.961L73.5581 121.357C71.751 122.398 71.5543 123.975 73.1196 124.877Z" fill="#E0E0E0"/>
<path d="M32.1289 22.7963L29.3628 24.3699V23.3987C29.3628 23.3249 29.3628 23.2553 29.3628 23.1897C29.3628 23.1241 29.3628 23.0545 29.3628 22.993V22.9684C29.2645 21.6694 28.281 21.1736 27.0844 21.8661C26.5409 22.1987 26.0755 22.6446 25.7199 23.1733C25.4494 21.4113 24.0152 20.7761 22.2777 21.7801C20.3476 22.8947 18.7823 25.6033 18.7823 27.8325V29.9306C18.782 30.0965 18.7384 30.2594 18.6557 30.4031C18.5731 30.5469 18.4542 30.6665 18.311 30.7502L16.6719 31.705C16.3192 31.9124 16.0268 32.2082 15.8234 32.5632C15.62 32.9182 15.5128 33.3202 15.5122 33.7293C15.5153 33.8975 15.5623 34.062 15.6484 34.2066C15.7346 34.3511 15.8569 34.4707 16.0034 34.5534C16.1499 34.6362 16.3155 34.6793 16.4837 34.6785C16.652 34.6777 16.8171 34.633 16.9628 34.5489L32.0838 25.8164C32.4848 25.5844 32.8179 25.251 33.0495 24.8497C33.281 24.4483 33.4031 23.9932 33.4033 23.5298C33.4009 23.3817 33.3601 23.2367 33.2848 23.109C33.2096 22.9814 33.1026 22.8754 32.9742 22.8015C32.8458 22.7276 32.7004 22.6883 32.5522 22.6874C32.404 22.6864 32.2582 22.724 32.1289 22.7963Z" fill="#E6E6E6"/>
<path d="M48.3153 5.5528L46.2664 6.71658V5.99536C46.2664 5.94619 46.2664 5.89292 46.2664 5.84374C46.2664 5.79457 46.2664 5.7454 46.2664 5.69622C46.1926 4.73733 45.4673 4.36853 44.5781 4.87666C44.178 5.12332 43.8356 5.45314 43.5741 5.84374C43.3734 4.54064 42.3079 4.06939 41.0253 4.81519C40.2746 5.30325 39.6494 5.96117 39.2002 6.73571C38.751 7.51026 38.4904 8.37968 38.4396 9.27362V10.8267C38.4397 10.9494 38.4076 11.0701 38.3465 11.1765C38.2854 11.2829 38.1974 11.3714 38.0913 11.4332L36.8742 12.1421C36.6126 12.2945 36.3956 12.5128 36.2446 12.7752C36.0936 13.0377 36.014 13.335 36.0137 13.6378C36.0143 13.7632 36.0477 13.8862 36.1107 13.9946C36.1737 14.103 36.2641 14.193 36.3727 14.2557C36.4813 14.3183 36.6045 14.3513 36.7299 14.3515C36.8553 14.3516 36.9785 14.3189 37.0873 14.2566L48.2702 7.7943C48.5683 7.62368 48.8159 7.37724 48.9879 7.08001C49.1599 6.78277 49.2502 6.44532 49.2496 6.1019C49.2477 5.99315 49.2179 5.88671 49.1631 5.79278C49.1082 5.69885 49.0302 5.62058 48.9364 5.56546C48.8426 5.51035 48.7363 5.48024 48.6275 5.47802C48.5188 5.47581 48.4113 5.50155 48.3153 5.5528Z" fill="#E6E6E6"/>
<path d="M26.6624 129.631L22.3925 132.114C22.3925 132.114 24.548 125.242 23.3514 118.304C23.0619 116.673 22.4728 115.11 21.6139 113.694C21.2779 112.998 18.7004 108.678 20.9665 106.687C23.2326 104.695 28.5597 108.654 28.322 119.32C28.2064 122.813 27.6487 126.278 26.6624 129.631Z" fill="#2C2C2C"/>
<path opacity="0.5" d="M26.6624 129.631L22.3925 132.114C22.3925 132.114 24.548 125.242 23.3514 118.304C23.0619 116.673 22.4728 115.11 21.6139 113.694C21.2779 112.998 18.7004 108.678 20.9665 106.687C23.2326 104.695 28.5597 108.654 28.322 119.32C28.2064 122.813 27.6487 126.278 26.6624 129.631Z" fill="black"/>
<path d="M24.6794 130.938H24.6261C24.5885 130.923 24.5581 130.894 24.5413 130.858C24.5245 130.821 24.5225 130.779 24.5359 130.741C24.5359 130.696 26.1464 126.266 26.0603 119.136C25.9743 112.006 22.2698 108.273 22.233 108.236C22.2187 108.222 22.2074 108.205 22.1997 108.186C22.192 108.167 22.188 108.147 22.188 108.127C22.188 108.107 22.192 108.087 22.1997 108.068C22.2074 108.05 22.2187 108.033 22.233 108.019C22.2472 108.004 22.2642 107.993 22.2828 107.985C22.3014 107.978 22.3214 107.974 22.3416 107.974C22.3617 107.974 22.3817 107.978 22.4003 107.985C22.419 107.993 22.4359 108.004 22.4502 108.019C22.487 108.06 26.2816 111.907 26.3677 119.132C26.4537 126.356 24.8392 130.802 24.8228 130.848C24.8101 130.875 24.7899 130.898 24.7644 130.914C24.739 130.93 24.7094 130.938 24.6794 130.938Z" fill="white"/>
<path d="M23.3517 131.573L16.2912 135.724C16.2912 135.724 13.058 135.249 13.2998 132.204C13.5416 129.159 14.8611 128.442 13.2219 127.106C11.5828 125.77 11.173 125.68 11.2427 124.369C11.3123 123.058 12.2057 122.488 12.6195 121.968C13.0334 121.447 14.189 120.361 13.3776 118.78C12.5663 117.198 11.4681 115.673 13.1072 114.948C14.0825 114.514 15.7257 115.055 16.7952 116.214C17.8648 117.374 18.7827 118.202 19.8153 118.468C20.848 118.735 22.9993 118.759 22.9256 120.517C22.8518 122.275 22.3928 122.91 22.8231 123.697C23.6509 125.205 27.1217 126.008 23.3517 131.573Z" fill="#2C2C2C"/>
<path opacity="0.2" d="M23.3517 131.573L16.2912 135.724C16.2912 135.724 13.058 135.249 13.2998 132.204C13.5416 129.159 14.8611 128.442 13.2219 127.106C11.5828 125.77 11.173 125.68 11.2427 124.369C11.3123 123.058 12.2057 122.488 12.6195 121.968C13.0334 121.447 14.189 120.361 13.3776 118.78C12.5663 117.198 11.4681 115.673 13.1072 114.948C14.0825 114.514 15.7257 115.055 16.7952 116.214C17.8648 117.374 18.7827 118.202 19.8153 118.468C20.848 118.735 22.9993 118.759 22.9256 120.517C22.8518 122.275 22.3928 122.91 22.8231 123.697C23.6509 125.205 27.1217 126.008 23.3517 131.573Z" fill="black"/>
<path d="M20.4832 133.413C20.463 133.412 20.4433 133.407 20.4252 133.398C20.4071 133.389 20.3911 133.376 20.378 133.361C20.365 133.346 20.3552 133.328 20.3493 133.308C20.3434 133.289 20.3416 133.269 20.3438 133.249C20.3438 133.146 21.106 122.779 13.9144 115.985C13.8955 115.972 13.8797 115.956 13.8678 115.937C13.856 115.917 13.8485 115.896 13.8458 115.873C13.8431 115.851 13.8454 115.828 13.8524 115.807C13.8594 115.785 13.8709 115.766 13.8863 115.749C13.9016 115.733 13.9204 115.719 13.9413 115.711C13.9621 115.702 13.9846 115.698 14.0072 115.699C14.0297 115.7 14.0518 115.706 14.0718 115.717C14.0919 115.727 14.1095 115.741 14.1233 115.759C21.4216 122.66 20.6553 133.171 20.6471 133.273C20.6455 133.293 20.64 133.313 20.6309 133.331C20.6219 133.348 20.6093 133.364 20.5941 133.377C20.5789 133.39 20.5612 133.4 20.5422 133.406C20.5231 133.412 20.5031 133.414 20.4832 133.413Z" fill="white"/>
<path d="M19.2084 124.394C19.1686 124.39 19.1319 124.37 19.1059 124.34C19.08 124.309 19.0668 124.27 19.0691 124.23C19.1226 123.37 19.3533 122.53 19.7468 121.764C20.1403 120.997 20.6881 120.32 21.3557 119.776C21.372 119.764 21.3906 119.755 21.4102 119.751C21.4298 119.746 21.4501 119.746 21.47 119.749C21.4898 119.753 21.5088 119.76 21.5257 119.771C21.5427 119.782 21.5573 119.796 21.5688 119.812C21.5813 119.828 21.5904 119.847 21.5955 119.866C21.6007 119.886 21.6017 119.906 21.5987 119.926C21.5956 119.946 21.5884 119.965 21.5777 119.982C21.5669 119.999 21.5527 120.014 21.536 120.025C20.9073 120.546 20.3912 121.189 20.0192 121.915C19.6472 122.642 19.4271 123.436 19.3723 124.25C19.3713 124.271 19.3662 124.29 19.3574 124.309C19.3485 124.327 19.3361 124.343 19.3208 124.357C19.3055 124.37 19.2877 124.38 19.2684 124.387C19.2491 124.393 19.2287 124.395 19.2084 124.394Z" fill="white"/>
<path d="M19.7292 126.189C19.7078 126.189 19.6866 126.184 19.6669 126.176C19.6471 126.167 19.6293 126.155 19.6145 126.139C19.6145 126.119 17.8114 124.201 13.7464 124.758C13.7265 124.761 13.7062 124.76 13.6867 124.755C13.6672 124.75 13.6489 124.741 13.6329 124.729C13.6168 124.717 13.6034 124.702 13.5933 124.684C13.5833 124.667 13.5768 124.647 13.5743 124.627C13.5696 124.587 13.5806 124.547 13.6051 124.515C13.6296 124.483 13.6655 124.461 13.7054 124.455C17.9385 123.873 19.7661 125.848 19.8522 125.935C19.8804 125.964 19.8963 126.003 19.8963 126.043C19.8963 126.084 19.8804 126.123 19.8522 126.152C19.8355 126.166 19.8159 126.177 19.7947 126.183C19.7735 126.19 19.7512 126.192 19.7292 126.189Z" fill="white"/>
<path d="M151.322 34.5121C151.322 34.4588 151.322 34.4014 151.322 34.3441C151.322 34.2867 151.322 34.1433 151.289 34.0408C151.257 33.9384 151.269 33.9015 151.261 33.8318C151.253 33.7622 151.232 33.6597 151.216 33.5778C151.199 33.4958 151.187 33.4262 151.171 33.3483C151.154 33.2704 151.134 33.1967 151.117 33.1229C151.101 33.0492 151.076 32.9631 151.052 32.8811L150.99 32.6804C150.962 32.5984 150.937 32.5123 150.904 32.4304C150.872 32.3484 150.863 32.3156 150.839 32.2542C150.814 32.1927 150.773 32.078 150.736 31.9919L150.675 31.8567C150.011 30.3962 148.906 29.1808 147.515 28.3817L98.9645 0.348575C98.5758 0.121226 98.1321 0.00499247 97.6819 0.0125538C96.2767 0.0117565 94.8975 0.391242 93.6906 1.11077L93.5144 1.21321C93.0137 1.51255 92.5788 1.9101 92.2358 2.38194C91.8929 2.85379 91.649 3.39015 91.5187 3.95875C91.4412 4.20402 91.4011 4.45961 91.3999 4.71685V4.93403V109.723C91.4004 111.063 91.7536 112.38 92.424 113.54C93.0944 114.7 94.0584 115.664 95.2191 116.333L143.774 144.366C144.161 144.594 144.603 144.712 145.053 144.706H146.007C146.788 144.706 147.554 144.495 148.224 144.096L150.163 142.944C150.521 142.731 150.817 142.427 151.022 142.065C151.228 141.702 151.335 141.292 151.335 140.875V139.994V34.9956C151.335 34.8358 151.33 34.6801 151.322 34.5121ZM93.5308 2.24586C93.4734 2.24586 93.4201 2.27045 93.3628 2.28274C93.3996 2.27045 93.4529 2.25406 93.5103 2.24586H93.5308ZM92.1293 2.99986C92.1174 3.00973 92.1064 3.02071 92.0965 3.03265C92.0931 3.02192 92.0903 3.01096 92.0883 2.99986H92.1293ZM145.401 144.682C145.326 144.693 145.251 144.7 145.176 144.702C145.23 144.698 145.285 144.691 145.339 144.682H145.401ZM145.786 144.616C145.873 144.592 145.958 144.562 146.04 144.526C145.937 144.56 145.832 144.585 145.725 144.6L145.786 144.616ZM146.606 144.186C146.679 144.129 146.749 144.071 146.819 144.006C146.696 144.055 146.634 144.112 146.561 144.17L146.606 144.186ZM146.073 144.506C146.143 144.473 146.212 144.44 146.282 144.399C146.167 144.424 146.098 144.457 146.028 144.502L146.073 144.506ZM147.548 142.535C147.554 142.43 147.554 142.324 147.548 142.219C147.543 142.319 147.532 142.419 147.515 142.518L147.548 142.535ZM146.835 143.985C146.897 143.924 146.954 143.862 147.011 143.793C146.909 143.846 146.852 143.907 146.79 143.969L146.835 143.985ZM147.233 143.477C147.278 143.391 147.327 143.305 147.364 143.215C147.282 143.272 147.233 143.375 147.188 143.461L147.233 143.477ZM147.368 143.207C147.406 143.119 147.438 143.029 147.462 142.936C147.422 143.024 147.376 143.109 147.323 143.19L147.368 143.207ZM147.487 142.85C147.487 142.776 147.52 142.703 147.532 142.629C147.474 142.686 147.458 142.76 147.442 142.834L147.487 142.85Z" fill="#263238"/>
<path d="M147.515 37.1962C147.516 35.8563 147.165 34.5398 146.496 33.3788C145.827 32.2178 144.864 31.2534 143.704 30.5824L95.1492 2.55329C94.8265 2.36646 94.4662 2.25418 94.0945 2.22467C93.7228 2.19517 93.3492 2.24919 93.0011 2.38277C92.653 2.51635 92.3392 2.72612 92.0827 2.9967C91.8262 3.26728 91.6334 3.59182 91.5186 3.94654C91.6488 3.37795 91.8927 2.84158 92.2357 2.36974C92.5786 1.8979 93.0135 1.50034 93.5142 1.20101L93.6904 1.09856C94.8973 0.379034 96.2765 -0.00045058 97.6817 0.000346741C98.1319 -0.00721456 98.5756 0.109019 98.9643 0.336368L147.515 28.3818C148.675 29.0527 149.639 30.0169 150.308 31.1779C150.978 32.3388 151.331 33.6555 151.33 34.9957V139.994C151.331 140.433 151.216 140.865 150.997 141.245C150.777 141.625 150.462 141.941 150.082 142.161C149.702 142.381 149.27 142.497 148.831 142.497C148.392 142.497 147.961 142.381 147.581 142.162L147.519 142.125L147.515 37.1962Z" fill="#37484F"/>
<path d="M95.2191 116.333L143.774 144.366C144.154 144.586 144.585 144.701 145.024 144.701C145.462 144.701 145.893 144.586 146.273 144.367C146.653 144.147 146.969 143.832 147.188 143.452C147.408 143.072 147.523 142.641 147.524 142.203V37.1961C147.524 35.8554 147.171 34.5383 146.501 33.3772C145.83 32.2162 144.866 31.2522 143.704 30.5822L95.1494 2.55315C94.7695 2.33381 94.3385 2.21831 93.8998 2.21826C93.4612 2.21821 93.0302 2.33361 92.6502 2.55287C92.2703 2.77213 91.9547 3.08752 91.7352 3.46736C91.5157 3.8472 91.4001 4.27811 91.3999 4.7168V109.723C91.4004 111.063 91.7536 112.38 92.424 113.54C93.0944 114.7 94.0584 115.664 95.2191 116.333Z" fill="#455A64"/>
<path d="M147.515 142.203V37.1961C147.515 36.0526 147.257 34.9237 146.761 33.8933L150.515 31.5698C151.052 32.6321 151.332 33.8054 151.334 34.9956V140.875C151.335 141.292 151.228 141.702 151.022 142.065C150.817 142.427 150.52 142.731 150.163 142.944L148.224 144.092C147.554 144.491 146.788 144.702 146.007 144.702H145.057C145.712 144.691 146.337 144.422 146.797 143.955C147.256 143.487 147.514 142.858 147.515 142.203Z" fill="#253239"/>
<path d="M96.8868 12.646V100.901C96.8871 102.084 97.1989 103.247 97.7909 104.272C98.3829 105.297 99.2342 106.148 100.259 106.74L143.135 131.495C143.458 131.685 143.825 131.786 144.2 131.79C144.076 132.076 143.892 132.332 143.662 132.542C143.432 132.752 143.16 132.91 142.864 133.008C142.568 133.105 142.255 133.139 141.945 133.107C141.635 133.075 141.335 132.978 141.065 132.823L98.1899 108.068C97.1648 107.476 96.3135 106.625 95.7215 105.6C95.1296 104.575 94.8177 103.412 94.8174 102.228V14.8465C94.8174 14.2852 95.0315 13.745 95.416 13.3362C95.8005 12.9273 96.3265 12.6804 96.8868 12.646Z" fill="#37484F"/>
<path d="M144.2 131.798C143.825 131.795 143.458 131.693 143.135 131.503L100.259 106.74C99.2341 106.148 98.3828 105.297 97.7909 104.272C97.1989 103.247 96.8871 102.084 96.8867 100.901V12.646C97.313 12.6504 97.733 12.7498 98.1161 12.9369L140.992 37.6919C142.017 38.2834 142.868 39.1345 143.46 40.1595C144.052 41.1846 144.364 42.3475 144.364 43.5312V130.913C144.364 131.219 144.301 131.522 144.18 131.802L144.2 131.798Z" fill="#2C2C2C"/>
<g opacity="0.5">
<path d="M144.2 131.798C143.825 131.795 143.458 131.693 143.135 131.503L100.259 106.74C99.2341 106.148 98.3828 105.297 97.7909 104.272C97.1989 103.247 96.8871 102.084 96.8867 100.901V12.646C97.313 12.6504 97.733 12.7498 98.1161 12.9369L140.992 37.6919C142.017 38.2834 142.868 39.1345 143.46 40.1595C144.052 41.1846 144.364 42.3475 144.364 43.5312V130.913C144.364 131.219 144.301 131.522 144.18 131.802L144.2 131.798Z" fill="white"/>
</g>
<path d="M126.256 24.7553C126.273 25.0199 126.352 25.2769 126.485 25.5059C126.619 25.735 126.804 25.9297 127.026 26.0748C127.436 26.3207 127.797 26.124 127.797 25.6281C127.78 25.3634 127.701 25.1063 127.568 24.8772C127.434 24.6482 127.248 24.4535 127.026 24.3086C126.616 24.0628 126.256 24.2635 126.256 24.7553Z" fill="#253239"/>
<path d="M123.383 23.0955C123.399 23.3638 123.477 23.6248 123.611 23.8574C123.746 24.0901 123.933 24.2881 124.158 24.4355C124.568 24.6813 124.928 24.4806 124.928 23.9888C124.913 23.7208 124.836 23.4599 124.702 23.2272C124.569 22.9945 124.382 22.7964 124.158 22.6488C123.748 22.3866 123.383 22.6037 123.383 23.0955Z" fill="#253239"/>
<path d="M111.791 17.2931L121.129 22.6858C121.498 22.8989 121.797 22.6858 121.797 22.1818C121.793 21.9314 121.731 21.6853 121.615 21.4633C121.499 21.2414 121.333 21.0496 121.129 20.9033L111.791 15.5106C111.422 15.2975 111.123 15.5106 111.123 16.0187C111.127 16.2685 111.189 16.514 111.305 16.7353C111.421 16.9566 111.587 17.1477 111.791 17.2931Z" fill="#253239"/>
<path d="M113.372 119.648C113.608 119.658 113.836 119.729 114.036 119.853L118.503 122.435C119.568 123.049 120.47 124.783 120.47 126.221C120.47 127.139 120.109 127.729 119.548 127.729C119.312 127.719 119.083 127.647 118.884 127.52L114.417 124.943C113.352 124.328 112.45 122.595 112.45 121.152C112.45 120.238 112.811 119.648 113.372 119.648ZM113.372 119.267C112.606 119.267 112.069 119.972 112.069 121.152C112.069 122.742 113.036 124.586 114.225 125.274L118.696 127.852C118.952 128.012 119.246 128.101 119.548 128.11C120.314 128.11 120.851 127.405 120.851 126.221C120.851 124.635 119.884 122.791 118.696 122.103L114.225 119.525C113.969 119.365 113.674 119.276 113.372 119.267Z" fill="#253239"/>
<path d="M138.054 49.7149V148.64C138.054 150.435 137.394 151.636 136.39 152.033H136.361L132.087 154.377L132.108 150.57L132.583 47.9897L137.091 45.6826C137.698 46.9419 138.026 48.3172 138.054 49.7149Z" fill="#E6E6E6"/>
<path d="M131.874 154.746L131.899 150.591L132.374 47.8874L137.189 45.4287L137.279 45.6213C137.893 46.9021 138.227 48.2991 138.258 49.7191V148.64C138.258 150.443 137.586 151.783 136.464 152.222L131.874 154.746ZM132.784 48.1374L132.308 150.583L132.288 154.037L136.296 151.845C137.275 151.46 137.849 150.263 137.849 148.636V49.715C137.822 48.423 137.532 47.1499 136.996 45.9737L132.784 48.1374Z" fill="#E6E6E6"/>
<path d="M137.094 45.6949L132.587 48.002L84.2613 19.8951L81.0322 18.0183L85.4907 15.5063L85.6382 15.4203C86.3512 15.0105 87.2773 15.0105 88.3059 15.6129L134.046 42.0233C135.255 42.7363 136.357 44.105 137.094 45.6949Z" fill="#E0E0E0"/>
<path d="M132.579 48.2028C132.543 48.203 132.508 48.1946 132.477 48.1782L80.9301 18.1945C80.8991 18.1757 80.8734 18.1492 80.8554 18.1177C80.8375 18.0861 80.8279 18.0505 80.8276 18.0142C80.8278 17.978 80.8378 17.9424 80.8566 17.9114C80.8754 17.8804 80.9022 17.855 80.9342 17.838L85.4828 15.2728L85.5155 15.2482C86.3351 14.7647 87.3391 14.8384 88.384 15.4408L134.124 41.8471C135.353 42.5519 136.492 43.9247 137.275 45.6089C137.287 45.6323 137.294 45.6578 137.296 45.6839C137.298 45.71 137.294 45.7362 137.286 45.7611C137.278 45.7859 137.264 45.8088 137.247 45.8284C137.23 45.848 137.209 45.8639 137.185 45.8753L132.677 48.1864C132.647 48.2006 132.613 48.2063 132.579 48.2028ZM81.4464 18.0183L132.587 47.7685L136.824 45.6007C136.203 44.2137 135.196 43.0345 133.923 42.2036L88.1832 15.7973C87.2817 15.2728 86.4212 15.199 85.7573 15.5842L85.7245 15.6047L85.5975 15.6826L81.4464 18.0183Z" fill="#E0E0E0"/>
<path d="M133.624 52.2024V150.681C133.624 152.234 133.128 153.349 132.341 153.873L132.083 154.013C131.395 154.336 130.534 154.267 129.6 153.726L107.472 140.961L83.8436 126.742C82.6328 125.984 81.6303 124.936 80.9269 123.693C80.2235 122.451 79.8415 121.052 79.8154 119.624V21.1573C79.8154 19.6575 80.2744 18.5716 81.0161 18.0266C81.1422 17.9316 81.2799 17.8531 81.4259 17.793C82.0979 17.5062 82.938 17.5922 83.8436 18.1126L129.583 44.9656C130.873 45.6403 131.916 46.7062 132.563 48.0103C133.225 49.3108 133.588 50.7433 133.624 52.2024Z" fill="#FAFAFA"/>
<path d="M83.8599 126.742C93.2849 132.356 117.757 146.968 129.874 154.267C130.236 154.485 130.65 154.603 131.072 154.608C131.495 154.614 131.911 154.507 132.279 154.298C132.646 154.09 132.952 153.787 133.164 153.421C133.376 153.056 133.486 152.64 133.484 152.218V50.9607C133.483 49.8077 133.179 48.6754 132.604 47.6761C132.029 46.6768 131.202 45.8455 130.206 45.2647L83.6386 17.9651C83.2774 17.7541 82.8669 17.642 82.4486 17.6402C82.0303 17.6383 81.6188 17.7467 81.2557 17.9544C80.8926 18.1621 80.5906 18.4619 80.3802 18.8234C80.1698 19.185 80.0584 19.5956 80.0571 20.014V120.038C80.0547 121.389 80.404 122.718 81.0708 123.893C81.7375 125.069 82.6988 126.05 83.8599 126.742Z" fill="#FAFAFA"/>
<path d="M83.7572 126.918C91.3136 131.426 98.8686 135.933 106.422 140.441C110.834 143.074 115.246 145.713 119.658 148.358L125.571 151.906L128.206 153.488C128.993 153.964 129.845 154.66 130.771 154.783C131.137 154.824 131.506 154.787 131.856 154.676C132.207 154.565 132.53 154.382 132.805 154.138C133.08 153.895 133.3 153.596 133.453 153.262C133.605 152.927 133.686 152.565 133.689 152.197C133.689 152.021 133.689 151.845 133.689 151.665V58.3983C133.689 55.9683 133.689 53.5383 133.689 51.1083C133.697 49.8769 133.379 48.6654 132.768 47.5961C132.157 46.5269 131.275 45.6379 130.21 45.019L127.026 43.1463L111.774 34.2089L93.6576 23.6161C90.3793 21.7024 87.142 19.7518 83.8556 17.8791C83.4516 17.6301 82.9877 17.4952 82.5132 17.4888C82.0387 17.4823 81.5713 17.6045 81.1607 17.8424C80.7501 18.0803 80.4116 18.4249 80.1811 18.8398C79.9507 19.2546 79.837 19.7242 79.852 20.1985C79.852 21.0181 79.852 21.8007 79.852 22.5998V111.817C79.852 114.465 79.852 117.115 79.852 119.767C79.8254 121.196 80.1715 122.607 80.8564 123.86C81.5412 125.114 82.541 126.168 83.7572 126.918C83.9826 127.057 84.1875 126.701 83.9621 126.561C81.4707 125.033 80.2741 122.464 80.2741 119.595V27.804C80.2741 25.2839 80.2741 22.7596 80.2741 20.2395C80.2525 19.8926 80.3078 19.5453 80.436 19.2222C80.5643 18.8992 80.7622 18.6085 81.0158 18.3709C81.8722 17.6374 82.9213 17.7685 83.8187 18.293L87.4248 20.4034L102.849 29.4637L120.543 39.8311C123.703 41.6833 126.87 43.5192 130.022 45.3837C131.033 45.9791 131.868 46.833 132.441 47.8578C133.013 48.8826 133.303 50.0412 133.279 51.2149V151.509C133.279 151.73 133.279 151.947 133.279 152.165C133.281 152.563 133.174 152.955 132.971 153.298C132.768 153.641 132.475 153.923 132.125 154.113C131.774 154.304 131.379 154.396 130.981 154.379C130.582 154.363 130.196 154.239 129.862 154.021C126.145 151.829 122.465 149.575 118.761 147.358C110.196 142.227 101.629 137.105 93.0593 131.991L83.9621 126.561C83.7367 126.426 83.5319 126.783 83.7572 126.918Z" fill="#EBEBEB"/>
<path d="M126.768 91.1275C127.334 91.4539 127.803 91.9234 128.13 92.4888C128.456 93.0542 128.628 93.6955 128.629 94.3484C128.628 94.6417 128.551 94.9299 128.404 95.1838C128.257 95.4378 128.046 95.6487 127.792 95.7953C127.538 95.9418 127.25 96.019 126.956 96.0189C126.663 96.0188 126.375 95.9416 126.121 95.7949L86.7816 73.0766C86.2172 72.7493 85.7487 72.2796 85.4229 71.7143C85.0971 71.1491 84.9255 70.5081 84.9253 69.8557C84.9247 69.5625 85.0015 69.2743 85.1478 69.0201C85.2941 68.766 85.5049 68.555 85.7588 68.4083C86.0127 68.2616 86.3008 68.1844 86.594 68.1846C86.8873 68.1847 87.1753 68.2622 87.4291 68.4092L126.768 91.1275Z" fill="#2C2C2C"/>
<path d="M126.428 86.3496L86.6792 63.4018C86.1455 63.0927 85.7025 62.6487 85.3946 62.1143C85.0868 61.5798 84.9249 60.9738 84.9253 60.3571V35.4301C84.9257 35.1732 84.9936 34.9209 85.1222 34.6985C85.2507 34.4761 85.4355 34.2913 85.6578 34.1627C85.8802 34.0341 86.1325 33.9661 86.3894 33.9656C86.6463 33.9651 86.8988 34.032 87.1217 34.1598L126.871 57.1075C127.405 57.4161 127.849 57.8599 128.157 58.3944C128.466 58.9288 128.628 59.5351 128.629 60.1522V85.0833C128.627 85.34 128.557 85.5917 128.428 85.8134C128.299 86.0351 128.114 86.2191 127.891 86.3471C127.669 86.4751 127.417 86.5427 127.16 86.5431C126.903 86.5436 126.651 86.4768 126.428 86.3496Z" fill="#2C2C2C"/>
<path opacity="0.3" d="M126.428 86.3496L86.6792 63.4018C86.1455 63.0927 85.7025 62.6487 85.3946 62.1143C85.0868 61.5798 84.9249 60.9738 84.9253 60.3571V35.4301C84.9257 35.1732 84.9936 34.9209 85.1222 34.6985C85.2507 34.4761 85.4355 34.2913 85.6578 34.1627C85.8802 34.0341 86.1325 33.9661 86.3894 33.9656C86.6463 33.9651 86.8988 34.032 87.1217 34.1598L126.871 57.1075C127.405 57.4161 127.849 57.8599 128.157 58.3944C128.466 58.9288 128.628 59.5351 128.629 60.1522V85.0833C128.627 85.34 128.557 85.5917 128.428 85.8134C128.299 86.0351 128.114 86.2191 127.891 86.3471C127.669 86.4751 127.417 86.5427 127.16 86.5431C126.903 86.5436 126.651 86.4768 126.428 86.3496Z" fill="white"/>
<path d="M126.428 117.378L86.6792 94.4306C86.146 94.1208 85.7035 93.6767 85.3957 93.1424C85.0879 92.6081 84.9257 92.0025 84.9253 91.3859V79.6538C84.9252 79.3968 84.9929 79.1443 85.1214 78.9217C85.25 78.6991 85.4349 78.5143 85.6576 78.386C85.8803 78.2576 86.1328 78.1901 86.3899 78.1904C86.6469 78.1907 86.8993 78.2587 87.1217 78.3876L126.871 101.335C127.404 101.645 127.848 102.089 128.156 102.623C128.465 103.157 128.628 103.763 128.629 104.38V116.104C128.629 116.362 128.562 116.615 128.433 116.839C128.305 117.062 128.12 117.248 127.897 117.377C127.674 117.507 127.42 117.575 127.162 117.575C126.905 117.575 126.651 117.507 126.428 117.378Z" fill="#2C2C2C"/>
<path d="M126.428 138.765L86.6792 115.817C86.146 115.507 85.7035 115.063 85.3957 114.529C85.088 113.995 84.9257 113.389 84.9253 112.772V101.04C84.9245 100.783 84.9916 100.53 85.1199 100.307C85.2481 100.084 85.433 99.8982 85.6558 99.7693C85.8786 99.6404 86.1315 99.5726 86.3888 99.5728C86.6462 99.5729 86.899 99.6409 87.1217 99.7699L126.871 122.718C127.404 123.027 127.848 123.471 128.156 124.005C128.465 124.539 128.628 125.145 128.629 125.762V137.494C128.628 137.752 128.561 138.005 128.432 138.228C128.303 138.451 128.118 138.636 127.895 138.765C127.672 138.894 127.419 138.961 127.161 138.961C126.904 138.961 126.651 138.894 126.428 138.765Z" fill="#2C2C2C"/>
<path d="M128.625 147.14V153.517C120.212 148.456 106.943 140.518 96.3993 134.228L94.3299 132.999L89.6502 130.204L87.5357 128.93L84.9131 127.368V122.414C84.9131 122.157 84.9809 121.904 85.1097 121.681C85.2385 121.458 85.4237 121.273 85.6467 121.144C85.8697 121.015 86.1226 120.947 86.3801 120.947C86.6376 120.947 86.8906 121.015 87.1136 121.144L126.862 144.092C127.399 144.399 127.845 144.843 128.154 145.379C128.464 145.914 128.626 146.522 128.625 147.14Z" fill="#2C2C2C"/>
<path d="M96.3992 134.228L94.3298 132.999L89.6501 130.204L87.5356 128.93C87.6668 126.328 89.5846 125.312 91.9654 126.676C94.3462 128.041 96.3419 131.421 96.3992 134.228Z" fill="#FAFAFA"/>
<path d="M94.334 132.913C94.3361 132.939 94.3361 132.965 94.334 132.991L89.6543 130.196C89.6543 129.459 90.1829 129.168 90.8263 129.537C91.1662 129.759 91.4491 130.058 91.652 130.409C91.8549 130.761 91.9721 131.155 91.9942 131.561C91.9942 130.815 92.5187 130.516 93.1661 130.885C93.5059 131.108 93.7886 131.408 93.9914 131.76C94.1943 132.112 94.3116 132.507 94.334 132.913Z" fill="#37474F"/>
<path d="M124.813 147.78C125.197 148.002 125.515 148.32 125.736 148.703C125.958 149.087 126.075 149.521 126.076 149.964C126.075 150.163 126.022 150.358 125.922 150.529C125.822 150.701 125.679 150.844 125.507 150.943C125.335 151.042 125.14 151.094 124.941 151.094C124.742 151.094 124.547 151.042 124.375 150.943L100.132 136.511C99.7482 136.29 99.4293 135.972 99.2077 135.588C98.9861 135.205 98.8696 134.77 98.8701 134.327C98.8701 134.128 98.9224 133.933 99.0217 133.761C99.1209 133.589 99.2637 133.447 99.4357 133.347C99.6076 133.248 99.8026 133.196 100.001 133.196C100.2 133.196 100.395 133.248 100.567 133.347L124.813 147.78Z" fill="white"/>
<path d="M123.215 149.173C123.114 149.173 123.015 149.146 122.928 149.095L99.9807 135.4C99.8651 135.32 99.7843 135.198 99.7547 135.06C99.725 134.922 99.7487 134.779 99.8209 134.658C99.8931 134.536 100.008 134.447 100.144 134.408C100.279 134.369 100.424 134.382 100.55 134.445L123.498 148.14C123.561 148.177 123.616 148.227 123.66 148.285C123.704 148.344 123.735 148.41 123.753 148.481C123.771 148.552 123.775 148.626 123.764 148.698C123.753 148.77 123.728 148.84 123.691 148.902C123.642 148.985 123.573 149.054 123.489 149.102C123.406 149.149 123.311 149.174 123.215 149.173Z" fill="#263238"/>
<path d="M130.219 45.2647L83.6386 17.9651C83.2774 17.7541 82.8669 17.642 82.4486 17.6402C82.0303 17.6383 81.6188 17.7467 81.2557 17.9544C80.8926 18.1621 80.5906 18.4619 80.3802 18.8234C80.1698 19.185 80.0584 19.5956 80.0571 20.014V24.4355L133.484 55.2511V50.9607C133.484 49.8089 133.182 48.6773 132.609 47.6782C132.036 46.679 131.212 45.847 130.219 45.2647Z" fill="#EBEBEB"/>
<path d="M99.903 79.0063C99.7589 79.0074 99.6172 78.9692 99.4933 78.8956L86.5606 71.4294C86.3822 71.316 86.2545 71.1381 86.2042 70.9328C86.1539 70.7274 86.1849 70.5106 86.2907 70.3276C86.3965 70.1446 86.5689 70.0096 86.7719 69.9507C86.9749 69.8918 87.1928 69.9136 87.3801 70.0116L100.313 77.4778C100.469 77.5682 100.59 77.7074 100.659 77.8739C100.728 78.0404 100.74 78.2249 100.693 78.399C100.647 78.573 100.544 78.7267 100.401 78.8365C100.258 78.9463 100.083 79.006 99.903 79.0063Z" fill="#263238"/>
<path d="M108.275 83.8536C108.131 83.8534 107.989 83.8152 107.865 83.743L99.4929 78.9076C99.395 78.8563 99.3084 78.7858 99.2384 78.7003C99.1684 78.6147 99.1165 78.5159 99.0857 78.4097C99.0549 78.3036 99.0459 78.1923 99.0592 78.0826C99.0725 77.9728 99.1079 77.8669 99.1632 77.7712C99.2186 77.6755 99.2927 77.592 99.3811 77.5257C99.4695 77.4594 99.5704 77.4116 99.6778 77.3853C99.7852 77.3591 99.8967 77.3547 100.006 77.3727C100.115 77.3906 100.219 77.4304 100.312 77.4897L108.684 82.3252C108.84 82.4156 108.962 82.5548 109.031 82.7213C109.099 82.8878 109.111 83.0723 109.065 83.2463C109.018 83.4203 108.915 83.5741 108.773 83.6839C108.63 83.7937 108.455 83.8533 108.275 83.8536Z" fill="#37474F"/>
<path d="M121.978 91.7543C121.834 91.7541 121.693 91.7159 121.568 91.6437L107.865 83.7308C107.767 83.6796 107.68 83.6091 107.61 83.5235C107.54 83.438 107.489 83.3391 107.458 83.233C107.427 83.1268 107.418 83.0155 107.431 82.9058C107.445 82.7961 107.48 82.6902 107.535 82.5945C107.591 82.4988 107.665 82.4153 107.753 82.3489C107.842 82.2826 107.943 82.2349 108.05 82.2086C108.157 82.1823 108.269 82.178 108.378 82.1959C108.487 82.2139 108.591 82.2537 108.685 82.313L122.392 90.2218C122.55 90.3112 122.673 90.4506 122.744 90.6179C122.814 90.7853 122.826 90.9712 122.779 91.1465C122.733 91.3218 122.629 91.4766 122.484 91.5866C122.34 91.6966 122.163 91.7556 121.982 91.7543H121.978Z" fill="#E0E0E0"/>
<path d="M126.321 94.2621C126.177 94.2618 126.036 94.2237 125.912 94.1515L121.572 91.6395C121.479 91.5857 121.397 91.514 121.331 91.4286C121.265 91.3431 121.217 91.2456 121.189 91.1415C121.161 91.0374 121.154 90.9289 121.168 90.822C121.182 90.7152 121.217 90.6121 121.271 90.5187C121.325 90.4254 121.396 90.3435 121.482 90.2779C121.567 90.2122 121.665 90.164 121.769 90.136C121.873 90.1081 121.981 90.1009 122.088 90.1149C122.195 90.1288 122.298 90.1637 122.392 90.2175L126.731 92.7254C126.889 92.8149 127.013 92.9542 127.083 93.1216C127.153 93.2889 127.166 93.4748 127.119 93.6502C127.072 93.8255 126.968 93.9803 126.824 94.0903C126.68 94.2003 126.503 94.2593 126.321 94.258V94.2621Z" fill="white"/>
<path d="M83.7572 126.918C91.3136 131.426 98.8686 135.933 106.422 140.441C110.834 143.074 115.246 145.713 119.658 148.358L125.571 151.906L128.206 153.488C128.993 153.964 129.845 154.66 130.771 154.783C131.137 154.824 131.506 154.787 131.856 154.676C132.207 154.565 132.53 154.382 132.805 154.138C133.08 153.895 133.3 153.596 133.453 153.262C133.605 152.927 133.686 152.565 133.689 152.197C133.689 152.021 133.689 151.845 133.689 151.665V58.3983C133.689 55.9683 133.689 53.5383 133.689 51.1083C133.697 49.8769 133.379 48.6654 132.768 47.5961C132.157 46.5269 131.275 45.6379 130.21 45.019L127.026 43.1463L111.774 34.2089L93.6576 23.6161C90.3793 21.7024 87.142 19.7518 83.8556 17.8791C83.4516 17.6301 82.9877 17.4952 82.5132 17.4888C82.0387 17.4823 81.5713 17.6045 81.1607 17.8424C80.7501 18.0803 80.4116 18.4249 80.1811 18.8398C79.9507 19.2546 79.837 19.7242 79.852 20.1985C79.852 21.0181 79.852 21.8007 79.852 22.5998V111.817C79.852 114.465 79.852 117.115 79.852 119.767C79.8254 121.196 80.1715 122.607 80.8564 123.86C81.5412 125.114 82.541 126.168 83.7572 126.918C83.9826 127.057 84.1875 126.701 83.9621 126.561C81.4707 125.033 80.2741 122.464 80.2741 119.595V27.804C80.2741 25.2839 80.2741 22.7596 80.2741 20.2395C80.2525 19.8926 80.3078 19.5453 80.436 19.2222C80.5643 18.8992 80.7622 18.6085 81.0158 18.3709C81.8722 17.6374 82.9213 17.7685 83.8187 18.293L87.4248 20.4034L102.849 29.4637L120.543 39.8311C123.703 41.6833 126.87 43.5192 130.022 45.3837C131.033 45.9791 131.868 46.833 132.441 47.8578C133.013 48.8826 133.303 50.0412 133.279 51.2149V151.509C133.279 151.73 133.279 151.947 133.279 152.165C133.281 152.563 133.174 152.955 132.971 153.298C132.768 153.641 132.475 153.923 132.125 154.113C131.774 154.304 131.379 154.396 130.981 154.379C130.582 154.363 130.196 154.239 129.862 154.021C126.145 151.829 122.465 149.575 118.761 147.358C110.196 142.227 101.629 137.105 93.0593 131.991L83.9621 126.561C83.7367 126.426 83.5319 126.783 83.7572 126.918Z" fill="#EBEBEB"/>
<path d="M98.0466 65.8523L95.0552 64.1271V54.6038L98.0466 56.3289V65.8523Z" fill="#2C2C2C"/>
<path d="M106.554 70.7655L103.562 69.0403V62.324L106.554 64.0532V70.7655Z" fill="#2C2C2C"/>
<path d="M102.333 68.3273L99.3413 66.6021V52.8867L102.333 54.616V68.3273Z" fill="#2C2C2C"/>
<path d="M115.262 75.7934L112.274 74.0682V60.3528L115.262 62.0821V75.7934Z" fill="#2C2C2C"/>
<path d="M119.659 78.3342L116.671 76.605V60.2383L119.659 61.9635V78.3342Z" fill="#2C2C2C"/>
<path d="M110.869 73.2568L107.877 71.5316V61.3813L110.869 63.1106V73.2568Z" fill="#2C2C2C"/>
<path d="M124.158 81.0716C124.122 81.0723 124.086 81.0623 124.056 81.0429L90.4535 61.6438C90.4274 61.632 90.404 61.6148 90.385 61.5934C90.3659 61.572 90.3515 61.5469 90.3428 61.5196C90.334 61.4923 90.3311 61.4634 90.3342 61.4349C90.3373 61.4064 90.3463 61.3789 90.3608 61.3541C90.3752 61.3293 90.3946 61.3078 90.4179 61.291C90.4411 61.2742 90.4676 61.2625 90.4956 61.2566C90.5237 61.2507 90.5527 61.2507 90.5807 61.2567C90.6088 61.2627 90.6352 61.2745 90.6584 61.2914L124.261 80.6864C124.307 80.7145 124.341 80.7598 124.355 80.8127C124.369 80.8655 124.361 80.9217 124.334 80.9691C124.316 81.0001 124.291 81.0258 124.26 81.0438C124.229 81.0618 124.194 81.0713 124.158 81.0716Z" fill="#2C2C2C"/>
<path d="M113.639 57.8983L100.722 50.6165L91.109 52.7515L91.0229 52.3499L100.788 50.1821L100.858 50.2231L113.737 57.4844L119.572 57.2877L119.585 57.6934L113.639 57.8983Z" fill="#FAFAFA"/>
<path d="M119.888 58.0664C119.888 58.5991 119.515 58.8163 119.068 58.55C118.824 58.3912 118.621 58.1772 118.475 57.9251C118.329 57.6731 118.244 57.3901 118.228 57.0993C118.228 56.5666 118.605 56.3494 119.068 56.6158C119.309 56.7763 119.509 56.9912 119.651 57.2433C119.793 57.4953 119.874 57.7773 119.888 58.0664Z" fill="#FAFAFA"/>
<path d="M91.9038 53.0342C91.9038 53.5669 91.5268 53.7841 91.0637 53.5177C90.8237 53.3563 90.6247 53.1411 90.4825 52.8893C90.3402 52.6375 90.2586 52.356 90.2441 52.0671C90.2441 51.5344 90.6211 51.3172 91.0637 51.5836C91.3079 51.7423 91.5113 51.9563 91.6572 52.2084C91.8032 52.4604 91.8877 52.7434 91.9038 53.0342Z" fill="#FAFAFA"/>
<path d="M101.595 50.8828C101.595 51.4196 101.218 51.6327 100.755 51.3664C100.514 51.2059 100.315 50.9909 100.172 50.7389C100.03 50.4869 99.9487 50.2049 99.9355 49.9157C99.9355 49.383 100.308 49.1658 100.755 49.4322C100.999 49.5909 101.203 49.805 101.349 50.057C101.495 50.3091 101.579 50.592 101.595 50.8828Z" fill="#FAFAFA"/>
<path d="M114.524 58.177C114.524 58.7097 114.151 58.9269 113.704 58.6606C113.464 58.4993 113.265 58.2842 113.123 58.0324C112.98 57.7805 112.899 57.4989 112.885 57.2099C112.885 56.6731 113.258 56.46 113.704 56.7264C113.945 56.8869 114.145 57.1018 114.287 57.3539C114.43 57.6059 114.511 57.8879 114.524 58.177Z" fill="#FAFAFA"/>
<path d="M96.4034 91.9838C96.4034 94.8154 94.416 95.9628 91.9614 94.549C89.5068 93.1353 87.5234 89.689 87.5234 86.8574C87.5234 84.0258 89.5109 82.8784 91.9614 84.2963C94.4119 85.7141 96.4034 89.1522 96.4034 91.9838Z" fill="#FAFAFA"/>
<path d="M96.4034 113.624C96.4034 116.46 94.416 117.607 91.9614 116.19C89.5068 114.772 87.5234 111.33 87.5234 108.498C87.5234 105.666 89.5109 104.519 91.9614 105.937C94.4119 107.355 96.4034 110.793 96.4034 113.624Z" fill="#FAFAFA"/>
<path d="M90.4287 87.4353V91.0209C90.429 91.0549 90.4365 91.0884 90.4507 91.1193C90.4649 91.1501 90.4854 91.1777 90.5109 91.2001C90.5364 91.2225 90.5663 91.2393 90.5988 91.2494C90.6312 91.2595 90.6654 91.2626 90.6992 91.2586L93.9569 90.8816C94.0015 90.8755 94.0435 90.8572 94.0782 90.8286C94.1129 90.8001 94.139 90.7624 94.1534 90.7198C94.1679 90.6772 94.1702 90.6315 94.1601 90.5877C94.15 90.5438 94.1279 90.5037 94.0963 90.4718L90.8426 87.2673C90.809 87.2333 90.7661 87.2099 90.7193 87.2003C90.6725 87.1906 90.6238 87.1951 90.5795 87.2131C90.5352 87.231 90.4973 87.2618 90.4704 87.3013C90.4436 87.3409 90.4291 87.3875 90.4287 87.4353Z" fill="#37474F"/>
<path d="M92.9445 109.199C92.6543 109.121 92.3873 108.974 92.1661 108.771C91.9449 108.567 91.7762 108.314 91.6742 108.031C91.6373 107.945 91.5472 107.924 91.5472 108.006V111.797C91.4276 111.665 91.2896 111.55 91.1374 111.457C90.6006 111.145 90.1621 111.399 90.1621 112.022C90.1806 112.361 90.2785 112.691 90.4479 112.985C90.6173 113.279 90.8535 113.529 91.1374 113.715C91.6783 114.022 92.1168 113.772 92.1168 113.149V110.367C92.2914 110.503 92.5059 110.578 92.7273 110.58C92.9867 110.595 93.2331 110.698 93.4255 110.872C93.6179 111.047 93.7447 111.282 93.7846 111.539C93.7846 111.539 94.0755 109.408 92.9445 109.199Z" fill="#37474F"/>
<path d="M124.813 104.63C125.197 104.85 125.515 105.168 125.736 105.551C125.958 105.933 126.075 106.368 126.076 106.81C126.075 107.009 126.023 107.204 125.923 107.377C125.824 107.549 125.681 107.692 125.509 107.792C125.336 107.891 125.141 107.944 124.942 107.944C124.743 107.944 124.547 107.892 124.375 107.793L100.132 93.8074C99.7482 93.5867 99.4293 93.2685 99.2077 92.885C98.9861 92.5014 98.8696 92.0662 98.8701 91.6233C98.8694 91.4244 98.9212 91.2289 99.0201 91.0564C99.1191 90.8839 99.2618 90.7406 99.4339 90.6408C99.6059 90.5411 99.8012 90.4885 100 90.4883C100.199 90.4881 100.394 90.5404 100.567 90.6398L124.813 104.63Z" fill="white"/>
<path d="M109.033 97.8272C108.935 97.8266 108.839 97.8012 108.754 97.7535L99.9807 92.6927C99.9128 92.6586 99.8526 92.611 99.8037 92.5528C99.7549 92.4946 99.7185 92.427 99.6967 92.3542C99.6749 92.2814 99.6683 92.2049 99.6772 92.1294C99.686 92.054 99.7102 91.9811 99.7483 91.9154C99.7864 91.8496 99.8375 91.7923 99.8985 91.747C99.9595 91.7017 100.029 91.6694 100.103 91.652C100.177 91.6346 100.254 91.6325 100.329 91.6459C100.403 91.6592 100.475 91.6877 100.538 91.7297L109.303 96.7905C109.408 96.8525 109.489 96.9471 109.535 97.0598C109.581 97.1725 109.589 97.2971 109.557 97.4146C109.526 97.5321 109.457 97.636 109.36 97.7106C109.264 97.7851 109.146 97.826 109.025 97.8272H109.033Z" fill="#263238"/>
<path d="M114.708 101.106C114.61 101.106 114.514 101.079 114.43 101.028L108.754 97.7497C108.636 97.6713 108.552 97.5507 108.519 97.4124C108.487 97.2741 108.508 97.1286 108.579 97.0057C108.651 96.8827 108.766 96.7916 108.902 96.7509C109.038 96.7102 109.185 96.723 109.312 96.7867L114.987 100.065C115.094 100.126 115.177 100.221 115.225 100.334C115.272 100.448 115.28 100.574 115.248 100.693C115.217 100.811 115.146 100.916 115.049 100.991C114.951 101.066 114.831 101.106 114.708 101.106Z" fill="#263238"/>
<path d="M124.813 109.33C125.197 109.552 125.515 109.87 125.736 110.254C125.958 110.637 126.075 111.072 126.076 111.514C126.076 111.714 126.024 111.909 125.924 112.082C125.825 112.254 125.682 112.397 125.509 112.497C125.336 112.596 125.141 112.648 124.942 112.648C124.742 112.647 124.547 112.594 124.375 112.494L100.132 98.5079C99.7486 98.2878 99.4298 97.9703 99.2082 97.5875C98.9865 97.2047 98.8699 96.7702 98.8701 96.3279C98.8694 96.129 98.9212 95.9335 99.0201 95.761C99.1191 95.5885 99.2618 95.4451 99.4339 95.3454C99.6059 95.2456 99.8012 95.193 100 95.1929C100.199 95.1927 100.394 95.245 100.567 95.3444L124.813 109.33Z" fill="white"/>
<path d="M109.033 102.532C108.934 102.532 108.838 102.505 108.754 102.454L99.9805 97.3768C99.8533 97.3029 99.7607 97.1815 99.7231 97.0393C99.6854 96.8971 99.7058 96.7458 99.7797 96.6187C99.8536 96.4915 99.975 96.3989 100.117 96.3613C100.259 96.3236 100.411 96.344 100.538 96.4179L109.303 101.479C109.408 101.541 109.489 101.635 109.535 101.748C109.581 101.861 109.589 101.985 109.557 102.103C109.526 102.22 109.456 102.324 109.36 102.399C109.264 102.473 109.146 102.514 109.024 102.515L109.033 102.532Z" fill="#E0E0E0"/>
<path d="M118.323 107.896C118.225 107.896 118.129 107.87 118.044 107.822L108.754 102.454C108.691 102.417 108.636 102.369 108.592 102.311C108.548 102.253 108.516 102.187 108.497 102.116C108.478 102.046 108.474 101.973 108.483 101.9C108.493 101.828 108.517 101.759 108.554 101.696C108.59 101.633 108.639 101.578 108.697 101.534C108.755 101.489 108.821 101.457 108.891 101.438C108.961 101.42 109.035 101.415 109.107 101.425C109.179 101.435 109.249 101.458 109.312 101.495L118.601 106.859C118.706 106.921 118.788 107.016 118.834 107.128C118.879 107.241 118.887 107.366 118.856 107.483C118.824 107.601 118.755 107.705 118.659 107.779C118.562 107.854 118.444 107.895 118.323 107.896Z" fill="#E0E0E0"/>
<path d="M124.813 126.139C125.197 126.361 125.515 126.679 125.736 127.063C125.958 127.446 126.075 127.881 126.076 128.323C126.075 128.522 126.023 128.718 125.923 128.89C125.824 129.063 125.681 129.206 125.509 129.305C125.336 129.405 125.141 129.458 124.942 129.458C124.743 129.458 124.547 129.406 124.375 129.307L100.132 115.317C99.7486 115.097 99.4298 114.779 99.2082 114.397C98.9865 114.014 98.8699 113.579 98.8701 113.137C98.8694 112.938 98.9212 112.743 99.0201 112.57C99.1191 112.398 99.2618 112.254 99.4339 112.154C99.6059 112.055 99.8012 112.002 100 112.002C100.199 112.002 100.394 112.054 100.567 112.153L124.813 126.139Z" fill="white"/>
<path d="M123.215 127.529C123.118 127.528 123.022 127.503 122.937 127.455L99.9888 114.202C99.9258 114.166 99.8707 114.117 99.8265 114.059C99.7824 114.001 99.75 113.935 99.7314 113.865C99.7127 113.795 99.7081 113.721 99.7178 113.649C99.7276 113.577 99.7514 113.507 99.788 113.444C99.8246 113.381 99.8732 113.326 99.9311 113.282C99.989 113.238 100.055 113.206 100.125 113.187C100.196 113.168 100.269 113.164 100.341 113.173C100.414 113.183 100.483 113.207 100.546 113.244L123.494 126.492C123.599 126.554 123.68 126.648 123.726 126.761C123.772 126.874 123.78 126.998 123.748 127.116C123.716 127.233 123.647 127.337 123.551 127.412C123.455 127.486 123.337 127.527 123.215 127.529Z" fill="#263238"/>
<path d="M124.813 130.843C125.197 131.065 125.515 131.384 125.736 131.767C125.958 132.15 126.075 132.585 126.076 133.028C126.076 133.227 126.024 133.422 125.924 133.595C125.825 133.767 125.682 133.911 125.509 134.01C125.336 134.109 125.141 134.161 124.942 134.161C124.742 134.16 124.547 134.107 124.375 134.007L100.132 120.021C99.7482 119.8 99.4293 119.482 99.2077 119.099C98.9861 118.715 98.8696 118.28 98.8701 117.837C98.8701 117.638 98.9224 117.443 99.0217 117.271C99.1209 117.1 99.2637 116.957 99.4357 116.858C99.6076 116.758 99.8026 116.706 100.001 116.706C100.2 116.706 100.395 116.758 100.567 116.858L124.813 130.843Z" fill="white"/>
<path d="M109.033 124.041C108.935 124.042 108.838 124.017 108.754 123.967L99.9806 118.906C99.8533 118.833 99.7603 118.712 99.7219 118.57C99.6836 118.428 99.7029 118.276 99.7757 118.148C99.8502 118.021 99.972 117.928 100.115 117.889C100.257 117.851 100.409 117.87 100.538 117.943L109.303 123.004C109.408 123.066 109.489 123.161 109.535 123.274C109.581 123.386 109.589 123.511 109.557 123.628C109.526 123.746 109.457 123.85 109.36 123.924C109.264 123.999 109.146 124.04 109.024 124.041H109.033Z" fill="#E0E0E0"/>
<path d="M59.8835 53.78L59.1377 52.1736C60.4121 52.149 63.0388 53.7595 64.0551 54.5381L71.2426 60.9593L73.3817 68.3354C73.3817 68.3354 68.5299 68.9911 60.9243 61.1192L59.8835 53.78Z" fill="#945959"/>
<path d="M69.546 57.845C69.546 57.845 65.8006 59.3161 64.8909 64.6924L59.4121 60.861L59.1294 52.1736C59.1294 52.1736 61.5348 51.3991 69.546 57.845Z" fill="#2C2C2C"/>
<path opacity="0.3" d="M69.546 57.845C69.546 57.845 65.8006 59.3161 64.8909 64.6924L59.4121 60.861L59.1294 52.1736C59.1294 52.1736 61.5348 51.3991 69.546 57.845Z" fill="white"/>
<path d="M56.0508 141.599L61.9375 141.449L61.6337 129.528L55.747 129.678L56.0508 141.599Z" fill="#945959"/>
<path d="M63.4813 81.8049C63.4813 81.8049 63.8911 102.089 63.7559 110.125C63.6493 116.173 62.7068 134.302 62.7068 134.302C62.7068 134.302 58.8877 136.798 54.8636 134.712C54.8636 134.712 52.5442 116.403 53.1097 110.887C53.1835 110.217 53.1835 109.541 53.1097 108.871L49.561 78.166L63.4813 81.8049Z" fill="#37474F"/>
<path d="M59.8916 139.797C59.8916 139.797 56.6134 139.424 55.97 138.363V137.67C55.97 137.67 55.4045 137.974 55.5111 139.121C55.6094 140.182 55.1833 141.989 55.1218 144.202C55.1184 144.383 55.157 144.561 55.2345 144.724C55.3121 144.887 55.4264 145.029 55.5684 145.141C56.1995 145.628 57.5395 146.37 59.8916 146.476C60.7112 146.513 64.0181 148.632 66.7678 148.632C69.5174 148.632 71.3123 147.267 71.3123 145.354C71.3123 143.44 65.7105 141.723 65.7105 141.723L63.0183 139.109C63.0183 139.109 63.5387 136.265 61.8258 136.949C60.1129 137.633 59.8916 138.355 59.8916 139.797Z" fill="#37474F"/>
<path d="M60.5024 141.444C60.4849 141.448 60.4667 141.448 60.4492 141.444C60.4271 141.437 60.4066 141.426 60.3889 141.411C60.3712 141.396 60.3566 141.378 60.3459 141.358C60.3353 141.337 60.3288 141.315 60.3268 141.291C60.3248 141.268 60.3274 141.245 60.3344 141.223C60.5443 140.648 60.899 140.137 61.3642 139.74C61.8294 139.342 62.3893 139.071 62.9898 138.953C63.0124 138.949 63.0357 138.949 63.0581 138.954C63.0806 138.959 63.1018 138.969 63.1205 138.982C63.1392 138.996 63.1551 139.013 63.1671 139.032C63.1791 139.052 63.1871 139.074 63.1906 139.096C63.1947 139.119 63.1943 139.143 63.1893 139.165C63.1843 139.188 63.1749 139.21 63.1615 139.229C63.1482 139.248 63.1312 139.264 63.1116 139.276C63.092 139.289 63.0701 139.297 63.0472 139.301C62.5104 139.415 62.011 139.662 61.5955 140.02C61.1799 140.378 60.8617 140.836 60.6704 141.35C60.6546 141.38 60.6303 141.406 60.6005 141.422C60.5706 141.439 60.5366 141.447 60.5024 141.444Z" fill="#FAFAFA"/>
<path d="M61.5757 142.522H61.5224C61.5002 142.515 61.4797 142.503 61.4621 142.488C61.4445 142.472 61.4302 142.454 61.4199 142.433C61.4096 142.412 61.4036 142.389 61.4022 142.366C61.4008 142.342 61.404 142.319 61.4117 142.297C61.6194 141.722 61.973 141.211 62.4378 140.813C62.9026 140.416 63.4626 140.146 64.063 140.031C64.1055 140.03 64.1469 140.044 64.1797 140.071C64.2124 140.098 64.2343 140.136 64.2413 140.178C64.2483 140.22 64.2399 140.263 64.2177 140.299C64.1954 140.335 64.1609 140.362 64.1204 140.375C63.5836 140.488 63.0842 140.736 62.6687 141.094C62.2532 141.452 61.935 141.91 61.7437 142.424C61.728 142.455 61.7039 142.48 61.6741 142.498C61.6443 142.515 61.6101 142.524 61.5757 142.522Z" fill="#FAFAFA"/>
<path d="M62.5264 143.445C62.5088 143.448 62.4906 143.448 62.4731 143.445C62.451 143.438 62.4305 143.426 62.4128 143.411C62.3951 143.396 62.3805 143.378 62.3699 143.358C62.3592 143.337 62.3527 143.315 62.3507 143.292C62.3488 143.269 62.3513 143.245 62.3584 143.223C62.5676 142.648 62.922 142.137 63.3873 141.739C63.8526 141.341 64.4129 141.07 65.0137 140.953C65.0599 140.945 65.1072 140.956 65.1453 140.984C65.1833 141.011 65.209 141.052 65.2166 141.099C65.2242 141.145 65.2131 141.192 65.1858 141.23C65.1586 141.268 65.1173 141.294 65.0711 141.301C64.534 141.414 64.0343 141.661 63.6187 142.019C63.203 142.378 62.885 142.836 62.6944 143.35C62.6785 143.381 62.6542 143.406 62.6244 143.422C62.5946 143.439 62.5605 143.447 62.5264 143.445Z" fill="#FAFAFA"/>
<path d="M71.296 145.366C71.296 147.247 69.5381 148.599 66.8417 148.644L62.9897 147.1C62.9897 143.108 65.6943 141.752 65.6943 141.752C65.6943 141.752 71.296 143.461 71.296 145.366Z" fill="#EBEBEB"/>
<path d="M55.2162 144.366C55.876 144.878 57.2651 145.661 59.7238 145.768C60.5885 145.804 64.0388 148.021 66.9155 148.021C68.8906 148.021 70.3904 147.349 71.1403 146.284C70.6527 147.689 69.0341 148.632 66.7516 148.632C64.0019 148.632 60.7032 146.513 59.8754 146.477C57.5233 146.374 56.1874 145.628 55.5522 145.141C55.4221 145.038 55.3156 144.908 55.24 144.76C55.1644 144.612 55.1213 144.45 55.1138 144.284C55.1457 144.314 55.1799 144.342 55.2162 144.366Z" fill="#263238"/>
<path d="M60.0722 84.6733C60.0722 84.6733 59.5354 89.2629 56.0154 91.6888L52.9092 107.261L50.9136 87.7877L60.0722 84.6733Z" fill="#263238"/>
<path d="M38.9223 144.832L44.793 145.291L45.7223 133.402L39.8517 132.943L38.9223 144.832Z" fill="#945959"/>
<path d="M42.1154 82.2885C42.1154 82.2885 41.4065 84.9766 41.0582 96.0735C40.7877 104.867 40.5788 109.924 40.5091 111.645C40.4895 112.073 40.4429 112.498 40.3698 112.92C39.648 117.36 39.1651 121.836 38.9232 126.328C38.4192 134.876 38.3823 138.937 38.3823 138.937C38.3823 138.937 42.013 141.772 46.3936 139.547L50.6307 114.047L55.0809 90.4103C55.0809 90.4103 61.2031 88.0746 61.744 81.8418L42.1154 82.2885Z" fill="#37474F"/>
<path d="M39.1362 142.109L39.046 143.272C39.4374 143.819 39.9622 144.256 40.5704 144.543C40.5704 144.543 41.2015 142.232 42.3243 142.113C43.4471 141.994 45.7665 141.891 45.455 143.178C45.2791 143.849 45.1706 144.535 45.1313 145.227L47.2867 149.251C47.2867 149.251 51.6673 153.021 49.8356 155.427C48.0039 157.832 41.8612 156.549 41.2589 152.771C41.1618 152.203 40.9487 151.661 40.6328 151.179C40.317 150.696 39.9052 150.284 39.423 149.968C39.0257 149.72 38.7129 149.358 38.5263 148.928C38.3397 148.499 38.288 148.022 38.3781 147.563C38.4887 146.702 38.751 145.043 38.669 144.285C38.5871 143.526 38.3822 142.117 39.1362 142.109Z" fill="#37474F"/>
<path d="M49.8359 155.418C48.3156 157.418 43.8285 156.869 42.0009 154.463C41.9192 154.074 41.878 153.677 41.8779 153.279C41.8779 148.985 47.287 149.243 47.287 149.243C47.287 149.243 51.6676 153.013 49.8359 155.418Z" fill="#EBEBEB"/>
<path d="M38.3781 147.554C38.3781 147.493 38.3781 147.415 38.4027 147.345C38.4467 147.688 38.5666 148.017 38.7537 148.308C38.9409 148.598 39.1906 148.843 39.4845 149.025C39.9836 149.352 40.4101 149.777 40.7372 150.276C41.0644 150.774 41.2852 151.335 41.3859 151.922C42.0047 155.783 48.217 157.123 50.1839 154.746C50.1105 154.99 49.9924 155.217 49.8356 155.418C48.0039 157.827 41.8612 156.541 41.2589 152.763C41.1618 152.194 40.9487 151.652 40.6328 151.17C40.317 150.688 39.9052 150.276 39.423 149.96C39.0257 149.712 38.7129 149.349 38.5263 148.919C38.3397 148.49 38.288 148.014 38.3781 147.554Z" fill="#263238"/>
<path d="M41.9515 146.141C41.9278 146.141 41.9043 146.137 41.8824 146.127C41.8606 146.118 41.8408 146.105 41.8245 146.088C41.808 146.071 41.7949 146.052 41.786 146.03C41.7771 146.009 41.7725 145.986 41.7725 145.963C41.7725 145.939 41.7771 145.916 41.786 145.895C41.7949 145.873 41.808 145.854 41.8245 145.838C42.2799 145.428 42.8341 145.144 43.4325 145.013C44.031 144.882 44.6531 144.909 45.2379 145.092C45.2784 145.11 45.3106 145.142 45.3283 145.183C45.3459 145.223 45.3477 145.269 45.3333 145.311C45.3188 145.352 45.2892 145.387 45.2503 145.408C45.2114 145.429 45.166 145.435 45.1232 145.424C44.5986 145.269 44.0435 145.249 43.5091 145.366C42.9748 145.483 42.4786 145.732 42.0662 146.092C42.036 146.123 41.9947 146.14 41.9515 146.141Z" fill="#FAFAFA"/>
<path d="M42.7016 147.616C42.677 147.616 42.6528 147.61 42.6303 147.6C42.6077 147.591 42.5874 147.576 42.5705 147.559C42.5384 147.526 42.5205 147.482 42.5205 147.436C42.5205 147.39 42.5384 147.346 42.5705 147.313C43.0253 146.903 43.5788 146.619 44.1765 146.489C44.7742 146.358 45.3957 146.385 45.9799 146.567C46.0019 146.574 46.0223 146.585 46.0398 146.6C46.0574 146.615 46.0718 146.633 46.0821 146.654C46.0924 146.675 46.0985 146.697 46.0999 146.72C46.1014 146.743 46.0982 146.766 46.0905 146.788C46.0755 146.832 46.044 146.868 46.0025 146.889C45.9611 146.91 45.9132 146.913 45.8692 146.899C45.8487 146.899 44.1195 146.333 42.8122 147.567C42.7825 147.596 42.7432 147.613 42.7016 147.616Z" fill="#FAFAFA"/>
<path d="M43.4309 149.108C43.407 149.107 43.3834 149.102 43.3616 149.092C43.3398 149.082 43.3202 149.068 43.3039 149.05C43.2718 149.017 43.2539 148.973 43.2539 148.927C43.2539 148.881 43.2718 148.837 43.3039 148.804C43.7587 148.395 44.3122 148.111 44.9099 147.98C45.5076 147.85 46.1291 147.877 46.7133 148.059C46.7369 148.065 46.759 148.075 46.7782 148.09C46.7974 148.105 46.8133 148.124 46.8248 148.146C46.8364 148.167 46.8434 148.191 46.8454 148.215C46.8473 148.239 46.8442 148.264 46.8363 148.287C46.8283 148.31 46.8156 148.331 46.7991 148.349C46.7825 148.367 46.7625 148.381 46.7401 148.391C46.7178 148.401 46.6937 148.406 46.6693 148.406C46.6449 148.405 46.6208 148.4 46.5985 148.391C46.0746 148.236 45.5201 148.216 44.9864 148.333C44.4527 148.45 43.9572 148.699 43.5456 149.058C43.5145 149.088 43.4738 149.105 43.4309 149.108Z" fill="#FAFAFA"/>
<path d="M47.9381 53.1448L44.1763 54.3496L42.1274 65.4669L43.3568 70.8556C43.5219 71.5912 43.5524 72.3506 43.4469 73.0971L42.1356 82.309C42.1356 82.309 45.8483 84.6734 52.6752 84.6734C59.5022 84.6734 63.4812 81.8049 63.4812 81.8049L62.9648 60.8323C62.7677 57.5759 61.4098 54.498 59.1375 52.1572L54.4946 52.7104L47.9381 53.1448Z" fill="#2C2C2C"/>
<path d="M59.7727 35.4995C59.7727 35.4995 63.3665 38.6507 60.2439 45.6744L56.5928 36.1798L59.7727 35.4995Z" fill="#263238"/>
<path d="M47.9302 53.1447L52.3435 55.46L54.4785 52.7145V44.2361H47.9302V53.1447Z" fill="#945959"/>
<path d="M54.4946 52.1736C52.2859 52.1736 48.9339 50.2066 48.9339 48.8379L48.1963 44.2361H54.4946V52.1736Z" fill="#703838"/>
<path d="M52.7366 33.5574C54.9413 33.5574 59.6251 34.7867 60.166 40.5482C60.7069 46.3098 59.8627 51.2026 57.2074 51.2026C51.999 51.2026 46.9956 50.5387 46.9628 42.0153C46.9177 34.5081 50.5894 33.5574 52.7366 33.5574Z" fill="#945959"/>
<path d="M47.9383 47.0759L48.7906 44.4738C48.8546 44.5265 48.9323 44.5599 49.0145 44.5703C49.0968 44.5807 49.1803 44.5675 49.2553 44.5323C49.3304 44.4971 49.394 44.4414 49.4386 44.3716C49.4833 44.3017 49.5073 44.2207 49.5078 44.1378V39.495C49.5078 39.495 51.6755 38.8803 51.446 37.0363C51.446 37.0363 52.5524 38.0279 56.806 38.0279C61.0595 38.0279 62.0881 34.426 61.6619 32.4221C61.6619 32.4221 60.8751 33.2417 58.6254 33.2417C56.3757 33.2417 47.0245 30.4183 46.7827 36.0733C46.7827 36.0733 45.9918 34.9136 44.7338 36.0733L46.3729 37.0445C46.3729 37.0445 44.4306 36.983 44.7338 39.8392C44.9346 41.716 45.6189 45.0024 46.0656 47.0308C46.3147 48.1643 46.9913 49.158 47.9547 49.8051L47.9383 47.0759Z" fill="#263238"/>
<path d="M55.9619 42.2773V45.9818L58.1297 45.3138L55.9619 42.2773Z" fill="#703838"/>
<path d="M52.5156 42.8756C52.5156 43.0126 52.5562 43.1465 52.6323 43.2604C52.7084 43.3743 52.8166 43.463 52.9431 43.5155C53.0697 43.5679 53.2089 43.5816 53.3433 43.5549C53.4776 43.5281 53.601 43.4622 53.6978 43.3653C53.7947 43.2685 53.8607 43.1451 53.8874 43.0107C53.9141 42.8764 53.9004 42.7372 53.848 42.6106C53.7956 42.4841 53.7068 42.3759 53.5929 42.2998C53.479 42.2237 53.3451 42.1831 53.2082 42.1831C53.0245 42.1831 52.8483 42.2561 52.7185 42.3859C52.5886 42.5158 52.5156 42.692 52.5156 42.8756Z" fill="#263238"/>
<path d="M57.6953 42.3839C57.6953 42.5209 57.7359 42.6548 57.812 42.7687C57.8881 42.8826 57.9963 42.9713 58.1228 43.0238C58.2494 43.0762 58.3886 43.0899 58.5229 43.0632C58.6573 43.0364 58.7807 42.9705 58.8775 42.8736C58.9744 42.7768 59.0403 42.6534 59.0671 42.519C59.0938 42.3847 59.0801 42.2455 59.0277 42.1189C58.9752 41.9924 58.8865 41.8842 58.7726 41.8081C58.6587 41.732 58.5248 41.6914 58.3878 41.6914C58.2042 41.6914 58.028 41.7644 57.8982 41.8942C57.7683 42.0241 57.6953 42.2003 57.6953 42.3839Z" fill="#263238"/>
<path d="M59.2317 40.9415L57.8794 40.122C57.8794 40.122 58.3998 39.581 58.9161 39.9048C59.0685 40.0245 59.1805 40.1881 59.237 40.3735C59.2934 40.5589 59.2915 40.7572 59.2317 40.9415Z" fill="#263238"/>
<path d="M51.7987 41.4415L53.1551 40.622C53.1551 40.622 52.6347 40.081 52.1143 40.4048C51.9619 40.5245 51.8499 40.6881 51.7935 40.8735C51.737 41.0589 51.7389 41.2572 51.7987 41.4415Z" fill="#263238"/>
<path d="M55.7855 47.7603C55.7855 47.7603 54.7815 47.1128 53.8144 46.3916C53.8144 46.3916 53.253 47.4857 54.1341 48.0307C55.0151 48.5757 55.7855 47.7603 55.7855 47.7603Z" fill="#703838"/>
<path d="M48.8396 44.5149L46.4424 41.9128L48.1635 40.8801L48.8396 44.5149Z" fill="#253239"/>
<path d="M48.4423 43.5026C49.2291 44.859 49.0283 46.5104 47.9301 47.0759C47.2294 47.4406 45.1518 46.6661 44.365 45.2975C43.5782 43.9288 44.0249 42.7732 45.0903 42.1544C46.1558 41.5357 47.6596 42.1421 48.4423 43.5026Z" fill="#945959"/>
<path d="M54.495 52.7105L55.3883 54.1284C55.5595 54.4005 55.6715 54.7057 55.717 55.024C55.7625 55.3423 55.7404 55.6666 55.6523 55.9759C55.5642 56.2851 55.4119 56.5723 55.2055 56.8188C54.999 57.0653 54.743 57.2656 54.454 57.4066C53.9275 57.6635 53.353 57.8073 52.7675 57.8287C52.1821 57.8501 51.5986 57.7487 51.0547 57.531C50.5109 57.3133 50.0186 56.9841 49.6096 56.5646C49.2006 56.1451 48.884 55.6447 48.6802 55.0955L47.9385 53.1449L51.2167 51.7271L54.495 52.7105Z" fill="#945959"/>
<path d="M43.6235 68.0322L41.972 71.5154L33.4937 74.8674L36.9112 64.5122L43.6235 68.0322Z" fill="#945959"/>
<path d="M44.6602 54.1733C44.6602 54.1733 47.4877 57.0787 46.2665 61.1724C45.5775 63.5307 44.6878 65.8257 43.607 68.0322C43.607 68.0322 38.8413 68.1756 36.8989 64.5121L39.3248 58.3654C39.706 57.4026 40.3069 56.5422 41.0796 55.8528C41.8522 55.1634 42.7752 54.6641 43.7751 54.3946L44.6602 54.1733Z" fill="#2C2C2C"/>
<path opacity="0.3" d="M44.6602 54.1733C44.6602 54.1733 47.4877 57.0787 46.2665 61.1724C45.5775 63.5307 44.6878 65.8257 43.607 68.0322C43.607 68.0322 38.8413 68.1756 36.8989 64.5121L39.3248 58.3654C39.706 57.4026 40.3069 56.5422 41.0796 55.8528C41.8522 55.1634 42.7752 54.6641 43.7751 54.3946L44.6602 54.1733Z" fill="white"/>
<path d="M42.4475 70.8679L34.006 73.3676C34.006 73.3676 33.9568 73.5028 33.5101 74.8715C32.8258 76.9737 34.9894 82.0591 42.6892 78.3669C50.389 74.6748 53.192 72.6996 53.192 72.6996L52.3724 68.0322C52.3724 68.0322 44.8939 70.1508 42.4475 70.8679Z" fill="#945959"/>
<path d="M42.222 70.9745L38.2349 72.126L42.6974 69.9746L42.222 70.9745Z" fill="#703838"/>
<path d="M53.5316 74.7977L58.5309 74.265C58.7099 74.2456 58.8787 74.1726 59.0155 74.0556C59.1522 73.9387 59.2504 73.7831 59.2972 73.6093L62.0264 63.3279C62.0451 63.2577 62.047 63.1841 62.032 63.113C62.017 63.042 61.9855 62.9754 61.94 62.9188C61.8946 62.8621 61.8364 62.817 61.7702 62.787C61.7041 62.757 61.6318 62.7429 61.5592 62.746L56.7238 62.9714C56.544 62.9804 56.3716 63.0458 56.2311 63.1584C56.0906 63.2709 55.9891 63.4249 55.9411 63.5984L53.0317 74.2117C53.012 74.2849 53.0104 74.3619 53.0271 74.4358C53.0437 74.5098 53.0782 74.5786 53.1274 74.6363C53.1766 74.694 53.2391 74.7388 53.3096 74.767C53.38 74.7951 53.4562 74.8056 53.5316 74.7977Z" fill="#37474F"/>
<path d="M60.072 64.2622C60.0729 64.348 60.0995 64.4316 60.1482 64.5021C60.1969 64.5727 60.2657 64.6271 60.3456 64.6584C60.4254 64.6896 60.5128 64.6963 60.5965 64.6775C60.6802 64.6587 60.7564 64.6153 60.8153 64.5529C60.8741 64.4905 60.913 64.412 60.9269 64.3273C60.9408 64.2427 60.929 64.1558 60.8932 64.0779C60.8573 64 60.799 63.9345 60.7257 63.89C60.6524 63.8454 60.5675 63.8238 60.4818 63.8279C60.4259 63.8278 60.3705 63.8391 60.3191 63.8612C60.2677 63.8834 60.2214 63.9158 60.183 63.9565C60.1446 63.9972 60.115 64.0453 60.0959 64.0979C60.0768 64.1505 60.0687 64.2064 60.072 64.2622Z" fill="#263238"/>
<path d="M52.3433 68.0322C52.3433 68.0322 53.7857 65.5161 55.5846 64.9055L54.8634 67.6715C54.8634 67.6715 56.228 67.7781 57.7729 67.7781C59.3177 67.7781 61.006 66.7413 61.5101 66.4709C62.0141 66.2004 62.4526 68.0731 60.5061 71.5891C58.5596 75.105 53.1751 72.6996 53.1751 72.6996L52.3433 68.0322Z" fill="#945959"/>
<path d="M64.8008 56.3575L64.3296 53.2637L67.3128 53.3989C67.3128 53.3989 75.1724 60.3119 76.078 61.8404C76.9836 63.3689 77.7745 67.7699 73.3612 68.319L72.0745 67.3069C70.7003 66.2232 69.5529 64.8795 68.6979 63.3525L64.8008 56.3575Z" fill="#945959"/>
<path d="M65.309 50.7803C65.309 50.7803 64.2477 48.3749 64.0551 47.7971C63.7764 46.9775 63.0593 47.4488 62.8585 47.9938C62.6577 48.5388 62.8913 49.1289 63.3871 49.9115C63.883 50.6942 65.309 50.7803 65.309 50.7803Z" fill="#945959"/>
<path d="M64.8011 56.3576C64.8011 56.3576 62.2604 56.206 60.7033 54.5628L62.6128 50.8378C62.6128 50.8378 59.6911 50.0593 58.8019 49.3708C57.9126 48.6824 58.429 48.2316 58.9125 48.2726C59.3223 48.3095 63.2275 49.2807 64.1372 49.7109C64.8953 50.0756 65.9362 51.0673 67.3089 53.399L68.8661 57.5705L64.8011 56.3576Z" fill="#945959"/>
<path d="M62.6292 50.8378C62.6292 50.8378 61.0884 49.6084 60.4861 51.1082C59.8837 52.608 59.1666 53.2227 59.5067 53.8743C59.8468 54.5258 61.5925 57.3328 62.1252 55.5995C62.6579 53.8661 62.6292 50.8378 62.6292 50.8378Z" fill="#945959"/>
<path d="M69.5462 64.7909C69.525 64.7908 69.5041 64.7859 69.4849 64.7767C69.4658 64.7675 69.449 64.7542 69.4356 64.7376C69.1309 64.314 68.8504 63.8735 68.5955 63.4181L64.7395 56.4846C63.8673 56.3944 63.0167 56.1575 62.2234 55.7839C62.1902 55.8936 62.1324 55.9942 62.0542 56.078C61.9761 56.1619 61.8798 56.2267 61.7727 56.2675C61.756 56.2725 61.7385 56.2741 61.7212 56.2722C61.7039 56.2704 61.6871 56.2651 61.6718 56.2567C61.6566 56.2484 61.6431 56.237 61.6323 56.2234C61.6215 56.2097 61.6135 56.1941 61.6088 56.1773C61.6031 56.1604 61.601 56.1425 61.6025 56.1247C61.6041 56.1069 61.6092 56.0896 61.6176 56.0739C61.6261 56.0581 61.6376 56.0443 61.6516 56.0332C61.6656 56.0221 61.6817 56.014 61.6989 56.0093C61.8301 55.9724 61.9366 55.8208 62.0186 55.5626C62.0147 55.5492 62.0147 55.535 62.0186 55.5217C62.0363 55.4939 62.0639 55.4738 62.0958 55.4655C62.1277 55.4571 62.1616 55.4611 62.1907 55.4766C63.0123 55.8824 63.901 56.1351 64.8133 56.2224C64.8359 56.2244 64.8577 56.2318 64.877 56.2439C64.8962 56.256 64.9123 56.2725 64.9239 56.292L68.8373 63.287C69.0845 63.7333 69.3581 64.1643 69.6569 64.5778C69.6679 64.5919 69.6759 64.6081 69.6804 64.6253C69.6849 64.6426 69.6859 64.6606 69.6832 64.6783C69.6805 64.6959 69.6742 64.7128 69.6648 64.728C69.6553 64.7431 69.6429 64.7562 69.6282 64.7663C69.604 64.7827 69.5754 64.7912 69.5462 64.7909Z" fill="#703838"/>
<path d="M62.125 55.7305C62.099 55.7301 62.0737 55.7231 62.0512 55.71C61.5985 55.3982 61.1857 55.0321 60.8219 54.62C60.8087 54.6063 60.7986 54.59 60.7922 54.5721C60.7857 54.5542 60.7831 54.5352 60.7846 54.5162C60.786 54.4973 60.7914 54.4788 60.8004 54.4621C60.8094 54.4454 60.8219 54.4307 60.837 54.4192C60.852 54.4076 60.8694 54.3993 60.8878 54.3948C60.9063 54.3904 60.9255 54.3899 60.9442 54.3934C60.9629 54.3969 60.9806 54.4043 60.9963 54.4151C61.0119 54.4259 61.0251 54.4399 61.035 54.4561C61.3856 54.8451 61.7819 55.1904 62.2151 55.4846C62.2297 55.4949 62.2421 55.5078 62.2516 55.5229C62.2611 55.5379 62.2675 55.5546 62.2706 55.5721C62.2736 55.5896 62.2732 55.6075 62.2693 55.6249C62.2654 55.6422 62.2581 55.6586 62.2479 55.6731C62.2346 55.693 62.2161 55.7089 62.1944 55.719C62.1728 55.7291 62.1488 55.7331 62.125 55.7305Z" fill="#703838"/>
<path d="M60.6417 50.9688C60.6151 50.9688 60.5893 50.9602 60.568 50.9442C60.5384 50.9249 60.5176 50.8948 60.51 50.8604C60.5023 50.8259 60.5084 50.7899 60.527 50.7598C60.6078 50.6297 60.7137 50.5168 60.8384 50.4279C60.1001 50.2123 59.3963 49.8921 58.7486 49.4772C58.1462 49.0101 58.179 48.6577 58.2527 48.4774C58.3192 48.3525 58.4239 48.2522 58.5514 48.1911C58.6789 48.1299 58.8227 48.111 58.9616 48.1372C59.2198 48.1741 62.0063 48.9363 64.0798 49.5018C64.5631 49.7086 64.9922 50.0241 65.3337 50.4238C65.3585 50.4498 65.3724 50.4842 65.3724 50.5201C65.3724 50.556 65.3585 50.5905 65.3337 50.6164C65.3215 50.6291 65.3069 50.6391 65.2907 50.646C65.2745 50.6528 65.2571 50.6564 65.2395 50.6564C65.2219 50.6564 65.2045 50.6528 65.1883 50.646C65.1721 50.6391 65.1575 50.6291 65.1453 50.6164C64.8313 50.2546 64.4427 49.9652 64.0061 49.7682C60.8221 48.8994 59.1133 48.4446 58.933 48.4159C58.8549 48.4026 58.7747 48.4121 58.702 48.4434C58.6293 48.4746 58.5672 48.5263 58.5232 48.5921C58.4535 48.7642 58.6092 49.0019 58.933 49.2764C59.6588 49.7226 60.4437 50.0647 61.2646 50.2927C61.2919 50.3016 61.3156 50.3193 61.3319 50.343C61.3481 50.3667 61.3562 50.3951 61.3548 50.4238C61.3541 50.4527 61.3442 50.4807 61.3265 50.5035C61.3088 50.5264 61.2842 50.543 61.2564 50.5509C61.0539 50.6072 60.8808 50.7393 60.7729 50.9197C60.7573 50.9387 60.737 50.9533 60.7139 50.9619C60.6909 50.9706 60.666 50.9729 60.6417 50.9688Z" fill="#703838"/>
<path d="M62.7231 51.1492C62.7069 51.1529 62.6901 51.1529 62.6739 51.1492L61.1372 50.5428C61.1206 50.5369 61.1054 50.5277 61.0925 50.5157C61.0797 50.5037 61.0695 50.4891 61.0625 50.4729C61.0556 50.4567 61.0521 50.4393 61.0523 50.4217C61.0524 50.4041 61.0562 50.3867 61.0635 50.3706C61.0763 50.3378 61.1015 50.3112 61.1337 50.2967C61.1658 50.2821 61.2024 50.2807 61.2356 50.2928L62.7764 50.8993C62.8088 50.9137 62.8345 50.94 62.8482 50.9727C62.8619 51.0055 62.8626 51.0422 62.8501 51.0755C62.8383 51.0987 62.82 51.118 62.7975 51.1311C62.775 51.1442 62.7491 51.1505 62.7231 51.1492Z" fill="#703838"/>
</svg>
