<svg width="32" height="32" viewBox="0 0 32 32" fill="none" xmlns="http://www.w3.org/2000/svg">
<rect width="32" height="32" rx="8" fill="#E8E8E8"/>
<path d="M22 12.5H21V10.5C21 7.74 18.76 5.5 16 5.5C13.24 5.5 11 7.74 11 10.5H13C13 8.84 14.34 7.5 16 7.5C17.66 7.5 19 8.84 19 10.5V12.5H10C8.9 12.5 8 13.4 8 14.5V24.5C8 25.6 8.9 26.5 10 26.5H22C23.1 26.5 24 25.6 24 24.5V14.5C24 13.4 23.1 12.5 22 12.5ZM22 24.5H10V14.5H22V24.5ZM16 21.5C17.1 21.5 18 20.6 18 19.5C18 18.4 17.1 17.5 16 17.5C14.9 17.5 14 18.4 14 19.5C14 20.6 14.9 21.5 16 21.5Z" fill="#2C2C2C"/>
</svg>
