<svg width="175" height="179" viewBox="0 0 175 179" fill="none" xmlns="http://www.w3.org/2000/svg">
<path d="M172.439 79.8057C167.72 48.9139 148.37 10.9611 110.141 6.98928C110.141 6.98928 81.1162 3.45881 52.5041 8.80957C35.5227 11.9852 20.6326 21.4385 11.2107 35.0251C1.78873 48.6118 -1.35844 65.1788 2.46108 80.9735C4.94186 91.2323 6.61822 101.85 6.15813 112.391C5.35747 130.738 5.81813 147.863 23.623 158.804C39.5207 168.574 59.5281 177.19 78.6156 178.699C91.5872 179.725 106.134 178.065 118.636 174.688C182.351 157.477 177.159 110.698 172.439 79.8057Z" fill="#D1FAFF"/>
<path d="M108.293 159.774C107.354 159.468 105.581 157.975 105.279 157.395C103.271 153.537 99.0429 146.557 100.159 142.096C100.35 141.334 103.928 141.268 104.543 140.652C106.814 140.057 107.639 139.991 109.52 138.364C115.072 133.561 106.839 121.024 119.448 119.541C128.684 118.455 135.483 122.848 137.098 109.133C138.714 95.4178 154.102 72.7723 166.616 84.912C173.798 91.879 163.299 101.821 165.919 111.109C168.408 119.935 163.735 125.933 154.249 129.159C144.763 132.385 148.64 136.972 149.686 145.11C150.941 154.886 136.463 153.846 129.82 152.796C124.471 151.95 110.278 153.405 108.293 159.774Z" fill="url(#paint0_linear_2410_8270)"/>
<mask id="mask0_2410_8270" style="mask-type:luminance" maskUnits="userSpaceOnUse" x="98" y="81" width="72" height="81">
<path d="M98.2021 140.519C99.0661 147.252 99.6679 154.139 100.501 160.924C104.237 161.947 108.657 163.059 110.376 158.553C112.766 152.288 124.496 151.912 129.837 152.785C136.447 153.866 150.951 154.876 149.689 145.108C148.639 136.976 144.767 132.383 154.252 129.158C163.737 125.934 168.409 119.934 165.922 111.108C163.303 101.819 173.8 91.8824 166.619 84.9111C154.107 72.764 138.71 95.4306 137.104 109.127C135.499 122.824 128.657 118.507 119.459 119.527C106.902 120.92 114.944 133.786 109.58 138.247C105.375 141.744 102.82 140.478 98.2021 140.519Z" fill="white"/>
</mask>
<g mask="url(#mask0_2410_8270)">
<g opacity="0.8">
<path d="M102.769 150.163L102.71 149.947C118.385 145.659 132.323 136.684 143.018 123.994C153.194 111.919 160.301 96.7333 163.57 80.0793L163.79 80.1225C160.513 96.8138 153.389 112.034 143.189 124.138C132.465 136.863 118.488 145.863 102.769 150.163Z" fill="#FCFDFE"/>
<path d="M119.907 143.147L119.884 142.925C129.137 141.946 142.997 144.637 150.779 148.923L150.671 149.119C142.923 144.852 129.123 142.173 119.907 143.147Z" fill="#FCFDFE"/>
<path d="M108.876 148.417L108.76 148.226C112.87 145.717 115.555 141.227 116.739 134.88C117.607 130.225 117.664 124.698 116.906 118.453L117.128 118.426C117.889 124.694 117.832 130.244 116.959 134.921C115.763 141.333 113.043 145.874 108.876 148.417Z" fill="#FCFDFE"/>
<path d="M144.568 122.365L144.442 122.18C151.952 117.05 161.515 117.103 168.214 118.05L168.183 118.272C161.523 117.33 152.019 117.276 144.568 122.365Z" fill="#FCFDFE"/>
<path d="M155.69 104.767L155.474 104.709C156.598 100.46 157.552 91.5783 151.305 79.8352L151.503 79.73C157.786 91.5407 156.823 100.486 155.69 104.767Z" fill="#FCFDFE"/>
</g>
</g>
<mask id="mask1_2410_8270" style="mask-type:luminance" maskUnits="userSpaceOnUse" x="94" y="53" width="65" height="108">
<path d="M109.139 160.544C104.275 158.914 99.4358 157.171 94.6264 155.315C94.5322 155.374 94.8391 144.22 101.017 139.449C113.194 130.242 108.096 119.109 107.187 112.891C105.531 104.055 108.94 94.2868 117.715 97.8022C126.303 101.014 130.923 82.9774 131.911 68.6222C131.831 61.5348 139.786 54.3774 146.579 53.6324C153.543 52.7065 159.345 58.1931 158.914 72.2143C159.132 88.5769 145.881 96.0482 140.187 103.213C134.587 110.244 143.243 118.294 134.133 123.782C126.412 128.724 117.275 131.635 118.951 139.881C120.726 148.054 118.86 154.142 109.139 160.544Z" fill="white"/>
</mask>
<g mask="url(#mask1_2410_8270)">
<path d="M109.139 160.543C104.275 158.914 99.4358 157.171 94.6264 155.315C94.5322 155.374 94.8391 144.22 101.017 139.449C113.194 130.242 108.096 119.109 107.187 112.891C105.562 104.067 108.798 95.4065 117.237 96.7808C126.629 98.1225 131.087 82.9775 131.911 68.6222C131.831 61.5348 139.786 54.3774 146.579 53.6324C153.543 52.7065 159.345 58.1931 158.914 72.2142C159.132 88.5769 145.881 96.0483 140.187 103.213C134.587 110.244 143.243 118.294 134.133 123.782C126.412 128.724 117.275 131.635 118.951 139.881C120.726 148.054 118.86 154.142 109.139 160.543Z" fill="#D8DEE8"/>
</g>
<mask id="mask2_2410_8270" style="mask-type:luminance" maskUnits="userSpaceOnUse" x="94" y="53" width="65" height="108">
<path d="M109.139 160.544C104.275 158.914 99.4358 157.171 94.6264 155.315C94.5322 155.374 94.8391 144.22 101.017 139.449C113.194 130.242 108.096 119.109 107.187 112.891C105.531 104.055 108.94 94.2868 117.715 97.8022C126.303 101.014 130.923 82.9774 131.911 68.6222C131.831 61.5348 139.786 54.3774 146.579 53.6324C153.543 52.7065 159.345 58.1931 158.914 72.2143C159.132 88.5769 145.881 96.0482 140.187 103.213C134.587 110.244 143.243 118.294 134.133 123.782C126.412 128.724 117.275 131.635 118.951 139.881C120.726 148.054 118.86 154.142 109.139 160.544Z" fill="white"/>
</mask>
<g mask="url(#mask2_2410_8270)">
<g opacity="0.8">
<path d="M102.113 159.948C102.129 159.851 110.996 137.853 123.212 117.087C124.993 113.691 126.879 110.281 128.702 106.983C133.584 98.1532 138.632 89.0228 141.935 79.6247C145.627 69.1217 146.746 59.2673 145.356 49.4985L145.619 49.4612C147.014 59.2731 145.891 69.1685 142.185 79.7125C138.874 89.1316 133.821 98.2718 128.934 107.111C127.111 110.408 125.226 113.817 123.443 117.216C111.769 137.061 102.606 159.184 102.373 160L102.113 159.948Z" fill="#BEB8F2"/>
<path d="M137.973 89.9166L137.811 89.7075C144.488 84.517 152.782 76.926 157.239 72.8479C160.835 69.5566 160.849 69.5614 160.985 69.6082L160.899 69.8586L160.942 69.7334L160.98 69.8578C160.805 69.9431 159.31 71.3112 157.417 73.0433C152.958 77.1239 144.659 84.7194 137.973 89.9166Z" fill="#BEB8F2"/>
<path d="M141.129 81.7062C141.247 74.4297 139.172 69.2543 137.411 66.194C135.485 62.847 133.451 61.133 133.174 61.0314C133.173 61.0311 133.173 61.0309 133.172 61.0306C133.172 61.0308 133.203 61.0414 133.243 61.0239L133.137 60.7813C133.213 60.7484 133.29 60.784 133.405 60.8608C135.145 62.019 141.6 68.952 141.394 81.7106L141.129 81.7062Z" fill="#BEB8F2"/>
<path d="M115.711 130.738C117.676 124.286 117.409 116.918 114.918 108.84C113.618 104.626 111.756 100.393 109.384 96.2573C109.211 95.9559 109.151 95.8492 109.133 95.8006L109.382 95.7097C109.395 95.7444 109.496 95.921 109.614 96.1255C111.995 100.278 113.865 104.53 115.171 108.762C117.678 116.892 117.945 124.311 115.964 130.815L115.711 130.738Z" fill="#BEB8F2"/>
<path d="M119.452 124.282L119.255 124.105C126.978 115.501 139.721 117.081 139.865 117.134C139.865 117.134 139.865 117.134 139.865 117.135L139.94 117.274L139.828 117.386L139.809 117.256L139.776 117.382C139.657 117.357 127.131 115.726 119.452 124.282Z" fill="#BEB8F2"/>
<path d="M103.615 156.365C104.234 153.516 104.083 148.442 99.851 140.451C99.6154 140.006 99.6154 140.006 99.6377 139.938L99.7633 139.98L99.8908 139.949C99.9025 139.982 99.9871 140.142 100.085 140.327C104.354 148.388 104.502 153.529 103.873 156.421L103.615 156.365Z" fill="#BEB8F2"/>
<path d="M106.109 151.243L105.872 151.126C106.898 149.049 110.163 145.206 120.49 142.795C120.632 142.762 120.723 142.741 120.756 142.731L120.834 142.984C120.799 142.995 120.701 143.017 120.55 143.053C110.329 145.439 107.115 149.209 106.109 151.243Z" fill="#BEB8F2"/>
</g>
</g>
<path d="M42.2964 142.339C42.0184 144.638 41.5316 146.497 41.1556 148.73C50.5659 146.158 60.1091 145.403 69.6546 142.813C61.1952 133.272 54.3363 129.745 55.1618 114.983C55.5492 108.056 58.3424 94.5158 54.3619 88.6804C49.827 82.0324 45.0069 84.9786 45.0227 78.1646C45.0473 67.5145 37.8649 57.7715 24.8897 64.9307C12.0836 71.9966 20.3941 109.042 30.3175 117.54C37.3124 126.463 43.7476 130.335 42.2964 142.339Z" fill="#D8DEE8"/>
<mask id="mask3_2410_8270" style="mask-type:luminance" maskUnits="userSpaceOnUse" x="18" y="62" width="39" height="84">
<path d="M55.1934 113.822C55.3483 111.221 58.4499 93.1172 54.3782 88.4044C49.7393 83.0352 45.0444 84.637 45.0345 78.0467C45.0191 67.7463 37.8809 57.6916 24.8896 64.9055C12.0677 72.0253 20.4201 109.091 30.297 117.465C37.5028 127.367 43.4687 128.898 42.3947 143.048C41.6425 152.96 54.6112 123.602 55.1934 113.822Z" fill="white"/>
</mask>
<g mask="url(#mask3_2410_8270)">
<g opacity="0.8">
<path d="M55.6656 144.541C54.2286 141.241 52.5147 138.014 50.8572 134.892L50.2308 133.711C48.9024 131.203 47.7589 128.935 46.75 126.934C46.1817 125.807 45.6449 124.742 45.1161 123.714C43.5158 120.604 42.3856 118.421 41.8154 117.32C41.6162 116.936 41.4852 116.683 41.4265 116.569C37.0004 107.96 34.1532 94.6313 32.6234 87.4709C32.4577 86.6952 32.3096 86.0016 32.1789 85.4067C29.9342 75.189 26.3745 64.8258 21.5991 54.605L21.767 54.5266C26.5482 64.7597 30.1122 75.1359 32.3598 85.367C32.4906 85.9622 32.6388 86.6559 32.8046 87.4323C34.3326 94.5842 37.1764 107.897 41.5912 116.484C41.6499 116.598 41.7807 116.851 41.9799 117.235C42.5502 118.336 43.6805 120.519 45.2808 123.63C45.81 124.658 46.3469 125.723 46.9153 126.85C47.9238 128.851 49.067 131.118 50.3944 133.625L51.0209 134.805C52.68 137.93 54.3956 141.16 55.8354 144.468L55.6656 144.541Z" fill="#FCFDFE"/>
<path d="M47.3554 128.69C44.7014 122.862 43.932 114.947 45.1302 105.8C46.1283 98.1813 48.4915 89.9595 51.6138 83.2429L51.7817 83.321C48.667 90.0211 46.3095 98.2233 45.3139 105.824C44.1201 114.937 44.8843 122.817 47.5239 128.613L47.3554 128.69Z" fill="#FCFDFE"/>
<path d="M33.044 88.6286L32.8589 88.621C33.0886 83.0882 34.0192 77.5518 34.9192 72.1977C35.5351 68.5331 36.1721 64.7438 36.5792 60.9863L36.7634 61.0063C36.3555 64.7691 35.7182 68.5611 35.1018 72.2284C34.2028 77.5769 33.2731 83.1074 33.044 88.6286Z" fill="#FCFDFE"/>
<path d="M37.2768 106.03C32.9087 99.6857 24.1828 93.1724 18.6035 92.0911L18.6388 91.9092C24.2577 92.9982 33.0385 99.5473 37.4295 105.925L37.2768 106.03Z" fill="#FCFDFE"/>
</g>
</g>
<path d="M31.785 116.582C35.4664 127.878 41.855 124.617 50.1931 120.811C49.9631 131.873 50.1465 142.654 50.3705 153.593C44.7521 156.058 40.682 157.718 36.6441 151.459C32.0773 144.381 29.6766 140.144 20.4343 139.341C11.192 138.537 3.58136 132.693 5.59239 123.639C7.70877 114.111 -1.58983 103.103 5.31243 95.544C17.3394 82.3722 27.9516 104.82 31.785 116.582Z" fill="url(#paint1_linear_2410_8270)"/>
<mask id="mask4_2410_8270" style="mask-type:luminance" maskUnits="userSpaceOnUse" x="2" y="91" width="57" height="65">
<path d="M54.4227 151.028C48.5131 154.939 41.8579 159.393 36.5953 151.361C32.2142 144.675 29.6172 140.004 20.4206 139.318C11.224 138.632 3.57186 132.621 5.58671 123.641C7.7071 114.192 -1.57606 102.982 5.31315 95.5499C17.3171 82.6006 27.9807 104.405 31.7798 116.761C35.579 129.117 42.9211 122.588 50.9573 121.204C61.9284 119.314 59.1974 147.868 54.4227 151.028Z" fill="white"/>
</mask>
<g mask="url(#mask4_2410_8270)">
<g opacity="0.8">
<path d="M47.984 139.806C38.5324 136.492 30.7488 133.468 23.7826 127.313C17.1163 121.423 13.4117 114.676 11.3952 104.754C10.35 99.6119 9.0197 96.045 7.10938 91.1903L7.28173 91.1223C9.19563 95.9863 10.5285 99.5603 11.5767 104.717C13.5844 114.597 17.2715 121.313 23.9053 127.174C30.8462 133.307 38.613 136.324 48.0453 139.631L47.984 139.806Z" fill="#FCFDFE"/>
<path d="M38.303 155.472L38.147 155.372C39.9263 152.597 41.9203 150.279 44.2428 148.283C45.4313 147.262 46.6834 146.519 48.1978 145.718L48.2844 145.881C46.781 146.677 45.5389 147.414 44.3636 148.424C42.0548 150.407 40.0724 152.713 38.303 155.472Z" fill="#FCFDFE"/>
<path d="M4.3455 131.288L4.28564 131.112C12.5978 128.275 21.127 128.106 28.3017 130.637L28.2402 130.811C21.1043 128.295 12.6184 128.464 4.3455 131.288Z" fill="#FCFDFE"/>
<path d="M14.6515 115.208C14.4458 114.339 14.7653 106.85 15.133 100.131C15.5022 93.3853 15.9883 86.128 16.1626 85.6602L16.3363 85.7249C16.1881 86.1225 15.7312 92.5896 15.318 100.141C14.951 106.847 14.6305 114.315 14.8317 115.165L14.6515 115.208Z" fill="#FCFDFE"/>
</g>
</g>
<path d="M148.868 67.2178L148.825 66.6774C148.584 63.6671 145.968 61.4098 142.954 61.6117C141.381 61.7172 139.909 62.4241 138.844 63.5856L122.432 81.4735C120.176 83.9317 117.329 85.7711 114.161 86.8162L112.656 87.3126C110.527 88.0149 108.293 88.3453 106.052 88.2894L81.9623 87.6889L101.873 79.6161C104.341 78.6152 105.536 75.8073 104.545 73.3349L104.277 72.6651C103.445 70.5881 101.291 69.3554 99.0782 69.6835C91.2077 70.85 73.155 73.5786 65.4035 75.1891C57.9482 76.7379 47.5157 90.7415 42.6161 97.8842C40.8242 100.496 39.8584 103.552 39.8348 106.719C39.8075 110.323 41.6125 113.693 44.627 115.668L46.3352 116.787C49.5185 118.872 53.308 119.832 57.1002 119.514L105.206 115.482C111.369 114.966 117.022 111.854 120.755 106.924L147.644 71.4121C148.553 70.2116 148.989 68.7188 148.868 67.2178Z" fill="url(#paint2_linear_2410_8270)"/>
<path d="M61.5761 121.464L39.8704 96.0401C38.9549 94.9678 37.3437 94.8407 36.2714 95.7562L16.7522 112.421C15.6799 113.336 15.5529 114.947 16.4683 116.02L38.1741 141.444C39.0895 142.516 40.7008 142.643 41.7731 141.728L61.2922 125.063C62.3644 124.148 62.4916 122.536 61.5761 121.464Z" fill="url(#paint3_linear_2410_8270)"/>
<path d="M150.036 65.8179L149.992 65.2775C149.751 62.2672 147.135 60.0099 144.122 60.2118C142.549 60.3173 141.077 61.0242 140.011 62.1857L123.599 80.0736C121.344 82.5318 118.496 84.3712 115.328 85.4163L113.823 85.9127C111.694 86.615 109.46 86.9454 107.219 86.8895L83.1297 86.289L103.04 78.2162C105.508 77.2153 106.703 74.4074 105.712 71.935L105.444 71.2651C104.612 69.1882 102.459 67.9555 100.246 68.2836C92.3752 69.4501 74.3225 72.1787 66.571 73.7892C59.1156 75.338 48.6832 89.3416 43.7836 96.4843C41.9917 99.0966 41.0259 102.152 41.0023 105.319C40.975 108.923 42.78 112.293 45.7945 114.268L47.5027 115.387C50.686 117.472 54.4755 118.432 58.2677 118.114L106.374 114.082C112.536 113.566 118.189 110.454 121.922 105.524L148.811 70.0122C149.72 68.8117 150.156 67.319 150.036 65.8179Z" fill="url(#paint4_linear_2410_8270)"/>
<path d="M62.4596 123.664L42.9393 140.327C41.8686 141.244 40.2566 141.116 39.3399 140.045L17.6361 114.62C16.7193 113.547 16.8475 111.935 17.9184 111.021L19.108 110.006L37.4386 94.3559C38.5094 93.4414 40.1212 93.5673 41.0381 94.6404L43.2798 97.2672L60.8897 117.866L62.0118 119.152H62.014L62.7419 120.036C63.6586 121.106 63.5303 122.748 62.4596 123.664Z" fill="url(#paint5_linear_2410_8270)"/>
<path opacity="0.4" d="M62.4592 123.664L42.9388 140.327C41.8681 141.244 40.2561 141.116 39.3394 140.045L17.6356 114.62C16.7188 113.547 16.847 111.935 17.9179 111.021L19.1075 110.006C19.931 112.603 21.9465 114.996 27.0365 114.138C37.4172 112.388 37.9933 118.522 42.5492 120.99C48.0707 123.983 56.1351 119.805 62.0113 119.153H62.0135L62.7414 120.036C63.6582 121.107 63.5298 122.748 62.4592 123.664Z" fill="url(#paint6_linear_2410_8270)"/>
<path d="M54.1709 123.21C55.6915 123.21 56.9243 121.977 56.9243 120.457C56.9243 118.936 55.6915 117.703 54.1709 117.703C52.6502 117.703 51.4175 118.936 51.4175 120.457C51.4175 121.977 52.6502 123.21 54.1709 123.21Z" fill="url(#paint7_linear_2410_8270)"/>
<path d="M43.7373 130.601C45.2579 130.601 46.4907 129.368 46.4907 127.847C46.4907 126.326 45.2579 125.094 43.7373 125.094C42.2166 125.094 40.9839 126.326 40.9839 127.847C40.9839 129.368 42.2166 130.601 43.7373 130.601Z" fill="url(#paint8_linear_2410_8270)"/>
<path d="M100.758 49.6351C109.783 40.6104 109.783 25.9785 100.758 16.9538C91.7336 7.9291 77.1017 7.9291 68.077 16.9538C59.0523 25.9785 59.0523 40.6104 68.077 49.6351C77.1017 58.6598 91.7336 58.6598 100.758 49.6351Z" fill="white"/>
<path d="M84.4187 53.8222C95.756 53.8222 104.947 44.6314 104.947 33.2941C104.947 21.9568 95.756 12.7661 84.4187 12.7661C73.0813 12.7661 63.8906 21.9568 63.8906 33.2941C63.8906 44.6314 73.0813 53.8222 84.4187 53.8222Z" fill="url(#paint9_linear_2410_8270)"/>
<path d="M53.8684 67.5938C60.0242 61.438 60.0242 51.4575 53.8684 45.3017C47.7126 39.1459 37.7321 39.1459 31.5763 45.3017C25.4204 51.4575 25.4204 61.438 31.5763 67.5938C37.7321 73.7496 47.7126 73.7496 53.8684 67.5938Z" fill="white"/>
<path d="M42.724 70.4501C50.4572 70.4501 56.7262 64.1811 56.7262 56.4478C56.7262 48.7146 50.4572 42.4456 42.724 42.4456C34.9907 42.4456 28.7217 48.7146 28.7217 56.4478C28.7217 64.1811 34.9907 70.4501 42.724 70.4501Z" fill="url(#paint10_linear_2410_8270)"/>
<path d="M138.199 58.2342C144.355 52.0784 144.355 42.0979 138.199 35.9421C132.043 29.7862 122.063 29.7862 115.907 35.942C109.751 42.0979 109.751 52.0784 115.907 58.2342C122.063 64.39 132.043 64.39 138.199 58.2342Z" fill="white"/>
<path d="M127.054 61.0898C134.787 61.0898 141.056 54.8207 141.056 47.0875C141.056 39.3542 134.787 33.0852 127.054 33.0852C119.321 33.0852 113.052 39.3542 113.052 47.0875C113.052 54.8207 119.321 61.0898 127.054 61.0898Z" fill="url(#paint11_linear_2410_8270)"/>
<path d="M23.4332 163.571C21.4708 158.461 24.2406 150.086 25.9854 146.29C31.0708 135.226 40.4144 134.852 48.0747 134.546C55.5995 134.244 62.8635 133.954 68.1796 142.44C71.6525 147.984 74.846 158.154 72.7162 163.571C70.4763 169.269 64.2567 164.854 49.4647 164.776C33.1953 164.69 25.8837 169.953 23.4332 163.571Z" fill="#7AC1EC"/>
<path d="M55.1768 135.71C55.1768 137.103 51.7756 138.775 47.5801 138.775C43.3846 138.775 39.9834 137.103 39.9834 135.71C39.9834 134.317 43.3846 134.94 47.5801 134.94C51.7756 134.94 55.1768 134.317 55.1768 135.71Z" fill="url(#paint12_linear_2410_8270)"/>
<path d="M44.788 125.992C43.6329 125.992 46.2992 134.109 42.0999 135.223C41.6937 135.331 41.6271 135.877 41.9965 136.077C43.1238 136.688 45.2351 137.461 48.698 137.461C50.9475 137.461 52.593 136.612 53.4476 136.039C53.7399 135.842 53.7107 135.405 53.3979 135.244C52.1033 134.577 50.3062 132.455 50.8424 126.2L44.788 125.992Z" fill="url(#paint13_linear_2410_8270)"/>
<path d="M41.2788 116.262C41.2961 116.364 41.6454 123.772 43.3385 127.472C43.8245 128.534 46.2354 128.406 47.7955 128.278C49.1506 128.167 51.275 128.662 51.8733 127.726C54.2786 123.965 53.8708 114.648 53.8708 114.648C53.8708 114.648 52.6385 111.549 47.5851 111.634C42.5318 111.719 41.2788 116.262 41.2788 116.262Z" fill="url(#paint14_linear_2410_8270)"/>
<path d="M42.4608 120.24C42.4608 120.24 41.4037 119.012 40.4076 118.848C39.4115 118.684 38.7627 121.264 40.1215 122.943C41.4803 124.622 43.0511 123.23 43.0511 123.23L42.4608 120.24Z" fill="url(#paint15_linear_2410_8270)"/>
<path d="M52.7621 120.24C52.7621 120.24 53.8192 119.012 54.8153 118.848C55.8114 118.684 56.4603 121.264 55.1015 122.943C53.7426 124.622 52.1719 123.23 52.1719 123.23L52.7621 120.24Z" fill="url(#paint16_linear_2410_8270)"/>
<path d="M41.6326 120.148C41.7658 120.392 41.9182 120.62 42.0212 120.593C42.4484 120.482 40.8006 116.318 42.3184 114.861C43.1031 114.107 43.9869 114.794 47.2015 114.648C50.4386 114.502 51.2667 113.727 52.2452 114.321C53.1366 114.861 53.9345 116.404 53.2735 120.975C53.4575 120.933 53.6415 120.89 53.8255 120.848C53.5776 119.351 53.8481 118.406 54.1575 117.811C54.3831 117.376 54.7914 116.816 54.7597 116.007C54.74 115.506 54.5738 115.483 54.5465 115.073C54.4663 113.869 55.8399 113.545 55.9061 112.355C55.9571 111.44 55.1672 111.232 55.3116 110.275C55.4343 109.461 56.0512 109.309 55.9535 108.721C55.8482 108.086 55.0221 107.614 54.4421 107.45C53.8506 107.282 53.6368 107.468 53.2901 107.229C52.7298 106.842 52.999 106.156 52.594 105.901C51.8728 105.448 50.4391 107.259 49.5124 106.808C48.9513 106.535 49.1673 105.72 48.6707 105.523C47.711 105.141 46.0152 107.829 45.3331 107.472C45.0064 107.301 45.3214 106.647 44.8634 106.164C44.3256 105.598 43.0343 105.599 42.4457 106.198C41.8969 106.757 42.3629 107.424 41.782 108.132C41.2604 108.768 40.6579 108.506 40.0692 109.015C39.069 109.88 39.4172 111.838 39.5414 112.537C39.9691 114.942 41.3008 115.429 41.0019 117.069C40.9255 117.488 40.7475 117.955 40.8746 118.64C40.9994 119.312 41.348 119.818 41.6326 120.148Z" fill="url(#paint17_linear_2410_8270)"/>
<g opacity="0.3">
<path d="M53.9334 114.954C53.8152 113.771 54.7314 113.221 54.5776 112.377C54.454 111.7 53.6874 111.09 52.9673 110.96C51.4313 110.683 50.437 112.944 48.9096 112.699C47.7286 112.51 47.8594 111.083 46.5264 110.509C44.4136 109.6 42.199 112.372 40.794 111.604C40.3717 111.373 39.9448 110.78 39.9144 109.171C39.1087 110.097 39.4249 111.878 39.5421 112.537C39.9697 114.942 41.3015 115.429 41.0026 117.069C40.9261 117.488 40.7481 117.955 40.8752 118.64C40.9998 119.312 41.3484 119.818 41.633 120.148C41.7661 120.392 41.9187 120.62 42.0216 120.593C42.4488 120.482 40.801 116.318 42.3188 114.861C43.1035 114.107 43.9873 114.794 47.2019 114.648C50.439 114.502 51.2671 113.727 52.2456 114.321C53.137 114.861 53.9349 116.404 53.274 120.975C53.4579 120.933 53.6419 120.89 53.8259 120.848C53.5781 119.351 53.8485 118.406 54.1579 117.811C54.2508 117.632 54.3746 117.431 54.4861 117.201C54.4625 116.807 54.3956 116.374 54.2554 115.92C54.0911 115.387 53.9715 115.334 53.9334 114.954Z" fill="url(#paint18_linear_2410_8270)"/>
</g>
<path d="M120.646 146.955C110.328 145.288 108.053 144.133 107.001 142.018C105.473 138.948 106.584 133.976 109.2 130.914C111.495 128.227 114.361 127.698 114.278 125.835C114.209 124.302 112.244 124.106 110.802 121.226C110.382 120.385 109.566 118.755 109.921 116.79C110.441 113.913 113.097 112.401 113.312 112.282C116.092 110.755 117.678 112.51 119.775 111.14C122.4 109.425 121.21 105.825 123.672 104.779C125.466 104.018 127.76 105.222 128.358 105.536C130.357 106.584 130.147 107.649 131.835 108.3C133.817 109.063 134.764 107.849 137.07 108.333C138.975 108.733 140.356 110.049 141.482 111.373C144.016 114.351 142.756 116.122 144.628 119.799C147.265 124.978 151.251 124.382 151.959 128.539C152.329 130.713 151.379 131.699 152.108 135.029C152.601 137.279 153.222 137.683 153.332 139.006C153.648 142.813 149.085 146.143 148.234 146.728C142.826 150.445 135.359 149.332 120.646 146.955Z" fill="url(#paint19_linear_2410_8270)"/>
<path opacity="0.7" d="M137.408 137.008C130.455 136.509 125.763 142.771 123.905 141.214C122.145 139.739 127.118 134.76 125.418 128.936C123.751 123.223 117.22 122.036 117.736 118.819C118.319 115.177 127.08 114.229 126.874 111.543C126.752 109.958 123.651 109.624 123.032 107.109C122.864 106.427 122.92 105.75 123.096 105.117C121.392 106.452 122.166 109.578 119.775 111.14C117.678 112.51 116.092 110.754 113.312 112.282C113.097 112.4 110.441 113.913 109.921 116.789C109.566 118.754 110.382 120.385 110.802 121.225C112.244 124.106 114.209 124.302 114.278 125.835C114.361 127.698 111.495 128.227 109.2 130.914C106.584 133.976 105.473 138.947 107.001 142.018C108.053 144.133 110.328 145.288 120.646 146.955C135.359 149.332 142.826 150.444 148.234 146.727C150.333 145.284 152.811 142.817 153.343 140.616C152.281 141.554 151.241 142.01 150.271 142.18C145.76 142.974 143.678 137.458 137.408 137.008Z" fill="url(#paint20_linear_2410_8270)"/>
<path d="M109.149 160.198C107.602 156.392 108.545 150.454 108.744 149.202C109.519 144.317 111.349 141.294 112.016 140.219C116.598 132.837 123.593 132.906 128.891 132.958C131.519 132.984 134.247 132.933 137.589 134.117C137.589 134.117 140.239 135.055 142.484 136.618C149.217 141.303 154.563 156.643 149.101 162.378C145.634 166.019 142.089 161.297 126.83 163.376C120.759 164.203 114.397 165.635 110.635 162.374C110.014 161.836 109.526 161.126 109.149 160.198Z" fill="url(#paint21_linear_2410_8270)"/>
<path d="M126.108 123.992C126.108 123.992 127.226 132.005 121.567 133.593C120.915 133.776 120.715 134.603 121.209 135.067L128.186 141.625C128.609 142.022 129.275 141.995 129.665 141.565L135.997 134.569C136.412 134.11 136.23 133.378 135.649 133.165C133.617 132.416 129.98 130.242 130.742 124.378L126.108 123.992Z" fill="url(#paint22_linear_2410_8270)"/>
<path d="M122.639 119.545C122.641 119.632 124.165 127.45 128.08 127.45C131.789 127.45 133.198 121.693 133.657 119.004C133.705 118.547 133.754 118.09 133.803 117.633C133.55 117.715 132.924 117.883 132.175 117.68C132.005 117.634 130.929 117.342 130.529 116.454C130.084 115.466 130.903 114.679 130.436 113.815C130.166 113.314 129.621 113.08 129.205 112.96C129.482 113.365 130.019 114.271 129.716 115.095C129.512 115.647 128.941 116.177 127.667 116.5C124.024 117.423 122.604 117.774 122.639 119.545Z" fill="url(#paint23_linear_2410_8270)"/>
<path d="M123.597 120.48C123.597 120.48 121.579 118.773 121.403 119.818C121.037 121.995 122.762 123.196 123.699 122.545C124.635 121.895 123.597 120.48 123.597 120.48Z" fill="url(#paint24_linear_2410_8270)"/>
<path d="M132.492 120.48C132.492 120.48 134.509 118.773 134.685 119.818C135.052 121.995 133.326 123.196 132.39 122.545C131.453 121.895 132.492 120.48 132.492 120.48Z" fill="url(#paint25_linear_2410_8270)"/>
<path d="M89.5979 173.005C65.4274 173.191 56.9548 176.376 53.1159 171.137C49.5831 166.315 52.5099 149.006 56.7256 144.146C63.39 136.463 74.0884 136.086 88.7249 135.678C102.489 135.294 110.971 135.058 117.668 140.99C123.929 146.535 127.928 165.67 124.029 170.998C120.41 175.942 112.675 172.827 89.5979 173.005Z" fill="#21A8FB"/>
<path d="M82.7486 124.665C82.7486 124.665 84.3038 135.854 82.1533 136.922L88.2753 143.593L94.4766 135.691C94.4766 135.691 92.1324 133.926 92.7497 124.665H82.7486Z" fill="url(#paint26_linear_2410_8270)"/>
<path d="M79.1371 108.651C78.916 108.95 76.0429 123.048 85.986 124.523C95.9291 125.998 96.3674 115.578 96.2409 111.158C96.1143 106.737 91.5656 105.132 88.9629 104.823C86.3601 104.515 79.9218 107.589 79.1371 108.651Z" fill="url(#paint27_linear_2410_8270)"/>
<path d="M78.5608 116.882C78.5608 116.882 78.0631 114.578 76.3598 116.015C74.6565 117.452 77.3652 121.265 79.5995 121.108L78.5608 116.882Z" fill="url(#paint28_linear_2410_8270)"/>
<path d="M95.9345 115.277C95.6486 115.47 94.8281 120.88 94.8281 120.88C94.8281 120.88 96.2635 121.048 97.3026 119.106C98.3417 117.164 98.8413 113.311 95.9345 115.277Z" fill="url(#paint29_linear_2410_8270)"/>
<path d="M99.8431 104.942C98.7956 103.205 96.1497 104.028 95.3774 102.352C94.7286 100.944 96.2536 99.6197 95.4355 98.4029C94.7511 97.3852 93.0783 97.4106 92.7809 97.4151C90.5203 97.4495 90.0029 99.2392 88.3912 99.1987C86.423 99.1492 86.3463 96.4587 83.7439 95.3259C81.2185 94.2267 77.5278 95.1221 76.036 97.1833C74.8765 98.7855 75.8629 99.9631 74.3425 102.021C73.2966 103.437 72.3721 103.5 71.8527 104.885C71.3649 106.186 71.695 107.426 71.9531 108.346C72.5718 110.553 73.7254 111.527 75.4682 113.875C76.2489 114.927 77.3193 116.486 78.4243 118.539C78.8871 119.775 79.5497 121.688 80.1628 124.105C80.7205 126.304 80.6867 126.749 81.2079 127.462C83.0043 129.917 87.1045 129.679 88.8298 129.579C90.8081 129.465 93.2706 129.322 94.5095 127.604C95.1792 126.675 95.095 125.835 95.2503 123.591C95.3612 121.989 95.5901 119.741 96.1103 117.014C96.1203 117.015 96.3417 115.764 96.9188 114.225C97.6397 112.302 98.3881 111.996 99.2013 110.009C99.8535 108.416 100.696 106.358 99.8431 104.942ZM91.6078 119.949C90.3854 120.278 89.5607 119.982 87.9037 119.887C84.5897 119.696 83.5418 121.248 81.9771 120.566C81.3248 120.282 79.8164 119.485 79.497 117.96C79.3123 116.971 79.1824 115.619 79.3945 114.054C79.6537 112.143 79.9529 109.937 81.4843 108.962C83.7065 107.547 86.5446 109.982 88.5828 108.404C89.362 107.801 89.6753 106.881 89.8175 106.182C90.2702 106.338 93.8699 107.646 95.1949 111.49C96.0118 113.859 95.5437 115.972 95.146 117.12C94.3998 118.246 93.261 119.502 91.6078 119.949Z" fill="url(#paint30_linear_2410_8270)"/>
<path d="M84.7334 122.278C86.0121 122.675 87.9362 122.943 90.0913 122.127C90.3151 122.042 90.5062 122.286 90.3195 122.419C89.5491 122.967 88.4239 123.549 87.2 123.458C86.1885 123.383 85.2596 122.993 84.544 122.587C84.3389 122.471 84.501 122.206 84.7334 122.278Z" fill="url(#paint31_linear_2410_8270)"/>
<path d="M85.5352 140.607C85.5352 140.607 86.6486 144.54 87.7671 144.615C88.8856 144.689 89.7059 144.838 89.7059 144.838L90.957 140.167C90.957 140.167 88.9282 141.382 85.5352 140.607Z" fill="url(#paint32_linear_2410_8270)"/>
<path d="M87.4209 144.474L83.8965 168.161L87.6596 171.317L92.813 167.924L89.706 144.838L87.4209 144.474Z" fill="url(#paint33_linear_2410_8270)"/>
<defs>
<linearGradient id="paint0_linear_2410_8270" x1="174.372" y1="100.797" x2="29.673" y2="198.467" gradientUnits="userSpaceOnUse">
<stop stop-color="#FF9085"/>
<stop offset="1" stop-color="#FB6FBB"/>
</linearGradient>
<linearGradient id="paint1_linear_2410_8270" x1="6.90318" y1="111.484" x2="80.9663" y2="153.848" gradientUnits="userSpaceOnUse">
<stop offset="0.0036" stop-color="#E38DDD"/>
<stop offset="1" stop-color="#9571F6"/>
</linearGradient>
<linearGradient id="paint2_linear_2410_8270" x1="41.1961" y1="152.12" x2="83.507" y2="99.777" gradientUnits="userSpaceOnUse">
<stop stop-color="#FFC444"/>
<stop offset="0.129" stop-color="#FDB946"/>
<stop offset="0.1674" stop-color="#FDB647"/>
<stop offset="0.9964" stop-color="#F36F56"/>
</linearGradient>
<linearGradient id="paint3_linear_2410_8270" x1="33.72" y1="143.254" x2="47.9497" y2="77.4703" gradientUnits="userSpaceOnUse">
<stop offset="0.0036" stop-color="#6165D7"/>
<stop offset="1" stop-color="#AA80F9"/>
</linearGradient>
<linearGradient id="paint4_linear_2410_8270" x1="110.096" y1="53.8378" x2="-19.5917" y2="329.411" gradientUnits="userSpaceOnUse">
<stop stop-color="#ECC133"/>
<stop offset="0.9964" stop-color="#F36F56"/>
</linearGradient>
<linearGradient id="paint5_linear_2410_8270" x1="40.6063" y1="132.835" x2="44.8184" y2="289.284" gradientUnits="userSpaceOnUse">
<stop offset="0.0036" stop-color="#6165D7"/>
<stop offset="1" stop-color="#AA80F9"/>
</linearGradient>
<linearGradient id="paint6_linear_2410_8270" x1="40.063" y1="112.672" x2="42.8735" y2="217.063" gradientUnits="userSpaceOnUse">
<stop offset="0.0036" stop-color="#6165D7"/>
<stop offset="1" stop-color="#AA80F9"/>
</linearGradient>
<linearGradient id="paint7_linear_2410_8270" x1="25.6804" y1="141.009" x2="60.1548" y2="116.14" gradientUnits="userSpaceOnUse">
<stop offset="0.0036" stop-color="#6165D7"/>
<stop offset="1" stop-color="#AA80F9"/>
</linearGradient>
<linearGradient id="paint8_linear_2410_8270" x1="25.6163" y1="140.919" x2="60.0907" y2="116.05" gradientUnits="userSpaceOnUse">
<stop offset="0.0036" stop-color="#6165D7"/>
<stop offset="1" stop-color="#AA80F9"/>
</linearGradient>
<linearGradient id="paint9_linear_2410_8270" x1="69.6225" y1="6.4702" x2="121.373" y2="100.289" gradientUnits="userSpaceOnUse">
<stop stop-color="#FFC444"/>
<stop offset="0.9964" stop-color="#F36F56"/>
</linearGradient>
<linearGradient id="paint10_linear_2410_8270" x1="32.6314" y1="38.151" x2="67.931" y2="102.146" gradientUnits="userSpaceOnUse">
<stop stop-color="#FFC444"/>
<stop offset="0.9964" stop-color="#F36F56"/>
</linearGradient>
<linearGradient id="paint11_linear_2410_8270" x1="116.962" y1="28.7907" x2="152.261" y2="92.7855" gradientUnits="userSpaceOnUse">
<stop stop-color="#FFC444"/>
<stop offset="0.9964" stop-color="#F36F56"/>
</linearGradient>
<linearGradient id="paint12_linear_2410_8270" x1="47.6401" y1="139.375" x2="47.4469" y2="127.588" gradientUnits="userSpaceOnUse">
<stop stop-color="#AA80F9"/>
<stop offset="0.9964" stop-color="#6165D7"/>
</linearGradient>
<linearGradient id="paint13_linear_2410_8270" x1="47.7331" y1="140.595" x2="47.6686" y2="130.284" gradientUnits="userSpaceOnUse">
<stop stop-color="#AB316D"/>
<stop offset="1" stop-color="#792D3D"/>
</linearGradient>
<linearGradient id="paint14_linear_2410_8270" x1="46.8782" y1="125.842" x2="48.5529" y2="105.681" gradientUnits="userSpaceOnUse">
<stop stop-color="#AB316D"/>
<stop offset="1" stop-color="#792D3D"/>
</linearGradient>
<linearGradient id="paint15_linear_2410_8270" x1="40.9122" y1="125.346" x2="42.5868" y2="105.186" gradientUnits="userSpaceOnUse">
<stop stop-color="#AB316D"/>
<stop offset="1" stop-color="#792D3D"/>
</linearGradient>
<linearGradient id="paint16_linear_2410_8270" x1="53.6606" y1="126.405" x2="55.3352" y2="106.245" gradientUnits="userSpaceOnUse">
<stop stop-color="#AB316D"/>
<stop offset="1" stop-color="#792D3D"/>
</linearGradient>
<linearGradient id="paint17_linear_2410_8270" x1="46.4345" y1="116.121" x2="50.8787" y2="102.338" gradientUnits="userSpaceOnUse">
<stop stop-color="#311944"/>
<stop offset="1" stop-color="#6B3976"/>
</linearGradient>
<linearGradient id="paint18_linear_2410_8270" x1="46.4353" y1="116.121" x2="50.8795" y2="102.338" gradientUnits="userSpaceOnUse">
<stop stop-color="#311944"/>
<stop offset="1" stop-color="#6B3976"/>
</linearGradient>
<linearGradient id="paint19_linear_2410_8270" x1="145.345" y1="101.61" x2="132.986" y2="125.813" gradientUnits="userSpaceOnUse">
<stop stop-color="#AB316D"/>
<stop offset="1" stop-color="#792D3D"/>
</linearGradient>
<linearGradient id="paint20_linear_2410_8270" x1="145.325" y1="101.777" x2="133.002" y2="125.91" gradientUnits="userSpaceOnUse">
<stop stop-color="#AB316D"/>
<stop offset="1" stop-color="#792D3D"/>
</linearGradient>
<linearGradient id="paint21_linear_2410_8270" x1="133.181" y1="179.57" x2="127.199" y2="136.197" gradientUnits="userSpaceOnUse">
<stop offset="0.0036" stop-color="#AD8DE3"/>
<stop offset="1" stop-color="#71B6F6"/>
</linearGradient>
<linearGradient id="paint22_linear_2410_8270" x1="128.971" y1="142.735" x2="128.112" y2="124.099" gradientUnits="userSpaceOnUse">
<stop stop-color="#FFC444"/>
<stop offset="0.9964" stop-color="#F36F56"/>
</linearGradient>
<linearGradient id="paint23_linear_2410_8270" x1="128.017" y1="126.345" x2="128.346" y2="113.738" gradientUnits="userSpaceOnUse">
<stop stop-color="#FFC444"/>
<stop offset="0.9964" stop-color="#F36F56"/>
</linearGradient>
<linearGradient id="paint24_linear_2410_8270" x1="122.618" y1="125.034" x2="122.919" y2="113.526" gradientUnits="userSpaceOnUse">
<stop stop-color="#FFC444"/>
<stop offset="0.9964" stop-color="#F36F56"/>
</linearGradient>
<linearGradient id="paint25_linear_2410_8270" x1="133.257" y1="125.312" x2="133.558" y2="113.804" gradientUnits="userSpaceOnUse">
<stop stop-color="#FFC444"/>
<stop offset="0.9964" stop-color="#F36F56"/>
</linearGradient>
<linearGradient id="paint26_linear_2410_8270" x1="88.6549" y1="138.517" x2="91.3082" y2="155.763" gradientUnits="userSpaceOnUse">
<stop stop-color="#FFC444"/>
<stop offset="0.9964" stop-color="#F36F56"/>
</linearGradient>
<linearGradient id="paint27_linear_2410_8270" x1="87.4317" y1="112.158" x2="86.7684" y2="155.936" gradientUnits="userSpaceOnUse">
<stop stop-color="#FFC444"/>
<stop offset="0.9964" stop-color="#F36F56"/>
</linearGradient>
<linearGradient id="paint28_linear_2410_8270" x1="76.7743" y1="109.73" x2="81.0751" y2="153.302" gradientUnits="userSpaceOnUse">
<stop stop-color="#FFC444"/>
<stop offset="0.9964" stop-color="#F36F56"/>
</linearGradient>
<linearGradient id="paint29_linear_2410_8270" x1="96.5663" y1="112.296" x2="95.9029" y2="156.074" gradientUnits="userSpaceOnUse">
<stop stop-color="#FFC444"/>
<stop offset="0.9964" stop-color="#F36F56"/>
</linearGradient>
<linearGradient id="paint30_linear_2410_8270" x1="71.602" y1="112.244" x2="100.204" y2="112.244" gradientUnits="userSpaceOnUse">
<stop stop-color="#444B8C"/>
<stop offset="0.9964" stop-color="#3E4177"/>
</linearGradient>
<linearGradient id="paint31_linear_2410_8270" x1="89.5301" y1="104.172" x2="87.6781" y2="120.162" gradientUnits="userSpaceOnUse">
<stop stop-color="#FFC444"/>
<stop offset="0.9964" stop-color="#F36F56"/>
</linearGradient>
<linearGradient id="paint32_linear_2410_8270" x1="87.3787" y1="127.679" x2="88.87" y2="149.527" gradientUnits="userSpaceOnUse">
<stop stop-color="#444B8C"/>
<stop offset="0.9964" stop-color="#26264F"/>
</linearGradient>
<linearGradient id="paint33_linear_2410_8270" x1="88.3548" y1="162.264" x2="88.3548" y2="129.804" gradientUnits="userSpaceOnUse">
<stop stop-color="#444B8C"/>
<stop offset="0.9964" stop-color="#26264F"/>
</linearGradient>
</defs>
</svg>
