<svg width="33" height="32" viewBox="0 0 33 32" fill="none" xmlns="http://www.w3.org/2000/svg">
<rect x="0.5" width="32" height="32" rx="8" fill="#E8E8E8"/>
<path d="M16.5 7C16.2045 7 15.9119 7.0582 15.639 7.17127C15.366 7.28434 15.1179 7.45008 14.909 7.65901C14.7001 7.86794 14.5343 8.11598 14.4213 8.38896C14.3082 8.66194 14.25 8.95453 14.25 9.25C14.25 9.54547 14.3082 9.83806 14.4213 10.111C14.5343 10.384 14.7001 10.6321 14.909 10.841C15.1179 11.0499 15.366 11.2157 15.639 11.3287C15.9119 11.4418 16.2045 11.5 16.5 11.5C17.0967 11.5 17.669 11.2629 18.091 10.841C18.5129 10.419 18.75 9.84674 18.75 9.25C18.75 8.65326 18.5129 8.08097 18.091 7.65901C17.669 7.23705 17.0967 7 16.5 7ZM12.75 9.25C12.75 8.25544 13.1451 7.30161 13.8483 6.59835C14.5516 5.89509 15.5054 5.5 16.5 5.5C17.4946 5.5 18.4484 5.89509 19.1517 6.59835C19.8549 7.30161 20.25 8.25544 20.25 9.25C20.25 10.2446 19.8549 11.1984 19.1517 11.9017C18.4484 12.6049 17.4946 13 16.5 13C15.5054 13 14.5516 12.6049 13.8483 11.9017C13.1451 11.1984 12.75 10.2446 12.75 9.25ZM10.5 16.75C10.501 16.476 10.529 16.211 10.584 15.955L7.668 16.735C7.38254 16.8116 7.11496 16.9436 6.88055 17.1236C6.64614 17.3037 6.44949 17.5281 6.30184 17.7841C6.15419 18.0401 6.05842 18.3227 6.02001 18.6158C5.98161 18.9088 6.00131 19.2066 6.078 19.492L6.66 21.6655C6.81647 22.2487 7.08872 22.7944 7.46052 23.2702C7.83233 23.746 8.29608 24.1421 8.82417 24.4349C9.35225 24.7277 9.93386 24.9112 10.5344 24.9746C11.1349 25.0379 11.742 24.9797 12.3195 24.8035C11.9183 24.4144 11.5735 23.9711 11.295 23.4865C10.5884 23.5547 9.88047 23.3701 9.29711 22.9656C8.71376 22.561 8.29277 21.9627 8.109 21.277L7.5255 19.102C7.47421 18.9099 7.50134 18.7052 7.60091 18.533C7.70049 18.3609 7.86437 18.2353 8.0565 18.184L10.5 17.53V16.75ZM20.829 24.847L20.679 24.805C21.0795 24.415 21.426 23.9725 21.705 23.4865C22.4116 23.5547 23.1195 23.3701 23.7029 22.9656C24.2862 22.561 24.7072 21.9627 24.891 21.277L25.473 19.102C25.5243 18.9101 25.4974 18.7056 25.3981 18.5335C25.2989 18.3614 25.1354 18.2357 24.9435 18.184L22.5 17.53V16.75C22.499 16.476 22.471 16.211 22.416 15.955L25.3305 16.735C25.6161 16.8114 25.8838 16.9434 26.1184 17.1233C26.353 17.3032 26.5498 17.5276 26.6976 17.7837C26.8454 18.0397 26.9413 18.3224 26.9798 18.6155C27.0183 18.9086 26.9987 19.2065 26.922 19.492L26.34 21.6655C26.0307 22.8179 25.2764 23.8002 24.2429 24.3965C23.2095 24.9929 21.9815 25.1559 20.829 24.847ZM7.5 11.5C7.5 11.1022 7.65804 10.7206 7.93934 10.4393C8.22064 10.158 8.60218 10 9 10C9.39782 10 9.77936 10.158 10.0607 10.4393C10.342 10.7206 10.5 11.1022 10.5 11.5C10.5 11.8978 10.342 12.2794 10.0607 12.5607C9.77936 12.842 9.39782 13 9 13C8.60218 13 8.22064 12.842 7.93934 12.5607C7.65804 12.2794 7.5 11.8978 7.5 11.5ZM9 8.5C8.20435 8.5 7.44129 8.81607 6.87868 9.37868C6.31607 9.94129 6 10.7044 6 11.5C6 12.2956 6.31607 13.0587 6.87868 13.6213C7.44129 14.1839 8.20435 14.5 9 14.5C9.79565 14.5 10.5587 14.1839 11.1213 13.6213C11.6839 13.0587 12 12.2956 12 11.5C12 10.7044 11.6839 9.94129 11.1213 9.37868C10.5587 8.81607 9.79565 8.5 9 8.5ZM24 10C23.6022 10 23.2206 10.158 22.9393 10.4393C22.658 10.7206 22.5 11.1022 22.5 11.5C22.5 11.8978 22.658 12.2794 22.9393 12.5607C23.2206 12.842 23.6022 13 24 13C24.3978 13 24.7794 12.842 25.0607 12.5607C25.342 12.2794 25.5 11.8978 25.5 11.5C25.5 11.1022 25.342 10.7206 25.0607 10.4393C24.7794 10.158 24.3978 10 24 10ZM21 11.5C21 10.7044 21.3161 9.94129 21.8787 9.37868C22.4413 8.81607 23.2044 8.5 24 8.5C24.7956 8.5 25.5587 8.81607 26.1213 9.37868C26.6839 9.94129 27 10.7044 27 11.5C27 12.2956 26.6839 13.0587 26.1213 13.6213C25.5587 14.1839 24.7956 14.5 24 14.5C23.2044 14.5 22.4413 14.1839 21.8787 13.6213C21.3161 13.0587 21 12.2956 21 11.5ZM14.25 14.5C13.6533 14.5 13.081 14.7371 12.659 15.159C12.2371 15.581 12 16.1533 12 16.75V20.5C12 21.6935 12.4741 22.8381 13.318 23.682C14.1619 24.5259 15.3065 25 16.5 25C17.6935 25 18.8381 24.5259 19.682 23.682C20.5259 22.8381 21 21.6935 21 20.5V16.75C21 16.1533 20.7629 15.581 20.341 15.159C19.919 14.7371 19.3467 14.5 18.75 14.5H14.25ZM13.5 16.75C13.5 16.5511 13.579 16.3603 13.7197 16.2197C13.8603 16.079 14.0511 16 14.25 16H18.75C18.9489 16 19.1397 16.079 19.2803 16.2197C19.421 16.3603 19.5 16.5511 19.5 16.75V20.5C19.5 21.2956 19.1839 22.0587 18.6213 22.6213C18.0587 23.1839 17.2956 23.5 16.5 23.5C15.7044 23.5 14.9413 23.1839 14.3787 22.6213C13.8161 22.0587 13.5 21.2956 13.5 20.5V16.75Z" fill="#2C2C2C"/>
</svg>
