<svg width="25" height="25" viewBox="0 0 25 25" fill="none" xmlns="http://www.w3.org/2000/svg">
<path d="M12.8994 3.5C12.6039 3.5 12.3114 3.5582 12.0384 3.67127C11.7654 3.78434 11.5174 3.95008 11.3084 4.15901C11.0995 4.36794 10.9338 4.61598 10.8207 4.88896C10.7076 5.16194 10.6494 5.45453 10.6494 5.75C10.6494 6.04547 10.7076 6.33806 10.8207 6.61104C10.9338 6.88402 11.0995 7.13206 11.3084 7.34099C11.5174 7.54992 11.7654 7.71566 12.0384 7.82873C12.3114 7.9418 12.6039 8 12.8994 8C13.4962 8 14.0684 7.76295 14.4904 7.34099C14.9124 6.91903 15.1494 6.34674 15.1494 5.75C15.1494 5.15326 14.9124 4.58097 14.4904 4.15901C14.0684 3.73705 13.4962 3.5 12.8994 3.5ZM9.14941 5.75C9.14941 4.75544 9.5445 3.80161 10.2478 3.09835C10.951 2.39509 11.9049 2 12.8994 2C13.894 2 14.8478 2.39509 15.5511 3.09835C16.2543 3.80161 16.6494 4.75544 16.6494 5.75C16.6494 6.74456 16.2543 7.69839 15.5511 8.40165C14.8478 9.10491 13.894 9.5 12.8994 9.5C11.9049 9.5 10.951 9.10491 10.2478 8.40165C9.5445 7.69839 9.14941 6.74456 9.14941 5.75ZM6.89941 13.25C6.90041 12.976 6.92841 12.711 6.98341 12.455L4.06741 13.235C3.78195 13.3116 3.51438 13.4436 3.27997 13.6236C3.04556 13.8037 2.84891 14.0281 2.70126 14.2841C2.5536 14.5401 2.45784 14.8227 2.41943 15.1158C2.38102 15.4088 2.40072 15.7066 2.47741 15.992L3.05941 18.1655C3.21589 18.7487 3.48814 19.2944 3.85994 19.7702C4.23174 20.246 4.6955 20.6421 5.22358 20.9349C5.75166 21.2277 6.33328 21.4112 6.93377 21.4746C7.53427 21.5379 8.14137 21.4797 8.71891 21.3035C8.31774 20.9144 7.97291 20.4711 7.69441 19.9865C6.98779 20.0547 6.27988 19.8701 5.69653 19.4656C5.11318 19.061 4.69219 18.4627 4.50841 17.777L3.92491 15.602C3.87362 15.4099 3.90075 15.2052 4.00033 15.033C4.09991 14.8609 4.26378 14.7353 4.45591 14.684L6.89941 14.03V13.25ZM17.2284 21.347L17.0784 21.305C17.4789 20.915 17.8254 20.4725 18.1044 19.9865C18.811 20.0547 19.5189 19.8701 20.1023 19.4656C20.6857 19.061 21.1066 18.4627 21.2904 17.777L21.8724 15.602C21.9238 15.4101 21.8968 15.2056 21.7976 15.0335C21.6983 14.8614 21.5348 14.7357 21.3429 14.684L18.8994 14.03V13.25C18.8984 12.976 18.8704 12.711 18.8154 12.455L21.7299 13.235C22.0155 13.3114 22.2832 13.4434 22.5178 13.6233C22.7524 13.8032 22.9492 14.0276 23.097 14.2837C23.2448 14.5397 23.3407 14.8224 23.3792 15.1155C23.4177 15.4086 23.3981 15.7065 23.3214 15.992L22.7394 18.1655C22.4301 19.3179 21.6758 20.3002 20.6423 20.8965C19.6089 21.4929 18.3809 21.6559 17.2284 21.347ZM3.89941 8C3.89941 7.60218 4.05745 7.22064 4.33875 6.93934C4.62006 6.65804 5.00159 6.5 5.39941 6.5C5.79724 6.5 6.17877 6.65804 6.46007 6.93934C6.74138 7.22064 6.89941 7.60218 6.89941 8C6.89941 8.39782 6.74138 8.77936 6.46007 9.06066C6.17877 9.34196 5.79724 9.5 5.39941 9.5C5.00159 9.5 4.62006 9.34196 4.33875 9.06066C4.05745 8.77936 3.89941 8.39782 3.89941 8ZM5.39941 5C4.60376 5 3.8407 5.31607 3.27809 5.87868C2.71548 6.44129 2.39941 7.20435 2.39941 8C2.39941 8.79565 2.71548 9.55871 3.27809 10.1213C3.8407 10.6839 4.60376 11 5.39941 11C6.19506 11 6.95813 10.6839 7.52073 10.1213C8.08334 9.55871 8.39941 8.79565 8.39941 8C8.39941 7.20435 8.08334 6.44129 7.52073 5.87868C6.95813 5.31607 6.19506 5 5.39941 5ZM20.3994 6.5C20.0016 6.5 19.6201 6.65804 19.3388 6.93934C19.0574 7.22064 18.8994 7.60218 18.8994 8C18.8994 8.39782 19.0574 8.77936 19.3388 9.06066C19.6201 9.34196 20.0016 9.5 20.3994 9.5C20.7972 9.5 21.1788 9.34196 21.4601 9.06066C21.7414 8.77936 21.8994 8.39782 21.8994 8C21.8994 7.60218 21.7414 7.22064 21.4601 6.93934C21.1788 6.65804 20.7972 6.5 20.3994 6.5ZM17.3994 8C17.3994 7.20435 17.7155 6.44129 18.2781 5.87868C18.8407 5.31607 19.6038 5 20.3994 5C21.1951 5 21.9581 5.31607 22.5207 5.87868C23.0833 6.44129 23.3994 7.20435 23.3994 8C23.3994 8.79565 23.0833 9.55871 22.5207 10.1213C21.9581 10.6839 21.1951 11 20.3994 11C19.6038 11 18.8407 10.6839 18.2781 10.1213C17.7155 9.55871 17.3994 8.79565 17.3994 8ZM10.6494 11C10.0527 11 9.48038 11.2371 9.05842 11.659C8.63647 12.081 8.39941 12.6533 8.39941 13.25V17C8.39941 18.1935 8.87352 19.3381 9.71743 20.182C10.5613 21.0259 11.7059 21.5 12.8994 21.5C14.0929 21.5 15.2375 21.0259 16.0814 20.182C16.9253 19.3381 17.3994 18.1935 17.3994 17V13.25C17.3994 12.6533 17.1624 12.081 16.7404 11.659C16.3184 11.2371 15.7462 11 15.1494 11H10.6494ZM9.89941 13.25C9.89941 13.0511 9.97843 12.8603 10.1191 12.7197C10.2597 12.579 10.4505 12.5 10.6494 12.5H15.1494C15.3483 12.5 15.5391 12.579 15.6797 12.7197C15.8204 12.8603 15.8994 13.0511 15.8994 13.25V17C15.8994 17.7956 15.5833 18.5587 15.0207 19.1213C14.4581 19.6839 13.6951 20 12.8994 20C12.1038 20 11.3407 19.6839 10.7781 19.1213C10.2155 18.5587 9.89941 17.7956 9.89941 17V13.25Z" fill="#777777"/>
</svg>
