<svg width="156" height="156" viewBox="0 0 156 156" fill="none" xmlns="http://www.w3.org/2000/svg">
<path d="M78 156C121.078 156 156 121.078 156 78C156 34.9218 121.078 0 78 0C34.9218 0 0 34.9218 0 78C0 121.078 34.9218 156 78 156Z" fill="#C4E7C2"/>
<path fill-rule="evenodd" clip-rule="evenodd" d="M77.9804 128.77C105.953 128.77 128.768 105.955 128.768 77.9837C128.768 50.0451 105.953 27.2302 77.9804 27.2302C50.0441 27.2302 27.229 50.0453 27.229 77.9837C27.229 105.955 50.0441 128.77 77.9804 128.77Z" fill="#FF313A"/>
<path fill-rule="evenodd" clip-rule="evenodd" d="M77.9818 119.172C100.69 119.172 119.171 100.69 119.171 77.9836C119.171 55.3102 100.69 36.8286 77.9818 36.8286C55.3104 36.8286 36.8281 55.3102 36.8281 77.9836C36.8281 100.69 55.3104 119.172 77.9818 119.172Z" fill="#FDFDFD"/>
<path fill-rule="evenodd" clip-rule="evenodd" d="M77.9801 110.074C95.6738 110.074 110.072 95.6764 110.072 77.9837C110.072 60.324 95.6738 45.9263 77.9801 45.9263C60.323 45.9263 45.9243 60.324 45.9243 77.9837C45.9243 95.6764 60.323 110.074 77.9801 110.074Z" fill="#FF313A"/>
<path fill-rule="evenodd" clip-rule="evenodd" d="M77.9808 100.046C90.1588 100.046 100.044 90.1596 100.044 77.9839C100.044 65.8404 90.1588 55.9553 77.9808 55.9553C65.8394 55.9553 55.9536 65.8402 55.9536 77.9839C55.9536 90.1596 65.8394 100.046 77.9808 100.046Z" fill="#FDFDFD"/>
<path fill-rule="evenodd" clip-rule="evenodd" d="M50.5341 76.6399L96.6664 57.2983C97.0956 57.1194 97.598 57.3344 97.7764 57.7645L106.551 78.7174C106.73 79.1475 106.551 79.6485 106.122 79.8274L59.9898 99.1689C59.524 99.3482 59.0226 99.1323 58.8442 98.7022L50.0683 77.785C49.889 77.3559 50.104 76.8549 50.5341 76.6399Z" fill="#6BC06F"/>
<path fill-rule="evenodd" clip-rule="evenodd" d="M52.9345 77.5353L95.6281 59.6623C95.9859 59.4839 96.4169 59.6623 96.5953 60.0571L104.118 77.9653C104.261 78.3587 104.081 78.7897 103.723 78.9329L61.0295 96.8408C60.6352 96.984 60.2051 96.8047 60.0623 96.4477L52.5409 78.5025C52.3983 78.1443 52.5767 77.7137 52.9345 77.5353Z" fill="#A8DAAA"/>
<path fill-rule="evenodd" clip-rule="evenodd" d="M59.4164 76.3878L74.8179 69.9058L90.2542 63.459C90.2898 63.567 90.3256 63.674 90.3969 63.8172C91.7219 67.0051 94.982 68.6883 97.6328 67.578C97.7756 67.5065 97.9549 67.4352 98.0986 67.3639L99.8528 71.5894C99.71 71.6251 99.5307 71.697 99.3879 71.7326C96.7371 72.8792 95.6629 76.3535 96.987 79.5409C97.0592 79.6846 97.095 79.7917 97.1663 79.8996L81.73 86.3821L66.2929 92.865C66.2572 92.7218 66.2215 92.6146 66.1857 92.4716C64.8242 89.2837 61.6007 87.6001 58.9149 88.7105C58.7713 88.7822 58.6285 88.8537 58.4492 88.925L56.6934 84.699C56.8727 84.6634 57.0164 84.6277 57.1957 84.5554C59.8456 83.4454 60.9207 79.935 59.5583 76.748C59.5234 76.603 59.452 76.4967 59.4164 76.3878Z" fill="#6BC06F"/>
<path fill-rule="evenodd" clip-rule="evenodd" d="M22.2172 1.18188L41.8582 19.4388L36.8987 35.8105L21.1151 42.1384L1.47412 23.8806L17.2569 17.5536L22.2172 1.18188Z" fill="#1B7D9A"/>
<path fill-rule="evenodd" clip-rule="evenodd" d="M17.8668 15.604L80.0327 79.9001L77.7615 79.938L15.4189 18.2674L17.8668 15.604Z" fill="#145C71"/>
<path fill-rule="evenodd" clip-rule="evenodd" d="M120.259 139.615C122.746 139.615 138.573 139.573 138.573 136.963V133.291C138.573 132.924 138.45 132.599 138.245 132.354C137.96 131.987 135.799 132.313 135.309 132.272L106.023 131.987C105.534 131.987 102.475 132.028 102.19 132.436C102.025 132.68 101.944 132.965 101.944 133.291V136.963C101.944 140.063 117.607 139.615 120.259 139.615Z" fill="#FFB438"/>
<path fill-rule="evenodd" clip-rule="evenodd" d="M120.259 134.27C130.21 134.27 138.326 133.455 138.326 132.476C138.326 131.497 130.21 130.722 120.259 130.722C110.346 130.722 102.23 131.497 102.23 132.476C102.23 133.455 110.346 134.27 120.259 134.27Z" fill="#FCD471"/>
<path fill-rule="evenodd" clip-rule="evenodd" d="M120.259 133.128C122.746 133.128 138.573 133.128 138.573 130.52V126.848C138.573 126.481 138.45 126.155 138.245 125.87C137.96 125.542 135.799 125.827 135.309 125.827L106.023 125.542C105.534 125.542 102.475 125.583 102.19 125.951C102.025 126.196 101.944 126.521 101.944 126.848V130.52C101.944 133.619 117.607 133.128 120.259 133.128Z" fill="#FFB438"/>
<path fill-rule="evenodd" clip-rule="evenodd" d="M120.259 127.786C130.21 127.786 138.326 127.01 138.326 126.033C138.326 125.053 130.21 124.278 120.259 124.278C110.346 124.278 102.23 125.053 102.23 126.033C102.23 127.01 110.346 127.786 120.259 127.786Z" fill="#FCD471"/>
<path fill-rule="evenodd" clip-rule="evenodd" d="M120.259 126.684C122.746 126.684 138.573 126.684 138.573 124.033V120.363C138.573 120.036 138.45 119.709 138.245 119.424C137.96 119.058 135.799 119.384 135.309 119.384L106.023 119.098C105.534 119.058 102.475 119.098 102.19 119.505C102.025 119.75 101.944 120.036 101.944 120.363V124.033C101.944 127.133 117.607 126.684 120.259 126.684Z" fill="#FFB438"/>
<path fill-rule="evenodd" clip-rule="evenodd" d="M120.259 121.342C130.21 121.342 138.326 120.526 138.326 119.587C138.326 118.609 130.21 117.793 120.259 117.793C110.346 117.793 102.23 118.609 102.23 119.587C102.23 120.526 110.346 121.342 120.259 121.342Z" fill="#FCD471"/>
<path fill-rule="evenodd" clip-rule="evenodd" d="M120.259 120.24C122.746 120.24 138.573 120.2 138.573 117.589V113.918C138.573 113.551 138.45 113.225 138.245 112.98C137.96 112.613 135.799 112.939 135.309 112.898L106.023 112.613C105.534 112.613 102.475 112.654 102.19 113.062C102.025 113.306 101.944 113.592 101.944 113.918V117.589C101.944 120.688 117.607 120.24 120.259 120.24Z" fill="#FFB438"/>
<path fill-rule="evenodd" clip-rule="evenodd" d="M120.259 114.898C130.21 114.898 138.326 114.082 138.326 113.102C138.326 112.124 130.21 111.349 120.259 111.349C110.346 111.349 102.23 112.124 102.23 113.102C102.23 114.082 110.346 114.898 120.259 114.898Z" fill="#FCD471"/>
<path fill-rule="evenodd" clip-rule="evenodd" d="M124.256 113.225C126.785 113.225 142.61 113.184 142.61 110.574V106.903C142.61 106.536 142.448 106.209 142.243 105.965C141.999 105.598 139.836 105.925 139.347 105.925L110.063 105.598C109.533 105.598 106.514 105.638 106.228 106.047C106.064 106.291 105.942 106.576 105.942 106.903V110.574C105.943 113.673 121.646 113.225 124.256 113.225Z" fill="#FFB438"/>
<path fill-rule="evenodd" clip-rule="evenodd" d="M124.295 107.882C134.248 107.882 142.323 107.065 142.323 106.087C142.323 105.108 134.248 104.333 124.295 104.333C114.343 104.333 106.268 105.108 106.268 106.087C106.268 107.065 114.344 107.882 124.295 107.882Z" fill="#FCD471"/>
<path fill-rule="evenodd" clip-rule="evenodd" d="M119.728 106.209C122.256 106.209 138.04 106.168 138.04 103.558V99.8869C138.04 99.52 137.918 99.194 137.715 98.9494C137.429 98.582 135.308 98.9089 134.818 98.8676L105.533 98.582C105.004 98.582 101.985 98.6226 101.698 99.0312C101.536 99.2754 101.415 99.5605 101.415 99.8869V103.558C101.415 106.658 117.118 106.209 119.728 106.209Z" fill="#FFB438"/>
<path fill-rule="evenodd" clip-rule="evenodd" d="M119.766 100.866C129.719 100.866 137.795 100.051 137.795 99.0719C137.795 98.0925 129.719 97.3186 119.766 97.3186C109.815 97.3186 101.74 98.0925 101.74 99.0719C101.74 100.051 109.815 100.866 119.766 100.866Z" fill="#FCD471"/>
<path fill-rule="evenodd" clip-rule="evenodd" d="M112.265 98.5411C114.711 98.0923 130.291 95.4412 129.843 92.8722L129.232 89.2416C129.192 88.8742 129.027 88.5891 128.783 88.345C128.417 88.059 126.337 88.7115 125.886 88.7929L96.9701 93.4023C96.4391 93.4829 93.461 94.013 93.2582 94.4631C93.1364 94.7478 93.0945 95.0742 93.1364 95.3598L93.7467 98.99C94.2767 102.049 109.654 98.9494 112.265 98.5411Z" fill="#FFB438"/>
<path fill-rule="evenodd" clip-rule="evenodd" d="M110.794 89.7722C100.966 91.4449 93.1354 93.5655 93.2974 94.5444C93.4602 95.4821 101.536 94.9114 111.366 93.2386C121.195 91.5668 129.026 89.4458 128.863 88.5072C128.7 87.5289 120.584 88.0991 110.794 89.7722Z" fill="#FCD471"/>
<path fill-rule="evenodd" clip-rule="evenodd" d="M91.2046 140.226C101.605 140.226 110.089 131.743 110.089 121.343C110.089 110.941 101.605 102.458 91.2046 102.458C80.8034 102.458 72.3184 110.942 72.3184 121.343C72.3182 131.743 80.8034 140.226 91.2046 140.226Z" fill="#FFB438"/>
<path fill-rule="evenodd" clip-rule="evenodd" d="M91.206 136.923C99.7711 136.923 106.786 129.908 106.786 121.343C106.786 112.777 99.7711 105.802 91.206 105.802C82.6391 105.802 75.666 112.777 75.666 121.343C75.666 129.908 82.6389 136.923 91.206 136.923Z" fill="#FCD471"/>
<path fill-rule="evenodd" clip-rule="evenodd" d="M91.2041 136.027C99.28 136.027 105.887 129.418 105.887 121.343C105.887 113.267 99.28 106.7 91.2041 106.7C83.1282 106.7 76.5625 113.267 76.5625 121.343C76.5625 129.418 83.128 136.027 91.2041 136.027Z" fill="#FFB438"/>
<path opacity="0.1" fill-rule="evenodd" clip-rule="evenodd" d="M104.16 107.632L77.9958 134.271L77.9531 134.774C81.3666 138.141 86.0491 140.226 91.2036 140.226C101.604 140.226 110.088 131.743 110.088 121.343C110.088 115.951 107.805 111.079 104.16 107.632Z" fill="black"/>
</svg>
