<svg width="193" height="177" viewBox="0 0 193 177" fill="none" xmlns="http://www.w3.org/2000/svg">
<path d="M96.4974 161.328C138.277 161.328 172.146 127.459 172.146 85.679C172.146 43.8994 138.277 10.0303 96.4974 10.0303C54.7177 10.0303 20.8486 43.8994 20.8486 85.679C20.8486 127.459 54.7177 161.328 96.4974 161.328Z" fill="#EBDAFB"/>
<g style="mix-blend-mode:multiply">
<path d="M96.5479 118.008L96.5308 118.018L38.0942 147.506L96.5308 176.995V177H96.5365L154.99 147.506L96.5479 118.008Z" fill="#EDECEB"/>
</g>
<path d="M106.504 61.2471L94.9839 78.6956L141.104 101.961L152.624 84.5125L106.504 61.2471Z" fill="#DBB685"/>
<path d="M141.098 101.948L148.771 121.347L141.098 125.223L106.502 142.678L94.9751 125.223L141.098 101.948Z" fill="#C19D78"/>
<path d="M141.095 125.223L141.09 148.493L94.9663 171.768V125.233L94.972 125.223L106.499 142.678L141.095 125.223Z" fill="#DBB685"/>
<path d="M141.095 101.948L94.972 125.223H94.9663V125.218V78.6832L94.9834 78.6782L141.095 101.948Z" fill="#A37D5F"/>
<path d="M94.9845 78.678L94.9674 78.683L48.8612 101.948L37.3403 84.498L83.4637 61.228L94.9845 78.678Z" fill="#C19D78"/>
<path d="M94.9663 125.223H94.9703L94.9663 125.231V125.223Z" fill="black"/>
<path d="M94.9716 125.218V125.223V125.233L83.445 142.678L48.8654 125.228V125.223L41.1753 121.347L48.854 101.948H48.8654L94.9716 125.218Z" fill="#DBB685"/>
<path d="M94.9689 125.233V171.768L48.8569 148.493L48.8626 125.228L83.4423 142.678L94.9689 125.233Z" fill="#C19D78"/>
<path d="M94.972 78.6833V125.218L48.8657 101.948L94.972 78.6833Z" fill="#B5906F"/>
<g style="mix-blend-mode:multiply">
<path d="M94.9834 127.276L105.752 145.727L141.095 128.023V125.223L106.499 142.678L94.9663 125.218L94.9834 127.276Z" fill="#E9E5D9"/>
</g>
<g style="mix-blend-mode:multiply">
<path d="M94.9887 127.276L84.2203 145.727L48.8711 128.023V125.223L83.4679 142.678L95.0001 125.218L94.9887 127.276Z" fill="#E9E5D9"/>
</g>
<mask id="mask0_2410_7837" style="mask-type:luminance" maskUnits="userSpaceOnUse" x="48" y="78" width="94" height="48">
<path d="M94.9851 78.6782L94.968 78.6832L48.8618 101.948L94.968 125.218V125.223H94.9737L141.097 101.948L94.9851 78.6782Z" fill="white"/>
</mask>
<g mask="url(#mask0_2410_7837)">
<path d="M113.395 110.233L92.0356 121.737L98.148 130.408L119.507 118.904L113.395 110.233Z" fill="#BFBB68"/>
<path d="M97.7411 128.004L94.3208 123.125C94.6526 122.946 94.8894 122.659 94.9792 122.328C95.069 121.996 95.0044 121.647 94.7996 121.356L111.822 112.188C112.026 112.478 112.355 112.685 112.734 112.764C113.114 112.842 113.513 112.786 113.845 112.607L117.266 117.49C116.934 117.669 116.697 117.956 116.607 118.288C116.517 118.619 116.582 118.969 116.787 119.259L99.7649 128.427C99.6639 128.283 99.5314 128.158 99.375 128.059C99.2186 127.959 99.0414 127.888 98.8534 127.849C98.6655 127.809 98.4705 127.803 98.2797 127.829C98.0888 127.856 97.9058 127.915 97.7411 128.004Z" fill="#D8D17D"/>
<path d="M108.784 118.691C109.151 119.208 109.335 119.81 109.311 120.419C109.287 121.028 109.057 121.617 108.65 122.111C108.244 122.606 107.678 122.984 107.025 123.198C106.372 123.411 105.662 123.451 104.983 123.311C104.305 123.172 103.689 122.859 103.213 122.414C102.738 121.968 102.425 121.409 102.313 120.808C102.201 120.207 102.296 119.59 102.585 119.035C102.874 118.481 103.345 118.014 103.938 117.694C104.732 117.265 105.688 117.129 106.597 117.316C107.505 117.503 108.292 117.997 108.784 118.691Z" fill="#BFBB68"/>
<path d="M107.347 120.285C107.416 120.378 107.46 120.483 107.475 120.593C107.491 120.702 107.478 120.813 107.438 120.918C107.326 121.176 107.128 121.399 106.868 121.556L107.233 122.054L106.908 122.229L106.56 121.73C106.378 121.83 106.188 121.917 105.99 121.989C105.826 122.05 105.653 122.092 105.477 122.114L105.232 121.77C105.427 121.745 105.618 121.701 105.802 121.641C105.989 121.587 106.169 121.515 106.338 121.426L105.654 120.455C105.342 120.541 105.012 120.56 104.69 120.509C104.571 120.484 104.459 120.437 104.361 120.371C104.263 120.306 104.181 120.224 104.12 120.131C104.055 120.041 104.013 119.939 103.999 119.832C103.985 119.726 104 119.619 104.04 119.518C104.146 119.28 104.328 119.074 104.565 118.925L104.28 118.521L104.605 118.347L104.884 118.746C105.198 118.588 105.542 118.48 105.899 118.427L105.973 118.785C105.667 118.832 105.371 118.92 105.095 119.045L105.773 120.006C106.017 119.946 106.267 119.911 106.52 119.902C106.68 119.893 106.839 119.922 106.982 119.986C107.136 120.051 107.263 120.155 107.347 120.285ZM104.588 119.917C104.62 119.967 104.663 120.012 104.715 120.048C104.766 120.084 104.826 120.11 104.89 120.126C105.065 120.157 105.245 120.157 105.42 120.126L104.816 119.269C104.686 119.357 104.589 119.477 104.536 119.613C104.52 119.664 104.516 119.717 104.525 119.769C104.534 119.822 104.555 119.872 104.588 119.917ZM106.936 120.544C106.906 120.496 106.864 120.454 106.814 120.421C106.764 120.388 106.707 120.363 106.646 120.35C106.455 120.326 106.26 120.337 106.076 120.385L106.68 121.247C107.01 121.008 107.096 120.774 106.953 120.544H106.936Z" fill="#D8D17D"/>
<path d="M81.8972 108.523L60.5381 120.026L66.6505 128.697L88.0096 117.194L81.8972 108.523Z" fill="#BFBB68"/>
<path d="M66.2377 126.294L62.8174 121.416C63.1492 121.237 63.386 120.95 63.4758 120.618C63.5656 120.287 63.501 119.937 63.2962 119.647L80.3181 110.479C80.523 110.769 80.8513 110.976 81.2308 111.054C81.6103 111.133 82.01 111.076 82.3418 110.897L85.7622 115.776C85.4304 115.955 85.1935 116.242 85.1037 116.573C85.0139 116.905 85.0785 117.254 85.2833 117.544L68.2614 126.713C68.0565 126.423 67.7282 126.216 67.3487 126.137C66.9692 126.059 66.5696 126.115 66.2377 126.294Z" fill="#D8D17D"/>
<path d="M77.3097 116.982C77.6771 117.499 77.8606 118.101 77.8368 118.71C77.8131 119.319 77.5832 119.908 77.1763 120.402C76.7694 120.897 76.2038 121.275 75.551 121.489C74.8982 121.702 74.1875 121.742 73.509 121.602C72.8305 121.463 72.2146 121.15 71.7393 120.705C71.2639 120.259 70.9505 119.7 70.8386 119.099C70.7268 118.498 70.8215 117.881 71.1109 117.326C71.4003 116.772 71.8713 116.305 72.4642 115.985C72.8572 115.772 73.2943 115.629 73.7505 115.564C74.2068 115.499 74.6733 115.513 75.1234 115.605C75.5734 115.698 75.9982 115.867 76.3733 116.103C76.7485 116.339 77.0667 116.638 77.3097 116.982Z" fill="#BFBB68"/>
<path d="M75.8429 118.571C75.9118 118.664 75.9558 118.77 75.9715 118.881C75.9873 118.991 75.9745 119.103 75.9341 119.209C75.8225 119.465 75.6235 119.686 75.364 119.841L75.7289 120.34L75.4039 120.519L75.0562 120.021C74.8732 120.117 74.6827 120.202 74.4861 120.275C74.322 120.337 74.1497 120.38 73.9731 120.404L73.728 120.061C73.9221 120.033 74.1129 119.989 74.298 119.931C74.4856 119.876 74.6654 119.803 74.8339 119.712L74.1498 118.74C73.8383 118.825 73.5085 118.845 73.1864 118.8C73.0675 118.773 72.9558 118.726 72.858 118.661C72.7601 118.596 72.678 118.514 72.6164 118.421C72.5506 118.331 72.5092 118.229 72.4954 118.123C72.4816 118.017 72.4956 117.909 72.5366 117.808C72.641 117.57 72.8234 117.364 73.061 117.215L72.776 116.812L73.1009 116.637L73.3802 117.036C73.6942 116.877 74.0377 116.768 74.3949 116.712L74.469 117.076C74.1624 117.121 73.866 117.208 73.5912 117.335L74.2695 118.292C74.513 118.232 74.7636 118.197 75.0163 118.187C75.1756 118.184 75.3337 118.213 75.478 118.272C75.6306 118.338 75.7575 118.442 75.8429 118.571ZM73.0838 118.207C73.1157 118.257 73.1589 118.301 73.2109 118.336C73.2628 118.371 73.3224 118.397 73.3859 118.411C73.5606 118.445 73.7415 118.445 73.9161 118.411L73.3175 117.539C73.1873 117.625 73.0899 117.743 73.0382 117.878C73.0172 117.932 73.0104 117.99 73.0183 118.047C73.0262 118.104 73.0486 118.159 73.0838 118.207ZM75.4324 118.835C75.4026 118.786 75.3613 118.743 75.3112 118.708C75.2611 118.674 75.2034 118.649 75.1417 118.636C74.9505 118.616 74.7568 118.629 74.5717 118.675L75.1759 119.537C75.5065 119.293 75.5978 119.059 75.4324 118.835Z" fill="#D8D17D"/>
<path d="M103.73 113.563L80.3828 105.536L76.118 115.015L99.4653 123.041L103.73 113.563Z" fill="#BFBB68"/>
<path d="M78.0439 113.289L80.4439 107.952C80.8069 108.077 81.2113 108.07 81.5691 107.935C81.9269 107.8 82.2089 107.546 82.3536 107.23L100.955 113.628C100.813 113.945 100.821 114.298 100.977 114.61C101.133 114.922 101.424 115.168 101.787 115.292L99.3869 120.634C99.2072 120.571 99.0153 120.541 98.8221 120.543C98.6288 120.546 98.4381 120.582 98.2607 120.649C98.0834 120.716 97.9229 120.813 97.7885 120.934C97.654 121.056 97.5482 121.199 97.4772 121.356L78.8762 114.953C79.018 114.636 79.0099 114.283 78.8539 113.971C78.6978 113.659 78.4066 113.413 78.0439 113.289Z" fill="#D8D17D"/>
<path d="M93.1913 115.417C92.9374 115.984 92.4966 116.473 91.9246 116.822C91.3527 117.17 90.6753 117.363 89.9783 117.374C89.2812 117.386 88.5958 117.217 88.0089 116.888C87.422 116.559 86.9599 116.085 86.6811 115.527C86.4023 114.968 86.3194 114.35 86.4429 113.75C86.5663 113.15 86.8906 112.596 87.3746 112.158C87.8587 111.719 88.4807 111.416 89.162 111.286C89.8432 111.157 90.5531 111.207 91.2018 111.43C92.0695 111.729 92.7663 112.317 93.1392 113.064C93.5122 113.811 93.5309 114.657 93.1913 115.417Z" fill="#BFBB68"/>
<path d="M90.8722 115.372C90.8283 115.475 90.7585 115.569 90.6677 115.646C90.5769 115.722 90.4676 115.78 90.3478 115.815C90.0507 115.896 89.7328 115.896 89.4357 115.815L89.1849 116.373L88.8257 116.254L89.0708 115.716C88.8734 115.646 88.6828 115.563 88.5008 115.467C88.3442 115.389 88.2004 115.294 88.0732 115.182L88.2443 114.809C88.3873 114.93 88.5439 115.039 88.7117 115.133C88.8741 115.231 89.048 115.315 89.2305 115.382L89.7093 114.315C89.4444 114.149 89.2277 113.93 89.0765 113.678C89.0301 113.58 89.0062 113.475 89.0062 113.369C89.0062 113.263 89.0301 113.158 89.0765 113.06C89.1188 112.959 89.1871 112.869 89.2761 112.795C89.3652 112.722 89.4724 112.667 89.5896 112.636C89.8686 112.564 90.1656 112.564 90.4447 112.636L90.6385 112.198L90.9976 112.322L90.8038 112.756C91.1352 112.874 91.4401 113.043 91.7045 113.254L91.4195 113.518C91.1912 113.334 90.9339 113.18 90.6556 113.06L90.1825 114.111C90.3817 114.246 90.5634 114.4 90.724 114.57C90.8269 114.677 90.8957 114.806 90.9235 114.943C90.9574 115.087 90.9395 115.237 90.8722 115.372ZM89.5497 113.219C89.523 113.273 89.5092 113.33 89.5092 113.389C89.5092 113.447 89.523 113.505 89.5497 113.558C89.6317 113.697 89.7463 113.819 89.886 113.917L90.3079 112.98C90.1497 112.939 89.9815 112.939 89.8233 112.98C89.76 112.999 89.7026 113.031 89.6552 113.072C89.6078 113.114 89.5717 113.164 89.5497 113.219ZM90.3877 115.237C90.4361 115.134 90.4361 115.017 90.3877 114.913C90.2914 114.767 90.1614 114.64 90.0057 114.54L89.5782 115.476C90.0038 115.566 90.2737 115.486 90.3877 115.237Z" fill="#D8D17D"/>
<path d="M105.029 115.831C105.63 115.831 106.218 115.986 106.717 116.278C107.217 116.57 107.606 116.985 107.836 117.47C108.066 117.955 108.126 118.489 108.009 119.005C107.892 119.52 107.603 119.993 107.178 120.364C106.753 120.736 106.211 120.989 105.622 121.091C105.032 121.194 104.422 121.141 103.866 120.94C103.311 120.739 102.837 120.399 102.503 119.962C102.169 119.525 101.991 119.012 101.991 118.486C101.99 118.137 102.068 117.792 102.22 117.469C102.373 117.147 102.597 116.854 102.879 116.607C103.161 116.36 103.497 116.165 103.865 116.031C104.234 115.898 104.63 115.83 105.029 115.831ZM107.629 118.486C107.629 118.037 107.476 117.598 107.19 117.224C106.905 116.85 106.499 116.559 106.024 116.387C105.549 116.215 105.026 116.17 104.522 116.258C104.018 116.346 103.555 116.562 103.191 116.88C102.827 117.198 102.58 117.602 102.48 118.043C102.379 118.484 102.431 118.941 102.628 119.356C102.824 119.771 103.157 120.126 103.585 120.376C104.012 120.625 104.515 120.759 105.029 120.759C105.719 120.759 106.38 120.519 106.867 120.093C107.355 119.667 107.629 119.089 107.629 118.486Z" fill="#FBBE68"/>
<path d="M105.026 116.214C105.54 116.214 106.043 116.347 106.47 116.597C106.898 116.847 107.231 117.202 107.428 117.617C107.625 118.032 107.676 118.489 107.576 118.93C107.475 119.37 107.228 119.775 106.864 120.093C106.501 120.411 106.038 120.627 105.533 120.715C105.029 120.802 104.506 120.758 104.031 120.586C103.556 120.414 103.15 120.122 102.865 119.749C102.579 119.375 102.427 118.936 102.427 118.486C102.427 117.884 102.701 117.306 103.188 116.88C103.676 116.454 104.337 116.214 105.026 116.214ZM107.443 118.486C107.444 118.068 107.304 117.659 107.039 117.311C106.774 116.963 106.397 116.692 105.955 116.531C105.514 116.37 105.027 116.328 104.558 116.409C104.089 116.49 103.658 116.69 103.319 116.986C102.981 117.281 102.75 117.657 102.656 118.067C102.562 118.477 102.61 118.902 102.793 119.289C102.975 119.675 103.285 120.005 103.683 120.238C104.08 120.47 104.548 120.594 105.026 120.594C105.666 120.594 106.28 120.372 106.733 119.977C107.186 119.582 107.442 119.046 107.443 118.486Z" fill="#EAAA5E"/>
<path d="M105.031 116.374C105.509 116.373 105.977 116.496 106.375 116.727C106.774 116.959 107.084 117.288 107.268 117.674C107.452 118.06 107.501 118.485 107.408 118.895C107.315 119.306 107.086 119.682 106.748 119.978C106.41 120.274 105.979 120.476 105.51 120.558C105.041 120.64 104.555 120.598 104.113 120.439C103.671 120.279 103.293 120.008 103.027 119.661C102.762 119.313 102.62 118.904 102.62 118.486C102.62 117.927 102.873 117.39 103.326 116.994C103.778 116.598 104.391 116.375 105.031 116.374ZM107.117 118.486C107.118 118.125 106.997 117.772 106.769 117.472C106.54 117.171 106.214 116.937 105.833 116.798C105.452 116.659 105.033 116.622 104.627 116.692C104.222 116.762 103.85 116.935 103.558 117.19C103.265 117.445 103.066 117.77 102.985 118.124C102.904 118.478 102.945 118.845 103.103 119.178C103.261 119.512 103.528 119.797 103.871 119.997C104.214 120.198 104.618 120.305 105.031 120.305C105.583 120.305 106.113 120.114 106.504 119.773C106.895 119.432 107.116 118.969 107.117 118.486Z" fill="#FCCD8A"/>
<path d="M105.027 116.647C105.44 116.646 105.844 116.753 106.188 116.952C106.532 117.152 106.8 117.437 106.959 117.77C107.117 118.103 107.16 118.47 107.08 118.824C107 119.178 106.802 119.503 106.51 119.759C106.218 120.015 105.847 120.189 105.442 120.26C105.037 120.33 104.617 120.294 104.236 120.157C103.854 120.019 103.528 119.785 103.298 119.485C103.069 119.185 102.946 118.832 102.946 118.471C102.946 117.988 103.165 117.525 103.555 117.183C103.945 116.842 104.475 116.649 105.027 116.647Z" fill="#FBBE68"/>
<path d="M95.5936 119.02C96.1945 119.02 96.782 119.175 97.2816 119.467C97.7813 119.759 98.1707 120.174 98.4007 120.659C98.6307 121.144 98.6908 121.678 98.5736 122.194C98.4564 122.709 98.167 123.182 97.7421 123.553C97.3171 123.925 96.7757 124.178 96.1863 124.28C95.5969 124.383 94.986 124.33 94.4308 124.129C93.8756 123.928 93.4011 123.588 93.0672 123.151C92.7334 122.714 92.5552 122.201 92.5552 121.675C92.5552 120.971 92.8753 120.295 93.4451 119.797C94.0149 119.299 94.7877 119.02 95.5936 119.02ZM98.193 121.675C98.193 121.226 98.0406 120.787 97.7549 120.413C97.4693 120.039 97.0633 119.748 96.5883 119.576C96.1134 119.404 95.5907 119.359 95.0864 119.447C94.5822 119.535 94.119 119.751 93.7555 120.069C93.3919 120.386 93.1444 120.791 93.0441 121.232C92.9438 121.673 92.9952 122.13 93.192 122.545C93.3887 122.96 93.7219 123.315 94.1494 123.565C94.5769 123.814 95.0795 123.948 95.5936 123.948C96.283 123.948 96.9442 123.708 97.4317 123.282C97.9192 122.856 98.193 122.278 98.193 121.675Z" fill="#FBBE68"/>
<path d="M95.5936 119.403C96.1077 119.403 96.6103 119.536 97.0378 119.786C97.4653 120.036 97.7985 120.391 97.9952 120.806C98.1919 121.221 98.2434 121.678 98.1431 122.119C98.0428 122.559 97.7952 122.964 97.4317 123.282C97.0682 123.6 96.605 123.816 96.1007 123.904C95.5965 123.991 95.0738 123.946 94.5988 123.774C94.1238 123.603 93.7179 123.311 93.4322 122.938C93.1466 122.564 92.9941 122.125 92.9941 121.675C92.9941 121.073 93.268 120.495 93.7555 120.069C94.243 119.642 94.9042 119.403 95.5936 119.403ZM98.0106 121.675C98.0106 121.257 97.8689 120.849 97.6033 120.501C97.3377 120.154 96.9602 119.883 96.5186 119.723C96.0769 119.563 95.5909 119.522 95.1221 119.603C94.6532 119.685 94.2225 119.886 93.8845 120.181C93.5465 120.477 93.3163 120.853 93.223 121.263C93.1297 121.673 93.1776 122.098 93.3606 122.484C93.5435 122.87 93.8533 123.2 94.2508 123.432C94.6483 123.664 95.1156 123.788 95.5936 123.788C95.9112 123.789 96.2259 123.734 96.5195 123.629C96.813 123.523 97.0798 123.367 97.3044 123.171C97.529 122.974 97.707 122.741 97.8282 122.485C97.9494 122.228 98.0114 121.953 98.0106 121.675Z" fill="#EAAA5E"/>
<path d="M95.5953 119.567C96.0736 119.567 96.5411 119.691 96.9387 119.924C97.3363 120.156 97.6461 120.486 97.8289 120.873C98.0116 121.259 98.0592 121.684 97.9654 122.094C97.8717 122.504 97.6409 122.881 97.3023 123.176C96.9637 123.471 96.5325 123.672 96.0633 123.753C95.5941 123.834 95.1079 123.791 94.6663 123.631C94.2248 123.47 93.8477 123.198 93.5828 122.85C93.3179 122.502 93.1771 122.093 93.1782 121.675C93.1782 121.398 93.2408 121.123 93.3623 120.867C93.4839 120.611 93.662 120.379 93.8865 120.183C94.111 119.987 94.3775 119.832 94.6707 119.726C94.964 119.621 95.2781 119.567 95.5953 119.567ZM97.6817 121.675C97.6817 121.314 97.5593 120.962 97.3301 120.662C97.1008 120.362 96.7749 120.128 96.3937 119.99C96.0125 119.852 95.593 119.816 95.1882 119.886C94.7835 119.957 94.4117 120.131 94.12 120.386C93.8282 120.641 93.6295 120.966 93.549 121.319C93.4684 121.673 93.5098 122.04 93.6677 122.373C93.8256 122.706 94.093 122.991 94.4361 123.192C94.7792 123.392 95.1826 123.499 95.5953 123.499C95.8695 123.5 96.1411 123.453 96.3946 123.361C96.6481 123.27 96.8784 123.136 97.0723 122.966C97.2662 122.797 97.4198 122.595 97.5244 122.374C97.629 122.152 97.6824 121.915 97.6817 121.675Z" fill="#FCCD8A"/>
<path d="M95.5913 119.857C96.0042 119.857 96.4078 119.964 96.751 120.164C97.0943 120.365 97.3617 120.65 97.5194 120.984C97.6772 121.317 97.7182 121.684 97.6372 122.038C97.5562 122.392 97.3569 122.717 97.0646 122.972C96.7722 123.227 96.3999 123.4 95.9948 123.47C95.5897 123.54 95.17 123.503 94.7889 123.364C94.4078 123.225 94.0823 122.991 93.8537 122.69C93.6252 122.389 93.5038 122.036 93.5049 121.675C93.5049 121.436 93.5589 121.199 93.6638 120.978C93.7687 120.757 93.9225 120.557 94.1163 120.388C94.3101 120.219 94.5402 120.085 94.7933 119.994C95.0464 119.903 95.3176 119.856 95.5913 119.857Z" fill="#FBBE68"/>
<path d="M95.953 120.813C96.0771 120.851 96.1824 120.925 96.251 121.024C96.3195 121.122 96.3472 121.237 96.3293 121.351V121.391H96.0158C96.022 121.333 96.0136 121.274 95.9909 121.219C95.9682 121.164 95.932 121.114 95.8846 121.072L95.7478 121.571C96.1412 121.625 96.3521 121.76 96.3521 122.069C96.3521 122.398 96.0785 122.597 95.611 122.597H95.4685L95.383 122.906H95.1265L95.2291 122.542C95.1068 122.502 95.0026 122.428 94.9318 122.332C94.861 122.236 94.8273 122.123 94.8357 122.009H95.155C95.1502 122.064 95.1607 122.12 95.1855 122.171C95.2103 122.222 95.2487 122.267 95.2975 122.303L95.44 121.78C95.0296 121.72 94.8699 121.571 94.8699 121.316C94.8699 120.997 95.1664 120.818 95.6053 120.818H95.7193L95.8048 120.514H96.0614L95.953 120.813ZM95.497 121.536L95.6452 120.997H95.5825C95.3545 120.997 95.1778 121.097 95.1778 121.262C95.1778 121.406 95.2633 121.491 95.497 121.536ZM96.0272 122.079C96.0272 121.924 95.9188 121.845 95.6851 121.805L95.5312 122.373H95.6167C95.8561 122.358 96.0272 122.253 96.0272 122.079Z" fill="#EAAA5E"/>
<path d="M98.0067 113.304C98.6076 113.304 99.195 113.46 99.6947 113.752C100.194 114.044 100.584 114.458 100.814 114.944C101.044 115.429 101.104 115.963 100.987 116.478C100.869 116.993 100.58 117.467 100.155 117.838C99.7302 118.209 99.1888 118.462 98.5994 118.565C98.01 118.667 97.3991 118.615 96.8439 118.414C96.2887 118.213 95.8142 117.872 95.4803 117.436C95.1465 116.999 94.9683 116.485 94.9683 115.96C94.9683 115.256 95.2884 114.58 95.8582 114.082C96.428 113.584 97.2008 113.304 98.0067 113.304ZM100.606 115.96C100.605 115.511 100.452 115.072 100.165 114.699C99.879 114.326 99.4726 114.036 98.9975 113.864C98.5224 113.693 97.9999 113.649 97.4961 113.737C96.9922 113.825 96.5295 114.042 96.1666 114.36C95.8036 114.678 95.5566 115.083 95.4567 115.524C95.3569 115.964 95.4087 116.421 95.6056 116.836C95.8025 117.251 96.1357 117.605 96.5631 117.855C96.9904 118.104 97.4928 118.237 98.0067 118.237C98.3485 118.237 98.687 118.178 99.0028 118.064C99.3185 117.949 99.6053 117.781 99.8468 117.57C100.088 117.358 100.28 117.107 100.41 116.831C100.54 116.555 100.607 116.259 100.606 115.96Z" fill="#FBBE68"/>
<path d="M98.0096 113.688C98.5254 113.687 99.0298 113.82 99.4591 114.069C99.8884 114.319 100.223 114.675 100.421 115.091C100.619 115.507 100.671 115.966 100.571 116.408C100.47 116.85 100.222 117.256 99.8574 117.575C99.4928 117.894 99.028 118.111 98.5222 118.199C98.0163 118.286 97.492 118.241 97.0157 118.068C96.5395 117.895 96.1327 117.602 95.8468 117.227C95.561 116.852 95.409 116.411 95.4102 115.96C95.4102 115.357 95.684 114.779 96.1715 114.353C96.659 113.927 97.3202 113.688 98.0096 113.688ZM100.421 115.96C100.421 115.542 100.279 115.133 100.013 114.786C99.7474 114.438 99.3696 114.167 98.9276 114.008C98.4856 113.848 97.9993 113.806 97.5303 113.888C97.0613 113.97 96.6306 114.172 96.2928 114.468C95.955 114.764 95.7252 115.141 95.6326 115.551C95.54 115.961 95.5887 116.386 95.7725 116.772C95.9563 117.158 96.267 117.487 96.6652 117.719C97.0635 117.951 97.5313 118.074 98.0096 118.073C98.3268 118.073 98.6408 118.018 98.9337 117.912C99.2267 117.806 99.4927 117.65 99.7167 117.454C99.9407 117.257 100.118 117.024 100.239 116.768C100.36 116.512 100.422 116.237 100.421 115.96Z" fill="#EAAA5E"/>
<path d="M98.0118 113.852C98.4901 113.852 98.9576 113.976 99.3552 114.208C99.7528 114.441 100.063 114.771 100.245 115.157C100.428 115.544 100.476 115.969 100.382 116.379C100.288 116.789 100.057 117.165 99.7188 117.46C99.3802 117.756 98.949 117.957 98.4798 118.038C98.0106 118.118 97.5244 118.076 97.0829 117.915C96.6413 117.755 96.2642 117.483 95.9993 117.135C95.7344 116.787 95.5936 116.378 95.5947 115.96C95.5947 115.683 95.6573 115.408 95.7788 115.152C95.9004 114.896 96.0785 114.663 96.303 114.468C96.5275 114.272 96.794 114.117 97.0872 114.011C97.3805 113.905 97.6946 113.851 98.0118 113.852ZM100.092 115.96C100.092 115.599 99.97 115.246 99.7405 114.946C99.5109 114.646 99.1848 114.412 98.8032 114.274C98.4216 114.137 98.0018 114.101 97.5969 114.171C97.1921 114.242 96.8203 114.416 96.5287 114.672C96.2372 114.928 96.0389 115.253 95.9591 115.607C95.8792 115.961 95.9213 116.328 96.0801 116.661C96.2389 116.994 96.5072 117.279 96.8511 117.479C97.1949 117.678 97.5989 117.785 98.0118 117.784C98.2874 117.786 98.5609 117.741 98.8164 117.65C99.0718 117.56 99.3041 117.426 99.4999 117.256C99.6956 117.087 99.8507 116.885 99.9564 116.662C100.062 116.439 100.116 116.201 100.115 115.96H100.092Z" fill="#FCCD8A"/>
<path d="M98.0044 114.156C98.4173 114.156 98.8209 114.263 99.1641 114.464C99.5074 114.664 99.7748 114.949 99.9325 115.283C100.09 115.617 100.131 115.983 100.05 116.337C99.9693 116.691 99.77 117.016 99.4777 117.271C99.1853 117.526 98.813 117.699 98.4079 117.769C98.0028 117.839 97.5831 117.802 97.202 117.663C96.8209 117.524 96.4954 117.29 96.2668 116.989C96.0383 116.689 95.9168 116.336 95.918 115.975C95.918 115.735 95.972 115.499 96.0769 115.278C96.1818 115.057 96.3356 114.856 96.5294 114.687C96.7232 114.518 96.9533 114.384 97.2064 114.293C97.4595 114.202 97.7307 114.155 98.0044 114.156Z" fill="#FBBE68"/>
<path d="M84.2498 116.224C84.8508 116.224 85.4382 116.38 85.9379 116.672C86.4375 116.964 86.827 117.378 87.057 117.864C87.2869 118.349 87.3471 118.883 87.2299 119.398C87.1126 119.913 86.8232 120.387 86.3983 120.758C85.9734 121.129 85.432 121.382 84.8426 121.485C84.2532 121.587 83.6423 121.535 83.0871 121.334C82.5319 121.133 82.0574 120.792 81.7235 120.356C81.3896 119.919 81.2114 119.405 81.2114 118.88C81.2114 118.176 81.5315 117.5 82.1014 117.002C82.6712 116.504 83.444 116.224 84.2498 116.224ZM86.8493 118.88C86.8504 118.429 86.6984 117.988 86.4126 117.613C86.1268 117.238 85.72 116.945 85.2437 116.772C84.7675 116.599 84.2432 116.554 83.7373 116.641C83.2314 116.729 82.7667 116.946 82.402 117.265C82.0373 117.584 81.7891 117.99 81.6888 118.432C81.5884 118.874 81.6405 119.332 81.8384 119.749C82.0363 120.165 82.3711 120.521 82.8003 120.77C83.2296 121.02 83.7341 121.153 84.2498 121.152C84.9393 121.152 85.6004 120.913 86.0879 120.487C86.5754 120.061 86.8493 119.483 86.8493 118.88Z" fill="#FBBE68"/>
<path d="M84.2497 116.608C84.7636 116.609 85.2656 116.743 85.6923 116.993C86.119 117.244 86.4513 117.599 86.6472 118.014C86.8431 118.429 86.8938 118.886 86.7928 119.326C86.6919 119.767 86.4438 120.171 86.0801 120.489C85.7163 120.806 85.2531 121.022 84.749 121.109C84.2449 121.196 83.7226 121.151 83.2479 120.979C82.7732 120.807 82.3676 120.515 82.0822 120.142C81.7968 119.768 81.6445 119.329 81.6445 118.88C81.6445 118.581 81.7119 118.285 81.8429 118.009C81.9739 117.733 82.1659 117.483 82.4079 117.272C82.6499 117.061 82.9371 116.893 83.2532 116.779C83.5692 116.666 83.9078 116.607 84.2497 116.608ZM86.661 118.88C86.661 118.462 86.5191 118.053 86.2533 117.706C85.9875 117.358 85.6096 117.087 85.1676 116.928C84.7256 116.768 84.2394 116.726 83.7703 116.808C83.3013 116.89 82.8707 117.092 82.5329 117.388C82.1951 117.684 81.9653 118.061 81.8727 118.471C81.7801 118.881 81.8288 119.306 82.0126 119.692C82.1964 120.078 82.5071 120.408 82.9053 120.639C83.3035 120.871 83.7714 120.994 84.2497 120.993C84.5668 120.993 84.8809 120.938 85.1738 120.832C85.4667 120.726 85.7328 120.57 85.9568 120.374C86.1808 120.177 86.3583 119.945 86.4791 119.688C86.6 119.432 86.6618 119.157 86.661 118.88Z" fill="#EAAA5E"/>
<path d="M84.2481 116.772C84.7264 116.772 85.1939 116.896 85.5915 117.129C85.9891 117.361 86.2989 117.691 86.4817 118.078C86.6645 118.464 86.712 118.889 86.6183 119.299C86.5246 119.709 86.2938 120.085 85.9552 120.381C85.6166 120.676 85.1854 120.877 84.7162 120.958C84.2469 121.039 83.7607 120.996 83.3192 120.835C82.8776 120.675 82.5005 120.403 82.2356 120.055C81.9707 119.707 81.8299 119.298 81.8311 118.88C81.8311 118.603 81.8936 118.328 82.0152 118.072C82.1367 117.816 82.3148 117.584 82.5393 117.388C82.7639 117.192 83.0304 117.037 83.3236 116.931C83.6168 116.826 83.931 116.772 84.2481 116.772ZM86.3288 118.88C86.3288 118.519 86.2063 118.166 85.9768 117.866C85.7473 117.566 85.4211 117.332 85.0395 117.195C84.6579 117.057 84.2381 117.021 83.8333 117.092C83.4284 117.162 83.0566 117.337 82.7651 117.592C82.4735 117.848 82.2753 118.173 82.1954 118.527C82.1155 118.881 82.1577 119.248 82.3165 119.581C82.4752 119.915 82.7436 120.199 83.0874 120.399C83.4313 120.599 83.8352 120.705 84.2481 120.704C84.5218 120.704 84.7929 120.656 85.0457 120.565C85.2985 120.473 85.5281 120.339 85.7214 120.169C85.9147 120 86.0678 119.799 86.1721 119.578C86.2763 119.356 86.3296 119.119 86.3288 118.88Z" fill="#FCCD8A"/>
<path d="M84.2475 120.704C85.3998 120.704 86.334 119.887 86.334 118.88C86.334 117.873 85.3998 117.056 84.2475 117.056C83.0953 117.056 82.1611 117.873 82.1611 118.88C82.1611 119.887 83.0953 120.704 84.2475 120.704Z" fill="#FBBE68"/>
<path d="M84.6049 118.013C84.7265 118.055 84.8289 118.131 84.8968 118.229C84.9646 118.327 84.9942 118.442 84.9811 118.556V118.596H84.6619C84.6694 118.537 84.6615 118.478 84.6388 118.423C84.616 118.368 84.5791 118.318 84.5308 118.277L84.3939 118.775C84.793 118.83 84.9982 118.964 84.9982 119.273C84.9982 119.602 84.7303 119.802 84.2628 119.802H84.1488L84.0633 120.111H83.8068L83.9037 119.747C83.7825 119.706 83.6795 119.632 83.6098 119.536C83.5401 119.44 83.5072 119.327 83.5161 119.214H83.8296C83.8262 119.269 83.8373 119.324 83.862 119.375C83.8867 119.426 83.9243 119.471 83.9721 119.508L84.1146 118.984C83.7042 118.925 83.5446 118.775 83.5446 118.521C83.5446 118.202 83.8353 118.023 84.2742 118.023H84.3939L84.4795 117.719H84.7189L84.6049 118.013ZM84.1488 118.735L84.297 118.202H84.2343C84.0063 118.202 83.8296 118.297 83.8296 118.466C83.8296 118.611 83.9094 118.695 84.1488 118.735ZM84.6733 119.283C84.6733 119.129 84.5707 119.049 84.3369 119.004L84.1773 119.572H84.2685C84.508 119.562 84.6733 119.458 84.6733 119.283Z" fill="#EAAA5E"/>
<path d="M90.4962 105.477L81.5259 125.957L92.4076 129.599L101.378 109.119L90.4962 105.477Z" fill="#BFBB68"/>
<path d="M90.4239 127.909L84.3015 125.861C84.4406 125.543 84.4292 125.189 84.2699 124.878C84.1106 124.567 83.8165 124.324 83.4521 124.202L90.6007 107.878C90.9643 108 91.3684 107.991 91.7242 107.852C92.0801 107.714 92.3587 107.458 92.499 107.141L98.6043 109.174C98.4668 109.492 98.4789 109.845 98.638 110.156C98.7971 110.467 99.0903 110.71 99.4537 110.833L92.3051 127.167C91.9429 127.05 91.5425 127.062 91.1905 127.201C90.8385 127.34 90.5632 127.594 90.4239 127.909Z" fill="#D8D17D"/>
<path d="M92.7006 114.654C93.35 114.873 93.9108 115.255 94.312 115.752C94.7132 116.25 94.9369 116.84 94.9549 117.448C94.9729 118.056 94.7843 118.655 94.4131 119.17C94.0418 119.685 93.5044 120.092 92.8688 120.34C92.2331 120.587 91.5277 120.665 90.8415 120.563C90.1553 120.461 89.5192 120.183 89.0133 119.765C88.5074 119.348 88.1545 118.808 87.9991 118.215C87.8437 117.622 87.8928 117.002 88.1401 116.433C88.3057 116.054 88.555 115.708 88.8738 115.413C89.1927 115.119 89.5749 114.882 89.9984 114.717C90.422 114.552 90.8787 114.461 91.3423 114.451C91.806 114.44 92.2675 114.509 92.7006 114.654Z" fill="#BFBB68"/>
</g>
<path d="M100.156 75.4196L105.121 69.9385L106.426 71.0148L106.723 71.254C106.879 71.3815 107.001 71.5379 107.08 71.7117C107.158 71.8855 107.192 72.0724 107.177 72.2588C107.163 72.4453 107.102 72.6267 106.997 72.7899C106.893 72.953 106.749 73.0939 106.575 73.2023L102.63 75.6588C102.436 75.7787 102.211 75.855 101.976 75.8811C101.74 75.9071 101.501 75.8821 101.279 75.8083L100.156 75.4196Z" fill="#C8856A"/>
<path d="M100.156 75.4194L100.726 75.5988C101.089 75.1143 101.501 74.6591 101.957 74.2385C103.317 72.9401 105.077 72.0127 107.025 71.5676C106.953 71.4413 106.856 71.3268 106.74 71.2288L106.443 70.9896L105.138 69.9133L100.156 75.4194Z" fill="#C17B5F"/>
<path d="M93.1745 72.3005L92.8097 61.8365C92.785 61.1721 92.9107 60.5101 93.1798 59.8884C93.4488 59.2667 93.8558 58.6976 94.3773 58.2139L104.108 49.1451L110.949 40.0215L119.916 47.3862L117.636 58.184C117.488 58.8783 117.178 59.5383 116.724 60.1224L103.914 58.5428L100.044 64.9059L94.0581 72.6144C93.9046 72.8073 93.7801 73.0167 93.6876 73.2373C93.5311 73.1217 93.4045 72.9785 93.3161 72.817C93.2276 72.6555 93.1794 72.4795 93.1745 72.3005Z" fill="#C8856A"/>
<path d="M99.0177 64.0337L98.345 65.982C96.8746 68.2633 95.1463 70.41 93.186 72.39C93.2271 72.7201 93.4156 73.0227 93.7105 73.2321C93.803 73.0114 93.9275 72.8021 94.081 72.6092L97.6553 68.01L97.6268 68.0947L100.067 64.9007L103.937 58.5376L99.0177 64.0337Z" fill="#C17B5F"/>
<path d="M88.679 69.6015L89.6929 98.6082L105.106 98.1965L104.092 69.1899L88.679 69.6015Z" fill="#BFBB68"/>
<path d="M101.69 97.0353L93.014 97.2645C93.0066 97.0416 92.949 96.8221 92.8443 96.6187C92.7397 96.4153 92.5901 96.2319 92.4042 96.0791C92.2183 95.9264 91.9997 95.8072 91.761 95.7284C91.5223 95.6497 91.2681 95.6129 91.0131 95.6202L90.2036 72.5047C90.7197 72.4904 91.2083 72.2976 91.5621 71.9688C91.9158 71.64 92.1059 71.2019 92.0905 70.7507L100.761 70.5215C100.769 70.7447 100.828 70.9642 100.933 71.1677C101.038 71.3712 101.188 71.5545 101.374 71.7072C101.561 71.8599 101.78 71.979 102.019 72.0577C102.258 72.1364 102.512 72.1731 102.768 72.1658L103.577 95.2813C103.321 95.2878 103.07 95.3383 102.836 95.43C102.603 95.5218 102.392 95.6529 102.217 95.8158C102.042 95.9788 101.905 96.1704 101.815 96.3797C101.724 96.5889 101.682 96.8118 101.69 97.0353Z" fill="#D8D17D"/>
<path d="M96.7472 79.8192C97.6689 79.795 98.5781 80.0101 99.3599 80.4375C100.142 80.8648 100.761 81.4852 101.14 82.2201C101.518 82.9551 101.639 83.7716 101.487 84.5665C101.334 85.3615 100.916 86.0991 100.284 86.6861C99.6522 87.2732 98.8355 87.6834 97.937 87.8648C97.0386 88.0462 96.0988 87.9907 95.2365 87.7053C94.3741 87.4199 93.6279 86.9175 93.0922 86.2615C92.5565 85.6055 92.2553 84.8254 92.2267 84.0198C92.1898 82.939 92.6452 81.8896 93.4928 81.102C94.3403 80.3144 95.5108 79.8531 96.7472 79.8192Z" fill="#BFBB68"/>
<path d="M104.102 49.1451L94.3542 58.204C93.6782 58.8336 93.1974 59.6037 92.9575 60.4413L104.165 50.934L112.522 41.322L110.943 40.0215L104.102 49.1451Z" fill="#C17B5F"/>
<path d="M109.483 65.6979L107.813 66.9287L105.111 69.9184L100.146 75.3995L99.5132 76.0971C98.9667 76.702 98.1715 77.0962 97.2972 77.1958C96.4228 77.2955 95.5386 77.0925 94.833 76.6303C94.7304 76.5605 94.6392 76.4908 94.548 76.416C94.0604 76.0149 93.7204 75.496 93.5712 74.9255C93.422 74.355 93.4703 73.7585 93.71 73.2121C93.8025 72.9914 93.927 72.7821 94.0805 72.5892L100.066 64.8807L103.937 58.5176L116.746 60.0971C116.448 60.4698 116.093 60.8051 115.691 61.0937L109.483 65.6979Z" fill="#C8856A"/>
<path d="M105.115 69.9136L107.817 66.9239L109.488 65.6931L109.83 65.9722C110.109 66.2021 110.273 66.5198 110.285 66.8552C110.296 67.1907 110.155 67.5165 109.892 67.761L106.421 70.9849L105.115 69.9136Z" fill="#C8856A"/>
<path d="M96.3572 71.7224L99.8574 73.9697L98.5691 75.4944C98.4015 75.6955 98.19 75.8656 97.947 75.9951C97.7039 76.1245 97.434 76.2107 97.1527 76.2486C96.8714 76.2866 96.5843 76.2756 96.3079 76.2163C96.0315 76.157 95.7713 76.0505 95.5421 75.903C95.0784 75.6054 94.7688 75.1591 94.6811 74.6621C94.5935 74.1651 94.735 73.658 95.0746 73.2522L96.3572 71.7224Z" fill="#D9BBAF"/>
<path d="M110.082 67.5367C110.248 67.2902 110.313 67.0018 110.268 66.7186C110.222 66.4354 110.068 66.174 109.831 65.977L109.489 65.698L107.819 66.9288L107.089 67.736C108.055 67.4663 109.08 67.3981 110.082 67.5367Z" fill="#C17B5F"/>
<path d="M107.425 40.5574L120.06 50.9468L125.235 46.1379L112.6 35.7485L107.425 40.5574Z" fill="#EEEEEE"/>
<g style="mix-blend-mode:multiply">
<path d="M107.415 40.5617L109.52 42.2927L114.695 37.4838L112.59 35.7528L107.415 40.5617Z" fill="#F1F2F2"/>
</g>
<path d="M112.573 35.7561L111.752 31.3163L143.573 0.0488281L167.372 13.5026L132.035 46.0158L125.211 46.1453L112.573 35.7561Z" fill="#E0DCDC"/>
<g style="mix-blend-mode:multiply">
<path d="M143.573 0.0488281L111.752 31.3163L112.573 35.7561L114.676 37.4851L116.307 31.4409L149.86 3.60161L143.573 0.0488281Z" fill="#F1F2F2"/>
</g>
<path d="M72.446 79.2763L65.44 75.873L64.7046 77.2832L64.545 77.6071C64.4568 77.7772 64.4132 77.9625 64.4173 78.1492C64.4214 78.336 64.4731 78.5196 64.5687 78.6867C64.6642 78.8538 64.8013 79.0002 64.9697 79.1151C65.1382 79.23 65.3339 79.3106 65.5426 79.3511L70.2626 80.2879C70.4939 80.3342 70.7346 80.3298 70.9634 80.2751C71.1922 80.2203 71.4019 80.1168 71.5738 79.9739L72.446 79.2763Z" fill="#C8856A"/>
<path d="M72.4473 79.2763L72.0197 79.6301C71.48 79.3048 70.9076 79.0229 70.3096 78.788C68.4819 78.0491 66.4488 77.7878 64.4551 78.0356C64.4652 77.8946 64.5038 77.7563 64.5691 77.627L64.7287 77.3031L65.4641 75.873L72.4473 79.2763Z" fill="#C17B5F"/>
<path d="M77.5041 74.0296L73.2287 64.2582C72.6803 63.0057 71.5854 61.9948 70.1846 61.4478L57.1872 56.3553L46.8521 50.2463L41.8413 60.0576L48.682 69.256C49.1254 69.8539 49.7081 70.3633 50.3922 70.7508L61.514 64.9757L67.8929 69.54L76.8143 74.6325C77.0422 74.7585 77.251 74.9092 77.4357 75.0809C77.5331 74.9204 77.5897 74.7433 77.6015 74.5618C77.6133 74.3803 77.5801 74.1988 77.5041 74.0296Z" fill="#C8856A"/>
<path d="M68.4651 68.3887L69.9416 69.9633C72.308 71.5704 74.8516 72.9675 77.5347 74.134C77.6383 74.4522 77.5974 74.7931 77.4207 75.0857C77.236 74.914 77.0273 74.7633 76.7994 74.6373L71.4807 71.5977L71.5434 71.6675L67.878 69.5448L61.499 64.9805L68.4651 68.3887Z" fill="#C17B5F"/>
<path d="M66.0506 74.8462L77.9214 101.948L92.3221 97.1287L80.4513 70.0269L66.0506 74.8462Z" fill="#BFBB68"/>
<path d="M80.5734 99.7358L88.6796 97.0251C88.5883 96.8155 88.5454 96.5921 88.5534 96.3679C88.5613 96.1437 88.62 95.9231 88.726 95.7188C88.832 95.5145 88.9832 95.3306 89.1709 95.1776C89.3586 95.0247 89.5792 94.9057 89.8197 94.8277L80.3625 73.2319C80.1226 73.311 79.8672 73.348 79.6109 73.3408C79.3546 73.3335 79.1025 73.2821 78.869 73.1895C78.6355 73.0969 78.4251 72.965 78.25 72.8013C78.0749 72.6375 77.9385 72.4452 77.8485 72.2354L69.748 74.946C69.8385 75.1557 69.8809 75.379 69.8725 75.603C69.8642 75.827 69.8054 76.0474 69.6995 76.2515C69.5936 76.4556 69.4427 76.6395 69.2553 76.7925C69.068 76.9456 68.848 77.0648 68.6079 77.1435L78.0652 98.7392C78.549 98.581 79.0849 98.597 79.5552 98.7839C80.0255 98.9707 80.3917 99.3131 80.5734 99.7358Z" fill="#D8D17D"/>
<path d="M77.5341 82.1862C76.6759 82.4781 75.9358 82.9855 75.4071 83.6446C74.8784 84.3037 74.5848 85.0848 74.5633 85.8895C74.5418 86.6943 74.7934 87.4865 75.2863 88.1665C75.7792 88.8464 76.4914 89.3835 77.3331 89.7101C78.1748 90.0367 79.1082 90.1382 80.0158 90.0017C80.9233 89.8652 81.7643 89.4968 82.4327 88.9431C83.1011 88.3894 83.567 87.6751 83.7716 86.8903C83.9762 86.1055 83.9104 85.2853 83.5824 84.5331C83.364 84.0303 83.0337 83.5703 82.6108 83.1797C82.1878 82.7891 81.6804 82.4756 81.118 82.2574C80.5557 82.0392 79.9494 81.9205 79.3342 81.9083C78.7191 81.8961 78.1073 81.9905 77.5341 82.1862Z" fill="#BFBB68"/>
<path d="M57.1818 56.3551L70.1791 61.4277C71.0815 61.7794 71.8663 62.3265 72.4593 63.0172L57.9229 58.0344L45.9517 51.9901L46.8409 50.2561L57.1818 56.3551Z" fill="#C17B5F"/>
<path d="M59.5464 73.4563L61.6328 74.0244L65.4408 75.873L72.4468 79.2763L73.3418 79.7048C74.1139 80.0793 75.0228 80.1752 75.8747 79.9723C76.7266 79.7694 77.4542 79.2836 77.9022 78.6186C77.9649 78.5232 78.022 78.425 78.0733 78.3246C78.3449 77.7896 78.4287 77.1962 78.3141 76.6196C78.1994 76.043 77.8914 75.5091 77.4291 75.0857C77.2444 74.914 77.0356 74.7633 76.8077 74.6373L67.8863 69.5448L61.5074 64.9805L50.3799 70.7556C50.8211 71.009 51.3008 71.2069 51.805 71.3436L59.5464 73.4563Z" fill="#C8856A"/>
<path d="M65.4404 75.873L61.6325 74.0243L59.546 73.4563L59.3579 73.83C59.28 73.9814 59.237 74.1448 59.2316 74.3108C59.2261 74.4768 59.2582 74.6421 59.326 74.7972C59.3938 74.9523 59.4959 75.0941 59.6266 75.2146C59.7574 75.3351 59.914 75.4318 60.0876 75.4993L64.7051 77.3031L65.4404 75.873Z" fill="#C8856A"/>
<path d="M74.3118 74.5874L72.0771 77.8362L73.9355 78.8328C74.4286 79.091 75.0187 79.1678 75.5765 79.0464C76.1343 78.925 76.6143 78.6152 76.9112 78.185C77.2066 77.754 77.2945 77.2382 77.1556 76.7507C77.0167 76.2631 76.6623 75.8436 76.1702 75.584L74.3118 74.5874Z" fill="#D9BBAF"/>
<path d="M59.8051 75.3548C59.5448 75.1819 59.3588 74.9374 59.2771 74.6607C59.1954 74.3841 59.2227 74.0914 59.3547 73.83L59.5429 73.4563L61.6293 74.0243L62.6554 74.5226C61.644 74.6019 60.6679 74.8869 59.8051 75.3548Z" fill="#C17B5F"/>
<path d="M47.7203 48.5289L40.6509 62.3755L43.2902 63.405L50.3596 49.5585L47.7203 48.5289Z" fill="#EEEEEE"/>
<g style="mix-blend-mode:multiply">
<path d="M47.7267 48.5282L46.5488 50.8352L49.1881 51.8648L50.366 49.5578L47.7267 48.5282Z" fill="#F1F2F2"/>
</g>
<path d="M8.24911 31.7386L-0.000488281 47.8967L40.0678 63.5269L48.3174 47.3688L8.24911 31.7386Z" fill="#C391F3"/>
<g style="mix-blend-mode:multiply">
<path d="M8.24987 31.7457L6.48193 35.2085L46.5503 50.8387L48.3182 47.3759L8.24987 31.7457Z" fill="#F1F2F2"/>
</g>
<path d="M120.538 86.7505L127.549 83.3472L128.279 84.7772L128.444 85.1011C128.531 85.2718 128.574 85.4571 128.57 85.6439C128.565 85.8307 128.513 86.0143 128.418 86.1814C128.322 86.3486 128.186 86.4953 128.018 86.6109C127.85 86.7265 127.655 86.8082 127.447 86.8501L122.727 87.7819C122.495 87.8283 122.253 87.8239 122.023 87.7691C121.794 87.7143 121.583 87.6109 121.41 87.468L120.538 86.7505Z" fill="#C8856A"/>
<path d="M120.538 86.7505L120.971 87.1043C121.512 86.7815 122.085 86.4997 122.681 86.2621C124.509 85.5251 126.542 85.2639 128.536 85.5097C128.522 85.3692 128.483 85.2313 128.421 85.1011L128.256 84.7772L127.526 83.3472L120.538 86.7505Z" fill="#C17B5F"/>
<path d="M115.51 81.5235L119.792 71.7472C120.34 70.4947 121.435 69.4838 122.836 68.9368L135.833 63.8692L146.168 57.7603L151.179 67.5665L144.338 76.7649C143.894 77.3625 143.312 77.8718 142.628 78.2598L131.472 72.4697L125.093 77.034L116.166 82.1265C115.941 82.2541 115.734 82.4046 115.55 82.5749C115.457 82.4127 115.405 82.2347 115.398 82.0531C115.391 81.8715 115.429 81.6908 115.51 81.5235Z" fill="#C8856A"/>
<path d="M124.521 75.883L123.038 77.4526C120.675 79.0613 118.133 80.4585 115.451 81.6233C115.397 81.7806 115.379 81.9457 115.399 82.1091C115.418 82.2725 115.475 82.4308 115.565 82.575C115.749 82.4047 115.956 82.2541 116.181 82.1265L121.505 79.092L121.442 79.1567L125.108 77.034L131.47 72.4697L124.521 75.883Z" fill="#C17B5F"/>
<path d="M112.531 77.5332L100.66 104.635L115.061 109.454L126.932 82.3526L112.531 77.5332Z" fill="#BFBB68"/>
<path d="M112.412 107.225L104.306 104.514C104.397 104.305 104.44 104.081 104.432 103.857C104.424 103.633 104.365 103.412 104.259 103.208C104.153 103.004 104.002 102.82 103.814 102.667C103.627 102.514 103.406 102.395 103.166 102.317L112.657 80.7212C112.897 80.8003 113.152 80.8373 113.409 80.83C113.665 80.8227 113.917 80.7713 114.15 80.6788C114.384 80.5862 114.594 80.4543 114.769 80.2905C114.945 80.1268 115.081 79.9345 115.171 79.7246L123.277 82.4353C123.187 82.645 123.144 82.8682 123.153 83.0922C123.161 83.3163 123.22 83.5366 123.326 83.7408C123.432 83.9449 123.583 84.1287 123.77 84.2818C123.957 84.4349 124.177 84.5541 124.417 84.6327L114.937 106.243C114.698 106.162 114.442 106.123 114.186 106.129C113.929 106.135 113.676 106.184 113.441 106.276C113.206 106.367 112.995 106.498 112.818 106.661C112.641 106.823 112.503 107.015 112.412 107.225Z" fill="#D8D17D"/>
<path d="M114.649 97.4868C117.18 97.0696 118.844 94.9382 118.367 92.7261C117.89 90.514 115.451 89.0589 112.921 89.4761C110.39 89.8932 108.725 92.0247 109.203 94.2368C109.68 96.4489 112.118 97.904 114.649 97.4868Z" fill="#BFBB68"/>
<path d="M135.803 63.8695L122.806 68.9371C121.901 69.2875 121.116 69.8369 120.526 70.5316L135.057 65.5488L147.028 59.4996L146.144 57.7705L135.803 63.8695Z" fill="#C17B5F"/>
<path d="M133.44 80.9506L131.354 81.5186L127.546 83.3623L120.534 86.7506L119.645 87.1792C118.873 87.5536 117.964 87.6496 117.112 87.4466C116.26 87.2437 115.532 86.7579 115.084 86.0929C115.021 85.998 114.963 85.8998 114.913 85.7989C114.593 85.153 114.544 84.429 114.774 83.7545C115.005 83.08 115.5 82.4982 116.173 82.1116L125.1 77.0191L131.468 72.4697L142.584 78.2499C142.142 78.5022 141.663 78.7001 141.159 78.8378L133.44 80.9506Z" fill="#C8856A"/>
<path d="M127.548 83.3624L131.356 81.5187L133.443 80.9507L133.631 81.3194C133.709 81.4708 133.752 81.6342 133.757 81.8002C133.763 81.9662 133.731 82.1315 133.663 82.2866C133.595 82.4417 133.493 82.5836 133.362 82.704C133.231 82.8245 133.075 82.9213 132.901 82.9887L128.278 84.7925L127.548 83.3624Z" fill="#C8856A"/>
<path d="M118.67 82.0764L120.904 85.3252L119.046 86.3218C118.802 86.4503 118.531 86.5355 118.25 86.5725C117.968 86.6095 117.681 86.5976 117.404 86.5374C117.128 86.4772 116.868 86.37 116.639 86.2219C116.41 86.0737 116.217 85.8876 116.07 85.674C115.923 85.4608 115.826 85.2243 115.783 84.9781C115.741 84.7319 115.755 84.4808 115.823 84.2392C115.892 83.9976 116.015 83.7702 116.184 83.5701C116.354 83.37 116.567 83.2011 116.811 83.073L118.67 82.0764Z" fill="#D89E87"/>
<path d="M133.176 82.8442C133.437 82.6719 133.624 82.4273 133.706 82.1505C133.788 81.8736 133.76 81.5807 133.627 81.3194L133.439 80.9507L131.352 81.5187L130.32 82.017C131.333 82.096 132.31 82.3791 133.176 82.8442Z" fill="#C17B5F"/>
<path d="M142.633 57.0585L149.702 70.905L152.341 69.8755L145.272 56.0289L142.633 57.0585Z" fill="#EEEEEE"/>
<g style="mix-blend-mode:multiply">
<path d="M142.63 57.0585L143.808 59.3655L146.447 58.3359L145.27 56.0289L142.63 57.0585Z" fill="#F1F2F2"/>
</g>
<path d="M144.682 54.8697L152.932 71.0278L193 55.3976L184.75 39.2395L144.682 54.8697Z" fill="#8B20E9"/>
<g style="mix-blend-mode:multiply">
<path d="M144.678 54.8685L146.446 58.3313L186.515 42.7011L184.747 39.2383L144.678 54.8685Z" fill="#F1F2F2"/>
</g>
<g style="mix-blend-mode:screen">
<path d="M75.689 31.72C75.8307 31.9518 75.9398 32.1977 76.0139 32.4525C76.1819 32.9796 76.2644 33.5247 76.2591 34.0719C76.2638 34.6171 76.1833 35.1602 76.0196 35.6863C75.9428 35.9426 75.8319 36.1901 75.689 36.4238C75.5496 36.1893 75.4407 35.942 75.3641 35.6863C75.1957 35.161 75.1131 34.6174 75.1189 34.0719C75.1164 33.5249 75.1989 32.9801 75.3641 32.4525C75.4412 32.1986 75.5502 31.9529 75.689 31.72Z" fill="#007D00"/>
<path d="M72.999 34.0715C73.266 33.9472 73.5493 33.8518 73.8427 33.7875C74.4437 33.6403 75.0656 33.5682 75.6897 33.5732C76.3152 33.5696 76.9385 33.64 77.5424 33.7825C77.8336 33.8502 78.1148 33.9472 78.3804 34.0715C78.1138 34.1928 77.8328 34.2881 77.5424 34.3556C76.9393 34.5024 76.3157 34.5745 75.6897 34.5698C75.0659 34.5699 74.4449 34.4979 73.8427 34.3556C73.5503 34.2886 73.2673 34.1933 72.999 34.0715Z" fill="#007D00"/>
<path d="M148.563 32.3425C148.702 32.577 148.811 32.8244 148.887 33.08C149.05 33.6063 149.133 34.1492 149.133 34.6944C149.138 35.2416 149.055 35.7867 148.887 36.3139C148.81 36.5677 148.701 36.8134 148.563 37.0464C148.42 36.8142 148.309 36.5684 148.232 36.3139C148.069 35.786 147.988 35.2412 147.992 34.6944C147.987 34.1489 148.069 33.6053 148.238 33.08C148.311 32.8235 148.42 32.5759 148.563 32.3425Z" fill="#007D00"/>
<path d="M145.876 34.6943C146.143 34.573 146.424 34.4778 146.714 34.4103C147.318 34.2683 147.941 34.1963 148.567 34.1961C149.191 34.191 149.813 34.2631 150.414 34.4103C150.706 34.4773 150.989 34.5725 151.257 34.6943C150.99 34.8192 150.707 34.9162 150.414 34.9833C149.812 35.1264 149.19 35.1968 148.567 35.1926C147.941 35.1963 147.318 35.1259 146.714 34.9833C146.423 34.9157 146.142 34.8187 145.876 34.6943Z" fill="#007D00"/>
<path d="M173.931 92.0422C174.072 92.274 174.182 92.52 174.256 92.7747C174.424 93.3019 174.506 93.847 174.501 94.3942C174.506 94.9393 174.425 95.4825 174.261 96.0086C174.185 96.2649 174.074 96.5124 173.931 96.7461C173.788 96.5127 173.679 96.2651 173.606 96.0086C173.437 95.4832 173.355 94.9397 173.361 94.3942C173.355 93.847 173.438 93.3019 173.606 92.7747C173.683 92.5209 173.792 92.2752 173.931 92.0422Z" fill="#007D00"/>
<path d="M171.245 94.394C171.512 94.2697 171.795 94.1743 172.088 94.11C172.689 93.9628 173.311 93.8907 173.935 93.8958C174.561 93.8921 175.184 93.9625 175.788 94.105C176.079 94.1727 176.36 94.2697 176.626 94.394C176.359 94.5154 176.078 94.6106 175.788 94.6781C175.185 94.8249 174.561 94.897 173.935 94.8923C173.312 94.8925 172.69 94.8204 172.088 94.6781C171.796 94.6111 171.513 94.5158 171.245 94.394Z" fill="#007D00"/>
<path d="M125.72 117.928C125.859 118.161 125.968 118.407 126.045 118.661C126.213 119.188 126.295 119.733 126.29 120.28C126.296 120.826 126.213 121.369 126.045 121.895C125.971 122.151 125.862 122.399 125.72 122.632C125.577 122.399 125.468 122.151 125.395 121.895C125.226 121.369 125.144 120.826 125.15 120.28C125.144 119.733 125.227 119.188 125.395 118.661C125.472 118.407 125.581 118.161 125.72 117.928Z" fill="#007D00"/>
<path d="M123.033 120.28C123.298 120.156 123.58 120.059 123.871 119.991C124.475 119.849 125.098 119.778 125.723 119.782C126.349 119.776 126.973 119.846 127.576 119.991C127.867 120.059 128.148 120.156 128.414 120.28C128.148 120.401 127.866 120.497 127.576 120.564C126.972 120.709 126.349 120.781 125.723 120.778C125.098 120.778 124.475 120.706 123.871 120.564C123.58 120.497 123.299 120.401 123.033 120.28Z" fill="#007D00"/>
<path d="M152.272 76.2415C152.411 76.4744 152.52 76.7201 152.597 76.9739C152.76 77.5018 152.841 78.0466 152.836 78.5934C152.844 79.1403 152.763 79.6854 152.597 80.2128C152.52 80.4667 152.411 80.7123 152.272 80.9453C152.13 80.7131 152.019 80.4673 151.941 80.2128C151.776 79.6854 151.695 79.1403 151.702 78.5934C151.698 78.0466 151.778 77.5018 151.941 76.9739C152.019 76.7194 152.13 76.4736 152.272 76.2415Z" fill="#007D00"/>
<path d="M149.577 78.5935C149.844 78.4691 150.127 78.3737 150.421 78.3095C151.632 78.0238 152.909 78.0238 154.121 78.3095C154.414 78.3737 154.697 78.4691 154.964 78.5935C154.697 78.7179 154.414 78.8132 154.121 78.8775C152.909 79.1632 151.632 79.1632 150.421 78.8775C150.128 78.8106 149.845 78.7153 149.577 78.5935Z" fill="#007D00"/>
<path d="M44.8176 64.4121C44.957 64.6466 45.0659 64.894 45.1425 65.1496C45.4694 66.2086 45.4694 67.3244 45.1425 68.3835C45.069 68.6399 44.9599 68.8876 44.8176 69.1209C44.6753 68.8876 44.5662 68.6399 44.4927 68.3835C44.1659 67.3244 44.1659 66.2086 44.4927 65.1496C44.5693 64.894 44.6783 64.6466 44.8176 64.4121Z" fill="#007D00"/>
<path d="M42.1162 66.7694C42.3818 66.6451 42.663 66.5481 42.9542 66.4804C43.5581 66.3378 44.1813 66.2674 44.8069 66.2711C45.4326 66.265 46.0562 66.3354 46.6596 66.4804C46.9507 66.5481 47.232 66.6451 47.4976 66.7694C47.231 66.8907 46.95 66.986 46.6596 67.0534C46.0559 67.1978 45.4327 67.2699 44.8069 67.2677C44.1813 67.2674 43.5584 67.1954 42.9542 67.0534C42.6638 66.986 42.3827 66.8907 42.1162 66.7694Z" fill="#007D00"/>
<path d="M5.62405 73.2969C5.76634 73.5302 5.87546 73.7779 5.94899 74.0343C6.11738 74.5597 6.1999 75.1032 6.19411 75.6488C6.19833 76.1956 6.11779 76.7403 5.95468 77.2682C5.87727 77.5227 5.76632 77.7685 5.62405 78.0007C5.48235 77.7689 5.37324 77.5229 5.29912 77.2682C5.13117 76.7411 5.04865 76.196 5.054 75.6488C5.0482 75.1032 5.13073 74.5597 5.29912 74.0343C5.37572 73.7787 5.4847 73.5314 5.62405 73.2969Z" fill="#007D00"/>
<path d="M2.93701 75.6635C3.20528 75.5417 3.48826 75.4465 3.78069 75.3795C4.38284 75.2372 5.0039 75.1651 5.62768 75.1653C6.25367 75.1606 6.87731 75.2327 7.48037 75.3795C7.77079 75.447 8.05182 75.5422 8.31835 75.6635C8.05276 75.7879 7.77155 75.8849 7.48037 75.9525C6.87645 76.0951 6.25322 76.1655 5.62768 76.1618C5.00354 76.1669 4.38172 76.0948 3.78069 75.9476C3.48727 75.8833 3.20395 75.7879 2.93701 75.6635Z" fill="#007D00"/>
<path d="M105.738 41.1174C105.881 41.5994 105.989 42.0887 106.063 42.5824C106.137 43.0209 106.2 43.5341 106.24 44.0773C106.28 44.6204 106.308 45.2134 106.308 45.8013C106.308 46.3893 106.308 46.9723 106.24 47.5204C106.171 48.0685 106.137 48.5818 106.063 49.0153C105.994 49.5096 105.885 49.9991 105.738 50.4802C105.591 49.9989 105.48 49.5095 105.407 49.0153C105.339 48.5768 105.276 48.0636 105.236 47.5204C105.196 46.9773 105.168 46.3843 105.168 45.8013C105.168 45.2183 105.196 44.6254 105.236 44.0773C105.276 43.5291 105.339 43.0159 105.413 42.5824C105.483 42.0882 105.592 41.5987 105.738 41.1174Z" fill="#007D00"/>
<path d="M100.372 45.8061C100.922 45.6779 101.482 45.5814 102.048 45.5171C102.549 45.4573 103.136 45.4025 103.758 45.3677C104.379 45.3328 105.052 45.3079 105.724 45.3079C106.397 45.3079 107.064 45.3079 107.691 45.3677C108.318 45.4274 108.905 45.4524 109.401 45.5171C109.967 45.5814 110.526 45.6779 111.077 45.8061C110.526 45.931 109.966 46.0259 109.401 46.0902C108.894 46.1549 108.312 46.2098 107.691 46.2446C107.07 46.2795 106.391 46.3044 105.724 46.3044C105.057 46.3044 104.385 46.2795 103.758 46.2397C103.131 46.1998 102.538 46.1549 102.048 46.0902C101.483 46.0259 100.923 45.931 100.372 45.8061Z" fill="#007D00"/>
<path d="M109.53 42.4875C109.244 42.919 108.926 43.3335 108.578 43.7283C108.27 44.0821 107.899 44.4857 107.483 44.8943C107.067 45.3029 106.617 45.7414 106.143 46.1549C105.67 46.5685 105.174 46.9721 104.701 47.3309C104.228 47.6897 103.772 48.0185 103.362 48.2826C102.911 48.5879 102.439 48.8675 101.948 49.1197C102.233 48.6883 102.551 48.2738 102.9 47.879C103.202 47.5252 103.572 47.1216 103.989 46.713C104.405 46.3044 104.861 45.8659 105.334 45.4524C105.807 45.0388 106.303 44.6401 106.776 44.2764C107.249 43.9126 107.705 43.5888 108.116 43.3247C108.566 43.0194 109.038 42.7397 109.53 42.4875Z" fill="#007D00"/>
<path d="M101.948 42.4875C102.439 42.7397 102.911 43.0194 103.362 43.3247C103.772 43.5888 104.228 43.9126 104.701 44.2764C105.174 44.6401 105.665 45.0388 106.143 45.4524C106.622 45.8659 107.073 46.2945 107.483 46.713C107.893 47.1316 108.275 47.5252 108.578 47.879C108.926 48.2738 109.244 48.6883 109.53 49.1197C109.03 48.8683 108.551 48.5886 108.093 48.2826C107.683 48.0185 107.226 47.6946 106.753 47.3309C106.28 46.9671 105.784 46.5685 105.311 46.1549C104.838 45.7414 104.382 45.3128 103.971 44.8943C103.561 44.4757 103.179 44.0821 102.877 43.7283C102.536 43.3329 102.226 42.9185 101.948 42.4875Z" fill="#007D00"/>
<path d="M148.562 99.0781C148.705 99.5601 148.814 100.049 148.887 100.543C148.961 100.987 149.018 101.495 149.058 102.038C149.098 102.581 149.132 103.169 149.132 103.757C149.132 104.345 149.104 104.928 149.064 105.476C149.024 106.024 148.961 106.542 148.887 106.971C148.814 107.465 148.705 107.954 148.562 108.436C148.416 107.954 148.305 107.465 148.232 106.971C148.158 106.532 148.1 106.019 148.061 105.476C148.021 104.933 147.992 104.345 147.992 103.757C147.992 103.169 147.992 102.586 148.061 102.038C148.129 101.49 148.163 100.977 148.237 100.543C148.307 100.049 148.416 99.5594 148.562 99.0781Z" fill="#007D00"/>
<path d="M143.202 103.767C143.753 103.642 144.313 103.547 144.878 103.483C145.379 103.418 145.966 103.363 146.588 103.328C147.209 103.293 147.888 103.269 148.56 103.269C149.233 103.269 149.9 103.269 150.527 103.328C151.154 103.388 151.741 103.418 152.237 103.483C152.803 103.543 153.363 103.638 153.913 103.767C153.363 103.895 152.803 103.99 152.237 104.051C151.735 104.116 151.148 104.17 150.527 104.205C149.906 104.24 149.227 104.265 148.56 104.265C147.893 104.265 147.215 104.265 146.588 104.205C145.961 104.146 145.374 104.116 144.878 104.051C144.313 103.987 143.753 103.892 143.202 103.767Z" fill="#007D00"/>
<path d="M152.354 100.453C152.071 100.886 151.757 101.302 151.413 101.699C151.111 102.058 150.74 102.456 150.324 102.87C149.908 103.284 149.458 103.717 148.979 104.131C148.5 104.544 148.016 104.943 147.542 105.307C147.069 105.67 146.608 105.994 146.203 106.258C145.752 106.562 145.28 106.84 144.789 107.091C145.074 106.66 145.392 106.247 145.741 105.855C146.043 105.496 146.414 105.097 146.83 104.684C147.246 104.27 147.702 103.837 148.175 103.423C148.648 103.01 149.139 102.611 149.617 102.252C150.096 101.893 150.547 101.565 150.957 101.295C151.4 100.988 151.867 100.706 152.354 100.453Z" fill="#007D00"/>
<path d="M144.772 100.453C145.263 100.704 145.735 100.982 146.186 101.286C146.59 101.555 147.052 101.878 147.525 102.242C147.998 102.606 148.489 103 148.962 103.413C149.435 103.827 149.897 104.26 150.307 104.674C150.718 105.087 151.094 105.486 151.402 105.845C151.748 106.239 152.066 106.652 152.354 107.081C151.86 106.831 151.386 106.553 150.934 106.248C150.53 105.984 150.074 105.66 149.6 105.297C149.127 104.933 148.631 104.534 148.158 104.121C147.685 103.707 147.229 103.274 146.813 102.86C146.397 102.447 146.026 102.048 145.713 101.699C145.367 101.303 145.053 100.887 144.772 100.453Z" fill="#007D00"/>
<path d="M67.8767 82.6646C68.0234 83.146 68.1339 83.6354 68.2073 84.1295C68.2757 84.568 68.3384 85.0812 68.3783 85.6244C68.4182 86.1675 68.4468 86.7555 68.4468 87.3435C68.4468 87.9314 68.4467 88.5144 68.3783 89.0626C68.3099 89.6107 68.2814 90.1289 68.2073 90.5574C68.1339 91.0515 68.0234 91.5409 67.8767 92.0224C67.7339 91.5404 67.6253 91.0511 67.5518 90.5574C67.4777 90.1189 67.4149 89.6057 67.375 89.0626C67.3351 88.5194 67.3066 87.9314 67.3066 87.3435C67.3066 86.7555 67.3066 86.1725 67.3807 85.6244C67.4548 85.0763 67.4777 84.558 67.5518 84.1295C67.6253 83.6358 67.7339 83.1465 67.8767 82.6646Z" fill="#007D00"/>
<path d="M62.519 87.3535C63.0703 87.228 63.6301 87.1331 64.195 87.0695C64.6967 87.0047 65.2838 86.9499 65.9052 86.915C66.5265 86.8801 67.2049 86.8552 67.8719 86.8552C68.5388 86.8552 69.2172 86.8552 69.8443 86.915C70.4713 86.9748 71.0585 87.0047 71.5545 87.0695C72.1198 87.1308 72.6798 87.2257 73.2304 87.3535C72.6798 87.4814 72.1198 87.5762 71.5545 87.6375C71.0528 87.7023 70.4656 87.7571 69.8443 87.792C69.2229 87.8269 68.5445 87.8518 67.8719 87.8518C67.1992 87.8518 66.5322 87.8269 65.9052 87.792C65.2781 87.7571 64.691 87.7023 64.195 87.6375C63.6301 87.5739 63.0703 87.479 62.519 87.3535Z" fill="#007D00"/>
<path d="M71.6653 84.0398C71.3802 84.47 71.0621 84.8829 70.7133 85.2755C70.4111 85.6343 70.0406 86.0329 69.6245 86.4465C69.2083 86.8601 68.7523 87.2936 68.2791 87.7072C67.806 88.1208 67.3157 88.5194 66.8369 88.8782C66.358 89.2369 65.9077 89.5708 65.5029 89.8349C65.0513 90.1393 64.5771 90.4173 64.0835 90.667C64.3711 90.2382 64.6891 89.8255 65.0355 89.4313C65.3433 89.0725 65.7139 88.6739 66.13 88.2603C66.5461 87.8467 66.9965 87.4132 67.4753 86.9996C67.9542 86.586 68.4387 86.1874 68.9119 85.8286C69.385 85.4699 69.8468 85.141 70.2515 84.8719C70.7019 84.5683 71.1741 84.2904 71.6653 84.0398Z" fill="#007D00"/>
<path d="M64.0835 84.0398C64.5757 84.289 65.048 84.567 65.4972 84.8719C65.9077 85.141 66.3637 85.4649 66.8369 85.8286C67.31 86.1924 67.806 86.586 68.2791 86.9996C68.7523 87.4132 69.2083 87.8467 69.6245 88.2603C70.0406 88.6739 70.4111 89.0725 70.7133 89.4313C71.0621 89.8239 71.3802 90.2368 71.6653 90.667C71.1741 90.4164 70.7019 90.1385 70.2515 89.8349C69.8468 89.5708 69.385 89.2419 68.9119 88.8782C68.4387 88.5144 67.9485 88.1208 67.4753 87.7072C67.0022 87.2936 66.5461 86.8601 66.13 86.4465C65.7139 86.0329 65.3433 85.6343 65.0412 85.2755C64.6919 84.882 64.372 84.4693 64.0835 84.0398Z" fill="#007D00"/>
<path d="M19.0364 97.0249C19.18 97.5067 19.2885 97.996 19.3613 98.4899C19.4354 98.9284 19.4981 99.4416 19.538 99.9847C19.5779 100.528 19.6064 101.121 19.6064 101.704C19.6064 102.287 19.6064 102.88 19.538 103.428C19.4696 103.976 19.4354 104.489 19.3613 104.923C19.2919 105.417 19.1834 105.907 19.0364 106.388C18.8889 105.906 18.7784 105.417 18.7057 104.923C18.6373 104.484 18.5746 103.971 18.5347 103.428C18.4948 102.885 18.4663 102.292 18.4663 101.704C18.4663 101.116 18.4663 100.533 18.5347 99.9847C18.6031 99.4366 18.6373 98.9234 18.7114 98.4899C18.7808 97.9956 18.8894 97.5061 19.0364 97.0249Z" fill="#007D00"/>
<path d="M13.6729 101.699C14.2243 101.574 14.784 101.479 15.3488 101.415C15.8505 101.35 16.4376 101.3 17.059 101.265C17.6804 101.231 18.3587 101.201 19.0314 101.201C19.7041 101.201 20.371 101.226 20.9981 101.26C21.6251 101.295 22.2123 101.35 22.7083 101.415C23.2731 101.479 23.8328 101.574 24.3842 101.699C23.8334 101.827 23.2735 101.924 22.7083 101.988C22.2009 102.053 21.6194 102.108 20.9981 102.142C20.3767 102.177 19.6984 102.197 19.0314 102.197C18.3644 102.197 17.6918 102.197 17.059 102.137C16.4262 102.078 15.8448 102.053 15.3488 101.988C14.7835 101.924 14.2237 101.827 13.6729 101.699Z" fill="#007D00"/>
<path d="M22.8249 98.3958C22.5392 98.8272 22.2212 99.2417 21.8729 99.6365C21.5651 99.9903 21.1946 100.389 20.7784 100.802C20.3623 101.216 19.9119 101.65 19.4388 102.063C18.9656 102.477 18.4697 102.875 17.9965 103.239C17.5234 103.603 17.0673 103.927 16.6569 104.191C16.2067 104.496 15.7345 104.776 15.2432 105.028C15.5289 104.596 15.8469 104.182 16.1952 103.787C16.4973 103.433 16.8678 103.03 17.284 102.616C17.7001 102.203 18.1562 101.774 18.6293 101.361C19.1025 100.947 19.5984 100.548 20.0715 100.185C20.5447 99.8209 21.0007 99.497 21.4112 99.2329C21.8614 98.9276 22.3336 98.648 22.8249 98.3958Z" fill="#007D00"/>
<path d="M15.2432 98.3958C15.7345 98.648 16.2067 98.9276 16.6569 99.2329C17.0616 99.497 17.5234 99.8209 17.9965 100.185C18.4697 100.548 18.9599 100.947 19.4388 101.361C19.9176 101.774 20.368 102.203 20.7784 102.616C21.1889 103.03 21.5708 103.433 21.8729 103.787C22.2212 104.182 22.5392 104.596 22.8249 105.028C22.3434 104.775 21.8807 104.495 21.4397 104.191C21.0292 103.927 20.5732 103.603 20.1001 103.239C19.6269 102.875 19.131 102.477 18.6578 102.063C18.1847 101.65 17.7286 101.221 17.3182 100.802C16.9077 100.384 16.5258 99.9903 16.2237 99.6365C15.8656 99.2424 15.538 98.8279 15.2432 98.3958Z" fill="#007D00"/>
</g>
</svg>
