<svg width="25" height="25" viewBox="0 0 25 25" fill="none" xmlns="http://www.w3.org/2000/svg">
<path d="M12.9004 3.5C12.6049 3.5 12.3123 3.5582 12.0394 3.67127C11.7664 3.78434 11.5183 3.95008 11.3094 4.15901C11.1005 4.36794 10.9347 4.61598 10.8217 4.88896C10.7086 5.16194 10.6504 5.45453 10.6504 5.75C10.6504 6.04547 10.7086 6.33806 10.8217 6.61104C10.9347 6.88402 11.1005 7.13206 11.3094 7.34099C11.5183 7.54992 11.7664 7.71566 12.0394 7.82873C12.3123 7.9418 12.6049 8 12.9004 8C13.4971 8 14.0694 7.76295 14.4914 7.34099C14.9133 6.91903 15.1504 6.34674 15.1504 5.75C15.1504 5.15326 14.9133 4.58097 14.4914 4.15901C14.0694 3.73705 13.4971 3.5 12.9004 3.5ZM9.15039 5.75C9.15039 4.75544 9.54548 3.80161 10.2487 3.09835C10.952 2.39509 11.9058 2 12.9004 2C13.895 2 14.8488 2.39509 15.552 3.09835C16.2553 3.80161 16.6504 4.75544 16.6504 5.75C16.6504 6.74456 16.2553 7.69839 15.552 8.40165C14.8488 9.10491 13.895 9.5 12.9004 9.5C11.9058 9.5 10.952 9.10491 10.2487 8.40165C9.54548 7.69839 9.15039 6.74456 9.15039 5.75ZM6.90039 13.25C6.90139 12.976 6.92939 12.711 6.98439 12.455L4.06839 13.235C3.78293 13.3116 3.51535 13.4436 3.28094 13.6236C3.04653 13.8037 2.84989 14.0281 2.70223 14.2841C2.55458 14.5401 2.45881 14.8227 2.4204 15.1158C2.382 15.4088 2.4017 15.7066 2.47839 15.992L3.06039 18.1655C3.21687 18.7487 3.48911 19.2944 3.86091 19.7702C4.23272 20.246 4.69647 20.6421 5.22456 20.9349C5.75264 21.2277 6.33425 21.4112 6.93475 21.4746C7.53525 21.5379 8.14235 21.4797 8.71989 21.3035C8.31872 20.9144 7.97388 20.4711 7.69539 19.9865C6.98877 20.0547 6.28086 19.8701 5.6975 19.4656C5.11415 19.061 4.69317 18.4627 4.50939 17.777L3.92589 15.602C3.8746 15.4099 3.90173 15.2052 4.0013 15.033C4.10088 14.8609 4.26476 14.7353 4.45689 14.684L6.90039 14.03V13.25ZM17.2294 21.347L17.0794 21.305C17.4799 20.915 17.8264 20.4725 18.1054 19.9865C18.812 20.0547 19.5199 19.8701 20.1033 19.4656C20.6866 19.061 21.1076 18.4627 21.2914 17.777L21.8734 15.602C21.9247 15.4101 21.8978 15.2056 21.7985 15.0335C21.6993 14.8614 21.5357 14.7357 21.3439 14.684L18.9004 14.03V13.25C18.8994 12.976 18.8714 12.711 18.8164 12.455L21.7309 13.235C22.0165 13.3114 22.2842 13.4434 22.5188 13.6233C22.7534 13.8032 22.9502 14.0276 23.098 14.2837C23.2458 14.5397 23.3417 14.8224 23.3802 15.1155C23.4187 15.4086 23.3991 15.7065 23.3224 15.992L22.7404 18.1655C22.4311 19.3179 21.6767 20.3002 20.6433 20.8965C19.6099 21.4929 18.3819 21.6559 17.2294 21.347ZM3.90039 8C3.90039 7.60218 4.05843 7.22064 4.33973 6.93934C4.62103 6.65804 5.00257 6.5 5.40039 6.5C5.79822 6.5 6.17975 6.65804 6.46105 6.93934C6.74236 7.22064 6.90039 7.60218 6.90039 8C6.90039 8.39782 6.74236 8.77936 6.46105 9.06066C6.17975 9.34196 5.79822 9.5 5.40039 9.5C5.00257 9.5 4.62103 9.34196 4.33973 9.06066C4.05843 8.77936 3.90039 8.39782 3.90039 8ZM5.40039 5C4.60474 5 3.84168 5.31607 3.27907 5.87868C2.71646 6.44129 2.40039 7.20435 2.40039 8C2.40039 8.79565 2.71646 9.55871 3.27907 10.1213C3.84168 10.6839 4.60474 11 5.40039 11C6.19604 11 6.9591 10.6839 7.52171 10.1213C8.08432 9.55871 8.40039 8.79565 8.40039 8C8.40039 7.20435 8.08432 6.44129 7.52171 5.87868C6.9591 5.31607 6.19604 5 5.40039 5ZM20.4004 6.5C20.0026 6.5 19.621 6.65804 19.3397 6.93934C19.0584 7.22064 18.9004 7.60218 18.9004 8C18.9004 8.39782 19.0584 8.77936 19.3397 9.06066C19.621 9.34196 20.0026 9.5 20.4004 9.5C20.7982 9.5 21.1797 9.34196 21.4611 9.06066C21.7424 8.77936 21.9004 8.39782 21.9004 8C21.9004 7.60218 21.7424 7.22064 21.4611 6.93934C21.1797 6.65804 20.7982 6.5 20.4004 6.5ZM17.4004 8C17.4004 7.20435 17.7165 6.44129 18.2791 5.87868C18.8417 5.31607 19.6047 5 20.4004 5C21.196 5 21.9591 5.31607 22.5217 5.87868C23.0843 6.44129 23.4004 7.20435 23.4004 8C23.4004 8.79565 23.0843 9.55871 22.5217 10.1213C21.9591 10.6839 21.196 11 20.4004 11C19.6047 11 18.8417 10.6839 18.2791 10.1213C17.7165 9.55871 17.4004 8.79565 17.4004 8ZM10.6504 11C10.0537 11 9.48136 11.2371 9.0594 11.659C8.63744 12.081 8.40039 12.6533 8.40039 13.25V17C8.40039 18.1935 8.8745 19.3381 9.71841 20.182C10.5623 21.0259 11.7069 21.5 12.9004 21.5C14.0939 21.5 15.2385 21.0259 16.0824 20.182C16.9263 19.3381 17.4004 18.1935 17.4004 17V13.25C17.4004 12.6533 17.1633 12.081 16.7414 11.659C16.3194 11.2371 15.7471 11 15.1504 11H10.6504ZM9.90039 13.25C9.90039 13.0511 9.97941 12.8603 10.1201 12.7197C10.2607 12.579 10.4515 12.5 10.6504 12.5H15.1504C15.3493 12.5 15.5401 12.579 15.6807 12.7197C15.8214 12.8603 15.9004 13.0511 15.9004 13.25V17C15.9004 17.7956 15.5843 18.5587 15.0217 19.1213C14.4591 19.6839 13.696 20 12.9004 20C12.1047 20 11.3417 19.6839 10.7791 19.1213C10.2165 18.5587 9.90039 17.7956 9.90039 17V13.25Z" fill="#2C2C2C"/>
</svg>
