<svg width="186" height="188" viewBox="0 0 186 188" fill="none" xmlns="http://www.w3.org/2000/svg">
<path d="M158.581 97.8795C194.971 118.5 195.166 151.928 159.004 172.544C122.842 193.16 64.0528 193.143 27.6627 172.544C-8.72729 151.945 -8.91744 118.5 27.2402 97.8837C63.3978 77.2675 122.196 77.2633 158.581 97.8795Z" fill="#E8E8E8"/>
<path d="M123.417 4.78315L125.281 3.70142L125.171 42.2084L123.312 43.2944L123.417 4.78315Z" fill="#F0F0F0"/>
<path d="M123.312 43.2944L125.171 42.2085L178.894 73.2237L177.03 74.3054L123.312 43.2944Z" fill="#F5F5F5"/>
<path d="M121.283 1.08594L179.287 34.573L179.164 78.007L121.161 44.5157L121.283 1.08594ZM177.03 74.3054L177.14 35.7984L123.417 4.78325L123.311 43.2903L177.03 74.3054Z" fill="#E0E0E0"/>
<path d="M121.283 1.08595L123.147 0L181.15 33.4913L179.287 34.5731L121.283 1.08595Z" fill="#F5F5F5"/>
<path d="M179.287 34.5729L181.15 33.4912L181.028 76.9252L179.164 78.0069L179.287 34.5729Z" fill="#F0F0F0"/>
<path d="M149.205 19.6738L149.095 58.1808L151.238 59.4189L151.347 20.9077L149.205 19.6738Z" fill="#E0E0E0"/>
<path d="M151.348 20.9077L151.238 59.4189L153.101 58.3372L153.207 21.981L151.348 20.9077Z" fill="#F0F0F0"/>
<path opacity="0.2" d="M151.348 22.6401L151.352 20.9077L149.21 19.6738L149.201 21.4021L151.348 22.6401Z" fill="black"/>
<path opacity="0.2" d="M151.343 22.6402L152.848 21.7739L151.347 20.9077L151.343 22.6402Z" fill="black"/>
<path d="M33.2702 122.155C32.0743 122.848 32.0659 123.968 33.2702 124.657L37.5506 127.146C38.2201 127.486 38.9607 127.664 39.7119 127.664C40.4632 127.664 41.2037 127.486 41.8733 127.146L93.4793 97.1656C94.6752 96.4768 94.6878 95.3528 93.4793 94.6599L89.1947 92.171C88.5251 91.8304 87.7846 91.6528 87.0333 91.6528C86.2821 91.6528 85.5415 91.8304 84.872 92.171L33.2702 122.155Z" fill="#E6E6E6"/>
<path d="M40.5125 153.002L78.6561 175.164C79.1881 175.473 79.7924 175.636 80.4076 175.636C81.0229 175.636 81.6271 175.473 82.1591 175.164L151.436 135.183C151.569 135.106 151.679 134.995 151.755 134.863C151.831 134.73 151.872 134.579 151.872 134.426C151.872 134.273 151.831 134.123 151.755 133.99C151.679 133.857 151.569 133.747 151.436 133.67L113.829 111.816C113.3 111.511 112.699 111.351 112.088 111.351C111.477 111.351 110.877 111.511 110.347 111.816L40.521 151.493C40.3891 151.57 40.2795 151.679 40.203 151.811C40.1265 151.943 40.0858 152.092 40.085 152.245C40.0841 152.397 40.1231 152.547 40.1981 152.68C40.2731 152.813 40.3815 152.924 40.5125 153.002Z" fill="#E6E6E6"/>
<path d="M24.1851 20.9248L24.2146 30.2252L25.3386 30.8801L25.309 20.2783L24.1851 20.9248Z" fill="#F0F0F0"/>
<path d="M12.0454 37.2521L12.0496 38.5536L25.3388 30.88L24.2149 30.2251L12.0454 37.2521Z" fill="#F5F5F5"/>
<path d="M26.6655 17.929L10.6509 27.1744L10.6889 40.9072L26.7078 31.6618L26.6655 17.929ZM12.0453 38.5536V37.2522L12.0157 27.9561L24.1852 20.9291L25.3091 20.2826L25.3387 30.8843L12.0453 38.5536Z" fill="#E0E0E0"/>
<path d="M26.6658 17.9289L25.5418 17.2739L9.52295 26.5193L10.6512 27.1743L26.6658 17.9289Z" fill="#F5F5F5"/>
<path d="M9.52295 26.5193L9.56098 40.2522L10.6892 40.9071L10.6512 27.1742L9.52295 26.5193Z" fill="#F0F0F0"/>
<path d="M24.1851 40.3072L24.2146 49.6076L25.3386 50.2625L25.309 39.6565L24.1851 40.3072Z" fill="#F0F0F0"/>
<path d="M12.0454 56.6344L12.0496 57.9359L25.3388 50.2624L24.2149 49.6074L12.0454 56.6344Z" fill="#F5F5F5"/>
<path d="M26.6655 37.3071L10.6509 46.5568L10.6889 60.2896L26.7078 51.04L26.6655 37.3071ZM12.0453 57.9276V56.6219L12.0157 47.3258L24.1852 40.303L25.3091 39.6523L25.3387 50.2583L12.0453 57.9276Z" fill="#E0E0E0"/>
<path d="M26.6658 37.3071L25.5418 36.6521L9.52295 45.9017L10.6512 46.5567L26.6658 37.3071Z" fill="#F5F5F5"/>
<path d="M9.52295 45.9016L9.56098 59.6303L10.6892 60.2894L10.6512 46.5566L9.52295 45.9016Z" fill="#F0F0F0"/>
<path d="M20.3191 24.4573L23.6404 27.0686L23.6446 29.6208L12.6076 35.9929L12.5991 33.4407L14.7034 29.2659L16.5922 30.7321L15.9246 32.8069L16.8965 30.9645L20.3191 24.4573Z" fill="#E0E0E0"/>
<path d="M16.6934 25.7418C17.2132 25.4418 17.6357 25.6826 17.6399 26.2826C17.6255 26.6115 17.5328 26.9321 17.3697 27.218C17.2066 27.5038 16.9776 27.7467 16.7019 27.9264C16.1821 28.2264 15.7596 27.9855 15.7554 27.3897C15.7692 27.0602 15.8615 26.7387 16.0247 26.4521C16.1878 26.1654 16.4171 25.9219 16.6934 25.7418Z" fill="#E0E0E0"/>
<path d="M20.3191 43.8396L23.6404 46.451L23.6446 49.0032L12.6076 55.3752L12.5991 52.823L14.7034 48.644L16.5922 50.1102L15.9246 52.185L16.8965 50.3426L20.3191 43.8396Z" fill="#E0E0E0"/>
<path d="M16.6934 45.1242C17.2132 44.8242 17.6357 45.0651 17.6399 45.6608C17.6229 45.9868 17.529 46.304 17.366 46.5867C17.2029 46.8694 16.9754 47.1096 16.7019 47.2877C16.1821 47.5877 15.7596 47.3468 15.7554 46.7468C15.7731 46.4216 15.8673 46.1052 16.0303 45.8233C16.1933 45.5414 16.4205 45.3018 16.6934 45.1242Z" fill="#E0E0E0"/>
<path d="M155.286 102.025L155.282 103.466L131.56 89.7666L131.564 88.3257L155.286 102.025Z" fill="#2C2C2C"/>
<path d="M146.835 99.4386L146.831 100.879L131.551 92.0566L131.555 90.6157L146.835 99.4386Z" fill="#2C2C2C"/>
<path d="M139.905 79.448C140.154 79.5918 140.373 79.781 140.552 80.0057C141.304 80.9058 141.49 82.1185 141.591 83.1706C141.735 84.6284 141.883 86.0862 142.014 87.544C142.068 88.3099 142.209 89.067 142.436 89.8005C142.68 90.5956 143.141 91.3069 143.767 91.854C143.839 91.9105 143.916 91.9614 143.995 92.0062C144.214 92.152 144.47 92.2299 144.733 92.2299C144.995 92.2299 145.252 92.152 145.47 92.0062C145.889 91.6267 146.22 91.1611 146.442 90.6413C146.717 90.0311 147.169 89.5174 147.739 89.1666C148.03 89.0404 148.348 88.9882 148.665 89.0147C148.981 89.0413 149.286 89.1457 149.552 89.3187C149.664 89.3847 149.771 89.4581 149.873 89.5385C151.103 90.4808 151.829 92.3315 152.408 93.9372C152.987 95.5429 153.727 97.4064 154.965 98.3064C155.046 98.367 155.131 98.4235 155.218 98.4754C155.593 98.7017 156.029 98.8043 156.465 98.7686C156.901 98.733 157.315 98.5609 157.648 98.2768C158.328 97.7571 158.878 97.0092 159.727 96.781C160.178 96.6932 160.645 96.7587 161.054 96.9669V103.981L131.577 86.9736L131.61 75.3154C132.164 76.2712 132.555 77.3121 132.768 78.3958C133.022 79.7987 132.963 81.3241 133.909 82.5622C134.139 82.8633 134.426 83.116 134.754 83.3059C135.11 83.5307 135.536 83.6151 135.95 83.5425C136.533 83.3904 136.901 82.8453 137.142 82.203C137.467 81.3579 137.615 80.3015 138.13 79.6677C138.35 79.4236 138.651 79.2671 138.977 79.2267C139.303 79.1863 139.632 79.2649 139.905 79.448Z" fill="#2C2C2C"/>
<path opacity="0.4" d="M139.905 79.448C140.154 79.5918 140.373 79.781 140.552 80.0057C141.304 80.9058 141.49 82.1185 141.591 83.1706C141.735 84.6284 141.883 86.0862 142.014 87.544C142.068 88.3099 142.209 89.067 142.436 89.8005C142.68 90.5956 143.141 91.3069 143.767 91.854C143.839 91.9105 143.916 91.9614 143.995 92.0062C144.214 92.152 144.47 92.2299 144.733 92.2299C144.995 92.2299 145.252 92.152 145.47 92.0062C145.889 91.6267 146.22 91.1611 146.442 90.6413C146.717 90.0311 147.169 89.5174 147.739 89.1666C148.03 89.0404 148.348 88.9882 148.665 89.0147C148.981 89.0413 149.286 89.1457 149.552 89.3187C149.664 89.3847 149.771 89.4581 149.873 89.5385C151.103 90.4808 151.829 92.3315 152.408 93.9372C152.987 95.5429 153.727 97.4064 154.965 98.3064C155.046 98.367 155.131 98.4235 155.218 98.4754C155.593 98.7017 156.029 98.8043 156.465 98.7686C156.901 98.733 157.315 98.5609 157.648 98.2768C158.328 97.7571 158.878 97.0092 159.727 96.781C160.178 96.6932 160.645 96.7587 161.054 96.9669V103.981L131.577 86.9736L131.61 75.3154C132.164 76.2712 132.555 77.3121 132.768 78.3958C133.022 79.7987 132.963 81.3241 133.909 82.5622C134.139 82.8633 134.426 83.116 134.754 83.3059C135.11 83.5307 135.536 83.6151 135.95 83.5425C136.533 83.3904 136.901 82.8453 137.142 82.203C137.467 81.3579 137.615 80.3015 138.13 79.6677C138.35 79.4236 138.651 79.2671 138.977 79.2267C139.303 79.1863 139.632 79.2649 139.905 79.448Z" fill="white"/>
<path d="M165.719 42.6183L132.485 23.4303C132.359 23.3437 132.215 23.2886 132.063 23.2695C131.912 23.2504 131.758 23.2678 131.615 23.3204H131.589L131.539 23.35L130.195 24.1233H130.165H130.144C130.023 24.2199 129.928 24.3449 129.867 24.4871C129.806 24.6294 129.78 24.7845 129.793 24.9388L129.768 33.8969C129.791 34.3491 129.921 34.7893 130.148 35.1815C130.374 35.5738 130.69 35.9068 131.07 36.1533L164.303 55.392C164.437 55.4891 164.594 55.5485 164.758 55.5641C164.922 55.5797 165.088 55.5509 165.237 55.4807L166.606 54.6906C166.735 54.593 166.836 54.464 166.9 54.316C166.965 54.168 166.99 54.006 166.974 53.8455L166.999 44.8874C166.978 44.4353 166.852 43.9943 166.629 43.6001C166.407 43.206 166.095 42.8696 165.719 42.6183Z" fill="#2C2C2C"/>
<path opacity="0.3" d="M165.719 42.6183L132.485 23.4303C132.359 23.3437 132.215 23.2886 132.063 23.2695C131.912 23.2504 131.758 23.2678 131.615 23.3204H131.589L131.539 23.35L130.195 24.1233C130.342 24.0599 130.503 24.0355 130.662 24.0526C130.821 24.0696 130.973 24.1274 131.103 24.2205L164.337 43.4085C164.877 43.7594 165.283 44.2818 165.49 44.8916L166.876 44.1014C166.669 43.4907 166.261 42.968 165.719 42.6183Z" fill="white"/>
<path opacity="0.2" d="M165.49 44.9001C165.585 45.1471 165.635 45.4089 165.638 45.6734L165.613 54.6357C165.631 54.7972 165.605 54.9606 165.539 55.1091C165.473 55.2576 165.369 55.3859 165.237 55.4808L166.606 54.6906C166.734 54.593 166.836 54.464 166.9 54.3161C166.964 54.1681 166.99 54.0061 166.973 53.8455L166.999 44.8874C166.994 44.6245 166.944 44.3644 166.851 44.1184L165.49 44.9001Z" fill="black"/>
<path d="M139.081 32.3249C139.804 33.5925 139.863 34.9236 139.263 35.4982L136.888 34.1292L136.723 32.6925C136.717 32.6512 136.703 32.6116 136.681 32.576C136.659 32.5404 136.631 32.5096 136.597 32.4855C136.529 32.4474 136.474 32.4855 136.466 32.5404L136.119 34.6531L135.671 31.2727C135.664 31.2319 135.649 31.1928 135.626 31.158C135.604 31.1231 135.575 31.0932 135.54 31.0699C135.529 31.0602 135.516 31.0538 135.502 31.0515C135.487 31.0492 135.473 31.051 135.459 31.0568C135.446 31.0626 135.434 31.0721 135.426 31.0841C135.418 31.0962 135.414 31.1103 135.413 31.1248L135.088 33.4446L134.763 31.7037C134.746 31.6265 134.701 31.5584 134.636 31.5136C134.573 31.4798 134.522 31.5136 134.509 31.5516L134.213 32.5784L132.274 31.4587C131.678 30.191 131.746 28.9234 132.477 28.5008C132.71 28.3957 132.967 28.3541 133.221 28.3801C133.476 28.406 133.719 28.4987 133.926 28.6487C134.528 29.0243 135.025 29.548 135.367 30.1699L135.789 30.8798L136.212 30.6431C136.445 30.5393 136.701 30.4983 136.954 30.5243C137.208 30.5502 137.45 30.6422 137.657 30.791C138.255 31.1727 138.745 31.7007 139.081 32.3249ZM136.584 33.5925L136.246 35.6715C136.246 35.7349 136.182 35.756 136.119 35.718C136.084 35.6966 136.054 35.6677 136.031 35.6333C136.009 35.599 135.994 35.5601 135.988 35.5194L135.566 32.1897L135.266 34.3362C135.266 34.4038 135.202 34.425 135.135 34.3954C135.101 34.3736 135.072 34.345 135.051 34.3116C135.029 34.2781 135.014 34.2404 135.008 34.201L134.64 32.2446L134.458 32.8911C134.458 32.946 134.391 32.9629 134.332 32.9291L132.523 31.8854L132.895 32.5319L135.777 37.5223L138.675 35.8659L139.047 35.6546L136.795 34.3531C136.76 34.3306 136.73 34.3009 136.708 34.2659C136.685 34.2309 136.67 34.1915 136.664 34.1503L136.584 33.5925Z" fill="#2C2C2C"/>
<path d="M135.54 31.0741C135.574 31.0974 135.604 31.1273 135.626 31.1622C135.649 31.197 135.664 31.2361 135.671 31.2769L136.119 34.6573L136.465 32.5446C136.465 32.477 136.529 32.4516 136.596 32.4897C136.63 32.5138 136.659 32.5446 136.681 32.5802C136.703 32.6158 136.717 32.6554 136.723 32.6967L136.888 34.1334L139.263 35.5024L140.611 36.2799C140.649 36.305 140.681 36.3388 140.703 36.3784C140.726 36.418 140.739 36.4625 140.742 36.5081C140.742 36.5884 140.682 36.6222 140.606 36.5799L139.03 35.6715L136.778 34.37C136.743 34.3475 136.713 34.3178 136.691 34.2828C136.668 34.2478 136.653 34.2084 136.647 34.1672L136.584 33.6094L136.246 35.6884C136.246 35.7517 136.182 35.7729 136.119 35.7348C136.084 35.7134 136.054 35.6845 136.031 35.6502C136.009 35.6159 135.994 35.577 135.988 35.5362L135.565 32.2065L135.265 34.3531C135.265 34.3672 135.261 34.381 135.253 34.3929C135.246 34.4048 135.235 34.4144 135.222 34.4206C135.21 34.4267 135.195 34.4292 135.181 34.4277C135.167 34.4262 135.154 34.4209 135.143 34.4123C135.107 34.3922 135.076 34.3643 135.053 34.3307C135.029 34.297 135.014 34.2584 135.008 34.2179L134.64 32.2615L134.458 32.908C134.458 32.9629 134.391 32.9798 134.332 32.946L132.523 31.9023L130.947 30.9896C130.909 30.9661 130.878 30.9339 130.855 30.8956C130.832 30.8574 130.819 30.8143 130.816 30.7699C130.816 30.6854 130.875 30.6516 130.947 30.6896L132.291 31.4671L134.23 32.5868L134.526 31.56C134.526 31.5051 134.589 31.4882 134.644 31.5178C134.678 31.5397 134.708 31.5681 134.731 31.6015C134.754 31.6348 134.771 31.6725 134.779 31.7122L135.105 33.4531L135.43 31.1333C135.432 31.1211 135.436 31.1094 135.443 31.0993C135.45 31.0892 135.459 31.0808 135.47 31.075C135.48 31.0692 135.492 31.0661 135.505 31.0659C135.517 31.0658 135.529 31.0686 135.54 31.0741Z" fill="white"/>
<path opacity="0.4" d="M139.081 32.3249C139.804 33.5925 139.863 34.9236 139.263 35.4982L136.888 34.1292L136.723 32.6925C136.717 32.6512 136.703 32.6116 136.681 32.576C136.659 32.5404 136.631 32.5096 136.597 32.4855C136.529 32.4474 136.474 32.4855 136.466 32.5404L136.119 34.6531L135.671 31.2727C135.664 31.2319 135.649 31.1928 135.626 31.158C135.604 31.1231 135.575 31.0932 135.54 31.0699C135.529 31.0602 135.516 31.0538 135.502 31.0515C135.487 31.0492 135.473 31.051 135.459 31.0568C135.446 31.0626 135.434 31.0721 135.426 31.0841C135.418 31.0962 135.414 31.1103 135.413 31.1248L135.088 33.4446L134.763 31.7037C134.746 31.6265 134.701 31.5584 134.636 31.5136C134.573 31.4798 134.522 31.5136 134.509 31.5516L134.213 32.5784L132.274 31.4587C131.678 30.191 131.746 28.9234 132.477 28.5008C132.71 28.3957 132.967 28.3541 133.221 28.3801C133.476 28.406 133.719 28.4987 133.926 28.6487C134.528 29.0243 135.025 29.548 135.367 30.1699L135.789 30.8798L136.212 30.6431C136.445 30.5393 136.701 30.4983 136.954 30.5243C137.208 30.5502 137.45 30.6422 137.657 30.791C138.255 31.1727 138.745 31.7007 139.081 32.3249ZM136.584 33.5925L136.246 35.6715C136.246 35.7349 136.182 35.756 136.119 35.718C136.084 35.6966 136.054 35.6677 136.031 35.6333C136.009 35.599 135.994 35.5601 135.988 35.5194L135.566 32.1897L135.266 34.3362C135.266 34.4038 135.202 34.425 135.135 34.3954C135.101 34.3736 135.072 34.345 135.051 34.3116C135.029 34.2781 135.014 34.2404 135.008 34.201L134.64 32.2446L134.458 32.8911C134.458 32.946 134.391 32.9629 134.332 32.9291L132.523 31.8854L132.895 32.5319L135.777 37.5223L138.675 35.8659L139.047 35.6546L136.795 34.3531C136.76 34.3306 136.73 34.3009 136.708 34.2659C136.685 34.2309 136.67 34.1915 136.664 34.1503L136.584 33.5925Z" fill="white"/>
<path d="M158.873 48.8721L158.869 50.3511L141.642 40.4042L141.646 38.9253L158.873 48.8721Z" fill="white"/>
<path d="M162.19 47.8831L162.186 49.3663L141.65 37.5095L141.654 36.0264L162.19 47.8831Z" fill="white"/>
<path d="M148.72 37.2011L148.715 38.68L141.659 34.6066L141.663 33.1277L148.72 37.2011Z" fill="white"/>
<path d="M165.719 60.0866L132.485 40.8986C132.359 40.812 132.215 40.7569 132.063 40.7377C131.912 40.7186 131.758 40.7361 131.615 40.7887H131.589L131.539 40.8183L130.195 41.5915H130.165H130.144C130.023 41.6882 129.928 41.8132 129.867 41.9554C129.806 42.0976 129.78 42.2528 129.793 42.4071L129.768 51.3651C129.791 51.8173 129.921 52.2576 130.148 52.6498C130.374 53.042 130.69 53.375 131.07 53.6215L164.303 72.8096C164.437 72.9066 164.594 72.9661 164.758 72.9817C164.922 72.9973 165.088 72.9685 165.237 72.8983L166.606 72.1081C166.735 72.0114 166.837 71.8825 166.902 71.7343C166.966 71.5861 166.991 71.4237 166.974 71.263L166.999 62.3007C166.97 61.858 166.84 61.4279 166.618 61.0438C166.396 60.6598 166.088 60.3322 165.719 60.0866Z" fill="#2C2C2C"/>
<path opacity="0.3" d="M165.719 60.0866L132.485 40.8986C132.359 40.812 132.215 40.7569 132.063 40.7377C131.912 40.7186 131.758 40.7361 131.615 40.7887H131.589L131.539 40.8183L130.195 41.5915C130.342 41.5281 130.503 41.5038 130.662 41.5208C130.821 41.5378 130.973 41.5957 131.103 41.6887L164.337 60.8852C164.877 61.2361 165.283 61.7585 165.49 62.3683L166.876 61.5782C166.67 60.9643 166.262 60.4384 165.719 60.0866Z" fill="white"/>
<path opacity="0.2" d="M165.49 62.3681C165.585 62.615 165.635 62.8769 165.638 63.1414L165.613 72.1037C165.631 72.2653 165.605 72.4287 165.539 72.5771C165.473 72.7256 165.369 72.8539 165.237 72.9488L166.606 72.1586C166.735 72.0619 166.837 71.933 166.902 71.7848C166.966 71.6366 166.991 71.4742 166.973 71.3135L166.999 62.3512C166.994 62.0897 166.944 61.831 166.851 61.5864L165.49 62.3681Z" fill="black"/>
<path d="M160.606 67.3036L160.601 68.7826L151.195 63.3528L151.2 61.8696L160.606 67.3036Z" fill="white"/>
<path d="M161.793 65.081L161.789 66.5642L151.2 60.4499L151.204 58.9709L161.793 65.081Z" fill="white"/>
<path d="M155.919 58.7893L155.915 60.2682L151.208 57.5512L151.212 56.0723L155.919 58.7893Z" fill="white"/>
<path d="M136.698 50.2325C136.85 50.3311 136.977 50.4645 137.068 50.6217C137.159 50.7789 137.212 50.9554 137.222 51.1368V52.1382C137.222 52.4678 136.981 52.603 136.693 52.4382L135.823 51.9354C135.672 51.8356 135.546 51.7019 135.456 51.5449C135.366 51.3879 135.313 51.212 135.303 51.0312V50.0297C135.303 49.6959 135.54 49.5649 135.827 49.7297L136.698 50.2325Z" fill="white"/>
<path opacity="0.4" d="M136.275 46.4043L136.402 46.4845V47.6888C136.36 47.6582 136.316 47.63 136.271 47.6043C134.602 46.6409 133.241 47.4141 133.233 49.3367C133.255 50.1932 133.466 51.0342 133.85 51.8002L132.954 51.9143C132.476 50.9201 132.215 49.8354 132.189 48.7325C132.193 46.1507 134.027 45.107 136.275 46.4043Z" fill="white"/>
<path d="M136.402 46.4846C138.591 47.8283 140.345 50.9045 140.336 53.4356C140.328 55.9666 138.494 57.0611 136.25 55.7638C134.794 54.8363 133.646 53.4963 132.954 51.9144L133.85 51.8003C134.367 52.9334 135.2 53.8931 136.25 54.5638C137.94 55.5272 139.284 54.7497 139.288 52.8313C139.232 51.8106 138.943 50.8164 138.442 49.9249C137.942 49.0335 137.244 48.2685 136.402 47.6889V46.4846Z" fill="white"/>
<path opacity="0.4" d="M145.335 51.6355L145.466 51.7158V52.9201C145.424 52.8895 145.38 52.8613 145.335 52.8356C143.666 51.8722 142.305 52.6454 142.301 54.568C142.322 55.4242 142.531 56.2653 142.914 57.0315L142.022 57.1456C141.541 56.1523 141.278 55.0672 141.253 53.9638C141.257 51.382 143.091 50.3214 145.335 51.6355Z" fill="white"/>
<path d="M145.762 55.4637C145.913 55.5633 146.039 55.697 146.129 55.854C146.219 56.0111 146.271 56.1871 146.281 56.368V57.3652C146.281 57.699 146.049 57.8343 145.757 57.6695L144.887 57.1666C144.735 57.0673 144.609 56.9337 144.519 56.7766C144.429 56.6195 144.377 56.4433 144.367 56.2624V55.2609C144.367 54.9271 144.604 54.7961 144.895 54.9609L145.762 55.4637Z" fill="white"/>
<path d="M145.466 51.7158C147.65 53.0595 149.404 56.1357 149.395 58.6668C149.387 61.1978 147.557 62.2922 145.309 60.995C143.853 60.0683 142.707 58.7279 142.018 57.1456L142.909 57.0315C143.428 58.1649 144.263 59.1245 145.313 59.795C146.983 60.7584 148.343 59.9809 148.352 58.0625C148.295 57.0414 148.005 56.0468 147.504 55.1553C147.003 54.2637 146.304 53.499 145.461 52.9201L145.466 51.7158Z" fill="white"/>
<path d="M133.875 60.5852C134.089 60.7231 134.266 60.9102 134.393 61.1307C134.519 61.3513 134.591 61.5988 134.602 61.8528V63.243C134.602 63.7036 134.277 63.8895 133.871 63.6655L132.663 62.9683C132.451 62.8289 132.275 62.6414 132.149 62.4211C132.024 62.2008 131.952 61.954 131.94 61.7007V60.3105C131.94 59.8499 132.27 59.664 132.667 59.8879L133.875 60.5852Z" fill="#2C2C2C"/>
<path d="M133.866 64.4978C134.079 64.636 134.256 64.8232 134.382 65.0438C134.508 65.2644 134.579 65.5118 134.589 65.7655V67.1557C134.589 67.6162 134.264 67.8022 133.862 67.5782L132.654 66.881C132.441 66.7428 132.264 66.5556 132.138 66.335C132.013 66.1145 131.942 65.867 131.931 65.6134V64.2189C131.931 63.7584 132.257 63.5724 132.658 63.7964L133.866 64.4978Z" fill="#2C2C2C"/>
<path d="M133.854 68.4149C134.067 68.5531 134.245 68.7402 134.371 68.9607C134.497 69.1812 134.569 69.4286 134.581 69.6825V71.0727C134.581 71.5333 134.251 71.7192 133.85 71.4952L132.642 70.798C132.429 70.6596 132.252 70.4723 132.127 70.2518C132.001 70.0313 131.93 69.784 131.919 69.5304V68.1402C131.919 67.6838 132.244 67.4979 132.646 67.7176L133.854 68.4149Z" fill="#2C2C2C"/>
<path d="M154.192 80.9942L154.187 82.3759L135.823 71.7699L135.827 70.3882L154.192 80.9942Z" fill="#2C2C2C"/>
<path d="M161.514 81.2984L161.51 82.6844L135.832 67.8613L135.836 66.4753L161.514 81.2984Z" fill="#2C2C2C"/>
<path d="M158.125 75.4252L158.121 76.8069L135.844 63.9487L135.848 62.5627L158.125 75.4252Z" fill="#2C2C2C"/>
<path d="M90.7157 14.1977C90.7157 10.6356 89.448 8.1341 87.4156 6.95518L82.8562 4.26354L82.7929 4.22973C82.6106 4.12417 82.4214 4.03099 82.2266 3.95085C82.1907 3.9363 82.154 3.9236 82.1168 3.91282L81.9224 3.84521C81.8252 3.81141 81.7323 3.76915 81.6308 3.73958C81.5294 3.71 81.4111 3.68887 81.3055 3.66352L81.1027 3.62126C81.0681 3.61035 81.0328 3.60187 80.997 3.59591C80.7705 3.55617 80.542 3.52937 80.3125 3.51562H80.1054C79.928 3.51562 79.7505 3.51562 79.5646 3.51562L79.3786 3.53675L79.0406 3.57056C78.935 3.57056 78.8293 3.57056 78.7237 3.60014L78.4406 3.66352C78.2885 3.68887 78.1364 3.72268 77.98 3.7607C77.8955 3.7607 77.8152 3.79028 77.7307 3.81564C77.5406 3.86634 77.3504 3.9255 77.156 3.98888H77.0969C76.8645 4.06494 76.6363 4.15368 76.3997 4.25086L76.1208 4.37763L75.8546 4.50017C75.5123 4.66074 75.17 4.83398 74.8193 5.03681L41.4886 24.284C41.1252 24.4952 40.766 24.7234 40.4111 24.9685L40.073 25.2136C39.8322 25.3868 39.5955 25.5643 39.3589 25.7502L38.9744 26.0714C38.7589 26.2531 38.5518 26.439 38.3363 26.6291L37.9561 26.9841L37.7152 27.208C37.6349 27.2883 37.5546 27.3813 37.4743 27.4658C37.2208 27.7235 36.9673 27.9897 36.7222 28.2644C36.6461 28.3531 36.5616 28.4334 36.4813 28.5222L36.2912 28.7546C36.1433 28.9278 35.9996 29.1095 35.8687 29.287C35.7377 29.4644 35.6743 29.5194 35.5813 29.6377C35.4884 29.756 35.4334 29.8405 35.3616 29.9419C35.2898 30.0433 35.1503 30.2208 35.0489 30.3645L34.8292 30.656C34.7109 30.825 34.601 30.9983 34.4869 31.1715L34.2672 31.4969L34.1784 31.6321C33.9756 31.949 33.7813 32.2659 33.5911 32.5913L33.5573 32.6547L33.4474 32.8491C33.3164 33.0772 33.1855 33.3096 33.0629 33.542C33.0038 33.6477 32.9531 33.7575 32.8981 33.8674L32.7249 34.2055C32.6784 34.3069 32.6235 34.404 32.577 34.5012C32.446 34.7674 32.3277 35.0336 32.2094 35.3041L32.146 35.4435L32.1249 35.4816C31.9812 35.8196 31.8417 36.1576 31.7023 36.4957C31.6812 36.5591 31.6601 36.6224 31.6347 36.6858C31.6093 36.7492 31.5502 36.9309 31.5037 37.0534C31.4572 37.176 31.3769 37.3915 31.322 37.5647C31.2671 37.738 31.2417 37.8267 31.1995 37.9619C31.1572 38.0971 31.1023 38.2704 31.06 38.4225C31.0178 38.5746 30.9966 38.6169 30.9713 38.7141C30.9206 38.8873 30.8868 39.0606 30.8445 39.2338C30.8023 39.407 30.7431 39.6183 30.7009 39.8085C30.7009 39.8761 30.6671 39.9437 30.6502 40.0113C30.6206 40.1507 30.6079 40.286 30.5825 40.4338C30.5234 40.7339 30.4685 41.0339 30.4262 41.3339C30.4262 41.4184 30.3924 41.5029 30.3839 41.5832C30.3586 41.7733 30.3459 41.9593 30.329 42.1494C30.3121 42.3395 30.2994 42.4156 30.291 42.5466C30.2572 42.9691 30.2361 43.3917 30.2403 43.7931L30.3839 108.109C30.3839 111.672 31.6516 114.177 33.6841 115.356L38.2476 118.056C38.1194 117.977 37.9953 117.891 37.8758 117.799C39.9547 119.248 42.9464 119.197 46.2803 117.27L79.6026 98.019C85.8394 94.4189 90.8847 85.6848 90.8636 78.5098L90.7157 14.1977Z" fill="#2C2C2C"/>
<path opacity="0.6" d="M90.7157 14.1977C90.7157 10.6356 89.448 8.1341 87.4156 6.95518L82.8562 4.26354L82.7929 4.22973C82.6106 4.12417 82.4214 4.03099 82.2266 3.95085C82.1907 3.9363 82.154 3.9236 82.1168 3.91282L81.9224 3.84521C81.8252 3.81141 81.7323 3.76915 81.6308 3.73958C81.5294 3.71 81.4111 3.68887 81.3055 3.66352L81.1027 3.62126C81.0681 3.61035 81.0328 3.60187 80.997 3.59591C80.7705 3.55617 80.542 3.52937 80.3125 3.51562H80.1054C79.928 3.51562 79.7505 3.51562 79.5646 3.51562L79.3786 3.53675L79.0406 3.57056C78.935 3.57056 78.8293 3.57056 78.7237 3.60014L78.4406 3.66352C78.2885 3.68887 78.1364 3.72268 77.98 3.7607C77.8955 3.7607 77.8152 3.79028 77.7307 3.81564C77.5406 3.86634 77.3504 3.9255 77.156 3.98888H77.0969C76.8645 4.06494 76.6363 4.15368 76.3997 4.25086L76.1208 4.37763L75.8546 4.50017C75.5123 4.66074 75.17 4.83398 74.8193 5.03681L41.4886 24.284C41.1252 24.4952 40.766 24.7234 40.4111 24.9685L40.073 25.2136C39.8322 25.3868 39.5955 25.5643 39.3589 25.7502L38.9744 26.0714C38.7589 26.2531 38.5518 26.439 38.3363 26.6291L37.9561 26.9841L37.7152 27.208C37.6349 27.2883 37.5546 27.3813 37.4743 27.4658C37.2208 27.7235 36.9673 27.9897 36.7222 28.2644C36.6461 28.3531 36.5616 28.4334 36.4813 28.5222L36.2912 28.7546C36.1433 28.9278 35.9996 29.1095 35.8687 29.287C35.7377 29.4644 35.6743 29.5194 35.5813 29.6377C35.4884 29.756 35.4334 29.8405 35.3616 29.9419C35.2898 30.0433 35.1503 30.2208 35.0489 30.3645L34.8292 30.656C34.7109 30.825 34.601 30.9983 34.4869 31.1715L34.2672 31.4969L34.1784 31.6321C33.9756 31.949 33.7813 32.2659 33.5911 32.5913L33.5573 32.6547L33.4474 32.8491C33.3164 33.0772 33.1855 33.3096 33.0629 33.542C33.0038 33.6477 32.9531 33.7575 32.8981 33.8674L32.7249 34.2055C32.6784 34.3069 32.6235 34.404 32.577 34.5012C32.446 34.7674 32.3277 35.0336 32.2094 35.3041L32.146 35.4435L32.1249 35.4816C31.9812 35.8196 31.8417 36.1576 31.7023 36.4957C31.6812 36.5591 31.6601 36.6224 31.6347 36.6858C31.6093 36.7492 31.5502 36.9309 31.5037 37.0534C31.4572 37.176 31.3769 37.3915 31.322 37.5647C31.2671 37.738 31.2417 37.8267 31.1995 37.9619C31.1572 38.0971 31.1023 38.2704 31.06 38.4225C31.0178 38.5746 30.9966 38.6169 30.9713 38.7141C30.9206 38.8873 30.8868 39.0606 30.8445 39.2338C30.8023 39.407 30.7431 39.6183 30.7009 39.8085C30.7009 39.8761 30.6671 39.9437 30.6502 40.0113C30.6206 40.1507 30.6079 40.286 30.5825 40.4338C30.5234 40.7339 30.4685 41.0339 30.4262 41.3339C30.4262 41.4184 30.3924 41.5029 30.3839 41.5832C30.3586 41.7733 30.3459 41.9593 30.329 42.1494C30.3121 42.3395 30.2994 42.4156 30.291 42.5466C30.2572 42.9691 30.2361 43.3917 30.2403 43.7931L30.3839 108.109C30.3839 111.672 31.6516 114.177 33.6841 115.356L38.2476 118.056C38.1194 117.977 37.9953 117.891 37.8758 117.799C39.9547 119.248 42.9464 119.197 46.2803 117.27L79.6026 98.019C85.8394 94.4189 90.8847 85.6848 90.8636 78.5098L90.7157 14.1977Z" fill="white"/>
<path opacity="0.1" d="M34.9393 110.797L34.8126 46.4848L30.249 43.7847L30.3927 108.101C30.3927 111.663 31.6603 114.169 33.6928 115.348L38.2564 118.048C36.2112 116.869 34.952 114.363 34.9393 110.797Z" fill="black"/>
<path opacity="0.3" d="M80.6843 7.08195C81.0028 6.93566 81.3286 6.80591 81.6604 6.6932H81.7196C81.9985 6.60024 82.2731 6.52841 82.5647 6.46503L83.0253 6.36361C83.2281 6.32558 83.4267 6.29601 83.6253 6.27488L83.9633 6.23685C84.2054 6.22429 84.448 6.22429 84.6901 6.23685H84.8549C85.1386 6.25379 85.4209 6.28908 85.7 6.34249L85.9028 6.38897C86.1117 6.43805 86.3176 6.4987 86.5198 6.57066L86.7141 6.63405C86.9693 6.73344 87.2165 6.8521 87.4536 6.98899L82.8562 4.26354L82.7929 4.22973C82.6106 4.12417 82.4214 4.03099 82.2266 3.95085C82.1907 3.9363 82.154 3.9236 82.1168 3.91282L81.9224 3.84521C81.8252 3.81141 81.7323 3.76915 81.6308 3.73958C81.5294 3.71 81.4111 3.68887 81.3055 3.66352L81.1027 3.62126C81.0681 3.61035 81.0328 3.60187 80.997 3.59591C80.7706 3.55617 80.542 3.52937 80.3125 3.51562H80.1054C79.928 3.51562 79.7505 3.51562 79.5646 3.51562L79.3787 3.53675L79.0406 3.57056C78.935 3.57056 78.8293 3.57056 78.7237 3.60014L78.4406 3.66352C78.2885 3.68887 78.1364 3.72268 77.98 3.7607C77.8955 3.7607 77.8152 3.79028 77.7307 3.81564C77.5406 3.86634 77.3504 3.9255 77.156 3.98888H77.0969C76.8645 4.06494 76.6363 4.15368 76.3997 4.25086L76.1208 4.37763L75.8546 4.50017C75.5123 4.66074 75.17 4.83398 74.8193 5.03681L41.4886 24.284C41.1252 24.4952 40.766 24.7234 40.4111 24.9685L40.073 25.2178C39.8322 25.3868 39.5955 25.5643 39.3589 25.7502L38.9744 26.0714C38.7589 26.2531 38.5518 26.439 38.3363 26.6291L37.9561 26.9841L37.7152 27.208C37.6349 27.2883 37.5546 27.3813 37.4743 27.4658C37.2208 27.7235 36.9673 27.9897 36.7222 28.2644C36.6461 28.3531 36.5616 28.4334 36.4813 28.5222L36.2912 28.7546C36.1433 28.9278 35.9996 29.1095 35.8687 29.287C35.7377 29.4644 35.6743 29.5194 35.5813 29.6377C35.4884 29.756 35.4334 29.8405 35.3616 29.9419C35.2898 30.0433 35.1503 30.2208 35.0489 30.3645L34.8292 30.656C34.7109 30.825 34.601 30.9983 34.4869 31.1715L34.2672 31.4969L34.1784 31.6321C33.9756 31.949 33.7813 32.2659 33.5911 32.5913L33.5573 32.6547L33.4474 32.8491C33.3164 33.0815 33.1855 33.3096 33.0629 33.542C33.0038 33.6477 32.9531 33.7575 32.8981 33.8674L32.7249 34.2055C32.6784 34.3069 32.6235 34.404 32.577 34.5012C32.446 34.7674 32.3277 35.0336 32.2094 35.3041L32.146 35.4435L32.1249 35.4816C31.9812 35.8196 31.8417 36.1576 31.7023 36.4957C31.6812 36.5591 31.6601 36.6224 31.6347 36.6858C31.6093 36.7492 31.5502 36.9309 31.5037 37.0534C31.4572 37.176 31.3769 37.3915 31.322 37.5647C31.2671 37.738 31.2417 37.8267 31.1995 37.9619C31.1572 38.0971 31.1023 38.2704 31.06 38.4225C31.0178 38.5746 30.9966 38.6169 30.9713 38.7141C30.9206 38.8873 30.8868 39.0606 30.8445 39.2338C30.8023 39.407 30.7431 39.6183 30.7009 39.8085C30.7009 39.8761 30.6671 39.9437 30.6502 40.0113C30.6206 40.1507 30.6079 40.286 30.5825 40.4338C30.5234 40.7339 30.4685 41.0339 30.4262 41.3339C30.4262 41.4184 30.3924 41.5029 30.3839 41.5832C30.3586 41.7733 30.3459 41.9593 30.329 42.1494C30.3121 42.3395 30.2994 42.4156 30.291 42.5466C30.2572 42.9691 30.2361 43.3917 30.2403 43.7931L34.8038 46.4932C34.8038 46.0707 34.8038 45.6481 34.8503 45.2467C34.8503 45.1115 34.8799 44.9805 34.8926 44.8453C34.9179 44.5748 34.9517 44.3044 34.9897 44.034C35.0278 43.7635 35.0869 43.434 35.1461 43.1339C35.1841 42.9269 35.2179 42.7114 35.2644 42.517C35.3109 42.3226 35.3574 42.1325 35.4081 41.9381C35.4757 41.6719 35.5433 41.4015 35.6193 41.1311C35.6658 40.9789 35.7165 40.8226 35.763 40.6662C35.8602 40.3662 35.9616 40.062 36.0673 39.762C36.1095 39.6394 36.1518 39.5127 36.1982 39.3901C36.3546 38.9676 36.5194 38.545 36.7011 38.1521L36.7645 38.0084C36.9293 37.6408 37.0983 37.2774 37.28 36.914C37.3349 36.7999 37.3941 36.6858 37.4532 36.576C37.6265 36.2337 37.8124 35.8957 38.0025 35.5576L38.1124 35.3632C38.3406 34.9703 38.5772 34.5857 38.8223 34.2055L39.042 33.8759C39.2237 33.6054 39.4096 33.3392 39.5998 33.073L39.9167 32.6505C40.0815 32.4307 40.2547 32.2279 40.4237 31.9997L40.8463 31.4631L41.2688 30.9772C41.5139 30.7025 41.7675 30.4363 42.021 30.1785C42.1816 30.0138 42.3379 29.8532 42.5027 29.6968C42.6675 29.5405 42.7562 29.456 42.883 29.3419C43.0943 29.1475 43.3055 28.9616 43.521 28.7841L43.9056 28.463C44.1422 28.2771 44.3788 28.0996 44.6197 27.9264C44.7338 27.8461 44.8436 27.7573 44.9577 27.6813C45.3126 27.4362 45.6718 27.208 46.0352 26.9967L79.366 7.7538C79.7167 7.55098 80.059 7.37774 80.4012 7.21717L80.6843 7.08195Z" fill="white"/>
<path d="M40.6228 110.78C40.6228 112.179 40.9313 112.893 41.0876 113.112C41.1354 113.117 41.1835 113.117 41.2313 113.112C41.489 113.112 42.2158 113.036 43.4328 112.335L76.7635 93.0921C81.2637 90.4934 85.2145 83.6861 85.1807 78.5183L85.1469 61.9966L40.5679 88.013L40.6228 110.78Z" fill="#2C2C2C"/>
<path d="M85.0368 14.2146C85.0368 12.799 84.7157 12.1018 84.5635 11.8821H84.3734H84.2424L84.0565 11.9117L83.879 11.9497C83.7691 11.975 83.6128 12.0173 83.4987 12.0553H83.4438C83.3297 12.0976 83.1776 12.1567 83.0212 12.237L82.8649 12.3089C82.6114 12.4272 82.4128 12.5286 82.2395 12.63L48.9088 31.8729C48.7017 31.9955 48.4862 32.1391 48.2284 32.2955L47.9749 32.4772C47.8101 32.5997 47.6453 32.7223 47.4848 32.849L47.2566 33.0349L47.2101 33.0772C47.0495 33.2082 46.8974 33.3434 46.7453 33.4786L46.4622 33.7448L46.158 34.0533L46.103 34.1082C45.9086 34.3026 45.7185 34.5054 45.5368 34.7125L45.4734 34.7801L45.203 35.0843L44.8607 35.5069C44.7255 35.6759 44.5903 35.8449 44.4635 36.0182L44.2142 36.3477C44.0663 36.559 43.9184 36.7703 43.7917 36.9858L43.6142 37.2478C43.4114 37.5647 43.2212 37.8731 43.0564 38.1563L42.9635 38.3211C42.8113 38.5873 42.6677 38.8577 42.5409 39.1281L42.4057 39.3943C42.262 39.6817 42.1268 39.969 41.9832 40.2394C41.9578 40.2944 41.9367 40.3493 41.9071 40.4084C41.7888 40.6873 41.6662 40.9916 41.5352 41.3338L41.4338 41.6212C41.3493 41.8536 41.2733 42.086 41.2014 42.3184C41.1634 42.4367 41.1254 42.555 41.0916 42.6691C41.0324 42.8719 40.9817 43.0705 40.931 43.2818L40.9014 43.3959L40.8254 43.7001L40.7747 43.9621L40.7409 44.148C40.6986 44.3635 40.6606 44.5706 40.631 44.7903C40.6014 45.01 40.5803 45.1621 40.5634 45.3481L40.5338 45.6185C40.5085 45.9354 40.5 46.1974 40.5 46.4298L40.5887 86.0861L85.1678 60.0697L85.0368 14.2146Z" fill="#455A64"/>
<path d="M40.5635 86.1285L40.5677 88.0215L85.1468 62.0051L85.1383 60.1121L40.5635 86.1285Z" fill="white"/>
<path d="M77.9337 36.5717L73.687 39.0267C75.2167 35.6463 75.0054 32.2659 73.0532 31.1672C71.963 30.5461 70.5179 30.7447 69.115 31.5898C67.4723 32.611 66.1192 34.0368 65.1853 35.7308L64.0233 37.7421L63.8247 35.173C63.8247 34.9575 63.6472 34.873 63.4317 34.9829C63.3298 35.0495 63.2427 35.1364 63.1758 35.2382C63.1089 35.34 63.0637 35.4544 63.043 35.5744L62.6796 37.9449L62.012 37.5646C60.9218 36.9435 59.4767 37.1421 58.0696 37.9661C56.4273 38.9865 55.0754 40.4126 54.1441 42.1071C52.2004 45.4875 52.0102 49.0622 53.5567 50.6722L49.3017 53.1272C49.186 53.2003 49.0898 53.3004 49.0213 53.4189C48.9529 53.5374 48.9142 53.6707 48.9087 53.8075C48.9087 54.0568 49.0862 54.1582 49.3017 54.0357L54.2497 51.1665L55.7751 52.037L63.6726 56.5329L64.5726 54.9737L64.6107 55.4597C64.6107 55.6794 64.7966 55.7639 65.0036 55.6498C65.1105 55.5792 65.2009 55.4865 65.2687 55.3778C65.3366 55.2692 65.3802 55.1472 65.3966 55.0202L65.5529 53.2751L71.5151 42.9479L73.0321 40.3239L77.959 37.4801C78.0699 37.4034 78.1615 37.3021 78.2268 37.1841C78.292 37.066 78.3291 36.9345 78.3351 36.7998C78.3351 36.5463 78.1534 36.4449 77.9337 36.5717Z" fill="#2C2C2C"/>
<path d="M63.4277 34.9617C63.6432 34.8518 63.8038 34.9363 63.8207 35.1518L64.0193 37.7209L65.0292 50.5496L66.2503 37.1843C66.263 37.0604 66.303 36.9409 66.3672 36.8342C66.4315 36.7276 66.5186 36.6365 66.6222 36.5674C66.825 36.4491 66.9898 36.504 67.0236 36.7026L68.4687 44.5113L68.7392 42.2676C68.7566 42.1442 68.8004 42.0261 68.8675 41.9211C68.9345 41.8162 69.0234 41.7268 69.1279 41.6591L73.6872 39.0266L77.9381 36.5716C78.1578 36.4448 78.3353 36.5462 78.3353 36.7998C78.3274 36.936 78.2877 37.0684 78.2195 37.1865C78.1512 37.3047 78.0563 37.4052 77.9423 37.4801L73.0154 40.3238L69.4617 42.369L68.8997 47.017C68.8829 47.139 68.8403 47.256 68.7747 47.3602C68.7092 47.4644 68.6221 47.5534 68.5194 47.6213C68.3208 47.7354 68.1603 47.6762 68.1222 47.4818L66.7405 39.9816L65.532 53.2792L65.3757 55.0244C65.3592 55.1514 65.3156 55.2734 65.2478 55.382C65.18 55.4906 65.0896 55.5834 64.9827 55.654C64.7756 55.7681 64.6066 55.6835 64.5897 55.4638L64.5517 54.9779L63.284 38.7858L61.1713 52.5144C61.15 52.6332 61.105 52.7464 61.039 52.8473C60.9729 52.9483 60.8871 53.0348 60.7868 53.1018C60.567 53.2159 60.4107 53.1313 60.3938 52.9158L59.5487 43.1972L58.5895 48.3227C58.5659 48.4378 58.5197 48.547 58.4537 48.6442C58.3878 48.7414 58.3032 48.8245 58.205 48.8889L54.2499 51.1665L49.3188 54.0145C49.1033 54.137 48.9258 54.0145 48.9258 53.7863C48.9313 53.6496 48.97 53.5162 49.0384 53.3977C49.1069 53.2792 49.2031 53.1791 49.3188 53.106L53.5738 50.651L57.9092 48.1453L59.3459 40.4844C59.3683 40.3684 59.4139 40.258 59.48 40.16C59.5461 40.062 59.6312 39.9783 59.7304 39.914C59.9501 39.8041 60.1022 39.8928 60.1234 40.0999L60.9431 49.396L62.6967 37.9153L63.0601 35.5448C63.0794 35.428 63.1218 35.3162 63.185 35.2161C63.2481 35.1159 63.3306 35.0294 63.4277 34.9617Z" fill="white"/>
<path d="M58.1206 64.7686L58.1332 70.2828L56.5149 71.2167L56.5022 67.1053L55.6782 67.5785V66.1799L58.1206 64.7686Z" fill="white"/>
<path d="M60.4995 63.2685C61.6362 62.6136 62.439 62.846 62.4433 63.877C62.4433 64.4179 62.3249 64.9756 61.6235 66.1081L60.9432 67.2236L62.5573 66.294V67.7349L58.7121 69.9575V68.8166L60.4446 65.9686C60.6608 65.6859 60.7913 65.3472 60.8207 64.9925C60.8207 64.7305 60.6601 64.6545 60.3516 64.832C60.0173 65.0467 59.7679 65.3707 59.646 65.7489H58.4248C58.8024 64.7034 59.5372 63.8249 60.4995 63.2685Z" fill="white"/>
<path d="M65.05 60.6401C66.3176 59.9133 67.2261 60.4415 67.2303 62.2669C67.2577 63.0846 67.0727 63.8954 66.6936 64.6203C66.3145 65.3453 65.754 65.9597 65.0669 66.4037C63.7992 67.1389 62.8865 66.6065 62.8823 64.7769C62.8562 63.9589 63.0422 63.1482 63.422 62.4233C63.8018 61.6985 64.3626 61.0842 65.05 60.6401ZM65.05 64.9163C65.3627 64.7346 65.5951 64.2698 65.5908 63.2261C65.5866 62.1824 65.3542 61.9585 65.0415 62.1528C64.7288 62.3472 64.4922 62.7993 64.4964 63.843C64.5007 64.8867 64.7373 65.1107 65.05 64.9205" fill="white"/>
<path d="M69.3219 62.0556C69.7149 61.8274 70.0529 61.9753 70.0529 62.5289C70.0498 62.7921 69.9818 63.0504 69.8551 63.2811C69.7283 63.5118 69.5466 63.7077 69.3261 63.8514C69.1402 63.9571 69.005 63.9824 68.9036 63.9191V64.0585L68.312 64.4008V62.0472L68.9332 61.688V62.4275C69.0254 62.2695 69.1601 62.1407 69.3219 62.0556ZM69.174 63.3824C69.2533 63.3294 69.3175 63.2568 69.3604 63.1717C69.4033 63.0865 69.4236 62.9917 69.4191 62.8965C69.4191 62.6725 69.3092 62.6218 69.174 62.7021C69.0953 62.7534 69.0316 62.8246 68.9893 62.9084C68.947 62.9923 68.9276 63.0858 68.9332 63.1796C68.9332 63.4035 69.0388 63.4585 69.174 63.3824Z" fill="white"/>
<path d="M71.2534 60.9359C71.6464 60.712 71.9802 60.8641 71.9802 61.4219C71.9788 61.6838 71.9119 61.9412 71.7857 62.1707C71.6595 62.4002 71.478 62.5945 71.2576 62.736C71.0928 62.829 70.9661 62.8585 70.8731 62.8078V63.5431L70.252 63.9022V61.5571L70.8435 61.2148V61.3543C70.9384 61.1792 71.0804 61.0343 71.2534 60.9359ZM71.1097 62.267C71.1889 62.2149 71.2532 62.1431 71.2962 62.0586C71.3392 61.9741 71.3594 61.8799 71.3548 61.7853C71.3548 61.5613 71.2449 61.5064 71.1055 61.5867C71.026 61.6394 70.9615 61.7119 70.9186 61.7971C70.8756 61.8823 70.8555 61.9773 70.8604 62.0726C70.8604 62.2965 70.9703 62.3472 71.1097 62.267Z" fill="white"/>
<path d="M74.1731 59.25C74.5154 59.0557 74.7732 59.1444 74.7732 59.6726V60.6614L74.152 61.0205V60.1754C74.152 59.9557 74.0844 59.9134 73.9872 59.9684C73.9199 60.0149 73.8664 60.0787 73.8322 60.153C73.798 60.2274 73.7844 60.3095 73.7929 60.3909V61.236L73.1717 61.5952V60.7501C73.1717 60.5304 73.1041 60.4881 72.9985 60.5473C72.9312 60.5938 72.8776 60.6576 72.8434 60.7319C72.8092 60.8063 72.7956 60.8884 72.8041 60.9698V61.8149L72.1787 62.1741V60.4416L72.7703 60.1036V60.2599C72.8728 60.0854 73.0183 59.9399 73.1928 59.8374C73.3914 59.7233 73.5605 59.7106 73.6661 59.8374C73.7751 59.5969 73.9512 59.393 74.1731 59.25Z" fill="white"/>
<path d="M48.3723 88.351C49.8681 87.4848 51.0851 88.182 51.0935 89.8975C51.0449 90.8361 50.7744 91.7498 50.3044 92.5637C49.8343 93.3775 49.1779 94.0683 48.3892 94.5794C46.8891 95.4456 45.6722 94.7526 45.668 93.0286C45.7176 92.0908 45.9885 91.1781 46.4585 90.3651C46.9285 89.5521 47.5843 88.8619 48.3723 88.351Z" fill="white"/>
<path d="M81.0143 72.0195L81.0186 73.19L54.0345 88.7694L54.0303 87.6032L81.0143 72.0195Z" fill="white"/>
<path d="M81.0435 81.1084V82.2789L54.0594 97.8583L54.0552 96.6878L81.0435 81.1084Z" fill="white"/>
<path d="M68.5321 90.5229L68.5363 91.6892L54.064 100.043V98.8768L68.5321 90.5229Z" fill="white"/>
<path d="M64.6742 88.3677V89.5381L54.0513 95.6736V94.5031L64.6742 88.3677Z" fill="white"/>
<path d="M78.0775 75.9067L78.0817 77.073L54.0386 90.9538V89.7875L78.0775 75.9067Z" fill="white"/>
<path d="M70.5983 75.8477L70.6025 77.0139L54.0259 86.5847V85.4142L70.5983 75.8477Z" fill="white"/>
<path d="M48.3977 97.423C49.8935 96.5568 51.1147 97.2498 51.1189 98.9696C51.0693 99.9079 50.7984 100.821 50.3284 101.635C49.8584 102.449 49.2026 103.14 48.4146 103.651C46.9188 104.518 45.6976 103.82 45.6934 102.101C45.743 101.163 46.0139 100.25 46.4839 99.4372C46.9539 98.6242 47.6097 97.934 48.3977 97.423Z" fill="white"/>
<path d="M115.917 109.736L111.298 107.053L49.7539 137.7L54.3851 140.375L115.917 109.736Z" fill="#455A64"/>
<path d="M145.77 127.086L84.3438 157.67L89.3129 160.539L150.718 129.959L145.77 127.086Z" fill="#455A64"/>
<path opacity="0.3" d="M115.917 109.736L111.298 107.053L49.7539 137.7L54.3851 140.375L115.917 109.736Z" fill="white"/>
<path d="M84.3436 157.67L54.3848 140.375L49.7537 137.7L41.1421 136.568L80.566 159.479L89.3128 160.539L84.3436 157.67Z" fill="#455A64"/>
<path opacity="0.5" d="M84.3436 157.67L54.3848 140.375L49.7537 137.7L41.1421 136.568L80.566 159.479L89.3128 160.539L84.3436 157.67Z" fill="white"/>
<path opacity="0.3" d="M145.77 127.086L84.3438 157.67L89.3129 160.539L150.718 129.959L145.77 127.086Z" fill="white"/>
<path d="M80.566 159.479L41.1421 136.568L41.1505 146.963L41.159 151.543L80.5787 174.454L80.566 159.479Z" fill="#455A64"/>
<path d="M44.9536 148.129V144.673C44.953 144.524 44.9916 144.378 45.0656 144.249C45.1395 144.12 45.2461 144.013 45.3747 143.938C45.5033 143.864 45.6492 143.824 45.7979 143.824C45.9465 143.824 46.0926 143.863 46.2213 143.937L75.6815 161.059C76.0026 161.245 76.2693 161.511 76.4548 161.832C76.6402 162.154 76.7378 162.518 76.7378 162.889V166.345C76.7384 166.494 76.6998 166.64 76.6259 166.769C76.552 166.898 76.4453 167.005 76.3168 167.08C76.1882 167.154 76.0422 167.194 75.8936 167.194C75.745 167.194 75.5989 167.155 75.4702 167.081L46.0227 149.959C45.6991 149.775 45.4299 149.509 45.2422 149.188C45.0545 148.866 44.9549 148.501 44.9536 148.129Z" fill="#37474F"/>
<path d="M80.5664 159.479L80.5791 174.454L150.735 133.948L150.718 129.959L89.3132 160.539L80.5664 159.479Z" fill="#455A64"/>
<path opacity="0.1" d="M80.5664 159.479L80.5791 174.454L150.735 133.948L150.718 129.959L89.3132 160.539L80.5664 159.479Z" fill="white"/>
<path d="M115.917 109.736L115.912 111.625H112.122L115.917 109.736Z" fill="#455A64"/>
<path d="M112.735 111.321L54.3848 140.375L84.3436 157.67L144.016 127.956L115.545 111.409C115.12 111.163 114.641 111.025 114.151 111.01C113.66 110.994 113.174 111.101 112.735 111.321Z" fill="#37474F"/>
<path d="M81.3394 113.784C81.0032 113.784 80.6808 113.918 80.4431 114.155C80.2053 114.393 80.0718 114.716 80.0718 115.052V157.176C80.8382 157.654 81.707 157.944 82.6071 158.021V115.056C82.6076 114.889 82.5753 114.724 82.5118 114.57C82.4483 114.415 82.3551 114.275 82.2373 114.157C82.1195 114.039 81.9796 113.945 81.8255 113.881C81.6714 113.817 81.5063 113.784 81.3394 113.784Z" fill="#E0E0E0"/>
<path opacity="0.2" d="M81.3394 113.784C81.0032 113.784 80.6808 113.918 80.4431 114.155C80.2053 114.393 80.0718 114.716 80.0718 115.052V157.176C80.8382 157.654 81.707 157.944 82.6071 158.021V115.056C82.6076 114.889 82.5753 114.724 82.5118 114.57C82.4483 114.415 82.3551 114.275 82.2373 114.157C82.1195 114.039 81.9796 113.945 81.8255 113.881C81.6714 113.817 81.5063 113.784 81.3394 113.784Z" fill="black"/>
<path opacity="0.3" d="M81.3394 113.784C81.0032 113.784 80.6808 113.918 80.4431 114.155C80.2053 114.393 80.0718 114.716 80.0718 115.052V118.698C80.8208 118.832 81.5801 118.9 82.3409 118.901H82.6113V115.056C82.6119 114.889 82.5793 114.723 82.5156 114.569C82.4519 114.414 82.3582 114.274 82.24 114.155C82.1218 114.037 81.9814 113.944 81.8268 113.88C81.6723 113.816 81.5066 113.784 81.3394 113.784Z" fill="black"/>
<path d="M47.9708 95.7666C47.6346 95.7666 47.3121 95.9002 47.0744 96.1379C46.8367 96.3756 46.7031 96.6981 46.7031 97.0343V138.326C47.4795 138.766 48.3472 139.021 49.2384 139.07V97.0385C49.239 96.8717 49.2066 96.7064 49.1432 96.5521C49.0797 96.3978 48.9864 96.2575 48.8686 96.1394C48.7509 96.0212 48.6109 95.9275 48.4569 95.8635C48.3028 95.7995 48.1376 95.7666 47.9708 95.7666Z" fill="#E0E0E0"/>
<path opacity="0.2" d="M47.9708 95.7666C47.6346 95.7666 47.3121 95.9002 47.0744 96.1379C46.8367 96.3756 46.7031 96.6981 46.7031 97.0343V138.326C47.4795 138.766 48.3472 139.021 49.2384 139.07V97.0385C49.239 96.8717 49.2066 96.7064 49.1432 96.5521C49.0797 96.3978 48.9864 96.2575 48.8686 96.1394C48.7509 96.0212 48.6109 95.9275 48.4569 95.8635C48.3028 95.7995 48.1376 95.7666 47.9708 95.7666Z" fill="black"/>
<path opacity="0.3" d="M47.9708 95.7666C47.6346 95.7666 47.3121 95.9002 47.0744 96.1379C46.8367 96.3756 46.7031 96.6981 46.7031 97.0343V100.343L49.2384 101.813V97.0385C49.239 96.8717 49.2066 96.7064 49.1432 96.5521C49.0797 96.3978 48.9864 96.2575 48.8686 96.1394C48.7509 96.0212 48.6109 95.9275 48.4569 95.8635C48.3028 95.7995 48.1376 95.7666 47.9708 95.7666Z" fill="black"/>
<path d="M57.6048 87.1847C57.5197 87.0662 57.4063 86.9709 57.2749 86.9074C57.1435 86.8439 56.9984 86.8143 56.8526 86.8213L48.689 88.6805C48.8399 88.6654 48.9921 88.6911 49.1296 88.7551C49.2672 88.819 49.385 88.9188 49.4707 89.0439C49.7255 89.3814 49.8967 89.7746 49.9701 90.191C50.0436 90.6075 50.0172 91.0355 49.8932 91.4398C49.8597 91.5875 49.7871 91.7234 49.683 91.8334C49.579 91.9435 49.4473 92.0235 49.3017 92.0652L57.4273 90.2059C57.5745 90.1656 57.7079 90.0861 57.8136 89.976C57.9192 89.8659 57.9931 89.7293 58.0273 89.5806C58.1489 89.176 58.1741 88.7485 58.1007 88.3324C58.0273 87.9164 57.8575 87.5233 57.6048 87.1847Z" fill="#455A64"/>
<path d="M49.9102 91.4398C50.0342 91.0354 50.0605 90.6075 49.9871 90.191C49.9136 89.7745 49.7425 89.3814 49.4876 89.0439C49.4019 88.9187 49.2841 88.819 49.1466 88.755C49.0091 88.6911 48.8568 88.6653 48.7059 88.6805L48.6552 88.7016C48.5218 88.7507 48.4022 88.8312 48.3065 88.9364C48.2109 89.0416 48.1421 89.1684 48.1059 89.3059C47.9826 89.7103 47.9566 90.1381 48.03 90.5544C48.1035 90.9708 48.2743 91.3639 48.5285 91.7017C48.6129 91.8263 48.7291 91.9261 48.8651 91.9907C49.001 92.0553 49.1518 92.0825 49.3017 92.0694H49.3228C49.4682 92.0267 49.5994 91.9457 49.7027 91.835C49.806 91.7242 49.8777 91.5877 49.9102 91.4398Z" fill="#263238"/>
<path d="M97.2529 110.514C97.1692 110.394 97.0568 110.298 96.926 110.234C96.7953 110.17 96.6505 110.139 96.505 110.146L88.3413 112.014C88.4926 111.999 88.6451 112.025 88.7827 112.09C88.9203 112.155 89.0378 112.255 89.123 112.381C89.3769 112.718 89.5475 113.111 89.6209 113.526C89.6943 113.942 89.6685 114.369 89.5456 114.773C89.5093 114.92 89.4352 115.055 89.3307 115.165C89.2262 115.274 89.0949 115.355 88.9498 115.398L97.0754 113.543C97.2212 113.5 97.3531 113.42 97.4583 113.31C97.5636 113.2 97.6384 113.065 97.6754 112.918C97.8002 112.512 97.8269 112.083 97.7534 111.665C97.68 111.247 97.5084 110.852 97.2529 110.514Z" fill="#455A64"/>
<path d="M88.2817 112.014C88.2986 112.012 88.3156 112.012 88.3324 112.014H88.2817Z" fill="#455A64"/>
<path d="M89.5621 114.765C89.685 114.361 89.7109 113.934 89.6374 113.518C89.564 113.103 89.3934 112.71 89.1396 112.373C89.0544 112.247 88.9368 112.147 88.7992 112.082C88.6616 112.017 88.5092 111.991 88.3578 112.005C88.341 112.004 88.324 112.004 88.3071 112.005C88.1738 112.055 88.0545 112.136 87.9596 112.242C87.8646 112.348 87.7969 112.476 87.762 112.614C87.6381 113.018 87.6117 113.445 87.6852 113.861C87.7587 114.276 87.9298 114.669 88.1846 115.006C88.2691 115.13 88.3853 115.23 88.5212 115.295C88.6572 115.359 88.8079 115.386 88.9579 115.373C89.1025 115.333 89.2342 115.255 89.3401 115.148C89.446 115.042 89.5225 114.91 89.5621 114.765Z" fill="#263238"/>
<g opacity="0.4">
<path d="M57.6048 87.1847C57.5197 87.0662 57.4063 86.9709 57.2749 86.9074C57.1435 86.8439 56.9984 86.8143 56.8526 86.8213L48.689 88.6805C48.8399 88.6654 48.9921 88.6911 49.1296 88.7551C49.2672 88.819 49.385 88.9188 49.4707 89.0439C49.7255 89.3814 49.8967 89.7746 49.9701 90.191C50.0436 90.6075 50.0172 91.0355 49.8932 91.4398C49.8597 91.5875 49.7871 91.7234 49.683 91.8334C49.579 91.9435 49.4473 92.0235 49.3017 92.0652L57.4273 90.2059C57.5745 90.1656 57.7079 90.0861 57.8136 89.976C57.9192 89.8659 57.9931 89.7293 58.0273 89.5806C58.1489 89.176 58.1741 88.7485 58.1007 88.3324C58.0273 87.9164 57.8575 87.5233 57.6048 87.1847Z" fill="white"/>
</g>
<g opacity="0.4">
<path d="M97.2529 110.514C97.1692 110.394 97.0568 110.298 96.926 110.234C96.7953 110.17 96.6505 110.139 96.505 110.146L88.3413 112.014C88.4926 111.999 88.6451 112.025 88.7827 112.09C88.9203 112.155 89.0378 112.255 89.123 112.381C89.3769 112.718 89.5475 113.111 89.6209 113.526C89.6943 113.942 89.6685 114.369 89.5456 114.773C89.5093 114.92 89.4352 115.055 89.3307 115.165C89.2262 115.274 89.0949 115.355 88.9498 115.398L97.0754 113.543C97.2212 113.5 97.3531 113.42 97.4583 113.31C97.5636 113.2 97.6384 113.065 97.6754 112.918C97.8002 112.512 97.8269 112.083 97.7534 111.665C97.68 111.247 97.5084 110.852 97.2529 110.514Z" fill="white"/>
<path d="M88.2817 112.014C88.2986 112.012 88.3156 112.012 88.3324 112.014H88.2817Z" fill="white"/>
</g>
<path d="M88.1723 112.656L84.9271 113.467C82.2637 114.138 79.4436 113.743 77.0677 112.365L47.3371 95.2005C47.0432 95.034 46.806 94.7832 46.656 94.4805C46.506 94.1779 46.4502 93.8372 46.4956 93.5025C46.5411 93.1678 46.6858 92.8544 46.9111 92.6027C47.1364 92.3511 47.432 92.1727 47.7596 92.0906L49.0611 91.7694C49.509 91.406 49.4583 89.4327 48.5075 89.2891L47.1427 89.6229C46.3202 89.8229 45.5767 90.2653 45.0086 90.8928C44.4405 91.5203 44.0739 92.304 43.9564 93.1423C43.8389 93.9806 43.976 94.8349 44.3497 95.5944C44.7234 96.3539 45.3167 96.9836 46.0525 97.402L75.8001 114.549C77.7897 115.704 80.049 116.313 82.3496 116.315C83.4333 116.307 84.5118 116.165 85.561 115.893L88.7385 115.103C89.1738 114.777 89.1231 112.804 88.1723 112.656Z" fill="#E0E0E0"/>
<path d="M50.8315 100.343V91.5327L69.897 102.544V111.35L50.8315 100.343Z" fill="#455A64"/>
<path d="M69.897 102.544L81.3396 108.126V111.35H69.897V102.544Z" fill="#455A64"/>
<path d="M50.8315 91.5327L69.897 102.544L81.3397 108.126L62.27 97.1188L50.8315 91.5327Z" fill="#455A64"/>
<path opacity="0.1" d="M69.897 102.544L81.3396 108.126V111.35H69.897V102.544Z" fill="white"/>
<path opacity="0.3" d="M50.8315 91.5327L69.897 102.544L81.3397 108.126L62.27 97.1188L50.8315 91.5327Z" fill="white"/>
<path opacity="0.2" d="M114.484 126.465C121.782 130.691 121.82 137.507 114.573 141.719C107.326 145.932 95.5331 145.945 88.2357 141.719C80.9382 137.494 80.9044 130.678 88.1512 126.465C95.3979 122.252 107.191 122.252 114.484 126.465Z" fill="black"/>
<path d="M100.675 78.8563L102.277 71.8716C100.093 72.1772 98.0282 73.0515 96.2892 74.4069L87.9058 80.9987L93.6736 82.7776L100.675 78.8563Z" fill="#FFA8A7"/>
<path d="M104.592 110.265L105.763 112.906C106.091 113.65 106.648 114.269 107.354 114.673C108.06 115.077 108.876 115.244 109.684 115.149L119.572 114.021C120.403 113.927 121.244 113.989 122.052 114.203L124.216 114.778V109.707L123.624 109.88C122.486 110.218 121.278 110.247 120.125 109.965L116.521 109.077C114.815 108.658 113.028 108.702 111.345 109.204L110.977 106.212L104.592 110.265Z" fill="#F28F8F"/>
<path d="M131.462 116.941C131.425 115.716 130.911 114.555 130.03 113.704C129.379 113.087 128.559 112.673 127.942 112.014C127.228 111.249 126.932 110.408 126.324 109.542C126.217 109.396 126.07 109.283 125.901 109.217C125.84 109.21 125.777 109.21 125.716 109.217C125.5 109.234 125.29 109.294 125.099 109.394C125.345 109.436 125.564 109.573 125.711 109.774C126.324 110.62 126.755 111.634 127.473 112.382C128.086 113.02 128.906 113.425 129.557 114.029C130.434 114.852 130.949 115.988 130.989 117.19C131.023 118.378 130.588 120.427 129.721 120.427C129.995 120.493 130.283 120.449 130.524 120.304C131.276 119.556 131.483 117.824 131.462 116.941Z" fill="#EBEBEB"/>
<path d="M126.324 109.542C126.932 110.408 127.228 111.232 127.942 112.014C128.559 112.673 129.379 113.087 130.03 113.704C130.911 114.555 131.425 115.716 131.462 116.941C131.462 117.824 131.276 119.556 130.554 120.291C131.475 119.738 131.728 117.781 131.699 116.826C131.658 115.626 131.145 114.49 130.271 113.666C129.62 113.062 128.796 112.656 128.183 112.014C127.465 111.266 127.173 110.442 126.561 109.601C126.484 109.496 126.388 109.409 126.277 109.343C126.165 109.276 126.042 109.234 125.914 109.216C126.078 109.285 126.22 109.397 126.324 109.542Z" fill="#455A64"/>
<path d="M123.404 109.749C123.194 109.841 122.964 109.875 122.736 109.846C122.736 109.846 122.069 109.779 121.849 109.736C121.427 109.656 121.384 110.134 121.384 110.134C121.636 110.16 121.889 110.16 122.141 110.134C122.198 110.221 122.273 110.296 122.361 110.353C122.449 110.41 122.548 110.447 122.652 110.463C122.864 110.505 123.07 110.568 123.269 110.653C123.367 110.698 123.45 110.771 123.507 110.863C123.564 110.954 123.593 111.061 123.59 111.169C123.552 111.405 123.32 111.545 123.167 111.743C123.097 111.859 123.057 111.99 123.051 112.126C123.045 112.261 123.073 112.396 123.134 112.517C122.998 112.458 122.847 112.449 122.705 112.49C122.563 112.531 122.44 112.619 122.356 112.741C122.197 112.996 122.102 113.286 122.077 113.586C122.034 113.786 122.02 113.99 122.035 114.194C122.042 114.297 122.07 114.397 122.117 114.489C122.165 114.58 122.23 114.661 122.31 114.727C122.391 114.79 122.49 114.824 122.593 114.824C122.695 114.824 122.795 114.79 122.876 114.727C123.417 115.606 125.889 115.939 127.127 117.6C128.365 119.261 128.635 120.44 129.734 120.44C130.579 120.44 131.002 118.39 131.002 117.203C130.962 116.001 130.446 114.864 129.569 114.042C128.918 113.438 128.099 113.032 127.486 112.394C126.768 111.646 126.337 110.632 125.724 109.787C125.577 109.585 125.357 109.449 125.111 109.407C125.037 109.398 124.962 109.398 124.887 109.407C124.376 109.427 123.873 109.543 123.404 109.749Z" fill="#2C2C2C"/>
<path d="M129.413 120.131L129.692 119.366C129.711 119.317 129.743 119.273 129.784 119.24C129.826 119.208 129.876 119.187 129.928 119.18C130.774 119.079 131.04 118.952 131.407 118.563C131.355 119.038 131.202 119.496 130.959 119.907C130.817 120.154 130.585 120.336 130.312 120.415C130.038 120.493 129.745 120.463 129.493 120.33C129.457 120.313 129.429 120.283 129.414 120.246C129.399 120.209 129.399 120.168 129.413 120.131Z" fill="#455A64"/>
<path d="M124.064 113.015C124.063 113.046 124.057 113.075 124.044 113.103C124.032 113.131 124.014 113.155 123.992 113.176C123.711 113.417 123.519 113.745 123.447 114.108C123.374 114.471 123.425 114.848 123.59 115.179C123.611 115.228 123.612 115.283 123.593 115.333C123.575 115.383 123.538 115.424 123.491 115.448C123.443 115.473 123.388 115.478 123.337 115.463C123.286 115.448 123.242 115.415 123.214 115.369C123.008 114.953 122.944 114.481 123.033 114.025C123.122 113.57 123.362 113.158 123.713 112.855C123.756 112.818 123.811 112.8 123.867 112.804C123.923 112.808 123.976 112.834 124.013 112.876C124.046 112.915 124.064 112.964 124.064 113.015Z" fill="#37474F"/>
<path d="M125.361 113.611C125.361 113.668 125.338 113.723 125.298 113.763C125.03 114.028 124.836 114.357 124.733 114.719C124.63 115.081 124.622 115.464 124.71 115.829C124.717 115.857 124.718 115.886 124.714 115.914C124.709 115.942 124.699 115.969 124.684 115.994C124.669 116.018 124.65 116.039 124.627 116.056C124.604 116.073 124.577 116.085 124.55 116.091C124.522 116.098 124.493 116.099 124.465 116.095C124.437 116.09 124.41 116.08 124.385 116.065C124.361 116.051 124.34 116.031 124.323 116.008C124.306 115.985 124.294 115.959 124.288 115.931C124.184 115.493 124.194 115.036 124.316 114.604C124.439 114.171 124.671 113.777 124.989 113.459C125.009 113.439 125.032 113.423 125.058 113.413C125.084 113.402 125.111 113.396 125.139 113.396C125.167 113.396 125.195 113.402 125.22 113.413C125.246 113.423 125.269 113.439 125.289 113.459C125.311 113.478 125.329 113.501 125.341 113.527C125.354 113.554 125.36 113.582 125.361 113.611Z" fill="#37474F"/>
<path d="M126.506 114.549C126.506 114.581 126.499 114.612 126.485 114.641C126.471 114.669 126.451 114.694 126.425 114.714C126.187 114.91 126.004 115.164 125.893 115.452C125.783 115.74 125.749 116.052 125.796 116.357C125.805 116.413 125.791 116.469 125.759 116.515C125.727 116.561 125.678 116.592 125.623 116.602C125.567 116.611 125.511 116.598 125.465 116.566C125.419 116.533 125.388 116.484 125.378 116.429C125.317 116.049 125.358 115.659 125.496 115.299C125.634 114.94 125.864 114.623 126.163 114.38C126.207 114.345 126.263 114.33 126.318 114.336C126.374 114.342 126.424 114.37 126.459 114.414C126.49 114.452 126.506 114.5 126.506 114.549Z" fill="#37474F"/>
<path d="M127.448 115.458C127.448 115.487 127.441 115.516 127.429 115.543C127.416 115.57 127.399 115.594 127.376 115.614C127.173 115.801 127.017 116.034 126.921 116.293C126.825 116.553 126.791 116.831 126.823 117.106C126.83 117.161 126.815 117.217 126.781 117.261C126.747 117.306 126.697 117.335 126.641 117.342C126.614 117.346 126.586 117.345 126.559 117.338C126.532 117.331 126.506 117.319 126.484 117.302C126.462 117.285 126.444 117.263 126.43 117.239C126.416 117.215 126.408 117.188 126.405 117.16C126.364 116.818 126.405 116.471 126.524 116.148C126.644 115.824 126.839 115.534 127.093 115.301C127.113 115.281 127.136 115.266 127.162 115.255C127.188 115.244 127.215 115.239 127.243 115.239C127.271 115.239 127.299 115.244 127.325 115.255C127.35 115.266 127.374 115.281 127.393 115.301C127.43 115.345 127.45 115.401 127.448 115.458Z" fill="#37474F"/>
<path d="M100.308 92.1792C99.9907 96.6667 101.191 101.898 101.575 103.444L100.912 105.033C100.747 109.111 106.756 111.338 109.511 109.749C113.829 102.844 116.018 99.1006 115.169 94.7568L100.308 92.1792Z" fill="#263238"/>
<path opacity="0.3" d="M101.934 102.752L104.592 97.4612C102.37 96.7978 100.675 94.1484 100.675 94.1484C101.018 96.4006 103.164 97.8288 103.164 97.8288C102.221 99.2884 101.788 101.02 101.934 102.752Z" fill="black"/>
<path d="M109.604 108.245C109.038 105.709 105.188 102.95 101.905 103.833L98.8373 110.615C98.3211 111.758 98.0093 112.982 97.9162 114.232L96.695 130.606C96.6115 131.752 96.4046 132.885 96.0781 133.986L96.04 134.113L100.308 135.254C100.325 133.363 100.679 131.489 101.356 129.723L104.618 121.213C105.25 119.556 105.537 117.787 105.463 116.015L105.412 114.676L109.604 108.245Z" fill="#FFA8A7"/>
<path d="M93.6398 142.437C94.8627 142.399 96.0224 141.885 96.8723 141.005C97.4934 140.354 97.9075 139.534 98.5625 138.922C99.3273 138.203 100.172 137.908 101.034 137.299C101.181 137.192 101.293 137.045 101.36 136.877C101.366 136.815 101.366 136.752 101.36 136.691C101.343 136.476 101.284 136.266 101.186 136.074C101.146 136.32 101.009 136.541 100.806 136.686C99.9611 137.299 98.9512 137.73 98.2033 138.448C97.561 139.061 97.1554 139.885 96.5511 140.532C95.7289 141.409 94.5922 141.924 93.3905 141.964C92.2073 141.998 90.1537 141.567 90.1537 140.696C90.0874 140.97 90.1314 141.258 90.2763 141.499C91.0115 142.235 92.7524 142.437 93.6398 142.437Z" fill="#EBEBEB"/>
<path d="M101.034 137.282C100.189 137.891 99.3441 138.187 98.5624 138.905C97.9075 139.518 97.4934 140.337 96.8722 140.988C96.0223 141.868 94.8626 142.382 93.6397 142.421C92.7524 142.446 91.0241 142.235 90.2847 141.512C90.8382 142.433 92.7988 142.687 93.7496 142.657C94.9508 142.619 96.0876 142.105 96.9103 141.229C97.5145 140.578 97.9201 139.759 98.5624 139.142C99.3103 138.428 100.134 138.132 100.979 137.519C101.084 137.444 101.172 137.347 101.238 137.236C101.303 137.125 101.345 137.001 101.36 136.873C101.291 137.037 101.179 137.179 101.034 137.282Z" fill="#455A64"/>
<path d="M100.831 134.363C100.738 134.155 100.705 133.925 100.734 133.699C100.734 133.699 100.798 133.027 100.84 132.812C100.92 132.389 100.595 132.368 100.595 132.368C100.595 132.368 100.531 132.702 100.477 133.095C100.386 133.153 100.307 133.228 100.246 133.317C100.184 133.405 100.14 133.505 100.117 133.61C100.076 133.822 100.012 134.029 99.9272 134.227C99.8828 134.326 99.8101 134.409 99.7183 134.466C99.6265 134.524 99.5198 134.552 99.4117 134.549C99.1793 134.515 99.0356 134.278 98.8413 134.126C98.725 134.055 98.5928 134.015 98.4569 134.009C98.3209 134.003 98.1857 134.032 98.0638 134.092C98.1235 133.958 98.1337 133.806 98.0928 133.665C98.0518 133.523 97.9622 133.401 97.8398 133.319C97.5849 133.158 97.295 133.061 96.9947 133.036C96.7933 132.994 96.5872 132.98 96.382 132.994C96.2797 133 96.18 133.028 96.0891 133.075C95.9981 133.123 95.918 133.188 95.8538 133.268C95.7901 133.349 95.7554 133.449 95.7554 133.551C95.7554 133.654 95.7901 133.754 95.8538 133.834C94.9707 134.375 94.6369 136.847 92.9763 138.085C91.3156 139.323 90.1367 139.598 90.1367 140.692C90.1367 141.537 92.1903 141.96 93.3735 141.96C94.5752 141.92 95.7119 141.405 96.5341 140.528C97.1384 139.881 97.544 139.057 98.1863 138.444C98.9342 137.726 99.9441 137.295 100.789 136.682C100.919 136.584 101.023 136.456 101.092 136.309C101.162 136.162 101.194 136 101.186 135.837C101.157 135.328 101.037 134.829 100.831 134.363Z" fill="#2C2C2C"/>
<path d="M90.4455 140.371L91.2103 140.65C91.2615 140.668 91.3066 140.7 91.3402 140.743C91.3739 140.785 91.3948 140.837 91.4005 140.891C91.4976 141.736 91.6244 142.002 92.0132 142.365C91.5401 142.315 91.0834 142.164 90.6737 141.922C90.4267 141.779 90.2447 141.546 90.1659 141.272C90.0872 140.998 90.1177 140.704 90.2511 140.451C90.2684 140.417 90.2976 140.39 90.3333 140.375C90.369 140.36 90.4089 140.359 90.4455 140.371Z" fill="#455A64"/>
<path d="M97.5652 135.026C97.5345 135.026 97.5041 135.019 97.4763 135.006C97.4486 134.993 97.4241 134.974 97.4046 134.95C97.1614 134.671 96.8334 134.479 96.4708 134.405C96.1066 134.332 95.7286 134.384 95.3975 134.553C95.3471 134.578 95.2887 134.582 95.2352 134.564C95.1817 134.546 95.1375 134.508 95.1123 134.458C95.0871 134.407 95.0829 134.349 95.1008 134.295C95.1186 134.242 95.1569 134.198 95.2074 134.172C95.625 133.959 96.1023 133.893 96.5622 133.984C97.0221 134.075 97.438 134.319 97.7427 134.675C97.7787 134.717 97.7967 134.772 97.7927 134.827C97.7888 134.883 97.7632 134.934 97.7215 134.971C97.7005 134.99 97.6758 135.005 97.649 135.014C97.6221 135.024 97.5936 135.028 97.5652 135.026Z" fill="#37474F"/>
<path d="M96.9654 136.319C96.9083 136.319 96.8536 136.296 96.8133 136.255C96.5491 135.989 96.2205 135.794 95.8593 135.691C95.4981 135.589 95.1165 135.581 94.7513 135.668C94.7241 135.675 94.6958 135.676 94.668 135.672C94.6402 135.668 94.6136 135.659 94.5896 135.644C94.5656 135.629 94.5447 135.61 94.5282 135.588C94.5117 135.565 94.4999 135.539 94.4935 135.512C94.4866 135.485 94.485 135.457 94.4889 135.43C94.4928 135.403 94.5022 135.377 94.5163 135.353C94.5305 135.329 94.5492 135.309 94.5714 135.293C94.5936 135.276 94.6188 135.265 94.6456 135.258C95.0832 135.153 95.5404 135.163 95.9733 135.286C96.4062 135.409 96.8002 135.641 97.1175 135.96C97.1467 135.989 97.1665 136.027 97.1742 136.068C97.182 136.109 97.1775 136.152 97.1612 136.19C97.1449 136.228 97.1177 136.261 97.0828 136.284C97.048 136.307 97.0071 136.319 96.9654 136.319Z" fill="#37474F"/>
<path d="M96.0444 137.447C96.0121 137.447 95.9803 137.439 95.9511 137.425C95.9219 137.412 95.8961 137.392 95.8754 137.367C95.6803 137.127 95.426 136.943 95.1377 136.831C94.8494 136.72 94.5371 136.686 94.2317 136.733C94.1756 136.742 94.1183 136.728 94.0724 136.695C94.0264 136.662 93.9955 136.611 93.9866 136.555C93.9776 136.499 93.9913 136.442 94.0246 136.396C94.0578 136.35 94.108 136.319 94.1641 136.31C94.5439 136.251 94.9328 136.292 95.2918 136.43C95.6508 136.568 95.9671 136.798 96.2092 137.096C96.235 137.127 96.2514 137.165 96.2565 137.205C96.2615 137.245 96.255 137.286 96.2377 137.322C96.2203 137.359 96.1929 137.389 96.1587 137.411C96.1244 137.432 96.0848 137.443 96.0444 137.443V137.447Z" fill="#37474F"/>
<path d="M95.1229 138.407C95.0932 138.407 95.0638 138.4 95.0367 138.388C95.0097 138.376 94.9858 138.357 94.9666 138.335C94.7779 138.132 94.5442 137.977 94.2843 137.881C94.0244 137.786 93.7457 137.753 93.4707 137.785C93.4151 137.79 93.3596 137.774 93.3156 137.739C93.2716 137.705 93.2425 137.655 93.2341 137.599C93.2306 137.572 93.2326 137.543 93.2401 137.517C93.2475 137.49 93.2603 137.464 93.2776 137.442C93.2949 137.42 93.3164 137.402 93.3408 137.388C93.3653 137.375 93.3922 137.366 93.42 137.363C93.7623 137.322 94.1094 137.363 94.4326 137.483C94.7559 137.603 95.0461 137.798 95.2793 138.052C95.3055 138.082 95.3225 138.12 95.3283 138.16C95.3342 138.2 95.3286 138.241 95.3123 138.278C95.296 138.315 95.2696 138.347 95.2361 138.37C95.2026 138.392 95.1634 138.405 95.1229 138.407Z" fill="#37474F"/>
<path d="M111.505 71.504C109.193 71.3223 106.87 71.3054 104.555 71.4533C103.515 71.4687 102.492 71.7141 101.559 72.1716C100.964 72.551 100.451 73.0455 100.051 73.626C99.6501 74.2066 99.3697 74.8615 99.2262 75.552C98.9507 76.9326 98.8626 78.3439 98.9642 79.748C99.0867 84.3369 99.429 88.2539 99.9234 92.8174C104.483 95.4499 110.487 96.6964 115.558 95.2513C115.63 89.3356 115.338 83.0777 114.146 77.2803C113.724 75.1844 113.111 72.9195 111.505 71.504Z" fill="#455A64"/>
<path opacity="0.3" d="M111.505 71.504C109.193 71.3223 106.87 71.3054 104.555 71.4533C103.515 71.4687 102.492 71.7141 101.559 72.1716C100.964 72.551 100.451 73.0455 100.051 73.626C99.6501 74.2066 99.3697 74.8615 99.2262 75.552C98.9507 76.9326 98.8626 78.3439 98.9642 79.748C99.0867 84.3369 99.429 88.2539 99.9234 92.8174C104.483 95.4499 110.487 96.6964 115.558 95.2513C115.63 89.3356 115.338 83.0777 114.146 77.2803C113.724 75.1844 113.111 72.9195 111.505 71.504Z" fill="white"/>
<path d="M125.285 83.2803C125.343 82.6553 125.245 82.0256 125 81.4476C124.755 80.8695 124.371 80.3611 123.882 79.9676L115.473 73.1772C114.334 72.2544 112.96 71.6689 111.505 71.487L110.681 71.4236C109.929 72.1208 109.6 77.0858 112.989 79.1013L120.299 83.3691L120.227 92.7624L117.725 95.6188C117.68 95.6685 117.647 95.7282 117.63 95.793C117.612 95.8579 117.611 95.926 117.625 95.9916C117.639 96.0573 117.668 96.1187 117.711 96.1707C117.753 96.2227 117.807 96.2638 117.869 96.2907C118.013 96.358 118.173 96.3834 118.331 96.364C118.488 96.3446 118.637 96.2811 118.761 96.1808L119.572 95.5174C119.069 96.4639 118.63 97.5414 118.127 98.4752C118.001 98.659 117.939 98.8784 117.949 99.1006C117.966 99.1944 118.004 99.2833 118.059 99.3608C118.115 99.4382 118.187 99.5024 118.27 99.5485C118.435 99.6425 118.618 99.7001 118.807 99.7175C119.468 99.7951 120.136 99.676 120.73 99.3753C121.321 99.0752 121.844 98.655 122.264 98.1414C123.067 97.1744 123.548 95.9809 123.641 94.7272C124.396 90.9443 124.945 87.123 125.285 83.2803Z" fill="#FFA8A7"/>
<path d="M103.042 69.708V70.4686C103.022 71.0258 102.92 71.577 102.737 72.1039C102.661 72.3257 102.661 72.5666 102.737 72.7884C102.816 72.9748 102.935 73.1411 103.086 73.275C103.238 73.4089 103.418 73.5069 103.612 73.5617C103.998 73.6652 104.403 73.6782 104.795 73.5997C105.968 73.3998 107.033 72.794 107.804 71.8884L107.631 66.6868L103.042 69.708Z" fill="#FFA8A7"/>
<path opacity="0.2" d="M106.709 68.9475C107.081 68.2969 107.32 67.5786 107.411 66.8347L103.041 69.7038V70.4644C103.037 70.6869 103.016 70.9086 102.978 71.1278C103.594 71.021 104.195 70.8379 104.765 70.5827C105.559 70.2389 106.235 69.6705 106.709 68.9475Z" fill="black"/>
<path d="M98.1948 61.2697C97.6957 61.2859 97.2017 61.1649 96.7666 60.9197C96.3315 60.6746 95.9719 60.3148 95.7271 59.8795C95.6925 59.8157 95.6773 59.7431 95.6835 59.6707C95.6896 59.5983 95.7169 59.5293 95.7618 59.4722C95.8068 59.4151 95.8675 59.3724 95.9364 59.3495C96.0053 59.3265 96.0795 59.3242 96.1497 59.3429C96.4949 59.4041 96.8482 59.4041 97.1934 59.3429C96.7952 58.8247 96.5042 58.2323 96.3373 57.6004C96.1704 56.9685 96.1311 56.3098 96.2215 55.6625C96.2327 55.5905 96.2606 55.5222 96.303 55.463C96.3454 55.4037 96.4011 55.3553 96.4657 55.3216C96.5302 55.2879 96.6018 55.2698 96.6746 55.2688C96.7474 55.2679 96.8195 55.284 96.8849 55.316C98.3175 56.0265 99.9115 56.3485 101.508 56.2498C102.353 56.1907 103.198 56.009 104.043 55.9456C104.893 55.8402 105.756 55.9718 106.536 56.3259C106.928 56.506 107.264 56.7896 107.506 57.1463C107.749 57.503 107.89 57.9191 107.913 58.3499C108.011 58.212 108.136 58.0967 108.282 58.0121C108.428 57.9274 108.591 57.8755 108.759 57.8597C108.934 57.8385 109.112 57.8535 109.281 57.9036C109.45 57.9538 109.608 58.0381 109.743 58.1513L108.281 58.9626C108.555 58.9079 108.84 58.9454 109.09 59.0692C109.341 59.193 109.544 59.3962 109.667 59.6471C109.882 60.1389 109.975 60.6753 109.938 61.2106C109.965 61.9162 109.934 62.6229 109.845 63.3233C109.749 64.0316 109.471 64.7028 109.037 65.2713C108.657 65.7361 108.149 66.0797 107.575 66.26C106.795 66.4781 105.966 66.4516 105.201 66.184C104.441 65.919 103.718 65.5583 103.05 65.1107C101.317 63.9819 99.6921 62.6962 98.1948 61.2697Z" fill="#263238"/>
<path d="M98.1017 59.8541C97.6121 62.7952 97.9365 65.8142 99.0398 68.584C99.2408 69.2481 99.6589 69.8254 100.227 70.2235C100.853 70.5827 101.63 70.5066 102.34 70.401C103.498 70.2703 104.627 69.952 105.682 69.4587C106.747 68.9573 107.576 68.0641 107.998 66.9657C108.376 67.0427 108.768 67.0087 109.127 66.8678C109.486 66.7268 109.797 66.4849 110.022 66.1713C110.468 65.5203 110.698 64.7459 110.681 63.9571C110.681 63.4585 110.588 62.8669 110.14 62.6472C109.92 62.5799 109.686 62.5739 109.462 62.6297C109.239 62.6856 109.035 62.8012 108.873 62.9641C108.271 63.4479 107.829 64.1017 107.605 64.8402C107.275 63.6191 106.76 62.4402 106.43 61.2232C106.356 60.7283 106.103 60.2775 105.72 59.9556C105.209 59.626 104.541 59.8161 103.95 59.9556C102.024 60.4209 100.011 60.386 98.1017 59.8541Z" fill="#FFA8A7"/>
<path d="M101.655 63.5557L100.231 65.96L101.93 66.2769L101.655 63.5557Z" fill="#F28F8F"/>
<path d="M103.57 67.1052L102.277 67.7348C102.388 67.8817 102.543 67.9883 102.72 68.0387C102.897 68.089 103.086 68.0802 103.257 68.0137C103.406 67.9219 103.519 67.7812 103.576 67.6155C103.633 67.4498 103.631 67.2694 103.57 67.1052Z" fill="#F28F8F"/>
<path opacity="0.3" d="M103.57 67.1052L102.277 67.7348C102.388 67.8817 102.543 67.9883 102.72 68.0387C102.897 68.089 103.086 68.0802 103.257 68.0137C103.406 67.9219 103.519 67.7812 103.576 67.6155C103.633 67.4498 103.631 67.2694 103.57 67.1052Z" fill="black"/>
<path d="M102.809 68.0686C102.959 68.0979 103.115 68.0832 103.257 68.0263C103.375 67.9597 103.471 67.8596 103.533 67.7385C103.595 67.6175 103.619 67.4809 103.603 67.346C103.419 67.3441 103.24 67.4069 103.096 67.5235C103.015 67.5908 102.947 67.6736 102.898 67.7672C102.849 67.8608 102.818 67.9632 102.809 68.0686Z" fill="#F28F8F"/>
<path d="M104.111 63.6529C104.124 63.7498 104.108 63.8483 104.064 63.9359C104.021 64.0235 103.952 64.0961 103.867 64.1444C103.782 64.1927 103.685 64.2145 103.587 64.207C103.49 64.1995 103.397 64.163 103.32 64.1022C103.244 64.0414 103.187 63.9592 103.158 63.866C103.128 63.7728 103.127 63.6729 103.155 63.5791C103.183 63.4854 103.238 63.4021 103.313 63.34C103.389 63.2778 103.481 63.2396 103.578 63.2303C103.705 63.2161 103.832 63.2525 103.932 63.3317C104.032 63.4109 104.096 63.5264 104.111 63.6529Z" fill="#263238"/>
<path d="M100.025 63.9064C100.037 63.9731 100.036 64.0417 100.02 64.1079C100.005 64.174 99.9759 64.2362 99.9352 64.2906C99.8945 64.3449 99.843 64.3902 99.7838 64.4236C99.7247 64.457 99.6592 64.4777 99.5917 64.4845C99.5241 64.4912 99.4559 64.4839 99.3913 64.4629C99.3267 64.4419 99.2672 64.4077 99.2165 64.3625C99.1659 64.3172 99.1251 64.262 99.097 64.2002C99.0688 64.1384 99.0537 64.0715 99.0528 64.0036C99.0511 63.8808 99.0955 63.762 99.1772 63.6704C99.2589 63.5788 99.372 63.5212 99.4941 63.509C99.6162 63.4968 99.7385 63.5309 99.8367 63.6044C99.935 63.678 100.002 63.7857 100.025 63.9064Z" fill="#263238"/>
<path d="M99.3569 62.0218L98.3512 62.8669C98.2913 62.7377 98.2721 62.5932 98.2963 62.4528C98.3204 62.3124 98.3868 62.1827 98.4865 62.081C98.6113 61.9902 98.7592 61.9364 98.9132 61.926C99.0671 61.9155 99.221 61.9487 99.3569 62.0218Z" fill="#263238"/>
<path d="M103.511 61.5401L104.664 62.1781C104.698 62.0403 104.688 61.8955 104.637 61.7632C104.586 61.631 104.495 61.5177 104.377 61.4387C104.237 61.3752 104.082 61.3511 103.93 61.369C103.777 61.3869 103.632 61.446 103.511 61.5401Z" fill="#263238"/>
<path d="M103.832 90.075C103.832 89.9567 103.832 89.8426 103.802 89.7285C103.66 88.7539 103.24 87.841 102.591 87.0997C101.943 86.3583 101.094 85.82 100.147 85.5495L93.8595 81.7465L89.634 79.6338L87.8931 81.0071C87.5012 81.3116 87.2074 81.7245 87.048 82.1944C86.8432 82.8217 86.8911 83.5041 87.1815 84.0967C87.4718 84.6892 87.9818 85.1452 88.603 85.3678L98.7442 88.9426C99.4073 89.636 99.8283 90.5254 99.9442 91.4779C99.971 91.7574 100.026 92.0335 100.109 92.3018C100.251 92.6205 100.493 92.8845 100.797 93.0543C101.102 93.2242 101.453 93.2908 101.799 93.2441C102.141 93.1919 102.467 93.0603 102.749 92.8601C103.032 92.6598 103.263 92.3963 103.426 92.0906C103.752 91.4717 103.893 90.7719 103.832 90.075Z" fill="#FFA8A7"/>
<path d="M100.443 85.5496V84.9369H99.9951V85.1608L99.0401 84.6031C98.9407 84.5452 98.8277 84.5146 98.7127 84.5146C98.5976 84.5146 98.4846 84.5452 98.3852 84.6031L96.7922 85.5242V85.258L96.3696 85.296V85.9003C96.37 85.9382 96.3803 85.9754 96.3996 86.008C96.4189 86.0406 96.4464 86.0676 96.4795 86.0862L97.7894 86.8468C97.8894 86.9031 98.0022 86.9326 98.1169 86.9326C98.2316 86.9326 98.3444 86.9031 98.4444 86.8468L100.367 85.7355C100.399 85.7177 100.425 85.692 100.443 85.6609C100.462 85.6297 100.472 85.5943 100.473 85.558L100.443 85.5496Z" fill="#2C2C2C"/>
<path d="M98.368 84.1L96.7412 85.0423C96.712 85.0577 96.6876 85.0808 96.6706 85.1091C96.6535 85.1374 96.6445 85.1698 96.6445 85.2028C96.6445 85.2359 96.6535 85.2683 96.6706 85.2966C96.6876 85.3248 96.712 85.348 96.7412 85.3634L97.8567 86.0057C97.9412 86.0555 98.0375 86.0817 98.1356 86.0817C98.2337 86.0817 98.33 86.0555 98.4145 86.0057L100.046 85.0634C100.074 85.047 100.097 85.0236 100.113 84.9954C100.129 84.9672 100.138 84.9353 100.138 84.9028C100.138 84.8703 100.129 84.8384 100.113 84.8103C100.097 84.7821 100.074 84.7586 100.046 84.7423L98.9258 84.1C98.8413 84.0502 98.745 84.0239 98.6469 84.0239C98.5488 84.0239 98.4525 84.0502 98.368 84.1Z" fill="#2C2C2C"/>
<path opacity="0.3" d="M100.443 85.5496V84.9369H99.9951V85.1608L99.0401 84.6031C98.9407 84.5452 98.8277 84.5146 98.7127 84.5146C98.5976 84.5146 98.4846 84.5452 98.3852 84.6031L96.7922 85.5242V85.258L96.3696 85.296V85.9003C96.37 85.9382 96.3803 85.9754 96.3996 86.008C96.4189 86.0406 96.4464 86.0676 96.4795 86.0862L97.7894 86.8468C97.8894 86.9031 98.0022 86.9326 98.1169 86.9326C98.2316 86.9326 98.3444 86.9031 98.4444 86.8468L100.367 85.7355C100.399 85.7177 100.425 85.692 100.443 85.6609C100.462 85.6297 100.472 85.5943 100.473 85.558L100.443 85.5496Z" fill="black"/>
<path d="M98.3642 83.9985L96.4501 85.1056C96.4166 85.1243 96.3888 85.1516 96.3694 85.1846C96.3501 85.2177 96.3398 85.2553 96.3398 85.2936C96.3398 85.3319 96.3501 85.3695 96.3694 85.4026C96.3888 85.4356 96.4166 85.4629 96.4501 85.4817L97.7726 86.238C97.8726 86.2943 97.9854 86.3238 98.1001 86.3238C98.2148 86.3238 98.3276 86.2943 98.4276 86.238L100.35 85.1267C100.383 85.1071 100.409 85.0796 100.428 85.0466C100.446 85.0137 100.456 84.9765 100.456 84.9387C100.456 84.9009 100.446 84.8637 100.428 84.8307C100.409 84.7978 100.383 84.7702 100.35 84.7506L99.0403 83.9985C98.9384 83.9366 98.8215 83.9038 98.7023 83.9038C98.583 83.9038 98.4661 83.9366 98.3642 83.9985Z" fill="#2C2C2C"/>
<path opacity="0.5" d="M98.368 84.1L96.7412 85.0423C96.712 85.0577 96.6876 85.0808 96.6706 85.1091C96.6535 85.1374 96.6445 85.1698 96.6445 85.2028C96.6445 85.2359 96.6535 85.2683 96.6706 85.2966C96.6876 85.3248 96.712 85.348 96.7412 85.3634L97.8567 86.0057C97.9412 86.0555 98.0375 86.0817 98.1356 86.0817C98.2337 86.0817 98.33 86.0555 98.4145 86.0057L100.046 85.0634C100.074 85.047 100.097 85.0236 100.113 84.9954C100.129 84.9672 100.138 84.9353 100.138 84.9028C100.138 84.8703 100.129 84.8384 100.113 84.8103C100.097 84.7821 100.074 84.7586 100.046 84.7423L98.9258 84.1C98.8413 84.0502 98.745 84.0239 98.6469 84.0239C98.5488 84.0239 98.4525 84.0502 98.368 84.1Z" fill="white"/>
<path d="M97.6458 88.5453C97.3881 88.3044 97.2486 86.9903 97.7599 86.5635L96.45 85.8071C96.0275 86.3438 96.1331 87.4973 96.3697 88.0805C96.3976 88.1472 96.4395 88.2071 96.4928 88.2559C96.5461 88.3048 96.6093 88.3416 96.6782 88.3636C96.9317 88.4481 97.3585 88.596 97.5233 88.6509C97.5737 88.669 97.6275 88.6757 97.6808 88.6706C97.7342 88.6655 97.7857 88.6487 97.8318 88.6213L97.6458 88.5453Z" fill="#455A64"/>
</svg>
