<svg width="103" height="103" viewBox="0 0 103 103" fill="none" xmlns="http://www.w3.org/2000/svg">
<path d="M0 8C0 3.58172 3.58172 0 8 0H95C99.4183 0 103 3.58172 103 8V95C103 99.4183 99.4183 103 95 103H8C3.58172 103 0 99.4183 0 95V8Z" fill="#D1FAFF"/>
<path d="M90.8661 46.551C88.6561 32.0855 79.5951 14.3136 61.6941 12.4538C61.6941 12.4538 48.1028 10.8006 34.7048 13.3061C26.7531 14.7932 19.7806 19.2198 15.3687 25.5819C10.9567 31.944 9.483 39.7018 11.2715 47.0978C12.4332 51.9017 13.2182 56.8734 13.0027 61.8096C12.6278 70.4006 12.8435 78.4197 21.1809 83.5431C28.6252 88.1177 37.9939 92.1524 46.9319 92.8591C53.006 93.3393 59.8178 92.5622 65.6722 90.9808C95.5071 82.9214 93.0761 61.0165 90.8661 46.551Z" fill="#D1FAFF"/>
<path d="M60.8266 83.9972C60.387 83.8539 59.5567 83.1547 59.4155 82.8832C58.4753 81.0764 56.4953 77.8079 57.0181 75.7191C57.1074 75.3624 58.7827 75.3316 59.071 75.0431C60.1344 74.7641 60.5206 74.7333 61.4012 73.9716C64.0011 71.7226 60.1462 65.852 66.0505 65.1576C70.3753 64.6488 73.5591 66.7061 74.3154 60.2838C75.0717 53.8614 82.2773 43.2574 88.1374 48.942C91.5006 52.2044 86.584 56.8599 87.8108 61.2091C88.9766 65.3419 86.7881 68.1507 82.3463 69.6613C77.9045 71.172 79.7201 73.3197 80.2095 77.1306C80.7974 81.7083 74.0179 81.2212 70.9072 80.7294C68.4022 80.3333 61.7564 81.0148 60.8266 83.9972Z" fill="url(#paint0_linear_1293_5180)"/>
<mask id="mask0_1293_5180" style="mask-type:luminance" maskUnits="userSpaceOnUse" x="56" y="47" width="34" height="38">
<path d="M56.1016 74.9807C56.5061 78.1335 56.7879 81.3584 57.1782 84.5355C58.9276 85.0146 60.997 85.5354 61.802 83.4254C62.9212 80.4917 68.414 80.3155 70.9148 80.7246C74.01 81.2309 80.802 81.7035 80.2111 77.1297C79.7192 73.3219 77.9063 71.1708 82.3478 69.6609C86.7893 68.1511 88.977 65.3418 87.812 61.2086C86.5861 56.8591 91.5011 52.2061 88.1386 48.9417C82.2797 43.2536 75.0699 53.8675 74.318 60.2813C73.5661 66.695 70.3627 64.6732 66.0555 65.1509C60.1753 65.8031 63.9411 71.8282 61.4295 73.9168C59.4605 75.5542 58.2637 74.9616 56.1016 74.9807Z" fill="white"/>
</mask>
<g mask="url(#mask0_1293_5180)">
<g opacity="0.8">
<path d="M58.2425 79.4968L58.2148 79.3956C65.5548 77.3874 72.0815 73.1849 77.0894 67.2425C81.8545 61.5883 85.1824 54.4775 86.7133 46.6791L86.8162 46.6993C85.2819 54.5152 81.9461 61.6423 77.1696 67.3102C72.148 73.2689 65.6031 77.4829 58.2425 79.4968Z" fill="#FCFDFE"/>
<path d="M66.2649 76.2114L66.2539 76.1072C70.587 75.6489 77.0769 76.909 80.721 78.9161L80.6704 79.0079C77.0424 77.0098 70.5801 75.7552 66.2649 76.2114Z" fill="#FCFDFE"/>
<path d="M61.1015 78.679L61.0469 78.5895C62.9716 77.415 64.2287 75.3124 64.7832 72.3402C65.1899 70.1605 65.2162 67.5725 64.8615 64.648L64.9656 64.6354C65.3216 67.5705 65.295 70.1692 64.8864 72.3595C64.3262 75.3622 63.0528 77.4884 61.1015 78.679Z" fill="#FCFDFE"/>
<path d="M77.8131 66.4799L77.7539 66.3933C81.2705 63.9912 85.7484 64.0159 88.8857 64.4595L88.871 64.5633C85.7522 64.1223 81.3019 64.0968 77.8131 66.4799Z" fill="#FCFDFE"/>
<path d="M83.0221 58.2392L82.9206 58.2124C83.4474 56.2226 83.8941 52.0636 80.9688 46.5647L81.0613 46.5154C84.0035 52.0459 83.5527 56.2346 83.0221 58.2392Z" fill="#FCFDFE"/>
</g>
</g>
<mask id="mask1_1293_5180" style="mask-type:luminance" maskUnits="userSpaceOnUse" x="54" y="34" width="31" height="51">
<path d="M61.2254 84.3576C58.9475 83.5947 56.6816 82.7784 54.4295 81.9092C54.3854 81.9367 54.5291 76.7141 57.4222 74.4797C63.1239 70.1685 60.7368 64.9555 60.311 62.0436C59.5358 57.9062 61.1319 53.332 65.2412 54.9781C69.2625 56.4822 71.4256 48.0363 71.8887 41.3143C71.8509 37.9955 75.576 34.6439 78.7569 34.2951C82.018 33.8615 84.735 36.4307 84.533 42.9963C84.635 50.6583 78.4302 54.1568 75.7638 57.5117C73.1417 60.8043 77.1949 64.5739 72.9292 67.1434C69.3137 69.4579 65.0352 70.821 65.8198 74.6819C66.6508 78.509 65.7773 81.3599 61.2254 84.3576Z" fill="white"/>
</mask>
<g mask="url(#mask1_1293_5180)">
<path d="M61.2254 84.3576C58.9475 83.5946 56.6816 82.7783 54.4295 81.9092C54.3854 81.9367 54.5291 76.7141 57.4222 74.4797C63.1239 70.1685 60.7368 64.9555 60.311 62.0436C59.5501 57.9117 61.0656 53.8563 65.017 54.4999C69.415 55.1281 71.5026 48.0363 71.8887 41.3143C71.8509 37.9955 75.576 34.6439 78.7569 34.2951C82.018 33.8615 84.735 36.4307 84.533 42.9963C84.635 50.6583 78.4302 54.1568 75.7638 57.5117C73.1417 60.8043 77.1949 64.5739 72.9292 67.1434C69.3137 69.4579 65.0352 70.821 65.8198 74.6819C66.6508 78.509 65.7773 81.3599 61.2254 84.3576Z" fill="#D8DEE8"/>
</g>
<mask id="mask2_1293_5180" style="mask-type:luminance" maskUnits="userSpaceOnUse" x="54" y="34" width="31" height="51">
<path d="M61.2254 84.3576C58.9475 83.5947 56.6816 82.7784 54.4295 81.9092C54.3854 81.9367 54.5291 76.7141 57.4222 74.4797C63.1239 70.1685 60.7368 64.9555 60.311 62.0436C59.5358 57.9062 61.1319 53.332 65.2412 54.9781C69.2625 56.4822 71.4256 48.0363 71.8887 41.3143C71.8509 37.9955 75.576 34.6439 78.7569 34.2951C82.018 33.8615 84.735 36.4307 84.533 42.9963C84.635 50.6583 78.4302 54.1568 75.7638 57.5117C73.1417 60.8043 77.1949 64.5739 72.9292 67.1434C69.3137 69.4579 65.0352 70.821 65.8198 74.6819C66.6508 78.509 65.7773 81.3599 61.2254 84.3576Z" fill="white"/>
</mask>
<g mask="url(#mask2_1293_5180)">
<g opacity="0.8">
<path d="M57.9355 84.0786C57.9429 84.0333 62.0948 73.7323 67.8154 64.0085C68.6493 62.4183 69.5322 60.8214 70.386 59.2771C72.6719 55.1424 75.0357 50.867 76.5826 46.4662C78.3113 41.548 78.8354 36.9336 78.1847 32.3592L78.3075 32.3417C78.961 36.9363 78.435 41.5699 76.6995 46.5073C75.1493 50.9179 72.7829 55.1979 70.4945 59.3371C69.641 60.8808 68.7585 62.4771 67.9237 64.0687C62.4569 73.3613 58.1661 83.721 58.0569 84.1031L57.9355 84.0786Z" fill="#BEB8F2"/>
<path d="M74.7265 51.2855L74.6504 51.1875C77.7771 48.757 81.6612 45.2024 83.7478 43.2928C85.4319 41.7516 85.4386 41.7539 85.5022 41.7758L85.4619 41.893L85.482 41.8344L85.4997 41.8927C85.4178 41.9326 84.7178 42.5732 83.8315 43.3843C81.7435 45.2951 77.8571 48.8518 74.7265 51.2855Z" fill="#BEB8F2"/>
<path d="M76.2052 47.4409C76.2602 44.0336 75.2888 41.6102 74.4642 40.1772C73.5622 38.6099 72.61 37.8073 72.4801 37.7597C72.4798 37.7596 72.4794 37.7595 72.4791 37.7593C72.4793 37.7594 72.4939 37.7644 72.5126 37.7562L72.4629 37.6426C72.4983 37.6272 72.5344 37.6438 72.5884 37.6798C73.4031 38.2222 76.4256 41.4686 76.3292 47.443L76.2052 47.4409Z" fill="#BEB8F2"/>
<path d="M64.3008 70.4007C65.2212 67.3793 65.0962 63.9293 63.9295 60.1467C63.3209 58.1735 62.4491 56.1911 61.3383 54.2546C61.2574 54.1135 61.229 54.0635 61.2207 54.0407L61.3372 53.9982C61.3435 54.0144 61.391 54.0971 61.4459 54.1929C62.5611 56.1373 63.4367 58.1282 64.0479 60.1101C65.2221 63.9168 65.3471 67.3913 64.4195 70.4368L64.3008 70.4007Z" fill="#BEB8F2"/>
<path d="M66.0551 67.3777L65.9629 67.2949C69.5792 63.2656 75.546 64.0059 75.6134 64.0306C75.6135 64.0306 75.6136 64.0306 75.6137 64.0307L75.6489 64.096L75.5964 64.1484L75.5873 64.0878L75.5721 64.1468C75.5164 64.1351 69.6509 63.3713 66.0551 67.3777Z" fill="#BEB8F2"/>
<path d="M58.6381 82.4008C58.9279 81.0666 58.8574 78.6907 56.8757 74.9487C56.7654 74.7404 56.7654 74.7404 56.7758 74.7089L56.8347 74.7284L56.8944 74.7139C56.8998 74.7293 56.9394 74.8041 56.9853 74.8907C58.9845 78.6657 59.0534 81.0727 58.7592 82.4271L58.6381 82.4008Z" fill="#BEB8F2"/>
<path d="M59.8064 80.0025L59.6953 79.9475C60.1761 78.9752 61.7048 77.1755 66.5407 76.0464C66.607 76.0309 66.6497 76.0211 66.6651 76.0164L66.7015 76.1349C66.685 76.14 66.6396 76.1506 66.5689 76.1672C61.7826 77.2846 60.2776 79.0497 59.8064 80.0025Z" fill="#BEB8F2"/>
</g>
</g>
<path d="M29.9261 75.8331C29.7959 76.9096 29.568 77.7799 29.3919 78.8257C33.7984 77.6212 38.2671 77.2679 42.7369 76.0549C38.7757 71.5873 35.5639 69.9354 35.9505 63.0231C36.1319 59.7792 37.4398 53.4391 35.5759 50.7066C33.4524 47.5936 31.1953 48.9732 31.2027 45.7825C31.2142 40.7954 27.851 36.2331 21.7752 39.5855C15.7786 42.8942 19.67 60.2411 24.3168 64.2205C27.5923 68.399 30.6056 70.212 29.9261 75.8331Z" fill="#D8DEE8"/>
<mask id="mask3_1293_5180" style="mask-type:luminance" maskUnits="userSpaceOnUse" x="18" y="38" width="19" height="40">
<path d="M35.966 62.4794C36.0385 61.2614 37.4909 52.7842 35.5842 50.5774C33.412 48.0632 31.2136 48.8133 31.2089 45.7273C31.2017 40.904 27.8591 36.1958 21.7758 39.5738C15.7718 42.9077 19.6829 60.2642 24.3079 64.1853C27.6821 68.8223 30.4757 69.5389 29.9728 76.165C29.6205 80.8063 35.6933 67.0591 35.966 62.4794Z" fill="white"/>
</mask>
<g mask="url(#mask3_1293_5180)">
<g opacity="0.8">
<path d="M36.1864 76.8644C35.5136 75.319 34.711 73.8076 33.9349 72.3461L33.6415 71.7931C33.0195 70.6184 32.484 69.5564 32.0116 68.6194C31.7455 68.0916 31.4941 67.5931 31.2465 67.1119C30.4972 65.6554 29.9679 64.6334 29.7009 64.1178C29.6076 63.9376 29.5463 63.8193 29.5188 63.7658C27.4462 59.7345 26.113 53.4934 25.3967 50.1404C25.3191 49.7771 25.2497 49.4524 25.1885 49.1738C24.1374 44.3892 22.4705 39.5365 20.2344 34.7505L20.313 34.7138C22.5518 39.5056 24.2207 44.3644 25.2732 49.1552C25.3344 49.4339 25.4039 49.7588 25.4815 50.1223C26.197 53.4713 27.5287 59.705 29.5959 63.7261C29.6234 63.7796 29.6847 63.8978 29.7779 64.0779C30.045 64.5935 30.5743 65.6156 31.3237 67.0722C31.5714 67.5538 31.8228 68.0524 32.089 68.5803C32.5613 69.517 33.0966 70.5785 33.7182 71.7526L34.0115 72.3054C34.7884 73.7685 35.5918 75.2813 36.2659 76.8299L36.1864 76.8644Z" fill="#FCFDFE"/>
<path d="M32.2954 69.4418C31.0527 66.7128 30.6924 63.0064 31.2534 58.7234C31.7209 55.1556 32.8275 51.3057 34.2895 48.1605L34.3681 48.1971C32.9096 51.3345 31.8057 55.1753 31.3395 58.7346C30.7805 63.0016 31.1383 66.6916 32.3744 69.4058L32.2954 69.4418Z" fill="#FCFDFE"/>
<path d="M25.5945 50.6825L25.5078 50.6789C25.6154 48.0881 26.0511 45.4956 26.4726 42.9885C26.761 41.2725 27.0593 39.4981 27.2499 37.7386L27.3361 37.748C27.1452 39.51 26.8467 41.2856 26.5581 43.0029C26.1371 45.5074 25.7018 48.0971 25.5945 50.6825Z" fill="#FCFDFE"/>
<path d="M27.5741 58.8307C25.5287 55.86 21.4427 52.8101 18.8301 52.3038L18.8466 52.2186C21.4777 52.7285 25.5894 55.7952 27.6456 58.7815L27.5741 58.8307Z" fill="#FCFDFE"/>
</g>
</g>
<path d="M25.0013 63.7722C26.7251 69.0616 29.7167 67.5346 33.6211 65.7523C33.5134 70.9324 33.5993 75.9804 33.7042 81.1029C31.0733 82.257 29.1674 83.0347 27.2766 80.1039C25.1382 76.7892 24.014 74.8053 19.6862 74.4291C15.3583 74.0529 11.7946 71.3164 12.7362 67.0765C13.7273 62.6148 9.37308 57.4605 12.6052 53.9207C18.2369 47.7529 23.2062 58.2644 25.0013 63.7722Z" fill="url(#paint1_linear_1293_5180)"/>
<mask id="mask4_1293_5180" style="mask-type:luminance" maskUnits="userSpaceOnUse" x="11" y="52" width="27" height="31">
<path d="M35.6048 79.9017C32.8376 81.7332 29.7212 83.8187 27.2569 80.0578C25.2054 76.927 23.9893 74.7394 19.6829 74.4183C15.3764 74.0971 11.7932 71.2824 12.7367 67.0776C13.7296 62.6527 9.38264 57.4034 12.6086 53.9234C18.2296 47.8597 23.223 58.0698 25.002 63.8558C26.781 69.6418 30.219 66.5844 33.9821 65.9363C39.1195 65.0513 37.8406 78.422 35.6048 79.9017Z" fill="white"/>
</mask>
<g mask="url(#mask4_1293_5180)">
<g opacity="0.8">
<path d="M32.5874 74.6469C28.1615 73.0952 24.5167 71.6792 21.2547 68.7969C18.1331 66.0387 16.3984 62.8796 15.4542 58.2336C14.9647 55.8255 14.3418 54.1553 13.4473 51.882L13.528 51.8502C14.4242 54.1278 15.0483 55.8014 15.5391 58.2163C16.4793 62.8423 18.2058 65.9872 21.3122 68.7319C24.5623 71.6037 28.1992 73.0165 32.6161 74.5651L32.5874 74.6469Z" fill="#FCFDFE"/>
<path d="M28.0555 81.9826L27.9824 81.9357C28.8156 80.6366 29.7493 79.5508 30.8369 78.6165C31.3934 78.1384 31.9797 77.7905 32.6888 77.415L32.7294 77.4917C32.0254 77.8643 31.4438 78.2094 30.8934 78.6823C29.8123 79.611 28.884 80.6906 28.0555 81.9826Z" fill="#FCFDFE"/>
<path d="M12.153 70.6581L12.125 70.576C16.0173 69.2473 20.0112 69.1682 23.3708 70.3532L23.342 70.435C20.0005 69.2565 16.0269 69.3356 12.153 70.6581Z" fill="#FCFDFE"/>
<path d="M16.9795 63.1285C16.8831 62.7214 17.0328 59.2147 17.2049 56.0686C17.3778 52.9098 17.6054 49.5114 17.6871 49.2924L17.7684 49.3227C17.699 49.5089 17.4851 52.5372 17.2916 56.0733C17.1197 59.2133 16.9696 62.7104 17.0639 63.1085L16.9795 63.1285Z" fill="#FCFDFE"/>
</g>
</g>
<path d="M79.828 40.6565L79.8077 40.4035C79.6947 38.9939 78.4697 37.9368 77.0586 38.0314C76.3221 38.0808 75.6329 38.4118 75.1338 38.9557L67.4486 47.3319C66.3925 48.483 65.0591 49.3444 63.5756 49.8338L62.8709 50.0662C61.8741 50.395 60.828 50.5497 59.7787 50.5236L48.4984 50.2424L57.8216 46.4622C58.9774 45.9935 59.5369 44.6787 59.073 43.5209L58.9474 43.2073C58.5577 42.2347 57.5494 41.6575 56.5131 41.8111C52.8277 42.3574 44.3743 43.6351 40.7445 44.3892C37.2535 45.1144 32.3683 51.6718 30.074 55.0165C29.235 56.2397 28.7827 57.6703 28.7716 59.1536C28.7588 60.841 29.6041 62.4193 31.0156 63.3439L31.8155 63.8679C33.3062 64.8443 35.0806 65.2939 36.8564 65.1451L59.3828 63.257C62.2684 63.0151 64.9153 61.5582 66.6634 59.2495L79.2546 42.6206C79.6803 42.0584 79.8844 41.3594 79.828 40.6565Z" fill="url(#paint2_linear_1293_5180)"/>
<path d="M38.9535 66.0581L28.7895 54.1529C28.3608 53.6508 27.6064 53.5913 27.1043 54.02L17.9641 61.8233C17.462 62.252 17.4026 63.0065 17.8312 63.5086L27.9952 75.4138C28.4239 75.9159 29.1784 75.9754 29.6805 75.5467L38.8206 67.7434C39.3226 67.3147 39.3822 66.5602 38.9535 66.0581Z" fill="url(#paint3_linear_1293_5180)"/>
<path d="M80.3748 40.0011L80.3546 39.748C80.2415 38.3384 79.0165 37.2814 77.6055 37.3759C76.869 37.4254 76.1797 37.7563 75.6806 38.3002L67.9955 46.6765C66.9394 47.8276 65.606 48.6889 64.1225 49.1783L63.4178 49.4107C62.421 49.7396 61.3749 49.8943 60.3255 49.8681L49.0452 49.5869L58.3685 45.8067C59.5243 45.3381 60.0838 44.0232 59.6199 42.8655L59.4943 42.5518C59.1046 41.5793 58.0964 41.0021 57.06 41.1557C53.3746 41.7019 44.9211 42.9796 41.2914 43.7337C37.8003 44.459 32.9152 51.0163 30.6209 54.361C29.7818 55.5843 29.3296 57.0148 29.3185 58.4982C29.3057 60.1855 30.151 61.7638 31.5625 62.6885L32.3624 63.2124C33.8531 64.1888 35.6275 64.6384 37.4033 64.4896L59.9296 62.6015C62.8153 62.3596 65.4622 60.9027 67.2103 58.5941L79.8014 41.9651C80.2271 41.403 80.4313 40.704 80.3748 40.0011Z" fill="url(#paint4_linear_1293_5180)"/>
<path d="M39.3657 67.0884L30.225 74.8909C29.7237 75.3202 28.9689 75.2601 28.5396 74.7587L18.3765 62.8534C17.9472 62.3509 18.0072 61.5961 18.5087 61.1679L19.0657 60.6928L27.6493 53.3643C28.1507 52.9361 28.9055 52.9951 29.3348 53.4975L30.3845 54.7275L38.6306 64.3733L39.156 64.9756H39.1571L39.4979 65.3892C39.9272 65.8906 39.8671 66.6591 39.3657 67.0884Z" fill="url(#paint5_linear_1293_5180)"/>
<path opacity="0.4" d="M39.3657 67.0884L30.225 74.891C29.7237 75.3203 28.9689 75.2602 28.5396 74.7588L18.3765 62.8534C17.9472 62.3509 18.0072 61.5962 18.5087 61.168L19.0657 60.6928C19.4513 61.9086 20.3951 63.0293 22.7786 62.6273C27.6395 61.808 27.9093 64.6803 30.0426 65.836C32.6282 67.2374 36.4044 65.281 39.156 64.9757H39.1571L39.4979 65.3892C39.9272 65.8906 39.8671 66.6592 39.3657 67.0884Z" fill="url(#paint6_linear_1293_5180)"/>
<path d="M35.4846 66.8758C36.1967 66.8758 36.7739 66.2985 36.7739 65.5864C36.7739 64.8744 36.1967 64.2971 35.4846 64.2971C34.7726 64.2971 34.1953 64.8744 34.1953 65.5864C34.1953 66.2985 34.7726 66.8758 35.4846 66.8758Z" fill="url(#paint7_linear_1293_5180)"/>
<path d="M30.5999 70.3366C31.3119 70.3366 31.8892 69.7593 31.8892 69.0473C31.8892 68.3352 31.3119 67.7579 30.5999 67.7579C29.8878 67.7579 29.3105 68.3352 29.3105 69.0473C29.3105 69.7593 29.8878 70.3366 30.5999 70.3366Z" fill="url(#paint8_linear_1293_5180)"/>
<path d="M57.3009 32.4232C61.5268 28.1973 61.5268 21.3457 57.3009 17.1198C53.0749 12.8938 46.2234 12.8938 41.9974 17.1198C37.7715 21.3457 37.7715 28.1973 41.9974 32.4232C46.2234 36.6491 53.0749 36.6491 57.3009 32.4232Z" fill="white"/>
<path d="M49.6477 34.3839C54.9565 34.3839 59.2602 30.0802 59.2602 24.7714C59.2602 19.4625 54.9565 15.1588 49.6477 15.1588C44.3388 15.1588 40.0352 19.4625 40.0352 24.7714C40.0352 30.0802 44.3388 34.3839 49.6477 34.3839Z" fill="url(#paint9_linear_1293_5180)"/>
<path d="M35.3434 40.8325C38.226 37.95 38.226 33.2765 35.3434 30.3939C32.4609 27.5114 27.7874 27.5114 24.9048 30.3939C22.0223 33.2765 22.0223 37.95 24.9048 40.8325C27.7874 43.7151 32.4609 43.7151 35.3434 40.8325Z" fill="white"/>
<path d="M30.1232 42.17C33.7444 42.17 36.6799 39.2345 36.6799 35.6133C36.6799 31.9921 33.7444 29.0565 30.1232 29.0565C26.502 29.0565 23.5664 31.9921 23.5664 35.6133C23.5664 39.2345 26.502 42.17 30.1232 42.17Z" fill="url(#paint10_linear_1293_5180)"/>
<path d="M74.8337 36.4499C77.7162 33.5673 77.7162 28.8938 74.8337 26.0113C71.9511 23.1287 67.2776 23.1287 64.3951 26.0113C61.5125 28.8938 61.5125 33.5673 64.3951 36.4499C67.2776 39.3324 71.9511 39.3324 74.8337 36.4499Z" fill="white"/>
<path d="M69.6134 37.787C73.2346 37.787 76.1701 34.8514 76.1701 31.2302C76.1701 27.6091 73.2346 24.6735 69.6134 24.6735C65.9922 24.6735 63.0566 27.6091 63.0566 31.2302C63.0566 34.8514 65.9922 37.787 69.6134 37.787Z" fill="url(#paint11_linear_1293_5180)"/>
<path d="M21.0934 85.7754C20.1744 83.3823 21.4714 79.4607 22.2885 77.6831C24.6698 72.5024 29.045 72.3272 32.6321 72.1836C36.1557 72.0426 39.5571 71.9064 42.0465 75.8803C43.6727 78.4762 45.1681 83.2388 44.1708 85.7754C43.1219 88.4431 40.2095 86.3757 33.283 86.3392C25.6646 86.299 22.2408 88.7634 21.0934 85.7754Z" fill="#7AC1EC"/>
<path d="M35.9563 72.7288C35.9563 73.3811 34.3637 74.164 32.399 74.164C30.4344 74.164 28.8418 73.3811 28.8418 72.7288C28.8418 72.0765 30.4344 72.3681 32.399 72.3681C34.3637 72.3681 35.9563 72.0765 35.9563 72.7288Z" fill="url(#paint12_linear_1293_5180)"/>
<path d="M31.0926 68.1785C30.5517 68.1785 31.8003 71.9791 29.8339 72.5009C29.6437 72.5514 29.6125 72.8069 29.7855 72.9007C30.3133 73.1867 31.302 73.5491 32.9236 73.5491C33.9769 73.5491 34.7474 73.1513 35.1476 72.8827C35.2845 72.7909 35.2708 72.5863 35.1243 72.5108C34.5181 72.1984 33.6766 71.2047 33.9277 68.2757L31.0926 68.1785Z" fill="url(#paint13_linear_1293_5180)"/>
<path d="M29.4492 63.6221C29.4573 63.6697 29.6209 67.1387 30.4137 68.8712C30.6413 69.3685 31.7702 69.3089 32.5008 69.249C33.1353 69.197 34.1301 69.4286 34.4102 68.9905C35.5365 67.2291 35.3456 62.8665 35.3456 62.8665C35.3456 62.8665 34.7685 61.415 32.4022 61.4548C30.0359 61.4946 29.4492 63.6221 29.4492 63.6221Z" fill="url(#paint14_linear_1293_5180)"/>
<path d="M30.0025 65.485C30.0025 65.485 29.5074 64.9098 29.041 64.8331C28.5746 64.7564 28.2708 65.9645 28.9071 66.7507C29.5433 67.5369 30.2789 66.8849 30.2789 66.8849L30.0025 65.485Z" fill="url(#paint15_linear_1293_5180)"/>
<path d="M34.8252 65.485C34.8252 65.485 35.3202 64.9098 35.7867 64.8331C36.2531 64.7564 36.557 65.9645 35.9206 66.7507C35.2844 67.5369 34.5488 66.8849 34.5488 66.8849L34.8252 65.485Z" fill="url(#paint16_linear_1293_5180)"/>
<path d="M29.613 65.4419C29.6754 65.5562 29.7467 65.6627 29.795 65.6501C29.995 65.598 29.2234 63.6485 29.9341 62.9659C30.3016 62.613 30.7154 62.9346 32.2207 62.8665C33.7365 62.7979 34.1243 62.4352 34.5825 62.713C34.9999 62.9661 35.3735 63.6887 35.064 65.8291C35.1502 65.8092 35.2363 65.7893 35.3225 65.7694C35.2064 65.0684 35.3331 64.626 35.4779 64.3473C35.5836 64.1439 35.7748 63.8816 35.7599 63.5028C35.7507 63.2679 35.6729 63.2574 35.6601 63.0651C35.6226 62.5014 36.2658 62.3497 36.2968 61.7928C36.3206 61.3641 35.9508 61.2667 36.0184 60.8185C36.0758 60.4374 36.3647 60.3662 36.319 60.0909C36.2697 59.7938 35.8828 59.5727 35.6112 59.4956C35.3343 59.4169 35.2341 59.5042 35.0718 59.3922C34.8094 59.2112 34.9355 58.8898 34.7458 58.7706C34.4081 58.5582 33.7367 59.4065 33.3028 59.1953C33.0401 59.0674 33.1412 58.6858 32.9087 58.5933C32.4593 58.4144 31.6652 59.6734 31.3458 59.5062C31.1928 59.4262 31.3403 59.1195 31.1259 58.8938C30.874 58.6287 30.2694 58.6291 29.9937 58.9097C29.7368 59.1713 29.955 59.4837 29.6829 59.8151C29.4387 60.1127 29.1566 59.9903 28.8809 60.2288C28.4126 60.6339 28.5756 61.5507 28.6338 61.8778C28.834 63.0041 29.4576 63.2319 29.3177 63.9998C29.2819 64.1963 29.1985 64.4148 29.258 64.7355C29.3165 65.0502 29.4797 65.2874 29.613 65.4419Z" fill="url(#paint17_linear_1293_5180)"/>
<g opacity="0.3">
<path d="M35.3726 63.0093C35.3172 62.4556 35.7462 62.1979 35.6742 61.8029C35.6163 61.4856 35.2574 61.2003 34.9202 61.1394C34.2009 61.0094 33.7353 62.0685 33.0201 61.9537C32.4671 61.865 32.5283 61.1969 31.9041 60.9283C30.9148 60.5024 29.8778 61.8006 29.2199 61.441C29.0221 61.3329 28.8222 61.0552 28.808 60.3018C28.4307 60.7351 28.5787 61.569 28.6336 61.8777C28.8339 63.004 29.4575 63.2318 29.3175 63.9997C29.2817 64.1962 29.1984 64.4147 29.2579 64.7354C29.3162 65.0501 29.4795 65.2873 29.6128 65.4418C29.6751 65.5562 29.7465 65.6626 29.7947 65.6501C29.9948 65.5979 29.2231 63.6484 29.9339 62.9658C30.3013 62.6129 30.7152 62.9345 32.2204 62.8664C33.7362 62.7978 34.124 62.4351 34.5822 62.713C34.9997 62.9661 35.3732 63.6887 35.0638 65.829C35.1499 65.8091 35.2361 65.7893 35.3222 65.7694C35.2062 65.0683 35.3328 64.626 35.4777 64.3472C35.5212 64.2634 35.5792 64.1694 35.6314 64.0615C35.6203 63.8771 35.589 63.6746 35.5233 63.4617C35.4464 63.2122 35.3904 63.1875 35.3726 63.0093Z" fill="url(#paint18_linear_1293_5180)"/>
</g>
<path d="M66.6127 77.9944C61.7811 77.2139 60.716 76.6731 60.2233 75.6827C59.508 74.2448 60.0281 71.917 61.2531 70.483C62.3279 69.2248 63.6699 68.9772 63.6307 68.1046C63.5984 67.3868 62.6786 67.2951 62.0034 65.9462C61.8065 65.5528 61.4243 64.7892 61.5907 63.869C61.8343 62.5219 63.0777 61.8139 63.1786 61.7584C64.4801 61.0432 65.2229 61.8652 66.2047 61.2238C67.4343 60.4205 66.8768 58.7346 68.0299 58.245C68.8696 57.8885 69.9438 58.4522 70.2242 58.5993C71.1599 59.0903 71.0616 59.5888 71.8522 59.8935C72.7804 60.2512 73.2238 59.6826 74.3034 59.9093C75.1957 60.0966 75.8421 60.7124 76.3697 61.3325C77.5562 62.7271 76.9663 63.5565 77.8429 65.2782C79.0777 67.7032 80.9441 67.4241 81.2755 69.3707C81.4488 70.3887 81.0039 70.8504 81.3455 72.41C81.5763 73.4635 81.8668 73.6525 81.9183 74.2723C82.0665 76.0546 79.9297 77.6141 79.5312 77.8879C76.9989 79.6284 73.5024 79.1074 66.6127 77.9944Z" fill="url(#paint19_linear_1293_5180)"/>
<path opacity="0.7" d="M74.462 73.3365C71.2061 73.1029 69.009 76.0354 68.1389 75.3061C67.3149 74.6154 69.6435 72.284 68.8476 69.557C68.0667 66.8818 65.0086 66.3259 65.25 64.8192C65.5232 63.114 69.6255 62.6702 69.5289 61.4123C69.4719 60.6703 68.0202 60.514 67.7301 59.3363C67.6514 59.0166 67.6776 58.6997 67.7599 58.4033C66.9623 59.0285 67.3247 60.4921 66.2048 61.2237C65.2229 61.8651 64.4802 61.0431 63.1786 61.7584C63.0777 61.8138 61.8343 62.5219 61.5907 63.869C61.4243 64.7891 61.8065 65.5528 62.0034 65.9462C62.6786 67.2951 63.5984 67.3867 63.6307 68.1046C63.6699 68.9771 62.3279 69.2248 61.2531 70.483C60.0282 71.917 59.508 74.2448 60.2233 75.6827C60.716 76.6731 61.7812 77.2139 66.6127 77.9944C73.5024 79.1074 76.9989 79.6283 79.5312 77.8879C80.5143 77.2122 81.6744 76.0569 81.9235 75.0262C81.4264 75.4656 80.9393 75.6787 80.4851 75.7586C78.3727 76.1302 77.398 73.5472 74.462 73.3365Z" fill="url(#paint20_linear_1293_5180)"/>
<path d="M61.2303 84.1957C60.5061 82.4134 60.9475 79.633 61.0406 79.0468C61.4038 76.7591 62.2606 75.3438 62.573 74.8403C64.7185 71.3833 67.994 71.4157 70.475 71.4403C71.7055 71.4524 72.9828 71.4286 74.5478 71.9828C74.5478 71.9828 75.7887 72.4223 76.84 73.1538C79.9927 75.3478 82.4962 82.5312 79.9387 85.2167C78.3151 86.9214 76.6552 84.7102 69.5099 85.6838C66.6668 86.0713 63.6877 86.7414 61.9261 85.2147C61.6353 84.9627 61.4068 84.63 61.2303 84.1957Z" fill="url(#paint21_linear_1293_5180)"/>
<path d="M69.1714 67.2417C69.1714 67.2417 69.6948 70.9939 67.045 71.7374C66.7396 71.8231 66.6459 72.2105 66.877 72.4277L70.1442 75.4986C70.3422 75.6847 70.6544 75.6721 70.8367 75.4706L73.8018 72.1946C73.9964 71.9797 73.9112 71.637 73.6392 71.5369C72.6874 71.1865 70.9841 70.1686 71.3413 67.4226L69.1714 67.2417Z" fill="url(#paint22_linear_1293_5180)"/>
<path d="M67.5452 65.1592C67.5461 65.2003 68.2598 68.8611 70.093 68.8611C71.8296 68.8611 72.4894 66.1652 72.7042 64.9063C72.7271 64.6922 72.7499 64.478 72.7727 64.2639C72.6544 64.3027 72.3612 64.3811 72.0105 64.286C71.931 64.2644 71.4269 64.1277 71.2398 63.7122C71.0313 63.2493 71.4146 62.881 71.1962 62.4764C71.0695 62.2417 70.8145 62.1319 70.6199 62.0757C70.7495 62.2657 71.0011 62.69 70.8588 63.0754C70.7633 63.3343 70.4959 63.5825 69.8994 63.7336C68.1938 64.1657 67.5285 64.3299 67.5452 65.1592Z" fill="url(#paint23_linear_1293_5180)"/>
<path d="M67.994 65.597C67.994 65.597 67.0493 64.7981 66.9669 65.287C66.7952 66.3065 67.6032 66.8692 68.0417 66.5644C68.4803 66.2596 67.994 65.597 67.994 65.597Z" fill="url(#paint24_linear_1293_5180)"/>
<path d="M72.1587 65.597C72.1587 65.597 73.1034 64.7981 73.1858 65.287C73.3575 66.3065 72.5495 66.8692 72.111 66.5644C71.6724 66.2596 72.1587 65.597 72.1587 65.597Z" fill="url(#paint25_linear_1293_5180)"/>
<path d="M52.0757 90.1926C40.7575 90.2798 36.7901 91.771 34.9925 89.3177C33.3382 87.0599 34.7087 78.9547 36.6828 76.6789C39.8035 73.0812 44.8132 72.9046 51.6669 72.7136C58.112 72.534 62.0838 72.4233 65.2199 75.201C68.1517 77.7978 70.0242 86.7578 68.1984 89.2527C66.5041 91.5678 62.8818 90.1093 52.0757 90.1926Z" fill="#21A8FB"/>
<path d="M48.8666 67.5569C48.8666 67.5569 49.5949 72.796 48.5879 73.2965L51.4546 76.4201L54.3584 72.7198C54.3584 72.7198 53.2607 71.8931 53.5498 67.5569H48.8666Z" fill="url(#paint26_linear_1293_5180)"/>
<path d="M47.1765 60.058C47.073 60.1981 45.7276 66.7997 50.3836 67.4905C55.0396 68.1812 55.2448 63.3019 55.1856 61.2318C55.1263 59.1618 52.9963 58.4102 51.7776 58.2656C50.5588 58.1211 47.544 59.5607 47.1765 60.058Z" fill="url(#paint27_linear_1293_5180)"/>
<path d="M46.9064 63.9124C46.9064 63.9124 46.6734 62.8334 45.8758 63.5062C45.0782 64.179 46.3466 65.9648 47.3928 65.891L46.9064 63.9124Z" fill="url(#paint28_linear_1293_5180)"/>
<path d="M55.0415 63.1607C54.9076 63.2513 54.5234 65.7842 54.5234 65.7842C54.5234 65.7842 55.1956 65.8633 55.6821 64.9539C56.1687 64.0446 56.4026 62.2401 55.0415 63.1607Z" fill="url(#paint29_linear_1293_5180)"/>
<path d="M56.8727 58.3214C56.3822 57.5076 55.1432 57.8931 54.7816 57.1084C54.4777 56.4491 55.1919 55.8289 54.8087 55.2592C54.4883 54.7826 53.705 54.7945 53.5657 54.7966C52.5071 54.8127 52.2649 55.6508 51.5102 55.6318C50.5885 55.6087 50.5526 54.3488 49.334 53.8183C48.1515 53.3036 46.4232 53.7229 45.7247 54.6881C45.1817 55.4384 45.6437 55.9898 44.9317 56.9536C44.4419 57.6166 44.009 57.6459 43.7658 58.2946C43.5374 58.9038 43.692 59.4842 43.8128 59.9153C44.1026 60.9487 44.6427 61.4047 45.4588 62.5043C45.8244 62.9969 46.3256 63.7268 46.843 64.6882C47.0598 65.267 47.37 66.1627 47.6571 67.2946C47.9183 68.3243 47.9025 68.5328 48.1465 68.8663C48.9877 70.0159 50.9077 69.9047 51.7156 69.8579C52.6419 69.8043 53.795 69.7374 54.3751 68.9328C54.6887 68.4979 54.6493 68.1048 54.722 67.0538C54.774 66.3036 54.8812 65.251 55.1247 63.9743C55.1294 63.9744 55.2331 63.3888 55.5033 62.6681C55.8409 61.7678 56.1914 61.6243 56.5722 60.694C56.8776 59.9478 57.272 58.984 56.8727 58.3214ZM53.0164 65.3482C52.444 65.5027 52.0578 65.364 51.2819 65.3193C49.7301 65.23 49.2394 65.9566 48.5067 65.6373C48.2012 65.5041 47.4949 65.1314 47.3453 64.4171C47.2589 63.9537 47.198 63.3207 47.2974 62.5881C47.4187 61.693 47.5588 60.6603 48.2759 60.2036C49.3165 59.5409 50.6455 60.6814 51.5999 59.9424C51.9648 59.6598 52.1115 59.2292 52.1781 58.9017C52.3901 58.9747 54.0756 59.5875 54.6961 61.3872C55.0786 62.4967 54.8594 63.486 54.6732 64.0238C54.3238 64.551 53.7905 65.1393 53.0164 65.3482Z" fill="url(#paint30_linear_1293_5180)"/>
<path d="M49.7967 66.4391C50.3954 66.6247 51.2964 66.7505 52.3056 66.3681C52.4104 66.3284 52.4999 66.4429 52.4124 66.5051C52.0517 66.7618 51.5248 67.0342 50.9517 66.9917C50.4781 66.9565 50.0431 66.7738 49.708 66.5837C49.612 66.5292 49.6879 66.4054 49.7967 66.4391Z" fill="url(#paint31_linear_1293_5180)"/>
<path d="M50.1719 75.022C50.1719 75.022 50.6933 76.8637 51.217 76.8986C51.7408 76.9335 52.1249 77.0033 52.1249 77.0033L52.7107 74.8157C52.7107 74.8157 51.7607 75.3849 50.1719 75.022Z" fill="url(#paint32_linear_1293_5180)"/>
<path d="M51.0547 76.8326L49.4043 87.9244L51.1664 89.4024L53.5796 87.8136L52.1247 77.0032L51.0547 76.8326Z" fill="url(#paint33_linear_1293_5180)"/>
<defs>
<linearGradient id="paint0_linear_1293_5180" x1="91.7693" y1="56.3804" x2="24.012" y2="102.116" gradientUnits="userSpaceOnUse">
<stop stop-color="#FF9085"/>
<stop offset="1" stop-color="#FB6FBB"/>
</linearGradient>
<linearGradient id="paint1_linear_1293_5180" x1="13.35" y1="61.385" x2="48.0311" y2="81.2222" gradientUnits="userSpaceOnUse">
<stop offset="0.0036" stop-color="#E38DDD"/>
<stop offset="1" stop-color="#9571F6"/>
</linearGradient>
<linearGradient id="paint2_linear_1293_5180" x1="29.4091" y1="80.4129" x2="49.2217" y2="55.9028" gradientUnits="userSpaceOnUse">
<stop stop-color="#FFC444"/>
<stop offset="0.129" stop-color="#FDB946"/>
<stop offset="0.1674" stop-color="#FDB647"/>
<stop offset="0.9964" stop-color="#F36F56"/>
</linearGradient>
<linearGradient id="paint3_linear_1293_5180" x1="25.9095" y1="76.2613" x2="32.5728" y2="45.4574" gradientUnits="userSpaceOnUse">
<stop offset="0.0036" stop-color="#6165D7"/>
<stop offset="1" stop-color="#AA80F9"/>
</linearGradient>
<linearGradient id="paint4_linear_1293_5180" x1="61.6728" y1="34.3912" x2="0.944587" y2="163.432" gradientUnits="userSpaceOnUse">
<stop stop-color="#FFC444"/>
<stop offset="0.9964" stop-color="#F36F56"/>
</linearGradient>
<linearGradient id="paint5_linear_1293_5180" x1="29.1326" y1="71.3826" x2="31.105" y2="144.642" gradientUnits="userSpaceOnUse">
<stop offset="0.0036" stop-color="#6165D7"/>
<stop offset="1" stop-color="#AA80F9"/>
</linearGradient>
<linearGradient id="paint6_linear_1293_5180" x1="28.8784" y1="61.941" x2="30.1945" y2="110.823" gradientUnits="userSpaceOnUse">
<stop offset="0.0036" stop-color="#6165D7"/>
<stop offset="1" stop-color="#AA80F9"/>
</linearGradient>
<linearGradient id="paint7_linear_1293_5180" x1="22.1436" y1="75.2102" x2="38.2867" y2="63.5652" gradientUnits="userSpaceOnUse">
<stop offset="0.0036" stop-color="#6165D7"/>
<stop offset="1" stop-color="#AA80F9"/>
</linearGradient>
<linearGradient id="paint8_linear_1293_5180" x1="22.1145" y1="75.1683" x2="38.2576" y2="63.5233" gradientUnits="userSpaceOnUse">
<stop offset="0.0036" stop-color="#6165D7"/>
<stop offset="1" stop-color="#AA80F9"/>
</linearGradient>
<linearGradient id="paint9_linear_1293_5180" x1="42.7192" y1="12.2107" x2="66.9522" y2="56.1428" gradientUnits="userSpaceOnUse">
<stop stop-color="#FFC444"/>
<stop offset="0.9964" stop-color="#F36F56"/>
</linearGradient>
<linearGradient id="paint10_linear_1293_5180" x1="25.3972" y1="27.0455" x2="41.9267" y2="57.0119" gradientUnits="userSpaceOnUse">
<stop stop-color="#FFC444"/>
<stop offset="0.9964" stop-color="#F36F56"/>
</linearGradient>
<linearGradient id="paint11_linear_1293_5180" x1="64.8874" y1="22.6625" x2="81.4169" y2="52.6289" gradientUnits="userSpaceOnUse">
<stop stop-color="#FFC444"/>
<stop offset="0.9964" stop-color="#F36F56"/>
</linearGradient>
<linearGradient id="paint12_linear_1293_5180" x1="32.4272" y1="74.4449" x2="32.3367" y2="68.9256" gradientUnits="userSpaceOnUse">
<stop stop-color="#AA80F9"/>
<stop offset="0.9964" stop-color="#6165D7"/>
</linearGradient>
<linearGradient id="paint13_linear_1293_5180" x1="32.4717" y1="75.0162" x2="32.4415" y2="70.1883" gradientUnits="userSpaceOnUse">
<stop stop-color="#AB316D"/>
<stop offset="1" stop-color="#792D3D"/>
</linearGradient>
<linearGradient id="paint14_linear_1293_5180" x1="32.0712" y1="68.1078" x2="32.8554" y2="58.6676" gradientUnits="userSpaceOnUse">
<stop stop-color="#AB316D"/>
<stop offset="1" stop-color="#792D3D"/>
</linearGradient>
<linearGradient id="paint15_linear_1293_5180" x1="29.2773" y1="67.8757" x2="30.0615" y2="58.4355" gradientUnits="userSpaceOnUse">
<stop stop-color="#AB316D"/>
<stop offset="1" stop-color="#792D3D"/>
</linearGradient>
<linearGradient id="paint16_linear_1293_5180" x1="35.2459" y1="68.3716" x2="36.0301" y2="58.9314" gradientUnits="userSpaceOnUse">
<stop stop-color="#AB316D"/>
<stop offset="1" stop-color="#792D3D"/>
</linearGradient>
<linearGradient id="paint17_linear_1293_5180" x1="31.8616" y1="63.5562" x2="33.9426" y2="57.1019" gradientUnits="userSpaceOnUse">
<stop stop-color="#311944"/>
<stop offset="1" stop-color="#6B3976"/>
</linearGradient>
<linearGradient id="paint18_linear_1293_5180" x1="31.8615" y1="63.5562" x2="33.9425" y2="57.1019" gradientUnits="userSpaceOnUse">
<stop stop-color="#311944"/>
<stop offset="1" stop-color="#6B3976"/>
</linearGradient>
<linearGradient id="paint19_linear_1293_5180" x1="78.1786" y1="56.7612" x2="72.3913" y2="68.0945" gradientUnits="userSpaceOnUse">
<stop stop-color="#AB316D"/>
<stop offset="1" stop-color="#792D3D"/>
</linearGradient>
<linearGradient id="paint20_linear_1293_5180" x1="78.169" y1="56.8395" x2="72.3986" y2="68.1398" gradientUnits="userSpaceOnUse">
<stop stop-color="#AB316D"/>
<stop offset="1" stop-color="#792D3D"/>
</linearGradient>
<linearGradient id="paint21_linear_1293_5180" x1="72.4839" y1="93.2671" x2="69.6825" y2="72.957" gradientUnits="userSpaceOnUse">
<stop offset="0.0036" stop-color="#AD8DE3"/>
<stop offset="1" stop-color="#71B6F6"/>
</linearGradient>
<linearGradient id="paint22_linear_1293_5180" x1="70.5118" y1="76.0184" x2="70.1096" y2="67.292" gradientUnits="userSpaceOnUse">
<stop stop-color="#FFC444"/>
<stop offset="0.9964" stop-color="#F36F56"/>
</linearGradient>
<linearGradient id="paint23_linear_1293_5180" x1="70.0633" y1="68.3437" x2="70.2175" y2="62.44" gradientUnits="userSpaceOnUse">
<stop stop-color="#FFC444"/>
<stop offset="0.9964" stop-color="#F36F56"/>
</linearGradient>
<linearGradient id="paint24_linear_1293_5180" x1="67.5358" y1="67.7296" x2="67.6766" y2="62.341" gradientUnits="userSpaceOnUse">
<stop stop-color="#FFC444"/>
<stop offset="0.9964" stop-color="#F36F56"/>
</linearGradient>
<linearGradient id="paint25_linear_1293_5180" x1="72.5171" y1="67.8597" x2="72.6578" y2="62.4711" gradientUnits="userSpaceOnUse">
<stop stop-color="#FFC444"/>
<stop offset="0.9964" stop-color="#F36F56"/>
</linearGradient>
<linearGradient id="paint26_linear_1293_5180" x1="51.6324" y1="74.043" x2="52.8748" y2="82.1186" gradientUnits="userSpaceOnUse">
<stop stop-color="#FFC444"/>
<stop offset="0.9964" stop-color="#F36F56"/>
</linearGradient>
<linearGradient id="paint27_linear_1293_5180" x1="51.0606" y1="61.7001" x2="50.75" y2="82.1999" gradientUnits="userSpaceOnUse">
<stop stop-color="#FFC444"/>
<stop offset="0.9964" stop-color="#F36F56"/>
</linearGradient>
<linearGradient id="paint28_linear_1293_5180" x1="46.0699" y1="60.5632" x2="48.0838" y2="80.9663" gradientUnits="userSpaceOnUse">
<stop stop-color="#FFC444"/>
<stop offset="0.9964" stop-color="#F36F56"/>
</linearGradient>
<linearGradient id="paint29_linear_1293_5180" x1="55.3374" y1="61.7649" x2="55.0267" y2="82.2646" gradientUnits="userSpaceOnUse">
<stop stop-color="#FFC444"/>
<stop offset="0.9964" stop-color="#F36F56"/>
</linearGradient>
<linearGradient id="paint30_linear_1293_5180" x1="43.6484" y1="61.7406" x2="57.0416" y2="61.7406" gradientUnits="userSpaceOnUse">
<stop stop-color="#444B8C"/>
<stop offset="0.9964" stop-color="#3E4177"/>
</linearGradient>
<linearGradient id="paint31_linear_1293_5180" x1="52.0428" y1="57.9607" x2="51.1756" y2="65.4479" gradientUnits="userSpaceOnUse">
<stop stop-color="#FFC444"/>
<stop offset="0.9964" stop-color="#F36F56"/>
</linearGradient>
<linearGradient id="paint32_linear_1293_5180" x1="51.0351" y1="68.9684" x2="51.7335" y2="79.1991" gradientUnits="userSpaceOnUse">
<stop stop-color="#444B8C"/>
<stop offset="0.9964" stop-color="#26264F"/>
</linearGradient>
<linearGradient id="paint33_linear_1293_5180" x1="51.4919" y1="85.1632" x2="51.4919" y2="69.9634" gradientUnits="userSpaceOnUse">
<stop stop-color="#444B8C"/>
<stop offset="0.9964" stop-color="#26264F"/>
</linearGradient>
</defs>
</svg>
