<svg width="103" height="103" viewBox="0 0 103 103" fill="none" xmlns="http://www.w3.org/2000/svg">
<g clip-path="url(#clip0_601_3707)">
<rect width="103" height="103" rx="8" fill="#EBDAFB"/>
<path d="M50.5023 99.4123C81.8889 99.4123 107.333 77.1719 107.333 49.7369C107.333 22.3019 81.8889 0.0614929 50.5023 0.0614929C19.1157 0.0614929 -6.32812 22.3019 -6.32812 49.7369C-6.32812 77.1719 19.1157 99.4123 50.5023 99.4123Z" fill="#EBDAFB"/>
<g style="mix-blend-mode:multiply">
<path d="M51.533 70.9612L51.5217 70.9678L13.0684 90.3724L51.5217 109.777V109.78H51.5255L89.9901 90.3724L51.533 70.9612Z" fill="#EDECEB"/>
</g>
<path d="M58.0846 33.6105L50.5039 45.0922L80.8523 60.4017L88.433 48.92L58.0846 33.6105Z" fill="#DBB685"/>
<path d="M80.8489 60.3934L85.8979 73.1582L80.8489 75.7091L58.0829 87.1951L50.498 75.7091L80.8489 60.3934Z" fill="#C19D78"/>
<path d="M80.8468 75.7091L80.843 91.0216L50.4922 106.337V75.7157L50.4959 75.7091L58.0808 87.1951L80.8468 75.7091Z" fill="#DBB685"/>
<path d="M80.8468 60.3934L50.4959 75.7091H50.4922V75.7059V45.0841L50.5034 45.0809L80.8468 60.3934Z" fill="#A37D5F"/>
<path d="M50.5042 45.0809L50.493 45.0842L20.1534 60.3934L12.5723 48.9106L42.9231 33.5981L50.5042 45.0809Z" fill="#C19D78"/>
<path d="M50.4922 75.7091H50.4953L50.4922 75.7153V75.7091Z" fill="black"/>
<path d="M50.4956 75.7059V75.7091V75.7157L42.9107 87.1951L20.1561 75.7124V75.7091L15.0957 73.1582L20.1485 60.3934H20.1561L50.4956 75.7059Z" fill="#DBB685"/>
<path d="M50.4937 75.7157V106.337L20.1504 91.0216L20.1541 75.7124L42.9088 87.1951L50.4937 75.7157Z" fill="#C19D78"/>
<path d="M50.4958 45.0842V75.7059L20.1562 60.3934L50.4958 45.0842Z" fill="#B5906F"/>
<g style="mix-blend-mode:multiply">
<path d="M50.5034 77.0601L57.5894 89.2018L80.8468 77.5519V75.7091L58.0808 87.1952L50.4922 75.7059L50.5034 77.0601Z" fill="#E9E5D9"/>
</g>
<g style="mix-blend-mode:multiply">
<path d="M50.5072 77.0601L43.4212 89.2018L20.1602 77.5519V75.7091L42.9261 87.1952L50.5147 75.7059L50.5072 77.0601Z" fill="#E9E5D9"/>
</g>
<mask id="mask0_601_3707" style="mask-type:luminance" maskUnits="userSpaceOnUse" x="20" y="45" width="61" height="31">
<path d="M50.5051 45.0809L50.4939 45.0841L20.1543 60.3934L50.4939 75.7059V75.7091H50.4976L80.8484 60.3934L50.5051 45.0809Z" fill="white"/>
</mask>
<g mask="url(#mask0_601_3707)">
<path d="M62.6195 65.8449L48.5645 73.4149L52.5866 79.1207L66.6417 71.5508L62.6195 65.8449Z" fill="#BFBB68"/>
<path d="M52.3191 77.5388L50.0684 74.3287C50.2867 74.2109 50.4425 74.022 50.5016 73.8038C50.5607 73.5855 50.5182 73.3556 50.3835 73.1647L61.5845 67.1315C61.7193 67.3224 61.9354 67.4586 62.1851 67.5103C62.4348 67.5619 62.6978 67.5248 62.9162 67.407L65.1669 70.6203C64.9485 70.7382 64.7927 70.927 64.7336 71.1453C64.6745 71.3636 64.717 71.5934 64.8518 71.7843L53.6507 77.8175C53.5843 77.7227 53.4971 77.6403 53.3942 77.575C53.2913 77.5097 53.1747 77.4628 53.051 77.4369C52.9273 77.411 52.799 77.4067 52.6734 77.4242C52.5478 77.4417 52.4274 77.4806 52.3191 77.5388Z" fill="#D8D17D"/>
<path d="M59.5851 71.4105C59.8269 71.7512 59.9476 72.147 59.932 72.5477C59.9164 72.9484 59.7651 73.336 59.4973 73.6615C59.2296 73.9871 58.8574 74.2358 58.4278 74.3764C57.9982 74.517 57.5306 74.543 57.0841 74.4511C56.6377 74.3593 56.2324 74.1538 55.9196 73.8605C55.6068 73.5673 55.4005 73.1995 55.3269 72.8038C55.2533 72.4081 55.3157 72.0021 55.5061 71.6374C55.6965 71.2727 56.0064 70.9655 56.3966 70.7548C56.9191 70.4726 57.5483 70.3832 58.1461 70.5061C58.7439 70.6291 59.2614 70.9544 59.5851 71.4105Z" fill="#BFBB68"/>
<path d="M58.6398 72.4598C58.685 72.5207 58.714 72.5898 58.7244 72.662C58.7347 72.7341 58.7263 72.8073 58.6998 72.8762C58.6264 73.0461 58.4955 73.1925 58.3247 73.2959L58.5647 73.6238L58.3509 73.7385L58.1221 73.4106C58.0026 73.4763 57.8771 73.5333 57.747 73.5811C57.6389 73.621 57.5255 73.6485 57.4094 73.6631L57.2481 73.4369C57.3762 73.42 57.5019 73.3914 57.6232 73.3516C57.7465 73.3164 57.8647 73.2691 57.9758 73.2106L57.5257 72.5712C57.3208 72.6279 57.1033 72.6403 56.8917 72.6073C56.8131 72.5902 56.7393 72.5593 56.6748 72.5165C56.6103 72.4736 56.5565 72.4197 56.5166 72.3581C56.4733 72.2988 56.4461 72.2317 56.437 72.1618C56.4279 72.0919 56.4372 72.0211 56.4641 71.9548C56.5338 71.7984 56.6536 71.663 56.8092 71.5646L56.6216 71.299L56.8354 71.1843L57.0192 71.4466C57.2261 71.343 57.4521 71.272 57.687 71.2367L57.7357 71.4728C57.5344 71.5037 57.3396 71.5612 57.158 71.6433L57.6044 72.2761C57.7646 72.2367 57.9295 72.2136 58.0958 72.2073C58.201 72.2018 58.3059 72.221 58.3997 72.263C58.501 72.3054 58.5849 72.3741 58.6398 72.4598ZM56.8242 72.2171C56.8451 72.2505 56.8735 72.2799 56.9077 72.3036C56.9418 72.3272 56.981 72.3446 57.023 72.3548C57.1381 72.3752 57.2567 72.3752 57.3719 72.3548L56.9742 71.7909C56.8891 71.849 56.8252 71.9277 56.7904 72.0171C56.7795 72.0506 56.7769 72.0858 56.7827 72.1203C56.7885 72.1548 56.8027 72.1878 56.8242 72.2171ZM58.3697 72.6303C58.3494 72.5987 58.322 72.571 58.2891 72.5491C58.2562 72.5271 58.2185 72.5112 58.1784 72.5024C58.0529 72.4863 57.9249 72.4941 57.8032 72.5253L58.2009 73.0926C58.4184 72.9352 58.4747 72.7811 58.3809 72.6303H58.3697Z" fill="#D8D17D"/>
<path d="M41.893 64.7196L27.8379 72.2896L31.8601 77.9955L45.9151 70.4255L41.893 64.7196Z" fill="#BFBB68"/>
<path d="M31.5886 76.4141L29.3379 73.2041C29.5562 73.0862 29.7121 72.8974 29.7712 72.6791C29.8303 72.4608 29.7877 72.2309 29.653 72.0401L40.854 66.0069C40.9889 66.1977 41.2049 66.3339 41.4546 66.3856C41.7043 66.4372 41.9673 66.4001 42.1857 66.2823L44.4364 69.4923C44.2181 69.6102 44.0622 69.799 44.0031 70.0173C43.944 70.2356 43.9865 70.4655 44.1213 70.6564L32.9203 76.6895C32.7854 76.4987 32.5694 76.3625 32.3197 76.3108C32.07 76.2592 31.807 76.2963 31.5886 76.4141Z" fill="#D8D17D"/>
<path d="M38.8742 70.2859C39.116 70.6266 39.2367 71.0223 39.2211 71.423C39.2054 71.8237 39.0542 72.2113 38.7864 72.5369C38.5187 72.8624 38.1464 73.1112 37.7169 73.2517C37.2873 73.3923 36.8197 73.4183 36.3732 73.3265C35.9267 73.2346 35.5214 73.0291 35.2086 72.7358C34.8958 72.4426 34.6896 72.0749 34.616 71.6791C34.5424 71.2834 34.6047 70.8775 34.7951 70.5127C34.9856 70.148 35.2955 69.8408 35.6857 69.6301C35.9443 69.4899 36.2319 69.3957 36.5321 69.3528C36.8324 69.31 37.1394 69.3192 37.4355 69.3801C37.7316 69.441 38.0111 69.5524 38.258 69.7078C38.5049 69.8632 38.7143 70.0596 38.8742 70.2859Z" fill="#BFBB68"/>
<path d="M37.9093 71.3318C37.9546 71.3934 37.9836 71.463 37.994 71.5357C38.0043 71.6083 37.9959 71.6821 37.9693 71.7515C37.8959 71.9206 37.7649 72.0659 37.5942 72.1679L37.8343 72.4958L37.6204 72.6139L37.3916 72.286C37.2712 72.3493 37.1459 72.4052 37.0165 72.4532C36.9085 72.4939 36.7951 72.5226 36.6789 72.5385L36.5176 72.3122C36.6453 72.2938 36.7709 72.2653 36.8927 72.227C37.0161 72.1907 37.1344 72.1423 37.2453 72.0827L36.7952 71.4433C36.5902 71.4991 36.3732 71.5126 36.1612 71.4826C36.083 71.4649 36.0095 71.4337 35.9451 71.3909C35.8807 71.3481 35.8267 71.2946 35.7861 71.2334C35.7428 71.1741 35.7156 71.107 35.7065 71.0371C35.6974 70.9672 35.7067 70.8964 35.7336 70.8301C35.8023 70.6733 35.9224 70.5376 36.0787 70.44L35.8912 70.1744L36.105 70.0596L36.2888 70.3219C36.4954 70.2173 36.7214 70.1452 36.9565 70.1088L37.0053 70.3481C36.8035 70.3776 36.6084 70.4351 36.4276 70.5186L36.874 71.1482C37.0342 71.1087 37.1991 71.0856 37.3654 71.0793C37.4702 71.077 37.5743 71.0961 37.6692 71.1351C37.7696 71.1786 37.8531 71.247 37.9093 71.3318ZM36.0937 71.0925C36.1147 71.1255 36.1432 71.1544 36.1773 71.1775C36.2115 71.2006 36.2507 71.2174 36.2925 71.2269C36.4074 71.249 36.5265 71.249 36.6414 71.2269L36.2475 70.6531C36.1618 70.7094 36.0977 70.7872 36.0637 70.876C36.0499 70.9118 36.0454 70.9498 36.0506 70.9872C36.0558 71.0247 36.0705 71.0606 36.0937 71.0925ZM37.6392 71.5056C37.6195 71.4733 37.5924 71.4449 37.5594 71.4223C37.5265 71.3997 37.4885 71.3834 37.4479 71.3744C37.3221 71.3615 37.1946 71.3704 37.0728 71.4007L37.4704 71.9679C37.688 71.8073 37.748 71.6532 37.6392 71.5056Z" fill="#D8D17D"/>
<path d="M56.2599 68.0363L40.8965 62.7546L38.0901 68.9916L53.4535 74.2733L56.2599 68.0363Z" fill="#BFBB68"/>
<path d="M39.3574 67.8562L40.9367 64.3445C41.1755 64.4263 41.4417 64.4222 41.6771 64.3331C41.9125 64.2441 42.0981 64.0772 42.1933 63.869L54.4334 68.0791C54.3402 68.2879 54.3455 68.5204 54.4481 68.7257C54.5508 68.931 54.7425 69.0924 54.9811 69.1743L53.4019 72.6893C53.2836 72.6483 53.1573 72.6281 53.0302 72.6299C52.903 72.6316 52.7775 72.6552 52.6608 72.6994C52.5441 72.7435 52.4385 72.8073 52.35 72.8872C52.2616 72.967 52.192 73.0613 52.1452 73.1647L39.9051 68.9513C39.9984 68.7426 39.9931 68.51 39.8904 68.3047C39.7877 68.0994 39.596 67.9381 39.3574 67.8562Z" fill="#D8D17D"/>
<path d="M49.325 69.2563C49.1579 69.6297 48.8678 69.9515 48.4915 70.1808C48.1151 70.4101 47.6694 70.5366 47.2107 70.5444C46.752 70.5521 46.301 70.4408 45.9148 70.2243C45.5286 70.0079 45.2245 69.6962 45.041 69.3287C44.8576 68.9611 44.8031 68.5542 44.8843 68.1596C44.9655 67.7649 45.1789 67.4002 45.4974 67.1115C45.8159 66.8229 46.2252 66.6234 46.6735 66.5383C47.1219 66.4531 47.589 66.4861 48.0158 66.6331C48.5868 66.8298 49.0453 67.2164 49.2907 67.7081C49.5361 68.1999 49.5485 68.7566 49.325 69.2563Z" fill="#BFBB68"/>
<path d="M47.7989 69.2267C47.77 69.2948 47.724 69.3564 47.6643 69.4069C47.6045 69.4574 47.5326 69.4956 47.4537 69.5185C47.2582 69.5713 47.0491 69.5713 46.8536 69.5185L46.6885 69.8858L46.4522 69.8071L46.6135 69.453C46.4836 69.4073 46.3581 69.3524 46.2384 69.289C46.1353 69.2382 46.0407 69.1753 45.957 69.1021L46.0696 68.8562C46.1637 68.9361 46.2667 69.0075 46.3772 69.0693C46.484 69.1344 46.5984 69.1893 46.7185 69.2333L47.0336 68.5316C46.8593 68.422 46.7167 68.2783 46.6172 68.1119C46.5867 68.0474 46.571 67.9784 46.571 67.9086C46.571 67.8388 46.5867 67.7698 46.6172 67.7053C46.6451 67.6392 46.69 67.5797 46.7486 67.5313C46.8072 67.4829 46.8778 67.4471 46.9548 67.4266C47.1385 67.3791 47.3339 67.3791 47.5175 67.4266L47.6451 67.1381L47.8814 67.22L47.7538 67.5053C47.9719 67.5833 48.1725 67.6943 48.3465 67.8332L48.159 68.007C48.0087 67.886 47.8395 67.7844 47.6563 67.7053L47.345 68.3972C47.4761 68.4859 47.5956 68.5871 47.7013 68.6988C47.769 68.7693 47.8143 68.8541 47.8326 68.9447C47.8549 69.0395 47.8431 69.138 47.7989 69.2267ZM46.9286 67.8102C46.911 67.8454 46.902 67.8833 46.902 67.9217C46.902 67.9601 46.911 67.998 46.9286 68.0332C46.9825 68.1246 47.058 68.2051 47.1499 68.2693L47.4275 67.6529C47.3234 67.626 47.2127 67.626 47.1086 67.6529C47.067 67.6655 47.0292 67.6863 46.998 67.7135C46.9668 67.7408 46.9431 67.7738 46.9286 67.8102ZM47.48 69.1382C47.5119 69.0699 47.5119 68.9934 47.48 68.9251C47.4167 68.8287 47.3311 68.745 47.2287 68.6791L46.9473 69.2956C47.2274 69.3546 47.405 69.3021 47.48 69.1382Z" fill="#D8D17D"/>
<path d="M57.1146 69.5284C57.5101 69.5284 57.8966 69.6309 58.2254 69.823C58.5542 70.015 58.8105 70.2879 58.9618 70.6073C59.1131 70.9266 59.1527 71.278 59.0756 71.617C58.9984 71.956 58.808 72.2674 58.5284 72.5119C58.2488 72.7563 57.8925 72.9227 57.5047 72.9901C57.1168 73.0576 56.7148 73.023 56.3495 72.8907C55.9841 72.7584 55.6719 72.5344 55.4522 72.247C55.2325 71.9596 55.1152 71.6217 55.1152 71.2761C55.1147 71.0465 55.1661 70.819 55.2664 70.6068C55.3667 70.3945 55.514 70.2017 55.6997 70.0393C55.8855 69.877 56.1061 69.7482 56.3489 69.6606C56.5917 69.5729 56.8519 69.528 57.1146 69.5284ZM58.8252 71.2761C58.8252 70.9804 58.7248 70.6913 58.5369 70.4454C58.3489 70.1995 58.0818 70.0079 57.7692 69.8947C57.4567 69.7815 57.1127 69.7519 56.7809 69.8096C56.4491 69.8673 56.1443 70.0097 55.9051 70.2188C55.6659 70.4279 55.5029 70.6943 55.4369 70.9844C55.3709 71.2744 55.4048 71.575 55.5343 71.8483C55.6637 72.1215 55.883 72.355 56.1643 72.5193C56.4456 72.6836 56.7763 72.7713 57.1146 72.7713C57.5683 72.7713 58.0034 72.6137 58.3242 72.3333C58.6449 72.0529 58.8252 71.6726 58.8252 71.2761Z" fill="#FBBE68"/>
<path d="M57.1129 69.7809C57.4512 69.7809 57.7819 69.8686 58.0632 70.0329C58.3445 70.1972 58.5637 70.4307 58.6932 70.7039C58.8227 70.9771 58.8566 71.2778 58.7906 71.5678C58.7246 71.8578 58.5616 72.1242 58.3224 72.3333C58.0832 72.5424 57.7784 72.6849 57.4466 72.7425C57.1148 72.8002 56.7709 72.7706 56.4583 72.6575C56.1457 72.5443 55.8786 72.3526 55.6906 72.1068C55.5027 71.8609 55.4023 71.5718 55.4023 71.2761C55.4023 70.8795 55.5826 70.4992 55.9034 70.2188C56.2241 69.9384 56.6592 69.7809 57.1129 69.7809ZM58.7034 71.2761C58.7041 71.001 58.6115 70.7319 58.4372 70.5028C58.2628 70.2738 58.0147 70.0951 57.7241 69.9893C57.4336 69.8836 57.1137 69.8556 56.8049 69.9089C56.4961 69.9621 56.2124 70.0943 55.9896 70.2886C55.7668 70.4829 55.6149 70.7306 55.5532 71.0004C55.4915 71.2701 55.5228 71.5499 55.6431 71.8041C55.7634 72.0583 55.9672 72.2756 56.2289 72.4285C56.4905 72.5815 56.7982 72.6631 57.1129 72.6631C57.5341 72.6631 57.938 72.517 58.2362 72.257C58.5344 71.997 58.7024 71.6442 58.7034 71.2761Z" fill="#EAAA5E"/>
<path d="M57.116 69.8858C57.4308 69.8852 57.7386 69.9661 58.0007 70.1185C58.2627 70.2709 58.4672 70.4878 58.5881 70.7418C58.7091 70.9957 58.7411 71.2754 58.6802 71.5453C58.6192 71.8152 58.4681 72.0632 58.2458 72.258C58.0235 72.4527 57.7401 72.5854 57.4315 72.6394C57.1228 72.6933 56.8028 72.6659 56.512 72.5608C56.2212 72.4557 55.9725 72.2775 55.7976 72.0488C55.6227 71.8201 55.5293 71.5512 55.5293 71.2761C55.5293 70.9079 55.6963 70.5548 55.9938 70.2942C56.2913 70.0335 56.6949 69.8867 57.116 69.8858ZM58.489 71.2761C58.4897 71.0386 58.4098 70.8062 58.2594 70.6084C58.109 70.4107 57.8948 70.2563 57.644 70.165C57.3932 70.0737 57.1171 70.0494 56.8505 70.0954C56.5839 70.1413 56.339 70.2553 56.1466 70.423C55.9542 70.5907 55.823 70.8046 55.7698 71.0374C55.7165 71.2703 55.7435 71.5118 55.8473 71.7313C55.9511 71.9507 56.127 72.1384 56.3529 72.2704C56.5787 72.4024 56.8443 72.4729 57.116 72.4729C57.4795 72.4729 57.8282 72.3469 58.0855 72.1225C58.3429 71.8982 58.488 71.5938 58.489 71.2761Z" fill="#FCCD8A"/>
<path d="M57.1133 70.0662C57.385 70.0655 57.6508 70.1354 57.8771 70.2668C58.1034 70.3983 58.2799 70.5855 58.3844 70.8047C58.4889 71.0239 58.5166 71.2653 58.4641 71.4984C58.4115 71.7314 58.2811 71.9455 58.0892 72.1137C57.8974 72.2818 57.6527 72.3965 57.3863 72.443C57.1199 72.4896 56.8436 72.466 56.5925 72.3753C56.3415 72.2846 56.1268 72.1307 55.9758 71.9333C55.8248 71.7359 55.7441 71.5037 55.7441 71.2662C55.7441 70.9485 55.8883 70.6438 56.1449 70.4188C56.4016 70.1939 56.7498 70.067 57.1133 70.0662Z" fill="#FBBE68"/>
<path d="M50.9056 71.6269C51.3011 71.6269 51.6876 71.7294 52.0164 71.9215C52.3452 72.1135 52.6015 72.3864 52.7528 72.7058C52.9041 73.0251 52.9437 73.3765 52.8666 73.7155C52.7894 74.0545 52.599 74.3659 52.3194 74.6104C52.0398 74.8548 51.6835 75.0212 51.2957 75.0887C50.9078 75.1561 50.5058 75.1215 50.1405 74.9892C49.7752 74.8569 49.4629 74.6329 49.2432 74.3455C49.0235 74.0581 48.9063 73.7202 48.9062 73.3746C48.9063 72.9111 49.1169 72.4665 49.4919 72.1388C49.8668 71.811 50.3754 71.6269 50.9056 71.6269ZM52.6162 73.3746C52.6162 73.0789 52.5158 72.7898 52.3279 72.5439C52.1399 72.298 51.8728 72.1064 51.5602 71.9932C51.2477 71.88 50.9037 71.8504 50.5719 71.9081C50.2401 71.9658 49.9353 72.1082 49.6961 72.3173C49.4569 72.5264 49.294 72.7928 49.228 73.0829C49.162 73.3729 49.1958 73.6735 49.3253 73.9468C49.4548 74.22 49.674 74.4535 49.9553 74.6178C50.2366 74.7821 50.5673 74.8698 50.9056 74.8698C51.3593 74.8698 51.7944 74.7122 52.1152 74.4318C52.4359 74.1514 52.6162 73.7711 52.6162 73.3746Z" fill="#FBBE68"/>
<path d="M50.9059 71.8794C51.2442 71.8794 51.5749 71.9671 51.8562 72.1314C52.1375 72.2957 52.3567 72.5292 52.4862 72.8024C52.6157 73.0756 52.6495 73.3762 52.5835 73.6663C52.5175 73.9563 52.3546 74.2227 52.1154 74.4318C51.8762 74.6409 51.5714 74.7833 51.2396 74.841C50.9078 74.8987 50.5638 74.8691 50.2513 74.7559C49.9387 74.6428 49.6716 74.4511 49.4836 74.2053C49.2956 73.9594 49.1953 73.6703 49.1953 73.3746C49.1953 72.978 49.3755 72.5977 49.6963 72.3173C50.0171 72.0369 50.4522 71.8794 50.9059 71.8794ZM52.4964 73.3746C52.4964 73.0996 52.4031 72.8308 52.2283 72.6022C52.0535 72.3736 51.8051 72.1954 51.5145 72.0901C51.2239 71.9849 50.9041 71.9574 50.5956 72.011C50.287 72.0647 50.0036 72.1971 49.7812 72.3915C49.5588 72.5859 49.4073 72.8337 49.3459 73.1034C49.2845 73.373 49.316 73.6526 49.4364 73.9066C49.5568 74.1606 49.7607 74.3778 50.0222 74.5305C50.2838 74.6833 50.5913 74.7648 50.9059 74.7648C51.1149 74.7653 51.3219 74.7296 51.5151 74.6599C51.7083 74.5902 51.8838 74.4878 52.0316 74.3586C52.1794 74.2294 52.2965 74.076 52.3763 73.9071C52.456 73.7382 52.4968 73.5573 52.4964 73.3746Z" fill="#EAAA5E"/>
<path d="M50.9069 71.9876C51.2216 71.9876 51.5293 72.0692 51.7909 72.2221C52.0526 72.3751 52.2564 72.5924 52.3767 72.8466C52.497 73.1008 52.5282 73.3805 52.4666 73.6503C52.4049 73.9201 52.253 74.1678 52.0302 74.3621C51.8074 74.5564 51.5237 74.6885 51.2149 74.7418C50.9061 74.7951 50.5862 74.7671 50.2956 74.6614C50.0051 74.5556 49.7569 74.3769 49.5826 74.1479C49.4083 73.9188 49.3157 73.6497 49.3164 73.3746C49.3164 73.1922 49.3576 73.0116 49.4376 72.8431C49.5175 72.6746 49.6347 72.5215 49.7825 72.3927C49.9302 72.2639 50.1056 72.1618 50.2985 72.0923C50.4915 72.0227 50.6982 71.9872 50.9069 71.9876ZM52.2798 73.3746C52.2798 73.1372 52.1993 72.9052 52.0485 72.7079C51.8976 72.5105 51.6832 72.3567 51.4323 72.2659C51.1814 72.175 50.9054 72.1513 50.6391 72.1976C50.3727 72.2439 50.1281 72.3582 49.9361 72.526C49.7441 72.6938 49.6133 72.9077 49.5604 73.1405C49.5074 73.3733 49.5346 73.6146 49.6385 73.8338C49.7424 74.0531 49.9184 74.2406 50.1441 74.3724C50.3699 74.5043 50.6354 74.5747 50.9069 74.5747C51.0873 74.5751 51.2661 74.5444 51.4329 74.4842C51.5997 74.4241 51.7512 74.3357 51.8788 74.2241C52.0064 74.1126 52.1075 73.9802 52.1763 73.8344C52.2452 73.6886 52.2803 73.5323 52.2798 73.3746Z" fill="#FCCD8A"/>
<path d="M50.9042 72.1778C51.1759 72.1778 51.4415 72.2482 51.6673 72.3802C51.8932 72.5123 52.0692 72.6999 52.173 72.9194C52.2768 73.1388 52.3037 73.3803 52.2505 73.6132C52.1972 73.8461 52.066 74.0599 51.8737 74.2276C51.6813 74.3953 51.4363 74.5093 51.1697 74.5553C50.9032 74.6012 50.627 74.577 50.3762 74.4856C50.1254 74.3943 49.9112 74.24 49.7608 74.0422C49.6104 73.8444 49.5305 73.6121 49.5313 73.3746C49.5313 73.2171 49.5668 73.0612 49.6358 72.9158C49.7049 72.7704 49.8061 72.6383 49.9336 72.5271C50.0611 72.416 50.2125 72.3279 50.3791 72.2679C50.5456 72.208 50.7241 72.1773 50.9042 72.1778Z" fill="#FBBE68"/>
<path d="M51.1423 72.8073C51.224 72.8323 51.2932 72.8813 51.3384 72.9458C51.3835 73.0103 51.4017 73.0865 51.3899 73.1614V73.1877H51.1836C51.1877 73.1493 51.1821 73.1106 51.1672 73.0743C51.1523 73.0381 51.1284 73.0051 51.0973 72.9778L51.0073 73.3057C51.2661 73.3418 51.4049 73.4303 51.4049 73.6336C51.4049 73.85 51.2248 73.9812 50.9172 73.9812H50.8235L50.7672 74.1845H50.5984L50.6659 73.9451C50.5855 73.9186 50.5169 73.8702 50.4703 73.807C50.4237 73.7438 50.4015 73.6693 50.4071 73.5943H50.6171C50.614 73.6307 50.6209 73.6673 50.6372 73.7009C50.6535 73.7346 50.6788 73.7643 50.7109 73.7877L50.8047 73.4434C50.5346 73.4041 50.4296 73.3057 50.4296 73.1385C50.4296 72.9286 50.6246 72.8106 50.9135 72.8106H50.9885L51.0448 72.6106H51.2136L51.1423 72.8073ZM50.8422 73.2828L50.9398 72.9286H50.8985C50.7484 72.9286 50.6322 72.9942 50.6322 73.1024C50.6322 73.1975 50.6884 73.2533 50.8422 73.2828ZM51.1911 73.6402C51.1911 73.5385 51.1198 73.4861 50.966 73.4598L50.8647 73.8336H50.921C51.0785 73.8238 51.1911 73.7549 51.1911 73.6402Z" fill="#EAAA5E"/>
<path d="M52.4935 67.866C52.889 67.866 53.2755 67.9685 53.6043 68.1606C53.9331 68.3526 54.1894 68.6255 54.3407 68.9449C54.492 69.2642 54.5316 69.6156 54.4545 69.9546C54.3773 70.2936 54.1869 70.605 53.9073 70.8495C53.6277 71.0939 53.2714 71.2603 52.8836 71.3278C52.4957 71.3952 52.0937 71.3606 51.7284 71.2283C51.3631 71.096 51.0508 70.872 50.8311 70.5846C50.6114 70.2972 50.4941 69.9593 50.4941 69.6137C50.4941 69.1502 50.7048 68.7057 51.0797 68.3779C51.4547 68.0502 51.9633 67.866 52.4935 67.866ZM54.2041 69.6137C54.2033 69.3181 54.1024 69.0293 53.914 68.7839C53.7256 68.5384 53.4581 68.3473 53.1455 68.2347C52.8329 68.122 52.4891 68.0928 52.1575 68.1509C51.826 68.209 51.5215 68.3516 51.2827 68.5609C51.0438 68.7701 50.8813 69.0365 50.8156 69.3265C50.7499 69.6164 50.784 69.9169 50.9135 70.1899C51.0431 70.4629 51.2624 70.6962 51.5436 70.8604C51.8248 71.0245 52.1554 71.1121 52.4935 71.1121C52.7185 71.1121 52.9412 71.0734 53.149 70.998C53.3568 70.9227 53.5455 70.8122 53.7044 70.6731C53.8633 70.5339 53.9892 70.3687 54.0749 70.1869C54.1607 70.0051 54.2046 69.8103 54.2041 69.6137Z" fill="#FBBE68"/>
<path d="M52.4957 68.1185C52.8351 68.1179 53.167 68.2053 53.4495 68.3697C53.732 68.5341 53.9523 68.7681 54.0825 69.042C54.2127 69.316 54.247 69.6175 54.181 69.9085C54.115 70.1995 53.9516 70.4668 53.7116 70.6765C53.4717 70.8863 53.1659 71.0291 52.833 71.0868C52.5001 71.1445 52.1551 71.1146 51.8417 71.0007C51.5283 70.8869 51.2606 70.6943 51.0725 70.4474C50.8844 70.2005 50.7844 69.9103 50.7852 69.6137C50.7852 69.2171 50.9654 68.8368 51.2862 68.5564C51.607 68.276 52.042 68.1185 52.4957 68.1185ZM54.0825 69.6137C54.0825 69.3386 53.9891 69.0697 53.8141 68.841C53.6392 68.6123 53.3906 68.4341 53.0997 68.3289C52.8089 68.2238 52.4889 68.1965 52.1803 68.2504C51.8716 68.3043 51.5883 68.437 51.366 68.6318C51.1437 68.8266 50.9925 69.0746 50.9316 69.3445C50.8706 69.6144 50.9026 69.894 51.0236 70.148C51.1446 70.402 51.349 70.6189 51.611 70.7712C51.8731 70.9236 52.181 71.0046 52.4957 71.0039C52.7044 71.0039 52.911 70.968 53.1038 70.898C53.2965 70.8281 53.4716 70.7257 53.619 70.5965C53.7664 70.4674 53.8832 70.3141 53.9627 70.1455C54.0423 69.9768 54.0829 69.7961 54.0825 69.6137Z" fill="#EAAA5E"/>
<path d="M52.4968 68.2267C52.8115 68.2267 53.1191 68.3083 53.3808 68.4612C53.6424 68.6141 53.8463 68.8315 53.9665 69.0857C54.0868 69.3399 54.1181 69.6196 54.0564 69.8894C53.9947 70.1592 53.8429 70.4069 53.6201 70.6012C53.3973 70.7955 53.1135 70.9276 52.8047 70.9809C52.496 71.0342 52.1761 71.0062 51.8855 70.9005C51.5949 70.7947 51.3468 70.616 51.1725 70.387C50.9982 70.1579 50.9055 69.8888 50.9063 69.6137C50.9063 69.4313 50.9474 69.2506 51.0274 69.0822C51.1074 68.9137 51.2246 68.7606 51.3723 68.6318C51.5201 68.503 51.6954 68.4009 51.8884 68.3313C52.0813 68.2618 52.2881 68.2263 52.4968 68.2267ZM53.8659 69.6137C53.8659 69.3762 53.7853 69.144 53.6343 68.9466C53.4833 68.7492 53.2686 68.5954 53.0175 68.5046C52.7664 68.4139 52.4902 68.3903 52.2238 68.4369C51.9574 68.4835 51.7127 68.5981 51.5209 68.7663C51.329 68.9344 51.1985 69.1486 51.146 69.3816C51.0934 69.6146 51.1212 69.856 51.2257 70.0752C51.3301 70.2944 51.5067 70.4817 51.733 70.6131C51.9592 70.7446 52.2251 70.8144 52.4968 70.8138C52.6781 70.8155 52.8581 70.7857 53.0262 70.7262C53.1943 70.6666 53.3472 70.5784 53.476 70.4668C53.6047 70.3551 53.7069 70.2222 53.7764 70.0757C53.8459 69.9293 53.8814 69.7722 53.8809 69.6137H53.8659Z" fill="#FCCD8A"/>
<path d="M52.4921 68.4267C52.7638 68.4267 53.0294 68.4972 53.2552 68.6292C53.4811 68.7612 53.6571 68.9488 53.7609 69.1683C53.8647 69.3878 53.8916 69.6292 53.8384 69.8621C53.7851 70.095 53.6539 70.3088 53.4616 70.4765C53.2692 70.6442 53.0242 70.7583 52.7576 70.8042C52.4911 70.8501 52.2149 70.8259 51.9641 70.7346C51.7133 70.6432 51.4991 70.4889 51.3487 70.2911C51.1983 70.0933 51.1184 69.861 51.1191 69.6235C51.1191 69.4661 51.1547 69.3102 51.2237 69.1647C51.2928 69.0193 51.394 68.8873 51.5215 68.7761C51.649 68.6649 51.8004 68.5768 51.967 68.5169C52.1335 68.4569 52.312 68.4263 52.4921 68.4267Z" fill="#FBBE68"/>
<path d="M43.4408 69.7874C43.8362 69.7874 44.2228 69.8899 44.5516 70.082C44.8804 70.274 45.1366 70.547 45.288 70.8663C45.4393 71.1857 45.4789 71.537 45.4017 71.8761C45.3246 72.2151 45.1342 72.5265 44.8546 72.7709C44.5749 73.0153 44.2187 73.1817 43.8309 73.2492C43.443 73.3166 43.041 73.282 42.6757 73.1497C42.3103 73.0174 41.9981 72.7935 41.7784 72.5061C41.5587 72.2187 41.4414 71.8808 41.4414 71.5351C41.4414 71.0716 41.6521 70.6271 42.027 70.2993C42.402 69.9716 42.9105 69.7874 43.4408 69.7874ZM45.1513 71.5351C45.1521 71.2385 45.0521 70.9483 44.864 70.7014C44.6759 70.4544 44.4082 70.2619 44.0948 70.1481C43.7814 70.0342 43.4364 70.0043 43.1035 70.062C42.7706 70.1197 42.4648 70.2625 42.2249 70.4723C41.9849 70.682 41.8215 70.9493 41.7555 71.2403C41.6895 71.5313 41.7237 71.8328 41.854 72.1068C41.9842 72.3807 42.2045 72.6147 42.487 72.7791C42.7695 72.9435 43.1014 73.0309 43.4408 73.0303C43.8945 73.0303 44.3295 72.8728 44.6503 72.5924C44.9711 72.312 45.1513 71.9317 45.1513 71.5351Z" fill="#FBBE68"/>
<path d="M43.4408 70.04C43.779 70.0406 44.1093 70.1288 44.3902 70.2935C44.671 70.4582 44.8896 70.692 45.0185 70.9652C45.1474 71.2385 45.1807 71.539 45.1143 71.8288C45.0479 72.1187 44.8847 72.3848 44.6453 72.5935C44.4059 72.8023 44.1011 72.9444 43.7694 73.0018C43.4377 73.0592 43.094 73.0294 42.7816 72.9162C42.4693 72.8029 42.2024 72.6113 42.0146 72.3655C41.8268 72.1197 41.7266 71.8307 41.7266 71.5351C41.7266 71.3385 41.7709 71.1438 41.8571 70.9622C41.9433 70.7806 42.0697 70.6156 42.2289 70.4767C42.3881 70.3378 42.5771 70.2278 42.7851 70.1528C42.9931 70.0779 43.2159 70.0395 43.4408 70.04ZM45.0276 71.5351C45.0276 71.26 44.9342 70.9911 44.7593 70.7624C44.5844 70.5337 44.3357 70.3555 44.0449 70.2504C43.754 70.1453 43.4341 70.1179 43.1254 70.1718C42.8168 70.2257 42.5334 70.3585 42.3111 70.5532C42.0888 70.748 41.9377 70.996 41.8767 71.2659C41.8158 71.5358 41.8478 71.8155 41.9687 72.0694C42.0897 72.3234 42.2941 72.5403 42.5562 72.6927C42.8182 72.845 43.1261 72.926 43.4408 72.9254C43.6495 72.9254 43.8562 72.8894 44.0489 72.8195C44.2417 72.7496 44.4168 72.6471 44.5642 72.518C44.7116 72.3889 44.8284 72.2356 44.9079 72.0669C44.9874 71.8983 45.0281 71.7175 45.0276 71.5351Z" fill="#EAAA5E"/>
<path d="M43.4401 70.1482C43.7548 70.1482 44.0625 70.2298 44.3241 70.3827C44.5858 70.5356 44.7896 70.7529 44.9099 71.0072C45.0302 71.2614 45.0615 71.5411 44.9998 71.8109C44.9381 72.0806 44.7863 72.3283 44.5634 72.5226C44.3406 72.7169 44.0569 72.8491 43.7481 72.9024C43.4393 72.9556 43.1194 72.9276 42.8289 72.8219C42.5383 72.7162 42.2902 72.5375 42.1158 72.3084C41.9415 72.0794 41.8489 71.8103 41.8496 71.5351C41.8496 71.3527 41.8908 71.1721 41.9708 71.0036C42.0507 70.8351 42.1679 70.6821 42.3157 70.5532C42.4634 70.4244 42.6388 70.3223 42.8317 70.2528C43.0247 70.1833 43.2314 70.1477 43.4401 70.1482ZM44.8093 71.5351C44.8093 71.2977 44.7287 71.0655 44.5777 70.8681C44.4266 70.6707 44.212 70.5168 43.9609 70.4261C43.7098 70.3354 43.4336 70.3118 43.1671 70.3584C42.9007 70.4049 42.6561 70.5196 42.4642 70.6877C42.2724 70.8559 42.1419 71.07 42.0894 71.303C42.0368 71.536 42.0645 71.7774 42.169 71.9967C42.2735 72.2159 42.4501 72.4031 42.6763 72.5346C42.9026 72.666 43.1684 72.7359 43.4401 72.7352C43.6202 72.7352 43.7986 72.7042 43.9649 72.6438C44.1313 72.5835 44.2824 72.495 44.4096 72.3835C44.5368 72.2721 44.6376 72.1397 44.7062 71.9941C44.7747 71.8486 44.8098 71.6926 44.8093 71.5351Z" fill="#FCCD8A"/>
<path d="M43.4393 72.7352C44.1976 72.7352 44.8123 72.1979 44.8123 71.5351C44.8123 70.8723 44.1976 70.3351 43.4393 70.3351C42.6811 70.3351 42.0664 70.8723 42.0664 71.5351C42.0664 72.1979 42.6811 72.7352 43.4393 72.7352Z" fill="#FBBE68"/>
<path d="M43.6744 70.9646C43.7545 70.9926 43.8219 71.0427 43.8665 71.1071C43.9112 71.1716 43.9307 71.247 43.922 71.322V71.3482H43.7119C43.7169 71.3098 43.7117 71.2709 43.6967 71.2345C43.6818 71.1981 43.6575 71.1652 43.6257 71.1384L43.5356 71.4662C43.7982 71.5023 43.9333 71.5908 43.9333 71.7941C43.9333 72.0105 43.757 72.1417 43.4494 72.1417H43.3743L43.3181 72.345H43.1493L43.213 72.1056C43.1333 72.0786 43.0655 72.0299 43.0196 71.9668C42.9738 71.9037 42.9521 71.8294 42.958 71.7548H43.1643C43.162 71.7911 43.1693 71.8275 43.1856 71.861C43.2018 71.8945 43.2266 71.9244 43.2581 71.9482L43.3518 71.604C43.0817 71.5646 42.9767 71.4663 42.9767 71.299C42.9767 71.0892 43.168 70.9711 43.4569 70.9711H43.5356L43.5919 70.7711H43.7495L43.6744 70.9646ZM43.3743 71.44L43.4719 71.0892H43.4306C43.2806 71.0892 43.1643 71.1515 43.1643 71.263C43.1643 71.358 43.2168 71.4138 43.3743 71.44ZM43.7194 71.8007C43.7194 71.6991 43.6519 71.6466 43.4981 71.6171L43.3931 71.9909H43.4531C43.6107 71.9843 43.7194 71.9155 43.7194 71.8007Z" fill="#EAAA5E"/>
<path d="M47.5513 62.7158L41.6484 76.1923L48.809 78.5887L54.7118 65.1122L47.5513 62.7158Z" fill="#BFBB68"/>
<path d="M47.5037 77.4765L43.4749 76.1288C43.5664 75.9193 43.5589 75.6865 43.4541 75.4817C43.3493 75.277 43.1558 75.117 42.916 75.037L47.62 64.2953C47.8593 64.3754 48.1252 64.3693 48.3593 64.2784C48.5935 64.1874 48.7768 64.019 48.8691 63.81L52.8867 65.1478C52.7962 65.3574 52.8042 65.5898 52.9089 65.7943C53.0136 65.9988 53.2065 66.1589 53.4456 66.2397L48.7416 76.9879C48.5032 76.911 48.2398 76.9191 48.0081 77.0105C47.7765 77.1019 47.5953 77.2693 47.5037 77.4765Z" fill="#D8D17D"/>
<path d="M49.0019 68.7546C49.4292 68.8986 49.7982 69.1501 50.0622 69.4773C50.3262 69.8045 50.4735 70.1927 50.4853 70.5929C50.4971 70.9931 50.3731 71.3875 50.1288 71.7261C49.8844 72.0648 49.5308 72.3326 49.1126 72.4958C48.6943 72.6589 48.2301 72.7101 47.7785 72.6429C47.327 72.5756 46.9084 72.393 46.5755 72.118C46.2426 71.843 46.0104 71.4879 45.9081 71.0977C45.8059 70.7074 45.8382 70.2994 46.0009 69.9252C46.1099 69.676 46.2739 69.4479 46.4838 69.2542C46.6936 69.0605 46.945 68.9048 47.2238 68.7961C47.5025 68.6873 47.803 68.6277 48.1081 68.6206C48.4132 68.6135 48.7169 68.659 49.0019 68.7546Z" fill="#BFBB68"/>
</g>
<path d="M53.9062 42.9365L57.1735 39.3297L58.0326 40.0379L58.2276 40.1953C58.3304 40.2793 58.4106 40.3821 58.4623 40.4965C58.514 40.6109 58.536 40.7339 58.5267 40.8566C58.5174 40.9793 58.4769 41.0986 58.4083 41.206C58.3397 41.3134 58.2447 41.4061 58.1301 41.4774L55.5343 43.0939C55.4067 43.1727 55.2588 43.223 55.1038 43.2401C54.9488 43.2573 54.7913 43.2408 54.6452 43.1922L53.9062 42.9365Z" fill="#C8856A"/>
<path d="M53.9062 42.9365L54.2814 43.0545C54.5205 42.7357 54.7917 42.4362 55.0916 42.1594C55.9864 41.305 57.1444 40.6948 58.4264 40.4019C58.3789 40.3188 58.3154 40.2434 58.2389 40.1789L58.0438 40.0215L57.1848 39.3133L53.9062 42.9365Z" fill="#C17B5F"/>
<path d="M49.3124 40.8839L49.0723 33.9982C49.056 33.561 49.1388 33.1254 49.3159 32.7163C49.4929 32.3072 49.7607 31.9327 50.1039 31.6144L56.5072 25.6468L61.0086 19.6431L66.9092 24.4894L65.4087 31.5947C65.3117 32.0516 65.1073 32.4859 64.8085 32.8702L56.3796 31.8308L53.8326 36.018L49.8938 41.0905C49.7928 41.2174 49.7109 41.3551 49.65 41.5003C49.5471 41.4243 49.4637 41.33 49.4055 41.2238C49.3473 41.1175 49.3156 41.0017 49.3124 40.8839Z" fill="#C8856A"/>
<path d="M53.1578 35.4442L52.7151 36.7262C51.7475 38.2274 50.6103 39.64 49.3203 40.9429C49.3474 41.1601 49.4714 41.3593 49.6654 41.497C49.7263 41.3519 49.8082 41.2141 49.9092 41.0872L52.2612 38.0607L52.2425 38.1165L53.848 36.0147L56.395 31.8275L53.1578 35.4442Z" fill="#C17B5F"/>
<path d="M46.3543 39.1081L47.0215 58.1955L57.1637 57.9247L56.4965 38.8372L46.3543 39.1081Z" fill="#BFBB68"/>
<path d="M54.9161 57.1604L49.2068 57.3112C49.2019 57.1645 49.164 57.02 49.0951 56.8862C49.0263 56.7523 48.9278 56.6317 48.8055 56.5311C48.6832 56.4306 48.5393 56.3522 48.3822 56.3004C48.2252 56.2485 48.0579 56.2243 47.8901 56.2291L47.3574 41.0183C47.6971 41.0089 48.0185 40.8821 48.2513 40.6657C48.4841 40.4493 48.6092 40.161 48.5991 39.8641L54.3046 39.7133C54.3099 39.8601 54.3483 40.0046 54.4176 40.1385C54.4869 40.2724 54.5856 40.393 54.7083 40.4935C54.8309 40.594 54.975 40.6724 55.1323 40.7242C55.2896 40.776 55.457 40.8001 55.625 40.7953L56.1577 56.0062C55.9894 56.0104 55.8237 56.0437 55.6701 56.104C55.5165 56.1644 55.378 56.2506 55.2627 56.3579C55.1473 56.4651 55.0573 56.5912 54.9978 56.7289C54.9383 56.8666 54.9106 57.0132 54.9161 57.1604Z" fill="#D8D17D"/>
<path d="M51.6636 45.8318C52.27 45.8158 52.8683 45.9574 53.3828 46.2386C53.8972 46.5198 54.3048 46.928 54.5539 47.4116C54.8029 47.8952 54.8824 48.4326 54.7822 48.9556C54.682 49.4787 54.4066 49.9641 53.9909 50.3504C53.5751 50.7367 53.0377 51.0066 52.4465 51.126C51.8553 51.2454 51.2369 51.2089 50.6694 51.0211C50.102 50.8333 49.6109 50.5027 49.2584 50.071C48.9059 49.6393 48.7077 49.126 48.6889 48.5959C48.6646 47.8847 48.9643 47.1941 49.522 46.6759C50.0797 46.1576 50.8499 45.854 51.6636 45.8318Z" fill="#BFBB68"/>
<path d="M56.5035 25.6468L50.089 31.6079C49.6441 32.0221 49.3278 32.5289 49.1699 33.0801L56.5447 26.8239L62.044 20.4989L61.0049 19.6431L56.5035 25.6468Z" fill="#C17B5F"/>
<path d="M60.0443 36.5394L58.9452 37.3492L57.1671 39.3166L53.8998 42.9234L53.4835 43.3824C53.1239 43.7804 52.6006 44.0399 52.0252 44.1054C51.4499 44.171 50.868 44.0374 50.4037 43.7333C50.3362 43.6874 50.2762 43.6415 50.2162 43.5923C49.8954 43.3283 49.6716 42.9869 49.5734 42.6115C49.4752 42.236 49.507 41.8435 49.6648 41.4839C49.7256 41.3388 49.8076 41.201 49.9086 41.0741L53.8473 36.0016L56.3944 31.8145L64.8233 32.8539C64.6273 33.0991 64.3938 33.3197 64.1293 33.5096L60.0443 36.5394Z" fill="#C8856A"/>
<path d="M57.1699 39.3133L58.948 37.3459L60.0471 36.536L60.2722 36.7197C60.4562 36.871 60.5639 37.08 60.5716 37.3008C60.5794 37.5215 60.4865 37.7359 60.3134 37.8968L58.0289 40.0182L57.1699 39.3133Z" fill="#C8856A"/>
<path d="M51.4067 40.5035L53.71 41.9823L52.8622 42.9857C52.7519 43.118 52.6128 43.2299 52.4528 43.3151C52.2929 43.4003 52.1153 43.457 51.9302 43.4819C51.7451 43.5069 51.5562 43.4997 51.3743 43.4607C51.1924 43.4217 51.0211 43.3516 50.8703 43.2545C50.5652 43.0587 50.3615 42.765 50.3038 42.438C50.2461 42.1109 50.3393 41.7773 50.5627 41.5102L51.4067 40.5035Z" fill="#D9BBAF"/>
<path d="M60.4381 37.7493C60.5473 37.5871 60.5904 37.3973 60.5605 37.2109C60.5305 37.0246 60.4292 36.8526 60.2731 36.723L60.048 36.5393L58.9489 37.3492L58.4688 37.8804C59.1045 37.703 59.7789 37.658 60.4381 37.7493Z" fill="#C17B5F"/>
<path d="M58.6897 19.996L67.0039 26.8325L70.4095 23.6681L62.0952 16.8315L58.6897 19.996Z" fill="#EEEEEE"/>
<g style="mix-blend-mode:multiply">
<path d="M58.6831 19.9988L60.0684 21.1379L63.4739 17.9734L62.0887 16.8344L58.6831 19.9988Z" fill="#F1F2F2"/>
</g>
<path d="M62.0773 16.8364L61.5371 13.9149L82.4762 -6.66025L98.1374 2.1928L74.8838 23.5877L70.3936 23.6729L62.0773 16.8364Z" fill="#E0DCDC"/>
<g style="mix-blend-mode:multiply">
<path d="M82.4762 -6.66025L61.5371 13.9149L62.0773 16.8364L63.4615 17.9742L64.5343 13.9969L86.6138 -4.32239L82.4762 -6.66025Z" fill="#F1F2F2"/>
</g>
<path d="M35.672 45.4744L31.0618 43.2349L30.5779 44.1628L30.4729 44.3759C30.4149 44.4879 30.3861 44.6098 30.3888 44.7327C30.3915 44.8556 30.4256 44.9764 30.4885 45.0864C30.5514 45.1963 30.6415 45.2926 30.7524 45.3682C30.8633 45.4439 30.992 45.4969 31.1293 45.5235L34.2353 46.14C34.3875 46.1705 34.5459 46.1676 34.6964 46.1315C34.847 46.0955 34.985 46.0274 35.0981 45.9334L35.672 45.4744Z" fill="#C8856A"/>
<path d="M35.6732 45.4744L35.3919 45.7072C35.0367 45.4931 34.6601 45.3076 34.2665 45.153C33.0638 44.6668 31.726 44.4948 30.4141 44.6579C30.4207 44.5651 30.4461 44.4741 30.4891 44.389L30.5941 44.1759L31.078 43.2349L35.6732 45.4744Z" fill="#C17B5F"/>
<path d="M39.0006 42.0216L36.1872 35.5917C35.8264 34.7675 35.1059 34.1023 34.1841 33.7424L25.6314 30.3914L18.8305 26.3714L15.5332 32.8276L20.0346 38.8805C20.3264 39.2739 20.7098 39.6091 21.16 39.8641L28.4785 36.0639L32.6761 39.0674L38.5467 42.4184C38.6967 42.5013 38.834 42.6005 38.9556 42.7135C39.0197 42.6078 39.0569 42.4913 39.0647 42.3719C39.0725 42.2525 39.0506 42.133 39.0006 42.0216Z" fill="#C8856A"/>
<path d="M33.0527 38.3099L34.0243 39.3461C35.5815 40.4036 37.2552 41.3229 39.0208 42.0905C39.0889 42.2999 39.0621 42.5242 38.9458 42.7168C38.8243 42.6038 38.6869 42.5046 38.5369 42.4217L35.0371 40.4216L35.0783 40.4675L32.6663 39.0706L28.4688 36.0672L33.0527 38.3099Z" fill="#C17B5F"/>
<path d="M31.464 42.5591L39.2754 60.3931L48.7516 57.2218L40.9401 39.3878L31.464 42.5591Z" fill="#BFBB68"/>
<path d="M41.0202 58.9375L46.3544 57.1538C46.2943 57.0159 46.2661 56.8689 46.2713 56.7213C46.2766 56.5738 46.3152 56.4286 46.3849 56.2942C46.4547 56.1598 46.5542 56.0387 46.6777 55.9381C46.8012 55.8375 46.9463 55.7592 47.1046 55.7078L40.8814 41.497C40.7236 41.5491 40.5555 41.5734 40.3869 41.5686C40.2182 41.5639 40.0523 41.53 39.8986 41.4691C39.745 41.4082 39.6066 41.3214 39.4914 41.2136C39.3761 41.1059 39.2863 40.9794 39.2272 40.8412L33.8967 42.625C33.9563 42.763 33.9841 42.9099 33.9786 43.0573C33.9732 43.2047 33.9345 43.3497 33.8648 43.484C33.7951 43.6183 33.6958 43.7393 33.5725 43.84C33.4493 43.9408 33.3045 44.0192 33.1465 44.071L39.3697 58.2817C39.6881 58.1776 40.0407 58.1882 40.3502 58.3111C40.6597 58.4341 40.9006 58.6594 41.0202 58.9375Z" fill="#D8D17D"/>
<path d="M39.0202 47.3892C38.4555 47.5813 37.9684 47.9152 37.6205 48.3489C37.2726 48.7826 37.0794 49.2966 37.0653 49.8262C37.0511 50.3557 37.2167 50.877 37.5411 51.3245C37.8654 51.7719 38.3341 52.1253 38.8879 52.3402C39.4418 52.5551 40.056 52.6219 40.6532 52.5321C41.2504 52.4423 41.8038 52.1999 42.2437 51.8355C42.6835 51.4712 42.9901 51.0011 43.1247 50.4847C43.2593 49.9683 43.216 49.4285 43.0002 48.9336C42.8565 48.6027 42.6392 48.3 42.3608 48.043C42.0825 47.7859 41.7486 47.5797 41.3786 47.4361C41.0085 47.2925 40.6095 47.2144 40.2047 47.2064C39.8 47.1983 39.3973 47.2605 39.0202 47.3892Z" fill="#BFBB68"/>
<path d="M25.6281 30.3914L34.1808 33.7293C34.7746 33.9607 35.291 34.3207 35.6813 34.7753L26.1158 31.4964L18.2383 27.5191L18.8235 26.378L25.6281 30.3914Z" fill="#C17B5F"/>
<path d="M27.1842 41.6446L28.5572 42.0184L31.063 43.2349L35.6732 45.4744L36.2621 45.7563C36.7702 46.0027 37.3683 46.0659 37.9289 45.9324C38.4895 45.7988 38.9682 45.4792 39.2631 45.0415C39.3043 44.9787 39.3418 44.9142 39.3756 44.8481C39.5544 44.4961 39.6095 44.1056 39.534 43.7262C39.4586 43.3467 39.2559 42.9954 38.9517 42.7168C38.8302 42.6038 38.6928 42.5046 38.5428 42.4217L32.6722 39.0706L28.4747 36.0672L21.1523 39.8674C21.4427 40.0342 21.7583 40.1644 22.0901 40.2543L27.1842 41.6446Z" fill="#C8856A"/>
<path d="M31.0626 43.2349L28.5568 42.0184L27.1839 41.6446L27.0601 41.8905C27.0088 41.9902 26.9806 42.0977 26.977 42.2069C26.9733 42.3161 26.9945 42.4249 27.0391 42.5269C27.0837 42.629 27.1509 42.7224 27.2369 42.8016C27.3229 42.8809 27.426 42.9446 27.5403 42.9889L30.5787 44.1759L31.0626 43.2349Z" fill="#C8856A"/>
<path d="M36.9002 42.3889L35.4297 44.5267L36.6526 45.1825C36.9771 45.3524 37.3654 45.403 37.7324 45.3231C38.0994 45.2432 38.4153 45.0393 38.6107 44.7563C38.8051 44.4726 38.8629 44.1332 38.7715 43.8124C38.6801 43.4916 38.4469 43.2155 38.123 43.0447L36.9002 42.3889Z" fill="#D9BBAF"/>
<path d="M27.3544 42.8939C27.1831 42.7801 27.0607 42.6192 27.0069 42.4371C26.9532 42.2551 26.9712 42.0625 27.058 41.8905L27.1818 41.6446L28.5547 42.0184L29.2299 42.3463C28.5645 42.3985 27.9221 42.586 27.3544 42.8939Z" fill="#C17B5F"/>
<path d="M19.4019 25.2414L14.75 34.3529L16.4868 35.0304L21.1387 25.9188L19.4019 25.2414Z" fill="#EEEEEE"/>
<g style="mix-blend-mode:multiply">
<path d="M19.4059 25.241L18.6309 26.7591L20.3676 27.4366L21.1427 25.9185L19.4059 25.241Z" fill="#F1F2F2"/>
</g>
<path d="M-6.57147 14.193L-12 24.8257L14.3664 35.1109L19.7949 24.4782L-6.57147 14.193Z" fill="#C390F3"/>
<g style="mix-blend-mode:multiply">
<path d="M-6.57101 14.1977L-7.73438 16.4763L18.632 26.7615L19.7954 24.4829L-6.57101 14.1977Z" fill="#F1F2F2"/>
</g>
<path d="M67.3184 50.3927L71.9323 48.1532L72.4125 49.0942L72.5212 49.3074C72.5785 49.4196 72.6067 49.5416 72.6037 49.6645C72.6007 49.7874 72.5665 49.9082 72.5038 50.0183C72.441 50.1283 72.3512 50.2248 72.2407 50.3009C72.1302 50.3769 72.0019 50.4307 71.8648 50.4583L68.7588 51.0714C68.6061 51.1019 68.4471 51.099 68.296 51.063C68.1448 51.027 68.0062 50.9589 67.8923 50.8649L67.3184 50.3927Z" fill="#C8856A"/>
<path d="M67.3184 50.3927L67.6034 50.6255C67.9598 50.4131 68.3363 50.2277 68.7288 50.0714C69.9319 49.5864 71.2694 49.4145 72.5813 49.5762C72.5724 49.4838 72.547 49.3931 72.5062 49.3074L72.3975 49.0942L71.9173 48.1532L67.3184 50.3927Z" fill="#C17B5F"/>
<path d="M64.0102 46.9531L66.8273 40.5199C67.1882 39.6957 67.9087 39.0305 68.8305 38.6706L77.3832 35.336L84.1841 31.316L87.4814 37.7689L82.9799 43.8218C82.6878 44.215 82.3044 44.5501 81.8546 44.8055L74.5135 40.9954L70.3159 43.9988L64.4416 47.3499C64.2936 47.4339 64.1576 47.5329 64.0365 47.645C63.9749 47.5383 63.9406 47.4211 63.9361 47.3016C63.9315 47.1821 63.9568 47.0632 64.0102 46.9531Z" fill="#C8856A"/>
<path d="M69.9392 43.2414L68.9639 44.2743C67.4089 45.3328 65.7362 46.2523 63.9711 47.0187C63.9355 47.1222 63.9238 47.2309 63.9367 47.3384C63.9496 47.4459 63.9868 47.5501 64.0461 47.645C64.1673 47.5329 64.3033 47.4339 64.4512 47.3499L67.9548 45.353L67.9136 45.3957L70.3256 43.9988L74.5119 40.9954L69.9392 43.2414Z" fill="#C17B5F"/>
<path d="M62.0497 44.3273L54.2383 62.1613L63.7144 65.3326L71.5259 47.4986L62.0497 44.3273Z" fill="#BFBB68"/>
<path d="M61.9711 63.8657L56.637 62.082C56.697 61.944 56.7253 61.7971 56.72 61.6495C56.7148 61.502 56.6762 61.3568 56.6064 61.2224C56.5367 61.088 56.4372 60.9669 56.3137 60.8663C56.1901 60.7656 56.045 60.6874 55.8867 60.636L62.1324 46.4252C62.2903 46.4773 62.4584 46.5016 62.627 46.4968C62.7956 46.492 62.9615 46.4582 63.1152 46.3973C63.2689 46.3364 63.4073 46.2496 63.5225 46.1418C63.6377 46.0341 63.7275 45.9076 63.7867 45.7694L69.1209 47.5532C69.0613 47.6912 69.0335 47.8381 69.039 47.9855C69.0444 48.1329 69.0831 48.2779 69.1528 48.4122C69.2225 48.5465 69.3218 48.6675 69.4451 48.7682C69.5683 48.8689 69.7131 48.9474 69.8711 48.9992L63.6329 63.2198C63.4753 63.1664 63.3072 63.1409 63.1383 63.1445C62.9693 63.1481 62.8029 63.1809 62.6485 63.2409C62.494 63.3009 62.3547 63.387 62.2385 63.4942C62.1222 63.6015 62.0314 63.7277 61.9711 63.8657Z" fill="#D8D17D"/>
<path d="M63.4437 57.4575C65.109 57.183 66.2044 55.7804 65.8903 54.3247C65.5762 52.8691 63.9716 51.9116 62.3063 52.1861C60.641 52.4606 59.5456 53.8632 59.8597 55.3189C60.1737 56.7745 61.7783 57.732 63.4437 57.4575Z" fill="#BFBB68"/>
<path d="M77.3637 35.336L68.811 38.6706C68.2156 38.9012 67.6986 39.2627 67.3105 39.7199L76.8723 36.441L84.7498 32.4604L84.1684 31.3226L77.3637 35.336Z" fill="#C17B5F"/>
<path d="M75.8086 46.5761L74.4356 46.9499L71.9299 48.1631L67.3159 50.3927L66.7307 50.6747C66.2226 50.9211 65.6246 50.9842 65.064 50.8507C64.5034 50.7172 64.0246 50.3975 63.7298 49.9599C63.6878 49.8975 63.6502 49.8329 63.6172 49.7664C63.4065 49.3414 63.3741 48.865 63.5258 48.4212C63.6774 47.9773 64.0034 47.5945 64.4463 47.34L70.3206 43.989L74.5107 40.9954L81.8255 44.7989C81.5347 44.965 81.2192 45.0952 80.8877 45.1858L75.8086 46.5761Z" fill="#C8856A"/>
<path d="M71.9316 48.163L74.4374 46.9498L75.8104 46.576L75.9342 46.8187C75.9854 46.9183 76.0137 47.0258 76.0173 47.1351C76.0209 47.2443 75.9998 47.353 75.9552 47.4551C75.9106 47.5572 75.8433 47.6505 75.7573 47.7298C75.6713 47.8091 75.5682 47.8728 75.454 47.9171L72.4118 49.1041L71.9316 48.163Z" fill="#C8856A"/>
<path d="M66.0889 47.3171L67.5594 49.4549L66.3365 50.1107C66.1759 50.1953 65.9979 50.2513 65.8125 50.2757C65.6272 50.3 65.4382 50.2922 65.2563 50.2526C65.0744 50.213 64.9032 50.1424 64.7526 50.0449C64.602 49.9474 64.4748 49.8249 64.3784 49.6844C64.2816 49.5441 64.2175 49.3885 64.1897 49.2265C64.1618 49.0645 64.1708 48.8992 64.2161 48.7402C64.2614 48.5813 64.3421 48.4317 64.4536 48.3C64.5652 48.1683 64.7053 48.0571 64.866 47.9729L66.0889 47.3171Z" fill="#D89E87"/>
<path d="M75.6352 47.822C75.807 47.7087 75.9298 47.5477 75.9836 47.3656C76.0375 47.1834 76.0191 46.9906 75.9316 46.8187L75.8078 46.576L74.4348 46.9498L73.7559 47.2777C74.422 47.3297 75.0653 47.516 75.6352 47.822Z" fill="#C17B5F"/>
<path d="M81.8578 30.8543L86.5098 39.9659L88.2465 39.2884L83.5946 30.1769L81.8578 30.8543Z" fill="#EEEEEE"/>
<g style="mix-blend-mode:multiply">
<path d="M81.8558 30.8543L82.6309 32.3724L84.3676 31.6949L83.5925 30.1768L81.8558 30.8543Z" fill="#F1F2F2"/>
</g>
<path d="M83.2062 29.414L88.6348 40.0467L115.001 29.7614L109.573 19.1288L83.2062 29.414Z" fill="#8B20E9"/>
<g style="mix-blend-mode:multiply">
<path d="M83.2038 29.4133L84.3672 31.692L110.734 21.4067L109.57 19.1281L83.2038 29.4133Z" fill="#F1F2F2"/>
</g>
<g style="mix-blend-mode:screen">
<path d="M37.8069 14.1805C37.9002 14.333 37.972 14.4949 38.0208 14.6625C38.1313 15.0094 38.1856 15.3681 38.1821 15.7281C38.1852 16.0869 38.1322 16.4443 38.0245 16.7905C37.974 16.9591 37.901 17.122 37.8069 17.2758C37.7152 17.1215 37.6435 16.9587 37.5931 16.7905C37.4823 16.4448 37.428 16.0871 37.4318 15.7281C37.4302 15.3682 37.4844 15.0097 37.5931 14.6625C37.6439 14.4954 37.7156 14.3338 37.8069 14.1805Z" fill="#007D00"/>
<path d="M36.0371 15.7281C36.2128 15.6463 36.3992 15.5835 36.5923 15.5412C36.9878 15.4444 37.397 15.3969 37.8077 15.4002C38.2193 15.3978 38.6294 15.4441 39.0268 15.5379C39.2184 15.5825 39.4035 15.6463 39.5782 15.7281C39.4028 15.8079 39.2179 15.8706 39.0268 15.915C38.63 16.0116 38.2196 16.0591 37.8077 16.056C37.3972 16.0561 36.9885 16.0087 36.5923 15.915C36.3998 15.871 36.2136 15.8083 36.0371 15.7281Z" fill="#007D00"/>
<path d="M85.7601 14.5903C85.8518 14.7446 85.9235 14.9074 85.9739 15.0756C86.081 15.422 86.1353 15.7792 86.1352 16.138C86.1387 16.498 86.0844 16.8567 85.9739 17.2036C85.9231 17.3707 85.8514 17.5323 85.7601 17.6856C85.6665 17.5329 85.5935 17.3711 85.5425 17.2036C85.4352 16.8563 85.3822 16.4978 85.385 16.138C85.3811 15.779 85.4354 15.4213 85.5463 15.0756C85.5946 14.9068 85.6664 14.7439 85.7601 14.5903Z" fill="#007D00"/>
<path d="M83.9922 16.138C84.1676 16.0582 84.3525 15.9955 84.5436 15.9511C84.9412 15.8577 85.3511 15.8103 85.7627 15.8101C86.1735 15.8068 86.5826 15.8542 86.9781 15.9511C87.1706 15.9952 87.3568 16.0578 87.5333 16.138C87.3574 16.2202 87.1711 16.284 86.9781 16.3282C86.5821 16.4223 86.1732 16.4686 85.7627 16.4659C85.3511 16.4683 84.941 16.422 84.5436 16.3282C84.352 16.2836 84.167 16.2198 83.9922 16.138Z" fill="#007D00"/>
<path d="M102.453 53.8749C102.547 54.0275 102.618 54.1893 102.667 54.3569C102.778 54.7038 102.832 55.0625 102.829 55.4226C102.832 55.7813 102.779 56.1387 102.671 56.4849C102.62 56.6536 102.547 56.8164 102.453 56.9702C102.36 56.8167 102.288 56.6537 102.24 56.4849C102.129 56.1392 102.075 55.7816 102.078 55.4226C102.075 55.0625 102.129 54.7038 102.24 54.3569C102.29 54.1899 102.362 54.0282 102.453 53.8749Z" fill="#007D00"/>
<path d="M100.686 55.4226C100.861 55.3407 101.048 55.278 101.241 55.2357C101.636 55.1388 102.045 55.0913 102.456 55.0947C102.868 55.0922 103.278 55.1386 103.675 55.2324C103.867 55.2769 104.052 55.3407 104.227 55.4226C104.051 55.5024 103.866 55.5651 103.675 55.6095C103.278 55.7061 102.868 55.7535 102.456 55.7505C102.046 55.7505 101.637 55.7031 101.241 55.6095C101.048 55.5654 100.862 55.5027 100.686 55.4226Z" fill="#007D00"/>
<path d="M70.7288 70.9088C70.8201 71.0622 70.8919 71.2238 70.9426 71.3908C71.0532 71.7377 71.1075 72.0964 71.1039 72.4565C71.1078 72.8155 71.0535 73.1731 70.9426 73.5189C70.8943 73.6876 70.8225 73.8506 70.7288 74.0041C70.6352 73.8506 70.5634 73.6876 70.515 73.5189C70.4042 73.1731 70.3499 72.8155 70.3537 72.4565C70.3502 72.0964 70.4045 71.7377 70.515 71.3908C70.5658 71.2238 70.6375 71.0622 70.7288 70.9088Z" fill="#007D00"/>
<path d="M68.9609 72.4565C69.1357 72.3747 69.3208 72.3108 69.5124 72.2663C69.9098 72.1725 70.3199 72.1262 70.7315 72.1286C71.1432 72.1245 71.5536 72.1709 71.9506 72.2663C72.1422 72.3108 72.3273 72.3747 72.5021 72.4565C72.3267 72.5363 72.1417 72.599 71.9506 72.6434C71.5534 72.7384 71.1433 72.7858 70.7315 72.7844C70.3198 72.7842 69.9099 72.7368 69.5124 72.6434C69.3213 72.599 69.1363 72.5363 68.9609 72.4565Z" fill="#007D00"/>
<path d="M88.2016 43.4775C88.2929 43.6308 88.3646 43.7925 88.4154 43.9595C88.5227 44.3069 88.5757 44.6653 88.5729 45.0252C88.5776 45.3851 88.5245 45.7438 88.4154 46.0908C88.3646 46.2578 88.2929 46.4195 88.2016 46.5728C88.108 46.42 88.0349 46.2583 87.984 46.0908C87.8748 45.7438 87.8218 45.3851 87.8265 45.0252C87.8237 44.6653 87.8767 44.3069 87.984 43.9595C88.0349 43.792 88.108 43.6303 88.2016 43.4775Z" fill="#007D00"/>
<path d="M86.4277 45.0251C86.6034 44.9433 86.7898 44.8805 86.9829 44.8382C87.7802 44.6503 88.6202 44.6503 89.4174 44.8382C89.6105 44.8805 89.797 44.9433 89.9726 45.0251C89.797 45.107 89.6105 45.1698 89.4174 45.212C88.6202 45.4 87.7802 45.4 86.9829 45.212C86.7905 45.168 86.6043 45.1053 86.4277 45.0251Z" fill="#007D00"/>
<path d="M17.4923 35.6934C17.584 35.8477 17.6557 36.0105 17.7061 36.1787C17.9212 36.8755 17.9212 37.6098 17.7061 38.3067C17.6577 38.4755 17.5859 38.6384 17.4923 38.792C17.3987 38.6384 17.3269 38.4755 17.2785 38.3067C17.0634 37.6098 17.0634 36.8755 17.2785 36.1787C17.3289 36.0105 17.4006 35.8477 17.4923 35.6934Z" fill="#007D00"/>
<path d="M15.7148 37.2443C15.8896 37.1625 16.0747 37.0987 16.2663 37.0541C16.6637 36.9603 17.0738 36.914 17.4854 36.9164C17.8971 36.9124 18.3075 36.9587 18.7045 37.0541C18.8961 37.0987 19.0812 37.1625 19.256 37.2443C19.0806 37.3241 18.8956 37.3868 18.7045 37.4312C18.3073 37.5262 17.8972 37.5736 17.4854 37.5722C17.0737 37.572 16.6638 37.5246 16.2663 37.4312C16.0752 37.3868 15.8902 37.3241 15.7148 37.2443Z" fill="#007D00"/>
<path d="M57.5802 20.3645C57.6742 20.6816 57.7456 21.0036 57.794 21.3285C57.8428 21.617 57.884 21.9547 57.9103 22.3121C57.9366 22.6695 57.9553 23.0597 57.9553 23.4466C57.9553 23.8336 57.9553 24.2172 57.9103 24.5779C57.8653 24.9385 57.8428 25.2763 57.794 25.5615C57.7484 25.8868 57.6769 26.2089 57.5802 26.5255C57.4831 26.2088 57.4105 25.8868 57.3626 25.5615C57.3176 25.273 57.2763 24.9353 57.2501 24.5779C57.2238 24.2205 57.2051 23.8303 57.2051 23.4466C57.2051 23.063 57.2238 22.6728 57.2501 22.3121C57.2763 21.9515 57.3176 21.6137 57.3664 21.3285C57.4125 21.0033 57.484 20.6812 57.5802 20.3645Z" fill="#007D00"/>
<path d="M54.0488 23.45C54.4113 23.3656 54.7797 23.302 55.1517 23.2598C55.4818 23.2204 55.8682 23.1844 56.277 23.1614C56.6859 23.1385 57.1286 23.1221 57.5712 23.1221C58.0138 23.1221 58.4527 23.1221 58.8653 23.1614C59.278 23.2008 59.6643 23.2172 59.9907 23.2598C60.3627 23.302 60.7311 23.3656 61.0935 23.45C60.7307 23.5321 60.3624 23.5945 59.9907 23.6369C59.6568 23.6795 59.2742 23.7156 58.8653 23.7385C58.4565 23.7615 58.0101 23.7779 57.5712 23.7779C57.1323 23.7779 56.6897 23.7615 56.277 23.7352C55.8644 23.709 55.4743 23.6795 55.1517 23.6369C54.78 23.5945 54.4117 23.5321 54.0488 23.45Z" fill="#007D00"/>
<path d="M60.075 21.2662C59.887 21.5501 59.6777 21.8229 59.4486 22.0827C59.246 22.3155 59.0022 22.581 58.7283 22.8499C58.4545 23.1188 58.1582 23.4073 57.8468 23.6795C57.5355 23.9516 57.2091 24.2172 56.8978 24.4533C56.5864 24.6894 56.2863 24.9058 56.0162 25.0796C55.72 25.2805 55.4093 25.4645 55.0859 25.6304C55.2739 25.3465 55.4832 25.0738 55.7124 24.814C55.9112 24.5812 56.155 24.3156 56.4289 24.0467C56.7027 23.7778 57.0028 23.4893 57.3141 23.2172C57.6255 22.945 57.9518 22.6827 58.2632 22.4433C58.5745 22.204 58.8746 21.9908 59.1447 21.8171C59.441 21.6162 59.7517 21.4322 60.075 21.2662Z" fill="#007D00"/>
<path d="M55.0859 21.2662C55.4093 21.4322 55.72 21.6162 56.0162 21.8171C56.2863 21.9908 56.5864 22.204 56.8978 22.4433C57.2091 22.6827 57.5317 22.945 57.8468 23.2172C58.1619 23.4893 58.4582 23.7713 58.7283 24.0467C58.9984 24.3221 59.2498 24.5812 59.4486 24.814C59.6777 25.0738 59.887 25.3465 60.075 25.6304C59.7466 25.465 59.4308 25.2809 59.1297 25.0796C58.8596 24.9058 58.5595 24.6927 58.2482 24.4533C57.9368 24.2139 57.6105 23.9516 57.2991 23.6795C56.9878 23.4073 56.6877 23.1253 56.4176 22.8499C56.1475 22.5745 55.8962 22.3155 55.6974 22.0827C55.4733 21.8225 55.2691 21.5498 55.0859 21.2662Z" fill="#007D00"/>
<path d="M85.7599 58.5047C85.8539 58.8219 85.9253 59.1438 85.9737 59.4687C86.0225 59.7606 86.06 60.095 86.0862 60.4524C86.1125 60.8098 86.135 61.1967 86.135 61.5836C86.135 61.9705 86.1162 62.3542 86.09 62.7148C86.0637 63.0755 86.0225 63.4165 85.9737 63.6985C85.9253 64.0234 85.8539 64.3454 85.7599 64.6625C85.6633 64.3457 85.5907 64.0237 85.5423 63.6985C85.4936 63.41 85.456 63.0722 85.4298 62.7148C85.4035 62.3574 85.3848 61.9705 85.3848 61.5836C85.3848 61.1967 85.3848 60.8131 85.4298 60.4524C85.4748 60.0917 85.4973 59.754 85.5461 59.4687C85.5922 59.1435 85.6636 58.8214 85.7599 58.5047Z" fill="#007D00"/>
<path d="M82.2324 61.5902C82.5953 61.508 82.9636 61.4456 83.3353 61.4033C83.6654 61.3606 84.0517 61.3246 84.4606 61.3016C84.8695 61.2787 85.3159 61.2623 85.7585 61.2623C86.2012 61.2623 86.6401 61.2623 87.0527 61.3016C87.4653 61.341 87.8517 61.3606 88.178 61.4033C88.5502 61.4432 88.9187 61.5056 89.2809 61.5902C88.9187 61.6747 88.5502 61.7372 88.178 61.7771C87.8479 61.8197 87.4616 61.8558 87.0527 61.8787C86.6438 61.9017 86.1974 61.918 85.7585 61.918C85.3196 61.918 84.8733 61.9181 84.4606 61.8787C84.048 61.8394 83.6616 61.8197 83.3353 61.7771C82.9636 61.7347 82.5953 61.6723 82.2324 61.5902Z" fill="#007D00"/>
<path d="M88.2552 59.4097C88.0692 59.6943 87.8625 59.9681 87.6362 60.2294C87.4374 60.4655 87.1936 60.7278 86.9197 61C86.6459 61.2721 86.3496 61.5574 86.0345 61.8295C85.7194 62.1017 85.4005 62.364 85.0892 62.6034C84.7778 62.8427 84.474 63.0558 84.2076 63.2296C83.9113 63.4294 83.6006 63.6123 83.2773 63.7772C83.4649 63.4941 83.6742 63.2224 83.9038 62.964C84.1026 62.728 84.3464 62.4656 84.6203 62.1935C84.8941 61.9213 85.1942 61.6361 85.5055 61.3639C85.8169 61.0918 86.1395 60.8295 86.4546 60.5934C86.7697 60.3573 87.066 60.1409 87.3361 59.9638C87.6279 59.7613 87.9349 59.5762 88.2552 59.4097Z" fill="#007D00"/>
<path d="M83.2656 59.4097C83.5888 59.5746 83.8996 59.7575 84.1959 59.9573C84.4622 60.1343 84.7661 60.3475 85.0774 60.5868C85.3888 60.8262 85.7114 61.0852 86.0227 61.3574C86.3341 61.6295 86.6379 61.9148 86.908 62.1869C87.1781 62.4591 87.4257 62.7214 87.6283 62.9575C87.8562 63.2169 88.0654 63.4885 88.2547 63.7706C87.9299 63.6063 87.6178 63.4234 87.3207 63.2231C87.0543 63.0493 86.7542 62.8362 86.4429 62.5968C86.1315 62.3574 85.8052 62.0951 85.4938 61.823C85.1825 61.5508 84.8824 61.2656 84.6085 60.9934C84.3347 60.7213 84.0909 60.4589 83.8846 60.2294C83.6573 59.9687 83.4505 59.6949 83.2656 59.4097Z" fill="#007D00"/>
<path d="M32.6661 47.704C32.7627 48.0208 32.8354 48.3429 32.8837 48.668C32.9287 48.9566 32.97 49.2943 32.9962 49.6517C33.0225 50.0091 33.0413 50.396 33.0413 50.7829C33.0413 51.1698 33.0412 51.5534 32.9962 51.9141C32.9512 52.2748 32.9325 52.6158 32.8837 52.8978C32.8354 53.2229 32.7627 53.545 32.6661 53.8618C32.5721 53.5446 32.5007 53.2227 32.4523 52.8978C32.4035 52.6093 32.3623 52.2715 32.336 51.9141C32.3098 51.5567 32.291 51.1698 32.291 50.7829C32.291 50.396 32.291 50.0124 32.3398 49.6517C32.3885 49.291 32.4035 48.95 32.4523 48.668C32.5007 48.3431 32.5721 48.0212 32.6661 47.704Z" fill="#007D00"/>
<path d="M29.1406 50.7895C29.5034 50.7069 29.8717 50.6445 30.2435 50.6026C30.5736 50.56 30.9599 50.5239 31.3688 50.501C31.7777 50.478 32.2241 50.4616 32.663 50.4616C33.1019 50.4616 33.5483 50.4616 33.9609 50.501C34.3735 50.5403 34.7599 50.56 35.0863 50.6026C35.4583 50.6429 35.8268 50.7054 36.1891 50.7895C35.8268 50.8736 35.4583 50.9361 35.0863 50.9764C34.7561 51.019 34.3698 51.0551 33.9609 51.078C33.552 51.101 33.1056 51.1174 32.663 51.1174C32.2203 51.1174 31.7815 51.101 31.3688 51.078C30.9562 51.0551 30.5698 51.019 30.2435 50.9764C29.8717 50.9345 29.5034 50.8721 29.1406 50.7895Z" fill="#007D00"/>
<path d="M35.159 48.609C34.9714 48.8921 34.7621 49.1638 34.5325 49.4222C34.3337 49.6583 34.0899 49.9206 33.8161 50.1927C33.5422 50.4649 33.2421 50.7501 32.9308 51.0223C32.6194 51.2944 32.2968 51.5567 31.9817 51.7928C31.6666 52.0289 31.3703 52.2486 31.104 52.4224C30.8068 52.6227 30.4947 52.8056 30.1699 52.9699C30.3592 52.6878 30.5684 52.4162 30.7964 52.1568C30.9989 51.9207 31.2428 51.6584 31.5166 51.3862C31.7904 51.1141 32.0868 50.8288 32.4019 50.5567C32.717 50.2845 33.0358 50.0222 33.3472 49.7861C33.6585 49.5501 33.9624 49.3336 34.2287 49.1566C34.525 48.9568 34.8358 48.7739 35.159 48.609Z" fill="#007D00"/>
<path d="M30.1699 48.609C30.4938 48.773 30.8046 48.9559 31.1002 49.1566C31.3703 49.3336 31.6704 49.5468 31.9817 49.7861C32.2931 50.0255 32.6194 50.2845 32.9308 50.5567C33.2421 50.8288 33.5422 51.1141 33.8161 51.3862C34.0899 51.6584 34.3337 51.9207 34.5325 52.1568C34.7621 52.4152 34.9714 52.6868 35.159 52.9699C34.8358 52.8051 34.525 52.6222 34.2287 52.4224C33.9624 52.2486 33.6585 52.0322 33.3472 51.7928C33.0358 51.5535 32.7132 51.2944 32.4019 51.0223C32.0905 50.7501 31.7904 50.4649 31.5166 50.1927C31.2428 49.9206 30.9989 49.6583 30.8001 49.4222C30.5703 49.1632 30.3598 48.8916 30.1699 48.609Z" fill="#007D00"/>
<path d="M0.527462 57.1538C0.621952 57.4709 0.693367 57.7929 0.741279 58.1178C0.790045 58.4064 0.83131 58.7441 0.857568 59.1015C0.883826 59.4589 0.90258 59.8491 0.90258 60.2327C0.90258 60.6163 0.902582 61.0065 0.857568 61.3672C0.812554 61.7279 0.790045 62.0656 0.741279 62.3509C0.695631 62.6761 0.624187 62.9983 0.527462 63.3149C0.430414 62.9981 0.357728 62.6761 0.309893 62.3509C0.264879 62.0623 0.223617 61.7246 0.197359 61.3672C0.171101 61.0098 0.152344 60.6196 0.152344 60.2327C0.152344 59.8458 0.152345 59.4622 0.197359 59.1015C0.242373 58.7408 0.264879 58.4031 0.313645 58.1178C0.359293 57.7925 0.430737 57.4704 0.527462 57.1538Z" fill="#007D00"/>
<path d="M-3.00195 60.2294C-2.63911 60.1473 -2.27079 60.0849 -1.89911 60.0425C-1.569 59.9999 -1.18263 59.9671 -0.773753 59.9442C-0.364874 59.9212 0.0815167 59.9016 0.524156 59.9016C0.966796 59.9016 1.40569 59.9179 1.81832 59.9409C2.23095 59.9638 2.61732 59.9999 2.94367 60.0425C3.31535 60.0849 3.68367 60.1473 4.04652 60.2294C3.68405 60.3138 3.31565 60.3774 2.94367 60.4196C2.60982 60.4622 2.22719 60.4983 1.81832 60.5213C1.40944 60.5442 0.963045 60.5573 0.524156 60.5573C0.0852678 60.5573 -0.357371 60.5573 -0.773753 60.518C-1.19013 60.4786 -1.57275 60.4622 -1.89911 60.4196C-2.27108 60.3774 -2.63949 60.3138 -3.00195 60.2294Z" fill="#007D00"/>
<path d="M3.02032 58.0555C2.83233 58.3395 2.62306 58.6122 2.39388 58.872C2.19131 59.1048 1.94748 59.3671 1.67365 59.6393C1.39981 59.9114 1.10347 60.1967 0.792121 60.4688C0.480772 60.741 0.15442 61.0033 -0.156928 61.2426C-0.468276 61.482 -0.76837 61.6951 -1.03846 61.8689C-1.33469 62.0698 -1.64543 62.2538 -1.96875 62.4198C-1.78076 62.1358 -1.57148 61.8631 -1.3423 61.6033C-1.14349 61.3705 -0.899662 61.1049 -0.625826 60.8328C-0.35199 60.5606 -0.0518948 60.2786 0.259453 60.0065C0.570801 59.7343 0.897154 59.472 1.2085 59.2327C1.51985 58.9933 1.81994 58.7802 2.09003 58.6064C2.38626 58.4055 2.69701 58.2215 3.02032 58.0555Z" fill="#007D00"/>
<path d="M-1.96875 58.0555C-1.64543 58.2215 -1.33469 58.4055 -1.03846 58.6064C-0.772122 58.7802 -0.468276 58.9933 -0.156928 59.2327C0.15442 59.472 0.477021 59.7343 0.792121 60.0065C1.10722 60.2786 1.40356 60.5606 1.67365 60.8328C1.94373 61.1049 2.19506 61.3705 2.39388 61.6033C2.62306 61.8631 2.83233 62.1358 3.02032 62.4198C2.70343 62.2532 2.39897 62.0692 2.10879 61.8689C1.8387 61.6951 1.53861 61.482 1.22726 61.2426C0.915911 61.0033 0.589559 60.741 0.27821 60.4688C-0.0331377 60.1967 -0.333235 59.9147 -0.60332 59.6393C-0.873405 59.3638 -1.12473 59.1048 -1.32355 58.872C-1.55916 58.6127 -1.77471 58.3399 -1.96875 58.0555Z" fill="#007D00"/>
</g>
</g>
<defs>
<clipPath id="clip0_601_3707">
<path d="M0 8C0 3.58172 3.58172 0 8 0H95C99.4183 0 103 3.58172 103 8V95C103 99.4183 99.4183 103 95 103H8C3.58172 103 0 99.4183 0 95V8Z" fill="white"/>
</clipPath>
</defs>
</svg>
