<svg width="141" height="141" viewBox="0 0 141 141" fill="none" xmlns="http://www.w3.org/2000/svg">
<path d="M84.8036 72.5664C88.8477 69.3847 91.7995 65.0215 93.2484 60.084C94.6973 55.1464 94.5712 49.88 92.8877 45.0175C91.2041 40.155 88.0469 35.9381 83.8551 32.9535C79.6633 29.9689 74.6455 28.365 69.4998 28.365C64.3541 28.365 59.3363 29.9689 55.1445 32.9535C50.9528 35.9381 47.7955 40.155 46.1119 45.0175C44.4284 49.88 44.3023 55.1464 45.7512 60.084C47.2001 65.0215 50.1519 69.3847 54.1961 72.5664C47.2664 75.3427 41.22 79.9475 36.7015 85.8898C32.183 91.8322 29.3618 98.8893 28.5386 106.309C28.479 106.851 28.5267 107.399 28.6789 107.922C28.8312 108.445 29.085 108.933 29.4259 109.359C30.1144 110.217 31.1158 110.767 32.2098 110.888C33.3038 111.008 34.4008 110.689 35.2595 110C36.1182 109.312 36.6682 108.31 36.7886 107.216C37.6943 99.1529 41.5393 91.7057 47.5887 86.2977C53.6382 80.8898 61.468 77.9002 69.5823 77.9002C77.6966 77.9002 85.5265 80.8898 91.5759 86.2977C97.6253 91.7057 101.47 99.1529 102.376 107.216C102.488 108.23 102.972 109.166 103.734 109.844C104.495 110.522 105.481 110.894 106.501 110.888H106.955C108.036 110.763 109.024 110.217 109.704 109.367C110.384 108.517 110.701 107.432 110.585 106.35C109.758 98.9095 106.921 91.8343 102.38 85.8828C97.8378 79.9313 91.7621 75.328 84.8036 72.5664V72.5664ZM69.4998 69.6377C66.2364 69.6377 63.0463 68.67 60.3329 66.8569C57.6195 65.0439 55.5046 62.467 54.2558 59.452C53.0069 56.437 52.6802 53.1194 53.3168 49.9187C53.9535 46.718 55.525 43.778 57.8325 41.4704C60.1401 39.1629 63.0801 37.5914 66.2808 36.9547C69.4815 36.3181 72.7991 36.6448 75.8141 37.8937C78.8291 39.1425 81.406 41.2574 83.2191 43.9708C85.0321 46.6842 85.9998 49.8743 85.9998 53.1377C85.9998 57.5138 84.2614 61.7106 81.1671 64.805C78.0727 67.8993 73.8759 69.6377 69.4998 69.6377Z" fill="#E8E8E8"/>
<path d="M4.01465 115C4.34851 119.213 5.03445 122.287 6.45605 124.922C8.58691 128.871 11.8263 132.11 15.7754 134.241C18.9983 135.98 22.8788 136.62 28.6973 136.857V140.861C27.3758 140.809 26.1401 140.74 24.9824 140.641C20.967 140.296 17.5652 139.603 14.4873 138.078L13.876 137.762C9.38475 135.338 5.67548 131.693 3.17383 127.253L2.93555 126.821C1.18818 123.583 0.423816 119.998 0.0566406 115.715C0.0364931 115.48 0.017952 115.242 0 115H4.01465ZM140.338 115.715C139.994 119.73 139.301 123.132 137.775 126.21L137.459 126.821C135.036 131.313 131.391 135.022 126.95 137.523L126.519 137.762C124.144 139.043 121.583 139.794 118.697 140.249V136.193C120.776 135.823 122.54 135.283 124.135 134.492L124.619 134.241C128.445 132.177 131.604 129.072 133.735 125.29L133.938 124.922C135.36 122.287 136.046 119.213 136.38 115H140.395C140.377 115.242 140.358 115.48 140.338 115.715ZM28.6973 4.1416C22.8788 4.37908 18.9984 5.01977 15.7754 6.75879L15.4072 6.96191C11.625 9.09292 8.5203 12.2525 6.45605 16.0781L6.20508 16.5625C5.05971 18.8723 4.43864 21.5373 4.10059 25H0.0830078C0.459592 20.8426 1.22712 17.345 2.93555 14.1787L3.17383 13.7471C5.67548 9.30667 9.38475 5.66165 13.876 3.23828L14.4873 2.92188C17.5652 1.39675 20.967 0.703605 24.9824 0.359375C26.1401 0.260137 27.3758 0.189696 28.6973 0.137695V4.1416ZM118.697 0.75C121.583 1.20517 124.144 1.95704 126.519 3.23828L126.95 3.47656C131.391 5.97822 135.036 9.68748 137.459 14.1787L137.775 14.79C139.264 17.7948 139.959 21.1083 140.312 25H136.294C135.956 21.5373 135.335 18.8723 134.189 16.5625L133.938 16.0781C131.874 12.2525 128.77 9.09292 124.987 6.96191L124.619 6.75879C122.898 5.82999 120.989 5.21426 118.697 4.80566V0.75Z" fill="#E8E8E8"/>
</svg>
