<svg width="28" height="28" viewBox="0 0 28 28" fill="none" xmlns="http://www.w3.org/2000/svg">
<path d="M24.4469 11.9437C24.6832 12.6875 24.3769 13.4575 23.7732 13.65C23.1607 13.8425 22.4782 13.3962 22.2419 12.6437C22.0057 11.8912 22.3119 11.13 22.9157 10.9375C23.5194 10.745 24.2107 11.1912 24.4469 11.9437ZM11.5232 11.9437C11.7594 12.6875 11.4532 13.4575 10.8494 13.65C10.2369 13.8337 9.55443 13.3875 9.31818 12.635C9.08193 11.8825 9.38818 11.1212 9.99193 10.9287C10.6044 10.745 11.2869 11.1912 11.5232 11.9437Z" fill="#2C2C2C"/>
<path d="M7.5775 19.25C9.02481 19.2505 10.4334 18.7825 11.5926 17.916C12.7519 17.0495 13.5995 15.831 14.0087 14.4427C14.418 15.831 15.2656 17.0495 16.4249 17.916C17.5841 18.7825 18.9927 19.2505 20.44 19.25C21.3202 19.2502 22.1919 19.077 23.0052 18.7403C23.8185 18.4035 24.5575 17.9098 25.1799 17.2874C25.8023 16.665 26.296 15.926 26.6328 15.1127C26.9695 14.2994 27.1427 13.4277 27.1425 12.5475C27.1425 11.627 26.9561 10.8412 26.5475 10.2007C26.1336 9.55411 25.5448 9.13937 24.8876 8.87424C23.6443 8.37374 21.9984 8.36499 20.44 8.36499C19.2439 8.36499 18.0276 8.37374 16.9943 8.58286C16.1438 8.75349 15.3151 9.07986 14.7017 9.72824C14.2424 9.66178 13.7759 9.66178 13.3166 9.72824C12.7041 9.08074 11.8746 8.75436 11.025 8.58286C9.99163 8.37461 8.7745 8.36499 7.5775 8.36499C6.01825 8.36499 4.37325 8.37374 3.12988 8.87424C2.47275 9.13937 1.88388 9.55411 1.47088 10.2007C1.06138 10.8412 0.875 11.627 0.875 12.5475C0.87477 13.4277 1.04798 14.2994 1.38473 15.1127C1.72148 15.926 2.21517 16.665 2.8376 17.2874C3.46003 17.9098 4.199 18.4035 5.01229 18.7403C5.82558 19.077 6.69725 19.2502 7.5775 19.25ZM20.4312 17.57C17.78 17.57 15.6275 15.4175 15.6275 12.7662C15.6275 10.115 17.78 10.045 20.4312 10.045C23.0825 10.045 25.235 10.115 25.235 12.7662C25.235 15.4175 23.0825 17.57 20.4312 17.57ZM7.5775 17.57C4.92625 17.57 2.77375 15.4175 2.77375 12.7662C2.77375 10.115 4.92625 10.1036 7.5775 10.1036C10.2288 10.1036 12.3812 10.115 12.3812 12.7662C12.3812 15.4175 10.2288 17.57 7.5775 17.57Z" fill="#2C2C2C"/>
</svg>
