<svg width="28" height="29" viewBox="0 0 28 29" fill="none" xmlns="http://www.w3.org/2000/svg">
<rect y="0.5" width="28" height="28" rx="14" fill="#E8E8E8"/>
<path d="M19.087 8.93332C19.0095 8.87066 18.919 8.82616 18.8221 8.80309C18.7252 8.78002 18.6244 8.77895 18.527 8.79998C17.8146 8.94928 17.0792 8.95118 16.3661 8.80557C15.6529 8.65996 14.9772 8.36992 14.3803 7.95332C14.2687 7.8759 14.1362 7.83441 14.0003 7.83441C13.8645 7.83441 13.7319 7.8759 13.6203 7.95332C13.0235 8.36992 12.3477 8.65996 11.6346 8.80557C10.9214 8.95118 10.186 8.94928 9.47366 8.79998C9.37629 8.77895 9.27544 8.78002 9.17853 8.80309C9.08162 8.82616 8.99111 8.87066 8.91366 8.93332C8.83632 8.99606 8.77401 9.07534 8.73132 9.16533C8.68864 9.25531 8.66666 9.35372 8.667 9.45332V14.42C8.6664 15.3758 8.89418 16.318 9.33135 17.168C9.76853 18.018 10.4024 18.7512 11.1803 19.3066L13.6137 21.04C13.7266 21.1204 13.8617 21.1636 14.0003 21.1636C14.1389 21.1636 14.2741 21.1204 14.387 21.04L16.8203 19.3066C17.5982 18.7512 18.2321 18.018 18.6693 17.168C19.1065 16.318 19.3343 15.3758 19.3337 14.42V9.45332C19.334 9.35372 19.312 9.25531 19.2693 9.16533C19.2266 9.07534 19.1643 8.99606 19.087 8.93332ZM18.0003 14.42C18.0008 15.1632 17.8239 15.8957 17.4841 16.5567C17.1443 17.2176 16.6516 17.7879 16.047 18.22L14.0003 19.68L11.9537 18.22C11.349 17.7879 10.8563 17.2176 10.5166 16.5567C10.1768 15.8957 9.99982 15.1632 10.0003 14.42V10.22C11.3979 10.3396 12.7977 10.0153 14.0003 9.29332C15.203 10.0153 16.6027 10.3396 18.0003 10.22V14.42ZM15.027 12.8933L13.2337 14.6933L12.6403 14.0933C12.5148 13.9678 12.3445 13.8973 12.167 13.8973C11.9895 13.8973 11.8192 13.9678 11.6937 14.0933C11.5681 14.2189 11.4976 14.3891 11.4976 14.5666C11.4976 14.7442 11.5681 14.9144 11.6937 15.04L12.7603 16.1066C12.8223 16.1691 12.896 16.2187 12.9773 16.2526C13.0585 16.2864 13.1457 16.3038 13.2337 16.3038C13.3217 16.3038 13.4088 16.2864 13.49 16.2526C13.5713 16.2187 13.645 16.1691 13.707 16.1066L16.0003 13.8333C16.1259 13.7078 16.1964 13.5375 16.1964 13.36C16.1964 13.1824 16.1259 13.0122 16.0003 12.8866C15.8748 12.7611 15.7045 12.6906 15.527 12.6906C15.3495 12.6906 15.1792 12.7611 15.0537 12.8866L15.027 12.8933Z" fill="#2C2C2C"/>
</svg>
