<svg width="28" height="28" viewBox="0 0 28 28" fill="none" xmlns="http://www.w3.org/2000/svg">
<rect width="28" height="28" rx="14" fill="#E8E8E8"/>
<path d="M10.6663 16H12.6663C12.8432 16 13.0127 15.9297 13.1377 15.8047C13.2628 15.6797 13.333 15.5101 13.333 15.3333C13.333 15.1565 13.2628 14.9869 13.1377 14.8619C13.0127 14.7369 12.8432 14.6666 12.6663 14.6666H10.6663C10.4895 14.6666 10.32 14.7369 10.1949 14.8619C10.0699 14.9869 9.99967 15.1565 9.99967 15.3333C9.99967 15.5101 10.0699 15.6797 10.1949 15.8047C10.32 15.9297 10.4895 16 10.6663 16ZM18.6663 9.33331H9.33301C8.80257 9.33331 8.29387 9.54403 7.91879 9.9191C7.54372 10.2942 7.33301 10.8029 7.33301 11.3333V17.3333C7.33301 17.8637 7.54372 18.3725 7.91879 18.7475C8.29387 19.1226 8.80257 19.3333 9.33301 19.3333H18.6663C19.1968 19.3333 19.7055 19.1226 20.0806 18.7475C20.4556 18.3725 20.6663 17.8637 20.6663 17.3333V11.3333C20.6663 10.8029 20.4556 10.2942 20.0806 9.9191C19.7055 9.54403 19.1968 9.33331 18.6663 9.33331ZM19.333 17.3333C19.333 17.5101 19.2628 17.6797 19.1377 17.8047C19.0127 17.9297 18.8432 18 18.6663 18H9.33301C9.1562 18 8.98663 17.9297 8.8616 17.8047C8.73658 17.6797 8.66634 17.5101 8.66634 17.3333V13.3333H19.333V17.3333ZM19.333 12H8.66634V11.3333C8.66634 11.1565 8.73658 10.9869 8.8616 10.8619C8.98663 10.7369 9.1562 10.6666 9.33301 10.6666H18.6663C18.8432 10.6666 19.0127 10.7369 19.1377 10.8619C19.2628 10.9869 19.333 11.1565 19.333 11.3333V12Z" fill="#2C2C2C"/>
</svg>
