<svg width="30" height="24" viewBox="0 0 30 24" fill="none" xmlns="http://www.w3.org/2000/svg">
<path d="M6.49967 23.3334C4.94134 23.3334 3.60731 22.7785 2.49759 21.6688C1.38787 20.559 0.833008 19.225 0.833008 17.6667V6.33335C0.833008 4.77502 1.38787 3.44099 2.49759 2.33127C3.60731 1.22155 4.94134 0.666687 6.49967 0.666687H23.4997C25.058 0.666687 26.392 1.22155 27.5018 2.33127C28.6115 3.44099 29.1663 4.77502 29.1663 6.33335V17.6667C29.1663 19.225 28.6115 20.559 27.5018 21.6688C26.392 22.7785 25.058 23.3334 23.4997 23.3334H6.49967ZM6.49967 6.33335H23.4997C24.0191 6.33335 24.515 6.39238 24.9872 6.51044C25.4594 6.62849 25.908 6.81738 26.333 7.0771V6.33335C26.333 5.55419 26.0558 4.88741 25.5014 4.33302C24.947 3.77863 24.2798 3.50096 23.4997 3.50002H6.49967C5.72051 3.50002 5.05373 3.77769 4.49934 4.33302C3.94495 4.88835 3.66729 5.55513 3.66634 6.33335V7.0771C4.09134 6.81738 4.53995 6.62849 5.01217 6.51044C5.4844 6.39238 5.98023 6.33335 6.49967 6.33335ZM3.87884 10.9375L19.6393 14.7625C19.8518 14.8097 20.0643 14.8097 20.2768 14.7625C20.4893 14.7153 20.69 14.6209 20.8788 14.4792L25.8018 10.3709C25.542 10.0167 25.2115 9.72769 24.8101 9.50385C24.4087 9.28002 23.9719 9.16763 23.4997 9.16669H6.49967C5.88579 9.16669 5.34887 9.3263 4.88892 9.64552C4.42898 9.96474 4.09229 10.3954 3.87884 10.9375Z" fill="black"/>
</svg>
