<svg width="363" height="52" viewBox="0 0 363 52" fill="none" xmlns="http://www.w3.org/2000/svg">
<rect x="1" y="1" width="361" height="50" rx="8" stroke="#8D8C95" stroke-width="1.2" stroke-dasharray="2.4 2.4"/>
<path d="M55.061 31.21C54.0577 31.21 53.2107 30.9883 52.52 30.545C51.8293 30.097 51.3067 29.4787 50.952 28.69C50.5973 27.9013 50.42 26.9913 50.42 25.96C50.42 24.9287 50.5973 24.0187 50.952 23.23C51.3067 22.4413 51.8293 21.8253 52.52 21.382C53.2107 20.934 54.0577 20.71 55.061 20.71C56.2323 20.71 57.189 21.011 57.931 21.613C58.673 22.2103 59.1817 23.013 59.457 24.021L58.407 24.294C58.1923 23.496 57.8073 22.8637 57.252 22.397C56.6967 21.9303 55.9663 21.697 55.061 21.697C54.2723 21.697 53.6167 21.8767 53.094 22.236C52.5713 22.5953 52.177 23.097 51.911 23.741C51.6497 24.3803 51.5143 25.12 51.505 25.96C51.5003 26.8 51.6287 27.5397 51.89 28.179C52.156 28.8183 52.5527 29.32 53.08 29.684C53.612 30.0433 54.2723 30.223 55.061 30.223C55.9663 30.223 56.6967 29.9897 57.252 29.523C57.8073 29.0517 58.1923 28.4193 58.407 27.626L59.457 27.899C59.1817 28.907 58.673 29.712 57.931 30.314C57.189 30.9113 56.2323 31.21 55.061 31.21ZM66.4615 31V27.143C66.4615 26.723 66.4218 26.338 66.3425 25.988C66.2632 25.6333 66.1348 25.3253 65.9575 25.064C65.7848 24.798 65.5585 24.5927 65.2785 24.448C65.0032 24.3033 64.6672 24.231 64.2705 24.231C63.9065 24.231 63.5845 24.294 63.3045 24.42C63.0292 24.546 62.7958 24.728 62.6045 24.966C62.4178 25.1993 62.2755 25.484 62.1775 25.82C62.0795 26.156 62.0305 26.5387 62.0305 26.968L61.3025 26.807C61.3025 26.0323 61.4378 25.3813 61.7085 24.854C61.9792 24.3267 62.3525 23.9277 62.8285 23.657C63.3045 23.3863 63.8505 23.251 64.4665 23.251C64.9192 23.251 65.3135 23.321 65.6495 23.461C65.9902 23.601 66.2772 23.79 66.5105 24.028C66.7485 24.266 66.9398 24.539 67.0845 24.847C67.2292 25.1503 67.3342 25.4747 67.3995 25.82C67.4648 26.1607 67.4975 26.5013 67.4975 26.842V31H66.4615ZM60.9945 31V20.92H61.9255V26.611H62.0305V31H60.9945ZM72.471 31.21C71.7197 31.21 71.078 31.0397 70.546 30.699C70.014 30.3583 69.6057 29.887 69.321 29.285C69.0363 28.683 68.894 27.9923 68.894 27.213C68.894 26.4197 69.0387 25.7243 69.328 25.127C69.6173 24.5297 70.028 24.0653 70.56 23.734C71.0967 23.398 71.7337 23.23 72.471 23.23C73.227 23.23 73.871 23.4003 74.403 23.741C74.9397 24.077 75.348 24.546 75.628 25.148C75.9127 25.7453 76.055 26.4337 76.055 27.213C76.055 28.0063 75.9127 28.704 75.628 29.306C75.3433 29.9033 74.9327 30.37 74.396 30.706C73.8593 31.042 73.2177 31.21 72.471 31.21ZM72.471 30.223C73.311 30.223 73.9363 29.9453 74.347 29.39C74.7577 28.83 74.963 28.1043 74.963 27.213C74.963 26.2983 74.7553 25.5703 74.34 25.029C73.9293 24.4877 73.3063 24.217 72.471 24.217C71.9063 24.217 71.4397 24.3453 71.071 24.602C70.707 24.854 70.434 25.2063 70.252 25.659C70.0747 26.107 69.986 26.625 69.986 27.213C69.986 28.123 70.196 28.8533 70.616 29.404C71.036 29.95 71.6543 30.223 72.471 30.223ZM80.7561 31.21C80.0048 31.21 79.3631 31.0397 78.8311 30.699C78.2991 30.3583 77.8908 29.887 77.6061 29.285C77.3215 28.683 77.1791 27.9923 77.1791 27.213C77.1791 26.4197 77.3238 25.7243 77.6131 25.127C77.9025 24.5297 78.3131 24.0653 78.8451 23.734C79.3818 23.398 80.0188 23.23 80.7561 23.23C81.5121 23.23 82.1561 23.4003 82.6881 23.741C83.2248 24.077 83.6331 24.546 83.9131 25.148C84.1978 25.7453 84.3401 26.4337 84.3401 27.213C84.3401 28.0063 84.1978 28.704 83.9131 29.306C83.6285 29.9033 83.2178 30.37 82.6811 30.706C82.1445 31.042 81.5028 31.21 80.7561 31.21ZM80.7561 30.223C81.5961 30.223 82.2215 29.9453 82.6321 29.39C83.0428 28.83 83.2481 28.1043 83.2481 27.213C83.2481 26.2983 83.0405 25.5703 82.6251 25.029C82.2145 24.4877 81.5915 24.217 80.7561 24.217C80.1915 24.217 79.7248 24.3453 79.3561 24.602C78.9921 24.854 78.7191 25.2063 78.5371 25.659C78.3598 26.107 78.2711 26.625 78.2711 27.213C78.2711 28.123 78.4811 28.8533 78.9011 29.404C79.3211 29.95 79.9395 30.223 80.7561 30.223ZM88.6369 31.203C87.7503 31.203 87.0199 31.0117 86.4459 30.629C85.8766 30.2463 85.5266 29.7143 85.3959 29.033L86.4459 28.858C86.5579 29.2873 86.8123 29.6303 87.2089 29.887C87.6103 30.139 88.1049 30.265 88.6929 30.265C89.2669 30.265 89.7196 30.146 90.0509 29.908C90.3823 29.6653 90.5479 29.3363 90.5479 28.921C90.5479 28.6877 90.4943 28.4987 90.3869 28.354C90.2843 28.2047 90.0719 28.067 89.7499 27.941C89.4279 27.815 88.9473 27.6657 88.3079 27.493C87.6219 27.3063 87.0853 27.1197 86.6979 26.933C86.3106 26.7463 86.0353 26.5317 85.8719 26.289C85.7086 26.0417 85.6269 25.7407 85.6269 25.386C85.6269 24.9567 85.7483 24.581 85.9909 24.259C86.2336 23.9323 86.5696 23.6803 86.9989 23.503C87.4283 23.321 87.9276 23.23 88.4969 23.23C89.0663 23.23 89.5749 23.3233 90.0229 23.51C90.4756 23.692 90.8396 23.9487 91.1149 24.28C91.3903 24.6113 91.5536 24.9963 91.6049 25.435L90.5549 25.624C90.4849 25.1807 90.2633 24.8307 89.8899 24.574C89.5213 24.3127 89.0523 24.1773 88.4829 24.168C87.9463 24.154 87.5099 24.2567 87.1739 24.476C86.8379 24.6907 86.6699 24.9777 86.6699 25.337C86.6699 25.5377 86.7306 25.7103 86.8519 25.855C86.9733 25.995 87.1926 26.128 87.5099 26.254C87.8319 26.38 88.2893 26.5177 88.8819 26.667C89.5773 26.8443 90.1233 27.031 90.5199 27.227C90.9166 27.423 91.1989 27.654 91.3669 27.92C91.5349 28.186 91.6189 28.515 91.6189 28.907C91.6189 29.621 91.3529 30.1833 90.8209 30.594C90.2936 31 89.5656 31.203 88.6369 31.203ZM96.3704 31.21C95.6331 31.21 94.9937 31.0467 94.4524 30.72C93.9157 30.3933 93.4981 29.9337 93.1994 29.341C92.9007 28.7483 92.7514 28.053 92.7514 27.255C92.7514 26.429 92.8984 25.715 93.1924 25.113C93.4864 24.511 93.8994 24.0467 94.4314 23.72C94.9681 23.3933 95.6004 23.23 96.3284 23.23C97.0751 23.23 97.7121 23.4027 98.2394 23.748C98.7667 24.0887 99.1657 24.5787 99.4364 25.218C99.7071 25.8573 99.8307 26.6203 99.8074 27.507H98.7574V27.143C98.7387 26.163 98.5264 25.4233 98.1204 24.924C97.7191 24.4247 97.1311 24.175 96.3564 24.175C95.5444 24.175 94.9214 24.4387 94.4874 24.966C94.0581 25.4933 93.8434 26.2447 93.8434 27.22C93.8434 28.172 94.0581 28.9117 94.4874 29.439C94.9214 29.9617 95.5351 30.223 96.3284 30.223C96.8697 30.223 97.3411 30.0993 97.7424 29.852C98.1484 29.6 98.4681 29.2383 98.7014 28.767L99.6604 29.138C99.3617 29.796 98.9207 30.307 98.3374 30.671C97.7587 31.0303 97.1031 31.21 96.3704 31.21ZM93.4794 27.507V26.646H99.2544V27.507H93.4794ZM104.164 31V20.92H109.953V21.949H105.193V25.449H109.113V26.471H105.193V31H104.164ZM111.358 22.005V20.85H112.387V22.005H111.358ZM111.358 31V23.44H112.387V31H111.358ZM114.626 31V20.71H115.655V31H114.626ZM120.952 31.21C120.215 31.21 119.576 31.0467 119.034 30.72C118.498 30.3933 118.08 29.9337 117.781 29.341C117.483 28.7483 117.333 28.053 117.333 27.255C117.333 26.429 117.48 25.715 117.774 25.113C118.068 24.511 118.481 24.0467 119.013 23.72C119.55 23.3933 120.182 23.23 120.91 23.23C121.657 23.23 122.294 23.4027 122.821 23.748C123.349 24.0887 123.748 24.5787 124.018 25.218C124.289 25.8573 124.413 26.6203 124.389 27.507H123.339V27.143C123.321 26.163 123.108 25.4233 122.702 24.924C122.301 24.4247 121.713 24.175 120.938 24.175C120.126 24.175 119.503 24.4387 119.069 24.966C118.64 25.4933 118.425 26.2447 118.425 27.22C118.425 28.172 118.64 28.9117 119.069 29.439C119.503 29.9617 120.117 30.223 120.91 30.223C121.452 30.223 121.923 30.0993 122.324 29.852C122.73 29.6 123.05 29.2383 123.283 28.767L124.242 29.138C123.944 29.796 123.503 30.307 122.919 30.671C122.341 31.0303 121.685 31.21 120.952 31.21ZM118.061 27.507V26.646H123.836V27.507H118.061Z" fill="#606060"/>
<path d="M20 30.2422C18.794 29.435 18 28.0602 18 26.5C18 24.1564 19.7915 22.2313 22.0797 22.0194C22.5478 19.1721 25.0202 17 28 17C30.9798 17 33.4522 19.1721 33.9203 22.0194C36.2085 22.2313 38 24.1564 38 26.5C38 28.0602 37.206 29.435 36 30.2422M24 30L28 26M28 26L32 30M28 26V35" stroke="#8D8C95" stroke-width="2" stroke-linecap="round" stroke-linejoin="round"/>
</svg>
