<svg width="361" height="68" viewBox="0 0 361 68" fill="none" xmlns="http://www.w3.org/2000/svg">
<g clip-path="url(#clip0_1039_4555)">
<path d="M0 8C0 3.58172 3.58172 0 8 0H353C357.418 0 361 3.58172 361 8V60C361 64.4183 357.418 68 353 68H7.99999C3.58172 68 0 64.4183 0 60V8Z" fill="#1D1D1D"/>
<g opacity="0.28">
<path opacity="0.3" d="M357.329 68.5246C343.253 78.6842 316.972 77.7371 310.748 66.846L308.198 62.3827C304.741 56.3349 294.091 52.9728 282.225 54.1827C268.401 55.592 260.699 47.1658 269.805 40.5935L292.052 24.5354C303.141 16.5316 322.408 14.1973 335.088 19.3215L365.275 31.5216C380.612 37.72 382.172 50.5928 368.759 60.2744L357.329 68.5246Z" stroke="#FFF6E9" stroke-width="8.47411"/>
<path opacity="0.8" d="M363.216 54.9919C349.14 65.1515 322.86 64.2044 316.635 53.3133L314.085 48.85C310.628 42.8022 299.979 39.4401 288.112 40.65C274.288 42.0593 266.587 33.6331 275.692 27.0608L297.939 11.0027C309.028 2.99889 328.296 0.664632 340.975 5.78881L371.163 17.9888C386.499 24.1873 388.059 37.0601 374.646 46.7417L363.216 54.9919Z" stroke="#FFC46B" stroke-width="8.47411"/>
<path opacity="0.8" d="M369.918 41.5491C355.843 51.7086 329.562 50.7615 323.338 39.8704L320.787 35.4071C317.331 29.3593 306.681 25.9972 294.815 27.2071C280.991 28.6164 273.289 20.1903 282.394 13.6179L304.642 -2.44019C315.731 -10.444 334.998 -12.7782 347.678 -7.65406L377.865 4.54597C393.202 10.7444 394.762 23.6172 381.349 33.2988L369.918 41.5491Z" stroke="#FFF6E9" stroke-width="8.47411"/>
</g>
<g opacity="0.04" filter="url(#filter0_f_1039_4555)">
<path d="M-16.7905 -7.37016C-16.0305 -6.99056 -15.3465 -6.60474 -14.6397 -6.21269C-4.82813 -0.860885 4.10187 4.98876 23.5883 4.98876C28.2751 5.02512 32.9517 4.62216 37.5267 3.78772C60.3647 -0.512391 64.9323 -14.9249 95.545 -14.9249C112.037 -14.9249 120.975 -10.7431 129.274 -6.21269C139.085 -0.860885 148.015 4.98876 167.502 4.98876C172.189 5.02512 176.865 4.62216 181.44 3.78772C204.278 -0.512391 208.846 -14.9249 239.451 -14.9249C255.943 -14.9249 264.873 -10.7431 273.18 -6.21269C282.991 -0.860885 291.921 4.98876 311.408 4.98876C316.095 5.02512 320.771 4.62216 325.346 3.78772C341.945 0.676207 348.906 -7.80578 363.209 -12.1992" stroke="white" stroke-width="0.847411" stroke-miterlimit="10"/>
<path d="M-16.7905 -5.7705C-16.0913 -5.92608 -15.3769 -6.07544 -14.6397 -6.21235C-10.0648 -7.04679 -5.38821 -7.44975 -0.701331 -7.41339C18.7851 -7.41339 27.7151 -1.56996 37.5267 3.78807C45.8259 8.32466 54.7635 12.5003 71.2554 12.5003C101.868 12.5003 106.436 -1.91846 129.274 -6.21235C133.846 -7.0468 138.52 -7.44977 143.205 -7.41339C162.691 -7.41339 171.629 -1.56996 181.44 3.78807C189.747 8.32466 198.669 12.5003 215.161 12.5003C245.774 12.5003 250.342 -1.91224 273.18 -6.21235C277.755 -7.04679 282.431 -7.44975 287.118 -7.41339C306.605 -7.41339 315.535 -1.56996 325.346 3.78807C333.653 8.32466 342.583 12.5003 359.075 12.5003C360.511 12.5003 361.887 12.4692 363.209 12.407" stroke="white" stroke-width="0.847411" stroke-miterlimit="10"/>
<path d="M363.212 35.5436C358.966 37.0464 354.915 38.8956 351.121 41.0634C341.317 46.4152 332.379 52.2649 312.9 52.2649C308.216 52.3013 303.542 51.8983 298.97 51.0639C276.124 46.77 271.556 32.3512 240.951 32.3512C224.452 32.3512 215.514 36.5393 207.215 41.0634C197.411 46.4152 188.473 52.2649 168.994 52.2649C164.31 52.3013 159.636 51.8983 155.064 51.0639C132.218 46.77 127.65 32.3512 97.0377 32.3512C80.5381 32.3512 71.6005 36.5393 63.3013 41.0634C53.4973 46.4152 44.5597 52.2649 25.0809 52.2649C20.3858 52.2991 15.7014 51.8919 11.1197 51.0514C-1.19228 48.7427 -8.19187 43.4904 -16.8179 39.1343" stroke="white" stroke-width="0.847411" stroke-miterlimit="10"/>
<path d="M363.212 44.7537C359.398 43.0929 355.332 41.8521 351.121 41.0635C346.539 40.2271 341.854 39.8241 337.16 39.8624C317.681 39.8624 308.743 45.6996 298.939 51.0639C290.64 55.6005 281.71 59.7761 265.21 59.7761C234.598 59.7761 230.03 45.3573 207.184 41.0635C202.612 40.229 197.938 39.826 193.254 39.8624C173.775 39.8624 164.837 45.6996 155.033 51.0639C146.734 55.6005 137.796 59.7761 121.297 59.7761C90.6841 59.7761 86.1165 45.3573 63.2709 41.0635C58.6985 40.229 54.0245 39.826 49.3401 39.8624C29.8613 39.8624 20.9237 45.6996 11.1197 51.0639C3.84652 55.0404 -3.91307 58.7431 -16.8179 59.6019" stroke="white" stroke-width="0.847411" stroke-miterlimit="10"/>
<path d="M-16.7905 76.7273H-15.4225C4.06387 76.7273 12.9939 70.8839 22.8055 65.5259C31.1123 60.9893 40.0423 56.8136 56.5343 56.8136C87.147 56.8136 91.7147 71.2262 114.553 75.5263C119.128 76.3607 123.804 76.7637 128.491 76.7273C147.977 76.7273 156.907 70.8839 166.719 65.5259C175.026 60.9893 183.956 56.8136 200.448 56.8136C231.061 56.8136 235.628 71.2324 258.466 75.5263C263.039 76.3607 267.713 76.7637 272.397 76.7273C291.883 76.7273 300.813 70.8839 310.625 65.5259C318.924 60.9893 327.862 56.8136 344.354 56.8136C350.755 56.723 357.13 57.5161 363.209 59.1597" stroke="white" stroke-width="0.847411" stroke-miterlimit="10"/>
<path d="M-16.7905 69.0804C-10.3229 66.3485 -2.56333 64.3447 8.83666 64.3447C13.5235 64.3083 18.2001 64.7113 22.7751 65.5457C45.613 69.8458 50.1806 84.2583 80.7934 84.2583C97.2854 84.2583 106.215 80.0765 114.522 75.5461C124.334 70.1943 133.264 64.3447 152.75 64.3447C157.437 64.3083 162.114 64.7113 166.689 65.5457C189.527 69.8458 194.094 84.2583 224.707 84.2583C241.199 84.2583 250.129 80.0765 258.436 75.5461C268.247 70.1943 277.177 64.3447 296.664 64.3447C301.348 64.3083 306.022 64.7113 310.595 65.5457C332.011 69.572 337.362 82.4972 363.179 84.0965" stroke="white" stroke-width="0.847411" stroke-miterlimit="10"/>
<path d="M363.209 25.8676C357.264 27.422 351.05 28.1724 344.81 28.0892C340.123 28.1276 335.447 27.7267 330.871 26.8944C308.033 22.5943 303.466 8.18175 272.861 8.18175C256.369 8.18175 247.439 12.3636 239.132 16.894C229.32 22.2458 220.39 28.0954 200.904 28.0954C196.217 28.1318 191.54 27.7288 186.965 26.8944C164.165 22.5943 159.56 8.18175 128.947 8.18175C112.455 8.18175 103.525 12.3636 95.2182 16.894C85.4067 22.2458 76.4767 28.0954 56.9903 28.0954C52.2983 28.1328 47.6166 27.7298 43.0367 26.8944C20.2367 22.5881 15.6767 8.17554 -14.9665 8.17554C-15.5847 8.17554 -16.1927 8.17554 -16.7905 8.17554" stroke="white" stroke-width="0.847411" stroke-miterlimit="10"/>
<path d="M363.209 15.8859C347.698 16.9314 339.649 22.1089 330.871 26.8882C322.572 31.4248 313.635 35.6005 297.15 35.6005C266.537 35.6005 261.97 21.188 239.132 16.8878C234.557 16.0555 229.88 15.6546 225.193 15.693C205.707 15.693 196.777 21.5364 186.965 26.8945C178.659 31.431 169.729 35.6067 153.237 35.6067C122.624 35.6067 118.056 21.1942 95.2182 16.894C90.6433 16.0596 85.9667 15.6566 81.2799 15.693C61.7935 15.693 52.8635 21.5364 43.0519 26.8945C34.7451 31.431 25.8151 35.6067 9.32307 35.6067C-2.35053 35.6067 -10.2393 33.5095 -16.7905 30.6781" stroke="white" stroke-width="0.847411" stroke-miterlimit="10"/>
</g>
</g>
<path d="M8 0.5H353C357.142 0.5 360.5 3.85786 360.5 8V60C360.5 64.1421 357.142 67.5 353 67.5H8C3.85786 67.5 0.5 64.1421 0.5 60V8C0.5 3.85786 3.85786 0.5 8 0.5Z" stroke="#E8E8E8"/>
<defs>
<filter id="filter0_f_1039_4555" x="-17.8562" y="-208.052" width="382.118" height="312.96" filterUnits="userSpaceOnUse" color-interpolation-filters="sRGB">
<feFlood flood-opacity="0" result="BackgroundImageFix"/>
<feBlend mode="normal" in="SourceGraphic" in2="BackgroundImageFix" result="shape"/>
<feGaussianBlur stdDeviation="0.423705" result="effect1_foregroundBlur_1039_4555"/>
</filter>
<clipPath id="clip0_1039_4555">
<path d="M0 8C0 3.58172 3.58172 0 8 0H353C357.418 0 361 3.58172 361 8V60C361 64.4183 357.418 68 353 68H7.99999C3.58172 68 0 64.4183 0 60V8Z" fill="white"/>
</clipPath>
</defs>
</svg>
