<svg width="39" height="39" viewBox="0 0 39 39" fill="none" xmlns="http://www.w3.org/2000/svg">
<path d="M11.375 21.125C12.1949 21.1247 12.9847 21.4344 13.5859 21.9919C14.1871 22.5495 14.5554 23.3136 14.6169 24.1313L14.625 24.375V29.25C14.6253 30.0699 14.3156 30.8597 13.7581 31.4609C13.2005 32.0621 12.4364 32.4304 11.6188 32.4919L11.375 32.5H6.5C5.68006 32.5003 4.89033 32.1906 4.28911 31.6331C3.68789 31.0755 3.31962 30.3114 3.25813 29.4937L3.25 29.25V24.375C3.24974 23.5551 3.55941 22.7653 4.11693 22.1641C4.67445 21.5629 5.43862 21.1946 6.25625 21.1331L6.5 21.125H11.375ZM26 27.625C26.4142 27.6255 26.8126 27.7841 27.1137 28.0684C27.4149 28.3527 27.5961 28.7413 27.6204 29.1548C27.6447 29.5682 27.5102 29.9754 27.2443 30.293C26.9785 30.6106 26.6014 30.8147 26.1901 30.8636L26 30.875H19.5C19.0858 30.8745 18.6874 30.7159 18.3863 30.4316C18.0851 30.1473 17.9039 29.7587 17.8796 29.3452C17.8553 28.9318 17.9898 28.5246 18.2557 28.207C18.5215 27.8894 18.8986 27.6853 19.3099 27.6364L19.5 27.625H26ZM32.5 21.125C32.931 21.125 33.3443 21.2962 33.649 21.601C33.9538 21.9057 34.125 22.319 34.125 22.75C34.125 23.181 33.9538 23.5943 33.649 23.899C33.3443 24.2038 32.931 24.375 32.5 24.375H19.5C19.069 24.375 18.6557 24.2038 18.351 23.899C18.0462 23.5943 17.875 23.181 17.875 22.75C17.875 22.319 18.0462 21.9057 18.351 21.601C18.6557 21.2962 19.069 21.125 19.5 21.125H32.5ZM11.375 4.875C12.237 4.875 13.0636 5.21741 13.6731 5.8269C14.2826 6.4364 14.625 7.26305 14.625 8.125V13C14.625 13.862 14.2826 14.6886 13.6731 15.2981C13.0636 15.9076 12.237 16.25 11.375 16.25H6.5C5.63805 16.25 4.8114 15.9076 4.2019 15.2981C3.59241 14.6886 3.25 13.862 3.25 13V8.125C3.25 7.26305 3.59241 6.4364 4.2019 5.8269C4.8114 5.21741 5.63805 4.875 6.5 4.875H11.375ZM26 11.375C26.4142 11.3755 26.8126 11.5341 27.1137 11.8184C27.4149 12.1027 27.5961 12.4913 27.6204 12.9048C27.6447 13.3182 27.5102 13.7254 27.2443 14.043C26.9785 14.3606 26.6014 14.5647 26.1901 14.6136L26 14.625H19.5C19.0858 14.6245 18.6874 14.4659 18.3863 14.1816C18.0851 13.8973 17.9039 13.5087 17.8796 13.0952C17.8553 12.6818 17.9898 12.2746 18.2557 11.957C18.5215 11.6394 18.8986 11.4353 19.3099 11.3864L19.5 11.375H26ZM32.5 4.875C32.9142 4.87546 33.3126 5.03405 33.6137 5.31838C33.9149 5.6027 34.0961 5.9913 34.1204 6.40477C34.1447 6.81823 34.0102 7.22537 33.7443 7.54298C33.4785 7.86059 33.1014 8.06471 32.6901 8.11363L32.5 8.125H19.5C19.0858 8.12454 18.6874 7.96595 18.3863 7.68162C18.0851 7.3973 17.9039 7.0087 17.8796 6.59523C17.8553 6.18177 17.9898 5.77463 18.2557 5.45702C18.5215 5.13941 18.8986 4.93529 19.3099 4.88637L19.5 4.875H32.5Z" fill="#F3F3F3"/>
</svg>
