<svg width="31" height="34" viewBox="0 0 31 34" fill="none" xmlns="http://www.w3.org/2000/svg">
<path d="M8.1875 16.25C9.00744 16.2497 9.79717 16.5594 10.3984 17.1169C10.9996 17.6745 11.3679 18.4386 11.4294 19.2563L11.4375 19.5V24.375C11.4378 25.1949 11.1281 25.9847 10.5706 26.5859C10.013 27.1871 9.24888 27.5554 8.43125 27.6169L8.1875 27.625H3.3125C2.49256 27.6253 1.70283 27.3156 1.10161 26.7581C0.50039 26.2005 0.132121 25.4364 0.0706253 24.6187L0.0625002 24.375V19.5C0.0622407 18.6801 0.371911 17.8903 0.929433 17.2891C1.48695 16.6879 2.25112 16.3196 3.06875 16.2581L3.3125 16.25H8.1875ZM22.8125 22.75C23.2267 22.7505 23.6251 22.9091 23.9262 23.1934C24.2274 23.4777 24.4086 23.8663 24.4329 24.2798C24.4572 24.6932 24.3227 25.1004 24.0568 25.418C23.791 25.7356 23.4139 25.9397 23.0026 25.9886L22.8125 26H16.3125C15.8983 25.9995 15.4999 25.8409 15.1988 25.5566C14.8976 25.2723 14.7164 24.8837 14.6921 24.4702C14.6678 24.0568 14.8023 23.6496 15.0682 23.332C15.334 23.0144 15.7111 22.8103 16.1224 22.7614L16.3125 22.75H22.8125ZM29.3125 16.25C29.7435 16.25 30.1568 16.4212 30.4615 16.726C30.7663 17.0307 30.9375 17.444 30.9375 17.875C30.9375 18.306 30.7663 18.7193 30.4615 19.024C30.1568 19.3288 29.7435 19.5 29.3125 19.5H16.3125C15.8815 19.5 15.4682 19.3288 15.1635 19.024C14.8587 18.7193 14.6875 18.306 14.6875 17.875C14.6875 17.444 14.8587 17.0307 15.1635 16.726C15.4682 16.4212 15.8815 16.25 16.3125 16.25H29.3125ZM8.1875 0C9.04945 0 9.8761 0.34241 10.4856 0.951903C11.0951 1.5614 11.4375 2.38805 11.4375 3.25V8.125C11.4375 8.98695 11.0951 9.8136 10.4856 10.4231C9.8761 11.0326 9.04945 11.375 8.1875 11.375H3.3125C2.45055 11.375 1.6239 11.0326 1.0144 10.4231C0.40491 9.8136 0.0625002 8.98695 0.0625002 8.125V3.25C0.0625002 2.38805 0.40491 1.5614 1.0144 0.951903C1.6239 0.34241 2.45055 0 3.3125 0H8.1875ZM22.8125 6.5C23.2267 6.50046 23.6251 6.65905 23.9262 6.94338C24.2274 7.2277 24.4086 7.6163 24.4329 8.02977C24.4572 8.44323 24.3227 8.85037 24.0568 9.16798C23.791 9.48559 23.4139 9.68971 23.0026 9.73862L22.8125 9.75H16.3125C15.8983 9.74954 15.4999 9.59095 15.1988 9.30662C14.8976 9.0223 14.7164 8.6337 14.6921 8.22023C14.6678 7.80677 14.8023 7.39963 15.0682 7.08202C15.334 6.76441 15.7111 6.56029 16.1224 6.51137L16.3125 6.5H22.8125ZM29.3125 0C29.7267 0.0004594 30.1251 0.159054 30.4262 0.443379C30.7274 0.727704 30.9086 1.1163 30.9329 1.52977C30.9572 1.94323 30.8227 2.35037 30.5568 2.66798C30.291 2.98559 29.9139 3.18971 29.5026 3.23863L29.3125 3.25H16.3125C15.8983 3.24954 15.4999 3.09095 15.1988 2.80662C14.8976 2.5223 14.7164 2.1337 14.6921 1.72023C14.6678 1.30677 14.8023 0.899633 15.0682 0.582022C15.334 0.264411 15.7111 0.0602934 16.1224 0.011375L16.3125 0H29.3125Z" fill="#F3F3F3"/>
</svg>
