<svg width="25" height="25" viewBox="0 0 25 25" fill="none" xmlns="http://www.w3.org/2000/svg">
<path d="M22.0202 10.05L20.1302 9.42L21.0202 7.64C21.1104 7.45369 21.1406 7.24397 21.1066 7.03978C21.0725 6.83558 20.976 6.64699 20.8302 6.5L18.7002 4.37C18.5524 4.22209 18.362 4.12421 18.1557 4.09013C17.9495 4.05605 17.7377 4.08748 17.5502 4.18L15.7702 5.07L15.1402 3.18C15.0737 2.983 14.9474 2.81163 14.7789 2.68975C14.6104 2.56787 14.4081 2.50155 14.2002 2.5H11.2002C10.9906 2.49946 10.786 2.56482 10.6156 2.68685C10.4451 2.80887 10.3173 2.98138 10.2502 3.18L9.6202 5.07L7.8402 4.18C7.65388 4.08978 7.44416 4.05961 7.23997 4.09364C7.03578 4.12767 6.84718 4.22423 6.7002 4.37L4.5702 6.5C4.42228 6.64777 4.32441 6.83818 4.29032 7.04446C4.25624 7.25074 4.28767 7.46251 4.3802 7.65L5.2702 9.43L3.3802 10.06C3.18319 10.1265 3.01182 10.2528 2.88995 10.4213C2.76807 10.5898 2.70174 10.7921 2.7002 11V14C2.69966 14.2096 2.76502 14.4142 2.88704 14.5846C3.00906 14.7551 3.18158 14.8829 3.3802 14.95L5.2702 15.58L4.3802 17.36C4.28998 17.5463 4.2598 17.756 4.29383 17.9602C4.32787 18.1644 4.42443 18.353 4.5702 18.5L6.7002 20.63C6.84796 20.7779 7.03837 20.8758 7.24465 20.9099C7.45093 20.944 7.66271 20.9125 7.8502 20.82L9.6302 19.93L10.2602 21.82C10.3273 22.0186 10.4551 22.1911 10.6256 22.3132C10.796 22.4352 11.0006 22.5005 11.2102 22.5H14.2102C14.4198 22.5005 14.6244 22.4352 14.7948 22.3132C14.9653 22.1911 15.0931 22.0186 15.1602 21.82L15.7902 19.93L17.5702 20.82C17.7553 20.9079 17.963 20.9369 18.1651 20.9029C18.3672 20.8689 18.554 20.7737 18.7002 20.63L20.8302 18.5C20.9781 18.3522 21.076 18.1618 21.1101 17.9555C21.1442 17.7493 21.1127 17.5375 21.0202 17.35L20.1302 15.57L22.0202 14.94C22.2172 14.8735 22.3886 14.7472 22.5105 14.5787C22.6323 14.4102 22.6987 14.2079 22.7002 14V11C22.7007 10.7904 22.6354 10.5858 22.5134 10.4154C22.3913 10.2449 22.2188 10.1171 22.0202 10.05ZM20.7002 13.28L19.5002 13.68C19.2243 13.7695 18.9711 13.918 18.7583 14.1151C18.5454 14.3122 18.378 14.5533 18.2677 14.8216C18.1573 15.0899 18.1066 15.379 18.1192 15.6688C18.1317 15.9586 18.2071 16.2422 18.3402 16.5L18.9102 17.64L17.8102 18.74L16.7002 18.14C16.4438 18.0122 16.1629 17.9411 15.8765 17.9313C15.5902 17.9215 15.3051 17.9734 15.0405 18.0834C14.776 18.1934 14.5381 18.3589 14.3431 18.5688C14.1481 18.7787 14.0005 19.0281 13.9102 19.3L13.5102 20.5H11.9202L11.5202 19.3C11.4307 19.0241 11.2822 18.7709 11.0851 18.5581C10.888 18.3452 10.6469 18.1778 10.3786 18.0675C10.1103 17.9571 9.82125 17.9064 9.53142 17.919C9.2416 17.9315 8.95796 18.0069 8.7002 18.14L7.5602 18.71L6.4602 17.61L7.0602 16.5C7.19329 16.2422 7.26872 15.9586 7.28124 15.6688C7.29377 15.379 7.2431 15.0899 7.13274 14.8216C7.02238 14.5533 6.85498 14.3122 6.64214 14.1151C6.42931 13.918 6.17614 13.7695 5.9002 13.68L4.7002 13.28V11.72L5.9002 11.32C6.17614 11.2305 6.42931 11.082 6.64214 10.8849C6.85498 10.6878 7.02238 10.4467 7.13274 10.1784C7.2431 9.91014 7.29377 9.62105 7.28124 9.33123C7.26872 9.0414 7.19329 8.75777 7.0602 8.5L6.4902 7.39L7.5902 6.29L8.7002 6.86C8.95796 6.9931 9.2416 7.06852 9.53142 7.08105C9.82125 7.09358 10.1103 7.0429 10.3786 6.93254C10.6469 6.82218 10.888 6.65478 11.0851 6.44195C11.2822 6.22912 11.4307 5.97595 11.5202 5.7L11.9202 4.5H13.4802L13.8802 5.7C13.9697 5.97595 14.1182 6.22912 14.3153 6.44195C14.5124 6.65478 14.7535 6.82218 15.0218 6.93254C15.2901 7.0429 15.5791 7.09358 15.869 7.08105C16.1588 7.06852 16.4424 6.9931 16.7002 6.86L17.8402 6.29L18.9402 7.39L18.3402 8.5C18.2124 8.75645 18.1413 9.03735 18.1315 9.32369C18.1217 9.61003 18.1736 9.89513 18.2836 10.1597C18.3936 10.4242 18.5591 10.6621 18.769 10.8571C18.9789 11.0521 19.2283 11.1997 19.5002 11.29L20.7002 11.69V13.28ZM12.7002 8.5C11.9091 8.5 11.1357 8.7346 10.4779 9.17413C9.82012 9.61365 9.30743 10.2384 9.00468 10.9693C8.70193 11.7002 8.62272 12.5044 8.77706 13.2804C8.9314 14.0563 9.31236 14.769 9.87177 15.3284C10.4312 15.8878 11.1439 16.2688 11.9198 16.4231C12.6958 16.5775 13.5 16.4983 14.2309 16.1955C14.9618 15.8928 15.5866 15.3801 16.0261 14.7223C16.4656 14.0645 16.7002 13.2911 16.7002 12.5C16.7002 11.4391 16.2788 10.4217 15.5286 9.67158C14.7785 8.92143 13.7611 8.5 12.7002 8.5ZM12.7002 14.5C12.3046 14.5 11.918 14.3827 11.5891 14.1629C11.2602 13.9432 11.0038 13.6308 10.8524 13.2654C10.7011 12.8999 10.6615 12.4978 10.7386 12.1098C10.8158 11.7219 11.0063 11.3655 11.286 11.0858C11.5657 10.8061 11.9221 10.6156 12.31 10.5384C12.698 10.4613 13.1001 10.5009 13.4656 10.6522C13.831 10.8036 14.1434 11.06 14.3631 11.3889C14.5829 11.7178 14.7002 12.1044 14.7002 12.5C14.7002 13.0304 14.4895 13.5391 14.1144 13.9142C13.7393 14.2893 13.2306 14.5 12.7002 14.5Z" fill="#777777"/>
</svg>
