<svg width="25" height="25" viewBox="0 0 25 25" fill="none" xmlns="http://www.w3.org/2000/svg">
<path d="M16.5855 13.21C17.5659 12.4387 18.2815 11.3809 18.6327 10.1839C18.984 8.98697 18.9534 7.71027 18.5453 6.53147C18.1371 5.35267 17.3717 4.33039 16.3556 3.60686C15.3394 2.88332 14.1229 2.49451 12.8755 2.49451C11.628 2.49451 10.4116 2.88332 9.39541 3.60686C8.37923 4.33039 7.61383 5.35267 7.2057 6.53147C6.79757 7.71027 6.767 8.98697 7.11825 10.1839C7.46949 11.3809 8.18509 12.4387 9.16548 13.21C7.48556 13.883 6.01977 14.9994 4.92438 16.4399C3.82898 17.8805 3.14505 19.5913 2.94548 21.39C2.93104 21.5213 2.9426 21.6542 2.97951 21.7811C3.01642 21.9079 3.07795 22.0263 3.1606 22.1293C3.3275 22.3375 3.57027 22.4708 3.83549 22.5C4.1007 22.5292 4.36664 22.4518 4.57481 22.2849C4.78298 22.118 4.91631 21.8752 4.94549 21.61C5.16507 19.6552 6.09717 17.8498 7.5637 16.5388C9.03024 15.2278 10.9284 14.503 12.8955 14.503C14.8626 14.503 16.7607 15.2278 18.2273 16.5388C19.6938 17.8498 20.6259 19.6552 20.8455 21.61C20.8727 21.8557 20.9899 22.0827 21.1746 22.247C21.3593 22.4114 21.5983 22.5015 21.8455 22.5H21.9555C22.2176 22.4698 22.4572 22.3373 22.622 22.1313C22.7869 21.9252 22.8636 21.6624 22.8355 21.4C22.635 19.5962 21.9474 17.881 20.8463 16.4382C19.7453 14.9954 18.2724 13.8795 16.5855 13.21ZM12.8755 12.5C12.0844 12.5 11.311 12.2654 10.6532 11.8259C9.99541 11.3864 9.48272 10.7616 9.17997 10.0307C8.87722 9.29983 8.798 8.49557 8.95234 7.71964C9.10668 6.94372 9.48765 6.23099 10.0471 5.67158C10.6065 5.11217 11.3192 4.7312 12.0951 4.57686C12.871 4.42252 13.6753 4.50173 14.4062 4.80448C15.1371 5.10724 15.7618 5.61993 16.2014 6.27772C16.6409 6.93552 16.8755 7.70888 16.8755 8.5C16.8755 9.56087 16.4541 10.5783 15.7039 11.3284C14.9538 12.0786 13.9364 12.5 12.8755 12.5Z" fill="#777777"/>
</svg>
