<svg width="24" height="24" viewBox="0 0 24 24" fill="none" xmlns="http://www.w3.org/2000/svg">
<g clip-path="url(#clip0_2857_1288)">
<path d="M2.74445 18.989C2.06445 18.969 1.52795 18.5325 1.50545 17.853C1.49753 17.6177 1.49753 17.3822 1.50545 17.147C1.52795 16.467 2.06445 16.031 2.74445 16.011C3.24801 15.9963 3.75189 15.9963 4.25545 16.011C4.93545 16.031 5.47195 16.4675 5.49445 17.147C5.50236 17.3822 5.50236 17.6177 5.49445 17.853C5.47195 18.533 4.93545 18.969 4.25545 18.989C3.75189 19.0036 3.24801 19.0036 2.74445 18.989ZM2.74445 13.489C2.06445 13.469 1.52795 13.0325 1.50545 12.353C1.49753 12.1177 1.49753 11.8822 1.50545 11.647C1.52795 10.967 2.06445 10.531 2.74445 10.511C3.24801 10.4963 3.75189 10.4963 4.25545 10.511C4.93545 10.531 5.47195 10.9675 5.49445 11.647C5.50236 11.8822 5.50236 12.1177 5.49445 12.353C5.47195 13.033 4.93545 13.469 4.25545 13.489C3.75189 13.5036 3.24801 13.5036 2.74445 13.489ZM2.74445 7.98898C2.06445 7.96898 1.52795 7.53248 1.50545 6.85298C1.49753 6.61771 1.49753 6.38225 1.50545 6.14698C1.52795 5.46698 2.06445 5.03098 2.74445 5.01098C3.24801 4.99634 3.75189 4.99634 4.25545 5.01098C4.93545 5.03098 5.47195 5.46748 5.49445 6.14698C5.50236 6.38225 5.50236 6.61771 5.49445 6.85298C5.47195 7.53298 4.93545 7.96898 4.25545 7.98898C3.75189 8.00362 3.24801 8.00362 2.74445 7.98898Z" stroke="black" stroke-width="1.5" stroke-linejoin="round"/>
<path d="M3.68534 18.9995C3.705 19.3165 3.7245 19.6075 3.74384 19.8725C3.83784 21.149 4.80034 22.139 6.07584 22.2475C7.54584 22.3735 9.81534 22.5 12.9998 22.5C16.1843 22.5 18.4543 22.3735 19.9238 22.248C21.1993 22.139 22.1623 21.149 22.2558 19.873C22.3748 18.258 22.4998 15.6825 22.4998 12C22.4998 8.3175 22.3748 5.7415 22.2558 4.1275C22.1618 2.8505 21.1993 1.8615 19.9238 1.7525C18.4538 1.626 16.1848 1.5 12.9998 1.5C9.81484 1.5 7.54534 1.6265 6.07584 1.752C4.80084 1.8615 3.83784 2.8505 3.74384 4.127C3.72384 4.392 3.70434 4.68317 3.68534 5.0005M3.55434 16C3.53052 15.1668 3.51469 14.3335 3.50684 13.5M3.50684 10.5C3.51534 9.588 3.53184 8.756 3.55434 8" stroke="black" stroke-width="1.5" stroke-linejoin="round"/>
<path d="M15.1046 12.5354C15.6534 12.1882 16.0747 11.6722 16.3053 11.0651C16.5358 10.4579 16.563 9.79236 16.383 9.16839C16.2029 8.54441 15.8252 7.99572 15.3066 7.60475C14.788 7.21379 14.1566 7.00166 13.5071 7.00025C12.8577 6.99884 12.2253 7.20821 11.705 7.59692C11.1848 7.98563 10.8047 8.53267 10.6219 9.15586C10.4391 9.77905 10.4635 10.4447 10.6913 11.0529C10.9192 11.661 11.3383 12.1788 11.8856 12.5284C10.4546 13.0454 9.3586 14.2364 9.0011 15.7064C8.8451 16.3464 9.2201 16.9554 9.8576 17.1234C10.5701 17.3114 11.7236 17.4999 13.4851 17.4999C15.2471 17.4999 16.4001 17.3114 17.1126 17.1234C17.7501 16.9554 18.1251 16.3469 17.9691 15.7064C17.6131 14.2429 16.5261 13.0564 15.1046 12.5354Z" stroke="black" stroke-width="1.5" stroke-linejoin="round"/>
</g>
<defs>
<clipPath id="clip0_2857_1288">
<rect width="24" height="24" fill="white"/>
</clipPath>
</defs>
</svg>
