<svg width="253" height="188" viewBox="0 0 253 188" fill="none" xmlns="http://www.w3.org/2000/svg">
<path d="M253 165.121H0.82959V165.247H253V165.121Z" fill="#EBEBEB"/>
<path d="M227.733 173.236H211.029V173.362H227.733V173.236Z" fill="#EBEBEB"/>
<path d="M167.877 174.608H163.495V174.734H167.877V174.608Z" fill="#EBEBEB"/>
<path d="M210.524 168.556H200.846V168.682H210.524V168.556Z" fill="#EBEBEB"/>
<path d="M49.0701 169.403H27.2876V169.529H49.0701V169.403Z" fill="#EBEBEB"/>
<path d="M56.756 169.403H53.5635V169.529H56.756V169.403Z" fill="#EBEBEB"/>
<path d="M114.382 171.531H67.1353V171.657H114.382V171.531Z" fill="#EBEBEB"/>
<path d="M120.359 142.628H22.9753C22.2124 142.626 21.4812 142.322 20.9423 141.782C20.4033 141.242 20.1006 140.511 20.1006 139.748V2.85457C20.1072 2.09605 20.4129 1.37079 20.9511 0.836307C21.4894 0.301827 22.2168 0.00129938 22.9753 0H120.359C121.122 0 121.855 0.303405 122.395 0.84347C122.935 1.38353 123.238 2.11602 123.238 2.87979V139.748C123.238 140.512 122.935 141.244 122.395 141.784C121.855 142.324 121.122 142.628 120.359 142.628ZM22.9753 0.100869C22.2459 0.102205 21.5468 0.392914 21.0314 0.909189C20.5161 1.42546 20.2267 2.12512 20.2267 2.85457V139.748C20.2267 140.477 20.5161 141.177 21.0314 141.693C21.5468 142.209 22.2459 142.5 22.9753 142.502H120.359C121.088 142.5 121.788 142.21 122.304 141.694C122.82 141.177 123.111 140.478 123.112 139.748V2.85457C123.111 2.12465 122.82 1.42501 122.304 0.908881C121.788 0.392751 121.088 0.102202 120.359 0.100869H22.9753Z" fill="#EBEBEB"/>
<path d="M229.453 142.628H132.064C131.301 142.626 130.569 142.322 130.03 141.783C129.49 141.243 129.186 140.511 129.185 139.748V2.85457C129.193 2.09559 129.499 1.37033 130.038 0.835992C130.577 0.301651 131.305 0.00128521 132.064 0H229.453C230.21 0.00262484 230.936 0.303739 231.474 0.838077C232.011 1.37242 232.316 2.09692 232.322 2.85457V139.748C232.322 140.51 232.02 141.241 231.482 141.781C230.945 142.32 230.215 142.625 229.453 142.628ZM132.064 0.100869C131.334 0.102202 130.635 0.392751 130.119 0.908881C129.603 1.42501 129.312 2.12465 129.311 2.85457V139.748C129.312 140.478 129.603 141.177 130.119 141.694C130.635 142.21 131.334 142.5 132.064 142.502H229.453C230.183 142.5 230.882 142.21 231.398 141.694C231.914 141.177 232.205 140.478 232.206 139.748V2.85457C232.205 2.12465 231.914 1.42501 231.398 0.908881C230.882 0.392751 230.183 0.102202 229.453 0.100869H132.064Z" fill="#EBEBEB"/>
<path d="M43.9003 92.1782H46.7397L46.7397 32.4138H43.9003L43.9003 92.1782Z" fill="#E0E0E0"/>
<path d="M99.5746 32.4189H45.5396V92.1833H99.5746V32.4189Z" fill="#E0E0E0"/>
<path d="M101.299 32.4189H45.252V92.1833H101.299V32.4189Z" fill="#F0F0F0"/>
<path d="M98.929 34.3254H47.5366V89.4348H98.929V34.3254Z" fill="white"/>
<path d="M98.9292 34.3254H97.4414V89.4348H98.9292V34.3254Z" fill="#E0E0E0"/>
<path d="M47.4004 73.9516V75.4395H97.5974V73.9516H47.4004Z" fill="#E0E0E0"/>
<path d="M98.9289 71.46H46.7397V73.9564H98.9289V71.46Z" fill="#F0F0F0"/>
<path d="M138.873 164.188H213.218V70.0427L138.873 70.0427V164.188Z" fill="#F0F0F0"/>
<path d="M141.5 93.6006L210.59 93.6006V73.4673H141.5V93.6006Z" fill="#E0E0E0"/>
<path d="M206.661 93.6006H210.585V76.7304H206.661V93.6006Z" fill="#EBEBEB"/>
<path d="M187.683 93.6006H191.607V76.7304H187.683V93.6006Z" fill="#EBEBEB"/>
<path d="M163.277 92.9331L167.144 93.5996L170.01 76.9746L166.143 76.3081L163.277 92.9331Z" fill="#EBEBEB"/>
<path d="M201.804 93.6006H205.728V78.9495H201.804V93.6006Z" fill="#EBEBEB"/>
<path d="M192.777 93.6006H196.701V78.9495H192.777V93.6006Z" fill="#EBEBEB"/>
<path d="M170.006 93.6006H173.93V78.9495H170.006V93.6006Z" fill="#EBEBEB"/>
<path d="M179.359 92.7488L183.189 93.6001L186.368 79.2979L182.538 78.4467L179.359 92.7488Z" fill="#EBEBEB"/>
<path d="M198.41 93.6006H200.372V75.8881H198.41V93.6006Z" fill="#EBEBEB"/>
<path d="M175.064 93.6006H177.026V75.8881H175.064V93.6006Z" fill="#EBEBEB"/>
<path d="M210.585 96.793H141.496V116.926H210.585V96.793Z" fill="#E0E0E0"/>
<path d="M145.419 100.051H141.496V116.921H145.419V100.051Z" fill="#EBEBEB"/>
<path d="M164.397 100.051H160.474V116.921H164.397V100.051Z" fill="#EBEBEB"/>
<path d="M185.944 99.6245L182.078 100.291L184.943 116.916L188.81 116.25L185.944 99.6245Z" fill="#EBEBEB"/>
<path d="M150.286 102.275H146.362V116.926H150.286V102.275Z" fill="#EBEBEB"/>
<path d="M159.304 102.275H155.38V116.926H159.304V102.275Z" fill="#EBEBEB"/>
<path d="M182.075 102.275H178.151V116.926H182.075V102.275Z" fill="#EBEBEB"/>
<path d="M169.559 101.765L165.729 102.616L168.907 116.918L172.737 116.067L169.559 101.765Z" fill="#EBEBEB"/>
<path d="M153.68 99.2139H151.718V116.926H153.68V99.2139Z" fill="#EBEBEB"/>
<path d="M177.021 99.2139H175.06V116.926H177.021V99.2139Z" fill="#EBEBEB"/>
<path d="M206.661 116.921H210.585V100.051H206.661V116.921Z" fill="#EBEBEB"/>
<path d="M201.804 116.921H205.728V102.27H201.804V116.921Z" fill="#EBEBEB"/>
<path d="M192.777 116.921H196.701V102.27H192.777V116.921Z" fill="#EBEBEB"/>
<path d="M198.41 116.921H200.372V99.2089H198.41V116.921Z" fill="#EBEBEB"/>
<path d="M141.5 140.242H210.59V120.109H141.5V140.242Z" fill="#E0E0E0"/>
<path d="M167.005 140.242H170.929V123.372H167.005V140.242Z" fill="#EBEBEB"/>
<path d="M142.601 139.569L146.468 140.235L149.333 123.61L145.467 122.944L142.601 139.569Z" fill="#EBEBEB"/>
<path d="M181.127 140.242H185.05V125.591H181.127V140.242Z" fill="#EBEBEB"/>
<path d="M172.104 140.242H176.027V125.591H172.104V140.242Z" fill="#EBEBEB"/>
<path d="M149.328 140.242H153.251V125.591H149.328V140.242Z" fill="#EBEBEB"/>
<path d="M158.685 139.384L162.515 140.235L165.694 125.933L161.863 125.082L158.685 139.384Z" fill="#EBEBEB"/>
<path d="M177.732 140.242H179.694V122.53H177.732V140.242Z" fill="#EBEBEB"/>
<path d="M154.386 140.242H156.348V122.53H154.386V140.242Z" fill="#EBEBEB"/>
<path d="M187.755 139.57L191.622 140.236L194.488 123.611L190.621 122.945L187.755 139.57Z" fill="#EBEBEB"/>
<path d="M194.486 140.242H198.41V125.591H194.486V140.242Z" fill="#EBEBEB"/>
<path d="M203.84 139.382L207.67 140.233L210.848 125.931L207.018 125.08L203.84 139.382Z" fill="#EBEBEB"/>
<path d="M199.535 140.242H201.497V122.53H199.535V140.242Z" fill="#EBEBEB"/>
<path d="M89.7954 106.305H46.644C45.5298 106.303 44.4261 106.521 43.3961 106.946C42.3661 107.371 41.4299 107.994 40.6412 108.781C39.8524 109.568 39.2264 110.503 38.7991 111.532C38.3718 112.561 38.1515 113.664 38.1509 114.778V148.478H98.2734V114.778C98.2734 113.665 98.054 112.563 97.6279 111.535C97.2018 110.506 96.5772 109.572 95.7899 108.785C95.0026 107.998 94.0679 107.374 93.0394 106.949C92.0108 106.523 90.9085 106.305 89.7954 106.305Z" fill="#E6E6E6"/>
<path d="M111.033 131.28H103.312C101.974 131.28 100.692 131.811 99.7457 132.757C98.7999 133.703 98.2686 134.986 98.2686 136.323V164.188H116.062V136.318C116.06 134.984 115.531 133.705 114.588 132.761C113.646 131.816 112.368 131.284 111.033 131.28Z" fill="#E0E0E0"/>
<path d="M111.033 131.28H110.867C109.529 131.28 108.246 131.811 107.3 132.757C106.355 133.703 105.823 134.986 105.823 136.323V164.188H116.056V136.318C116.055 134.985 115.526 133.706 114.585 132.762C113.643 131.818 112.366 131.285 111.033 131.28Z" fill="#EBEBEB"/>
<path d="M103.68 151.383H44.4551V164.183H103.68V151.383Z" fill="#E6E6E6"/>
<path d="M103.761 139.677H46.644C43.8168 139.677 41.5249 141.969 41.5249 144.796V147.989C41.5249 150.816 43.8168 153.108 46.644 153.108H103.761C106.588 153.108 108.88 150.816 108.88 147.989V144.796C108.88 141.969 106.588 139.677 103.761 139.677Z" fill="#F5F5F5"/>
<path d="M53.8257 139.677H46.7397C43.9125 139.677 41.6206 141.969 41.6206 144.796V147.989C41.6206 150.816 43.9125 153.108 46.7397 153.108H53.8257C56.6528 153.108 58.9447 150.816 58.9447 147.989V144.796C58.9447 141.969 56.6528 139.677 53.8257 139.677Z" fill="#E0E0E0"/>
<path d="M45.9734 131.28H38.2519C36.9143 131.28 35.6315 131.811 34.6857 132.757C33.7399 133.703 33.2085 134.986 33.2085 136.323V164.188H51.0117V136.318C51.0104 134.982 50.4791 133.702 49.5346 132.757C48.59 131.812 47.3092 131.281 45.9734 131.28Z" fill="#E0E0E0"/>
<path d="M45.9734 131.28H45.812C44.4744 131.28 43.1916 131.811 42.2457 132.757C41.2999 133.703 40.7686 134.986 40.7686 136.323V164.188H51.0117V136.318C51.0104 134.982 50.4791 133.702 49.5345 132.757C48.59 131.812 47.3092 131.281 45.9734 131.28Z" fill="#F0F0F0"/>
<path d="M174.161 47.6754C179.833 47.6754 184.43 43.0781 184.43 37.4071C184.43 31.736 179.833 27.1387 174.161 27.1387C168.49 27.1387 163.893 31.736 163.893 37.4071C163.893 43.0781 168.49 47.6754 174.161 47.6754Z" fill="#E0E0E0"/>
<path d="M182.788 38.8091C183.56 34.0499 180.328 29.5655 175.569 28.793C170.81 28.0205 166.326 31.2523 165.553 36.0116C164.781 40.7708 168.012 45.2552 172.772 46.0277C177.531 46.8002 182.015 43.5684 182.788 38.8091Z" fill="#F0F0F0"/>
<path d="M173.753 31.4153V37.5178L169.708 35.2281" fill="#F0F0F0"/>
<path d="M173.753 37.9568C173.676 37.9571 173.601 37.9361 173.536 37.8963L169.501 35.6116C169.406 35.551 169.339 35.4563 169.312 35.3471C169.285 35.2379 169.301 35.1225 169.356 35.0248C169.412 34.927 169.503 34.8544 169.611 34.8219C169.718 34.7894 169.835 34.7994 169.935 34.85L173.324 36.7716V31.4155C173.336 31.3079 173.387 31.2083 173.467 31.136C173.548 31.0637 173.652 31.0237 173.76 31.0237C173.869 31.0237 173.973 31.0637 174.054 31.136C174.134 31.2083 174.185 31.3079 174.197 31.4155V37.518C174.197 37.5946 174.177 37.6699 174.139 37.7364C174.101 37.8028 174.046 37.858 173.98 37.8963C173.912 37.9379 173.833 37.959 173.753 37.9568Z" fill="#E0E0E0"/>
<path d="M126.915 187.902C180.921 187.902 224.702 184.793 224.702 180.957C224.702 177.122 180.921 174.013 126.915 174.013C72.909 174.013 29.1284 177.122 29.1284 180.957C29.1284 184.793 72.909 187.902 126.915 187.902Z" fill="#E8E8E8"/>
<path d="M196.847 76.0649H183.229C181.989 76.0649 180.8 76.5575 179.924 77.4343C179.047 78.3111 178.554 79.5002 178.554 80.7402V86.3787C178.554 87.6187 179.047 88.8078 179.924 89.6846C180.8 90.5614 181.989 91.0539 183.229 91.0539H189.05L190.613 95.9914L192.192 91.0539H196.821C198.061 91.0539 199.251 90.5614 200.127 89.6846C201.004 88.8078 201.497 87.6187 201.497 86.3787V80.7402C201.497 79.5046 201.008 78.3192 200.136 77.4432C199.265 76.5671 198.082 76.0716 196.847 76.0649Z" fill="#2C2C2C"/>
<path d="M184.753 83.2166C184.753 83.4031 184.698 83.5854 184.594 83.7405C184.49 83.8956 184.343 84.0165 184.171 84.0879C183.998 84.1593 183.809 84.1779 183.626 84.1416C183.443 84.1052 183.275 84.0153 183.143 83.8834C183.011 83.7515 182.921 83.5835 182.885 83.4005C182.848 83.2176 182.867 83.028 182.938 82.8556C183.01 82.6833 183.131 82.536 183.286 82.4324C183.441 82.3287 183.623 82.2734 183.81 82.2734C183.934 82.2734 184.056 82.2978 184.171 82.3452C184.285 82.3926 184.389 82.4621 184.477 82.5497C184.564 82.6372 184.634 82.7412 184.681 82.8556C184.729 82.9701 184.753 83.0927 184.753 83.2166ZM187.971 82.2734C187.784 82.2734 187.602 82.3287 187.447 82.4324C187.292 82.536 187.171 82.6833 187.099 82.8556C187.028 83.028 187.009 83.2176 187.046 83.4005C187.082 83.5835 187.172 83.7515 187.304 83.8834C187.436 84.0153 187.604 84.1052 187.787 84.1416C187.97 84.1779 188.159 84.1593 188.332 84.0879C188.504 84.0165 188.651 83.8956 188.755 83.7405C188.858 83.5854 188.914 83.4031 188.914 83.2166C188.908 82.9699 188.807 82.7352 188.63 82.5627C188.454 82.3901 188.217 82.2936 187.971 82.2936V82.2734ZM192.131 82.2734C191.945 82.2734 191.763 82.3287 191.607 82.4324C191.452 82.536 191.331 82.6833 191.26 82.8556C191.189 83.028 191.17 83.2176 191.206 83.4005C191.243 83.5835 191.333 83.7515 191.465 83.8834C191.596 84.0153 191.765 84.1052 191.947 84.1416C192.13 84.1779 192.32 84.1593 192.492 84.0879C192.665 84.0165 192.812 83.8956 192.916 83.7405C193.019 83.5854 193.075 83.4031 193.075 83.2166C193.069 82.9699 192.968 82.7352 192.791 82.5627C192.615 82.3901 192.378 82.2936 192.131 82.2936V82.2734ZM196.292 82.2734C196.106 82.2734 195.923 82.3287 195.768 82.4324C195.613 82.536 195.492 82.6833 195.421 82.8556C195.35 83.028 195.331 83.2176 195.367 83.4005C195.404 83.5835 195.493 83.7515 195.625 83.8834C195.757 84.0153 195.925 84.1052 196.108 84.1416C196.291 84.1779 196.481 84.1593 196.653 84.0879C196.826 84.0165 196.973 83.8956 197.076 83.7405C197.18 83.5854 197.235 83.4031 197.235 83.2166C197.23 82.9699 197.128 82.7352 196.952 82.5627C196.776 82.3901 196.539 82.2936 196.292 82.2936V82.2734Z" fill="white"/>
<path d="M57.0636 92.708H43.4716C42.8577 92.708 42.2497 92.8289 41.6825 93.0639C41.1153 93.2988 40.5999 93.6432 40.1657 94.0774C39.7316 94.5115 39.3872 95.0269 39.1523 95.5941C38.9173 96.1613 38.7964 96.7693 38.7964 97.3832V103.022C38.7964 104.262 39.289 105.451 40.1657 106.328C41.0425 107.204 42.2317 107.697 43.4716 107.697H49.2917L50.8552 112.629L52.4338 107.697H57.0636C58.3036 107.697 59.4927 107.204 60.3695 106.328C61.2463 105.451 61.7389 104.262 61.7389 103.022V97.3832C61.7389 96.7693 61.6179 96.1613 61.383 95.5941C61.148 95.0269 60.8036 94.5115 60.3695 94.0774C59.9354 93.6432 59.42 93.2988 58.8528 93.0639C58.2855 92.8289 57.6776 92.708 57.0636 92.708Z" fill="#2C2C2C"/>
<path d="M44.9692 99.8597C44.9692 100.046 44.9139 100.229 44.8103 100.384C44.7067 100.539 44.5594 100.66 44.387 100.731C44.2147 100.802 44.0251 100.821 43.8421 100.785C43.6592 100.748 43.4911 100.658 43.3592 100.527C43.2273 100.395 43.1375 100.227 43.1011 100.044C43.0647 99.8607 43.0834 99.6711 43.1548 99.4988C43.2262 99.3264 43.3471 99.1791 43.5022 99.0755C43.6573 98.9719 43.8396 98.9166 44.0261 98.9166C44.2763 98.9166 44.5161 99.0159 44.693 99.1928C44.8699 99.3697 44.9692 99.6095 44.9692 99.8597ZM48.1869 98.9166C48.0004 98.9166 47.8181 98.9719 47.663 99.0755C47.5079 99.1791 47.387 99.3264 47.3156 99.4988C47.2442 99.6711 47.2256 99.8607 47.2619 100.044C47.2983 100.227 47.3882 100.395 47.5201 100.527C47.652 100.658 47.82 100.748 48.0029 100.785C48.1859 100.821 48.3755 100.802 48.5479 100.731C48.7202 100.66 48.8675 100.539 48.9711 100.384C49.0747 100.229 49.1301 100.046 49.1301 99.8597C49.1261 99.6126 49.0248 99.3771 48.8482 99.2043C48.6716 99.0315 48.434 98.9354 48.1869 98.9367V98.9166ZM52.3478 98.9166C52.1608 98.9146 51.9775 98.9682 51.8211 99.0706C51.6646 99.173 51.5422 99.3196 51.4693 99.4917C51.3963 99.6639 51.3762 99.8538 51.4115 100.037C51.4467 100.221 51.5357 100.39 51.6672 100.523C51.7987 100.656 51.9667 100.747 52.1499 100.784C52.3331 100.821 52.5233 100.803 52.6962 100.732C52.8691 100.661 53.017 100.54 53.1211 100.385C53.2252 100.229 53.2808 100.047 53.2808 99.8597C53.2768 99.6144 53.1769 99.3804 53.0025 99.2079C52.8281 99.0354 52.5931 98.938 52.3478 98.9367V98.9166ZM56.5086 98.9166C56.322 98.9166 56.1397 98.9719 55.9846 99.0755C55.8295 99.1791 55.7086 99.3264 55.6372 99.4988C55.5659 99.6711 55.5472 99.8607 55.5836 100.044C55.62 100.227 55.7098 100.395 55.8417 100.527C55.9736 100.658 56.1416 100.748 56.3246 100.785C56.5075 100.821 56.6971 100.802 56.8695 100.731C57.0418 100.66 57.1891 100.539 57.2927 100.384C57.3964 100.229 57.4517 100.046 57.4517 99.8597C57.4477 99.6126 57.3464 99.3771 57.1698 99.2043C56.9933 99.0315 56.7556 98.9354 56.5086 98.9367V98.9166Z" fill="white"/>
<path d="M209.122 181.664H145.112C133.154 181.664 132.387 167.582 142.217 160.955C144.014 159.76 146.003 158.884 148.097 158.363C167.56 153.244 194.905 118.833 214.166 133.232L214.221 133.272C233.407 147.772 219.996 181.664 209.122 181.664Z" fill="#263238"/>
<path opacity="0.5" d="M209.122 181.664H145.112C133.154 181.664 132.387 167.582 142.217 160.955C144.014 159.76 146.003 158.884 148.097 158.363C167.56 153.244 194.905 118.833 214.166 133.232L214.221 133.272C233.407 147.772 219.996 181.664 209.122 181.664Z" fill="white"/>
<path opacity="0.2" d="M214.116 133.207C212.502 133.101 210.545 133.555 208.437 135.32C202.965 139.909 211.286 162.005 198.199 171.194C190.896 176.323 159.39 178.582 148.874 172.293C141.112 167.648 141.011 164.728 142.217 160.956C144.014 159.761 146.003 158.884 148.097 158.363C167.535 153.219 194.88 118.808 214.116 133.207Z" fill="black"/>
<path d="M164.347 129.04L160.529 126.352L163.384 123.432C163.384 123.432 166.314 124.945 166.037 127.643L164.347 129.04Z" fill="#E4897B"/>
<path d="M159.031 123.387L161.679 121.723L163.384 123.432L160.529 126.353L159.031 123.387Z" fill="#E4897B"/>
<path d="M183.129 122.096C179.513 123.16 177.732 129.52 174.747 135.526L166.057 126.892L163.293 129.343C163.293 129.343 171.251 141.987 175.009 141.987C179.699 141.987 184.566 128.96 184.566 128.96L183.129 122.096Z" fill="#263238"/>
<path opacity="0.1" d="M184.566 128.96C184.566 128.96 183.794 131.023 182.549 133.499C181.363 135.91 179.749 138.719 178.009 140.419C177.026 141.372 175.992 141.977 174.983 141.977C171.226 141.977 163.268 129.333 163.268 129.333L166.031 126.882L174.721 135.517C177.707 129.51 179.482 123.15 183.108 122.086L184.566 128.96Z" fill="white"/>
<path opacity="0.2" d="M182.569 133.509C181.384 135.92 179.77 138.729 178.03 140.429C178.216 134.664 181.056 129.041 181.056 129.041C181.839 130.421 182.352 131.937 182.569 133.509Z" fill="black"/>
<path d="M179.669 157.228C179.669 157.228 148.98 152.82 147.356 159.553C145.646 166.674 170.288 171.476 185.015 171.98C199.742 172.485 203.968 168.954 201.603 150.798H181.429L179.669 157.228Z" fill="#2C2C2C"/>
<path opacity="0.6" d="M179.669 157.228C179.669 157.228 148.98 152.82 147.356 159.553C145.646 166.674 170.288 171.476 185.015 171.98C199.742 172.485 203.968 168.954 201.603 150.798H181.429L179.669 157.228Z" fill="white"/>
<path d="M162.577 171.269L156.147 171.274L153.06 171.279L152.692 168.026L155.546 167.643L162.522 166.715L162.577 171.269Z" fill="#E4897B"/>
<path d="M153.388 167.618L154.17 171.33C154.181 171.379 154.182 171.429 154.172 171.478C154.163 171.527 154.144 171.574 154.116 171.616C154.088 171.657 154.052 171.693 154.01 171.72C153.968 171.747 153.921 171.765 153.872 171.774L152.021 172.106C152.021 172.106 149.565 172.732 148.874 172.293C146.857 171.002 144.92 162.842 145.742 162.237C146.04 162.015 146.559 162.353 146.821 162.62C147.648 163.462 149.409 165.817 150.11 166.513C150.922 167.33 152.369 167.356 153.005 167.32C153.093 167.316 153.181 167.344 153.251 167.398C153.321 167.453 153.37 167.531 153.388 167.618Z" fill="#263238"/>
<path opacity="0.2" d="M162.577 171.269L156.147 171.274L155.546 167.643L162.521 166.715L162.577 171.269Z" fill="black"/>
<path d="M171.978 165.53L178.08 167.562L181.011 168.536L180.33 171.733L177.5 171.194L170.591 169.872L171.978 165.53Z" fill="#E4897B"/>
<path d="M179.543 171.9L179.972 168.132C179.978 168.083 179.994 168.035 180.018 167.992C180.043 167.949 180.076 167.911 180.115 167.88C180.155 167.85 180.2 167.828 180.248 167.814C180.296 167.801 180.346 167.798 180.395 167.804L182.256 168.077C182.256 168.077 184.778 168.258 185.282 168.894C186.795 170.755 186.049 179.112 185.081 179.424C184.722 179.54 184.339 179.056 184.173 178.723C183.668 177.659 182.73 174.865 182.286 173.988C181.782 172.954 180.405 172.475 179.795 172.303C179.712 172.277 179.641 172.221 179.595 172.148C179.549 172.074 179.53 171.986 179.543 171.9Z" fill="#263238"/>
<path opacity="0.2" d="M171.978 165.53L178.08 167.562L177.5 171.194L170.591 169.872L171.978 165.53Z" fill="black"/>
<path d="M176.441 171.758L174.701 171.925L175.74 165.903L177.737 166.957L176.441 171.758Z" fill="#2C2C2C"/>
<path opacity="0.6" d="M176.441 171.758L174.701 171.925L175.74 165.903L177.737 166.957L176.441 171.758Z" fill="white"/>
<path d="M182.266 173.942C182.312 174.215 182.271 174.495 182.15 174.744C182.101 174.819 182.034 174.879 181.954 174.919C181.874 174.959 181.785 174.977 181.696 174.971C181.643 174.973 181.589 174.962 181.541 174.937C181.494 174.912 181.453 174.875 181.424 174.83C181.162 174.386 181.777 173.019 181.853 172.868C181.857 172.851 181.868 172.836 181.883 172.827C181.898 172.818 181.916 172.814 181.933 172.818C181.953 172.819 181.971 172.827 181.985 172.84C182 172.852 182.01 172.869 182.014 172.888C182.134 173.23 182.218 173.583 182.266 173.942ZM181.54 174.598C181.543 174.642 181.557 174.686 181.58 174.724C181.59 174.743 181.605 174.759 181.624 174.769C181.643 174.779 181.665 174.783 181.686 174.779C181.747 174.787 181.809 174.776 181.865 174.749C181.92 174.723 181.967 174.681 181.999 174.628C182.146 174.149 182.119 173.632 181.923 173.171C181.711 173.619 181.581 174.103 181.54 174.598Z" fill="#2C2C2C"/>
<path d="M182.029 172.898V172.939C181.863 173.377 181.106 174.245 180.678 174.184C180.607 174.172 180.543 174.136 180.496 174.083C180.448 174.03 180.42 173.963 180.415 173.892C180.396 173.821 180.392 173.747 180.404 173.675C180.417 173.602 180.444 173.534 180.486 173.473C180.799 172.969 181.883 172.807 181.944 172.812C181.96 172.809 181.978 172.811 181.993 172.819C182.008 172.826 182.021 172.838 182.029 172.853C182.033 172.868 182.033 172.883 182.029 172.898ZM180.577 173.821V173.861C180.607 173.988 180.657 173.993 180.683 174.003C180.935 174.038 181.515 173.473 181.767 173.039C181.337 173.092 180.936 173.285 180.627 173.589C180.584 173.658 180.565 173.74 180.572 173.821H180.577Z" fill="#2C2C2C"/>
<path d="M156.731 167.174C156.731 167.174 185.282 156.078 194.027 157.934C202.773 159.79 202.813 164.365 198.38 168.632C193.947 172.898 187.325 171.254 187.325 171.254C187.325 171.254 192.53 168.137 192.166 166.211C191.803 164.284 188.495 168.687 188.495 168.687C188.495 168.687 171.241 172.908 156.994 171.794L156.731 167.174Z" fill="#2C2C2C"/>
<path d="M150.306 166.574C150.14 166.354 150.049 166.087 150.044 165.812C150.052 165.724 150.083 165.639 150.135 165.566C150.186 165.493 150.256 165.436 150.336 165.399C150.384 165.373 150.436 165.359 150.49 165.359C150.544 165.359 150.597 165.373 150.644 165.399C151.078 165.676 151.148 167.174 151.148 167.345C151.151 167.363 151.147 167.38 151.138 167.395C151.128 167.409 151.114 167.42 151.098 167.426C151.082 167.436 151.064 167.442 151.045 167.442C151.026 167.442 151.008 167.436 150.992 167.426C150.734 167.167 150.504 166.881 150.306 166.574ZM150.649 165.656C150.624 165.619 150.591 165.589 150.553 165.565C150.536 165.553 150.516 165.547 150.495 165.547C150.475 165.547 150.454 165.553 150.437 165.565C150.379 165.586 150.328 165.623 150.291 165.673C150.253 165.722 150.231 165.781 150.226 165.842C150.316 166.336 150.579 166.781 150.967 167.098C150.947 166.602 150.84 166.114 150.649 165.656Z" fill="#2C2C2C"/>
<path d="M150.992 167.391V167.345C150.941 166.881 151.209 165.762 151.622 165.616C151.691 165.594 151.764 165.597 151.831 165.622C151.898 165.648 151.954 165.695 151.991 165.757C152.085 165.869 152.133 166.014 152.122 166.16C152.071 166.75 151.184 167.391 151.113 167.421C151.099 167.431 151.082 167.436 151.065 167.436C151.048 167.436 151.031 167.431 151.017 167.421C151.006 167.413 150.998 167.403 150.992 167.391ZM151.859 165.903V165.868C151.779 165.772 151.728 165.792 151.703 165.797C151.461 165.878 151.199 166.644 151.199 167.149C151.446 166.942 151.925 166.508 151.955 166.14C151.96 166.058 151.939 165.977 151.895 165.908L151.859 165.903Z" fill="#2C2C2C"/>
<path opacity="0.7" d="M156.731 167.174C156.731 167.174 185.282 156.078 194.027 157.934C202.773 159.79 202.813 164.365 198.38 168.632C193.947 172.898 187.325 171.254 187.325 171.254C187.325 171.254 192.53 168.137 192.166 166.211C191.803 164.284 188.495 168.687 188.495 168.687C188.495 168.687 171.241 172.908 156.994 171.794L156.731 167.174Z" fill="white"/>
<path d="M156.383 167.088L157.987 166.352L158.91 172.358L156.681 171.995L156.383 167.088Z" fill="#2C2C2C"/>
<path opacity="0.6" d="M156.383 167.088L157.987 166.352L158.91 172.358L156.681 171.995L156.383 167.088Z" fill="white"/>
<path d="M203.63 123.059C200.549 140.207 201.668 151.302 201.668 151.302C201.668 151.302 187.33 151.106 181.439 150.773C178.297 129.989 183.129 122.091 183.129 122.091C184.669 121.782 186.227 121.568 187.794 121.451C188.122 121.425 188.46 121.41 188.803 121.395C191.582 121.393 194.358 121.55 197.119 121.864C197.624 121.92 198.173 121.99 198.688 122.066C201.315 122.464 203.63 123.059 203.63 123.059Z" fill="#263238"/>
<path opacity="0.1" d="M203.63 123.059C203.247 125.187 202.929 127.225 202.667 129.151C202.253 132.177 201.976 134.982 201.794 137.473C201.739 138.224 201.688 138.956 201.653 139.652C201.507 142.204 201.467 144.388 201.472 146.153C201.472 149.471 201.668 151.302 201.668 151.302C201.668 151.302 187.33 151.105 181.439 150.772C178.292 129.989 183.134 122.091 183.134 122.091C184.673 121.782 186.229 121.568 187.794 121.45C188.122 121.425 188.46 121.41 188.803 121.395C191.582 121.39 194.358 121.547 197.119 121.864C197.624 121.919 198.173 121.99 198.688 122.065C201.315 122.459 203.63 123.059 203.63 123.059Z" fill="white"/>
<path opacity="0.2" d="M190.825 141.987C194.499 141.551 198.125 140.771 201.653 139.657C201.507 142.209 201.467 144.393 201.472 146.158C194.628 146.789 191.834 145.472 191.834 145.472L190.825 141.987Z" fill="black"/>
<path opacity="0.2" d="M202.667 129.157C202.253 132.183 201.976 134.987 201.794 137.478C199.832 133.484 201.29 128.693 201.29 128.693L202.667 129.157Z" fill="black"/>
<path d="M191.602 149.028H181.172C180.969 149.024 180.775 148.946 180.628 148.807C180.48 148.667 180.39 148.478 180.375 148.276L178.923 134.432C178.913 134.339 178.923 134.245 178.952 134.156C178.981 134.067 179.028 133.986 179.091 133.917C179.154 133.847 179.231 133.793 179.317 133.755C179.402 133.718 179.495 133.699 179.588 133.701H190.018C190.217 133.705 190.407 133.781 190.553 133.916C190.699 134.051 190.79 134.234 190.81 134.432L192.268 148.276C192.281 148.371 192.273 148.467 192.246 148.558C192.218 148.65 192.171 148.734 192.108 148.805C192.044 148.877 191.967 148.933 191.879 148.972C191.792 149.01 191.697 149.029 191.602 149.028Z" fill="#263238"/>
<path opacity="0.6" d="M191.602 149.028H181.172C180.969 149.024 180.775 148.946 180.628 148.807C180.48 148.667 180.39 148.478 180.375 148.276L178.923 134.432C178.913 134.339 178.923 134.245 178.952 134.156C178.981 134.067 179.028 133.986 179.091 133.917C179.154 133.847 179.231 133.793 179.317 133.755C179.402 133.718 179.495 133.699 179.588 133.701H190.018C190.217 133.705 190.407 133.781 190.553 133.916C190.699 134.051 190.79 134.234 190.81 134.432L192.268 148.276C192.281 148.371 192.273 148.467 192.246 148.558C192.218 148.65 192.171 148.734 192.108 148.805C192.044 148.877 191.967 148.933 191.879 148.972C191.792 149.01 191.697 149.029 191.602 149.028Z" fill="white"/>
<path opacity="0.2" d="M191.168 149.028H181.172C180.969 149.024 180.775 148.946 180.628 148.807C180.48 148.667 180.39 148.478 180.375 148.276L178.923 134.432C178.913 134.339 178.923 134.245 178.952 134.156C178.981 134.067 179.028 133.986 179.091 133.917C179.154 133.847 179.231 133.793 179.317 133.755C179.402 133.718 179.495 133.699 179.588 133.701H189.585C189.783 133.705 189.973 133.781 190.119 133.916C190.265 134.051 190.357 134.234 190.376 134.432L191.834 148.276C191.847 148.371 191.839 148.467 191.812 148.558C191.784 148.65 191.737 148.734 191.674 148.805C191.611 148.877 191.533 148.933 191.445 148.972C191.358 149.01 191.264 149.029 191.168 149.028Z" fill="white"/>
<path d="M185.085 140.242C184.942 140.241 184.799 140.271 184.668 140.329C184.537 140.387 184.419 140.473 184.324 140.581C184.228 140.688 184.157 140.815 184.114 140.952C184.072 141.089 184.059 141.234 184.077 141.377C184.106 141.683 184.248 141.967 184.474 142.176C184.7 142.384 184.995 142.502 185.302 142.507C185.446 142.508 185.587 142.478 185.718 142.42C185.849 142.362 185.967 142.277 186.062 142.17C186.157 142.063 186.229 141.937 186.272 141.8C186.315 141.664 186.328 141.519 186.311 141.377C186.003 141.371 185.708 141.252 185.482 141.043C185.256 140.834 185.115 140.549 185.085 140.242Z" fill="#263238"/>
<path opacity="0.3" d="M187.345 134.821H181.833C181.697 134.819 181.565 134.779 181.451 134.706C181.337 134.633 181.246 134.529 181.187 134.407L180.859 133.721H188.132L187.94 134.407C187.903 134.533 187.823 134.643 187.715 134.718C187.607 134.793 187.477 134.83 187.345 134.821Z" fill="black"/>
<path d="M190.583 141.543L188.172 141.347L188.273 144.554L190.29 145.613L194.94 145.19L195.318 143.026C193.79 140.787 190.583 141.543 190.583 141.543Z" fill="#E4897B"/>
<path d="M203.63 123.059C206.106 123.806 209.616 138.189 209.057 141.367C208.497 144.544 202.389 145.906 194.627 145.729V141.977L203.63 139.349L202.117 133.802C202.117 133.802 200.866 129.721 201.426 126.867C201.733 125.394 202.506 124.059 203.63 123.059Z" fill="#263238"/>
<path opacity="0.1" d="M203.63 123.059C206.106 123.806 209.616 138.189 209.057 141.367C208.497 144.544 202.389 145.906 194.627 145.729V141.977L203.63 139.349L202.117 133.802C202.117 133.802 200.866 129.721 201.426 126.867C201.733 125.394 202.506 124.059 203.63 123.059Z" fill="white"/>
<path d="M195.919 121.702C194.663 123.014 192.691 124.113 189.529 123.997C187.103 123.901 186.765 122.378 187.189 121.541C188.661 121.238 189.327 120.598 189.534 119.781C189.74 118.964 189.453 117.864 189.029 116.846L193.12 113.401L193.811 112.816C193.811 113.013 193.785 113.219 193.775 113.436C193.728 114.236 193.728 115.037 193.775 115.837C193.911 118.091 194.446 120.537 195.919 121.702Z" fill="#E4897B"/>
<path opacity="0.2" d="M193.78 115.837C193.019 117.395 191.682 119.276 189.534 119.781C189.756 118.913 189.453 117.864 189.029 116.846L193.119 113.401C193.336 113.401 193.558 113.401 193.775 113.436C193.729 114.236 193.731 115.037 193.78 115.837Z" fill="black"/>
<path d="M184.41 106.552C183.81 107.924 183.734 110.869 185.822 110.138C187.91 109.407 185.419 104.197 184.41 106.552Z" fill="#263238"/>
<path d="M194.411 109.593C194.229 113.265 194.315 115.428 192.479 117.32C189.715 120.164 185.156 118.49 184.228 114.828C183.401 111.525 183.835 106.073 187.416 104.6C188.21 104.275 189.074 104.156 189.926 104.255C190.779 104.354 191.593 104.668 192.291 105.166C192.99 105.665 193.551 106.332 193.921 107.107C194.292 107.881 194.46 108.736 194.411 109.593Z" fill="#E4897B"/>
<path d="M188.843 110.632C188.843 110.93 188.692 111.177 188.495 111.177C188.298 111.177 188.137 110.935 188.132 110.632C188.127 110.33 188.288 110.093 188.48 110.093C188.672 110.093 188.838 110.335 188.843 110.632Z" fill="#263238"/>
<path d="M185.454 110.642C185.454 110.94 185.302 111.182 185.106 111.182C184.909 111.182 184.748 110.94 184.748 110.642C184.748 110.345 184.899 110.103 185.096 110.103C185.292 110.103 185.454 110.34 185.454 110.642Z" fill="#263238"/>
<path d="M186.533 110.789C186.176 111.675 185.698 112.506 185.111 113.26C185.319 113.397 185.554 113.489 185.799 113.529C186.045 113.57 186.297 113.559 186.538 113.497L186.533 110.789Z" fill="#DE5753"/>
<path d="M189.872 109.538C189.841 109.542 189.811 109.539 189.782 109.527C189.754 109.516 189.729 109.497 189.71 109.472C189.58 109.293 189.409 109.147 189.212 109.045C189.015 108.944 188.797 108.89 188.576 108.887C188.529 108.89 188.483 108.875 188.448 108.845C188.412 108.815 188.389 108.772 188.384 108.726C188.382 108.703 188.384 108.679 188.391 108.657C188.398 108.635 188.41 108.614 188.425 108.596C188.44 108.579 188.458 108.564 188.479 108.553C188.5 108.543 188.522 108.536 188.545 108.534C188.826 108.532 189.102 108.597 189.353 108.722C189.604 108.847 189.821 109.03 189.988 109.255C190.016 109.292 190.029 109.339 190.024 109.385C190.018 109.432 189.994 109.474 189.958 109.503C189.933 109.522 189.903 109.534 189.872 109.538Z" fill="#263238"/>
<path d="M183.981 109.482C183.948 109.492 183.913 109.492 183.88 109.482C183.859 109.472 183.841 109.458 183.825 109.44C183.81 109.423 183.798 109.403 183.791 109.381C183.783 109.359 183.78 109.335 183.782 109.312C183.783 109.289 183.789 109.266 183.8 109.245C183.911 108.989 184.083 108.763 184.301 108.587C184.519 108.412 184.776 108.291 185.05 108.237C185.074 108.234 185.097 108.236 185.12 108.242C185.142 108.248 185.163 108.259 185.181 108.274C185.2 108.288 185.215 108.306 185.226 108.327C185.237 108.347 185.245 108.37 185.247 108.393C185.251 108.416 185.25 108.439 185.244 108.461C185.239 108.483 185.229 108.504 185.215 108.522C185.202 108.54 185.185 108.556 185.165 108.567C185.145 108.579 185.123 108.587 185.101 108.59C184.884 108.63 184.681 108.724 184.51 108.862C184.338 109 184.203 109.179 184.117 109.381C184.104 109.408 184.085 109.431 184.061 109.448C184.038 109.466 184.01 109.477 183.981 109.482Z" fill="#263238"/>
<path d="M188.641 106.648C188.641 106.648 189.65 105.922 190.114 106.703C190.578 107.485 190.547 109.568 190.547 109.568L190.749 109.2C190.749 109.2 192.055 113.84 193.947 112.67C195.838 111.5 198.617 106.789 194.199 104.388C194.199 104.388 193.73 103.269 190.81 102.714C187.89 102.159 184.359 103.965 183.749 105.896C183.139 107.828 183.991 108.923 183.991 108.923C184.085 108.502 184.276 108.11 184.551 107.778C184.59 107.974 184.677 108.159 184.805 108.313C184.932 108.468 185.096 108.589 185.282 108.665C185.252 108.271 185.334 107.876 185.519 107.525C185.616 107.869 185.788 108.186 186.023 108.453C186.235 106.466 187.587 106.063 188.011 106.078C188.162 106.095 188.305 106.159 188.418 106.261C188.531 106.363 188.609 106.499 188.641 106.648Z" fill="#263238"/>
<path d="M195.869 112.634C195.734 113.071 195.513 113.477 195.221 113.829C194.928 114.18 194.569 114.47 194.164 114.682C193.074 115.242 192.278 114.319 192.368 113.169C192.449 112.125 193.11 110.577 194.305 110.501C194.566 110.489 194.827 110.542 195.063 110.655C195.299 110.768 195.503 110.938 195.658 111.149C195.813 111.36 195.913 111.606 195.95 111.865C195.986 112.125 195.959 112.389 195.869 112.634Z" fill="#E4897B"/>
<path d="M186.654 114.727C186.969 115.057 187.259 115.409 187.522 115.781L187.739 115.676C188.712 115.171 189.005 114.632 189.03 114.162C189.036 113.936 188.99 113.712 188.894 113.507C188.842 113.39 188.774 113.281 188.692 113.184C188.227 113.756 187.644 114.221 186.982 114.546C186.785 114.667 186.654 114.727 186.654 114.727Z" fill="#263238"/>
<path d="M186.982 114.556L187.249 114.859C188.162 114.395 188.762 113.941 188.893 113.517C188.842 113.4 188.774 113.292 188.692 113.194C188.227 113.767 187.644 114.231 186.982 114.556Z" fill="white"/>
<path d="M187.738 115.676C188.712 115.171 189.004 114.632 189.029 114.163C188.663 114.357 188.333 114.615 188.056 114.924C187.873 115.135 187.762 115.398 187.738 115.676Z" fill="#A24E3F"/>
<path d="M98.8783 126.68L99.1405 129.48C99.1405 129.48 115.522 131.971 118.144 134.523C120.767 137.075 130.072 177.437 130.072 177.437L126.319 177.942C126.319 177.942 113.297 148.186 112.601 143.879C112.601 143.879 101.133 144.307 93.3053 144.307C85.4779 144.307 84.5449 126.655 84.5449 126.655L98.8783 126.68Z" fill="#2C2C2C"/>
<path opacity="0.3" d="M130.072 177.443L126.32 177.947C126.32 177.947 120.994 165.777 116.974 155.877C114.7 150.294 112.849 145.432 112.602 143.879C112.602 143.879 104.663 144.171 97.4713 144.272C96.0188 144.272 94.6016 144.302 93.2853 144.302C85.4579 144.302 84.5249 126.65 84.5249 126.65H98.8583L99.1205 129.449C99.1205 129.449 115.507 131.936 118.124 134.493C120.742 137.05 130.072 177.443 130.072 177.443Z" fill="white"/>
<path d="M132.967 181.058C130.445 181.058 130.108 181.018 128.685 180.968C127.47 180.927 127.172 181.079 126.204 181.058C125.387 181.058 125.417 180.257 125.669 179.359C125.795 178.905 125.987 177.952 126.174 177.225L129.876 176.953C130.38 177.962 131.57 179.369 132.992 179.561C134.415 179.752 133.976 181.058 132.967 181.058Z" fill="#263238"/>
<path opacity="0.2" d="M116.974 155.897C114.7 150.314 112.849 145.452 112.602 143.899C112.602 143.899 104.663 144.191 97.4715 144.292L96.6948 130.579C96.6948 130.579 106.822 132.032 113.631 137.897C114.493 138.623 116.172 149.855 116.974 155.897Z" fill="black"/>
<path d="M113.444 146.93H84.1366V145.129C84.1366 144.529 84.3752 143.953 84.7998 143.528C85.2245 143.103 85.8005 142.865 86.4011 142.865H111.179C111.78 142.865 112.356 143.103 112.781 143.528C113.205 143.953 113.444 144.529 113.444 145.129V146.93Z" fill="#263238"/>
<path opacity="0.2" d="M113.444 146.93H84.1366V145.129C84.1366 144.529 84.3752 143.953 84.7998 143.528C85.2245 143.103 85.8005 142.865 86.4011 142.865H111.179C111.78 142.865 112.356 143.103 112.781 143.528C113.205 143.953 113.444 144.529 113.444 145.129V146.93Z" fill="white"/>
<path d="M112.425 173.282L101.128 172.298V157.46H97.1588V172.293L85.8212 173.302C85.3392 173.349 84.8921 173.574 84.5668 173.933C84.2415 174.292 84.0612 174.759 84.061 175.244V176.757H114.19V175.244C114.195 174.755 114.016 174.282 113.69 173.919C113.363 173.556 112.912 173.328 112.425 173.282Z" fill="#263238"/>
<path d="M87.7123 178.597C87.7123 179.111 87.56 179.613 87.2746 180.04C86.9892 180.468 86.5835 180.8 86.1089 180.997C85.6343 181.194 85.1121 181.245 84.6082 181.145C84.1044 181.045 83.6416 180.797 83.2783 180.434C82.9151 180.071 82.6677 179.608 82.5675 179.104C82.4673 178.6 82.5187 178.078 82.7153 177.603C82.9119 177.129 83.2448 176.723 83.6719 176.438C84.0991 176.152 84.6012 176 85.1149 176C85.8038 176 86.4644 176.274 86.9515 176.761C87.4386 177.248 87.7123 177.908 87.7123 178.597Z" fill="#263238"/>
<path d="M113.126 181.195C114.561 181.195 115.724 180.032 115.724 178.597C115.724 177.163 114.561 176 113.126 176C111.692 176 110.529 177.163 110.529 178.597C110.529 180.032 111.692 181.195 113.126 181.195Z" fill="#263238"/>
<path d="M96.4727 145.961H101.814V158.615C101.814 159.112 101.616 159.588 101.266 159.938C100.915 160.289 100.439 160.486 99.9425 160.486H98.3488C97.8526 160.486 97.3766 160.289 97.0257 159.938C96.6748 159.588 96.4777 159.112 96.4777 158.615V145.961H96.4727Z" fill="#263238"/>
<path opacity="0.2" d="M96.4727 145.961H101.814V158.615C101.814 159.112 101.616 159.588 101.266 159.938C100.915 160.289 100.439 160.486 99.9425 160.486H98.3488C97.8526 160.486 97.3766 160.289 97.0257 159.938C96.6748 159.588 96.4777 159.112 96.4777 158.615V145.961H96.4727Z" fill="white"/>
<path d="M83.93 147.399H113.646C114.15 147.399 114.559 146.99 114.559 146.486V146.279C114.559 145.775 114.15 145.366 113.646 145.366H83.93C83.4258 145.366 83.0171 145.775 83.0171 146.279V146.486C83.0171 146.99 83.4258 147.399 83.93 147.399Z" fill="#263238"/>
<path opacity="0.2" d="M87.7123 178.597C87.7123 179.111 87.56 179.613 87.2746 180.04C86.9892 180.468 86.5835 180.8 86.1089 180.997C85.6343 181.194 85.1121 181.245 84.6082 181.145C84.1044 181.045 83.6416 180.797 83.2783 180.434C82.9151 180.071 82.6677 179.608 82.5675 179.104C82.4673 178.6 82.5187 178.078 82.7153 177.603C82.9119 177.129 83.2448 176.723 83.6719 176.438C84.0991 176.152 84.6012 176 85.1149 176C85.8038 176 86.4644 176.274 86.9515 176.761C87.4386 177.248 87.7123 177.908 87.7123 178.597Z" fill="white"/>
<path opacity="0.2" d="M113.126 181.195C114.561 181.195 115.724 180.032 115.724 178.597C115.724 177.163 114.561 176 113.126 176C111.692 176 110.529 177.163 110.529 178.597C110.529 180.032 111.692 181.195 113.126 181.195Z" fill="white"/>
<path d="M115.935 121.98H106.882C104.23 121.98 102.313 119.595 102.606 116.659L102.989 112.736C103.281 109.795 105.662 107.41 108.315 107.41H117.368C120.021 107.41 121.937 109.795 121.65 112.736L121.261 116.659C120.974 119.595 118.588 121.98 115.935 121.98Z" fill="#263238"/>
<path opacity="0.2" d="M115.935 121.98H106.882C104.23 121.98 102.313 119.595 102.606 116.659L102.989 112.736C103.281 109.795 105.662 107.41 108.315 107.41H117.368C120.021 107.41 121.937 109.795 121.65 112.736L121.261 116.659C120.974 119.595 118.588 121.98 115.935 121.98Z" fill="white"/>
<path d="M115.103 120.069H109.767C108.199 120.069 107.064 118.661 107.246 116.921L107.478 114.607C107.644 112.867 109.056 111.459 110.625 111.459H115.971C117.539 111.459 118.674 112.867 118.492 114.607L118.26 116.921C118.079 118.661 116.672 120.069 115.103 120.069Z" fill="#263238"/>
<path d="M110.857 116.609C110.857 116.609 109.636 141.145 104.351 145.356H110.004C110.004 145.356 115.048 136.999 115.416 116.609H110.857Z" fill="#263238"/>
<path d="M115.406 106.386L116.379 105.881C116.562 105.788 116.764 105.739 116.969 105.739C117.174 105.739 117.377 105.788 117.559 105.881L119.304 106.739C119.648 106.908 119.946 107.157 120.173 107.465C120.401 107.773 120.551 108.131 120.611 108.509L120.691 108.988C119.133 109.967 116.732 109.876 116.732 109.876L116.041 109.931C115.9 109.946 115.758 109.932 115.622 109.891C115.487 109.85 115.361 109.783 115.251 109.693C115.142 109.603 115.052 109.492 114.985 109.367C114.919 109.241 114.879 109.104 114.866 108.963L114.745 107.601C114.722 107.356 114.773 107.109 114.89 106.893C115.008 106.676 115.187 106.5 115.406 106.386Z" fill="#B97964"/>
<path opacity="0.2" d="M115.406 106.386L116.379 105.881C116.562 105.788 116.764 105.739 116.969 105.739C117.174 105.739 117.377 105.788 117.559 105.881L119.304 106.739C119.648 106.908 119.946 107.157 120.173 107.465C120.401 107.773 120.551 108.131 120.611 108.509L120.691 108.988C119.133 109.967 116.732 109.876 116.732 109.876L116.041 109.931C115.9 109.946 115.758 109.932 115.622 109.891C115.487 109.85 115.361 109.783 115.251 109.693C115.142 109.603 115.052 109.492 114.985 109.367C114.919 109.241 114.879 109.104 114.866 108.963L114.745 107.601C114.722 107.356 114.773 107.109 114.89 106.893C115.008 106.676 115.187 106.5 115.406 106.386Z" fill="black"/>
<path d="M108.254 107.586L104.724 112.049H101.365L101.804 105.821C104.345 106.31 108.254 107.586 108.254 107.586Z" fill="#2C2C2C"/>
<path opacity="0.2" d="M104.426 112.049H101.521L103.327 107.586C103.327 107.586 104.361 109.154 104.426 112.049Z" fill="black"/>
<path d="M99.0957 128.365L84.3135 126.993C84.7775 125.42 85.186 123.876 85.5289 122.389C85.9627 120.568 86.3056 118.823 86.578 117.194C86.8503 115.565 87.0823 114.052 87.2437 112.68L87.2891 112.292C87.2891 112.075 87.3395 111.863 87.3597 111.661C87.506 110.335 87.5967 109.18 87.6573 108.227C87.7833 106.366 87.7833 105.291 87.7833 105.291C92.8481 104.322 98.0748 104.632 102.989 106.194C105.188 112.387 99.0957 128.365 99.0957 128.365Z" fill="#2C2C2C"/>
<path d="M99.0451 107.182C98.8206 107.648 98.4773 108.045 98.0499 108.335C97.6225 108.626 97.1261 108.798 96.6108 108.835C96.0956 108.871 95.5798 108.772 95.1155 108.545C94.6511 108.319 94.2547 107.974 93.9663 107.546L93.3258 106.592L92.5391 105.407C93.8604 104.625 94.3799 102.124 94.5564 99.9754C94.6119 99.2996 94.6321 98.6642 94.6321 98.1245L97.9506 102.664C97.7185 103.144 97.549 103.653 97.4463 104.177C97.4043 104.392 97.3874 104.612 97.3959 104.832C97.4009 105.715 97.8397 106.532 99.0451 107.182Z" fill="#B97964"/>
<path opacity="0.2" d="M97.9406 102.689C97.7084 103.169 97.5389 103.678 97.4362 104.202C96.5637 105.321 95.207 106.507 93.3359 106.582L92.5391 105.407C93.8604 104.625 94.3799 102.124 94.5564 99.9754C94.6119 99.2996 94.6321 98.6642 94.6321 98.1245L97.9406 102.689Z" fill="black"/>
<path d="M89.9671 95.1087C89.9671 95.1087 88.3279 94.4934 88.8121 93.3586C89.2963 92.2239 89.8813 92.234 89.8813 92.234C89.6336 91.77 89.499 91.2541 89.4885 90.7282C89.4779 90.2023 89.5918 89.6814 89.8208 89.2079C90.6328 87.6949 92.4282 88.3102 92.4282 88.3102C92.4353 87.8349 92.604 87.3762 92.9065 87.0096C93.209 86.6429 93.6273 86.3901 94.0926 86.2928C94.5674 86.2142 95.055 86.2929 95.481 86.5169C95.9071 86.7408 96.2483 87.0978 96.4529 87.5335C96.4529 87.5335 97.5826 86.0659 99.2368 86.4693C100.891 86.8728 101.224 89.1777 101.224 89.1777C101.676 89.0303 102.167 89.0629 102.595 89.2686C103.024 89.4744 103.356 89.8374 103.524 90.2822C103.749 90.7464 103.843 91.2632 103.796 91.7769C103.748 92.2906 103.562 92.7817 103.256 93.1973C103.256 93.1973 104.311 92.6929 104.658 94.3925C105.006 96.0922 103.231 97.585 103.231 97.585C103.231 97.585 104.189 97.701 103.695 98.9568C103.201 100.213 101.643 100.233 101.643 100.233C101.643 100.233 102.248 100.54 101.103 101.574C99.958 102.608 96.2713 101.131 96.2713 101.131L89.9671 95.1087Z" fill="#263238"/>
<path d="M94.4758 92.4155C90.9454 92.5971 89.9367 94.5438 89.851 98.1902C89.7652 102.729 90.9404 105.912 95.2928 104.711C101.194 103.082 100.326 92.1079 94.4758 92.4155Z" fill="#B97964"/>
<path d="M92.1152 97.8726C91.861 98.4131 91.5426 98.9211 91.167 99.3856C91.2783 99.5261 91.4261 99.6333 91.5942 99.6956C91.7623 99.7579 91.9442 99.7727 92.1202 99.7386L92.1152 97.8726Z" fill="#A24E3F"/>
<path d="M94.2588 97.4692C94.2588 97.7617 94.4303 97.9735 94.6219 97.9735C94.8136 97.9735 94.9649 97.7314 94.9598 97.4389C94.9548 97.1464 94.7884 96.9346 94.5917 96.9346C94.395 96.9346 94.2487 97.1817 94.2588 97.4692Z" fill="#263238"/>
<path d="M94.6726 96.9498L94.0371 96.7178C94.0371 96.7178 94.3649 97.2423 94.6726 96.9498Z" fill="#263238"/>
<path d="M90.653 97.5146C90.653 97.8071 90.8244 98.0189 91.0211 98.0189C91.2178 98.0189 91.3641 97.7768 91.354 97.4843C91.3439 97.1918 91.1825 96.98 90.9909 96.98C90.7992 96.98 90.6479 97.2271 90.653 97.5146Z" fill="#263238"/>
<path d="M91.0712 96.9901L90.4307 96.7632C90.4307 96.7632 90.7635 97.2827 91.0712 96.9901Z" fill="#263238"/>
<path d="M95.7215 95.6381C95.7005 95.6385 95.6796 95.6342 95.6603 95.6255C95.6411 95.6167 95.6241 95.6038 95.6106 95.5877C95.4202 95.4177 95.1937 95.2932 94.9483 95.2233C94.7028 95.1534 94.4448 95.14 94.1934 95.1842C94.1739 95.1878 94.1538 95.1876 94.1343 95.1835C94.1149 95.1794 94.0965 95.1715 94.0801 95.1602C94.0637 95.149 94.0496 95.1346 94.0388 95.118C94.028 95.1013 94.0205 95.0827 94.0169 95.0631C94.011 95.0245 94.0203 94.985 94.0428 94.953C94.0654 94.921 94.0995 94.899 94.1379 94.8917C94.4401 94.8364 94.7511 94.8533 95.0456 94.941C95.3401 95.0286 95.6097 95.1845 95.8325 95.396C95.8602 95.4243 95.8758 95.4623 95.8758 95.5019C95.8758 95.5415 95.8602 95.5796 95.8325 95.6078C95.8007 95.6317 95.761 95.6425 95.7215 95.6381Z" fill="#263238"/>
<path d="M90.2089 95.5325C90.186 95.5324 90.1633 95.5274 90.1424 95.5179C90.1215 95.5083 90.1029 95.4944 90.0879 95.4771C90.0638 95.445 90.0535 95.4046 90.0591 95.3649C90.0648 95.3252 90.086 95.2893 90.1181 95.2652C90.3252 95.0914 90.5686 94.9662 90.8305 94.899C91.0924 94.8318 91.366 94.8242 91.6312 94.8769C91.6505 94.8826 91.6685 94.8922 91.6841 94.905C91.6997 94.9178 91.7126 94.9336 91.722 94.9515C91.7314 94.9693 91.7371 94.9889 91.7388 95.009C91.7406 95.0291 91.7382 95.0493 91.732 95.0685C91.7193 95.1055 91.6928 95.1362 91.658 95.154C91.6232 95.1719 91.5829 95.1756 91.5454 95.1644C91.3238 95.1245 91.096 95.1346 90.8787 95.1939C90.6615 95.2532 90.4602 95.3603 90.2896 95.5073C90.2655 95.523 90.2376 95.5317 90.2089 95.5325Z" fill="#263238"/>
<path d="M98.6363 98.1499C98.6363 98.1499 96.8358 95.3407 96.9719 93.1065C96.9719 93.1065 89.8406 90.6201 89.8658 97.7212C89.8658 97.7212 88.8571 91.4673 94.9092 91.0084C100.961 90.5494 101.395 99.4107 98.4043 102.215C98.3992 102.205 99.7509 99.905 98.6363 98.1499Z" fill="#263238"/>
<path d="M98.1021 98.9266C98.1066 98.7229 98.1514 98.522 98.2338 98.3356C98.3162 98.1491 98.4346 97.9808 98.5822 97.8402C98.7298 97.6996 98.9037 97.5896 99.0939 97.5164C99.2842 97.4432 99.487 97.4083 99.6907 97.4136C100.79 97.4792 101.426 99.6932 98.7375 100.374C98.3542 100.48 98.1121 100.112 98.1021 98.9266Z" fill="#B97964"/>
<path d="M92.9677 101.791C92.867 101.798 92.7659 101.798 92.6651 101.791C92.6456 101.788 92.6269 101.78 92.6103 101.769C92.5936 101.758 92.5793 101.744 92.568 101.728C92.5568 101.712 92.5489 101.693 92.5448 101.674C92.5407 101.654 92.5404 101.634 92.5441 101.615C92.5471 101.595 92.554 101.577 92.5643 101.56C92.5747 101.544 92.5882 101.529 92.6042 101.518C92.6202 101.507 92.6383 101.499 92.6574 101.494C92.6766 101.49 92.6963 101.49 92.7156 101.494C93.0954 101.56 93.4867 101.497 93.8263 101.314C94.1658 101.131 94.4337 100.839 94.5867 100.485C94.5939 100.466 94.6048 100.449 94.6186 100.435C94.6325 100.421 94.649 100.409 94.6672 100.401C94.6855 100.393 94.7052 100.389 94.7251 100.389C94.745 100.388 94.7648 100.392 94.7833 100.399C94.8019 100.406 94.8188 100.417 94.8332 100.431C94.8475 100.445 94.859 100.462 94.8669 100.48C94.8749 100.498 94.8792 100.518 94.8796 100.538C94.8799 100.558 94.8764 100.577 94.8691 100.596C94.7144 100.967 94.4486 101.281 94.1081 101.495C93.7677 101.709 93.3693 101.813 92.9677 101.791Z" fill="#263238"/>
<path d="M99.9325 96.8639C99.0903 92.4912 92.6246 88.8196 90.1987 93.9034C90.6054 92.6293 91.3921 91.51 92.4531 90.6958C92.4531 90.6958 99.0096 88.8247 100.165 96.2939L99.9325 96.8639Z" fill="#2C2C2C"/>
<path d="M96.4881 181.058C93.9664 181.058 93.6285 181.018 92.2063 180.968C90.9908 180.927 90.6932 181.079 89.7249 181.058C88.9079 181.058 88.9381 180.257 89.1903 179.359C89.3164 178.905 89.508 177.952 89.6946 177.225L93.3965 176.953C93.9008 177.962 95.0911 179.369 96.5133 179.561C97.9356 179.752 97.4918 181.058 96.4881 181.058Z" fill="#263238"/>
<path d="M84.5502 126.681C84.5502 126.681 79.5068 134.18 82.2403 140.343C84.9739 146.506 98.7979 143.722 98.7979 143.722L89.6895 177.241L94.047 177.962C94.047 177.962 109.495 144.741 109.888 139.077C110.282 133.414 93.6031 129.777 93.6031 129.777L84.5502 126.681Z" fill="#2C2C2C"/>
<path opacity="0.3" d="M84.5502 126.681C84.5502 126.681 79.5068 134.18 82.2403 140.343C84.9739 146.506 98.7979 143.722 98.7979 143.722L89.6895 177.241L94.047 177.962C94.047 177.962 109.495 144.741 109.888 139.077C110.282 133.414 93.6031 129.777 93.6031 129.777L84.5502 126.681Z" fill="white"/>
<path opacity="0.2" d="M99.9324 109.442C99.9324 109.442 92.8716 114.415 87.2886 112.276C87.2886 112.06 87.339 111.848 87.3592 111.646C87.5054 110.32 87.5962 109.165 87.6567 108.211C89.4661 107.385 91.3444 106.718 93.2701 106.219C95.2523 107.729 97.518 108.825 99.9324 109.442Z" fill="black"/>
<path d="M90.0978 105.301C93.2045 106.814 96.4121 108.696 99.7963 109.387C101.743 109.26 103.922 108.469 105.879 107.934L111.744 106.159C111.995 106.08 112.267 106.097 112.506 106.207C112.745 106.318 112.935 106.514 113.037 106.756C113.14 106.999 113.149 107.271 113.062 107.519C112.974 107.768 112.798 107.975 112.566 108.1C110.735 109.109 108.89 110.037 106.978 110.884C104.618 111.853 102.439 112.982 99.7761 113.225C98.8204 113.213 97.8705 113.074 96.9518 112.811C93.8513 111.901 90.866 110.637 88.0552 109.044C87.608 108.751 87.2868 108.301 87.1554 107.783C87.0239 107.265 87.0917 106.716 87.3453 106.246C87.599 105.776 88.0199 105.417 88.525 105.243C89.03 105.068 89.5823 105.089 90.0726 105.301H90.0978Z" fill="#B97864"/>
<path d="M88.4288 104.742C85.7104 105.387 85.6196 110.052 88.1161 112.241L94.1682 107.132C94.1682 107.132 91.6516 103.975 88.4288 104.742Z" fill="#2C2C2C"/>
<path d="M111.901 106.184L115.254 106.104L113.741 109.498C113.741 109.498 110.715 109.392 110.862 107.849L111.901 106.184Z" fill="#B97964"/>
<path d="M118.134 107.763L115.835 110.239L113.731 109.498L115.255 106.104L118.134 107.763Z" fill="#B97964"/>
<path d="M163.167 147.021C165.512 151.872 167.771 156.724 169.299 161.919C170 165.449 170.132 169.04 170.394 172.545C170.575 175.445 170.681 178.34 170.722 181.25L168.124 181.522C167.302 177.432 166.531 172.868 165.814 168.742C165.471 166.876 165.209 165.041 164.74 163.245C162.955 158.62 160.478 153.859 158.426 149.31L163.167 147.021Z" fill="#DC897C"/>
<path d="M167.04 153.37L162.93 155.337L160.378 156.572L158.829 152.85L157.21 148.952L158.577 141.846C162.773 143.682 167.04 153.37 167.04 153.37Z" fill="#2C2C2C"/>
<path opacity="0.2" d="M162.93 155.337L160.378 156.573L158.83 152.851C159.147 150.743 159.415 148.952 159.415 148.952C159.415 148.952 162.4 151.63 162.93 155.337Z" fill="black"/>
<path d="M150.619 128.96C150.664 129.263 150.861 129.464 151.058 129.464C151.254 129.464 151.375 129.167 151.33 128.864C151.285 128.562 151.083 128.36 150.886 128.36C150.69 128.36 150.543 128.662 150.619 128.96Z" fill="#263238"/>
<path d="M150.806 129.484C151.306 130.348 151.922 131.139 152.636 131.835C152.455 132.015 152.237 132.154 151.996 132.241C151.756 132.328 151.499 132.361 151.244 132.339L150.806 129.484Z" fill="#DE5753"/>
<path d="M149.232 127.462C149.187 127.46 149.144 127.442 149.111 127.412C149.078 127.378 149.06 127.333 149.06 127.285C149.06 127.238 149.078 127.193 149.111 127.159C149.308 126.957 149.552 126.805 149.821 126.717C150.089 126.63 150.375 126.608 150.654 126.655C150.677 126.66 150.699 126.669 150.718 126.682C150.738 126.696 150.754 126.713 150.767 126.732C150.779 126.752 150.788 126.774 150.792 126.797C150.796 126.82 150.796 126.844 150.79 126.867C150.786 126.89 150.776 126.912 150.763 126.931C150.75 126.95 150.733 126.967 150.713 126.979C150.693 126.992 150.671 127.001 150.648 127.005C150.625 127.009 150.601 127.008 150.579 127.003C150.357 126.971 150.131 126.993 149.919 127.067C149.708 127.141 149.517 127.264 149.363 127.427C149.345 127.441 149.324 127.451 149.301 127.457C149.279 127.464 149.255 127.465 149.232 127.462Z" fill="#263238"/>
<path d="M151.557 133.519C151.46 134.736 150.941 135.882 150.089 136.757C149.526 137.335 148.835 137.772 148.072 138.033C147.341 138.286 146.559 138.354 145.796 138.23C145.032 138.106 144.312 137.794 143.699 137.322C141.541 135.718 141.258 133.534 140.461 129.878C140.265 129.03 140.289 128.146 140.531 127.31C140.772 126.474 141.223 125.714 141.841 125.102C142.459 124.489 143.224 124.045 144.062 123.811C144.9 123.577 145.784 123.561 146.63 123.765C150.483 124.678 151.834 130.079 151.557 133.519Z" fill="#E4897B"/>
<path d="M141.849 135.844C143.362 136.797 149.081 134.119 148.138 129.616C148.138 129.616 150.392 127.149 150.281 124.31C150.17 121.47 148.264 120.275 146.186 120.81C144.34 121.259 144.345 122.262 144.345 122.262C144.345 122.262 135.691 122.873 137.365 126.458C133.683 130.12 139.988 134.659 141.849 135.844Z" fill="#263238"/>
<path d="M146.584 130.317C146.789 131.225 147.287 132.04 148.001 132.637C148.945 133.414 149.711 132.728 149.696 131.628C149.696 130.619 149.192 129.021 148.097 128.673C147.003 128.325 146.372 129.222 146.584 130.317Z" fill="#E4897B"/>
<path opacity="0.2" d="M151.295 134.79C151.043 135.527 150.631 136.198 150.089 136.757C149.526 137.335 148.835 137.772 148.072 138.033C147.559 137.773 147.067 137.475 146.599 137.14L147.366 135.259C147.366 135.259 149.716 136.409 151.295 134.79Z" fill="black"/>
<path d="M143.079 140.459L142.434 136.036C142.434 136.036 145.313 134.019 148.329 135.375L152.868 140.847L143.079 140.459Z" fill="#E4897B"/>
<path d="M153.393 140.303L152.339 138.724C152.339 138.724 144.693 135.895 141.359 139.521C141.359 139.521 148.819 143.465 153.393 140.303Z" fill="#2C2C2C"/>
<path opacity="0.2" d="M153.393 140.303L152.339 138.724C152.339 138.724 144.693 135.895 141.359 139.521C141.359 139.521 148.819 143.465 153.393 140.303Z" fill="black"/>
<path d="M124.035 183.187L121.155 181.331L122.26 179.682L125.261 175.203L128.145 177.059L124.827 182.007L124.035 183.187Z" fill="#E4897B"/>
<path d="M121.367 181.094L125.402 181.053C125.467 181.055 125.531 181.078 125.582 181.119C125.633 181.16 125.669 181.217 125.684 181.28L126.36 184.21C126.385 184.336 126.36 184.467 126.292 184.576C126.224 184.685 126.116 184.763 125.992 184.795H125.886C124.585 184.795 123.642 184.715 122.013 184.73C121.004 184.73 117.978 184.876 116.596 184.886C115.214 184.896 115.012 183.535 115.587 183.403C118.109 182.823 120.036 182.037 120.843 181.295C120.987 181.166 121.173 181.094 121.367 181.094Z" fill="#263238"/>
<path d="M122.144 178.567L127.419 179.989L156.055 158.262L141.364 155.045C140.315 154.82 139.222 154.921 138.231 155.332C137.24 155.744 136.398 156.448 135.816 157.349L122.144 178.567Z" fill="#263238"/>
<path opacity="0.2" d="M122.144 178.567L127.419 179.989L156.055 158.262L141.364 155.045C140.315 154.82 139.222 154.921 138.231 155.332C137.24 155.744 136.398 156.448 135.816 157.349L122.144 178.567Z" fill="black"/>
<path d="M106.489 183.292L103.514 181.593L104.532 179.888L107.291 175.258L110.267 176.958L107.216 182.072L106.489 183.292Z" fill="#E4897B"/>
<path d="M103.63 181.023H107.664C107.73 181.024 107.794 181.046 107.845 181.088C107.896 181.129 107.932 181.186 107.947 181.25L108.597 184.19C108.62 184.317 108.594 184.448 108.523 184.556C108.453 184.663 108.344 184.74 108.219 184.77H108.113C106.817 184.77 105.869 184.67 104.24 184.67C103.231 184.67 100.205 184.775 98.8232 184.775C97.4413 184.775 97.2547 183.404 97.8145 183.262C100.336 182.708 102.278 181.941 103.095 181.21C103.245 181.085 103.435 181.019 103.63 181.023Z" fill="#263238"/>
<path d="M162.965 169.67L142.943 169.721C142.439 167.946 141.803 161.767 139.846 154.127C139.317 152.054 138.686 149.875 137.945 147.641C137.329 145.62 136.581 143.642 135.706 141.72C137.517 140.625 139.508 139.858 141.586 139.455C150.447 137.942 158.577 141.846 158.577 141.846C158.577 141.846 162.093 151.63 162.965 169.67Z" fill="#2C2C2C"/>
<path opacity="0.2" d="M139.846 154.126C139.317 152.054 138.686 149.875 137.945 147.641L139.342 147.076C139.342 147.076 141.541 152.033 139.846 154.126Z" fill="black"/>
<path d="M131.086 157.556L133.411 158.656L134.298 154.742C134.298 154.742 132.442 154.092 131.05 155.04L131.086 157.556Z" fill="#E4897B"/>
<path d="M136.744 159.982L136.85 156.416L134.298 154.742L133.411 158.655L136.744 159.982Z" fill="#E4897B"/>
<path d="M138.333 147.848C134.465 149.941 130.047 151.882 126.683 154.621C126.607 154.686 126.632 154.717 126.718 154.424C126.734 154.238 126.71 154.051 126.648 153.874C126.592 153.683 126.468 153.518 126.3 153.41C126.234 153.385 126.274 153.446 126.365 153.506C126.491 153.585 126.625 153.651 126.764 153.703C128.317 154.293 130.47 154.49 132.21 154.712L132.473 157.309C131.923 157.465 131.409 157.571 130.869 157.672C128.852 158.02 126.759 158.267 124.635 157.566C123.723 157.292 122.953 156.673 122.489 155.841C122.025 155.009 121.903 154.028 122.149 153.108C123.188 149.421 132.589 144.822 136.038 143.112L138.333 147.853V147.848Z" fill="#DC897C"/>
<path d="M142 165.459L141.102 167.759C141.102 167.759 130.375 154.505 124.459 153.748C118.543 152.992 104.79 178.178 104.79 178.178L110.004 179.757L124.681 166.442C130.733 177.003 137.97 184.75 146.574 184.75H154.977C164.372 184.75 164.478 174.27 162.622 165.383L142 165.459Z" fill="#263238"/>
<path d="M135.706 141.72C132.342 142.95 128.388 146.682 128.388 146.682C128.388 146.682 131.716 152.452 132.049 152.23C132.382 152.008 139.211 150.051 139.211 150.051C139.211 150.051 140.603 148.246 139.534 145.19C139.256 144.327 138.756 143.552 138.084 142.943C137.412 142.334 136.592 141.912 135.706 141.72Z" fill="#2C2C2C"/>
<path d="M169.486 179.51L173.143 179.692L171.211 183.263C171.211 183.263 167.958 182.904 168.215 181.245L169.486 179.51Z" fill="#E4897B"/>
<path d="M176.138 181.729L173.44 184.236L171.211 183.263L173.143 179.692L176.138 181.729Z" fill="#E4897B"/>
<path d="M56.1659 143.344C58.617 145.815 61.0328 148.584 63.9681 150.455C63.9681 150.455 64.1496 150.551 64.1648 150.566C64.0858 150.536 64.0018 150.523 63.9176 150.525C63.842 150.525 63.963 150.525 64.0942 150.525C67.443 149.577 70.5548 147.393 73.6363 145.714C73.8748 145.57 74.1578 145.519 74.4315 145.571C74.7052 145.622 74.9504 145.773 75.1204 145.993C75.2905 146.214 75.3735 146.489 75.3537 146.767C75.3339 147.044 75.2127 147.305 75.0131 147.499C72.6125 149.723 66.1418 155.67 62.7425 154.424C60.6646 153.662 58.9297 152.23 57.2956 150.853C55.6995 149.47 54.1951 147.984 52.7919 146.405C50.8703 144.12 54.0779 141.21 56.1659 143.349V143.344Z" fill="#E9B376"/>
<path d="M60.3819 146.834C59.9533 150.041 57.3559 153.188 57.3559 153.188L56.8112 152.815L54.1584 151.055C54.1584 151.055 54.1079 150.904 54.0323 150.637C53.9566 150.369 53.8608 150.057 53.7448 149.628C53.1346 147.489 52.0351 143.49 51.8989 141.831C55.1923 141.755 56.675 143.324 60.3819 146.834Z" fill="#2C2C2C"/>
<path opacity="0.7" d="M60.3819 146.834C59.9533 150.041 57.3559 153.188 57.3559 153.188L56.8112 152.815L54.1584 151.055C54.1584 151.055 54.1079 150.904 54.0323 150.637C53.9566 150.369 53.8608 150.057 53.7448 149.628C53.1346 147.489 52.0351 143.49 51.8989 141.831C55.1923 141.755 56.675 143.324 60.3819 146.834Z" fill="white"/>
<path opacity="0.2" d="M56.8116 152.815L54.1588 151.055C54.1588 151.055 54.1084 150.904 54.0327 150.636C54.1311 149.824 54.2793 149.019 54.4765 148.226C55.1754 148.775 55.7463 149.471 56.1496 150.263C56.5528 151.056 56.7787 151.926 56.8116 152.815Z" fill="black"/>
<path d="M53.5836 162.65L55.8481 166.614C61.9002 165.202 81.3577 162.236 83.7432 168.909C86.7138 177.195 65.2642 183.807 53.397 184.21C41.5299 184.614 31.1758 181.79 38.6804 164.486L53.5836 162.65Z" fill="#263238"/>
<path opacity="0.2" d="M53.5836 162.65L55.8481 166.614C61.9002 165.202 81.3577 162.236 83.7432 168.909C86.7138 177.195 65.2642 183.807 53.397 184.21C41.5299 184.614 31.1758 181.79 38.6804 164.486L53.5836 162.65Z" fill="black"/>
<path d="M80.3088 180.625C80.2952 180.633 80.2795 180.638 80.2634 180.638C80.2474 180.638 80.2316 180.633 80.218 180.625C80.2108 180.613 80.207 180.6 80.207 180.587C80.207 180.574 80.2108 180.56 80.218 180.549C80.2584 180.418 80.6518 179.278 81.0502 179.157C81.092 179.147 81.1357 179.148 81.1772 179.159C81.2187 179.171 81.2566 179.192 81.2872 179.223C81.3419 179.269 81.3837 179.328 81.4085 179.396C81.4332 179.463 81.4401 179.535 81.4284 179.606C81.3634 179.82 81.2329 180.009 81.0552 180.146C80.8236 180.331 80.5734 180.491 80.3088 180.625ZM80.4097 180.408C80.7803 180.247 81.0797 179.956 81.2519 179.591C81.2632 179.543 81.2601 179.493 81.243 179.448C81.2259 179.402 81.1957 179.362 81.1561 179.334C81.1449 179.32 81.1298 179.309 81.1127 179.304C81.0957 179.299 81.0774 179.298 81.0603 179.303C81.0267 179.316 80.9958 179.335 80.9695 179.359C80.7207 179.672 80.531 180.027 80.4097 180.408Z" fill="#263238"/>
<path d="M80.2833 180.639C80.2733 180.648 80.2609 180.652 80.248 180.652C80.2351 180.652 80.2226 180.648 80.2127 180.639C80.1723 180.609 79.6276 179.918 79.7083 179.449C79.718 179.391 79.7396 179.335 79.7717 179.286C79.8038 179.237 79.8457 179.194 79.8949 179.162C79.9376 179.123 79.9916 179.099 80.0488 179.094C80.106 179.089 80.1635 179.102 80.2127 179.131C80.5002 179.338 80.4648 180.261 80.3236 180.614V180.65L80.2833 180.639ZM79.9756 179.288C79.9252 179.328 79.8912 179.386 79.8798 179.449C79.895 179.799 80.0243 180.134 80.248 180.402C80.3337 180.009 80.3085 179.358 80.137 179.242C80.137 179.242 80.0866 179.202 80.0009 179.242V179.268L79.9756 179.288Z" fill="#263238"/>
<path d="M59.444 182.571C59.4517 182.559 59.463 182.549 59.4765 182.542C59.4899 182.536 59.5049 182.534 59.5196 182.536C59.5332 182.537 59.546 182.542 59.5561 182.552C59.5662 182.561 59.5729 182.573 59.5751 182.586C59.6054 182.723 59.8121 183.913 59.5247 184.21C59.4923 184.239 59.4529 184.259 59.4104 184.268C59.3679 184.277 59.3238 184.274 59.2826 184.261C59.2116 184.249 59.1452 184.218 59.0909 184.171C59.0365 184.124 58.9964 184.062 58.9749 183.994C58.9251 183.777 58.9481 183.55 59.0405 183.348C59.1476 183.076 59.2828 182.815 59.444 182.571ZM59.444 182.813C59.1984 183.133 59.075 183.53 59.096 183.933C59.1098 183.981 59.1379 184.025 59.1765 184.057C59.2152 184.089 59.2627 184.109 59.3128 184.115C59.327 184.124 59.3437 184.129 59.3607 184.129C59.3778 184.129 59.3945 184.124 59.4087 184.115C59.4314 184.088 59.4485 184.057 59.4591 184.024C59.5347 183.624 59.5347 183.213 59.4591 182.813H59.444Z" fill="#263238"/>
<path d="M67.2111 176.564L62.3291 178.304L59.9839 179.142L60.5841 181.709L62.8536 181.225L68.4013 180.039L67.2111 176.564Z" fill="#EBB376"/>
<path d="M61.2246 181.83L60.811 178.804C60.8055 178.764 60.7921 178.726 60.7715 178.691C60.7509 178.656 60.7236 178.626 60.6912 178.602C60.6588 178.578 60.6219 178.561 60.5827 178.552C60.5435 178.542 60.5028 178.54 60.463 178.547L58.95 178.799C58.95 178.799 56.9327 178.986 56.5141 179.51C55.3339 181.023 56.0702 187.751 56.857 187.988C57.1445 188.074 57.4471 187.68 57.5732 187.408C57.9716 186.541 58.6726 184.276 59.0156 183.56C59.409 182.718 60.5286 182.309 60.9926 182.163C61.0656 182.146 61.1298 182.103 61.1727 182.041C61.2155 181.98 61.234 181.904 61.2246 181.83Z" fill="#2C2C2C"/>
<path d="M59.4543 182.571C59.4653 182.563 59.4785 182.559 59.4921 182.559C59.5056 182.559 59.5188 182.563 59.5299 182.571C59.5753 182.571 60.3923 182.924 60.5386 183.373C60.5564 183.429 60.5628 183.489 60.5576 183.547C60.5525 183.606 60.5357 183.664 60.5083 183.716C60.4922 183.772 60.4573 183.82 60.4096 183.853C60.3618 183.887 60.304 183.902 60.2461 183.898C59.8981 183.857 59.4795 183.03 59.4341 182.657V182.571C59.4407 182.57 59.4476 182.57 59.4543 182.571ZM60.3822 183.605C60.4023 183.543 60.4023 183.476 60.3822 183.413C60.2864 183.126 59.8325 182.874 59.6005 182.758C59.7115 183.146 60.0494 183.701 60.2562 183.721C60.2562 183.721 60.3167 183.721 60.3621 183.635V183.605H60.3822Z" fill="#263238"/>
<path opacity="0.2" d="M67.2111 176.564L62.3291 178.304L62.8536 181.225L68.4014 180.039L67.2111 176.564Z" fill="black"/>
<path d="M63.721 181.663L65.1231 181.764L64.185 176.933L62.5913 177.81L63.721 181.663Z" fill="#2C2C2C"/>
<path opacity="0.6" d="M63.721 181.663L65.1231 181.764L64.185 176.933L62.5913 177.81L63.721 181.663Z" fill="white"/>
<path opacity="0.2" d="M43.3506 162.902L50.6635 171.012C50.6635 171.012 58.733 170.83 68.5676 175.631C68.5676 175.631 79.1033 171.279 80.0716 167.663C81.3426 162.927 55.8633 166.629 55.8633 166.629L43.3506 162.902Z" fill="black"/>
<path d="M53.5081 166.145L38.5948 164.415C38.8804 162.875 39.049 161.315 39.0991 159.75C39.1589 157.519 39.0712 155.287 38.8369 153.067C38.6301 150.944 38.3325 148.503 37.8282 145.638C37.7273 145.126 37.7423 144.598 37.8721 144.092C38.0019 143.586 38.2431 143.116 38.5783 142.716C38.9134 142.315 39.3338 141.995 39.8088 141.778C40.2837 141.561 40.8012 141.453 41.3233 141.462C41.9234 141.462 42.5539 141.493 43.1994 141.533C45.4832 141.635 47.7568 141.9 50.003 142.325C50.7292 142.471 51.4807 142.653 52.2019 142.829C54.7892 143.5 56.393 146.758 56.1711 149.386C56.0838 151.428 55.858 153.462 55.4952 155.473C55.0363 158.439 54.4966 161.333 53.5081 166.145Z" fill="#2C2C2C"/>
<path opacity="0.7" d="M53.5081 166.145L38.5948 164.415C38.8804 162.875 39.049 161.315 39.0991 159.75C39.1589 157.519 39.0712 155.287 38.8369 153.067C38.6301 150.944 38.3325 148.503 37.8282 145.638C37.7273 145.126 37.7423 144.598 37.8721 144.092C38.0019 143.586 38.2431 143.116 38.5783 142.716C38.9134 142.315 39.3338 141.995 39.8088 141.778C40.2837 141.561 40.8012 141.453 41.3233 141.462C41.9234 141.462 42.5539 141.493 43.1994 141.533C45.4832 141.635 47.7568 141.9 50.003 142.325C50.7292 142.471 51.4807 142.653 52.2019 142.829C54.7892 143.5 56.393 146.758 56.1711 149.386C56.0838 151.428 55.858 153.462 55.4952 155.473C55.0363 158.439 54.4966 161.333 53.5081 166.145Z" fill="white"/>
<path opacity="0.2" d="M39.1094 159.755C39.1692 157.524 39.0816 155.292 38.8472 153.072C40.7132 150.868 42.4784 149.038 42.4784 149.038C42.4784 149.038 45.4036 156.567 39.1094 159.755Z" fill="black"/>
<path d="M41.4642 148.221C41.6357 151.413 41.6054 156.381 42.1854 159.432L42.0341 159.059C41.9332 158.913 41.9938 159.059 42.0997 159.14C42.2361 159.275 42.381 159.401 42.5334 159.518C44.5508 161.031 46.9716 162.196 49.2462 163.401L52.1159 164.879C52.3646 165.004 52.5589 165.216 52.6617 165.474C52.7645 165.733 52.7686 166.02 52.6734 166.282C52.5781 166.543 52.3901 166.761 52.145 166.893C51.9 167.024 51.615 167.062 51.3442 166.997C50.2498 166.735 49.2008 166.422 48.1366 166.1C45.1106 165.091 42.0038 164.123 39.4014 162.151C38.8932 161.756 38.4982 161.234 38.2566 160.638C37.0916 156.502 37.0008 152.508 36.915 148.291C37.021 145.351 41.2776 145.295 41.4541 148.236L41.4642 148.221Z" fill="#E9B376"/>
<path d="M56.1408 164.698L55.233 164.037C55.0648 163.915 54.8698 163.836 54.6644 163.805C54.4591 163.774 54.2493 163.793 54.0528 163.86L52.1868 164.486C51.8189 164.61 51.4861 164.821 51.216 165.1C50.9458 165.379 50.7461 165.718 50.6334 166.09L50.4922 166.559C51.9245 167.749 54.3504 167.986 54.3504 167.986L55.0313 168.127C55.1707 168.161 55.3155 168.166 55.4571 168.144C55.5987 168.121 55.7345 168.07 55.8564 167.995C55.9784 167.919 56.0842 167.82 56.1676 167.704C56.2511 167.587 56.3105 167.455 56.3425 167.315L56.6451 165.964C56.6938 165.726 56.6719 165.48 56.5823 165.255C56.4927 165.03 56.3392 164.836 56.1408 164.698Z" fill="#EBB376"/>
<path d="M40.1029 141.669C37.1878 142.713 36.3506 145.255 36.29 150.556C37.8031 151.933 42.3976 152.008 42.3976 152.008C42.3976 152.008 43.1945 143.969 40.1029 141.669Z" fill="#2C2C2C"/>
<path d="M75.4167 167.618V168.818C75.4167 169.126 75.0536 169.252 74.7459 169.252H50.7595C50.4468 169.252 50.0786 169.126 50.0786 168.818V167.618H75.4167Z" fill="#263238"/>
<path opacity="0.4" d="M75.4167 167.618V168.818C75.4167 169.126 75.0536 169.252 74.7459 169.252H50.7595C50.4468 169.252 50.0786 169.126 50.0786 168.818V167.618H75.4167Z" fill="white"/>
<path opacity="0.2" d="M75.4168 167.618V168.818C75.4168 169.126 75.0537 169.252 74.746 169.252H58.9097C58.6021 169.252 58.2339 169.126 58.2339 168.818V167.618H75.4168Z" fill="black"/>
<path d="M79.4364 155.14L76.5768 168.107C76.5239 168.314 76.4045 168.498 76.2369 168.631C76.0693 168.764 75.8627 168.839 75.6488 168.843H60.0142C59.9169 168.841 59.8216 168.815 59.7356 168.77C59.6496 168.724 59.5754 168.659 59.5187 168.58C59.4621 168.501 59.4245 168.41 59.409 168.314C59.3934 168.217 59.4004 168.119 59.4292 168.026L62.2838 155.16C62.3421 154.964 62.4661 154.794 62.6351 154.678C62.8041 154.562 63.0077 154.508 63.2118 154.525H78.8463C79.2649 154.525 79.507 154.717 79.4364 155.14Z" fill="#263238"/>
<path opacity="0.4" d="M79.4365 155.14L76.5769 168.107C76.524 168.314 76.4046 168.498 76.237 168.631C76.0694 168.764 75.8628 168.839 75.6489 168.843H60.559C60.4617 168.84 60.3663 168.815 60.2802 168.769C60.1941 168.724 60.1197 168.659 60.0627 168.58C60.0057 168.501 59.9675 168.41 59.9513 168.314C59.935 168.218 59.9411 168.119 59.969 168.026L62.8286 155.16C62.8869 154.964 63.0109 154.794 63.1799 154.678C63.3489 154.562 63.5525 154.508 63.7566 154.525H78.8464C79.265 154.525 79.5071 154.717 79.4365 155.14Z" fill="white"/>
<path opacity="0.2" d="M71.7351 161.727C71.6852 162.253 71.4506 162.744 71.073 163.113C70.6954 163.482 70.1991 163.706 69.6723 163.744C68.7998 163.744 68.2803 162.841 68.5325 161.727C68.7847 160.612 69.6471 159.75 70.4994 159.709C70.2523 160.819 70.7869 161.727 71.6544 161.727H71.7351Z" fill="black"/>
<path d="M74.2115 147.913L77.5704 147.999L76.0574 144.6C76.0574 144.6 73.0616 144.706 73.1776 146.249L74.2115 147.913Z" fill="#EBB376"/>
<path d="M80.4498 146.345L78.15 143.863L76.0469 144.6L77.57 147.999L80.4498 146.345Z" fill="#EBB376"/>
<path d="M42.4629 141.498C42.12 141.472 43.169 145.684 48.2629 146.723C53.3567 147.762 52.9633 143.076 52.5649 141.901C52.5649 141.901 45.8672 141.72 42.4629 141.498Z" fill="#EBB376"/>
<path d="M43.8601 125.031C43.8601 125.031 46.7803 121.793 52.1212 123.463C57.4622 125.132 57.2353 134.664 54.5219 138.124C50.2725 137.975 46.0215 138.371 41.873 139.304C41.873 139.304 39.3009 132.389 40.5769 128.324C41.8529 124.259 43.8601 125.031 43.8601 125.031Z" fill="#263238"/>
<path d="M44.9345 134.538C45.2724 136.787 45.5346 140.863 43.9258 142.154C43.9258 142.154 46.0238 142.083 50.0939 145.301C51.5716 143.626 50.6991 142.935 50.6991 142.935C48.2934 142.073 48.4295 140.257 48.9188 138.598L44.9345 134.538Z" fill="#EBB376"/>
<path opacity="0.2" d="M46.5685 136.197L48.9439 138.598C48.8241 138.987 48.738 139.385 48.6867 139.788C47.7638 139.546 46.5281 138.371 46.4726 137.377C46.4335 136.981 46.4659 136.582 46.5685 136.197Z" fill="black"/>
<path d="M43.5776 129.949C43.8297 133.545 43.865 135.068 45.6756 137.009C48.4041 139.894 52.7364 139.027 53.5181 135.496C54.2494 132.309 53.7098 126.963 50.2197 125.384C49.4836 125.02 48.6635 124.859 47.8441 124.917C47.0247 124.975 46.2358 125.251 45.5588 125.717C44.8818 126.182 44.3413 126.819 43.993 127.563C43.6447 128.307 43.5013 129.131 43.5776 129.949Z" fill="#EBB376"/>
<path d="M48.0058 131.053C48.0058 131.361 48.1723 131.608 48.369 131.618C48.5657 131.628 48.7069 131.386 48.7018 131.083C48.6968 130.781 48.5304 130.529 48.3387 130.524C48.1471 130.518 47.9958 130.75 48.0058 131.053Z" fill="#263238"/>
<path d="M51.7681 131.093C51.7681 131.396 51.9395 131.648 52.1312 131.658C52.3228 131.668 52.4691 131.426 52.4641 131.123C52.459 130.821 52.2926 130.569 52.1009 130.564C51.9093 130.559 51.7681 130.791 51.7681 131.093Z" fill="#263238"/>
<path d="M52 130.574L52.701 130.392C52.701 130.392 52.353 130.947 52 130.574Z" fill="#263238"/>
<path d="M50.6284 131.713C50.9105 132.416 51.2799 133.08 51.7279 133.69C51.5768 133.793 51.4045 133.861 51.2237 133.888C51.043 133.915 50.8585 133.901 50.6839 133.847L50.6284 131.713Z" fill="#D58745"/>
<path d="M47.4003 129.136C47.4231 129.14 47.4463 129.138 47.4682 129.131C47.4901 129.124 47.5101 129.112 47.5264 129.096C47.6839 128.95 47.8752 128.846 48.0831 128.794C48.291 128.741 48.5088 128.741 48.7167 128.794C48.7379 128.8 48.7602 128.803 48.7824 128.801C48.8046 128.798 48.826 128.792 48.8454 128.781C48.8649 128.77 48.8818 128.755 48.8953 128.737C48.9087 128.72 48.9183 128.699 48.9235 128.678C48.936 128.631 48.9299 128.581 48.9064 128.539C48.8828 128.496 48.8437 128.465 48.7974 128.451C48.5342 128.38 48.2574 128.377 47.9928 128.442C47.7283 128.508 47.4845 128.639 47.2843 128.824C47.252 128.857 47.2339 128.901 47.2339 128.947C47.2339 128.994 47.252 129.038 47.2843 129.071C47.3133 129.107 47.3548 129.13 47.4003 129.136Z" fill="#263238"/>
<path d="M53.231 129.167C53.2716 129.182 53.3164 129.182 53.357 129.167C53.3766 129.154 53.3935 129.138 53.4067 129.119C53.4199 129.1 53.4291 129.079 53.4338 129.056C53.4385 129.034 53.4386 129.01 53.4341 128.988C53.4296 128.965 53.4205 128.944 53.4075 128.925C53.2689 128.676 53.0749 128.462 52.8405 128.3C52.6061 128.139 52.3376 128.033 52.0558 127.992C52.0334 127.99 52.0109 127.993 51.9898 128.001C51.9687 128.009 51.9494 128.021 51.9333 128.037C51.9171 128.052 51.9044 128.071 51.896 128.092C51.8876 128.113 51.8836 128.135 51.8844 128.158C51.8852 128.205 51.903 128.251 51.9344 128.286C51.9659 128.321 52.009 128.344 52.0558 128.35C52.2788 128.384 52.4908 128.469 52.6754 128.598C52.86 128.728 53.0122 128.898 53.12 129.096C53.1329 129.115 53.1494 129.13 53.1684 129.142C53.1875 129.155 53.2087 129.163 53.231 129.167Z" fill="#263238"/>
<path d="M48.2378 130.533L48.9388 130.357C48.9388 130.357 48.606 130.907 48.2378 130.533Z" fill="#263238"/>
<path d="M44.324 132.107C44.324 132.107 47.0978 129.928 46.4674 126.519C46.4674 126.519 51.4301 124.557 53.387 129.545C53.387 129.545 53.8005 125.268 49.1354 124.431C44.4702 123.594 38.9477 129.918 44.2332 134.714L44.324 132.107Z" fill="#263238"/>
<path d="M42.4329 132.853C42.6128 133.187 42.857 133.482 43.1513 133.72C43.4455 133.959 43.7842 134.138 44.1476 134.245C45.0908 134.502 45.5144 133.574 45.2118 132.616C44.9344 131.754 44.1123 130.599 43.1944 130.745C42.2765 130.891 41.9639 132.001 42.4329 132.853Z" fill="#EBB376"/>
<path d="M53.9316 131.663C53.9089 131.663 53.8869 131.655 53.8687 131.642C53.8506 131.628 53.8372 131.609 53.8308 131.587C52.0504 125.318 46.1749 126.609 46.1143 126.62C46.1014 126.623 46.0881 126.623 46.075 126.621C46.0619 126.619 46.0494 126.614 46.0382 126.607C46.0269 126.6 46.0172 126.591 46.0095 126.58C46.0018 126.569 45.9963 126.557 45.9933 126.544C45.9903 126.531 45.9899 126.518 45.9921 126.505C45.9943 126.491 45.999 126.479 46.0061 126.468C46.0131 126.456 46.0223 126.447 46.033 126.439C46.0438 126.431 46.056 126.426 46.069 126.423C46.1295 126.423 52.1967 125.076 54.0275 131.532C54.0313 131.545 54.0325 131.558 54.031 131.572C54.0295 131.585 54.0253 131.598 54.0188 131.61C54.0122 131.622 54.0033 131.632 53.9927 131.64C53.982 131.648 53.9699 131.654 53.9568 131.658L53.9316 131.663Z" fill="#263238"/>
<path d="M50.8602 134.891C50.6841 135.303 50.5391 135.728 50.4264 136.162H50.1894C49.1252 136.046 48.6764 135.657 48.4847 135.229C48.3988 135.025 48.3625 134.804 48.3788 134.583C48.3866 134.458 48.4103 134.334 48.4494 134.215C49.0769 134.578 49.7753 134.802 50.497 134.87C50.7189 134.881 50.8602 134.891 50.8602 134.891Z" fill="#263238"/>
<path d="M50.4971 134.85L50.361 135.219C49.3523 135.113 48.6613 134.901 48.3789 134.563C48.3867 134.438 48.4104 134.314 48.4495 134.195C49.077 134.558 49.7754 134.782 50.4971 134.85Z" fill="white"/>
<path d="M50.1895 136.142C49.1254 136.026 48.6765 135.637 48.4849 135.208C48.8891 135.261 49.2814 135.382 49.6448 135.567C49.8815 135.697 50.0719 135.898 50.1895 136.142Z" fill="#DE5753"/>
<path d="M50.0181 151.695C50.0021 151.696 49.9861 151.694 49.9712 151.688C49.9564 151.682 49.9431 151.672 49.9324 151.66C47.2526 148.787 45.2319 145.363 44.0114 141.629C44.0037 141.598 44.0084 141.565 44.0244 141.538C44.0405 141.511 44.0666 141.491 44.0972 141.483C44.1121 141.479 44.1276 141.478 44.1428 141.48C44.158 141.483 44.1726 141.488 44.1857 141.496C44.1989 141.504 44.2103 141.514 44.2193 141.527C44.2284 141.539 44.2349 141.553 44.2384 141.568C45.4263 145.2 47.3801 148.535 49.9677 151.347C50.2703 150.339 51.5261 145.548 49.6348 141.876C49.6256 141.849 49.6264 141.819 49.6372 141.792C49.6479 141.765 49.6678 141.743 49.6933 141.73C49.7189 141.717 49.7484 141.713 49.7765 141.719C49.8046 141.726 49.8295 141.742 49.8467 141.765C52.0103 145.966 50.1493 151.559 50.1291 151.615C50.1225 151.634 50.1112 151.652 50.0962 151.666C50.0813 151.68 50.0631 151.69 50.0434 151.695H50.0181Z" fill="#263238"/>
<path d="M50.1745 151.484L50.5578 151.988C50.5922 152.031 50.6109 152.084 50.6109 152.139C50.6109 152.194 50.5922 152.248 50.5578 152.291L50.1695 152.795C50.1463 152.823 50.1173 152.845 50.0846 152.86C50.052 152.875 50.0164 152.883 49.9803 152.883C49.9443 152.883 49.9087 152.875 49.876 152.86C49.8434 152.845 49.8144 152.823 49.7912 152.795L49.4281 152.381C49.3962 152.339 49.3789 152.288 49.3789 152.235C49.3789 152.182 49.3962 152.131 49.4281 152.089L49.7509 151.504C49.772 151.467 49.8019 151.437 49.838 151.415C49.874 151.393 49.915 151.38 49.9572 151.378C49.9993 151.376 50.0413 151.385 50.0793 151.403C50.1173 151.422 50.15 151.449 50.1745 151.484Z" fill="white"/>
<path opacity="0.7" d="M40.1029 141.669C37.1878 142.713 36.3506 145.255 36.29 150.556C37.8031 151.933 42.3976 152.008 42.3976 152.008C42.3976 152.008 43.1945 143.969 40.1029 141.669Z" fill="white"/>
<path d="M70.6001 182.122L75.7141 182.965L78.1703 183.368L78.8864 180.831L76.6673 180.156L71.2406 178.506L70.6001 182.122Z" fill="#EBB376"/>
<path d="M78.3874 180.418L77.2829 183.262C77.2684 183.3 77.2616 183.341 77.2628 183.382C77.2641 183.422 77.2735 183.462 77.2904 183.499C77.3073 183.537 77.3314 183.57 77.3612 183.598C77.3911 183.625 77.4262 183.647 77.4644 183.661L78.8917 184.165C78.8917 184.165 80.7628 184.982 81.368 184.72C83.1383 183.958 85.7457 177.72 85.1708 177.155C84.9589 176.938 84.505 177.155 84.263 177.316C83.4964 177.881 81.7866 179.52 81.1411 179.984C80.3846 180.529 79.2296 180.357 78.7303 180.251C78.6627 180.234 78.5909 180.241 78.528 180.271C78.4651 180.302 78.4152 180.354 78.3874 180.418Z" fill="#2C2C2C"/>
<path opacity="0.2" d="M70.6001 182.122L75.7141 182.965L76.6673 180.156L71.2406 178.506L70.6001 182.122Z" fill="black"/>
<path d="M75.7848 179.626C75.7848 179.626 54.9353 167.905 47.7333 168.238C40.5313 168.571 39.5025 174.915 42.468 178.885C45.4335 182.854 50.9208 183.822 50.9208 183.822C50.9208 183.822 47.1937 178.537 47.7333 177.064C48.273 175.591 50.3811 177.649 50.3811 177.649C50.3811 177.649 63.494 181.885 74.9778 182.859L75.7848 179.626Z" fill="#263238"/>
<path d="M76.1225 179.303L74.9424 178.511L73.4243 183.166H75.245L76.1225 179.303Z" fill="#2C2C2C"/>
<path opacity="0.6" d="M76.1225 179.303L74.9424 178.511L73.4243 183.166H75.245L76.1225 179.303Z" fill="white"/>
</svg>
