<svg width="32" height="32" viewBox="0 0 32 32" fill="none" xmlns="http://www.w3.org/2000/svg">
<rect width="32" height="32" rx="8" fill="#E8E8E8"/>
<path d="M23.9009 16.66C23.7406 16.4775 23.6521 16.2429 23.6521 16C23.6521 15.7571 23.7406 15.5225 23.9009 15.34L25.1809 13.9C25.3219 13.7427 25.4095 13.5447 25.4311 13.3345C25.4526 13.1243 25.407 12.9127 25.3009 12.73L23.3009 9.27002C23.1958 9.08754 23.0358 8.94289 22.8436 8.8567C22.6515 8.77051 22.437 8.74718 22.2309 8.79002L20.3509 9.17002C20.1117 9.21945 19.8626 9.17961 19.6508 9.05802C19.4389 8.93643 19.2789 8.7415 19.2009 8.51002L18.5909 6.68002C18.5238 6.4814 18.396 6.30888 18.2255 6.18686C18.055 6.06484 17.8505 5.99948 17.6409 6.00002H13.6409C13.4228 5.98864 13.207 6.04894 13.0264 6.17173C12.8459 6.29452 12.7105 6.47304 12.6409 6.68002L12.0809 8.51002C12.0029 8.7415 11.8428 8.93643 11.631 9.05802C11.4191 9.17961 11.1701 9.21945 10.9309 9.17002L9.00087 8.79002C8.80542 8.7624 8.60617 8.79324 8.42822 8.87866C8.25027 8.96407 8.10157 9.10025 8.00087 9.27002L6.00087 12.73C5.89203 12.9107 5.84309 13.1211 5.86106 13.3312C5.87902 13.5414 5.96296 13.7405 6.10087 13.9L7.37087 15.34C7.53119 15.5225 7.61961 15.7571 7.61961 16C7.61961 16.2429 7.53119 16.4775 7.37087 16.66L6.10087 18.1C5.96296 18.2596 5.87902 18.4587 5.86106 18.6688C5.84309 18.8789 5.89203 19.0894 6.00087 19.27L8.00087 22.73C8.10597 22.9125 8.26599 23.0571 8.45812 23.1433C8.65026 23.2295 8.8647 23.2529 9.07087 23.21L10.9509 22.83C11.1901 22.7806 11.4391 22.8204 11.651 22.942C11.8628 23.0636 12.0229 23.2585 12.1009 23.49L12.7109 25.32C12.7805 25.527 12.9159 25.7055 13.0964 25.8283C13.277 25.9511 13.4928 26.0114 13.7109 26H17.7109C17.9205 26.0006 18.125 25.9352 18.2955 25.8132C18.466 25.6912 18.5938 25.5186 18.6609 25.32L19.2709 23.49C19.3489 23.2585 19.5089 23.0636 19.7208 22.942C19.9326 22.8204 20.1817 22.7806 20.4209 22.83L22.3009 23.21C22.507 23.2529 22.7215 23.2295 22.9136 23.1433C23.1058 23.0571 23.2658 22.9125 23.3709 22.73L25.3709 19.27C25.477 19.0873 25.5226 18.8757 25.5011 18.6655C25.4795 18.4553 25.3919 18.2573 25.2509 18.1L23.9009 16.66ZM22.4109 18L23.2109 18.9L21.9309 21.12L20.7509 20.88C20.0307 20.7328 19.2814 20.8551 18.6455 21.2238C18.0095 21.5925 17.531 22.1819 17.3009 22.88L16.9209 24H14.3609L14.0009 22.86C13.7707 22.1619 13.2923 21.5725 12.6563 21.2038C12.0203 20.8351 11.2711 20.7128 10.5509 20.86L9.37087 21.1L8.07087 18.89L8.87087 17.99C9.36283 17.44 9.6348 16.7279 9.6348 15.99C9.6348 15.2521 9.36283 14.54 8.87087 13.99L8.07087 13.09L9.35087 10.89L10.5309 11.13C11.2511 11.2772 12.0003 11.1549 12.6363 10.7862C13.2723 10.4175 13.7507 9.82818 13.9809 9.13002L14.3609 8.00002H16.9209L17.3009 9.14002C17.531 9.83818 18.0095 10.4275 18.6455 10.7962C19.2814 11.1649 20.0307 11.2872 20.7509 11.14L21.9309 10.9L23.2109 13.12L22.4109 14.02C21.9244 14.5688 21.6558 15.2767 21.6558 16.01C21.6558 16.7433 21.9244 17.4513 22.4109 18ZM15.6409 12C14.8497 12 14.0764 12.2346 13.4186 12.6741C12.7608 13.1137 12.2481 13.7384 11.9454 14.4693C11.6426 15.2002 11.5634 16.0045 11.7177 16.7804C11.8721 17.5563 12.253 18.269 12.8124 18.8284C13.3719 19.3879 14.0846 19.7688 14.8605 19.9232C15.6364 20.0775 16.4407 19.9983 17.1716 19.6955C17.9025 19.3928 18.5272 18.8801 18.9668 18.2223C19.4063 17.5645 19.6409 16.7911 19.6409 16C19.6409 14.9392 19.2194 13.9217 18.4693 13.1716C17.7192 12.4214 16.7017 12 15.6409 12ZM15.6409 18C15.2453 18 14.8586 17.8827 14.5297 17.663C14.2008 17.4432 13.9445 17.1308 13.7931 16.7654C13.6417 16.3999 13.6021 15.9978 13.6793 15.6098C13.7565 15.2219 13.947 14.8655 14.2267 14.5858C14.5064 14.3061 14.8627 14.1156 15.2507 14.0384C15.6387 13.9613 16.0408 14.0009 16.4062 14.1523C16.7717 14.3036 17.084 14.56 17.3038 14.8889C17.5236 15.2178 17.6409 15.6045 17.6409 16C17.6409 16.5304 17.4302 17.0392 17.0551 17.4142C16.68 17.7893 16.1713 18 15.6409 18Z" fill="#2C2C2C"/>
</svg>
