<svg width="25" height="25" viewBox="0 0 25 25" fill="none" xmlns="http://www.w3.org/2000/svg">
<path d="M19.5 7.5H16.5V6.5C16.5 5.43913 16.0786 4.42172 15.3284 3.67157C14.5783 2.92143 13.5609 2.5 12.5 2.5C11.4391 2.5 10.4217 2.92143 9.67157 3.67157C8.92143 4.42172 8.5 5.43913 8.5 6.5V7.5H5.5C5.23478 7.5 4.98043 7.60536 4.79289 7.79289C4.60536 7.98043 4.5 8.23478 4.5 8.5V19.5C4.5 20.2956 4.81607 21.0587 5.37868 21.6213C5.94129 22.1839 6.70435 22.5 7.5 22.5H17.5C18.2956 22.5 19.0587 22.1839 19.6213 21.6213C20.1839 21.0587 20.5 20.2956 20.5 19.5V8.5C20.5 8.23478 20.3946 7.98043 20.2071 7.79289C20.0196 7.60536 19.7652 7.5 19.5 7.5ZM10.5 6.5C10.5 5.96957 10.7107 5.46086 11.0858 5.08579C11.4609 4.71071 11.9696 4.5 12.5 4.5C13.0304 4.5 13.5391 4.71071 13.9142 5.08579C14.2893 5.46086 14.5 5.96957 14.5 6.5V7.5H10.5V6.5ZM18.5 19.5C18.5 19.7652 18.3946 20.0196 18.2071 20.2071C18.0196 20.3946 17.7652 20.5 17.5 20.5H7.5C7.23478 20.5 6.98043 20.3946 6.79289 20.2071C6.60536 20.0196 6.5 19.7652 6.5 19.5V9.5H8.5V10.5C8.5 10.7652 8.60536 11.0196 8.79289 11.2071C8.98043 11.3946 9.23478 11.5 9.5 11.5C9.76522 11.5 10.0196 11.3946 10.2071 11.2071C10.3946 11.0196 10.5 10.7652 10.5 10.5V9.5H14.5V10.5C14.5 10.7652 14.6054 11.0196 14.7929 11.2071C14.9804 11.3946 15.2348 11.5 15.5 11.5C15.7652 11.5 16.0196 11.3946 16.2071 11.2071C16.3946 11.0196 16.5 10.7652 16.5 10.5V9.5H18.5V19.5Z" fill="#777777"/>
</svg>
