<svg width="103" height="103" viewBox="0 0 103 103" fill="none" xmlns="http://www.w3.org/2000/svg">
<g clip-path="url(#clip0_601_3713)">
<g clip-path="url(#clip1_601_3713)">
<path d="M105 -1H-1V105H105V-1Z" fill="#E8E8E8"/>
<path d="M52 98.375C77.6122 98.375 98.375 77.6122 98.375 52C98.375 26.3878 77.6122 5.625 52 5.625C26.3878 5.625 5.625 26.3878 5.625 52C5.625 77.6122 26.3878 98.375 52 98.375Z" fill="#C4E7C2"/>
<path fill-rule="evenodd" clip-rule="evenodd" d="M51.9888 82.1854C68.6201 82.1854 82.1848 68.6207 82.1848 51.9902C82.1848 35.3793 68.6201 21.8146 51.9888 21.8146C35.3792 21.8146 21.8145 35.3794 21.8145 51.9902C21.8145 68.6207 35.3792 82.1854 51.9888 82.1854Z" fill="#FF313A"/>
<path fill-rule="evenodd" clip-rule="evenodd" d="M51.9895 76.4786C65.4905 76.4786 76.4786 65.4903 76.4786 51.9901C76.4786 38.5095 65.4905 27.5213 51.9895 27.5213C38.5102 27.5213 27.5215 38.5095 27.5215 51.9901C27.5215 65.4904 38.5102 76.4786 51.9895 76.4786Z" fill="#FDFDFD"/>
<path fill-rule="evenodd" clip-rule="evenodd" d="M51.9885 71.0694C62.5083 71.0694 71.069 62.5095 71.069 51.9902C71.069 41.4906 62.5083 32.9304 51.9885 32.9304C41.4904 32.9304 32.9297 41.4906 32.9297 51.9902C32.9297 62.5095 41.4904 71.0694 51.9885 71.0694Z" fill="#FF313A"/>
<path fill-rule="evenodd" clip-rule="evenodd" d="M51.9889 65.1071C59.2293 65.1071 65.1064 59.2293 65.1064 51.9902C65.1064 44.7702 59.2293 38.8931 51.9889 38.8931C44.7702 38.8931 38.8926 44.7701 38.8926 51.9902C38.8926 59.2293 44.7702 65.1071 51.9889 65.1071Z" fill="#FDFDFD"/>
<path fill-rule="evenodd" clip-rule="evenodd" d="M35.6701 51.1913L63.0981 39.6917C63.3533 39.5853 63.652 39.7132 63.7581 39.9689L68.9753 52.4264C69.0814 52.6822 68.9753 52.98 68.7201 53.0864L41.292 64.5859C41.0151 64.6925 40.717 64.5641 40.6109 64.3084L35.3932 51.8721C35.2866 51.617 35.4144 51.3191 35.6701 51.1913Z" fill="#6BC06F"/>
<path fill-rule="evenodd" clip-rule="evenodd" d="M37.0972 51.7236L62.4808 41.0972C62.6935 40.9911 62.9497 41.0972 63.0558 41.3319L67.5282 51.9792C67.6137 52.2131 67.5065 52.4694 67.2938 52.5545L41.9102 63.2017C41.6757 63.2869 41.42 63.1802 41.3351 62.968L36.8632 52.2986C36.7784 52.0857 36.8845 51.8297 37.0972 51.7236Z" fill="#A8DAAA"/>
<path fill-rule="evenodd" clip-rule="evenodd" d="M40.951 51.0414L50.108 47.1875L59.2856 43.3546C59.3068 43.4188 59.3281 43.4824 59.3705 43.5675C60.1583 45.4629 62.0966 46.4636 63.6726 45.8035C63.7575 45.761 63.8641 45.7186 63.9496 45.6762L64.9925 48.1885C64.9076 48.2097 64.801 48.2525 64.7161 48.2737C63.1401 48.9553 62.5014 51.021 63.2886 52.9161C63.3316 53.0015 63.3529 53.0652 63.3953 53.1293L54.2176 56.9835L45.0394 60.8379C45.0182 60.7528 44.997 60.6891 44.9757 60.604C44.1663 58.7087 42.2497 57.7077 40.6529 58.3679C40.5675 58.4105 40.4826 58.453 40.376 58.4954L39.332 55.9829C39.4386 55.9617 39.5241 55.9405 39.6307 55.8974C41.2062 55.2375 41.8454 53.1504 41.0354 51.2555C41.0146 51.1693 40.9722 51.1062 40.951 51.0414Z" fill="#6BC06F"/>
<path fill-rule="evenodd" clip-rule="evenodd" d="M18.8348 6.32758L30.5124 17.1822L27.5637 26.916L18.1795 30.6783L6.50195 19.8231L15.8856 16.0614L18.8348 6.32758Z" fill="#1B7D9A"/>
<path fill-rule="evenodd" clip-rule="evenodd" d="M16.2483 14.9023L53.2091 53.1296L51.8588 53.1521L14.793 16.4858L16.2483 14.9023Z" fill="#145C71"/>
<path fill-rule="evenodd" clip-rule="evenodd" d="M77.1256 88.6331C78.6038 88.6331 88.0139 88.6083 88.0139 87.0565V84.8737C88.0139 84.6555 87.941 84.4617 87.8188 84.3164C87.6496 84.0983 86.3644 84.2922 86.0735 84.2678L68.6612 84.0983C68.3703 84.0983 66.552 84.1226 66.3823 84.3649C66.2845 84.5103 66.2363 84.6798 66.2363 84.8737V87.0565C66.2363 88.8996 75.5486 88.6331 77.1256 88.6331Z" fill="#FFB438"/>
<path fill-rule="evenodd" clip-rule="evenodd" d="M77.1253 85.4557C83.0418 85.4557 87.8671 84.9707 87.8671 84.389C87.8671 83.8067 83.0417 83.346 77.1253 83.346C71.2316 83.346 66.4062 83.8067 66.4062 84.389C66.4062 84.9707 71.2316 85.4557 77.1253 85.4557Z" fill="#FCD471"/>
<path fill-rule="evenodd" clip-rule="evenodd" d="M77.1256 84.7767C78.6038 84.7767 88.0139 84.7767 88.0139 83.2256V81.0424C88.0139 80.8242 87.941 80.6307 87.8188 80.4612C87.6496 80.2663 86.3644 80.4358 86.0735 80.4358L68.6612 80.2663C68.3703 80.2663 66.552 80.2903 66.3823 80.5093C66.2845 80.6547 66.2363 80.8483 66.2363 81.0424V83.2256C66.2363 85.0683 75.5486 84.7767 77.1256 84.7767Z" fill="#FFB438"/>
<path fill-rule="evenodd" clip-rule="evenodd" d="M77.1253 81.6003C83.0418 81.6003 87.8671 81.1391 87.8671 80.5579C87.8671 79.9753 83.0417 79.5144 77.1253 79.5144C71.2316 79.5144 66.4062 79.9753 66.4062 80.5579C66.4062 81.1391 71.2316 81.6003 77.1253 81.6003Z" fill="#FCD471"/>
<path fill-rule="evenodd" clip-rule="evenodd" d="M77.1256 80.9453C78.6038 80.9453 88.0139 80.9453 88.0139 79.369V77.1869C88.0139 76.9928 87.941 76.7982 87.8188 76.6287C87.6496 76.4108 86.3644 76.6047 86.0735 76.6047L68.6612 76.4349C68.3703 76.4108 66.552 76.4349 66.3823 76.6771C66.2845 76.8226 66.2363 76.9928 66.2363 77.187V79.3691C66.2363 81.2121 75.5486 80.9453 77.1256 80.9453Z" fill="#FFB438"/>
<path fill-rule="evenodd" clip-rule="evenodd" d="M77.1253 77.7692C83.0418 77.7692 87.8671 77.2837 87.8671 76.7254C87.8671 76.1439 83.0417 75.659 77.1253 75.659C71.2316 75.659 66.4062 76.1439 66.4062 76.7254C66.4062 77.2837 71.2316 77.7692 77.1253 77.7692Z" fill="#FCD471"/>
<path fill-rule="evenodd" clip-rule="evenodd" d="M77.1256 77.1139C78.6038 77.1139 88.0139 77.0898 88.0139 75.5376V73.355C88.0139 73.1368 87.941 72.9427 87.8188 72.7973C87.6496 72.5792 86.3644 72.7732 86.0735 72.7487L68.6612 72.5792C68.3703 72.5792 66.552 72.6035 66.3823 72.846C66.2845 72.9914 66.2363 73.1612 66.2363 73.3551V75.5377C66.2363 77.3804 75.5486 77.1139 77.1256 77.1139Z" fill="#FFB438"/>
<path fill-rule="evenodd" clip-rule="evenodd" d="M77.1253 73.9375C83.0418 73.9375 87.8671 73.4526 87.8671 72.87C87.8671 72.2883 83.0417 71.8273 77.1253 71.8273C71.2316 71.8273 66.4062 72.2883 66.4062 72.87C66.4062 73.4525 71.2316 73.9375 77.1253 73.9375Z" fill="#FCD471"/>
<path fill-rule="evenodd" clip-rule="evenodd" d="M79.5017 72.9427C81.0053 72.9427 90.4143 72.9184 90.4143 71.3667V69.184C90.4143 68.9661 90.3175 68.7715 90.1959 68.6266C90.0509 68.4079 88.7648 68.6024 88.4739 68.6024L71.063 68.408C70.7479 68.408 68.9534 68.432 68.7831 68.6751C68.6857 68.8203 68.6133 68.99 68.6133 69.1841V71.3667C68.6134 73.2095 77.9499 72.9427 79.5017 72.9427Z" fill="#FFB438"/>
<path fill-rule="evenodd" clip-rule="evenodd" d="M79.5247 69.7661C85.4426 69.7661 90.2437 69.2808 90.2437 68.6988C90.2437 68.1173 85.4426 67.6561 79.5247 67.6561C73.6082 67.6561 68.8066 68.1173 68.8066 68.6988C68.8066 69.2808 73.6083 69.7661 79.5247 69.7661Z" fill="#FCD471"/>
<path fill-rule="evenodd" clip-rule="evenodd" d="M76.8096 68.7716C78.3131 68.7716 87.6974 68.7475 87.6974 67.1958V65.0129C87.6974 64.7947 87.6249 64.6009 87.5038 64.4555C87.334 64.2371 86.0733 64.4314 85.7819 64.4068L68.37 64.2371C68.0558 64.2371 66.2609 64.2612 66.0901 64.5041C65.9938 64.6493 65.9219 64.8188 65.9219 65.0129V67.1958C65.9218 69.0387 75.2578 68.7716 76.8096 68.7716Z" fill="#FFB438"/>
<path fill-rule="evenodd" clip-rule="evenodd" d="M76.8327 65.5949C82.7502 65.5949 87.5518 65.1102 87.5518 64.5282C87.5518 63.9459 82.7503 63.4858 76.8327 63.4858C70.9162 63.4858 66.1152 63.9459 66.1152 64.5282C66.1152 65.1102 70.9163 65.5949 76.8327 65.5949Z" fill="#FCD471"/>
<path fill-rule="evenodd" clip-rule="evenodd" d="M72.3723 64.2128C73.8268 63.9459 83.0898 62.3697 82.8238 60.8423L82.4605 58.6837C82.4366 58.4653 82.3383 58.2957 82.1934 58.1506C81.9755 57.9806 80.739 58.3685 80.4709 58.4169L63.279 61.1575C62.9633 61.2054 61.1926 61.5205 61.072 61.7882C60.9996 61.9574 60.9747 62.1515 60.9996 62.3213L61.3625 64.4796C61.6776 66.2986 70.8201 64.4555 72.3723 64.2128Z" fill="#FFB438"/>
<path fill-rule="evenodd" clip-rule="evenodd" d="M71.4981 58.9991C65.6546 59.9937 60.9989 61.2545 61.0952 61.8365C61.192 62.394 65.9936 62.0547 71.8381 61.0601C77.682 60.0661 82.3376 58.8051 82.2409 58.2471C82.1441 57.6654 77.3187 58.0044 71.4981 58.9991Z" fill="#FCD471"/>
<path fill-rule="evenodd" clip-rule="evenodd" d="M59.8519 88.9967C66.0354 88.9967 71.0797 83.9529 71.0797 77.7694C71.0797 71.5853 66.0353 66.5413 59.8519 66.5413C53.6679 66.5413 48.623 71.5854 48.623 77.7694C48.623 83.9529 53.6679 88.9967 59.8519 88.9967Z" fill="#FFB438"/>
<path fill-rule="evenodd" clip-rule="evenodd" d="M59.8526 87.0326C64.945 87.0326 69.1157 82.8622 69.1157 77.7695C69.1157 72.6768 64.945 68.5299 59.8526 68.5299C54.7591 68.5299 50.6133 72.6767 50.6133 77.7695C50.6133 82.8623 54.759 87.0326 59.8526 87.0326Z" fill="#FCD471"/>
<path fill-rule="evenodd" clip-rule="evenodd" d="M59.8516 86.4997C64.6532 86.4997 68.5816 82.5707 68.5816 77.7694C68.5816 72.9682 64.6532 69.0635 59.8516 69.0635C55.0501 69.0635 51.1465 72.9681 51.1465 77.7694C51.1465 82.5708 55.05 86.4997 59.8516 86.4997Z" fill="#FFB438"/>
<path opacity="0.1" fill-rule="evenodd" clip-rule="evenodd" d="M67.5539 69.6176L51.998 85.4557L51.9727 85.7549C54.0021 87.7569 56.7861 88.9967 59.8508 88.9967C66.0343 88.9967 71.0785 83.9529 71.0785 77.7694C71.0785 74.5636 69.7209 71.6669 67.5539 69.6176Z" fill="black"/>
</g>
</g>
<defs>
<clipPath id="clip0_601_3713">
<path d="M0 8C0 3.58172 3.58172 0 8 0H95C99.4183 0 103 3.58172 103 8V95C103 99.4183 99.4183 103 95 103H8C3.58172 103 0 99.4183 0 95V8Z" fill="white"/>
</clipPath>
<clipPath id="clip1_601_3713">
<rect width="106" height="106" fill="white" transform="translate(-1 -1)"/>
</clipPath>
</defs>
</svg>
