<svg width="51" height="18" viewBox="0 0 51 18" fill="none" xmlns="http://www.w3.org/2000/svg">
<rect width="51" height="18" rx="9" fill="#FFCC7B"/>
<g clip-path="url(#clip0_2781_8046)">
<path d="M10.9997 8.58331C10.8892 8.58331 10.7832 8.62721 10.705 8.70535C10.6269 8.78349 10.583 8.88947 10.583 8.99998V10.6666C10.583 10.7772 10.6269 10.8831 10.705 10.9613C10.7832 11.0394 10.8892 11.0833 10.9997 11.0833C11.1102 11.0833 11.2162 11.0394 11.2943 10.9613C11.3724 10.8831 11.4163 10.7772 11.4163 10.6666V8.99998C11.4163 8.88947 11.3724 8.78349 11.2943 8.70535C11.2162 8.62721 11.1102 8.58331 10.9997 8.58331ZM11.158 6.94998C11.0566 6.90831 10.9428 6.90831 10.8413 6.94998C10.7902 6.96981 10.7435 6.99955 10.7038 7.03748C10.667 7.07798 10.6374 7.12449 10.6163 7.17498C10.593 7.22443 10.5816 7.27866 10.583 7.33331C10.5827 7.38815 10.5932 7.44251 10.6139 7.49327C10.6347 7.54404 10.6652 7.59021 10.7038 7.62915C10.7443 7.66595 10.7908 7.69555 10.8413 7.71665C10.9045 7.74258 10.973 7.75261 11.0409 7.74586C11.1088 7.73911 11.174 7.71578 11.2308 7.67793C11.2876 7.64007 11.3342 7.58885 11.3666 7.52876C11.3989 7.46867 11.416 7.40156 11.4163 7.33331C11.4148 7.22299 11.3716 7.11733 11.2955 7.03748C11.2559 6.99955 11.2092 6.96981 11.158 6.94998ZM10.9997 4.83331C10.1756 4.83331 9.37001 5.07768 8.6848 5.53552C7.9996 5.99336 7.46554 6.64411 7.15018 7.40547C6.83481 8.16682 6.7523 9.0046 6.91307 9.81286C7.07384 10.6211 7.47068 11.3635 8.0534 11.9463C8.63612 12.529 9.37855 12.9258 10.1868 13.0866C10.9951 13.2474 11.8328 13.1648 12.5942 12.8495C13.3555 12.5341 14.0063 12.0001 14.4641 11.3149C14.922 10.6297 15.1663 9.82407 15.1663 8.99998C15.1663 8.45281 15.0586 7.91099 14.8492 7.40547C14.6398 6.89994 14.3329 6.44061 13.946 6.0537C13.559 5.66679 13.0997 5.35988 12.5942 5.15048C12.0887 4.94109 11.5469 4.83331 10.9997 4.83331ZM10.9997 12.3333C10.3404 12.3333 9.69594 12.1378 9.14778 11.7715C8.59961 11.4053 8.17237 10.8847 7.92008 10.2756C7.66779 9.6665 7.60177 8.99628 7.73039 8.34968C7.85901 7.70308 8.17648 7.10913 8.64265 6.64296C9.10883 6.17678 9.70277 5.85931 10.3494 5.7307C10.996 5.60208 11.6662 5.66809 12.2753 5.92038C12.8844 6.17267 13.405 6.59992 13.7712 7.14808C14.1375 7.69624 14.333 8.34071 14.333 8.99998C14.333 9.88404 13.9818 10.7319 13.3567 11.357C12.7316 11.9821 11.8837 12.3333 10.9997 12.3333Z" fill="black"/>
</g>
<path d="M20.555 13V6.645H18.1V5.8H23.9V6.645H21.445V13H20.555ZM26.1953 13.15C25.6586 13.15 25.1953 13.0283 24.8053 12.785C24.4186 12.5417 24.1203 12.205 23.9103 11.775C23.7003 11.345 23.5953 10.8517 23.5953 10.295C23.5953 9.72833 23.702 9.23167 23.9153 8.805C24.1286 8.37833 24.4303 8.04667 24.8203 7.81C25.2103 7.57 25.6686 7.45 26.1953 7.45C26.7353 7.45 27.2003 7.57167 27.5903 7.815C27.9803 8.055 28.2786 8.39 28.4853 8.82C28.6953 9.24667 28.8003 9.73833 28.8003 10.295C28.8003 10.8583 28.6953 11.355 28.4853 11.785C28.2753 12.2117 27.9753 12.5467 27.5853 12.79C27.1953 13.03 26.732 13.15 26.1953 13.15ZM26.1953 12.305C26.7553 12.305 27.172 12.1183 27.4453 11.745C27.7186 11.3717 27.8553 10.8883 27.8553 10.295C27.8553 9.685 27.717 9.2 27.4403 8.84C27.1636 8.47667 26.7486 8.295 26.1953 8.295C25.8186 8.295 25.5086 8.38 25.2653 8.55C25.022 8.72 24.8403 8.955 24.7203 9.255C24.6003 9.555 24.5403 9.90167 24.5403 10.295C24.5403 10.9017 24.6803 11.3883 24.9603 11.755C25.2403 12.1217 25.652 12.305 26.1953 12.305ZM31.9031 13V5.8H34.1231C34.1965 5.8 34.3248 5.80167 34.5081 5.805C34.6915 5.80833 34.8665 5.82167 35.0331 5.845C35.5898 5.91833 36.0548 6.12167 36.4281 6.455C36.8048 6.785 37.0881 7.205 37.2781 7.715C37.4681 8.225 37.5631 8.78667 37.5631 9.4C37.5631 10.0133 37.4681 10.575 37.2781 11.085C37.0881 11.595 36.8048 12.0167 36.4281 12.35C36.0548 12.68 35.5898 12.8817 35.0331 12.955C34.8665 12.975 34.6898 12.9883 34.5031 12.995C34.3198 12.9983 34.1931 13 34.1231 13H31.9031ZM32.8181 12.15H34.1231C34.2498 12.15 34.3915 12.1467 34.5481 12.14C34.7048 12.13 34.8415 12.115 34.9581 12.095C35.3515 12.0217 35.6698 11.8567 35.9131 11.6C36.1565 11.3433 36.3348 11.0233 36.4481 10.64C36.5615 10.2567 36.6181 9.84333 36.6181 9.4C36.6181 8.94667 36.5598 8.52833 36.4431 8.145C36.3298 7.76167 36.1515 7.44333 35.9081 7.19C35.6648 6.93667 35.3481 6.775 34.9581 6.705C34.8415 6.68167 34.7031 6.66667 34.5431 6.66C34.3831 6.65333 34.2431 6.65 34.1231 6.65H32.8181V12.15ZM41.0098 13.15C40.4731 13.15 40.0098 13.0283 39.6198 12.785C39.2331 12.5417 38.9348 12.205 38.7248 11.775C38.5148 11.345 38.4098 10.8517 38.4098 10.295C38.4098 9.72833 38.5164 9.23167 38.7298 8.805C38.9431 8.37833 39.2448 8.04667 39.6348 7.81C40.0248 7.57 40.4831 7.45 41.0098 7.45C41.5498 7.45 42.0148 7.57167 42.4048 7.815C42.7948 8.055 43.0931 8.39 43.2998 8.82C43.5098 9.24667 43.6148 9.73833 43.6148 10.295C43.6148 10.8583 43.5098 11.355 43.2998 11.785C43.0898 12.2117 42.7898 12.5467 42.3998 12.79C42.0098 13.03 41.5464 13.15 41.0098 13.15ZM41.0098 12.305C41.5698 12.305 41.9864 12.1183 42.2598 11.745C42.5331 11.3717 42.6698 10.8883 42.6698 10.295C42.6698 9.685 42.5314 9.2 42.2548 8.84C41.9781 8.47667 41.5631 8.295 41.0098 8.295C40.6331 8.295 40.3231 8.38 40.0798 8.55C39.8364 8.72 39.6548 8.955 39.5348 9.255C39.4148 9.555 39.3548 9.90167 39.3548 10.295C39.3548 10.9017 39.4948 11.3883 39.7748 11.755C40.0548 12.1217 40.4664 12.305 41.0098 12.305Z" fill="#333333"/>
<defs>
<clipPath id="clip0_2781_8046">
<rect width="10" height="10" fill="white" transform="translate(6 4)"/>
</clipPath>
</defs>
</svg>
