<svg width="56" height="56" viewBox="0 0 56 56" fill="none" xmlns="http://www.w3.org/2000/svg">
<g filter="url(#filter0_d_2578_7786)">
<rect x="4" y="2" width="48" height="48" rx="24" fill="#2C2C2C"/>
<g clip-path="url(#clip0_2578_7786)">
<path d="M35 21H34V20C34 19.2044 33.6839 18.4413 33.1213 17.8787C32.5587 17.3161 31.7956 17 31 17H21C20.2044 17 19.4413 17.3161 18.8787 17.8787C18.3161 18.4413 18 19.2044 18 20V32C18 32.7956 18.3161 33.5587 18.8787 34.1213C19.4413 34.6839 20.2044 35 21 35H35C35.7956 35 36.5587 34.6839 37.1213 34.1213C37.6839 33.5587 38 32.7956 38 32V24C38 23.2044 37.6839 22.4413 37.1213 21.8787C36.5587 21.3161 35.7956 21 35 21ZM21 19H31C31.2652 19 31.5196 19.1054 31.7071 19.2929C31.8946 19.4804 32 19.7348 32 20V21H21C20.7348 21 20.4804 20.8946 20.2929 20.7071C20.1054 20.5196 20 20.2652 20 20C20 19.7348 20.1054 19.4804 20.2929 19.2929C20.4804 19.1054 20.7348 19 21 19ZM36 29H35C34.7348 29 34.4804 28.8946 34.2929 28.7071C34.1054 28.5196 34 28.2652 34 28C34 27.7348 34.1054 27.4804 34.2929 27.2929C34.4804 27.1054 34.7348 27 35 27H36V29ZM36 25H35C34.2044 25 33.4413 25.3161 32.8787 25.8787C32.3161 26.4413 32 27.2044 32 28C32 28.7956 32.3161 29.5587 32.8787 30.1213C33.4413 30.6839 34.2044 31 35 31H36V32C36 32.2652 35.8946 32.5196 35.7071 32.7071C35.5196 32.8946 35.2652 33 35 33H21C20.7348 33 20.4804 32.8946 20.2929 32.7071C20.1054 32.5196 20 32.2652 20 32V22.83C20.3213 22.943 20.6594 23.0005 21 23H35C35.2652 23 35.5196 23.1054 35.7071 23.2929C35.8946 23.4804 36 23.7348 36 24V25Z" fill="white"/>
<path d="M34.2451 13.5V16.749H37.5V19.2324H34.2451V22.5H31.7637V19.2324H28.5V16.749H31.7637V13.5H34.2451Z" fill="white" stroke="#2C2C2C"/>
</g>
</g>
<defs>
<filter id="filter0_d_2578_7786" x="0" y="0" width="56" height="56" filterUnits="userSpaceOnUse" color-interpolation-filters="sRGB">
<feFlood flood-opacity="0" result="BackgroundImageFix"/>
<feColorMatrix in="SourceAlpha" type="matrix" values="0 0 0 0 0 0 0 0 0 0 0 0 0 0 0 0 0 0 127 0" result="hardAlpha"/>
<feOffset dy="2"/>
<feGaussianBlur stdDeviation="2"/>
<feColorMatrix type="matrix" values="0 0 0 0 0.105882 0 0 0 0 0.109804 0 0 0 0 0.113725 0 0 0 0.04 0"/>
<feBlend mode="normal" in2="BackgroundImageFix" result="effect1_dropShadow_2578_7786"/>
<feBlend mode="normal" in="SourceGraphic" in2="effect1_dropShadow_2578_7786" result="shape"/>
</filter>
<clipPath id="clip0_2578_7786">
<rect width="24" height="24" fill="white" transform="translate(16 14)"/>
</clipPath>
</defs>
</svg>
