<svg width="51" height="51" viewBox="0 0 51 51" fill="none" xmlns="http://www.w3.org/2000/svg">
<path d="M25.5 25.5C24.2391 25.5 23.0066 25.8739 21.9582 26.5744C20.9099 27.2749 20.0928 28.2705 19.6103 29.4354C19.1278 30.6003 19.0015 31.8821 19.2475 33.1187C19.4935 34.3553 20.1006 35.4912 20.9922 36.3828C21.8838 37.2744 23.0197 37.8815 24.2563 38.1275C25.4929 38.3735 26.7747 38.2472 27.9396 37.7647C29.1045 37.2822 30.1001 36.4651 30.8006 35.4168C31.5011 34.3684 31.875 33.1359 31.875 31.875C31.875 30.1842 31.2034 28.5627 30.0078 27.3672C28.8123 26.1716 27.1908 25.5 25.5 25.5ZM25.5 34C25.0797 34 24.6689 33.8754 24.3194 33.6419C23.97 33.4084 23.6976 33.0765 23.5368 32.6882C23.3759 32.2999 23.3338 31.8726 23.4158 31.4604C23.4978 31.0482 23.7002 30.6696 23.9974 30.3724C24.2946 30.0752 24.6732 29.8728 25.0854 29.7908C25.4976 29.7088 25.9249 29.7509 26.3132 29.9118C26.7015 30.0726 27.0334 30.345 27.2669 30.6944C27.5004 31.0439 27.625 31.4547 27.625 31.875C27.625 32.4386 27.4011 32.9791 27.0026 33.3776C26.6041 33.7761 26.0636 34 25.5 34ZM23.9912 20.6338C24.1933 20.8272 24.4317 20.9789 24.6925 21.08C24.9469 21.1924 25.2219 21.2505 25.5 21.2505C25.7781 21.2505 26.0531 21.1924 26.3075 21.08C26.5683 20.9789 26.8067 20.8272 27.0088 20.6338L31.875 15.8525C32.2864 15.4411 32.5175 14.8831 32.5175 14.3013C32.5175 13.7194 32.2864 13.1614 31.875 12.75C31.4636 12.3386 30.9056 12.1075 30.3238 12.1075C29.7419 12.1075 29.1839 12.3386 28.7725 12.75L27.625 14.0037V6.375C27.625 5.81141 27.4011 5.27091 27.0026 4.8724C26.6041 4.47388 26.0636 4.25 25.5 4.25C24.9364 4.25 24.3959 4.47388 23.9974 4.8724C23.5989 5.27091 23.375 5.81141 23.375 6.375V14.0037L22.2275 12.75C21.8161 12.3386 21.2581 12.1075 20.6762 12.1075C20.0944 12.1075 19.5364 12.3386 19.125 12.75C18.7136 13.1614 18.4825 13.7194 18.4825 14.3013C18.4825 14.8831 18.7136 15.4411 19.125 15.8525L23.9912 20.6338ZM40.375 31.875C40.375 31.4547 40.2504 31.0439 40.0169 30.6944C39.7834 30.345 39.4515 30.0726 39.0632 29.9118C38.6749 29.7509 38.2476 29.7088 37.8354 29.7908C37.4232 29.8728 37.0446 30.0752 36.7474 30.3724C36.4502 30.6696 36.2478 31.0482 36.1658 31.4604C36.0838 31.8726 36.1259 32.2999 36.2868 32.6882C36.4476 33.0765 36.72 33.4084 37.0694 33.6419C37.4189 33.8754 37.8297 34 38.25 34C38.8136 34 39.3541 33.7761 39.7526 33.3776C40.1511 32.9791 40.375 32.4386 40.375 31.875ZM42.5 17H36.125C35.5614 17 35.0209 17.2239 34.6224 17.6224C34.2239 18.0209 34 18.5614 34 19.125C34 19.6886 34.2239 20.2291 34.6224 20.6276C35.0209 21.0261 35.5614 21.25 36.125 21.25H42.5C43.0636 21.25 43.6041 21.4739 44.0026 21.8724C44.4011 22.2709 44.625 22.8114 44.625 23.375V40.375C44.625 40.9386 44.4011 41.4791 44.0026 41.8776C43.6041 42.2761 43.0636 42.5 42.5 42.5H8.5C7.93641 42.5 7.39591 42.2761 6.9974 41.8776C6.59888 41.4791 6.375 40.9386 6.375 40.375V23.375C6.375 22.8114 6.59888 22.2709 6.9974 21.8724C7.39591 21.4739 7.93641 21.25 8.5 21.25H14.875C15.4386 21.25 15.9791 21.0261 16.3776 20.6276C16.7761 20.2291 17 19.6886 17 19.125C17 18.5614 16.7761 18.0209 16.3776 17.6224C15.9791 17.2239 15.4386 17 14.875 17H8.5C6.80925 17 5.18774 17.6716 3.99219 18.8672C2.79665 20.0627 2.125 21.6842 2.125 23.375V40.375C2.125 42.0658 2.79665 43.6873 3.99219 44.8828C5.18774 46.0784 6.80925 46.75 8.5 46.75H42.5C44.1908 46.75 45.8123 46.0784 47.0078 44.8828C48.2034 43.6873 48.875 42.0658 48.875 40.375V23.375C48.875 21.6842 48.2034 20.0627 47.0078 18.8672C45.8123 17.6716 44.1908 17 42.5 17ZM10.625 31.875C10.625 32.2953 10.7496 32.7061 10.9831 33.0556C11.2166 33.405 11.5485 33.6774 11.9368 33.8382C12.3251 33.9991 12.7524 34.0412 13.1646 33.9592C13.5768 33.8772 13.9554 33.6748 14.2526 33.3776C14.5498 33.0804 14.7522 32.7018 14.8342 32.2896C14.9162 31.8774 14.8741 31.4501 14.7132 31.0618C14.5524 30.6735 14.28 30.3416 13.9306 30.1081C13.5811 29.8746 13.1703 29.75 12.75 29.75C12.1864 29.75 11.6459 29.9739 11.2474 30.3724C10.8489 30.7709 10.625 31.3114 10.625 31.875Z" fill="white"/>
</svg>
