<svg width="97" height="66" viewBox="0 0 97 66" fill="none" xmlns="http://www.w3.org/2000/svg">
<path d="M85.8294 35.8283C86.4752 32.4087 86.0912 28.8756 84.7256 25.672C83.36 22.4685 81.0734 19.7372 78.1528 17.8207C75.2322 15.9041 71.8075 14.8875 68.3082 14.8985C64.8088 14.9094 61.3906 15.9474 58.4822 17.8823C56.3698 12.7767 52.5408 8.55835 47.6488 5.94715C42.7568 3.33596 37.1049 2.49382 31.6579 3.56448C26.211 4.63514 21.3066 7.55223 17.7818 11.8178C14.257 16.0834 12.3304 21.4331 12.3308 26.9538C12.3308 27.2495 12.3308 27.5405 12.3308 27.8314C8.8872 28.8072 5.88575 30.9305 3.82971 33.8454C1.77367 36.7602 0.788052 40.2892 1.03813 43.8408C1.28821 47.3923 2.75878 50.7504 5.20325 53.3519C7.64772 55.9535 10.9175 57.6402 14.4642 58.1294V58.2937H85.0648C87.9332 58.1947 90.6569 57.0169 92.6855 54.9982C94.7141 52.9795 95.8964 50.2704 95.9935 47.4183C96.0906 44.5662 95.0952 41.7838 93.2085 39.6333C91.3219 37.4828 88.6845 36.1245 85.8294 35.833V35.8283Z" fill="#263238" stroke="#263238" stroke-linecap="round" stroke-linejoin="round"/>
<path d="M85.8294 33.7165C86.4752 30.2968 86.0912 26.7637 84.7256 23.5602C83.36 20.3567 81.0734 17.6254 78.1528 15.7088C75.2322 13.7922 71.8075 12.7757 68.3082 12.7867C64.8088 12.7976 61.3906 13.8356 58.4822 15.7705C56.37 10.6653 52.5414 6.44713 47.6498 3.83589C42.7583 1.22465 37.1069 0.382164 31.6603 1.45221C26.2136 2.52226 21.3092 5.43852 17.784 9.70329C14.2589 13.9681 12.3315 19.317 12.3308 24.8373C12.3308 25.133 12.3308 25.424 12.3308 25.7149C8.8872 26.6907 5.88575 28.814 3.82971 31.7288C1.77367 34.6437 0.788052 38.1727 1.03813 41.7243C1.28821 45.2758 2.75878 48.6339 5.20325 51.2354C7.64772 53.837 10.9175 55.5237 14.4642 56.0129V56.1772H85.0648C87.9332 56.0782 90.6569 54.9004 92.6855 52.8817C94.7141 50.863 95.8964 48.1538 95.9935 45.3018C96.0906 42.4497 95.0952 39.6673 93.2085 37.5168C91.3219 35.3663 88.6845 34.008 85.8294 33.7165Z" fill="#F3F3F3" stroke="#263238" stroke-linecap="round" stroke-linejoin="round"/>
<path d="M59.5205 41.5773L47.0882 26.02L34.6606 41.5773H39.5222V65H54.659V41.5773H59.5205Z" fill="white" stroke="#263238" stroke-linecap="round" stroke-linejoin="round"/>
</svg>
