<svg width="25" height="25" viewBox="0 0 25 25" fill="none" xmlns="http://www.w3.org/2000/svg">
<path d="M19.625 7.5H18.625V6.5C18.625 5.70435 18.3089 4.94129 17.7463 4.37868C17.1837 3.81607 16.4206 3.5 15.625 3.5H5.625C4.82935 3.5 4.06629 3.81607 3.50368 4.37868C2.94107 4.94129 2.625 5.70435 2.625 6.5V18.5C2.625 19.2956 2.94107 20.0587 3.50368 20.6213C4.06629 21.1839 4.82935 21.5 5.625 21.5H19.625C20.4206 21.5 21.1837 21.1839 21.7463 20.6213C22.3089 20.0587 22.625 19.2956 22.625 18.5V10.5C22.625 9.70435 22.3089 8.94129 21.7463 8.37868C21.1837 7.81607 20.4206 7.5 19.625 7.5ZM5.625 5.5H15.625C15.8902 5.5 16.1446 5.60536 16.3321 5.79289C16.5196 5.98043 16.625 6.23478 16.625 6.5V7.5H5.625C5.35978 7.5 5.10543 7.39464 4.91789 7.20711C4.73036 7.01957 4.625 6.76522 4.625 6.5C4.625 6.23478 4.73036 5.98043 4.91789 5.79289C5.10543 5.60536 5.35978 5.5 5.625 5.5ZM20.625 15.5H19.625C19.3598 15.5 19.1054 15.3946 18.9179 15.2071C18.7304 15.0196 18.625 14.7652 18.625 14.5C18.625 14.2348 18.7304 13.9804 18.9179 13.7929C19.1054 13.6054 19.3598 13.5 19.625 13.5H20.625V15.5ZM20.625 11.5H19.625C18.8294 11.5 18.0663 11.8161 17.5037 12.3787C16.9411 12.9413 16.625 13.7044 16.625 14.5C16.625 15.2956 16.9411 16.0587 17.5037 16.6213C18.0663 17.1839 18.8294 17.5 19.625 17.5H20.625V18.5C20.625 18.7652 20.5196 19.0196 20.3321 19.2071C20.1446 19.3946 19.8902 19.5 19.625 19.5H5.625C5.35978 19.5 5.10543 19.3946 4.91789 19.2071C4.73036 19.0196 4.625 18.7652 4.625 18.5V9.33C4.94627 9.44302 5.28443 9.50051 5.625 9.5H19.625C19.8902 9.5 20.1446 9.60536 20.3321 9.79289C20.5196 9.98043 20.625 10.2348 20.625 10.5V11.5Z" fill="#2C2C2C"/>
</svg>
