<svg width="25" height="25" viewBox="0 0 25 25" fill="none" xmlns="http://www.w3.org/2000/svg">
<path d="M19.0996 7.5H18.0996V6.5C18.0996 5.70435 17.7835 4.94129 17.2209 4.37868C16.6583 3.81607 15.8953 3.5 15.0996 3.5H5.09961C4.30396 3.5 3.5409 3.81607 2.97829 4.37868C2.41568 4.94129 2.09961 5.70435 2.09961 6.5V18.5C2.09961 19.2956 2.41568 20.0587 2.97829 20.6213C3.5409 21.1839 4.30396 21.5 5.09961 21.5H19.0996C19.8953 21.5 20.6583 21.1839 21.2209 20.6213C21.7835 20.0587 22.0996 19.2956 22.0996 18.5V10.5C22.0996 9.70435 21.7835 8.94129 21.2209 8.37868C20.6583 7.81607 19.8953 7.5 19.0996 7.5ZM5.09961 5.5H15.0996C15.3648 5.5 15.6192 5.60536 15.8067 5.79289C15.9943 5.98043 16.0996 6.23478 16.0996 6.5V7.5H5.09961C4.83439 7.5 4.58004 7.39464 4.3925 7.20711C4.20497 7.01957 4.09961 6.76522 4.09961 6.5C4.09961 6.23478 4.20497 5.98043 4.3925 5.79289C4.58004 5.60536 4.83439 5.5 5.09961 5.5ZM20.0996 15.5H19.0996C18.8344 15.5 18.58 15.3946 18.3925 15.2071C18.205 15.0196 18.0996 14.7652 18.0996 14.5C18.0996 14.2348 18.205 13.9804 18.3925 13.7929C18.58 13.6054 18.8344 13.5 19.0996 13.5H20.0996V15.5ZM20.0996 11.5H19.0996C18.304 11.5 17.5409 11.8161 16.9783 12.3787C16.4157 12.9413 16.0996 13.7044 16.0996 14.5C16.0996 15.2956 16.4157 16.0587 16.9783 16.6213C17.5409 17.1839 18.304 17.5 19.0996 17.5H20.0996V18.5C20.0996 18.7652 19.9943 19.0196 19.8067 19.2071C19.6192 19.3946 19.3648 19.5 19.0996 19.5H5.09961C4.83439 19.5 4.58004 19.3946 4.3925 19.2071C4.20497 19.0196 4.09961 18.7652 4.09961 18.5V9.33C4.42088 9.44302 4.75904 9.50051 5.09961 9.5H19.0996C19.3648 9.5 19.6192 9.60536 19.8067 9.79289C19.9943 9.98043 20.0996 10.2348 20.0996 10.5V11.5Z" fill="#777777"/>
</svg>
