<svg width="56" height="56" viewBox="0 0 56 56" fill="none" xmlns="http://www.w3.org/2000/svg">
<g filter="url(#filter0_d_2578_7792)">
<rect x="4" y="2" width="48" height="48" rx="24" fill="#2C2C2C"/>
<path d="M28 26C27.4067 26 26.8266 26.1759 26.3333 26.5056C25.8399 26.8352 25.4554 27.3038 25.2284 27.8519C25.0013 28.4001 24.9419 29.0033 25.0576 29.5853C25.1734 30.1672 25.4591 30.7018 25.8787 31.1213C26.2982 31.5409 26.8328 31.8266 27.4147 31.9424C27.9967 32.0581 28.5999 31.9987 29.1481 31.7716C29.6962 31.5446 30.1648 31.1601 30.4944 30.6667C30.8241 30.1734 31 29.5933 31 29C31 28.2044 30.6839 27.4413 30.1213 26.8787C29.5587 26.3161 28.7956 26 28 26ZM28 30C27.8022 30 27.6089 29.9414 27.4444 29.8315C27.28 29.7216 27.1518 29.5654 27.0761 29.3827C27.0004 29.2 26.9806 28.9989 27.0192 28.8049C27.0578 28.6109 27.153 28.4327 27.2929 28.2929C27.4327 28.153 27.6109 28.0578 27.8049 28.0192C27.9989 27.9806 28.2 28.0004 28.3827 28.0761C28.5654 28.1518 28.7216 28.28 28.8315 28.4444C28.9414 28.6089 29 28.8022 29 29C29 29.2652 28.8946 29.5196 28.7071 29.7071C28.5196 29.8946 28.2652 30 28 30ZM27.29 23.71C27.3851 23.801 27.4972 23.8724 27.62 23.92C27.7397 23.9729 27.8691 24.0002 28 24.0002C28.1309 24.0002 28.2603 23.9729 28.38 23.92C28.5028 23.8724 28.6149 23.801 28.71 23.71L31 21.46C31.1936 21.2664 31.3024 21.0038 31.3024 20.73C31.3024 20.4562 31.1936 20.1936 31 20C30.8064 19.8064 30.5438 19.6976 30.27 19.6976C29.9962 19.6976 29.7336 19.8064 29.54 20L29 20.59V17C29 16.7348 28.8946 16.4804 28.7071 16.2929C28.5196 16.1054 28.2652 16 28 16C27.7348 16 27.4804 16.1054 27.2929 16.2929C27.1054 16.4804 27 16.7348 27 17V20.59L26.46 20C26.2664 19.8064 26.0038 19.6976 25.73 19.6976C25.4562 19.6976 25.1936 19.8064 25 20C24.8064 20.1936 24.6976 20.4562 24.6976 20.73C24.6976 21.0038 24.8064 21.2664 25 21.46L27.29 23.71ZM35 29C35 28.8022 34.9414 28.6089 34.8315 28.4444C34.7216 28.28 34.5654 28.1518 34.3827 28.0761C34.2 28.0004 33.9989 27.9806 33.8049 28.0192C33.6109 28.0578 33.4327 28.153 33.2929 28.2929C33.153 28.4327 33.0578 28.6109 33.0192 28.8049C32.9806 28.9989 33.0004 29.2 33.0761 29.3827C33.1518 29.5654 33.28 29.7216 33.4444 29.8315C33.6089 29.9414 33.8022 30 34 30C34.2652 30 34.5196 29.8946 34.7071 29.7071C34.8946 29.5196 35 29.2652 35 29ZM36 22H33C32.7348 22 32.4804 22.1054 32.2929 22.2929C32.1054 22.4804 32 22.7348 32 23C32 23.2652 32.1054 23.5196 32.2929 23.7071C32.4804 23.8946 32.7348 24 33 24H36C36.2652 24 36.5196 24.1054 36.7071 24.2929C36.8946 24.4804 37 24.7348 37 25V33C37 33.2652 36.8946 33.5196 36.7071 33.7071C36.5196 33.8946 36.2652 34 36 34H20C19.7348 34 19.4804 33.8946 19.2929 33.7071C19.1054 33.5196 19 33.2652 19 33V25C19 24.7348 19.1054 24.4804 19.2929 24.2929C19.4804 24.1054 19.7348 24 20 24H23C23.2652 24 23.5196 23.8946 23.7071 23.7071C23.8946 23.5196 24 23.2652 24 23C24 22.7348 23.8946 22.4804 23.7071 22.2929C23.5196 22.1054 23.2652 22 23 22H20C19.2044 22 18.4413 22.3161 17.8787 22.8787C17.3161 23.4413 17 24.2044 17 25V33C17 33.7956 17.3161 34.5587 17.8787 35.1213C18.4413 35.6839 19.2044 36 20 36H36C36.7956 36 37.5587 35.6839 38.1213 35.1213C38.6839 34.5587 39 33.7956 39 33V25C39 24.2044 38.6839 23.4413 38.1213 22.8787C37.5587 22.3161 36.7956 22 36 22ZM21 29C21 29.1978 21.0586 29.3911 21.1685 29.5556C21.2784 29.72 21.4346 29.8482 21.6173 29.9239C21.8 29.9996 22.0011 30.0194 22.1951 29.9808C22.3891 29.9422 22.5673 29.847 22.7071 29.7071C22.847 29.5673 22.9422 29.3891 22.9808 29.1951C23.0194 29.0011 22.9996 28.8 22.9239 28.6173C22.8482 28.4346 22.72 28.2784 22.5556 28.1685C22.3911 28.0586 22.1978 28 22 28C21.7348 28 21.4804 28.1054 21.2929 28.2929C21.1054 28.4804 21 28.7348 21 29Z" fill="white"/>
</g>
<defs>
<filter id="filter0_d_2578_7792" x="0" y="0" width="56" height="56" filterUnits="userSpaceOnUse" color-interpolation-filters="sRGB">
<feFlood flood-opacity="0" result="BackgroundImageFix"/>
<feColorMatrix in="SourceAlpha" type="matrix" values="0 0 0 0 0 0 0 0 0 0 0 0 0 0 0 0 0 0 127 0" result="hardAlpha"/>
<feOffset dy="2"/>
<feGaussianBlur stdDeviation="2"/>
<feColorMatrix type="matrix" values="0 0 0 0 0.105882 0 0 0 0 0.109804 0 0 0 0 0.113725 0 0 0 0.04 0"/>
<feBlend mode="normal" in2="BackgroundImageFix" result="effect1_dropShadow_2578_7792"/>
<feBlend mode="normal" in="SourceGraphic" in2="effect1_dropShadow_2578_7792" result="shape"/>
</filter>
</defs>
</svg>
