<svg width="23" height="18" viewBox="0 0 23 18" fill="none" xmlns="http://www.w3.org/2000/svg">
<path d="M1.5 1.5H8.257C8.6511 1.49995 9.04135 1.57756 9.40545 1.72838C9.76955 1.8792 10.1004 2.10029 10.379 2.379L13.5 5.5M4.5 10.5H1.5M8 4.5L10 6.5C10.1313 6.63132 10.2355 6.78722 10.3066 6.9588C10.3776 7.13038 10.4142 7.31428 10.4142 7.5C10.4142 7.68572 10.3776 7.86962 10.3066 8.0412C10.2355 8.21278 10.1313 8.36868 10 8.5C9.86868 8.63132 9.71278 8.73549 9.5412 8.80656C9.36962 8.87763 9.18572 8.91421 9 8.91421C8.81428 8.91421 8.63038 8.87763 8.4588 8.80656C8.28722 8.73549 8.13132 8.63132 8 8.5L6.5 7C5.64 7.86 4.277 7.957 3.303 7.227L3 7" stroke="#21A8FB" stroke-width="2" stroke-linecap="round" stroke-linejoin="round"/>
<path d="M4.5 8V12.5C4.5 14.386 4.5 15.328 5.086 15.914C5.672 16.5 6.614 16.5 8.5 16.5H17.5C19.386 16.5 20.328 16.5 20.914 15.914C21.5 15.328 21.5 14.386 21.5 12.5V9.5C21.5 7.614 21.5 6.672 20.914 6.086C20.328 5.5 19.386 5.5 17.5 5.5H9" stroke="#21A8FB" stroke-width="2" stroke-linecap="round" stroke-linejoin="round"/>
<path d="M14.75 11C14.75 11.4641 14.5656 11.9092 14.2374 12.2374C13.9092 12.5656 13.4641 12.75 13 12.75C12.5359 12.75 12.0908 12.5656 11.7626 12.2374C11.4344 11.9092 11.25 11.4641 11.25 11C11.25 10.5359 11.4344 10.0908 11.7626 9.76256C12.0908 9.43437 12.5359 9.25 13 9.25C13.4641 9.25 13.9092 9.43437 14.2374 9.76256C14.5656 10.0908 14.75 10.5359 14.75 11Z" stroke="#21A8FB" stroke-width="2" stroke-linecap="round" stroke-linejoin="round"/>
</svg>
