<svg width="24" height="24" viewBox="0 0 24 24" fill="none" xmlns="http://www.w3.org/2000/svg">
<path d="M20.4908 7.51996C20.4851 7.49359 20.4851 7.46632 20.4908 7.43996C20.4859 7.41688 20.4859 7.39304 20.4908 7.36996V7.27996L20.4308 7.12996C20.4064 7.08903 20.3761 7.05196 20.3408 7.01996L20.2508 6.93996H20.2008L16.2608 4.44996L12.5408 2.14996C12.4547 2.08169 12.3563 2.03075 12.2508 1.99996H12.1708C12.0814 1.98504 11.9902 1.98504 11.9008 1.99996H11.8008C11.6846 2.02565 11.5733 2.06952 11.4708 2.12996L4.0008 6.77996L3.9108 6.84996L3.8208 6.92996L3.7208 6.99996L3.6708 7.05996L3.6108 7.20996V7.29996V7.35996C3.60109 7.42627 3.60109 7.49365 3.6108 7.55996V16.29C3.61046 16.4599 3.65344 16.6271 3.73567 16.7759C3.81791 16.9246 3.93669 17.0499 4.0808 17.14L11.5808 21.78L11.7308 21.84H11.8108C11.98 21.8936 12.1616 21.8936 12.3308 21.84H12.4108L12.5608 21.78L20.0008 17.21C20.1449 17.1199 20.2637 16.9946 20.3459 16.8459C20.4282 16.6971 20.4711 16.5299 20.4708 16.36V7.62996C20.4708 7.62996 20.4908 7.55996 20.4908 7.51996ZM12.0008 4.16996L13.7808 5.26996L8.1908 8.72996L6.4008 7.62996L12.0008 4.16996ZM11.0008 19.17L5.5008 15.81V9.41996L11.0008 12.82V19.17ZM12.0008 11.06L10.0908 9.90996L15.6808 6.43996L17.6008 7.62996L12.0008 11.06ZM18.5008 15.78L13.0008 19.2V12.82L18.5008 9.41996V15.78Z" fill="#8B20E9"/>
</svg>
