<svg width="19" height="22" viewBox="0 0 19 22" fill="none" xmlns="http://www.w3.org/2000/svg">
<path d="M5 4.5C5 3.30653 5.47411 2.16193 6.31802 1.31802C7.16193 0.474106 8.30653 0 9.5 0C10.6935 0 11.8381 0.474106 12.682 1.31802C13.5259 2.16193 14 3.30653 14 4.5V6H18.5V22H0.5V6H5V4.5ZM5 8H2.5V20H16.5V8H14V11H12V8H7V11H5V8ZM12 6V4.5C12 3.83696 11.7366 3.20107 11.2678 2.73223C10.7989 2.26339 10.163 2 9.5 2C8.83696 2 8.20107 2.26339 7.73223 2.73223C7.26339 3.20107 7 3.83696 7 4.5V6H12Z" fill="#FC9D37"/>
</svg>
