<svg width="21" height="16" viewBox="0 0 21 16" fill="none" xmlns="http://www.w3.org/2000/svg">
<path d="M2.5 0C1.96957 0 1.46086 0.210714 1.08579 0.585786C0.710714 0.960859 0.5 1.46957 0.5 2V13C0.5 13.5304 0.710714 14.0391 1.08579 14.4142C1.46086 14.7893 1.96957 15 2.5 15V16H4.5V15H15.5V16H17.5V15C18.0304 15 18.5391 14.7893 18.9142 14.4142C19.2893 14.0391 19.5 13.5304 19.5 13V12H20.5V10H19.5V5H20.5V3H19.5V2C19.5 1.46957 19.2893 0.960859 18.9142 0.585786C18.5391 0.210714 18.0304 0 17.5 0H2.5ZM2.5 2H17.5V13H2.5V2ZM12 3.5C10.9391 3.5 9.92172 3.92143 9.17157 4.67157C8.42143 5.42172 8 6.43913 8 7.5C8 8.56087 8.42143 9.57828 9.17157 10.3284C9.92172 11.0786 10.9391 11.5 12 11.5C13.0609 11.5 14.0783 11.0786 14.8284 10.3284C15.5786 9.57828 16 8.56087 16 7.5C16 6.43913 15.5786 5.42172 14.8284 4.67157C14.0783 3.92143 13.0609 3.5 12 3.5ZM3.5 5V10H5.5V5H3.5ZM12 5.5C12.5304 5.5 13.0391 5.71071 13.4142 6.08579C13.7893 6.46086 14 6.96957 14 7.5C14 8.03043 13.7893 8.53914 13.4142 8.91421C13.0391 9.28929 12.5304 9.5 12 9.5C11.4696 9.5 10.9609 9.28929 10.5858 8.91421C10.2107 8.53914 10 8.03043 10 7.5C10 6.96957 10.2107 6.46086 10.5858 6.08579C10.9609 5.71071 11.4696 5.5 12 5.5Z" fill="#2C2C2C"/>
</svg>
