<svg width="19" height="20" viewBox="0 0 19 20" fill="none" xmlns="http://www.w3.org/2000/svg">
<path d="M17.9739 10.6745C17.8448 12.2966 17.2527 13.8476 16.268 15.1432C15.2833 16.4387 13.9474 17.4244 12.4189 17.9831C10.8905 18.5419 9.23374 18.6501 7.64556 18.295C6.05738 17.94 4.60451 17.1365 3.45957 15.9801C2.31462 14.8237 1.52573 13.363 1.18661 11.7714C0.847486 10.1799 0.972395 8.52449 1.54649 7.00185C2.12059 5.47922 3.11975 4.15338 4.42525 3.18184C5.73076 2.21029 7.28775 1.6339 8.91123 1.52112" stroke="#2C2C2C" stroke-width="2" stroke-linecap="round" stroke-linejoin="round"/>
<path d="M13.1485 11.4251C12.9124 12.0329 12.5284 12.5723 12.0314 12.9944C11.5344 13.4165 10.94 13.7081 10.302 13.8428C9.66394 13.9774 9.00239 13.951 8.37716 13.7658C7.75192 13.5805 7.18272 13.2424 6.72102 12.7819C6.25933 12.3215 5.9197 11.7532 5.73285 11.1285C5.54601 10.5038 5.51784 9.84238 5.65089 9.20405C5.78395 8.56573 6.07403 7.97064 6.4949 7.47259C6.91578 6.97454 7.45417 6.58924 8.0614 6.35155M9.49992 9.99983L12.7693 6.73076M12.7693 6.73076L15.3848 7.38457L18.0003 4.76931L15.3848 4.1155L14.7309 1.50024L12.1154 4.1155L12.7693 6.73076Z" stroke="#2C2C2C" stroke-width="2" stroke-linecap="round" stroke-linejoin="round"/>
</svg>
